<?xml version="1.0" encoding="UTF-8"?>
<svg id="Layer_2" data-name="Layer 2" xmlns="http://www.w3.org/2000/svg" viewBox="0 0 27.36 23.06">
  <defs>
    <style>
      .cls-1 {
        fill-rule: evenodd;
      }
    </style>
  </defs>
  <g id="_1" data-name="1">
    <path class="cls-1" d="M27.21,10.27l-4.77-7.66c-.17-.26-.42-.43-.69-.43s-.53.16-.69.43l-4.77,7.66c-.18.28-.19.56-.07.81.14.23.4.38.72.38h3.38v.07c0,4.85-3.95,8.79-8.79,8.79S2.74,16.38,2.74,11.53,6.67,2.74,11.52,2.74c1.49,0,2.97.38,4.26,1.11.66.36,1.49.12,1.87-.54.36-.66.12-1.49-.54-1.87-1.7-.94-3.62-1.44-5.58-1.44C5.17,0,0,5.17,0,11.53s5.17,11.53,11.52,11.53,11.53-5.17,11.53-11.53v-.07h3.51c.32,0,.58-.14.72-.38.12-.25.11-.54-.07-.81h0ZM11.2,4h1.01v2.31h-1.01v-2.31ZM6.04,11.92h-2.31v-1.01h2.31v1.01ZM11.2,17.33h1.01v2.34h-1.01v-2.34Z"/>
  </g>
</svg>