<?xml version="1.0" encoding="UTF-8"?>
<svg id="Layer_2" data-name="Layer 2" xmlns="http://www.w3.org/2000/svg" viewBox="0 0 27.36 22.07">
  <defs>
    <style>
      .cls-1 {
        fill-rule: evenodd;
      }
    </style>
  </defs>
  <g id="_1" data-name="1">
    <path class="cls-1" d="M25.62,11.72c-.49-.57-3.95-24.23-16.74-2.67-13.98,20.2,4.25-.88,5.22-1.77.98-.88-1.59,4.25-1.59,4.25-.16.28,7,3.78,13.11.18h0ZM1.83,18.39c-1.01,0-1.83.83-1.83,1.83s.82,1.85,1.83,1.85,1.84-.82,1.84-1.85-.83-1.83-1.84-1.83h0ZM26.32,12.91c-4.77,1.8-9.51,1.71-14.24,0-.53-.18-1.02.47-1.02,1.04h0c0,.56.48.87,1.02,1.02,4.85,1.47,9.61,1.5,14.24,0,.54-.17,1.04-.47,1.04-1.02h0c0-.57-.5-1.22-1.04-1.04h0Z"/>
  </g>
</svg>