<?xml version="1.0" encoding="UTF-8"?>
<svg id="Layer_2" data-name="Layer 2" xmlns="http://www.w3.org/2000/svg" viewBox="0 0 17.81 27.36">
  <defs>
    <style>
      .cls-1 {
        fill-rule: evenodd;
      }
    </style>
  </defs>
  <g id="_1" data-name="1">
    <path class="cls-1" d="M0,20.04c3.33-.63,6.39-1.91,8.9-4.5,2.57,2.61,5.57,4,8.9,4.5-2.54,1.32-5.18,2.02-7.91,2.1v4.98c0,.13-.1.23-.23.23h-1.54c-.13,0-.23-.1-.23-.23v-5.01c-2.56-.19-5.19-.89-7.91-2.08h0ZM10.68,1.79s.05-.1.03-.14c-.01-.06-.06-.09-.11-.09l-1.06-.09s-.09-.03-.11-.07l-.43-1.32c-.02-.06-.08-.09-.12-.09h-.01c-.05,0-.1.03-.12.09l-.38,1.33s-.06.07-.11.07l-1.06.1c-.05,0-.1.04-.11.1-.02.05,0,.11.04.14l.8.68s.05.09.04.13l-.23,1.03c-.01.05,0,.1.05.14.04.03.1.03.14,0l.89-.55s.1-.02.14,0l.91.54s.1.02.14,0c.05-.04.07-.09.05-.14l-.25-1.03s0-.1.04-.13l.79-.69ZM2.26,7.44c2.57-.42,4.84-1.43,6.65-3.37,1.74,1.66,3.73,3.05,6.65,3.37-1.12.4-2.25.8-3.37,1.2-1.09-.84-2.18-1.68-3.27-2.51-1.09.83-2.18,1.66-3.26,2.51-1.14-.4-2.26-.81-3.38-1.2h0ZM1.28,10.4c2.95-.48,5.55-1.64,7.63-3.86,2,1.9,4.28,3.49,7.64,3.86-1.3.46-2.59.93-3.88,1.39-1.25-.96-2.5-1.92-3.76-2.87-1.25.96-2.51,1.91-3.76,2.87-1.29-.46-2.58-.92-3.87-1.39h0ZM.81,13.5c3.13-.51,5.89-1.75,8.09-4.09,2.12,2.02,4.54,3.71,8.09,4.09-1.37.49-2.74.97-4.1,1.46-1.33-1.01-2.66-2.03-3.99-3.05-1.33,1.02-2.66,2.03-3.98,3.05-1.37-.49-2.75-.97-4.12-1.46h0ZM0,16.88c3.45-.56,6.48-1.91,8.9-4.5,2.33,2.23,4.99,4.08,8.9,4.5-1.5.54-3.02,1.08-4.52,1.61-1.47-1.12-2.93-2.24-4.39-3.35-1.46,1.1-2.92,2.23-4.38,3.35-1.51-.53-3.01-1.08-4.53-1.61h0Z"/>
  </g>
</svg>