<?xml version="1.0" encoding="UTF-8"?>
<svg id="Layer_2" data-name="Layer 2" xmlns="http://www.w3.org/2000/svg" viewBox="0 0 27.36 27.29">
  <defs>
    <style>
      .cls-1 {
        fill-rule: evenodd;
      }
    </style>
  </defs>
  <g id="_1" data-name="1">
    <path class="cls-1" d="M1.28,19.61h.33L13.7,3.49c-.39-.05-.73-.23-.99-.49h0c-.31-.31-.51-.76-.51-1.24s.2-.93.51-1.24h0c.32-.33.76-.51,1.24-.51s.93.19,1.24.51c.32.31.52.76.52,1.24s-.2.93-.52,1.24h0c-.27.27-.63.45-1.03.51l11.58,16.1h.31c.36,0,.69.15.91.38h0c.23.24.38.56.38.92v5.09c0,.36-.15.67-.38.92-.23.23-.56.38-.91.38H1.28c-.36,0-.67-.15-.9-.38H.38c-.24-.24-.38-.56-.38-.92v-5.09c0-.36.14-.68.38-.92H.38c.23-.23.54-.38.9-.38h0ZM14.85.85c-.22-.22-.55-.37-.9-.37s-.66.15-.89.38h0c-.23.22-.37.54-.37.89s.14.66.37.89c.23.23.54.37.89.37s.68-.14.9-.37h0c.23-.23.38-.55.38-.89s-.15-.67-.38-.89h0Z"/>
  </g>
</svg>