<?xml version="1.0" encoding="UTF-8"?>
<svg id="Layer_2" data-name="Layer 2" xmlns="http://www.w3.org/2000/svg" viewBox="0 0 16.56 27.36">
  <defs>
    <style>
      .cls-1 {
        fill-rule: evenodd;
      }
    </style>
  </defs>
  <g id="_1" data-name="1">
    <path class="cls-1" d="M12.93.22c-.25-.15-.56-.22-.9-.22-.74,0-1.69.37-2.81,1.09-.82.52-1.42,1.04-1.44,1.05l-.02.02-.02-.02s-.63-.53-1.43-1.05c-1.13-.72-2.08-1.09-2.83-1.09-.33,0-.63.08-.89.22-.36.21-.76.62-.69,1.48.04.48.24,1.03.43,1.56.04.11.08.22.12.34.57,1.29,1.13,1.83,2.74,1.45-1.31,2.42-2.96,2.9-1.14,2.71.68-.49,1.46-.86,2.31-1.08.15-.79.82-1.39,1.66-1.4.83-.02,1.53.56,1.7,1.34,1,.22,1.91.66,2.69,1.26l.14.02c-.99-.75-1.7-1.9-2.18-2.84,1.65.37,2.25-.23,2.75-1.59l.08-.21c.19-.53.39-1.08.43-1.56.08-.86-.32-1.28-.68-1.48h0ZM16.08,19.78l-1.34.02-.12-6.45c-.05-3.16-2.38-5.76-5.42-6.25,0-.03,0-.07,0-.1-.02-.64-.54-1.15-1.19-1.15-.64,0-1.16.54-1.15,1.18,0,.04,0,.07,0,.1-3.01.6-5.27,3.27-5.21,6.44l.1,6.45-1.34.02c-.24.01-.43.2-.43.45l.03,2.3c.01.24.21.43.45.42l15.65-.26c.24-.01.43-.21.43-.45l-.05-2.3c0-.24-.2-.43-.43-.42h0ZM8.31,27.36c1.38-.03,2.48-1.31,2.45-2.88l-5.02.08c.03,1.58,1.18,2.83,2.56,2.8h0ZM8.68,2.84s2.41-.52,3.63.63c-.56,1.72-2.89.16-3.63-.63h0ZM3.08,3.61c1.18-1.3,3.76-.75,3.74-.76-.69.74-3.35,2.29-3.74.76h0Z"/>
  </g>
</svg>