<?xml version="1.0" encoding="UTF-8"?>
<svg id="Layer_2" data-name="Layer 2" xmlns="http://www.w3.org/2000/svg" xmlns:xlink="http://www.w3.org/1999/xlink" viewBox="0 0 72.74 81.09">
  <defs>
    <style>
      .cls-1 {
        opacity: .14;
      }

      .cls-2 {
        fill: url(#linear-gradient-2);
      }

      .cls-3 {
        opacity: .21;
      }

      .cls-4 {
        opacity: .42;
      }

      .cls-5 {
        opacity: .55;
      }

      .cls-6 {
        fill: url(#linear-gradient-4);
      }

      .cls-7 {
        opacity: .48;
      }

      .cls-8 {
        opacity: .35;
      }

      .cls-9 {
        fill: url(#linear-gradient-3);
      }

      .cls-10 {
        opacity: .08;
      }

      .cls-11 {
        opacity: .28;
      }

      .cls-12 {
        opacity: 0;
      }

      .cls-13 {
        fill: url(#linear-gradient);
      }
    </style>
    <linearGradient id="linear-gradient" x1="17.34" y1="19.61" x2="52.66" y2="54.93" gradientUnits="userSpaceOnUse">
      <stop offset="0" stop-color="#eb0a00"/>
      <stop offset="1" stop-color="#ff853b"/>
    </linearGradient>
    <linearGradient id="linear-gradient-2" x1=".92" y1="27.58" x2="19.99" y2="46.65" gradientUnits="userSpaceOnUse">
      <stop offset="0" stop-color="#a3b6bb"/>
      <stop offset="1" stop-color="#d2dddd"/>
    </linearGradient>
    <linearGradient id="linear-gradient-3" x1="24.99" y1="17.67" x2="63.77" y2="56.44" xlink:href="#linear-gradient-2"/>
    <linearGradient id="linear-gradient-4" x1="12.78" y1="13.85" x2="60.76" y2="61.83" gradientUnits="userSpaceOnUse">
      <stop offset="0" stop-color="#2c2e2c"/>
      <stop offset=".99" stop-color="#000"/>
    </linearGradient>
  </defs>
  <g id="Layer_1-2" data-name="Layer 1">
    <g>
      <path class="cls-13" d="M38.3,7.02l-22.67,15s-.27.01-.73.03v29.97h.23s20.33,13.67,23,15.83c.06.35.22.74.46,1.15V6.02c-.21.59-.29,1-.29,1Z"/>
      <path class="cls-2" d="M14.67,22.13h-5.1c-1.6,0-7.86,1.47-7.86,7.99v14.38c0,2.13,2.53,7.59,6.39,7.59h6.43l.13-29.97Z"/>
      <path class="cls-9" d="M44.53.95c-3.33,0-6.53,1.87-6.53,7.86v59.04c0,1.69,2.66,5.02,7.33,5.02s5.33-5.06,5.33-9.19V7.48c0-2.8-2.66-6.53-6.13-6.53Z"/>
      <g>
        <path class="cls-12" d="M72.24,52.06l-8.82-8.81,8.81-8.82c.66-.66.66-1.73,0-2.39-.66-.66-1.73-.66-2.39,0l-8.82,8.82-8.82-8.82c-.66-.66-1.73-.66-2.39,0-.66.66-.66,1.73,0,2.39l8.82,8.82-8.82,8.81c-.66.66-.66,1.73,0,2.39.33.33.76.49,1.19.49s.87-.17,1.19-.49l8.82-8.82,8.82,8.82c.33.33.76.49,1.2.49s.86-.17,1.2-.49c.66-.66.66-1.73,0-2.39ZM43.34,66.52c.93,0,1.69-.75,1.69-1.69V12.95c0-2.3,1.87-4.17,4.17-4.17s4.17,1.87,4.17,4.17v14.16c0,.93.75,1.69,1.69,1.69s1.69-.76,1.69-1.69v-14.16c0-4.16-3.38-7.55-7.54-7.55s-7.55,3.38-7.55,7.55v51.88c0,.94.76,1.69,1.69,1.69ZM18.45,56.43h-3.93c-3.17,0-5.74-2.58-5.74-5.74v-14.87c0-3.17,2.58-5.74,5.74-5.74h3.93v26.36ZM55.06,57.7c-.93,0-1.69.75-1.69,1.68h0v14.16c0,2.3-1.87,4.17-4.17,4.17s-4.17-1.87-4.17-4.17c0-.66-.38-1.22-.92-1.5l-22.15-14.48c-.03-.1-.07-.19-.12-.27v-28.08c.05-.09.09-.18.12-.28l15.29-10.02c.78-.52,1-1.56.49-2.34-.51-.78-1.56-1-2.34-.49l-16.18,10.61h-4.69c-5.03,0-9.12,4.09-9.12,9.12v14.87c0,5.03,4.09,9.12,9.12,9.12h4.69s0,0,0,0l22.51,14.72c.48,3.7,3.65,6.56,7.48,6.56,4.16,0,7.54-3.39,7.54-7.54v-14.16h0c0-.93-.76-1.68-1.69-1.68Z"/>
        <path class="cls-10" d="M71.62,51.44l-8.82-8.81,8.81-8.82c.66-.66.66-1.73,0-2.39-.66-.66-1.73-.66-2.39,0l-8.82,8.82-8.82-8.82c-.66-.66-1.73-.66-2.39,0-.66.66-.66,1.73,0,2.39l8.82,8.82-8.82,8.81c-.66.66-.66,1.73,0,2.39.33.33.76.49,1.19.49s.87-.17,1.19-.49l8.82-8.82,8.82,8.82c.33.33.76.49,1.2.49s.87-.17,1.2-.49c.66-.66.66-1.73,0-2.39ZM42.72,65.89c.93,0,1.69-.75,1.69-1.69V12.33c0-2.3,1.87-4.17,4.17-4.17s4.17,1.87,4.17,4.17v14.16c0,.93.75,1.69,1.69,1.69s1.69-.76,1.69-1.69v-14.16c0-4.16-3.38-7.55-7.54-7.55s-7.55,3.38-7.55,7.55v51.88c0,.94.76,1.69,1.69,1.69ZM17.83,55.8h-3.93c-3.17,0-5.74-2.58-5.74-5.74v-14.87c0-3.17,2.58-5.74,5.74-5.74h3.93v26.36ZM54.43,57.07c-.93,0-1.69.75-1.69,1.68h0v14.16c0,2.3-1.87,4.17-4.17,4.17s-4.17-1.87-4.17-4.17c0-.66-.38-1.22-.92-1.5l-22.15-14.48c-.03-.1-.07-.19-.12-.27v-28.08c.05-.09.09-.18.12-.28l15.29-10.02c.78-.52,1-1.56.49-2.34-.51-.78-1.56-1-2.34-.49l-16.18,10.61h-4.69c-5.03,0-9.12,4.09-9.12,9.12v14.87c0,5.03,4.09,9.12,9.12,9.12h4.69s0,0,0,0l22.51,14.72c.48,3.7,3.65,6.56,7.48,6.56,4.16,0,7.54-3.39,7.54-7.54v-14.16h0c0-.93-.76-1.68-1.69-1.68Z"/>
        <path class="cls-1" d="M70.99,50.81l-8.82-8.81,8.81-8.82c.66-.66.66-1.73,0-2.39-.66-.66-1.73-.66-2.39,0l-8.82,8.82-8.82-8.82c-.66-.66-1.73-.66-2.39,0-.66.66-.66,1.73,0,2.39l8.82,8.82-8.82,8.81c-.66.66-.66,1.73,0,2.39.33.33.76.49,1.19.49s.87-.17,1.19-.49l8.82-8.82,8.82,8.82c.33.33.76.49,1.2.49s.87-.17,1.2-.49c.66-.66.66-1.73,0-2.39ZM42.09,65.27c.93,0,1.69-.75,1.69-1.69V11.7c0-2.3,1.87-4.17,4.17-4.17s4.17,1.87,4.17,4.17v14.16c0,.93.75,1.69,1.69,1.69s1.69-.76,1.69-1.69v-14.16c0-4.16-3.38-7.55-7.54-7.55s-7.55,3.38-7.55,7.55v51.88c0,.94.76,1.69,1.69,1.69ZM17.2,55.18h-3.93c-3.17,0-5.74-2.58-5.74-5.74v-14.87c0-3.17,2.58-5.74,5.74-5.74h3.93v26.36ZM53.81,56.45c-.93,0-1.69.75-1.69,1.68h0v14.16c0,2.3-1.87,4.17-4.17,4.17s-4.17-1.87-4.17-4.17c0-.66-.38-1.22-.92-1.5l-22.15-14.48c-.03-.1-.07-.19-.12-.27v-28.08c.05-.09.09-.18.12-.28l15.29-10.02c.78-.52,1-1.56.49-2.34-.51-.78-1.56-1-2.34-.49l-16.18,10.61h-4.69c-5.03,0-9.12,4.09-9.12,9.12v14.87c0,5.03,4.09,9.12,9.12,9.12h4.69s0,0,0,0l22.51,14.72c.48,3.7,3.65,6.56,7.48,6.56,4.16,0,7.54-3.39,7.54-7.54v-14.16h0c0-.93-.76-1.68-1.69-1.68Z"/>
        <path class="cls-3" d="M70.37,50.19l-8.82-8.81,8.81-8.82c.66-.66.66-1.73,0-2.39-.66-.66-1.73-.66-2.39,0l-8.82,8.82-8.82-8.82c-.66-.66-1.73-.66-2.39,0-.66.66-.66,1.73,0,2.39l8.82,8.82-8.82,8.81c-.66.66-.66,1.73,0,2.39.33.33.76.49,1.19.49s.87-.17,1.19-.49l8.82-8.82,8.82,8.82c.33.33.76.49,1.2.49s.87-.17,1.2-.49c.66-.66.66-1.73,0-2.39ZM41.47,64.64c.93,0,1.69-.75,1.69-1.69V11.08c0-2.3,1.87-4.17,4.17-4.17s4.17,1.87,4.17,4.17v14.16c0,.93.75,1.69,1.69,1.69s1.69-.76,1.69-1.69v-14.16c0-4.16-3.38-7.55-7.54-7.55s-7.55,3.38-7.55,7.55v51.88c0,.94.76,1.69,1.69,1.69ZM16.58,54.55h-3.93c-3.17,0-5.74-2.58-5.74-5.74v-14.87c0-3.17,2.58-5.74,5.74-5.74h3.93v26.36ZM53.18,55.82c-.93,0-1.69.75-1.69,1.68h0v14.16c0,2.3-1.87,4.17-4.17,4.17s-4.17-1.87-4.17-4.17c0-.66-.38-1.22-.92-1.5l-22.15-14.48c-.03-.1-.07-.19-.12-.27v-28.08c.05-.09.09-.18.12-.28l15.29-10.02c.78-.52,1-1.56.49-2.34-.51-.78-1.56-1-2.34-.49l-16.18,10.61h-4.69c-5.03,0-9.12,4.09-9.12,9.12v14.87c0,5.03,4.09,9.12,9.12,9.12h4.69s0,0,0,0l22.51,14.72c.48,3.7,3.65,6.56,7.48,6.56,4.16,0,7.54-3.39,7.54-7.54v-14.16h0c0-.93-.76-1.68-1.69-1.68Z"/>
        <path class="cls-11" d="M69.74,49.56l-8.82-8.81,8.81-8.82c.66-.66.66-1.73,0-2.39-.66-.66-1.73-.66-2.39,0l-8.82,8.82-8.82-8.82c-.66-.66-1.73-.66-2.39,0-.66.66-.66,1.73,0,2.39l8.82,8.82-8.82,8.81c-.66.66-.66,1.73,0,2.39.33.33.76.49,1.19.49s.87-.17,1.19-.49l8.82-8.82,8.82,8.82c.33.33.76.49,1.2.49s.87-.17,1.2-.49c.66-.66.66-1.73,0-2.39ZM40.84,64.02c.93,0,1.69-.75,1.69-1.69V10.45c0-2.3,1.87-4.17,4.17-4.17s4.17,1.87,4.17,4.17v14.16c0,.93.75,1.69,1.69,1.69s1.69-.76,1.69-1.69v-14.16c0-4.16-3.38-7.55-7.54-7.55s-7.55,3.38-7.55,7.55v51.88c0,.94.76,1.69,1.69,1.69ZM15.95,53.93h-3.93c-3.17,0-5.74-2.58-5.74-5.74v-14.87c0-3.17,2.58-5.74,5.74-5.74h3.93v26.36ZM52.56,55.2c-.93,0-1.69.75-1.69,1.68h0v14.16c0,2.3-1.87,4.17-4.17,4.17s-4.17-1.87-4.17-4.17c0-.66-.38-1.22-.92-1.5l-22.15-14.48c-.03-.1-.07-.19-.12-.27v-28.08c.05-.09.09-.18.12-.28l15.29-10.02c.78-.52,1-1.56.49-2.34-.51-.78-1.56-1-2.34-.49l-16.18,10.61h-4.69c-5.03,0-9.12,4.09-9.12,9.12v14.87c0,5.03,4.09,9.12,9.12,9.12h4.69s0,0,0,0l22.51,14.72c.48,3.7,3.65,6.56,7.48,6.56,4.16,0,7.54-3.39,7.54-7.54v-14.16h0c0-.93-.76-1.68-1.69-1.68Z"/>
        <path class="cls-8" d="M69.12,48.94l-8.82-8.81,8.81-8.82c.66-.66.66-1.73,0-2.39-.66-.66-1.73-.66-2.39,0l-8.82,8.82-8.82-8.82c-.66-.66-1.73-.66-2.39,0-.66.66-.66,1.73,0,2.39l8.82,8.82-8.82,8.81c-.66.66-.66,1.73,0,2.39.33.33.76.49,1.19.49s.87-.17,1.19-.49l8.82-8.82,8.82,8.82c.33.33.76.49,1.2.49s.87-.17,1.2-.49c.66-.66.66-1.73,0-2.39ZM40.22,63.39c.93,0,1.69-.75,1.69-1.69V9.83c0-2.3,1.87-4.17,4.17-4.17s4.17,1.87,4.17,4.17v14.16c0,.93.75,1.69,1.69,1.69s1.69-.76,1.69-1.69v-14.16c0-4.16-3.38-7.55-7.54-7.55s-7.55,3.38-7.55,7.55v51.88c0,.94.76,1.69,1.69,1.69ZM15.33,53.3h-3.93c-3.17,0-5.74-2.58-5.74-5.74v-14.87c0-3.17,2.58-5.74,5.74-5.74h3.93v26.36ZM51.93,54.57c-.93,0-1.69.75-1.69,1.68h0v14.16c0,2.3-1.87,4.17-4.17,4.17s-4.17-1.87-4.17-4.17c0-.66-.38-1.22-.92-1.5l-22.15-14.48c-.03-.1-.07-.19-.12-.27v-28.08c.05-.09.09-.18.12-.28l15.29-10.02c.78-.52,1-1.56.49-2.34-.51-.78-1.56-1-2.34-.49l-16.18,10.61h-4.69c-5.03,0-9.12,4.09-9.12,9.12v14.87c0,5.03,4.09,9.12,9.12,9.12h4.69s0,0,0,0l22.51,14.72c.48,3.7,3.65,6.56,7.48,6.56,4.16,0,7.54-3.39,7.54-7.54v-14.16h0c0-.93-.76-1.68-1.69-1.68Z"/>
        <path class="cls-4" d="M68.49,48.31l-8.82-8.81,8.81-8.82c.66-.66.66-1.73,0-2.39-.66-.66-1.73-.66-2.39,0l-8.82,8.82-8.82-8.82c-.66-.66-1.73-.66-2.39,0-.66.66-.66,1.73,0,2.39l8.82,8.82-8.82,8.81c-.66.66-.66,1.73,0,2.39.33.33.76.49,1.19.49s.87-.17,1.19-.49l8.82-8.82,8.82,8.82c.33.33.76.49,1.2.49s.87-.17,1.2-.49c.66-.66.66-1.73,0-2.39ZM39.59,62.77c.93,0,1.69-.75,1.69-1.69V9.2c0-2.3,1.87-4.17,4.17-4.17s4.17,1.87,4.17,4.17v14.16c0,.93.75,1.69,1.69,1.69s1.69-.76,1.69-1.69v-14.16c0-4.16-3.38-7.55-7.54-7.55s-7.55,3.38-7.55,7.55v51.88c0,.94.76,1.69,1.69,1.69ZM14.7,52.68h-3.93c-3.17,0-5.74-2.58-5.74-5.74v-14.87c0-3.17,2.58-5.74,5.74-5.74h3.93v26.36ZM51.31,53.95c-.93,0-1.69.75-1.69,1.68h0v14.16c0,2.3-1.87,4.17-4.17,4.17s-4.17-1.87-4.17-4.17c0-.66-.38-1.22-.92-1.5l-22.15-14.48c-.03-.1-.07-.19-.12-.27v-28.08c.05-.09.09-.18.12-.28l15.29-10.02c.78-.52,1-1.56.49-2.34-.51-.78-1.56-1-2.34-.49l-16.18,10.61h-4.69c-5.03,0-9.12,4.09-9.12,9.12v14.87c0,5.03,4.09,9.12,9.12,9.12h4.69s0,0,0,0l22.51,14.72c.48,3.7,3.65,6.56,7.48,6.56,4.16,0,7.54-3.39,7.54-7.54v-14.16h0c0-.93-.76-1.68-1.69-1.68Z"/>
        <path class="cls-7" d="M67.87,47.69l-8.82-8.81,8.81-8.82c.66-.66.66-1.73,0-2.39-.66-.66-1.73-.66-2.39,0l-8.82,8.82-8.82-8.82c-.66-.66-1.73-.66-2.39,0-.66.66-.66,1.73,0,2.39l8.82,8.82-8.82,8.81c-.66.66-.66,1.73,0,2.39.33.33.76.49,1.19.49s.87-.17,1.19-.49l8.82-8.82,8.82,8.82c.33.33.76.49,1.2.49s.87-.17,1.2-.49c.66-.66.66-1.73,0-2.39ZM38.97,62.14c.93,0,1.69-.75,1.69-1.69V8.58c0-2.3,1.87-4.17,4.17-4.17s4.17,1.87,4.17,4.17v14.16c0,.93.75,1.69,1.69,1.69s1.69-.76,1.69-1.69v-14.16c0-4.16-3.38-7.55-7.54-7.55s-7.55,3.38-7.55,7.55v51.88c0,.94.76,1.69,1.69,1.69ZM14.08,52.05h-3.93c-3.17,0-5.74-2.58-5.74-5.74v-14.87c0-3.17,2.58-5.74,5.74-5.74h3.93v26.36ZM50.68,53.32c-.93,0-1.69.75-1.69,1.68h0v14.16c0,2.3-1.87,4.17-4.17,4.17s-4.17-1.87-4.17-4.17c0-.66-.38-1.22-.92-1.5l-22.15-14.48c-.03-.1-.07-.19-.12-.27v-28.08c.05-.09.09-.18.12-.28l15.29-10.02c.78-.52,1-1.56.49-2.34-.51-.78-1.56-1-2.34-.49l-16.18,10.61h-4.69c-5.03,0-9.12,4.09-9.12,9.12v14.87c0,5.03,4.09,9.12,9.12,9.12h4.69s0,0,0,0l22.51,14.72c.48,3.7,3.65,6.56,7.48,6.56,4.16,0,7.54-3.39,7.54-7.54v-14.16h0c0-.93-.76-1.68-1.69-1.68Z"/>
        <path class="cls-5" d="M67.24,47.06l-8.82-8.81,8.81-8.82c.66-.66.66-1.73,0-2.39-.66-.66-1.73-.66-2.39,0l-8.82,8.82-8.82-8.82c-.66-.66-1.73-.66-2.39,0-.66.66-.66,1.73,0,2.39l8.82,8.82-8.82,8.81c-.66.66-.66,1.73,0,2.39.33.33.76.49,1.19.49s.87-.17,1.19-.49l8.82-8.82,8.82,8.82c.33.33.76.49,1.2.49s.86-.17,1.2-.49c.66-.66.66-1.73,0-2.39ZM38.34,61.52c.93,0,1.69-.75,1.69-1.69V7.95c0-2.3,1.87-4.17,4.17-4.17s4.17,1.87,4.17,4.17v14.16c0,.93.75,1.69,1.69,1.69s1.69-.76,1.69-1.69V7.95c0-4.16-3.38-7.55-7.54-7.55s-7.55,3.38-7.55,7.55v51.88c0,.94.76,1.69,1.69,1.69ZM13.45,51.43h-3.93c-3.17,0-5.74-2.58-5.74-5.74v-14.87c0-3.17,2.58-5.74,5.74-5.74h3.93v26.36ZM50.06,52.7c-.93,0-1.69.75-1.69,1.68h0v14.16c0,2.3-1.87,4.17-4.17,4.17s-4.17-1.87-4.17-4.17c0-.66-.38-1.22-.92-1.5l-22.15-14.48c-.03-.1-.07-.19-.12-.27v-28.08c.05-.09.09-.18.12-.28l15.29-10.02c.78-.52,1-1.56.49-2.34-.51-.78-1.56-1-2.34-.49l-16.18,10.61h-4.69C4.5,21.69.41,25.78.41,30.81v14.87c0,5.03,4.09,9.12,9.12,9.12h4.69s0,0,0,0l22.51,14.72c.48,3.7,3.65,6.56,7.48,6.56,4.16,0,7.54-3.39,7.54-7.54v-14.16h0c0-.93-.76-1.68-1.69-1.68Z"/>
      </g>
      <path class="cls-6" d="M66.84,46.66l-8.82-8.81,8.81-8.82c.66-.66.66-1.73,0-2.39-.66-.66-1.73-.66-2.39,0l-8.82,8.82-8.82-8.82c-.66-.66-1.73-.66-2.39,0-.66.66-.66,1.73,0,2.39l8.82,8.82-8.82,8.81c-.66.66-.66,1.73,0,2.39.33.33.76.49,1.19.49s.87-.17,1.19-.49l8.82-8.82,8.82,8.82c.33.33.76.49,1.2.49s.86-.17,1.2-.49c.66-.66.66-1.73,0-2.39ZM37.94,61.11c.93,0,1.69-.75,1.69-1.69V7.54c0-2.3,1.87-4.17,4.17-4.17s4.17,1.87,4.17,4.17v14.16c0,.93.75,1.69,1.69,1.69s1.69-.76,1.69-1.69V7.54c0-4.16-3.38-7.54-7.54-7.54s-7.55,3.38-7.55,7.54v51.88c0,.94.76,1.69,1.69,1.69ZM49.65,52.29c-.93,0-1.69.75-1.69,1.68h0v14.16c0,2.3-1.87,4.17-4.17,4.17s-4.17-1.87-4.17-4.17c0-.66-.38-1.22-.92-1.5l-22.15-14.48c-.03-.1-.07-.19-.12-.27v-28.08c.05-.09.09-.18.12-.28l15.29-10.02c.78-.52,1-1.56.49-2.34-.51-.78-1.56-1-2.34-.49l-16.18,10.61h-4.69c-5.03,0-9.12,4.09-9.12,9.12v14.87c0,5.03,4.09,9.12,9.12,9.12h4.69s0,0,0,0l22.51,14.72c.48,3.7,3.65,6.56,7.48,6.56,4.16,0,7.54-3.39,7.54-7.54v-14.16h0c0-.93-.76-1.68-1.69-1.68ZM13.05,51.02h-3.93c-3.17,0-5.74-2.58-5.74-5.74v-14.87c0-3.17,2.58-5.74,5.74-5.74h3.93v26.36Z"/>
    </g>
  </g>
</svg>