<?xml version="1.0" encoding="UTF-8"?>
<svg id="Layer_2" data-name="Layer 2" xmlns="http://www.w3.org/2000/svg" xmlns:xlink="http://www.w3.org/1999/xlink" viewBox="0 0 69.61 67.06">
  <defs>
    <style>
      .cls-1 {
        opacity: .14;
      }

      .cls-2 {
        fill: url(#linear-gradient-2);
      }

      .cls-3 {
        opacity: .21;
      }

      .cls-4 {
        opacity: .42;
      }

      .cls-5 {
        opacity: .55;
      }

      .cls-6 {
        opacity: .48;
      }

      .cls-7 {
        opacity: .35;
      }

      .cls-8 {
        opacity: .08;
      }

      .cls-9 {
        opacity: .28;
      }

      .cls-10 {
        opacity: 0;
      }

      .cls-11 {
        fill: url(#linear-gradient);
      }
    </style>
    <linearGradient id="linear-gradient" x1="2.44" y1=".88" x2="84.9" y2="83.34" gradientUnits="userSpaceOnUse">
      <stop offset="0" stop-color="#0594d6"/>
      <stop offset="1" stop-color="#7af5ff"/>
    </linearGradient>
    <linearGradient id="linear-gradient-2" x1="5.39" y1="4.12" x2="58.81" y2="57.53" gradientUnits="userSpaceOnUse">
      <stop offset="0" stop-color="#2c2e2c"/>
      <stop offset=".99" stop-color="#000"/>
    </linearGradient>
  </defs>
  <g id="Layer_1-2" data-name="Layer 1">
    <g>
      <path class="cls-11" d="M62.68,10.58v39.9c0,1.98-10.33,9.48-31.27,9.48S1.7,53.18,1.7,49.5V11.86S5.94,1.81,32.26,1.81s30.42,8.77,30.42,8.77Z"/>
      <g>
        <path class="cls-10" d="M37.51,25.77c-17.79,0-28.72-4.94-28.72-8.49s10.92-8.49,28.72-8.49,28.72,4.95,28.72,8.49-10.93,8.49-28.72,8.49ZM69.61,17.27c0-7.71-16.54-11.87-32.1-11.87S5.41,9.57,5.41,17.27s16.54,11.87,32.1,11.87c11.29,0,23.09-2.19,28.72-6.34v7.11c0,3.55-10.93,8.49-28.72,8.49s-28.72-4.95-28.72-8.49c0-.93-.76-1.69-1.69-1.69s-1.69.76-1.69,1.69c0,7.71,16.54,11.87,32.1,11.87,11.29,0,23.09-2.19,28.72-6.34v7.11c0,3.54-10.93,8.49-28.72,8.49s-28.72-4.95-28.72-8.49c0-.93-.76-1.69-1.69-1.69s-1.69.75-1.69,1.69c0,7.71,16.54,11.87,32.1,11.87,11.29,0,23.09-2.19,28.72-6.34v7.11c0,3.54-10.93,8.49-28.72,8.49s-28.72-4.95-28.72-8.49c0-.93-.76-1.69-1.69-1.69s-1.69.75-1.69,1.69c0,7.71,16.54,11.87,32.1,11.87s32.1-4.16,32.1-11.87V17.57s-.01-.08-.01-.12c0-.06.01-.12.01-.17Z"/>
        <path class="cls-8" d="M36.88,25.14c-17.79,0-28.72-4.94-28.72-8.49s10.92-8.49,28.72-8.49,28.72,4.95,28.72,8.49-10.93,8.49-28.72,8.49ZM68.98,16.65c0-7.71-16.54-11.87-32.1-11.87S4.78,8.94,4.78,16.65s16.54,11.87,32.1,11.87c11.29,0,23.09-2.19,28.72-6.34v7.11c0,3.55-10.93,8.49-28.72,8.49s-28.72-4.95-28.72-8.49c0-.93-.76-1.69-1.69-1.69s-1.69.76-1.69,1.69c0,7.71,16.54,11.87,32.1,11.87,11.29,0,23.09-2.19,28.72-6.34v7.11c0,3.54-10.93,8.49-28.72,8.49s-28.72-4.95-28.72-8.49c0-.93-.76-1.69-1.69-1.69s-1.69.75-1.69,1.69c0,7.71,16.54,11.87,32.1,11.87,11.29,0,23.09-2.19,28.72-6.34v7.11c0,3.54-10.93,8.49-28.72,8.49s-28.72-4.95-28.72-8.49c0-.93-.76-1.69-1.69-1.69s-1.69.75-1.69,1.69c0,7.71,16.54,11.87,32.1,11.87s32.1-4.16,32.1-11.87V16.94s-.01-.08-.01-.12c0-.06.01-.12.01-.17Z"/>
        <path class="cls-1" d="M36.26,24.52c-17.79,0-28.72-4.94-28.72-8.49s10.92-8.49,28.72-8.49,28.72,4.95,28.72,8.49-10.93,8.49-28.72,8.49ZM68.36,16.02c0-7.71-16.54-11.87-32.1-11.87S4.16,8.32,4.16,16.02s16.54,11.87,32.1,11.87c11.29,0,23.09-2.19,28.72-6.34v7.11c0,3.55-10.93,8.49-28.72,8.49s-28.72-4.95-28.72-8.49c0-.93-.76-1.69-1.69-1.69s-1.69.76-1.69,1.69c0,7.71,16.54,11.87,32.1,11.87,11.29,0,23.09-2.19,28.72-6.34v7.11c0,3.54-10.93,8.49-28.72,8.49s-28.72-4.95-28.72-8.49c0-.93-.76-1.69-1.69-1.69s-1.69.75-1.69,1.69c0,7.71,16.54,11.87,32.1,11.87,11.29,0,23.09-2.19,28.72-6.34v7.11c0,3.54-10.93,8.49-28.72,8.49s-28.72-4.95-28.72-8.49c0-.93-.76-1.69-1.69-1.69s-1.69.75-1.69,1.69c0,7.71,16.54,11.87,32.1,11.87s32.1-4.16,32.1-11.87V16.32s-.01-.08-.01-.12c0-.06.01-.12.01-.17Z"/>
        <path class="cls-3" d="M35.63,23.89c-17.79,0-28.72-4.94-28.72-8.49s10.92-8.49,28.72-8.49,28.72,4.95,28.72,8.49-10.93,8.49-28.72,8.49ZM67.73,15.4c0-7.71-16.54-11.87-32.1-11.87S3.53,7.69,3.53,15.4s16.54,11.87,32.1,11.87c11.29,0,23.09-2.19,28.72-6.34v7.11c0,3.55-10.93,8.49-28.72,8.49S6.91,31.58,6.91,28.04c0-.93-.76-1.69-1.69-1.69s-1.69.76-1.69,1.69c0,7.71,16.54,11.87,32.1,11.87,11.29,0,23.09-2.19,28.72-6.34v7.11c0,3.54-10.93,8.49-28.72,8.49s-28.72-4.95-28.72-8.49c0-.93-.76-1.69-1.69-1.69s-1.69.75-1.69,1.69c0,7.71,16.54,11.87,32.1,11.87,11.29,0,23.09-2.19,28.72-6.34v7.11c0,3.54-10.93,8.49-28.72,8.49s-28.72-4.95-28.72-8.49c0-.93-.76-1.69-1.69-1.69s-1.69.75-1.69,1.69c0,7.71,16.54,11.87,32.1,11.87s32.1-4.16,32.1-11.87V15.69s-.01-.08-.01-.12c0-.06.01-.12.01-.17Z"/>
        <path class="cls-9" d="M35.01,23.27c-17.79,0-28.72-4.94-28.72-8.49s10.92-8.49,28.72-8.49,28.72,4.95,28.72,8.49-10.93,8.49-28.72,8.49ZM67.11,14.77c0-7.71-16.54-11.87-32.1-11.87S2.91,7.07,2.91,14.77s16.54,11.87,32.1,11.87c11.29,0,23.09-2.19,28.72-6.34v7.11c0,3.55-10.93,8.49-28.72,8.49S6.29,30.96,6.29,27.41c0-.93-.76-1.69-1.69-1.69s-1.69.76-1.69,1.69c0,7.71,16.54,11.87,32.1,11.87,11.29,0,23.09-2.19,28.72-6.34v7.11c0,3.54-10.93,8.49-28.72,8.49s-28.72-4.95-28.72-8.49c0-.93-.76-1.69-1.69-1.69s-1.69.75-1.69,1.69c0,7.71,16.54,11.87,32.1,11.87,11.29,0,23.09-2.19,28.72-6.34v7.11c0,3.54-10.93,8.49-28.72,8.49s-28.72-4.95-28.72-8.49c0-.93-.76-1.69-1.69-1.69s-1.69.75-1.69,1.69c0,7.71,16.54,11.87,32.1,11.87s32.1-4.16,32.1-11.87V15.07s-.01-.08-.01-.12c0-.06.01-.12.01-.17Z"/>
        <path class="cls-7" d="M34.38,22.64c-17.79,0-28.72-4.94-28.72-8.49s10.92-8.49,28.72-8.49,28.72,4.95,28.72,8.49-10.93,8.49-28.72,8.49ZM66.48,14.15c0-7.71-16.54-11.87-32.1-11.87S2.28,6.44,2.28,14.15s16.54,11.87,32.1,11.87c11.29,0,23.09-2.19,28.72-6.34v7.11c0,3.55-10.93,8.49-28.72,8.49S5.66,30.33,5.66,26.79c0-.93-.76-1.69-1.69-1.69s-1.69.76-1.69,1.69c0,7.71,16.54,11.87,32.1,11.87,11.29,0,23.09-2.19,28.72-6.34v7.11c0,3.54-10.93,8.49-28.72,8.49s-28.72-4.95-28.72-8.49c0-.93-.76-1.69-1.69-1.69s-1.69.75-1.69,1.69c0,7.71,16.54,11.87,32.1,11.87,11.29,0,23.09-2.19,28.72-6.34v7.11c0,3.54-10.93,8.49-28.72,8.49s-28.72-4.95-28.72-8.49c0-.93-.76-1.69-1.69-1.69s-1.69.75-1.69,1.69c0,7.71,16.54,11.87,32.1,11.87s32.1-4.16,32.1-11.87V14.44s-.01-.08-.01-.12c0-.06.01-.12.01-.17Z"/>
        <path class="cls-4" d="M33.76,22.02c-17.79,0-28.72-4.94-28.72-8.49S15.96,5.03,33.76,5.03s28.72,4.95,28.72,8.49-10.93,8.49-28.72,8.49ZM65.86,13.52c0-7.71-16.54-11.87-32.1-11.87S1.66,5.82,1.66,13.52s16.54,11.87,32.1,11.87c11.29,0,23.09-2.19,28.72-6.34v7.11c0,3.55-10.93,8.49-28.72,8.49S5.04,29.71,5.04,26.16c0-.93-.76-1.69-1.69-1.69s-1.69.76-1.69,1.69c0,7.71,16.54,11.87,32.1,11.87,11.29,0,23.09-2.19,28.72-6.34v7.11c0,3.54-10.93,8.49-28.72,8.49s-28.72-4.95-28.72-8.49c0-.93-.76-1.69-1.69-1.69s-1.69.75-1.69,1.69c0,7.71,16.54,11.87,32.1,11.87,11.29,0,23.09-2.19,28.72-6.34v7.11c0,3.54-10.93,8.49-28.72,8.49s-28.72-4.95-28.72-8.49c0-.93-.76-1.69-1.69-1.69s-1.69.75-1.69,1.69c0,7.71,16.54,11.87,32.1,11.87s32.1-4.16,32.1-11.87V13.82s-.01-.08-.01-.12c0-.06.01-.12.01-.17Z"/>
        <path class="cls-6" d="M33.13,21.39c-17.79,0-28.72-4.94-28.72-8.49S15.34,4.41,33.13,4.41s28.72,4.95,28.72,8.49-10.93,8.49-28.72,8.49ZM65.23,12.9c0-7.71-16.54-11.87-32.1-11.87S1.03,5.19,1.03,12.9s16.54,11.87,32.1,11.87c11.29,0,23.09-2.19,28.72-6.34v7.11c0,3.55-10.93,8.49-28.72,8.49S4.41,29.08,4.41,25.54c0-.93-.76-1.69-1.69-1.69s-1.69.76-1.69,1.69c0,7.71,16.54,11.87,32.1,11.87,11.29,0,23.09-2.19,28.72-6.34v7.11c0,3.54-10.93,8.49-28.72,8.49s-28.72-4.95-28.72-8.49c0-.93-.76-1.69-1.69-1.69s-1.69.75-1.69,1.69c0,7.71,16.54,11.87,32.1,11.87,11.29,0,23.09-2.19,28.72-6.34v7.11c0,3.54-10.93,8.49-28.72,8.49s-28.72-4.95-28.72-8.49c0-.93-.76-1.69-1.69-1.69s-1.69.75-1.69,1.69c0,7.71,16.54,11.87,32.1,11.87s32.1-4.16,32.1-11.87V13.19s-.01-.08-.01-.12c0-.06.01-.12.01-.17Z"/>
        <path class="cls-5" d="M32.51,20.77C14.71,20.77,3.79,15.82,3.79,12.27S14.71,3.78,32.51,3.78s28.72,4.95,28.72,8.49-10.93,8.49-28.72,8.49ZM64.61,12.27C64.61,4.57,48.06.41,32.51.41S.41,4.57.41,12.27s16.54,11.87,32.1,11.87c11.29,0,23.09-2.19,28.72-6.34v7.11c0,3.55-10.93,8.49-28.72,8.49S3.79,28.46,3.79,24.91c0-.93-.76-1.69-1.69-1.69s-1.69.76-1.69,1.69c0,7.71,16.54,11.87,32.1,11.87,11.29,0,23.09-2.19,28.72-6.34v7.11c0,3.54-10.93,8.49-28.72,8.49S3.79,41.1,3.79,37.55c0-.93-.76-1.69-1.69-1.69s-1.69.75-1.69,1.69c0,7.71,16.54,11.87,32.1,11.87,11.29,0,23.09-2.19,28.72-6.34v7.11c0,3.54-10.93,8.49-28.72,8.49S3.79,53.74,3.79,50.19c0-.93-.76-1.69-1.69-1.69s-1.69.75-1.69,1.69c0,7.71,16.54,11.87,32.1,11.87s32.1-4.16,32.1-11.87V12.57s-.01-.08-.01-.12c0-.06.01-.12.01-.17Z"/>
      </g>
      <path class="cls-2" d="M64.2,11.87c0-7.71-16.54-11.87-32.1-11.87S0,4.16,0,11.87s16.54,11.87,32.1,11.87c11.29,0,23.09-2.19,28.72-6.34v7.11c0,3.54-10.93,8.49-28.72,8.49S3.38,28.05,3.38,24.51c0-.93-.76-1.69-1.69-1.69s-1.69.76-1.69,1.69c0,7.71,16.54,11.87,32.1,11.87,11.29,0,23.09-2.19,28.72-6.34v7.11c0,3.54-10.93,8.49-28.72,8.49S3.38,40.69,3.38,37.15c0-.93-.76-1.69-1.69-1.69s-1.69.75-1.69,1.69c0,7.71,16.54,11.87,32.1,11.87,11.29,0,23.09-2.19,28.72-6.34v7.11c0,3.55-10.93,8.49-28.72,8.49S3.38,53.33,3.38,49.79c0-.93-.76-1.69-1.69-1.69s-1.69.75-1.69,1.69c0,7.71,16.54,11.87,32.1,11.87s32.1-4.16,32.1-11.87V12.16s-.01-.08-.01-.12c0-.06.01-.12.01-.17ZM32.1,20.36C14.3,20.36,3.38,15.42,3.38,11.87S14.3,3.38,32.1,3.38s28.72,4.95,28.72,8.49-10.93,8.49-28.72,8.49Z"/>
    </g>
  </g>
</svg>