<?xml version="1.0" encoding="UTF-8"?>
<svg xmlns="http://www.w3.org/2000/svg" xmlns:xlink="http://www.w3.org/1999/xlink" viewBox="0 0 70.91 67.73">
  <defs>
    <style>
      .cls-1 {
        fill: #fff;
        mix-blend-mode: soft-light;
        opacity: .8;
        stroke: #fff;
      }

      .cls-1, .cls-2 {
        stroke-miterlimit: 10;
      }

      .cls-3 {
        isolation: isolate;
      }

      .cls-2 {
        fill: url(#linear-gradient);
        stroke: #ce0543;
      }
    </style>
    <linearGradient id="linear-gradient" x1="50.53" y1="8.82" x2="16.13" y2="68.41" gradientUnits="userSpaceOnUse">
      <stop offset="0" stop-color="#f2b3c3"/>
      <stop offset=".51" stop-color="#e84f7b"/>
      <stop offset=".69" stop-color="#d13769"/>
      <stop offset=".86" stop-color="#c1275d"/>
      <stop offset="1" stop-color="#bc2259"/>
    </linearGradient>
  </defs>
  <g class="cls-3">
    <g id="Layer_2" data-name="Layer 2">
      <g id="Objects">
        <g>
          <path class="cls-2" d="M70.3,25.81c-.29-.89-1.06-1.53-1.98-1.67l-21.19-3.08L37.65,1.87c-.41-.84-1.27-1.37-2.2-1.37s-1.78.53-2.2,1.37l-9.48,19.2-21.19,3.08c-.92.14-1.69.78-1.98,1.67-.29.88-.05,1.86.62,2.51l15.33,14.95-3.62,21.1c-.16.91.22,1.85.97,2.39.75.55,1.76.62,2.58.19l18.95-9.96,18.95,9.96c.35.19.75.28,1.14.28.51,0,1.02-.16,1.44-.47.75-.55,1.13-1.48.98-2.39l-3.62-21.11,15.33-14.94c.67-.65.91-1.63.62-2.51Z"/>
          <path class="cls-1" d="M47.13,21.06L37.65,1.87c-.41-.84-1.27-1.37-2.2-1.37s-1.78.53-2.2,1.37l-9.48,19.2-21.19,3.08c-.92.14-1.69.78-1.98,1.67-.29.88-.05,1.86.62,2.51l15.33,14.95-3.62,21.1c-.16.91,34.18-43.31,34.18-43.31Z"/>
        </g>
      </g>
    </g>
  </g>
</svg>