<?xml version="1.0" encoding="UTF-8"?>
<svg id="Layer_2" data-name="Layer 2" xmlns="http://www.w3.org/2000/svg" viewBox="0 0 27.35 25.49">
  <defs>
    <style>
      .cls-1 {
        fill-rule: evenodd;
      }
    </style>
  </defs>
  <g id="_1" data-name="1">
    <path class="cls-1" d="M2.28,13.86h1.95L12.77,1.52c-.07-.14-.11-.29-.11-.46,0-.58.48-1.06,1.06-1.06s1.06.48,1.06,1.06c0,.22-.07.42-.18.58l8.51,12.22h1.96c.62,0,1.19.25,1.6.66.42.42.68,1,.68,1.62v7.06c0,.62-.26,1.2-.68,1.62-.41.4-.98.67-1.6.67H2.28c-.64,0-1.2-.26-1.62-.67-.41-.41-.66-1-.66-1.62v-7.06c0-.62.25-1.21.66-1.62.42-.41.98-.66,1.62-.66h0ZM14.07,2.06c-.11.04-.22.07-.35.07-.16,0-.33-.04-.47-.11L5.06,13.86h17.22L14.07,2.06ZM24.56,14.75c-.18-.18-.43-.29-.7-.29s-.53.11-.69.29c-.18.18-.29.43-.29.69s.11.53.29.71c.17.18.41.29.69.29s.52-.11.7-.29h0c.18-.18.29-.43.29-.71s-.11-.51-.29-.69h0ZM4.04,14.73c-.18-.18-.43-.29-.69-.29-.28,0-.53.11-.71.29-.18.18-.29.43-.29.71s.11.53.29.71c.18.18.43.29.71.29.26,0,.51-.11.69-.29h0c.18-.18.29-.43.29-.71s-.11-.53-.29-.71h0ZM8.89,21.09c0,.69-.18,1.23-.54,1.63-.36.39-.85.58-1.45.58s-1.07-.19-1.43-.58c-.34-.4-.53-.94-.53-1.63v-1.62c0-.69.18-1.23.53-1.63.36-.39.83-.58,1.43-.58s1.09.2,1.45.58c.36.4.54.94.54,1.63v1.62ZM8.07,19.46c0-.51-.1-.9-.3-1.16-.21-.26-.5-.4-.87-.4s-.65.14-.84.4c-.19.26-.29.65-.29,1.16v1.63c0,.51.1.91.29,1.18.19.26.48.4.84.4.39,0,.68-.14.87-.4.21-.26.3-.67.3-1.18v-1.63ZM10.66,20.9v2.32h-.83v-5.88h1.94c.55,0,.98.15,1.28.49.32.33.47.76.47,1.29s-.15.96-.47,1.28c-.3.33-.73.5-1.28.5h-1.11ZM10.66,20.28h1.11c.3,0,.54-.11.71-.33.15-.22.23-.49.23-.82s-.08-.62-.23-.84c-.17-.22-.39-.33-.71-.33h-1.11v2.33ZM17.4,20.48h-2.18v2.12h2.53v.62h-3.34v-5.88h3.31v.61h-2.5v1.91h2.18v.62ZM22.39,23.22h-.82l-2.22-4.38h-.03v4.38h-.82v-5.88h.82l2.24,4.36h.01v-4.36h.82v5.88Z"/>
  </g>
</svg>