<?xml version="1.0" encoding="UTF-8"?>
<svg id="Layer_2" data-name="Layer 2" xmlns="http://www.w3.org/2000/svg" xmlns:xlink="http://www.w3.org/1999/xlink" viewBox="0 0 65.92 65.92">
  <defs>
    <style>
      .cls-1 {
        opacity: .14;
      }

      .cls-2 {
        fill: url(#linear-gradient-2);
      }

      .cls-3 {
        opacity: .21;
      }

      .cls-4 {
        opacity: .42;
      }

      .cls-5 {
        opacity: .55;
      }

      .cls-6 {
        opacity: .48;
      }

      .cls-7 {
        opacity: .35;
      }

      .cls-8 {
        fill: url(#linear-gradient-3);
      }

      .cls-9 {
        opacity: .08;
      }

      .cls-10 {
        opacity: .28;
      }

      .cls-11 {
        opacity: 0;
      }

      .cls-12 {
        fill: url(#linear-gradient);
      }
    </style>
    <linearGradient id="linear-gradient" x1="1.82" y1="1.86" x2="58" y2="58.04" gradientUnits="userSpaceOnUse">
      <stop offset="0" stop-color="#f2a300"/>
      <stop offset="1" stop-color="#ffff36"/>
    </linearGradient>
    <linearGradient id="linear-gradient-2" x1="25.27" y1="11.97" x2="31.46" y2="18.16" gradientUnits="userSpaceOnUse">
      <stop offset="0" stop-color="#3a3a3a"/>
      <stop offset="1" stop-color="#818181"/>
    </linearGradient>
    <linearGradient id="linear-gradient-3" x1="2.72" y1="2.72" x2="57.85" y2="57.86" gradientUnits="userSpaceOnUse">
      <stop offset="0" stop-color="#2c2e2c"/>
      <stop offset=".99" stop-color="#000"/>
    </linearGradient>
  </defs>
  <g id="Layer_1-2" data-name="Layer 1">
    <g>
      <rect class="cls-12" x="1.53" y="1.87" width="57.36" height="56.77" rx="7.1" ry="7.1"/>
      <path class="cls-2" d="M32.74,15.07c0,2.42-1.96,4.38-4.38,4.38s-4.38-1.96-4.38-4.38,1.96-4.38,4.38-4.38,4.38,1.96,4.38,4.38Z"/>
      <g>
        <path class="cls-11" d="M44.38,32.26c.93,0,1.69-.76,1.69-1.69s-.76-1.69-1.69-1.69h-10.83c-.64,0-1.23.38-1.52.95-.12.24-.18.49-.18.76v10.04c0,.93.76,1.69,1.69,1.69h10.9l4.13,9.38c.28.63.9,1.01,1.55,1.01.21,0,.42-.04.63-.12l4.47-1.79c.86-.34,1.29-1.33.94-2.2-.35-.87-1.33-1.29-2.2-.94l-2.95,1.18-3.92-8.89c-.27-.61-.87-1.01-1.54-1.01h-10.31v-6.67h9.15ZM33.68,22.94c-1.52,0-2.75-1.24-2.75-2.76,0-.25.04-.49.1-.72.06-.23.15-.45.27-.65.49-.85,1.41-1.38,2.38-1.38,1.52,0,2.76,1.23,2.76,2.75s-1.24,2.76-2.76,2.76ZM33.68,14.06c-2.18,0-4.21,1.17-5.31,3.06-.27.46-.47.95-.61,1.45-.14.53-.22,1.07-.22,1.61,0,3.38,2.75,6.13,6.13,6.13s6.13-2.75,6.13-6.13-2.75-6.13-6.13-6.13ZM56.65,5.35H14.62c-5.11,0-9.27,4.16-9.27,9.27,0,.93.75,1.69,1.69,1.69s1.69-.76,1.69-1.69c0-3.25,2.64-5.89,5.89-5.89h42.04c3.25,0,5.89,2.64,5.89,5.89v42.04c0,3.24-2.64,5.89-5.89,5.89H14.62c-3.25,0-5.89-2.65-5.89-5.89v-29.54c0-.93-.76-1.69-1.69-1.69s-1.69.76-1.69,1.69v29.54c0,5.11,4.15,9.27,9.27,9.27h42.04c5.11,0,9.27-4.16,9.27-9.27V14.62c0-5.11-4.16-9.27-9.27-9.27ZM26.76,29.64c-5.51,2.17-9.07,7.4-9.07,13.33,0,7.9,6.42,14.32,14.32,14.32,5.14,0,9.92-2.78,12.46-7.26.46-.81.18-1.84-.64-2.3-.81-.46-1.84-.18-2.3.64-1.94,3.42-5.59,5.55-9.52,5.55-6.03,0-10.94-4.91-10.94-10.94,0-4.53,2.72-8.53,6.93-10.18.87-.34,1.29-1.32.95-2.19-.34-.87-1.32-1.3-2.19-.95Z"/>
        <path class="cls-9" d="M43.76,31.63c.93,0,1.69-.76,1.69-1.69s-.76-1.69-1.69-1.69h-10.83c-.64,0-1.23.38-1.52.95-.12.24-.18.49-.18.76v10.04c0,.93.76,1.69,1.69,1.69h10.9l4.13,9.38c.28.63.9,1.01,1.55,1.01.21,0,.42-.04.63-.12l4.47-1.79c.86-.34,1.29-1.33.94-2.2-.35-.87-1.33-1.29-2.2-.94l-2.95,1.18-3.92-8.89c-.27-.61-.87-1.01-1.54-1.01h-10.31v-6.67h9.15ZM33.06,22.32c-1.52,0-2.75-1.24-2.75-2.76,0-.25.03-.49.1-.72.06-.23.15-.45.27-.65.49-.85,1.41-1.38,2.38-1.38,1.52,0,2.76,1.23,2.76,2.75s-1.24,2.76-2.76,2.76ZM33.06,13.43c-2.18,0-4.21,1.17-5.31,3.06-.27.46-.47.95-.61,1.45-.14.53-.22,1.07-.22,1.61,0,3.38,2.75,6.13,6.13,6.13s6.13-2.75,6.13-6.13-2.75-6.13-6.13-6.13ZM56.03,4.72H13.99c-5.11,0-9.27,4.16-9.27,9.27,0,.93.75,1.69,1.69,1.69s1.69-.76,1.69-1.69c0-3.25,2.64-5.89,5.89-5.89h42.04c3.25,0,5.89,2.64,5.89,5.89v42.04c0,3.24-2.64,5.89-5.89,5.89H13.99c-3.25,0-5.89-2.65-5.89-5.89v-29.54c0-.93-.76-1.69-1.69-1.69s-1.69.76-1.69,1.69v29.54c0,5.11,4.15,9.27,9.27,9.27h42.04c5.11,0,9.27-4.16,9.27-9.27V13.99c0-5.11-4.16-9.27-9.27-9.27ZM26.13,29.02c-5.51,2.17-9.07,7.4-9.07,13.33,0,7.9,6.42,14.32,14.32,14.32,5.14,0,9.92-2.78,12.46-7.26.46-.81.18-1.84-.64-2.3-.81-.46-1.84-.18-2.3.64-1.94,3.42-5.59,5.55-9.52,5.55-6.03,0-10.94-4.91-10.94-10.94,0-4.53,2.72-8.53,6.93-10.18.87-.34,1.29-1.32.95-2.19-.34-.87-1.32-1.3-2.19-.95Z"/>
        <path class="cls-1" d="M43.13,31.01c.93,0,1.69-.76,1.69-1.69s-.76-1.69-1.69-1.69h-10.83c-.64,0-1.23.38-1.52.95-.12.24-.18.49-.18.76v10.04c0,.93.76,1.69,1.69,1.69h10.9l4.13,9.38c.28.63.9,1.01,1.55,1.01.21,0,.42-.04.63-.12l4.47-1.79c.86-.34,1.29-1.33.94-2.2-.35-.87-1.33-1.29-2.2-.94l-2.95,1.18-3.92-8.89c-.27-.61-.87-1.01-1.54-1.01h-10.31v-6.67h9.15ZM32.43,21.69c-1.52,0-2.75-1.24-2.75-2.76,0-.25.03-.49.1-.72.06-.23.15-.45.27-.65.49-.85,1.41-1.38,2.38-1.38,1.52,0,2.76,1.23,2.76,2.75s-1.24,2.76-2.76,2.76ZM32.43,12.81c-2.18,0-4.21,1.17-5.31,3.06-.27.46-.47.95-.61,1.45-.14.53-.22,1.07-.22,1.61,0,3.38,2.75,6.13,6.13,6.13s6.13-2.75,6.13-6.13-2.75-6.13-6.13-6.13ZM55.4,4.1H13.37c-5.11,0-9.27,4.16-9.27,9.27,0,.93.75,1.69,1.69,1.69s1.69-.76,1.69-1.69c0-3.25,2.64-5.89,5.89-5.89h42.04c3.25,0,5.89,2.64,5.89,5.89v42.04c0,3.24-2.64,5.89-5.89,5.89H13.37c-3.25,0-5.89-2.65-5.89-5.89v-29.54c0-.93-.76-1.69-1.69-1.69s-1.69.76-1.69,1.69v29.54c0,5.11,4.15,9.27,9.27,9.27h42.04c5.11,0,9.27-4.16,9.27-9.27V13.37c0-5.11-4.16-9.27-9.27-9.27ZM25.51,28.39c-5.51,2.17-9.07,7.4-9.07,13.33,0,7.9,6.42,14.32,14.32,14.32,5.14,0,9.92-2.78,12.46-7.26.46-.81.18-1.84-.64-2.3-.81-.46-1.84-.18-2.3.64-1.94,3.42-5.59,5.55-9.52,5.55-6.03,0-10.94-4.91-10.94-10.94,0-4.53,2.72-8.53,6.93-10.18.87-.34,1.29-1.32.95-2.19-.34-.87-1.32-1.3-2.19-.95Z"/>
        <path class="cls-3" d="M42.51,30.38c.93,0,1.69-.76,1.69-1.69s-.76-1.69-1.69-1.69h-10.83c-.64,0-1.23.38-1.52.95-.12.24-.18.49-.18.76v10.04c0,.93.76,1.69,1.69,1.69h10.9l4.13,9.38c.28.63.9,1.01,1.55,1.01.21,0,.42-.04.63-.12l4.47-1.79c.86-.34,1.29-1.33.94-2.2-.35-.87-1.33-1.29-2.2-.94l-2.95,1.18-3.92-8.89c-.27-.61-.87-1.01-1.54-1.01h-10.31v-6.67h9.15ZM31.81,21.07c-1.52,0-2.75-1.24-2.75-2.76,0-.25.03-.49.1-.72.06-.23.15-.45.27-.65.49-.85,1.41-1.38,2.38-1.38,1.52,0,2.76,1.23,2.76,2.75s-1.24,2.76-2.76,2.76ZM31.81,12.18c-2.18,0-4.21,1.17-5.31,3.06-.27.46-.47.95-.61,1.45-.14.53-.22,1.07-.22,1.61,0,3.38,2.75,6.13,6.13,6.13s6.13-2.75,6.13-6.13-2.75-6.13-6.13-6.13ZM54.78,3.47H12.74C7.63,3.47,3.47,7.63,3.47,12.74c0,.93.75,1.69,1.69,1.69s1.69-.76,1.69-1.69c0-3.25,2.64-5.89,5.89-5.89h42.04c3.25,0,5.89,2.64,5.89,5.89v42.04c0,3.24-2.64,5.89-5.89,5.89H12.74c-3.25,0-5.89-2.65-5.89-5.89v-29.54c0-.93-.76-1.69-1.69-1.69s-1.69.76-1.69,1.69v29.54c0,5.11,4.15,9.27,9.27,9.27h42.04c5.11,0,9.27-4.16,9.27-9.27V12.74c0-5.11-4.16-9.27-9.27-9.27ZM24.88,27.77c-5.51,2.17-9.07,7.4-9.07,13.33,0,7.9,6.42,14.32,14.32,14.32,5.14,0,9.92-2.78,12.46-7.26.46-.81.18-1.84-.64-2.3-.81-.46-1.84-.18-2.3.64-1.94,3.42-5.59,5.55-9.52,5.55-6.03,0-10.94-4.91-10.94-10.94,0-4.53,2.72-8.53,6.93-10.18.87-.34,1.29-1.32.95-2.19-.34-.87-1.32-1.3-2.19-.95Z"/>
        <path class="cls-10" d="M41.88,29.76c.93,0,1.69-.76,1.69-1.69s-.76-1.69-1.69-1.69h-10.83c-.64,0-1.23.38-1.52.95-.12.24-.18.49-.18.76v10.04c0,.93.76,1.69,1.69,1.69h10.9l4.13,9.38c.28.63.9,1.01,1.55,1.01.21,0,.42-.04.63-.12l4.47-1.79c.86-.34,1.29-1.33.94-2.2-.35-.87-1.33-1.29-2.2-.94l-2.95,1.18-3.92-8.89c-.27-.61-.87-1.01-1.54-1.01h-10.31v-6.67h9.15ZM31.18,20.44c-1.52,0-2.75-1.24-2.75-2.76,0-.25.03-.49.1-.72.06-.23.15-.45.27-.65.49-.85,1.41-1.38,2.38-1.38,1.52,0,2.76,1.23,2.76,2.75s-1.24,2.76-2.76,2.76ZM31.18,11.56c-2.18,0-4.21,1.17-5.31,3.06-.27.46-.47.95-.61,1.45-.14.53-.22,1.07-.22,1.61,0,3.38,2.75,6.13,6.13,6.13s6.13-2.75,6.13-6.13-2.75-6.13-6.13-6.13ZM54.15,2.85H12.12C7,2.85,2.85,7.01,2.85,12.12c0,.93.75,1.69,1.69,1.69s1.69-.76,1.69-1.69c0-3.25,2.64-5.89,5.89-5.89h42.04c3.25,0,5.89,2.64,5.89,5.89v42.04c0,3.24-2.64,5.89-5.89,5.89H12.12c-3.25,0-5.89-2.65-5.89-5.89v-29.54c0-.93-.76-1.69-1.69-1.69s-1.69.76-1.69,1.69v29.54c0,5.11,4.15,9.27,9.27,9.27h42.04c5.11,0,9.27-4.16,9.27-9.27V12.12c0-5.11-4.16-9.27-9.27-9.27ZM24.26,27.14c-5.51,2.17-9.07,7.4-9.07,13.33,0,7.9,6.42,14.32,14.32,14.32,5.14,0,9.92-2.78,12.46-7.26.46-.81.18-1.84-.64-2.3-.81-.46-1.84-.18-2.3.64-1.94,3.42-5.59,5.55-9.52,5.55-6.03,0-10.94-4.91-10.94-10.94,0-4.53,2.72-8.53,6.93-10.18.87-.34,1.29-1.32.95-2.19-.34-.87-1.32-1.3-2.19-.95Z"/>
        <path class="cls-7" d="M41.26,29.13c.93,0,1.69-.76,1.69-1.69s-.76-1.69-1.69-1.69h-10.83c-.64,0-1.23.38-1.52.95-.12.24-.18.49-.18.76v10.04c0,.93.76,1.69,1.69,1.69h10.9l4.13,9.38c.28.63.9,1.01,1.55,1.01.21,0,.42-.04.63-.12l4.47-1.79c.86-.34,1.29-1.33.94-2.2-.35-.87-1.33-1.29-2.2-.94l-2.95,1.18-3.92-8.89c-.27-.61-.87-1.01-1.54-1.01h-10.31v-6.67h9.15ZM30.56,19.82c-1.52,0-2.75-1.24-2.75-2.76,0-.25.03-.49.1-.72.06-.23.15-.45.27-.65.49-.85,1.41-1.38,2.38-1.38,1.52,0,2.76,1.23,2.76,2.75s-1.24,2.76-2.76,2.76ZM30.56,10.93c-2.18,0-4.21,1.17-5.31,3.06-.27.46-.47.95-.61,1.45-.14.53-.22,1.07-.22,1.61,0,3.38,2.75,6.13,6.13,6.13s6.13-2.75,6.13-6.13-2.75-6.13-6.13-6.13ZM53.53,2.22H11.49C6.38,2.22,2.22,6.38,2.22,11.49c0,.93.75,1.69,1.69,1.69s1.69-.76,1.69-1.69c0-3.25,2.64-5.89,5.89-5.89h42.04c3.25,0,5.89,2.64,5.89,5.89v42.04c0,3.24-2.64,5.89-5.89,5.89H11.49c-3.25,0-5.89-2.65-5.89-5.89v-29.54c0-.93-.76-1.69-1.69-1.69s-1.69.76-1.69,1.69v29.54c0,5.11,4.15,9.27,9.27,9.27h42.04c5.11,0,9.27-4.16,9.27-9.27V11.49c0-5.11-4.16-9.27-9.27-9.27ZM23.63,26.52c-5.51,2.17-9.07,7.4-9.07,13.33,0,7.9,6.42,14.32,14.32,14.32,5.14,0,9.92-2.78,12.46-7.26.46-.81.18-1.84-.64-2.3-.81-.46-1.84-.18-2.3.64-1.94,3.42-5.59,5.55-9.52,5.55-6.03,0-10.94-4.91-10.94-10.94,0-4.53,2.72-8.53,6.93-10.18.87-.34,1.29-1.32.95-2.19-.34-.87-1.32-1.3-2.19-.95Z"/>
        <path class="cls-4" d="M40.63,28.51c.93,0,1.69-.76,1.69-1.69s-.76-1.69-1.69-1.69h-10.83c-.64,0-1.23.38-1.52.95-.12.24-.18.49-.18.76v10.04c0,.93.76,1.69,1.69,1.69h10.9l4.13,9.38c.28.63.9,1.01,1.55,1.01.21,0,.42-.04.63-.12l4.47-1.79c.86-.34,1.29-1.33.94-2.2-.35-.87-1.33-1.29-2.2-.94l-2.95,1.18-3.92-8.89c-.27-.61-.87-1.01-1.54-1.01h-10.31v-6.67h9.15ZM29.93,19.19c-1.52,0-2.75-1.24-2.75-2.76,0-.25.03-.49.1-.72.06-.23.15-.45.27-.65.49-.85,1.41-1.38,2.38-1.38,1.52,0,2.76,1.23,2.76,2.75s-1.24,2.76-2.76,2.76ZM29.93,10.31c-2.18,0-4.21,1.17-5.31,3.06-.27.46-.47.95-.61,1.45-.14.53-.22,1.07-.22,1.61,0,3.38,2.75,6.13,6.13,6.13s6.13-2.75,6.13-6.13-2.75-6.13-6.13-6.13ZM52.9,1.6H10.87C5.75,1.6,1.6,5.76,1.6,10.87c0,.93.75,1.69,1.69,1.69s1.69-.76,1.69-1.69c0-3.25,2.64-5.89,5.89-5.89h42.04c3.25,0,5.89,2.64,5.89,5.89v42.04c0,3.24-2.64,5.89-5.89,5.89H10.87c-3.25,0-5.89-2.65-5.89-5.89v-29.54c0-.93-.76-1.69-1.69-1.69s-1.69.76-1.69,1.69v29.54c0,5.11,4.15,9.27,9.27,9.27h42.04c5.11,0,9.27-4.16,9.27-9.27V10.87c0-5.11-4.16-9.27-9.27-9.27ZM23.01,25.89c-5.51,2.17-9.07,7.4-9.07,13.33,0,7.9,6.42,14.32,14.32,14.32,5.14,0,9.92-2.78,12.46-7.26.46-.81.18-1.84-.64-2.3-.81-.46-1.84-.18-2.3.64-1.94,3.42-5.59,5.55-9.52,5.55-6.03,0-10.94-4.91-10.94-10.94,0-4.53,2.72-8.53,6.93-10.18.87-.34,1.29-1.32.95-2.19-.34-.87-1.32-1.3-2.19-.95Z"/>
        <path class="cls-6" d="M40.01,27.88c.93,0,1.69-.76,1.69-1.69s-.76-1.69-1.69-1.69h-10.83c-.64,0-1.23.38-1.52.95-.12.24-.18.49-.18.76v10.04c0,.93.76,1.69,1.69,1.69h10.9l4.13,9.38c.28.63.9,1.01,1.55,1.01.21,0,.42-.04.63-.12l4.47-1.79c.86-.34,1.29-1.33.94-2.2-.35-.87-1.33-1.29-2.2-.94l-2.95,1.18-3.92-8.89c-.27-.61-.87-1.01-1.54-1.01h-10.31v-6.67h9.15ZM29.31,18.57c-1.52,0-2.75-1.24-2.75-2.76,0-.25.03-.49.1-.72.06-.23.15-.45.27-.65.49-.85,1.41-1.38,2.38-1.38,1.52,0,2.76,1.23,2.76,2.75s-1.24,2.76-2.76,2.76ZM29.31,9.68c-2.18,0-4.21,1.17-5.31,3.06-.27.46-.47.95-.61,1.45-.14.53-.22,1.07-.22,1.61,0,3.38,2.75,6.13,6.13,6.13s6.13-2.75,6.13-6.13-2.75-6.13-6.13-6.13ZM52.28.97H10.24C5.13.97.97,5.13.97,10.24c0,.93.75,1.69,1.69,1.69s1.69-.76,1.69-1.69c0-3.25,2.64-5.89,5.89-5.89h42.04c3.25,0,5.89,2.64,5.89,5.89v42.04c0,3.24-2.64,5.89-5.89,5.89H10.24c-3.25,0-5.89-2.65-5.89-5.89v-29.54c0-.93-.76-1.69-1.69-1.69s-1.69.76-1.69,1.69v29.54c0,5.11,4.15,9.27,9.27,9.27h42.04c5.11,0,9.27-4.16,9.27-9.27V10.24c0-5.11-4.16-9.27-9.27-9.27ZM22.38,25.27c-5.51,2.17-9.07,7.4-9.07,13.33,0,7.9,6.42,14.32,14.32,14.32,5.14,0,9.92-2.78,12.46-7.26.46-.81.18-1.84-.64-2.3-.81-.46-1.84-.18-2.3.64-1.94,3.42-5.59,5.55-9.52,5.55-6.03,0-10.94-4.91-10.94-10.94,0-4.53,2.72-8.53,6.93-10.18.87-.34,1.29-1.32.95-2.19-.34-.87-1.32-1.3-2.19-.95Z"/>
        <path class="cls-5" d="M39.38,27.26c.93,0,1.69-.76,1.69-1.69s-.76-1.69-1.69-1.69h-10.83c-.64,0-1.23.38-1.52.95-.12.24-.18.49-.18.76v10.04c0,.93.76,1.69,1.69,1.69h10.9l4.13,9.38c.28.63.9,1.01,1.55,1.01.21,0,.42-.04.63-.12l4.47-1.79c.86-.34,1.29-1.33.94-2.2-.35-.87-1.33-1.29-2.2-.94l-2.95,1.18-3.92-8.89c-.27-.61-.87-1.01-1.54-1.01h-10.31v-6.67h9.15ZM28.68,17.94c-1.52,0-2.75-1.24-2.75-2.76,0-.25.04-.49.1-.72.06-.23.15-.45.27-.65.49-.85,1.41-1.38,2.38-1.38,1.52,0,2.76,1.23,2.76,2.75s-1.24,2.76-2.76,2.76ZM28.68,9.06c-2.18,0-4.21,1.17-5.31,3.06-.27.46-.47.95-.61,1.45-.14.53-.22,1.07-.22,1.61,0,3.38,2.75,6.13,6.13,6.13s6.13-2.75,6.13-6.13-2.75-6.13-6.13-6.13ZM51.65.35H9.62C4.5.35.35,4.51.35,9.62c0,.93.75,1.69,1.69,1.69s1.69-.76,1.69-1.69c0-3.25,2.64-5.89,5.89-5.89h42.04c3.25,0,5.89,2.64,5.89,5.89v42.04c0,3.24-2.64,5.89-5.89,5.89H9.62c-3.25,0-5.89-2.65-5.89-5.89v-29.54c0-.93-.76-1.69-1.69-1.69s-1.69.76-1.69,1.69v29.54c0,5.11,4.15,9.27,9.27,9.27h42.04c5.11,0,9.27-4.16,9.27-9.27V9.62c0-5.11-4.16-9.27-9.27-9.27ZM21.76,24.64c-5.51,2.17-9.07,7.4-9.07,13.33,0,7.9,6.42,14.32,14.32,14.32,5.14,0,9.92-2.78,12.46-7.26.46-.81.18-1.84-.64-2.3-.81-.46-1.84-.18-2.3.64-1.94,3.42-5.59,5.55-9.52,5.55-6.03,0-10.94-4.91-10.94-10.94,0-4.53,2.72-8.53,6.93-10.18.87-.34,1.29-1.32.95-2.19-.34-.87-1.32-1.3-2.19-.95Z"/>
      </g>
      <path class="cls-8" d="M51.3,0H9.27C4.15,0,0,4.16,0,9.27c0,.93.75,1.69,1.69,1.69s1.69-.76,1.69-1.69c0-3.25,2.64-5.89,5.89-5.89h42.04c3.25,0,5.89,2.64,5.89,5.89v42.04c0,3.24-2.64,5.89-5.89,5.89H9.27c-3.25,0-5.89-2.65-5.89-5.89v-29.54c0-.93-.76-1.69-1.69-1.69s-1.69.76-1.69,1.69v29.54c0,5.11,4.15,9.27,9.27,9.27h42.04c5.11,0,9.27-4.16,9.27-9.27V9.27c0-5.11-4.16-9.27-9.27-9.27ZM28.33,8.71c-2.18,0-4.21,1.17-5.31,3.06-.27.46-.47.95-.61,1.45-.14.53-.22,1.07-.22,1.61,0,3.38,2.75,6.13,6.13,6.13s6.13-2.75,6.13-6.13-2.75-6.13-6.13-6.13ZM28.33,17.6c-1.52,0-2.75-1.24-2.75-2.76,0-.25.04-.49.1-.72.06-.23.15-.45.27-.65.49-.85,1.41-1.38,2.38-1.38,1.52,0,2.76,1.23,2.76,2.75s-1.24,2.76-2.76,2.76ZM39.03,26.91c.93,0,1.69-.76,1.69-1.69s-.76-1.69-1.69-1.69h-10.83c-.64,0-1.23.38-1.52.95-.12.24-.18.49-.18.76v10.04c0,.93.76,1.69,1.69,1.69h10.9l4.13,9.38c.28.63.9,1.01,1.55,1.01.21,0,.42-.04.63-.12l4.47-1.79c.86-.34,1.29-1.33.94-2.2-.35-.87-1.33-1.29-2.2-.94l-2.95,1.18-3.92-8.89c-.27-.61-.87-1.01-1.54-1.01h-10.31v-6.67h9.15ZM21.41,24.29c-5.51,2.17-9.07,7.4-9.07,13.33,0,7.9,6.42,14.32,14.32,14.32,5.14,0,9.92-2.78,12.46-7.26.46-.81.18-1.84-.64-2.3-.81-.46-1.84-.18-2.3.64-1.94,3.42-5.59,5.55-9.52,5.55-6.03,0-10.94-4.91-10.94-10.94,0-4.53,2.72-8.53,6.93-10.18.87-.34,1.29-1.32.95-2.19-.34-.87-1.32-1.29-2.19-.95Z"/>
    </g>
  </g>
</svg>