<?xml version="1.0" encoding="UTF-8"?>
<svg id="Layer_2" data-name="Layer 2" xmlns="http://www.w3.org/2000/svg" xmlns:xlink="http://www.w3.org/1999/xlink" viewBox="0 0 78.75 54.95">
  <defs>
    <style>
      .cls-1 {
        opacity: .14;
      }

      .cls-2 {
        fill: url(#linear-gradient-2);
      }

      .cls-3 {
        opacity: .21;
      }

      .cls-4 {
        opacity: .42;
      }

      .cls-5 {
        opacity: .55;
      }

      .cls-6 {
        fill: url(#linear-gradient-4);
      }

      .cls-7 {
        opacity: .48;
      }

      .cls-8 {
        opacity: .35;
      }

      .cls-9 {
        fill: url(#linear-gradient-3);
      }

      .cls-10 {
        fill: url(#linear-gradient-5);
      }

      .cls-11 {
        opacity: .08;
      }

      .cls-12 {
        fill: url(#linear-gradient-7);
      }

      .cls-13 {
        fill: url(#linear-gradient-6);
      }

      .cls-14 {
        opacity: .28;
      }

      .cls-15 {
        opacity: 0;
      }

      .cls-16 {
        fill: url(#linear-gradient);
      }
    </style>
    <linearGradient id="linear-gradient" x1="9.74" y1="1.16" x2="62.54" y2="53.96" gradientUnits="userSpaceOnUse">
      <stop offset="0" stop-color="#f2a300"/>
      <stop offset="1" stop-color="#ffff36"/>
    </linearGradient>
    <linearGradient id="linear-gradient-2" x1="25.07" y1="16.31" x2="30.32" y2="21.57" gradientUnits="userSpaceOnUse">
      <stop offset="0" stop-color="#3a3a3a"/>
      <stop offset="1" stop-color="#818181"/>
    </linearGradient>
    <linearGradient id="linear-gradient-3" x1="42.63" x2="47.89" xlink:href="#linear-gradient-2"/>
    <linearGradient id="linear-gradient-4" x1="16.44" y1="27.29" x2="21.7" y2="32.55" xlink:href="#linear-gradient-2"/>
    <linearGradient id="linear-gradient-5" x1="34.01" y1="27.29" x2="39.26" y2="32.55" xlink:href="#linear-gradient-2"/>
    <linearGradient id="linear-gradient-6" x1="51.42" y1="27.29" x2="56.67" y2="32.55" xlink:href="#linear-gradient-2"/>
    <linearGradient id="linear-gradient-7" x1="10.31" y1="1.47" x2="62.84" y2="54" gradientUnits="userSpaceOnUse">
      <stop offset="0" stop-color="#2c2e2c"/>
      <stop offset=".99" stop-color="#000"/>
    </linearGradient>
  </defs>
  <g id="Layer_1-2" data-name="Layer 1">
    <g>
      <path class="cls-16" d="M7.19,10.17c-.52,2.78-4.83,26.64-5.41,29.18-.57,2.54,1.31,8.44,7.79,8.44h52.29c3.03,0,10.49-2.62,9.59-9.26-.9-6.64-5.33-28.93-5.98-30.98-.66-2.05-4.1-5.98-9.51-5.98H16.61c-3.69,0-8.36,2.87-9.42,8.61Z"/>
      <rect class="cls-2" x="25.11" y="16.28" width="5.17" height="5.33"/>
      <rect class="cls-9" x="42.67" y="16.28" width="5.17" height="5.33"/>
      <rect class="cls-6" x="16.48" y="27.25" width="5.17" height="5.33"/>
      <rect class="cls-10" x="34.05" y="27.25" width="5.17" height="5.33"/>
      <rect class="cls-13" x="51.45" y="27.25" width="5.17" height="5.33"/>
      <g>
        <path class="cls-15" d="M58.13,33.91h2.75v2.75h-2.75v-2.75ZM54.75,32.21v6.13c0,.94.76,1.69,1.69,1.69h6.13c.93,0,1.69-.76,1.69-1.69v-6.13c0-.93-.76-1.69-1.69-1.69h-6.13c-.93,0-1.69.76-1.69,1.69ZM52.05,25.78h-2.75v-2.75h2.75v2.75ZM53.74,19.65h-6.13c-.93,0-1.69.76-1.69,1.69v6.13c0,.93.76,1.69,1.69,1.69h6.13c.93,0,1.69-.76,1.69-1.69v-6.13c0-.93-.75-1.69-1.69-1.69ZM43.39,36.66h-2.76v-2.75h2.76v2.75ZM38.95,30.53c-.93,0-1.69.76-1.69,1.69v6.13c0,.94.76,1.69,1.69,1.69h6.13c.93,0,1.69-.76,1.69-1.69v-6.13c0-.93-.76-1.69-1.69-1.69h-6.13ZM78.65,44.18c-1.21-7.35-3.94-21.55-5.48-29.31-1.14-5.75-5.17-9.46-10.25-9.46H21.24c-5.12,0-9.24,3.82-10.26,9.5-.16.92.45,1.79,1.37,1.96.92.16,1.8-.45,1.96-1.37.55-3.1,2.7-6.71,6.93-6.71h41.67c4.13,0,6.29,3.48,6.94,6.74,1.53,7.73,4.25,21.89,5.46,29.2.22,1.37-.26,2.85-1.37,4.15-1.41,1.66-3.54,2.69-5.56,2.69H15.78c-2.23,0-4.54-1.03-5.87-2.61-.63-.75-1.33-1.97-1.06-3.51.77-4.41,2.03-11.24,3.25-17.85l.29-1.54c.17-.92-.44-1.8-1.36-1.97-.92-.17-1.8.44-1.97,1.35l-.29,1.54c-1.22,6.62-2.48,13.45-3.26,17.88-.38,2.2.25,4.43,1.8,6.26,1.98,2.36,5.22,3.82,8.46,3.82h52.61c3.03,0,6.08-1.45,8.14-3.88,1.76-2.07,2.51-4.52,2.12-6.89ZM36.37,19.65h-6.13c-.93,0-1.69.76-1.69,1.69v6.13c0,.93.76,1.69,1.69,1.69h6.13c.94,0,1.69-.76,1.69-1.69v-6.13c0-.93-.75-1.69-1.69-1.69ZM34.68,25.78h-2.75v-2.75h2.75v2.75ZM21.58,30.53c-.93,0-1.69.76-1.69,1.69v6.13c0,.94.76,1.69,1.69,1.69h6.13c.93,0,1.69-.76,1.69-1.69v-6.13c0-.93-.76-1.69-1.69-1.69h-6.13ZM26.03,36.66h-2.75v-2.75h2.75v2.75Z"/>
        <path class="cls-11" d="M57.5,33.28h2.75v2.75h-2.75v-2.75ZM54.12,31.59v6.13c0,.94.76,1.69,1.69,1.69h6.13c.93,0,1.69-.76,1.69-1.69v-6.13c0-.93-.76-1.69-1.69-1.69h-6.13c-.93,0-1.69.76-1.69,1.69ZM51.42,25.16h-2.75v-2.75h2.75v2.75ZM53.11,19.03h-6.13c-.93,0-1.69.76-1.69,1.69v6.13c0,.93.76,1.69,1.69,1.69h6.13c.93,0,1.69-.76,1.69-1.69v-6.13c0-.93-.75-1.69-1.69-1.69ZM42.77,36.03h-2.76v-2.75h2.76v2.75ZM38.32,29.9c-.93,0-1.69.76-1.69,1.69v6.13c0,.94.76,1.69,1.69,1.69h6.13c.93,0,1.69-.76,1.69-1.69v-6.13c0-.93-.76-1.69-1.69-1.69h-6.13ZM78.02,43.55c-1.21-7.35-3.94-21.55-5.48-29.31-1.14-5.75-5.17-9.46-10.25-9.46H20.62c-5.12,0-9.24,3.82-10.26,9.5-.16.92.45,1.8,1.37,1.96.92.16,1.8-.45,1.96-1.37.55-3.1,2.7-6.71,6.93-6.71h41.67c4.13,0,6.29,3.48,6.94,6.74,1.53,7.73,4.25,21.89,5.46,29.2.22,1.37-.26,2.85-1.37,4.15-1.41,1.66-3.54,2.69-5.56,2.69H15.15c-2.23,0-4.54-1.03-5.87-2.61-.63-.75-1.33-1.97-1.06-3.51.77-4.41,2.03-11.24,3.25-17.85l.29-1.54c.17-.92-.44-1.8-1.36-1.97-.92-.17-1.8.44-1.97,1.35l-.29,1.54c-1.22,6.62-2.48,13.45-3.26,17.88-.38,2.2.25,4.43,1.8,6.26,1.98,2.36,5.22,3.82,8.46,3.82h52.61c3.03,0,6.08-1.45,8.14-3.88,1.76-2.07,2.51-4.52,2.12-6.89ZM35.75,19.03h-6.13c-.93,0-1.69.76-1.69,1.69v6.13c0,.93.76,1.69,1.69,1.69h6.13c.94,0,1.69-.76,1.69-1.69v-6.13c0-.93-.75-1.69-1.69-1.69ZM34.06,25.16h-2.75v-2.75h2.75v2.75ZM20.96,29.9c-.93,0-1.69.76-1.69,1.69v6.13c0,.94.76,1.69,1.69,1.69h6.13c.93,0,1.69-.76,1.69-1.69v-6.13c0-.93-.76-1.69-1.69-1.69h-6.13ZM25.4,36.03h-2.75v-2.75h2.75v2.75Z"/>
        <path class="cls-1" d="M56.88,32.66h2.75v2.75h-2.75v-2.75ZM53.5,30.96v6.13c0,.94.76,1.69,1.69,1.69h6.13c.93,0,1.69-.76,1.69-1.69v-6.13c0-.93-.76-1.69-1.69-1.69h-6.13c-.93,0-1.69.76-1.69,1.69ZM50.8,24.53h-2.75v-2.75h2.75v2.75ZM52.49,18.4h-6.13c-.93,0-1.69.76-1.69,1.69v6.13c0,.93.76,1.69,1.69,1.69h6.13c.93,0,1.69-.76,1.69-1.69v-6.13c0-.93-.75-1.69-1.69-1.69ZM42.14,35.41h-2.76v-2.75h2.76v2.75ZM37.7,29.28c-.93,0-1.69.76-1.69,1.69v6.13c0,.94.76,1.69,1.69,1.69h6.13c.93,0,1.69-.76,1.69-1.69v-6.13c0-.93-.76-1.69-1.69-1.69h-6.13ZM77.4,42.93c-1.21-7.35-3.94-21.55-5.48-29.31-1.14-5.75-5.17-9.46-10.25-9.46H19.99c-5.12,0-9.24,3.82-10.26,9.5-.16.92.45,1.8,1.37,1.96.92.16,1.8-.45,1.96-1.37.55-3.1,2.7-6.71,6.93-6.71h41.67c4.13,0,6.29,3.48,6.94,6.74,1.53,7.73,4.25,21.89,5.46,29.2.22,1.37-.26,2.85-1.37,4.15-1.41,1.66-3.54,2.69-5.56,2.69H14.53c-2.23,0-4.54-1.03-5.87-2.61-.63-.75-1.33-1.97-1.06-3.51.77-4.41,2.03-11.24,3.25-17.85l.29-1.54c.17-.92-.44-1.8-1.36-1.97-.92-.17-1.8.44-1.97,1.35l-.29,1.54c-1.22,6.62-2.48,13.45-3.26,17.88-.38,2.2.25,4.43,1.8,6.26,1.98,2.36,5.22,3.82,8.46,3.82h52.61c3.03,0,6.08-1.45,8.14-3.88,1.76-2.07,2.51-4.52,2.12-6.89ZM35.12,18.4h-6.13c-.93,0-1.69.76-1.69,1.69v6.13c0,.93.76,1.69,1.69,1.69h6.13c.94,0,1.69-.76,1.69-1.69v-6.13c0-.93-.75-1.69-1.69-1.69ZM33.43,24.53h-2.75v-2.75h2.75v2.75ZM20.33,29.28c-.93,0-1.69.76-1.69,1.69v6.13c0,.94.76,1.69,1.69,1.69h6.13c.93,0,1.69-.76,1.69-1.69v-6.13c0-.93-.76-1.69-1.69-1.69h-6.13ZM24.78,35.41h-2.75v-2.75h2.75v2.75Z"/>
        <path class="cls-3" d="M56.25,32.03h2.75v2.75h-2.75v-2.75ZM52.87,30.34v6.13c0,.94.76,1.69,1.69,1.69h6.13c.93,0,1.69-.76,1.69-1.69v-6.13c0-.93-.76-1.69-1.69-1.69h-6.13c-.93,0-1.69.76-1.69,1.69ZM50.17,23.91h-2.75v-2.75h2.75v2.75ZM51.86,17.78h-6.13c-.93,0-1.69.76-1.69,1.69v6.13c0,.93.76,1.69,1.69,1.69h6.13c.93,0,1.69-.76,1.69-1.69v-6.13c0-.93-.75-1.69-1.69-1.69ZM41.52,34.78h-2.76v-2.75h2.76v2.75ZM37.07,28.65c-.93,0-1.69.76-1.69,1.69v6.13c0,.94.76,1.69,1.69,1.69h6.13c.93,0,1.69-.76,1.69-1.69v-6.13c0-.93-.76-1.69-1.69-1.69h-6.13ZM76.77,42.3c-1.21-7.35-3.94-21.55-5.48-29.31-1.14-5.75-5.17-9.46-10.25-9.46H19.37c-5.12,0-9.24,3.82-10.26,9.5-.16.92.45,1.8,1.37,1.96.92.16,1.8-.45,1.96-1.37.55-3.1,2.7-6.71,6.93-6.71h41.67c4.13,0,6.29,3.48,6.94,6.74,1.53,7.73,4.25,21.89,5.46,29.2.22,1.37-.26,2.85-1.37,4.15-1.41,1.66-3.54,2.69-5.56,2.69H13.9c-2.23,0-4.54-1.03-5.87-2.61-.63-.75-1.33-1.97-1.06-3.51.77-4.41,2.03-11.24,3.25-17.85l.29-1.54c.17-.92-.44-1.8-1.36-1.97-.92-.17-1.8.44-1.97,1.35l-.29,1.54c-1.22,6.62-2.48,13.45-3.26,17.88-.38,2.2.25,4.43,1.8,6.26,1.98,2.36,5.22,3.82,8.46,3.82h52.61c3.03,0,6.08-1.45,8.14-3.88,1.76-2.07,2.51-4.52,2.12-6.89ZM34.5,17.78h-6.13c-.93,0-1.69.76-1.69,1.69v6.13c0,.93.76,1.69,1.69,1.69h6.13c.94,0,1.69-.76,1.69-1.69v-6.13c0-.93-.75-1.69-1.69-1.69ZM32.81,23.91h-2.75v-2.75h2.75v2.75ZM19.71,28.65c-.93,0-1.69.76-1.69,1.69v6.13c0,.94.76,1.69,1.69,1.69h6.13c.93,0,1.69-.76,1.69-1.69v-6.13c0-.93-.76-1.69-1.69-1.69h-6.13ZM24.15,34.78h-2.75v-2.75h2.75v2.75Z"/>
        <path class="cls-14" d="M55.63,31.41h2.75v2.75h-2.75v-2.75ZM52.25,29.71v6.13c0,.94.76,1.69,1.69,1.69h6.13c.93,0,1.69-.76,1.69-1.69v-6.13c0-.93-.76-1.69-1.69-1.69h-6.13c-.93,0-1.69.76-1.69,1.69ZM49.55,23.28h-2.75v-2.75h2.75v2.75ZM51.24,17.15h-6.13c-.93,0-1.69.76-1.69,1.69v6.13c0,.93.76,1.69,1.69,1.69h6.13c.93,0,1.69-.76,1.69-1.69v-6.13c0-.93-.75-1.69-1.69-1.69ZM40.89,34.16h-2.76v-2.75h2.76v2.75ZM36.45,28.03c-.93,0-1.69.76-1.69,1.69v6.13c0,.94.76,1.69,1.69,1.69h6.13c.93,0,1.69-.76,1.69-1.69v-6.13c0-.93-.76-1.69-1.69-1.69h-6.13ZM76.15,41.68c-1.21-7.35-3.94-21.55-5.48-29.31-1.14-5.75-5.17-9.46-10.25-9.46H18.74c-5.12,0-9.24,3.82-10.26,9.5-.16.92.45,1.8,1.37,1.96.92.16,1.8-.45,1.96-1.37.55-3.1,2.7-6.71,6.93-6.71h41.67c4.13,0,6.29,3.48,6.94,6.74,1.53,7.73,4.25,21.89,5.46,29.2.22,1.37-.26,2.85-1.37,4.15-1.41,1.66-3.54,2.69-5.56,2.69H13.28c-2.23,0-4.54-1.03-5.87-2.61-.63-.75-1.33-1.97-1.06-3.51.77-4.41,2.03-11.24,3.25-17.85l.29-1.54c.17-.92-.44-1.8-1.36-1.97-.92-.17-1.8.44-1.97,1.35l-.29,1.54c-1.22,6.62-2.48,13.45-3.26,17.88-.38,2.2.25,4.43,1.8,6.26,1.98,2.36,5.22,3.82,8.46,3.82h52.61c3.03,0,6.08-1.45,8.14-3.88,1.76-2.07,2.51-4.52,2.12-6.89ZM33.87,17.15h-6.13c-.93,0-1.69.76-1.69,1.69v6.13c0,.93.76,1.69,1.69,1.69h6.13c.94,0,1.69-.76,1.69-1.69v-6.13c0-.93-.75-1.69-1.69-1.69ZM32.18,23.28h-2.75v-2.75h2.75v2.75ZM19.08,28.03c-.93,0-1.69.76-1.69,1.69v6.13c0,.94.76,1.69,1.69,1.69h6.13c.93,0,1.69-.76,1.69-1.69v-6.13c0-.93-.76-1.69-1.69-1.69h-6.13ZM23.53,34.16h-2.75v-2.75h2.75v2.75Z"/>
        <path class="cls-8" d="M55,30.78h2.75v2.75h-2.75v-2.75ZM51.62,29.09v6.13c0,.94.76,1.69,1.69,1.69h6.13c.93,0,1.69-.76,1.69-1.69v-6.13c0-.93-.76-1.69-1.69-1.69h-6.13c-.93,0-1.69.76-1.69,1.69ZM48.92,22.66h-2.75v-2.75h2.75v2.75ZM50.61,16.53h-6.13c-.93,0-1.69.76-1.69,1.69v6.13c0,.93.76,1.69,1.69,1.69h6.13c.93,0,1.69-.76,1.69-1.69v-6.13c0-.93-.75-1.69-1.69-1.69ZM40.27,33.53h-2.76v-2.75h2.76v2.75ZM35.82,27.4c-.93,0-1.69.76-1.69,1.69v6.13c0,.94.76,1.69,1.69,1.69h6.13c.93,0,1.69-.76,1.69-1.69v-6.13c0-.93-.76-1.69-1.69-1.69h-6.13ZM75.52,41.05c-1.21-7.35-3.94-21.55-5.48-29.31-1.14-5.75-5.17-9.46-10.25-9.46H18.12c-5.12,0-9.24,3.82-10.26,9.5-.16.92.45,1.8,1.37,1.96.92.16,1.8-.45,1.96-1.37.55-3.1,2.7-6.71,6.93-6.71h41.67c4.13,0,6.29,3.48,6.94,6.74,1.53,7.73,4.25,21.89,5.46,29.2.22,1.37-.26,2.85-1.37,4.15-1.41,1.66-3.54,2.69-5.56,2.69H12.65c-2.23,0-4.54-1.03-5.87-2.61-.63-.75-1.33-1.97-1.06-3.51.77-4.41,2.03-11.24,3.25-17.85l.29-1.54c.17-.92-.44-1.8-1.36-1.97-.92-.17-1.8.44-1.97,1.35l-.29,1.54c-1.22,6.62-2.48,13.45-3.26,17.88-.38,2.2.25,4.43,1.8,6.26,1.98,2.36,5.22,3.82,8.46,3.82h52.61c3.03,0,6.08-1.45,8.14-3.88,1.76-2.07,2.51-4.52,2.12-6.89ZM33.25,16.53h-6.13c-.93,0-1.69.76-1.69,1.69v6.13c0,.93.76,1.69,1.69,1.69h6.13c.94,0,1.69-.76,1.69-1.69v-6.13c0-.93-.75-1.69-1.69-1.69ZM31.56,22.66h-2.75v-2.75h2.75v2.75ZM18.46,27.4c-.93,0-1.69.76-1.69,1.69v6.13c0,.94.76,1.69,1.69,1.69h6.13c.93,0,1.69-.76,1.69-1.69v-6.13c0-.93-.76-1.69-1.69-1.69h-6.13ZM22.9,33.53h-2.75v-2.75h2.75v2.75Z"/>
        <path class="cls-4" d="M54.38,30.16h2.75v2.75h-2.75v-2.75ZM51,28.46v6.13c0,.94.76,1.69,1.69,1.69h6.13c.93,0,1.69-.76,1.69-1.69v-6.13c0-.93-.76-1.69-1.69-1.69h-6.13c-.93,0-1.69.76-1.69,1.69ZM48.3,22.03h-2.75v-2.75h2.75v2.75ZM49.99,15.9h-6.13c-.93,0-1.69.76-1.69,1.69v6.13c0,.93.76,1.69,1.69,1.69h6.13c.93,0,1.69-.76,1.69-1.69v-6.13c0-.93-.75-1.69-1.69-1.69ZM39.64,32.91h-2.76v-2.75h2.76v2.75ZM35.2,26.78c-.93,0-1.69.76-1.69,1.69v6.13c0,.94.76,1.69,1.69,1.69h6.13c.93,0,1.69-.76,1.69-1.69v-6.13c0-.93-.76-1.69-1.69-1.69h-6.13ZM74.9,40.43c-1.21-7.35-3.94-21.55-5.48-29.31-1.14-5.75-5.17-9.46-10.25-9.46H17.49c-5.12,0-9.24,3.82-10.26,9.5-.16.92.45,1.8,1.37,1.96.92.16,1.8-.45,1.96-1.37.55-3.1,2.7-6.71,6.93-6.71h41.67c4.13,0,6.29,3.48,6.94,6.74,1.53,7.73,4.25,21.89,5.46,29.2.22,1.37-.26,2.85-1.37,4.15-1.41,1.66-3.54,2.69-5.56,2.69H12.03c-2.23,0-4.54-1.03-5.87-2.61-.63-.75-1.33-1.97-1.06-3.51.77-4.41,2.03-11.24,3.25-17.85l.29-1.54c.17-.92-.44-1.8-1.36-1.97-.92-.17-1.8.44-1.97,1.35l-.29,1.54c-1.22,6.62-2.48,13.45-3.26,17.88-.38,2.2.25,4.43,1.8,6.26,1.98,2.36,5.22,3.82,8.46,3.82h52.61c3.03,0,6.08-1.45,8.14-3.88,1.76-2.07,2.51-4.52,2.12-6.89ZM32.62,15.9h-6.13c-.93,0-1.69.76-1.69,1.69v6.13c0,.93.76,1.69,1.69,1.69h6.13c.94,0,1.69-.76,1.69-1.69v-6.13c0-.93-.75-1.69-1.69-1.69ZM30.93,22.03h-2.75v-2.75h2.75v2.75ZM17.83,26.78c-.93,0-1.69.76-1.69,1.69v6.13c0,.94.76,1.69,1.69,1.69h6.13c.93,0,1.69-.76,1.69-1.69v-6.13c0-.93-.76-1.69-1.69-1.69h-6.13ZM22.28,32.91h-2.75v-2.75h2.75v2.75Z"/>
        <path class="cls-7" d="M53.75,29.53h2.75v2.75h-2.75v-2.75ZM50.37,27.84v6.13c0,.94.76,1.69,1.69,1.69h6.13c.93,0,1.69-.76,1.69-1.69v-6.13c0-.93-.76-1.69-1.69-1.69h-6.13c-.93,0-1.69.76-1.69,1.69ZM47.67,21.41h-2.75v-2.75h2.75v2.75ZM49.36,15.28h-6.13c-.93,0-1.69.76-1.69,1.69v6.13c0,.93.76,1.69,1.69,1.69h6.13c.93,0,1.69-.76,1.69-1.69v-6.13c0-.93-.75-1.69-1.69-1.69ZM39.02,32.28h-2.76v-2.75h2.76v2.75ZM34.57,26.15c-.93,0-1.69.76-1.69,1.69v6.13c0,.94.76,1.69,1.69,1.69h6.13c.93,0,1.69-.76,1.69-1.69v-6.13c0-.93-.76-1.69-1.69-1.69h-6.13ZM74.27,39.8c-1.21-7.35-3.94-21.55-5.48-29.31-1.14-5.75-5.17-9.46-10.25-9.46H16.87c-5.12,0-9.24,3.82-10.26,9.5-.16.92.45,1.8,1.37,1.96.92.16,1.8-.45,1.96-1.37.55-3.1,2.7-6.71,6.93-6.71h41.67c4.13,0,6.29,3.48,6.94,6.74,1.53,7.73,4.25,21.89,5.46,29.2.22,1.37-.26,2.85-1.37,4.15-1.41,1.66-3.54,2.69-5.56,2.69H11.4c-2.23,0-4.54-1.03-5.87-2.61-.63-.75-1.33-1.97-1.06-3.51.77-4.41,2.03-11.24,3.25-17.85l.29-1.54c.17-.92-.44-1.8-1.36-1.97-.92-.17-1.8.44-1.97,1.35l-.29,1.54c-1.22,6.62-2.48,13.45-3.26,17.88-.38,2.2.25,4.43,1.8,6.26,1.98,2.36,5.22,3.82,8.46,3.82h52.61c3.03,0,6.08-1.45,8.14-3.88,1.76-2.07,2.51-4.52,2.12-6.89ZM32,15.28h-6.13c-.93,0-1.69.76-1.69,1.69v6.13c0,.93.76,1.69,1.69,1.69h6.13c.94,0,1.69-.76,1.69-1.69v-6.13c0-.93-.75-1.69-1.69-1.69ZM30.31,21.41h-2.75v-2.75h2.75v2.75ZM17.21,26.15c-.93,0-1.69.76-1.69,1.69v6.13c0,.94.76,1.69,1.69,1.69h6.13c.93,0,1.69-.76,1.69-1.69v-6.13c0-.93-.76-1.69-1.69-1.69h-6.13ZM21.65,32.28h-2.75v-2.75h2.75v2.75Z"/>
        <path class="cls-5" d="M53.13,28.91h2.75v2.75h-2.75v-2.75ZM49.75,27.21v6.13c0,.94.76,1.69,1.69,1.69h6.13c.93,0,1.69-.76,1.69-1.69v-6.13c0-.93-.76-1.69-1.69-1.69h-6.13c-.93,0-1.69.76-1.69,1.69ZM47.05,20.78h-2.75v-2.75h2.75v2.75ZM48.74,14.65h-6.13c-.93,0-1.69.76-1.69,1.69v6.13c0,.93.76,1.69,1.69,1.69h6.13c.93,0,1.69-.76,1.69-1.69v-6.13c0-.93-.75-1.69-1.69-1.69ZM38.39,31.66h-2.76v-2.75h2.76v2.75ZM33.95,25.53c-.93,0-1.69.76-1.69,1.69v6.13c0,.94.76,1.69,1.69,1.69h6.13c.93,0,1.69-.76,1.69-1.69v-6.13c0-.93-.76-1.69-1.69-1.69h-6.13ZM73.65,39.18c-1.21-7.35-3.94-21.55-5.48-29.31-1.14-5.75-5.17-9.46-10.25-9.46H16.24C11.12.41,7.01,4.22,5.99,9.9c-.16.92.45,1.79,1.37,1.96.92.16,1.8-.45,1.96-1.37.55-3.1,2.7-6.71,6.93-6.71h41.67c4.13,0,6.29,3.48,6.94,6.74,1.53,7.73,4.25,21.89,5.46,29.2.22,1.37-.26,2.85-1.37,4.15-1.41,1.66-3.54,2.69-5.56,2.69H10.78c-2.23,0-4.54-1.03-5.87-2.61-.63-.75-1.33-1.97-1.06-3.51.77-4.41,2.03-11.24,3.25-17.85l.29-1.54c.17-.92-.44-1.8-1.36-1.97-.92-.17-1.8.44-1.97,1.35l-.29,1.54c-1.22,6.62-2.48,13.45-3.26,17.88-.38,2.2.25,4.43,1.8,6.26,1.98,2.36,5.22,3.82,8.46,3.82h52.61c3.03,0,6.08-1.45,8.14-3.88,1.76-2.07,2.51-4.52,2.12-6.89ZM31.37,14.65h-6.13c-.93,0-1.69.76-1.69,1.69v6.13c0,.93.76,1.69,1.69,1.69h6.13c.94,0,1.69-.76,1.69-1.69v-6.13c0-.93-.75-1.69-1.69-1.69ZM29.68,20.78h-2.75v-2.75h2.75v2.75ZM16.58,25.53c-.93,0-1.69.76-1.69,1.69v6.13c0,.94.76,1.69,1.69,1.69h6.13c.93,0,1.69-.76,1.69-1.69v-6.13c0-.93-.76-1.69-1.69-1.69h-6.13ZM21.03,31.66h-2.75v-2.75h2.75v2.75Z"/>
      </g>
      <path class="cls-12" d="M73.24,38.77c-1.21-7.35-3.94-21.55-5.48-29.31-1.14-5.75-5.17-9.46-10.25-9.46H15.84C10.72,0,6.6,3.82,5.58,9.5c-.16.92.45,1.79,1.37,1.96.92.16,1.8-.45,1.96-1.37.55-3.1,2.7-6.71,6.93-6.71h41.67c4.13,0,6.29,3.48,6.94,6.74,1.53,7.73,4.25,21.89,5.46,29.2.22,1.37-.26,2.85-1.37,4.15-1.41,1.66-3.54,2.69-5.56,2.69H10.37c-2.23,0-4.54-1.03-5.88-2.61-.63-.75-1.33-1.97-1.06-3.51.77-4.41,2.03-11.24,3.25-17.85l.29-1.54c.17-.92-.44-1.8-1.36-1.97-.92-.17-1.8.44-1.97,1.35l-.29,1.54C2.15,28.2.88,35.04.11,39.46c-.38,2.2.25,4.43,1.8,6.26,1.98,2.36,5.22,3.82,8.46,3.82h52.61c3.03,0,6.08-1.45,8.14-3.88,1.76-2.07,2.51-4.52,2.12-6.89ZM30.96,14.24h-6.13c-.93,0-1.69.76-1.69,1.69v6.13c0,.93.76,1.69,1.69,1.69h6.13c.94,0,1.69-.76,1.69-1.69v-6.13c0-.93-.75-1.69-1.69-1.69ZM29.28,20.38h-2.75v-2.75h2.75v2.75ZM48.33,14.24h-6.13c-.93,0-1.69.76-1.69,1.69v6.13c0,.93.76,1.69,1.69,1.69h6.13c.93,0,1.69-.76,1.69-1.69v-6.13c0-.93-.75-1.69-1.69-1.69ZM46.64,20.38h-2.75v-2.75h2.75v2.75ZM16.18,25.12c-.93,0-1.69.76-1.69,1.69v6.13c0,.94.76,1.69,1.69,1.69h6.13c.93,0,1.69-.76,1.69-1.69v-6.13c0-.93-.76-1.69-1.69-1.69h-6.13ZM20.62,31.25h-2.75v-2.75h2.75v2.75ZM33.54,25.12c-.93,0-1.69.76-1.69,1.69v6.13c0,.94.76,1.69,1.69,1.69h6.13c.93,0,1.69-.76,1.69-1.69v-6.13c0-.93-.76-1.69-1.69-1.69h-6.13ZM37.99,31.25h-2.76v-2.75h2.76v2.75ZM49.34,26.81v6.13c0,.94.76,1.69,1.69,1.69h6.13c.93,0,1.69-.76,1.69-1.69v-6.13c0-.93-.76-1.69-1.69-1.69h-6.13c-.93,0-1.69.76-1.69,1.69ZM52.72,28.5h2.75v2.75h-2.75v-2.75Z"/>
    </g>
  </g>
</svg>