<?xml version="1.0" encoding="UTF-8"?>
<svg id="Layer_2" data-name="Layer 2" xmlns="http://www.w3.org/2000/svg" xmlns:xlink="http://www.w3.org/1999/xlink" viewBox="0 0 78.79 59.94">
  <defs>
    <style>
      .cls-1 {
        opacity: .14;
      }

      .cls-2 {
        fill: url(#linear-gradient-2);
      }

      .cls-3 {
        opacity: .21;
      }

      .cls-4 {
        opacity: .42;
      }

      .cls-5 {
        opacity: .55;
      }

      .cls-6 {
        opacity: .48;
      }

      .cls-7 {
        opacity: .35;
      }

      .cls-8 {
        opacity: .08;
      }

      .cls-9 {
        opacity: .28;
      }

      .cls-10 {
        opacity: 0;
      }

      .cls-11 {
        fill: url(#linear-gradient);
      }
    </style>
    <linearGradient id="linear-gradient" x1="12.54" y1="3.35" x2="59.82" y2="50.64" gradientUnits="userSpaceOnUse">
      <stop offset="0" stop-color="#3a3a3a"/>
      <stop offset="1" stop-color="#818181"/>
    </linearGradient>
    <linearGradient id="linear-gradient-2" x1="9.43" y1="3.41" x2="63.95" y2="57.92" gradientUnits="userSpaceOnUse">
      <stop offset="0" stop-color="#2c2e2c"/>
      <stop offset=".99" stop-color="#000"/>
    </linearGradient>
  </defs>
  <g id="Layer_1-2" data-name="Layer 1">
    <g>
      <rect class="cls-11" x="13.72" y="1.94" width="45.43" height="50.61" rx="5.96" ry="5.96"/>
      <g>
        <path class="cls-10" d="M57.71,15.97c0-.96-.78-1.74-1.75-1.74s-1.75.78-1.75,1.74.78,1.75,1.75,1.75,1.75-.78,1.75-1.75ZM70.75,27.63c1.58,0,2.14.24,3.38,2.04.69,1.01,1.17,1.71,1.56,2.3.33.49.86.76,1.41.76.32,0,.64-.09.93-.28.78-.52.99-1.56.48-2.34-.4-.6-.89-1.32-1.6-2.35-1.81-2.62-3.36-3.5-6.16-3.5h-4.11v-7.68h4.11c1.58,0,2.14.24,3.38,2.04.69,1.01,1.17,1.71,1.56,2.3.33.49.86.76,1.41.76.32,0,.64-.09.93-.28.78-.51.99-1.56.48-2.34-.4-.6-.89-1.32-1.6-2.36-1.81-2.62-3.36-3.5-6.16-3.5h-4.22c-.65-4.39-4.44-7.78-9.01-7.78h-30.82c-4.61,0-8.38,3.34-9.02,7.78h-4.23c-2.8,0-4.36.88-6.16,3.5-.71,1.03-1.2,1.75-1.6,2.36-.51.78-.3,1.83.48,2.34.29.19.61.28.93.28.55,0,1.08-.27,1.41-.76.39-.59.87-1.29,1.56-2.3,1.24-1.8,1.8-2.04,3.38-2.04h5.81c.23,0,.46-.05.66-.13.61-.26,1.03-.86,1.03-1.56v-.5c.08-3.13,2.61-5.59,5.74-5.59h30.82c3.17,0,5.74,2.58,5.74,5.74v36.29c0,3.17-2.58,5.74-5.74,5.74h-30.82c-3.17,0-5.74-2.58-5.74-5.74v-24.85c0-.94-.76-1.69-1.69-1.69-.03,0-.06,0-.09,0-.09-.02-.18-.03-.28-.03h-5.45c-2.8,0-4.36.88-6.16,3.5-.71,1.03-1.2,1.75-1.6,2.35-.51.78-.3,1.83.48,2.34.29.19.61.28.93.28.55,0,1.08-.27,1.41-.76.39-.59.87-1.29,1.56-2.3,1.24-1.8,1.8-2.04,3.38-2.04h4.12v7.71h-4.12c-2.8,0-4.36.88-6.16,3.5-.71,1.03-1.2,1.75-1.6,2.36-.51.78-.3,1.83.48,2.34.29.19.61.28.93.28.55,0,1.08-.27,1.41-.76.39-.59.87-1.29,1.56-2.3,1.24-1.8,1.8-2.05,3.38-2.05h4.12v7.69h-4.12c-2.8,0-4.36.88-6.16,3.5-.71,1.03-1.2,1.75-1.6,2.35-.51.78-.3,1.83.48,2.34.29.19.61.28.93.28.55,0,1.08-.27,1.41-.76.39-.59.87-1.29,1.56-2.3,1.24-1.8,1.8-2.04,3.38-2.04h4.12v1.03c0,5.03,4.09,9.12,9.12,9.12h30.82c5.03,0,9.12-4.09,9.12-9.12v-1.03h4.11c1.58,0,2.14.24,3.38,2.04.69,1.01,1.17,1.71,1.56,2.3.33.49.86.76,1.41.76.32,0,.64-.09.93-.28.78-.51.99-1.56.48-2.34-.4-.6-.89-1.32-1.6-2.35-1.81-2.62-3.36-3.5-6.16-3.5h-4.11v-7.69h4.11c1.58,0,2.14.24,3.38,2.05.69,1,1.17,1.7,1.56,2.3.33.49.86.76,1.41.76.32,0,.64-.09.93-.28.78-.51.99-1.56.48-2.34-.4-.6-.89-1.32-1.6-2.36-1.81-2.62-3.36-3.5-6.16-3.5h-4.11v-7.71h4.11Z"/>
        <path class="cls-8" d="M57.09,15.34c0-.96-.78-1.74-1.75-1.74s-1.75.78-1.75,1.74.78,1.75,1.75,1.75,1.75-.78,1.75-1.75ZM70.12,27.01c1.58,0,2.14.24,3.38,2.04.69,1.01,1.17,1.71,1.56,2.3.33.49.86.76,1.41.76.32,0,.64-.09.93-.28.78-.51.99-1.56.48-2.34-.4-.6-.89-1.32-1.6-2.35-1.81-2.62-3.36-3.5-6.16-3.5h-4.11v-7.68h4.11c1.58,0,2.14.24,3.38,2.04.69,1.01,1.17,1.71,1.56,2.3.33.49.86.76,1.41.76.32,0,.64-.09.93-.28.78-.51.99-1.56.48-2.34-.4-.6-.89-1.32-1.6-2.36-1.81-2.62-3.36-3.5-6.16-3.5h-4.22c-.65-4.39-4.44-7.78-9.01-7.78h-30.82c-4.61,0-8.38,3.34-9.02,7.78h-4.23c-2.8,0-4.36.88-6.16,3.5-.71,1.03-1.2,1.75-1.6,2.36-.51.78-.3,1.83.48,2.34.29.19.61.28.93.28.55,0,1.09-.27,1.41-.76.39-.59.87-1.29,1.56-2.3,1.24-1.8,1.8-2.04,3.38-2.04h5.81c.23,0,.46-.05.66-.13.61-.26,1.03-.86,1.03-1.56,0-.06,0-.42,0-.5.04-3.13,2.61-5.59,5.74-5.59h30.82c3.17,0,5.74,2.58,5.74,5.74v36.29c0,3.17-2.58,5.74-5.74,5.74h-30.82c-3.17,0-5.74-2.58-5.74-5.74v-24.85c0-.94-.76-1.69-1.69-1.69-.03,0-.06,0-.09,0-.09-.02-.18-.03-.28-.03h-5.45c-2.8,0-4.36.88-6.16,3.5-.71,1.03-1.2,1.75-1.6,2.35-.51.78-.3,1.83.48,2.34.29.19.61.28.93.28.55,0,1.08-.27,1.41-.76.39-.59.87-1.29,1.56-2.3,1.24-1.8,1.8-2.04,3.38-2.04h4.12v7.71h-4.12c-2.8,0-4.36.88-6.16,3.5-.71,1.03-1.2,1.75-1.6,2.36-.51.78-.3,1.82.48,2.34.29.19.61.28.93.28.55,0,1.08-.27,1.41-.76.39-.59.87-1.29,1.56-2.3,1.24-1.8,1.8-2.05,3.38-2.05h4.12v7.69h-4.12c-2.8,0-4.36.88-6.16,3.5-.71,1.03-1.2,1.75-1.6,2.35-.51.78-.3,1.82.48,2.34.29.19.61.28.93.28.55,0,1.08-.27,1.41-.76.39-.59.87-1.29,1.56-2.3,1.24-1.8,1.8-2.04,3.38-2.04h4.12v1.03c0,5.03,4.09,9.12,9.12,9.12h30.82c5.03,0,9.12-4.09,9.12-9.12v-1.03h4.11c1.58,0,2.14.24,3.38,2.04.69,1.01,1.17,1.71,1.56,2.3.33.49.86.76,1.41.76.32,0,.64-.09.93-.28.78-.52.99-1.56.48-2.34-.4-.6-.89-1.32-1.6-2.35-1.81-2.62-3.36-3.5-6.16-3.5h-4.11v-7.69h4.11c1.58,0,2.14.24,3.38,2.05.69,1,1.17,1.7,1.56,2.3.33.49.86.76,1.41.76.32,0,.64-.09.93-.28.78-.52.99-1.56.48-2.34-.4-.6-.89-1.32-1.6-2.36-1.81-2.62-3.36-3.5-6.16-3.5h-4.11v-7.71h4.11Z"/>
        <path class="cls-1" d="M56.46,14.72c0-.96-.78-1.74-1.75-1.74s-1.75.78-1.75,1.74.78,1.75,1.75,1.75,1.75-.78,1.75-1.75ZM69.5,26.38c1.58,0,2.14.24,3.38,2.04.69,1.01,1.17,1.71,1.56,2.3.33.49.86.76,1.41.76.32,0,.64-.09.93-.28.78-.51.99-1.56.48-2.34-.4-.6-.89-1.32-1.6-2.35-1.81-2.62-3.36-3.5-6.16-3.5h-4.11v-7.68h4.11c1.58,0,2.14.24,3.38,2.04.69,1.01,1.17,1.71,1.56,2.3.33.49.86.76,1.41.76.32,0,.64-.09.93-.28.78-.51.99-1.56.48-2.34-.4-.6-.89-1.32-1.6-2.36-1.81-2.62-3.36-3.5-6.16-3.5h-4.22c-.65-4.39-4.44-7.78-9.01-7.78h-30.82c-4.61,0-8.38,3.34-9.02,7.78h-4.23c-2.8,0-4.36.88-6.16,3.5-.71,1.03-1.2,1.75-1.6,2.36-.51.78-.3,1.83.48,2.34.29.19.61.28.93.28.55,0,1.09-.27,1.41-.76.39-.59.87-1.29,1.56-2.3,1.24-1.8,1.8-2.04,3.38-2.04h5.81c.23,0,.46-.05.66-.13.61-.26,1.03-.86,1.03-1.56,0-.06,0-.42,0-.5.04-3.13,2.61-5.59,5.74-5.59h30.82c3.17,0,5.74,2.58,5.74,5.74v36.29c0,3.17-2.58,5.74-5.74,5.74h-30.82c-3.17,0-5.74-2.58-5.74-5.74v-24.85c0-.94-.76-1.69-1.69-1.69-.03,0-.06,0-.09,0-.09-.02-.18-.03-.28-.03h-5.45c-2.8,0-4.36.88-6.16,3.5-.71,1.03-1.2,1.75-1.6,2.35-.51.78-.3,1.83.48,2.34.29.19.61.28.93.28.55,0,1.08-.27,1.41-.76.39-.59.87-1.29,1.56-2.3,1.24-1.8,1.8-2.04,3.38-2.04h4.12v7.71h-4.12c-2.8,0-4.36.88-6.16,3.5-.71,1.03-1.2,1.75-1.6,2.36-.51.78-.3,1.82.48,2.34.29.19.61.28.93.28.55,0,1.08-.27,1.41-.76.39-.59.87-1.29,1.56-2.3,1.24-1.8,1.8-2.05,3.38-2.05h4.12v7.69h-4.12c-2.8,0-4.36.88-6.16,3.5-.71,1.03-1.2,1.75-1.6,2.35-.51.78-.3,1.82.48,2.34.29.19.61.28.93.28.55,0,1.08-.27,1.41-.76.39-.59.87-1.29,1.56-2.3,1.24-1.8,1.8-2.04,3.38-2.04h4.12v1.03c0,5.03,4.09,9.12,9.12,9.12h30.82c5.03,0,9.12-4.09,9.12-9.12v-1.03h4.11c1.58,0,2.14.24,3.38,2.04.69,1.01,1.17,1.71,1.56,2.3.33.49.86.76,1.41.76.32,0,.64-.09.93-.28.78-.52.99-1.56.48-2.34-.4-.6-.89-1.32-1.6-2.35-1.81-2.62-3.36-3.5-6.16-3.5h-4.11v-7.69h4.11c1.58,0,2.14.24,3.38,2.05.69,1,1.17,1.7,1.56,2.3.33.49.86.76,1.41.76.32,0,.64-.09.93-.28.78-.52.99-1.56.48-2.34-.4-.6-.89-1.32-1.6-2.36-1.81-2.62-3.36-3.5-6.16-3.5h-4.11v-7.71h4.11Z"/>
        <path class="cls-3" d="M55.84,14.09c0-.96-.78-1.74-1.75-1.74s-1.75.78-1.75,1.74.78,1.75,1.75,1.75,1.75-.78,1.75-1.75ZM68.87,25.76c1.58,0,2.14.24,3.38,2.04.69,1.01,1.17,1.71,1.56,2.3.33.49.86.76,1.41.76.32,0,.64-.09.93-.28.78-.51.99-1.56.48-2.34-.4-.6-.89-1.32-1.6-2.35-1.81-2.62-3.36-3.5-6.16-3.5h-4.11v-7.68h4.11c1.58,0,2.14.24,3.38,2.04.69,1.01,1.17,1.71,1.56,2.3.33.49.86.76,1.41.76.32,0,.64-.09.93-.28.78-.51.99-1.56.48-2.34-.4-.6-.89-1.32-1.6-2.36-1.81-2.62-3.36-3.5-6.16-3.5h-4.22c-.65-4.39-4.44-7.78-9.01-7.78h-30.82c-4.61,0-8.38,3.34-9.02,7.78h-4.23c-2.8,0-4.36.88-6.16,3.5-.71,1.03-1.2,1.75-1.6,2.36-.51.78-.3,1.83.48,2.34.29.19.61.28.93.28.55,0,1.09-.27,1.41-.76.39-.59.87-1.29,1.56-2.3,1.24-1.8,1.8-2.04,3.38-2.04h5.81c.23,0,.46-.05.66-.13.61-.26,1.03-.86,1.03-1.56,0-.06,0-.42,0-.5.04-3.13,2.61-5.59,5.74-5.59h30.82c3.17,0,5.74,2.58,5.74,5.74v36.29c0,3.17-2.58,5.74-5.74,5.74h-30.82c-3.17,0-5.74-2.58-5.74-5.74v-24.85c0-.94-.76-1.69-1.69-1.69-.03,0-.06,0-.09,0-.09-.02-.18-.03-.28-.03h-5.45c-2.8,0-4.36.88-6.16,3.5-.71,1.03-1.2,1.75-1.6,2.35-.51.78-.3,1.83.48,2.34.29.19.61.28.93.28.55,0,1.08-.27,1.41-.76.39-.59.87-1.29,1.56-2.3,1.24-1.8,1.8-2.04,3.38-2.04h4.12v7.71h-4.12c-2.8,0-4.36.88-6.16,3.5-.71,1.03-1.2,1.75-1.6,2.36-.51.78-.3,1.82.48,2.34.29.19.61.28.93.28.55,0,1.08-.27,1.41-.76.39-.59.87-1.29,1.56-2.3,1.24-1.8,1.8-2.05,3.38-2.05h4.12v7.69h-4.12c-2.8,0-4.36.88-6.16,3.5-.71,1.03-1.2,1.75-1.6,2.35-.51.78-.3,1.82.48,2.34.29.19.61.28.93.28.55,0,1.08-.27,1.41-.76.39-.59.87-1.29,1.56-2.3,1.24-1.8,1.8-2.04,3.38-2.04h4.12v1.03c0,5.03,4.09,9.12,9.12,9.12h30.82c5.03,0,9.12-4.09,9.12-9.12v-1.03h4.11c1.58,0,2.14.24,3.38,2.04.69,1.01,1.17,1.71,1.56,2.3.33.49.86.76,1.41.76.32,0,.64-.09.93-.28.78-.52.99-1.56.48-2.34-.4-.6-.89-1.32-1.6-2.35-1.81-2.62-3.36-3.5-6.16-3.5h-4.11v-7.69h4.11c1.58,0,2.14.24,3.38,2.05.69,1,1.17,1.7,1.56,2.3.33.49.86.76,1.41.76.32,0,.64-.09.93-.28.78-.52.99-1.56.48-2.34-.4-.6-.89-1.32-1.6-2.36-1.81-2.62-3.36-3.5-6.16-3.5h-4.11v-7.71h4.11Z"/>
        <path class="cls-9" d="M55.21,13.47c0-.96-.78-1.74-1.75-1.74s-1.75.78-1.75,1.74.78,1.75,1.75,1.75,1.75-.78,1.75-1.75ZM68.25,25.13c1.58,0,2.14.24,3.38,2.04.69,1.01,1.17,1.71,1.56,2.3.33.49.86.76,1.41.76.32,0,.64-.09.93-.28.78-.51.99-1.56.48-2.34-.4-.6-.89-1.32-1.6-2.35-1.81-2.62-3.36-3.5-6.16-3.5h-4.11v-7.68h4.11c1.58,0,2.14.24,3.38,2.04.69,1.01,1.17,1.71,1.56,2.3.33.49.86.76,1.41.76.32,0,.64-.09.93-.28.78-.51.99-1.56.48-2.34-.4-.6-.89-1.32-1.6-2.36-1.81-2.62-3.36-3.5-6.16-3.5h-4.22c-.65-4.39-4.44-7.78-9.01-7.78h-30.82c-4.61,0-8.38,3.34-9.02,7.78h-4.23c-2.8,0-4.36.88-6.16,3.5-.71,1.03-1.2,1.75-1.6,2.36-.51.78-.3,1.83.48,2.34.29.19.61.28.93.28.55,0,1.09-.27,1.41-.76.39-.59.87-1.29,1.56-2.3,1.24-1.8,1.8-2.04,3.38-2.04h5.81c.23,0,.46-.05.66-.13.61-.26,1.03-.86,1.03-1.56,0-.06,0-.42,0-.5.04-3.13,2.61-5.59,5.74-5.59h30.82c3.17,0,5.74,2.58,5.74,5.74v36.29c0,3.17-2.58,5.74-5.74,5.74h-30.82c-3.17,0-5.74-2.58-5.74-5.74v-24.85c0-.94-.76-1.69-1.69-1.69-.03,0-.06,0-.09,0-.09-.02-.18-.03-.28-.03h-5.45c-2.8,0-4.36.88-6.16,3.5-.71,1.03-1.2,1.75-1.6,2.35-.51.78-.3,1.83.48,2.34.29.19.61.28.93.28.55,0,1.08-.27,1.41-.76.39-.59.87-1.29,1.56-2.3,1.24-1.8,1.8-2.04,3.38-2.04h4.12v7.71h-4.12c-2.8,0-4.36.88-6.16,3.5-.71,1.03-1.2,1.75-1.6,2.36-.51.78-.3,1.82.48,2.34.29.19.61.28.93.28.55,0,1.08-.27,1.41-.76.39-.59.87-1.29,1.56-2.3,1.24-1.8,1.8-2.05,3.38-2.05h4.12v7.69h-4.12c-2.8,0-4.36.88-6.16,3.5-.71,1.03-1.2,1.75-1.6,2.35-.51.78-.3,1.82.48,2.34.29.19.61.28.93.28.55,0,1.08-.27,1.41-.76.39-.59.87-1.29,1.56-2.3,1.24-1.8,1.8-2.04,3.38-2.04h4.12v1.03c0,5.03,4.09,9.12,9.12,9.12h30.82c5.03,0,9.12-4.09,9.12-9.12v-1.03h4.11c1.58,0,2.14.24,3.38,2.04.69,1.01,1.17,1.71,1.56,2.3.33.49.86.76,1.41.76.32,0,.64-.09.93-.28.78-.52.99-1.56.48-2.34-.4-.6-.89-1.32-1.6-2.35-1.81-2.62-3.36-3.5-6.16-3.5h-4.11v-7.69h4.11c1.58,0,2.14.24,3.38,2.05.69,1,1.17,1.7,1.56,2.3.33.49.86.76,1.41.76.32,0,.64-.09.93-.28.78-.52.99-1.56.48-2.34-.4-.6-.89-1.32-1.6-2.36-1.81-2.62-3.36-3.5-6.16-3.5h-4.11v-7.71h4.11Z"/>
        <path class="cls-7" d="M54.59,12.84c0-.96-.78-1.74-1.75-1.74s-1.75.78-1.75,1.74.78,1.75,1.75,1.75,1.75-.78,1.75-1.75ZM67.62,24.51c1.58,0,2.14.24,3.38,2.04.69,1.01,1.17,1.71,1.56,2.3.33.49.86.76,1.41.76.32,0,.64-.09.93-.28.78-.51.99-1.56.48-2.34-.4-.6-.89-1.32-1.6-2.35-1.81-2.62-3.36-3.5-6.16-3.5h-4.11v-7.68h4.11c1.58,0,2.14.24,3.38,2.04.69,1.01,1.17,1.71,1.56,2.3.33.49.86.76,1.41.76.32,0,.64-.09.93-.28.78-.51.99-1.56.48-2.34-.4-.6-.89-1.32-1.6-2.36-1.81-2.62-3.36-3.5-6.16-3.5h-4.22c-.65-4.39-4.44-7.78-9.01-7.78h-30.82c-4.61,0-8.38,3.34-9.02,7.78h-4.23c-2.8,0-4.36.88-6.16,3.5-.71,1.03-1.2,1.75-1.6,2.36-.51.78-.3,1.83.48,2.34.29.19.61.28.93.28.55,0,1.09-.27,1.41-.76.39-.59.87-1.29,1.56-2.3,1.24-1.8,1.8-2.04,3.38-2.04h5.81c.23,0,.46-.05.66-.13.61-.26,1.03-.86,1.03-1.56,0-.06,0-.42,0-.5.04-3.13,2.61-5.59,5.74-5.59h30.82c3.17,0,5.74,2.58,5.74,5.74v36.29c0,3.17-2.58,5.74-5.74,5.74h-30.82c-3.17,0-5.74-2.58-5.74-5.74v-24.85c0-.94-.76-1.69-1.69-1.69-.03,0-.06,0-.09,0-.09-.02-.18-.03-.28-.03h-5.45c-2.8,0-4.36.88-6.16,3.5-.71,1.03-1.2,1.75-1.6,2.35-.51.78-.3,1.83.48,2.34.29.19.61.28.93.28.55,0,1.08-.27,1.41-.76.39-.59.87-1.29,1.56-2.3,1.24-1.8,1.8-2.04,3.38-2.04h4.12v7.71h-4.12c-2.8,0-4.36.88-6.16,3.5-.71,1.03-1.2,1.75-1.6,2.36-.51.78-.3,1.82.48,2.34.29.19.61.28.93.28.55,0,1.08-.27,1.41-.76.39-.59.87-1.29,1.56-2.3,1.24-1.8,1.8-2.05,3.38-2.05h4.12v7.69h-4.12c-2.8,0-4.36.88-6.16,3.5-.71,1.03-1.2,1.75-1.6,2.35-.51.78-.3,1.82.48,2.34.29.19.61.28.93.28.55,0,1.08-.27,1.41-.76.39-.59.87-1.29,1.56-2.3,1.24-1.8,1.8-2.04,3.38-2.04h4.12v1.03c0,5.03,4.09,9.12,9.12,9.12h30.82c5.03,0,9.12-4.09,9.12-9.12v-1.03h4.11c1.58,0,2.14.24,3.38,2.04.69,1.01,1.17,1.71,1.56,2.3.33.49.86.76,1.41.76.32,0,.64-.09.93-.28.78-.52.99-1.56.48-2.34-.4-.6-.89-1.32-1.6-2.35-1.81-2.62-3.36-3.5-6.16-3.5h-4.11v-7.69h4.11c1.58,0,2.14.24,3.38,2.05.69,1,1.17,1.7,1.56,2.3.33.49.86.76,1.41.76.32,0,.64-.09.93-.28.78-.52.99-1.56.48-2.34-.4-.6-.89-1.32-1.6-2.36-1.81-2.62-3.36-3.5-6.16-3.5h-4.11v-7.71h4.11Z"/>
        <path class="cls-4" d="M53.96,12.22c0-.96-.78-1.74-1.75-1.74s-1.75.78-1.75,1.74.78,1.75,1.75,1.75,1.75-.78,1.75-1.75ZM67,23.88c1.58,0,2.14.24,3.38,2.04.69,1.01,1.17,1.71,1.56,2.3.33.49.86.76,1.41.76.32,0,.64-.09.93-.28.78-.51.99-1.56.48-2.34-.4-.6-.89-1.32-1.6-2.35-1.81-2.62-3.36-3.5-6.16-3.5h-4.11v-7.68h4.11c1.58,0,2.14.24,3.38,2.04.69,1.01,1.17,1.71,1.56,2.3.33.49.86.76,1.41.76.32,0,.64-.09.93-.28.78-.51.99-1.56.48-2.34-.4-.6-.89-1.32-1.6-2.36-1.81-2.62-3.36-3.5-6.16-3.5h-4.22c-.65-4.39-4.44-7.78-9.01-7.78h-30.82c-4.61,0-8.38,3.34-9.02,7.78h-4.23c-2.8,0-4.36.88-6.16,3.5-.71,1.03-1.2,1.75-1.6,2.36-.51.78-.3,1.83.48,2.34.29.19.61.28.93.28.55,0,1.09-.27,1.41-.76.39-.59.87-1.29,1.56-2.3,1.24-1.8,1.8-2.04,3.38-2.04h5.81c.23,0,.46-.05.66-.13.61-.26,1.03-.86,1.03-1.56,0-.06,0-.42,0-.5.04-3.13,2.61-5.59,5.74-5.59h30.82c3.17,0,5.74,2.58,5.74,5.74v36.29c0,3.17-2.58,5.74-5.74,5.74h-30.82c-3.17,0-5.74-2.58-5.74-5.74v-24.85c0-.94-.76-1.69-1.69-1.69-.03,0-.06,0-.09,0-.09-.02-.18-.03-.28-.03h-5.45c-2.8,0-4.36.88-6.16,3.5-.71,1.03-1.2,1.75-1.6,2.35-.51.78-.3,1.83.48,2.34.29.19.61.28.93.28.55,0,1.08-.27,1.41-.76.39-.59.87-1.29,1.56-2.3,1.24-1.8,1.8-2.04,3.38-2.04h4.12v7.71h-4.12c-2.8,0-4.36.88-6.16,3.5-.71,1.03-1.2,1.75-1.6,2.36-.51.78-.3,1.82.48,2.34.29.19.61.28.93.28.55,0,1.08-.27,1.41-.76.39-.59.87-1.29,1.56-2.3,1.24-1.8,1.8-2.05,3.38-2.05h4.12v7.69h-4.12c-2.8,0-4.36.88-6.16,3.5-.71,1.03-1.2,1.75-1.6,2.35-.51.78-.3,1.82.48,2.34.29.19.61.28.93.28.55,0,1.08-.27,1.41-.76.39-.59.87-1.29,1.56-2.3,1.24-1.8,1.8-2.04,3.38-2.04h4.12v1.03c0,5.03,4.09,9.12,9.12,9.12h30.82c5.03,0,9.12-4.09,9.12-9.12v-1.03h4.11c1.58,0,2.14.24,3.38,2.04.69,1.01,1.17,1.71,1.56,2.3.33.49.86.76,1.41.76.32,0,.64-.09.93-.28.78-.52.99-1.56.48-2.34-.4-.6-.89-1.32-1.6-2.35-1.81-2.62-3.36-3.5-6.16-3.5h-4.11v-7.69h4.11c1.58,0,2.14.24,3.38,2.05.69,1,1.17,1.7,1.56,2.3.33.49.86.76,1.41.76.32,0,.64-.09.93-.28.78-.52.99-1.56.48-2.34-.4-.6-.89-1.32-1.6-2.36-1.81-2.62-3.36-3.5-6.16-3.5h-4.11v-7.71h4.11Z"/>
        <path class="cls-6" d="M53.34,11.59c0-.96-.78-1.74-1.75-1.74s-1.75.78-1.75,1.74.78,1.75,1.75,1.75,1.75-.78,1.75-1.75ZM66.37,23.26c1.58,0,2.14.24,3.38,2.04.69,1.01,1.17,1.71,1.56,2.3.33.49.86.76,1.41.76.32,0,.64-.09.93-.28.78-.51.99-1.56.48-2.34-.4-.6-.89-1.32-1.6-2.35-1.81-2.62-3.36-3.5-6.16-3.5h-4.11v-7.68h4.11c1.58,0,2.14.24,3.38,2.04.69,1.01,1.17,1.71,1.56,2.3.33.49.86.76,1.41.76.32,0,.64-.09.93-.28.78-.51.99-1.56.48-2.34-.4-.6-.89-1.32-1.6-2.36-1.81-2.62-3.36-3.5-6.16-3.5h-4.22c-.65-4.39-4.44-7.78-9.01-7.78h-30.82c-4.61,0-8.38,3.34-9.02,7.78h-4.23c-2.8,0-4.36.88-6.16,3.5-.71,1.03-1.2,1.75-1.6,2.36-.51.78-.3,1.83.48,2.34.29.19.61.28.93.28.55,0,1.09-.27,1.41-.76.39-.59.87-1.29,1.56-2.3,1.24-1.8,1.8-2.04,3.38-2.04h5.81c.23,0,.46-.05.66-.13.61-.26,1.03-.86,1.03-1.56,0-.06,0-.42,0-.5.04-3.13,2.61-5.59,5.74-5.59h30.82c3.17,0,5.74,2.58,5.74,5.74v36.29c0,3.17-2.58,5.74-5.74,5.74h-30.82c-3.17,0-5.74-2.58-5.74-5.74v-24.85c0-.94-.76-1.69-1.69-1.69-.03,0-.06,0-.09,0-.09-.02-.18-.03-.28-.03h-5.45c-2.8,0-4.36.88-6.16,3.5-.71,1.03-1.2,1.75-1.6,2.35-.51.78-.3,1.83.48,2.34.29.19.61.28.93.28.55,0,1.08-.27,1.41-.76.39-.59.87-1.29,1.56-2.3,1.24-1.8,1.8-2.04,3.38-2.04h4.12v7.71h-4.12c-2.8,0-4.36.88-6.16,3.5-.71,1.03-1.2,1.75-1.6,2.36-.51.78-.3,1.82.48,2.34.29.19.61.28.93.28.55,0,1.08-.27,1.41-.76.39-.59.87-1.29,1.56-2.3,1.24-1.8,1.8-2.05,3.38-2.05h4.12v7.69h-4.12c-2.8,0-4.36.88-6.16,3.5-.71,1.03-1.2,1.75-1.6,2.35-.51.78-.3,1.82.48,2.34.29.19.61.28.93.28.55,0,1.08-.27,1.41-.76.39-.59.87-1.29,1.56-2.3,1.24-1.8,1.8-2.04,3.38-2.04h4.12v1.03c0,5.03,4.09,9.12,9.12,9.12h30.82c5.03,0,9.12-4.09,9.12-9.12v-1.03h4.11c1.58,0,2.14.24,3.38,2.04.69,1.01,1.17,1.71,1.56,2.3.33.49.86.76,1.41.76.32,0,.64-.09.93-.28.78-.52.99-1.56.48-2.34-.4-.6-.89-1.32-1.6-2.35-1.81-2.62-3.36-3.5-6.16-3.5h-4.11v-7.69h4.11c1.58,0,2.14.24,3.38,2.05.69,1,1.17,1.7,1.56,2.3.33.49.86.76,1.41.76.32,0,.64-.09.93-.28.78-.52.99-1.56.48-2.34-.4-.6-.89-1.32-1.6-2.36-1.81-2.62-3.36-3.5-6.16-3.5h-4.11v-7.71h4.11Z"/>
        <path class="cls-5" d="M52.71,10.97c0-.96-.78-1.74-1.75-1.74s-1.75.78-1.75,1.74.78,1.75,1.75,1.75,1.75-.78,1.75-1.75ZM65.75,22.63c1.58,0,2.14.24,3.38,2.04.69,1.01,1.17,1.71,1.56,2.3.33.49.86.76,1.41.76.32,0,.64-.09.93-.28.78-.52.99-1.56.48-2.34-.4-.6-.89-1.32-1.6-2.35-1.81-2.62-3.36-3.5-6.16-3.5h-4.11v-7.68h4.11c1.58,0,2.14.24,3.38,2.04.69,1.01,1.17,1.71,1.56,2.3.33.49.86.76,1.41.76.32,0,.64-.09.93-.28.78-.51.99-1.56.48-2.34-.4-.6-.89-1.32-1.6-2.36-1.81-2.62-3.36-3.5-6.16-3.5h-4.22c-.65-4.39-4.44-7.78-9.01-7.78h-30.82c-4.61,0-8.38,3.34-9.02,7.78h-4.23c-2.8,0-4.36.88-6.16,3.5-.71,1.03-1.2,1.75-1.6,2.36-.51.78-.3,1.83.48,2.34.29.19.61.28.93.28.55,0,1.08-.27,1.41-.76.39-.59.87-1.29,1.56-2.3,1.24-1.8,1.8-2.04,3.38-2.04h5.81c.23,0,.46-.05.66-.13.61-.26,1.03-.86,1.03-1.56v-.5c.08-3.13,2.61-5.59,5.74-5.59h30.82c3.17,0,5.74,2.58,5.74,5.74v36.29c0,3.17-2.58,5.74-5.74,5.74h-30.82c-3.17,0-5.74-2.58-5.74-5.74v-24.85c0-.94-.76-1.69-1.69-1.69-.03,0-.06,0-.09,0-.09-.02-.18-.03-.28-.03h-5.45c-2.8,0-4.36.88-6.16,3.5-.71,1.03-1.2,1.75-1.6,2.35-.51.78-.3,1.83.48,2.34.29.19.61.28.93.28.55,0,1.08-.27,1.41-.76.39-.59.87-1.29,1.56-2.3,1.24-1.8,1.8-2.04,3.38-2.04h4.12v7.71h-4.12c-2.8,0-4.36.88-6.16,3.5-.71,1.03-1.2,1.75-1.6,2.36-.51.78-.3,1.83.48,2.34.29.19.61.28.93.28.55,0,1.08-.27,1.41-.76.39-.59.87-1.29,1.56-2.3,1.24-1.8,1.8-2.05,3.38-2.05h4.12v7.69h-4.12c-2.8,0-4.36.88-6.16,3.5-.71,1.03-1.2,1.75-1.6,2.35-.51.78-.3,1.83.48,2.34.29.19.61.28.93.28.55,0,1.08-.27,1.41-.76.39-.59.87-1.29,1.56-2.3,1.24-1.8,1.8-2.04,3.38-2.04h4.12v1.03c0,5.03,4.09,9.12,9.12,9.12h30.82c5.03,0,9.12-4.09,9.12-9.12v-1.03h4.11c1.58,0,2.14.24,3.38,2.04.69,1.01,1.17,1.71,1.56,2.3.33.49.86.76,1.41.76.32,0,.64-.09.93-.28.78-.51.99-1.56.48-2.34-.4-.6-.89-1.32-1.6-2.35-1.81-2.62-3.36-3.5-6.16-3.5h-4.11v-7.69h4.11c1.58,0,2.14.24,3.38,2.05.69,1,1.17,1.7,1.56,2.3.33.49.86.76,1.41.76.32,0,.64-.09.93-.28.78-.51.99-1.56.48-2.34-.4-.6-.89-1.32-1.6-2.36-1.81-2.62-3.36-3.5-6.16-3.5h-4.11v-7.71h4.11Z"/>
      </g>
      <path class="cls-2" d="M52.31,10.56c0-.96-.78-1.75-1.75-1.75s-1.75.78-1.75,1.75.78,1.75,1.75,1.75,1.75-.78,1.75-1.75ZM65.34,22.23c1.58,0,2.14.24,3.38,2.04.69,1.01,1.17,1.71,1.56,2.3.33.49.86.76,1.41.76.32,0,.64-.09.93-.28.78-.52.99-1.56.48-2.34-.4-.6-.89-1.32-1.6-2.35-1.81-2.62-3.36-3.5-6.16-3.5h-4.11v-7.68h4.11c1.58,0,2.14.24,3.38,2.04.69,1.01,1.17,1.71,1.56,2.3.33.49.86.76,1.41.76.32,0,.64-.09.93-.28.78-.51.99-1.56.48-2.34-.4-.6-.89-1.32-1.6-2.36-1.81-2.62-3.36-3.5-6.16-3.5h-4.22c-.65-4.39-4.44-7.78-9.01-7.78h-30.82c-4.61,0-8.38,3.34-9.02,7.78h-4.23c-2.8,0-4.36.88-6.17,3.5-.71,1.03-1.2,1.75-1.6,2.36-.51.78-.3,1.83.48,2.34.29.19.61.28.93.28.55,0,1.08-.27,1.41-.76.39-.59.87-1.29,1.56-2.3,1.24-1.8,1.8-2.04,3.38-2.04h5.81c.23,0,.46-.05.66-.13.61-.26,1.03-.86,1.03-1.56v-.5c.08-3.13,2.61-5.59,5.74-5.59h30.82c3.17,0,5.74,2.58,5.74,5.74v36.29c0,3.17-2.58,5.74-5.74,5.74h-30.82c-3.17,0-5.74-2.58-5.74-5.74v-24.85c0-.93-.76-1.69-1.69-1.69-.03,0-.06,0-.09.01-.09-.02-.18-.03-.28-.03h-5.45c-2.8,0-4.36.88-6.17,3.5-.71,1.03-1.2,1.75-1.6,2.35-.51.78-.3,1.83.48,2.34.29.19.61.28.93.28.55,0,1.08-.27,1.41-.76.39-.59.87-1.29,1.56-2.3,1.24-1.8,1.8-2.04,3.38-2.04h4.12v7.71h-4.12c-2.8,0-4.36.88-6.17,3.5-.71,1.03-1.2,1.75-1.6,2.36-.51.78-.3,1.83.48,2.34.29.19.61.28.93.28.55,0,1.08-.27,1.41-.76.39-.59.87-1.29,1.56-2.3,1.24-1.8,1.8-2.04,3.38-2.04h4.12v7.69h-4.12c-2.8,0-4.36.88-6.17,3.5-.71,1.03-1.2,1.75-1.6,2.35-.51.78-.3,1.83.48,2.34.29.19.61.28.93.28.55,0,1.08-.27,1.41-.76.39-.59.87-1.29,1.56-2.3,1.24-1.8,1.8-2.04,3.38-2.04h4.12v1.03c0,5.03,4.09,9.12,9.12,9.12h30.82c5.03,0,9.12-4.09,9.12-9.12v-1.03h4.11c1.58,0,2.14.24,3.38,2.04.69,1.01,1.17,1.71,1.56,2.3.33.49.86.76,1.41.76.32,0,.64-.09.93-.28.78-.51.99-1.56.48-2.34-.4-.6-.89-1.32-1.6-2.35-1.81-2.62-3.36-3.5-6.16-3.5h-4.11v-7.69h4.11c1.58,0,2.14.24,3.38,2.04.69,1,1.17,1.71,1.56,2.3.33.49.86.76,1.41.76.32,0,.64-.09.93-.28.78-.51.99-1.56.48-2.34-.4-.6-.89-1.32-1.6-2.36-1.81-2.62-3.36-3.5-6.16-3.5h-4.11v-7.71h4.11Z"/>
    </g>
  </g>
</svg>