<?xml version="1.0" encoding="UTF-8"?>
<svg id="Layer_2" data-name="Layer 2" xmlns="http://www.w3.org/2000/svg" viewBox="0 0 13.93 27.36">
  <defs>
    <style>
      .cls-1 {
        fill-rule: evenodd;
      }
    </style>
  </defs>
  <g id="_1" data-name="1">
    <path class="cls-1" d="M13.93,25.41l-.04-13.05c.02-.46-.1-.72-.31-.91l-4.31-4.25c.11-.42.19-.93.27-1.38.17-1.34.21-2.55.16-3.47-.06-.53-.15-1.01-.26-1.38-.23-.55-.55-.86-1-.95-.07,0-.15.02-.23-.02-.64.08-1.26.84-1.73,2.02-.39.99-.7,2.35-.93,3.79-.02.18-.02.28-.02.46l-.03.03L.31,11.48c-.18.22-.31.5-.31.93l.04,13.03c0,1.03.86,1.95,1.92,1.92l10.02-.05c1.11,0,1.96-.88,1.96-1.9h0ZM8.31,18.19h.76s.11.01.14.05h0s.06.08.06.14v5.68c0,.06-.03.1-.06.13-.04.03-.1.06-.14.06h-.76c-.05,0-.11-.03-.15-.06h0s-.05-.08-.05-.13v-5.68c0-.06.03-.1.05-.14h0s.1-.05.15-.05h0ZM6.51,16.75h.76c.05,0,.11.01.15.06h0s.05.08.05.14v7.11c0,.06-.03.1-.05.13-.04.03-.1.06-.15.06h-.76c-.05,0-.11-.03-.15-.06h0s-.05-.08-.05-.13v-7.11c0-.06.03-.09.05-.14h0s.1-.06.15-.06h0ZM4.7,16.75h.77c.06,0,.11.01.14.06h0s.07.08.07.14v7.11c0,.06-.03.1-.07.13-.02.03-.08.06-.14.06h-.77c-.06,0-.1-.03-.14-.06h0s-.05-.08-.05-.13v-7.11c0-.06.02-.09.05-.14h0s.08-.06.14-.06h0ZM8.09,6.05h0c-.36-.23-.66-.32-1.06-.35.21-1.22.48-2.31.82-3.15.1-.36.23-.65.33-.83.05.18.1.46.14.74.03.83-.02,1.94-.16,3.16-.04.15-.04.26-.05.43h0ZM8.51,9.87h0c-.43,1.03-1.04,1.67-1.63,1.71-.07,0-.13,0-.21.03-.46-.1-.81-.42-1-.95-.07-.27-.17-.55-.2-.9-.39.35-.66.9-.66,1.51.02,1.16.99,2.08,2.12,2.09,1.18-.01,2.12-.96,2.14-2.11,0-.54-.23-1.04-.55-1.39h0ZM6.82,9.17h0c.04.29.05.54.12.75.06-.16.16-.42.29-.76-.11,0-.23-.01-.31.01h-.1ZM3.34,15.27h7.26v9.86H3.34v-9.86Z"/>
  </g>
</svg>