<?xml version="1.0" encoding="UTF-8"?>
<svg id="Layer_2" data-name="Layer 2" xmlns="http://www.w3.org/2000/svg" xmlns:xlink="http://www.w3.org/1999/xlink" viewBox="0 0 67.48 71.46">
  <defs>
    <style>
      .cls-1 {
        opacity: .14;
      }

      .cls-2 {
        fill: url(#linear-gradient-2);
      }

      .cls-3 {
        opacity: .21;
      }

      .cls-4 {
        opacity: .42;
      }

      .cls-5 {
        opacity: .55;
      }

      .cls-6 {
        opacity: .48;
      }

      .cls-7 {
        opacity: .35;
      }

      .cls-8 {
        opacity: .08;
      }

      .cls-9 {
        opacity: .28;
      }

      .cls-10 {
        opacity: 0;
      }

      .cls-11 {
        fill: url(#linear-gradient);
      }
    </style>
    <linearGradient id="linear-gradient" x1="14.54" y1="-5.19" x2="48.46" y2="28.72" gradientUnits="userSpaceOnUse">
      <stop offset="0" stop-color="#79949c"/>
      <stop offset="1" stop-color="#b6c7c8"/>
    </linearGradient>
    <linearGradient id="linear-gradient-2" x1="2.93" y1="4.67" x2="59.28" y2="61.01" gradientUnits="userSpaceOnUse">
      <stop offset="0" stop-color="#2c2e2c"/>
      <stop offset=".99" stop-color="#000"/>
    </linearGradient>
  </defs>
  <g id="Layer_1-2" data-name="Layer 1">
    <g>
      <path class="cls-11" d="M25.88,19.42l4.99,4.99L54.17,1.95s7.25,10.58-4.28,23.06c-11.53,12.48-13.19,13.91-15.69,15.1-2.5,1.19-6.18.36-7.61-.83s-4.75-4.99-5.47-5.82-11.06-9.27-13.43-15.57c-2.38-6.3-2.02-11.17.95-15.81,2.56,2.56,17.24,17.36,17.24,17.36Z"/>
      <g>
        <path class="cls-10" d="M38.42,39.88c0-.96-.78-1.74-1.75-1.74s-1.75.78-1.75,1.74.78,1.75,1.75,1.75,1.75-.78,1.75-1.75ZM54.12,68.09c-5.51,0-9.99-4.48-9.99-9.99s4.48-9.99,9.99-9.99,9.98,4.48,9.98,9.99-4.48,9.99-9.98,9.99ZM18.77,68.09c-5.51,0-9.99-4.48-9.99-9.99s4.48-9.99,9.99-9.99,9.99,4.48,9.99,9.99-4.48,9.99-9.99,9.99ZM54.12,44.74c-3.08,0-5.91,1.05-8.17,2.81l-2.56-2.56,13.18-13.18c13.35-13.35,4.5-25.45,4.4-25.57-.29-.39-.74-.63-1.23-.67-.49-.03-.97.14-1.31.49l-31.24,31.24-8.03-8.04c-8.55-8.55-6.61-16.12-5.08-19.42l15.98,15.98c.66.66,1.73.66,2.39,0,.66-.66.66-1.73,0-2.39L14.91,5.9c-.35-.35-.82-.52-1.31-.49-.49.03-.94.28-1.23.67-.09.12-8.95,12.22,4.4,25.57l9.23,9.23c.33.33.76.49,1.2.49s.86-.16,1.19-.49c.02-.02.03-.04.04-.05l30.83-30.83c1.53,3.3,3.47,10.87-5.08,19.42l-13.43,13.43c-2.03,2.03-5.27,2.25-7.54.51-.74-.57-1.8-.43-2.37.31,0,0-.01.02-.02.03-.06.04-.13.09-.18.15l-3.69,3.69c-2.26-1.75-5.09-2.81-8.17-2.81-7.37,0-13.36,5.99-13.36,13.36s6,13.36,13.36,13.36,13.36-5.99,13.36-13.36c0-3.07-1.05-5.9-2.81-8.17l3.09-3.09c1.33.71,2.8,1.05,4.26,1.05,1.36,0,2.71-.31,3.95-.9l2.94,2.93c-1.75,2.26-2.81,5.09-2.81,8.17,0,7.37,6,13.36,13.36,13.36s13.36-5.99,13.36-13.36-6-13.36-13.36-13.36Z"/>
        <path class="cls-8" d="M37.8,39.25c0-.96-.78-1.74-1.75-1.74s-1.75.78-1.75,1.74.78,1.75,1.75,1.75,1.75-.78,1.75-1.75ZM53.49,67.46c-5.51,0-9.99-4.48-9.99-9.99s4.48-9.99,9.99-9.99,9.98,4.48,9.98,9.99-4.48,9.99-9.98,9.99ZM18.14,67.46c-5.51,0-9.99-4.48-9.99-9.99s4.48-9.99,9.99-9.99,9.99,4.48,9.99,9.99-4.48,9.99-9.99,9.99ZM53.49,44.11c-3.08,0-5.91,1.05-8.17,2.81l-2.56-2.56,13.18-13.18c13.35-13.35,4.5-25.45,4.4-25.57-.29-.39-.74-.63-1.23-.67-.49-.03-.97.14-1.31.49l-31.24,31.24-8.03-8.04c-8.55-8.55-6.61-16.12-5.08-19.42l15.98,15.98c.66.66,1.73.66,2.39,0,.66-.66.66-1.73,0-2.39L14.28,5.27c-.35-.35-.82-.52-1.31-.49-.49.03-.94.28-1.23.67-.09.12-8.95,12.22,4.4,25.57l9.23,9.23c.33.33.76.49,1.2.49s.88-.15,1.19-.49c.02-.02.03-.04.04-.05l30.83-30.83c1.53,3.3,3.47,10.87-5.08,19.42l-13.43,13.43c-2.03,2.03-5.27,2.25-7.54.51-.74-.57-1.75-.39-2.37.31,0,0-.01.02-.02.03-.06.04-.13.09-.18.15l-3.69,3.69c-2.26-1.75-5.09-2.81-8.17-2.81-7.37,0-13.36,5.99-13.36,13.36s6,13.36,13.36,13.36,13.36-5.99,13.36-13.36c0-3.07-1.05-5.9-2.81-8.17l3.09-3.09c1.33.71,2.8,1.05,4.26,1.05,1.36,0,2.71-.31,3.95-.9l2.94,2.93c-1.75,2.26-2.81,5.09-2.81,8.17,0,7.37,6,13.36,13.36,13.36s13.36-5.99,13.36-13.36-6-13.36-13.36-13.36Z"/>
        <path class="cls-1" d="M37.17,38.63c0-.96-.78-1.74-1.75-1.74s-1.75.78-1.75,1.74.78,1.75,1.75,1.75,1.75-.78,1.75-1.75ZM52.87,66.84c-5.51,0-9.99-4.48-9.99-9.99s4.48-9.99,9.99-9.99,9.98,4.48,9.98,9.99-4.48,9.99-9.98,9.99ZM17.52,66.84c-5.51,0-9.99-4.48-9.99-9.99s4.48-9.99,9.99-9.99,9.99,4.48,9.99,9.99-4.48,9.99-9.99,9.99ZM52.87,43.49c-3.08,0-5.91,1.05-8.17,2.81l-2.56-2.56,13.18-13.18c13.35-13.35,4.5-25.45,4.4-25.57-.29-.39-.74-.63-1.23-.67-.49-.03-.97.14-1.31.49l-31.24,31.24-8.03-8.04c-8.55-8.55-6.61-16.12-5.08-19.42l15.98,15.98c.66.66,1.73.66,2.39,0,.66-.66.66-1.73,0-2.39L13.66,4.65c-.35-.35-.82-.52-1.31-.49-.49.03-.94.28-1.23.67-.09.12-8.95,12.22,4.4,25.57l9.23,9.23c.33.33.76.49,1.2.49s.88-.15,1.19-.49c.02-.02.03-.04.04-.05l30.83-30.83c1.53,3.3,3.47,10.87-5.08,19.42l-13.43,13.43c-2.03,2.03-5.27,2.25-7.54.51-.74-.57-1.75-.39-2.37.31,0,0-.01.02-.02.03-.06.04-.13.09-.18.15l-3.69,3.69c-2.26-1.75-5.09-2.81-8.17-2.81-7.37,0-13.36,5.99-13.36,13.36s6,13.36,13.36,13.36,13.36-5.99,13.36-13.36c0-3.07-1.05-5.9-2.81-8.17l3.09-3.09c1.33.71,2.8,1.05,4.26,1.05,1.36,0,2.71-.31,3.95-.9l2.94,2.93c-1.75,2.26-2.81,5.09-2.81,8.17,0,7.37,6,13.36,13.36,13.36s13.36-5.99,13.36-13.36-6-13.36-13.36-13.36Z"/>
        <path class="cls-3" d="M36.55,38c0-.96-.78-1.74-1.75-1.74s-1.75.78-1.75,1.74.78,1.75,1.75,1.75,1.75-.78,1.75-1.75ZM52.24,66.21c-5.51,0-9.99-4.48-9.99-9.99s4.48-9.99,9.99-9.99,9.98,4.48,9.98,9.99-4.48,9.99-9.98,9.99ZM16.89,66.21c-5.51,0-9.99-4.48-9.99-9.99s4.48-9.99,9.99-9.99,9.99,4.48,9.99,9.99-4.48,9.99-9.99,9.99ZM52.24,42.86c-3.08,0-5.91,1.05-8.17,2.81l-2.56-2.56,13.18-13.18c13.35-13.35,4.5-25.45,4.4-25.57-.29-.39-.74-.63-1.23-.67-.49-.03-.97.14-1.31.49l-31.24,31.24-8.03-8.04c-8.55-8.55-6.61-16.12-5.08-19.42l15.98,15.98c.66.66,1.73.66,2.39,0,.66-.66.66-1.73,0-2.39L13.03,4.02c-.35-.35-.82-.52-1.31-.49-.49.03-.94.28-1.23.67-.09.12-8.95,12.22,4.4,25.57l9.23,9.23c.33.33.76.49,1.2.49s.88-.15,1.19-.49c.02-.02.03-.04.04-.05l30.83-30.83c1.53,3.3,3.47,10.87-5.08,19.42l-13.43,13.43c-2.03,2.03-5.27,2.25-7.54.51-.74-.57-1.75-.39-2.37.31,0,0-.01.02-.02.03-.06.04-.13.09-.18.15l-3.69,3.69c-2.26-1.75-5.09-2.81-8.17-2.81-7.37,0-13.36,5.99-13.36,13.36s6,13.36,13.36,13.36,13.36-5.99,13.36-13.36c0-3.07-1.05-5.9-2.81-8.17l3.09-3.09c1.33.71,2.8,1.05,4.26,1.05,1.36,0,2.71-.31,3.95-.9l2.94,2.93c-1.75,2.26-2.81,5.09-2.81,8.17,0,7.37,6,13.36,13.36,13.36s13.36-5.99,13.36-13.36-6-13.36-13.36-13.36Z"/>
        <path class="cls-9" d="M35.92,37.38c0-.96-.78-1.74-1.75-1.74s-1.75.78-1.75,1.74.78,1.75,1.75,1.75,1.75-.78,1.75-1.75ZM51.62,65.59c-5.51,0-9.99-4.48-9.99-9.99s4.48-9.99,9.99-9.99,9.98,4.48,9.98,9.99-4.48,9.99-9.98,9.99ZM16.27,65.59c-5.51,0-9.99-4.48-9.99-9.99s4.48-9.99,9.99-9.99,9.99,4.48,9.99,9.99-4.48,9.99-9.99,9.99ZM51.62,42.24c-3.08,0-5.91,1.05-8.17,2.81l-2.56-2.56,13.18-13.18c13.35-13.35,4.5-25.45,4.4-25.57-.29-.39-.74-.63-1.23-.67-.49-.03-.97.14-1.31.49l-31.24,31.24-8.03-8.04c-8.55-8.55-6.61-16.12-5.08-19.42l15.98,15.98c.66.66,1.73.66,2.39,0,.66-.66.66-1.73,0-2.39L12.41,3.4c-.35-.35-.82-.52-1.31-.49-.49.03-.94.28-1.23.67-.09.12-8.95,12.22,4.4,25.57l9.23,9.23c.33.33.76.49,1.2.49s.88-.15,1.19-.49c.02-.02.03-.04.04-.05L56.75,7.5c1.53,3.3,3.47,10.87-5.08,19.42l-13.43,13.43c-2.03,2.03-5.27,2.25-7.54.51-.74-.57-1.75-.39-2.37.31,0,0-.01.02-.02.03-.06.04-.13.09-.18.15l-3.69,3.69c-2.26-1.75-5.09-2.81-8.17-2.81-7.37,0-13.36,5.99-13.36,13.36s6,13.36,13.36,13.36,13.36-5.99,13.36-13.36c0-3.07-1.05-5.9-2.81-8.17l3.09-3.09c1.33.71,2.8,1.05,4.26,1.05,1.36,0,2.71-.31,3.95-.9l2.94,2.93c-1.75,2.26-2.81,5.09-2.81,8.17,0,7.37,6,13.36,13.36,13.36s13.36-5.99,13.36-13.36-6-13.36-13.36-13.36Z"/>
        <path class="cls-7" d="M35.3,36.75c0-.96-.78-1.74-1.75-1.74s-1.75.78-1.75,1.74.78,1.75,1.75,1.75,1.75-.78,1.75-1.75ZM50.99,64.96c-5.51,0-9.99-4.48-9.99-9.99s4.48-9.99,9.99-9.99,9.98,4.48,9.98,9.99-4.48,9.99-9.98,9.99ZM15.64,64.96c-5.51,0-9.99-4.48-9.99-9.99s4.48-9.99,9.99-9.99,9.99,4.48,9.99,9.99-4.48,9.99-9.99,9.99ZM50.99,41.61c-3.08,0-5.91,1.05-8.17,2.81l-2.56-2.56,13.18-13.18c13.35-13.35,4.5-25.45,4.4-25.57-.29-.39-.74-.63-1.23-.67-.49-.03-.97.14-1.31.49l-31.24,31.24-8.03-8.04C7.48,17.58,9.41,10.01,10.95,6.72l15.98,15.98c.66.66,1.73.66,2.39,0,.66-.66.66-1.73,0-2.39L11.78,2.77c-.35-.35-.82-.52-1.31-.49-.49.03-.94.28-1.23.67-.09.12-8.95,12.22,4.4,25.57l9.23,9.23c.33.33.76.49,1.2.49s.88-.15,1.19-.49c.02-.02.03-.04.04-.05L56.13,6.88c1.53,3.3,3.47,10.87-5.08,19.42l-13.43,13.43c-2.03,2.03-5.27,2.25-7.54.51-.74-.57-1.75-.39-2.37.31,0,0-.01.02-.02.03-.06.04-.13.09-.18.15l-3.69,3.69c-2.26-1.75-5.09-2.81-8.17-2.81-7.37,0-13.36,5.99-13.36,13.36s6,13.36,13.36,13.36,13.36-5.99,13.36-13.36c0-3.07-1.05-5.9-2.81-8.17l3.09-3.09c1.33.71,2.8,1.05,4.26,1.05,1.36,0,2.71-.31,3.95-.9l2.94,2.93c-1.75,2.26-2.81,5.09-2.81,8.17,0,7.37,6,13.36,13.36,13.36s13.36-5.99,13.36-13.36-6-13.36-13.36-13.36Z"/>
        <path class="cls-4" d="M34.67,36.13c0-.96-.78-1.74-1.75-1.74s-1.75.78-1.75,1.74.78,1.75,1.75,1.75,1.75-.78,1.75-1.75ZM50.37,64.34c-5.51,0-9.99-4.48-9.99-9.99s4.48-9.99,9.99-9.99,9.98,4.48,9.98,9.99-4.48,9.99-9.98,9.99ZM15.02,64.34c-5.51,0-9.99-4.48-9.99-9.99s4.48-9.99,9.99-9.99,9.99,4.48,9.99,9.99-4.48,9.99-9.99,9.99ZM50.37,40.99c-3.08,0-5.91,1.05-8.17,2.81l-2.56-2.56,13.18-13.18c13.35-13.35,4.5-25.45,4.4-25.57-.29-.39-.74-.63-1.23-.67-.49-.03-.97.14-1.31.49l-31.24,31.24-8.03-8.04C6.85,16.96,8.79,9.39,10.32,6.09l15.98,15.98c.66.66,1.73.66,2.39,0,.66-.66.66-1.73,0-2.39L11.16,2.15c-.35-.35-.82-.52-1.31-.49-.49.03-.94.28-1.23.67-.09.12-8.95,12.22,4.4,25.57l9.23,9.23c.33.33.76.49,1.2.49s.88-.15,1.19-.49c.02-.02.03-.04.04-.05L55.5,6.25c1.53,3.3,3.47,10.87-5.08,19.42l-13.43,13.43c-2.03,2.03-5.27,2.25-7.54.51-.74-.57-1.75-.39-2.37.31,0,0-.01.02-.02.03-.06.04-.13.09-.18.15l-3.69,3.69c-2.26-1.75-5.09-2.81-8.17-2.81-7.37,0-13.36,5.99-13.36,13.36s6,13.36,13.36,13.36,13.36-5.99,13.36-13.36c0-3.07-1.05-5.9-2.81-8.17l3.09-3.09c1.33.71,2.8,1.05,4.26,1.05,1.36,0,2.71-.31,3.95-.9l2.94,2.93c-1.75,2.26-2.81,5.09-2.81,8.17,0,7.37,6,13.36,13.36,13.36s13.36-5.99,13.36-13.36-6-13.36-13.36-13.36Z"/>
        <path class="cls-6" d="M34.05,35.5c0-.96-.78-1.74-1.75-1.74s-1.75.78-1.75,1.74.78,1.75,1.75,1.75,1.75-.78,1.75-1.75ZM49.74,63.71c-5.51,0-9.99-4.48-9.99-9.99s4.48-9.99,9.99-9.99,9.98,4.48,9.98,9.99-4.48,9.99-9.98,9.99ZM14.39,63.71c-5.51,0-9.99-4.48-9.99-9.99s4.48-9.99,9.99-9.99,9.99,4.48,9.99,9.99-4.48,9.99-9.99,9.99ZM49.74,40.36c-3.08,0-5.91,1.05-8.17,2.81l-2.56-2.56,13.18-13.18c13.35-13.35,4.5-25.45,4.4-25.57-.29-.39-.74-.63-1.23-.67-.49-.03-.97.14-1.31.49l-31.24,31.24-8.03-8.04C6.23,16.33,8.16,8.76,9.7,5.47l15.98,15.98c.66.66,1.73.66,2.39,0,.66-.66.66-1.73,0-2.39L10.53,1.52c-.35-.35-.82-.52-1.31-.49-.49.03-.94.28-1.23.67-.09.12-8.95,12.22,4.4,25.57l9.23,9.23c.33.33.76.49,1.2.49s.88-.15,1.19-.49c.02-.02.03-.04.04-.05L54.88,5.63c1.53,3.3,3.47,10.87-5.08,19.42l-13.43,13.43c-2.03,2.03-5.27,2.25-7.54.51-.74-.57-1.75-.39-2.37.31,0,0-.01.02-.02.03-.06.04-.13.09-.18.15l-3.69,3.69c-2.26-1.75-5.09-2.81-8.17-2.81-7.37,0-13.36,5.99-13.36,13.36s6,13.36,13.36,13.36,13.36-5.99,13.36-13.36c0-3.07-1.05-5.9-2.81-8.17l3.09-3.09c1.33.71,2.8,1.05,4.26,1.05,1.36,0,2.71-.31,3.95-.9l2.94,2.93c-1.75,2.26-2.81,5.09-2.81,8.17,0,7.37,6,13.36,13.36,13.36s13.36-5.99,13.36-13.36-6-13.36-13.36-13.36Z"/>
        <path class="cls-5" d="M33.42,34.88c0-.96-.78-1.74-1.75-1.74s-1.75.78-1.75,1.74.78,1.75,1.75,1.75,1.75-.78,1.75-1.75ZM49.12,63.09c-5.51,0-9.99-4.48-9.99-9.99s4.48-9.99,9.99-9.99,9.98,4.48,9.98,9.99-4.48,9.99-9.98,9.99ZM13.77,63.09c-5.51,0-9.99-4.48-9.99-9.99s4.48-9.99,9.99-9.99,9.99,4.48,9.99,9.99-4.48,9.99-9.99,9.99ZM49.12,39.74c-3.08,0-5.91,1.05-8.17,2.81l-2.56-2.56,13.18-13.18c13.35-13.35,4.5-25.45,4.4-25.57-.29-.39-.74-.63-1.23-.67-.49-.03-.97.14-1.31.49l-31.24,31.24-8.03-8.04C5.6,15.71,7.54,8.14,9.07,4.84l15.98,15.98c.66.66,1.73.66,2.39,0,.66-.66.66-1.73,0-2.39L9.91.9c-.35-.35-.82-.52-1.31-.49-.49.03-.94.28-1.23.67-.09.12-8.95,12.22,4.4,25.57l9.23,9.23c.33.33.76.49,1.2.49s.86-.16,1.19-.49c.02-.02.03-.04.04-.05L54.25,5c1.53,3.3,3.47,10.87-5.08,19.42l-13.43,13.43c-2.03,2.03-5.27,2.25-7.54.51-.74-.57-1.8-.43-2.37.31,0,0-.01.02-.02.03-.06.04-.13.09-.18.15l-3.69,3.69c-2.26-1.75-5.09-2.81-8.17-2.81-7.37,0-13.36,5.99-13.36,13.36s6,13.36,13.36,13.36,13.36-5.99,13.36-13.36c0-3.07-1.05-5.9-2.81-8.17l3.09-3.09c1.33.71,2.8,1.05,4.26,1.05,1.36,0,2.71-.31,3.95-.9l2.94,2.93c-1.75,2.26-2.81,5.09-2.81,8.17,0,7.37,6,13.36,13.36,13.36s13.36-5.99,13.36-13.36-6-13.36-13.36-13.36Z"/>
      </g>
      <path class="cls-2" d="M33.02,34.47c0-.96-.78-1.74-1.75-1.74s-1.75.78-1.75,1.74.78,1.75,1.75,1.75,1.75-.78,1.75-1.75ZM48.71,39.33c-3.08,0-5.91,1.05-8.17,2.81l-2.56-2.57,13.18-13.17C64.5,13.05,55.65.95,55.56.83c-.29-.39-.74-.63-1.23-.66-.49-.03-.97.14-1.31.49l-31.24,31.24-8.03-8.04C5.2,15.3,7.13,7.73,8.66,4.44l15.98,15.98c.66.66,1.73.66,2.39,0,.66-.66.66-1.73,0-2.39L9.5.49C9.15.15,8.68-.03,8.19,0c-.49.03-.94.28-1.23.67-.09.12-8.95,12.22,4.4,25.57l9.23,9.23c.33.33.76.49,1.2.49s.86-.16,1.19-.49c.02-.02.03-.04.04-.05L53.85,4.6c1.53,3.3,3.47,10.87-5.08,19.42l-13.43,13.43c-2.03,2.03-5.27,2.25-7.54.51-.74-.57-1.8-.43-2.37.31,0,0-.01.02-.02.03-.06.05-.13.09-.18.15l-3.69,3.69c-2.26-1.75-5.09-2.81-8.17-2.81-7.37,0-13.36,5.99-13.36,13.36s6,13.36,13.36,13.36,13.36-5.99,13.36-13.36c0-3.07-1.05-5.9-2.81-8.17l3.08-3.09c1.33.71,2.8,1.05,4.26,1.05,1.36,0,2.71-.31,3.95-.9l2.94,2.93c-1.75,2.26-2.81,5.09-2.81,8.17,0,7.37,6,13.36,13.36,13.36s13.36-5.99,13.36-13.36-6-13.36-13.36-13.36ZM13.36,62.68c-5.51,0-9.99-4.48-9.99-9.99s4.48-9.99,9.99-9.99,9.99,4.48,9.99,9.99-4.48,9.99-9.99,9.99ZM48.71,62.68c-5.51,0-9.99-4.48-9.99-9.99s4.48-9.99,9.99-9.99,9.98,4.48,9.98,9.99-4.48,9.99-9.98,9.99Z"/>
    </g>
  </g>
</svg>