<?xml version="1.0" encoding="UTF-8"?>
<svg id="Layer_2" data-name="Layer 2" xmlns="http://www.w3.org/2000/svg" xmlns:xlink="http://www.w3.org/1999/xlink" viewBox="0 0 79 71.26">
  <defs>
    <style>
      .cls-1 {
        opacity: .14;
      }

      .cls-2 {
        fill: url(#linear-gradient-2);
      }

      .cls-3 {
        opacity: .21;
      }

      .cls-4 {
        opacity: .42;
      }

      .cls-5 {
        opacity: .55;
      }

      .cls-6 {
        opacity: .48;
      }

      .cls-7 {
        opacity: .35;
      }

      .cls-8 {
        opacity: .08;
      }

      .cls-9 {
        opacity: .28;
      }

      .cls-10 {
        opacity: 0;
      }

      .cls-11 {
        fill: url(#linear-gradient);
      }
    </style>
    <linearGradient id="linear-gradient" x1="10.11" y1="15.53" x2="59.3" y2="64.72" gradientUnits="userSpaceOnUse">
      <stop offset="0" stop-color="#c0c1c0"/>
      <stop offset=".2" stop-color="#d4d4d4"/>
      <stop offset=".49" stop-color="#ebeceb"/>
      <stop offset=".77" stop-color="#fafafa"/>
      <stop offset="1" stop-color="#fff"/>
    </linearGradient>
    <linearGradient id="linear-gradient-2" x1="10.4" y1="15.63" x2="60.11" y2="65.34" gradientUnits="userSpaceOnUse">
      <stop offset="0" stop-color="#2c2e2c"/>
      <stop offset=".99" stop-color="#000"/>
    </linearGradient>
  </defs>
  <g id="Layer_1-2" data-name="Layer 1">
    <g>
      <path class="cls-11" d="M60.81,54.4c5.77-.96,9.9-2.34,11.14-3.71-1.24-14.3-9.62-16.09-14.44-17.19-4.81-1.1-5.5-1.51-5.5-3.03s2.61-5.91,4.95-9.76,1.65-7.56-.14-7.7c-.55-6.74-4.26-10.59-9.49-11.27-5.22-.69-9.49,3.02-9.49,3.02h-.01c-1.72-1.02-3.94-1.69-6.8-1.69-12.52,0-13.19,13.19-13.19,13.19,0,0-4.13,3.2,0,9.19,4.13,5.99,6.26,9.99,5.99,12.12-.27,2.13-11.99,3.73-16.12,6.26-4.13,2.53-5.46,7.86-6.13,9.59-.67,1.73-2.13,6.79.27,7.86,2.4,1.07,20.25,2.8,29.3,2.8s27.84-1.33,30.37-3.6c-.13-1.78-.36-3.92-.79-6.08.02,0,.04,0,.06,0Z"/>
      <g>
        <path class="cls-10" d="M76.41,45.25c-2.29-4.67-8.25-6.19-14.55-7.81-.94-.24-1.89-.48-2.84-.74-.03-.6.01-1.47.1-1.95,2.35-2.17,2.85-3.12,4.24-7.04,2.22-1.65,2.58-4.52,2.63-5.41.19-2.99-.86-4.32-1.77-4.92-.17-.11-.34-.2-.52-.27-.67-7.14-5.09-11.48-12.08-11.71-.96-.03-1.71.7-1.75,1.63-.03.93.71,1.71,1.64,1.74,3.26.11,8.75,1.54,8.9,9.94.01.59.32,1.12.82,1.42.37.22.8.29,1.21.2.1.22.24.73.18,1.75-.07,1.05-.5,2.49-1.5,3.05-.36.2-.63.53-.77.91-1.5,4.3-1.7,4.55-3.81,6.47-1.24,1.15-.86,4.76-.86,4.79.05.47.19,1.73,1.24,2.27.1.05.21.09.32.12,1.27.36,2.54.68,3.78,1,5.53,1.41,10.75,2.75,12.35,6.02,1.02,2.09,2.11,5.84,2.24,8.99-.3.13-.84.33-1.81.57-.91.22-1.46,1.13-1.25,2.04.19.78.88,1.3,1.64,1.3.13,0,.26-.02.4-.05,1.43-.34,4.4-1.06,4.4-3.24,0-3.81-1.3-8.46-2.59-11.09ZM49,43.91c-1.15-.29-2.32-.59-3.49-.91-.06-.76,0-2.01.12-2.61,2.76-2.54,3.32-3.6,4.94-8.2,2.54-1.84,2.95-5.11,3.01-6.12.22-3.33-.93-4.81-1.93-5.47-.23-.15-.46-.27-.71-.35-.71-8.24-5.76-13.25-13.77-13.51-.21,0-.97,0-1.15,0-8.04.24-13.12,5.25-13.83,13.51-.25.08-.49.2-.71.35-1,.65-2.14,2.13-1.93,5.47.07,1.01.48,4.29,3.02,6.12,1.62,4.6,2.18,5.66,4.94,8.2.05.29.12.83.14,1.54.01.46,0,.82-.03,1.08-1.16.32-2.34.62-3.48.91-7.25,1.86-14.1,3.61-16.71,8.91-.58,1.18-1.55,4.07-1.95,5.36-.27.89.23,1.83,1.12,2.11.89.28,1.84-.23,2.11-1.12.43-1.4,1.33-3.99,1.75-4.86,1.92-3.91,8.03-5.47,14.51-7.12,1.43-.37,2.91-.75,4.38-1.16.11-.03.22-.07.32-.12,1.01-.52,1.41-1.74,1.35-4.07-.08-2.86-.66-3.44-1-3.72-2.53-2.31-2.75-2.68-4.46-7.59-.14-.39-.41-.71-.77-.91-1.25-.71-1.79-2.47-1.87-3.77-.1-1.48.19-2.15.34-2.35.46.15.97.1,1.4-.15.5-.3.81-.84.83-1.42.17-10,6.73-11.69,10.63-11.8.16,0,.78,0,.95,0,3.88.12,10.42,1.82,10.59,11.8,0,.58.32,1.12.82,1.42.43.25.94.31,1.4.15.15.2.44.87.35,2.36-.08,1.29-.62,3.06-1.88,3.77-.36.2-.63.53-.76.91-1.73,4.94-1.93,5.29-4.49,7.62h0c-1.3,1.2-.92,5.3-.91,5.34.05.51.2,1.86,1.29,2.42.1.05.21.09.32.12,1.47.41,2.95.79,4.38,1.16,6.48,1.66,12.6,3.22,14.51,7.13,1.22,2.49,2.51,7.01,2.62,10.74-2.24,1.23-13.6,2.83-28.73,2.83h0c-12.86,0-25.46-1.24-28.68-2.83-.84-.41-1.85-.07-2.26.77-.41.84-.07,1.85.77,2.26,4.23,2.08,18.38,3.17,30.17,3.17h0c7.58,0,15.27-.42,21.12-1.15,9.15-1.14,10.99-2.58,10.99-4.54,0-4.38-1.5-9.73-2.98-12.75-2.6-5.31-9.45-7.06-16.71-8.91Z"/>
        <path class="cls-8" d="M75.79,44.63c-2.29-4.67-8.25-6.19-14.55-7.81-.94-.24-1.89-.48-2.84-.74-.03-.6.01-1.47.1-1.95,2.35-2.17,2.85-3.12,4.24-7.04,2.22-1.65,2.58-4.52,2.63-5.41.19-2.99-.85-4.33-1.77-4.92-.17-.11-.34-.2-.52-.27-.67-7.14-5.09-11.48-12.08-11.71-.96-.03-1.72.7-1.75,1.63-.03.93.71,1.71,1.64,1.74,3.26.11,8.75,1.54,8.9,9.94.01.59.32,1.12.82,1.42.37.22.8.29,1.21.2.1.22.24.73.18,1.75-.07,1.05-.5,2.49-1.5,3.05-.36.2-.63.53-.77.91-1.5,4.3-1.71,4.54-3.81,6.47-1.24,1.14-.86,4.76-.86,4.79.05.47.18,1.74,1.24,2.27.1.05.21.09.32.12,1.27.35,2.54.68,3.78,1,5.53,1.41,10.75,2.75,12.35,6.02,1.02,2.09,2.11,5.84,2.24,8.99-.3.13-.84.33-1.81.57-.91.22-1.46,1.13-1.25,2.04.19.78.88,1.3,1.64,1.3.13,0,.26-.02.4-.05,1.43-.35,4.4-1.06,4.4-3.24,0-3.81-1.3-8.46-2.59-11.09ZM48.37,43.28c-1.15-.29-2.32-.59-3.49-.91-.06-.76,0-2.01.12-2.61,2.76-2.54,3.32-3.6,4.94-8.2,2.54-1.84,2.95-5.11,3.01-6.12.22-3.33-.93-4.82-1.93-5.47-.23-.15-.46-.27-.71-.35-.71-8.24-5.77-13.21-13.77-13.51-.21,0-.97,0-1.15,0-8.04.24-13.12,5.25-13.83,13.51-.25.08-.49.2-.71.35-1,.65-2.14,2.13-1.93,5.47.07,1.01.48,4.29,3.02,6.12,1.62,4.6,2.18,5.66,4.94,8.2.05.29.12.83.14,1.54.01.46,0,.82-.03,1.08-1.16.32-2.34.62-3.48.91-7.25,1.86-14.1,3.61-16.71,8.91-.58,1.18-1.55,4.07-1.95,5.36-.27.89.23,1.83,1.12,2.11.89.28,1.84-.23,2.11-1.12.43-1.4,1.33-3.99,1.75-4.86,1.92-3.91,8.03-5.47,14.51-7.12,1.43-.37,2.92-.74,4.38-1.16.11-.03.22-.07.32-.12,1.01-.52,1.41-1.74,1.35-4.07-.08-2.86-.66-3.44-1-3.72-2.53-2.31-2.75-2.68-4.46-7.59-.14-.39-.41-.71-.77-.91-1.25-.7-1.79-2.47-1.87-3.77-.1-1.48.19-2.15.34-2.35.46.15.97.1,1.4-.15.5-.3.81-.84.83-1.42.17-10,6.73-11.69,10.63-11.8.16,0,.78,0,.95,0,3.88.12,10.42,1.82,10.59,11.8,0,.58.32,1.12.82,1.42.43.25.94.31,1.4.15.15.2.44.87.35,2.36-.08,1.29-.62,3.06-1.88,3.77-.36.2-.63.53-.76.91-1.73,4.94-1.93,5.29-4.49,7.62h0c-1.3,1.2-.91,5.3-.91,5.34.06.51.2,1.86,1.29,2.42.1.05.21.09.32.12,1.46.42,2.95.79,4.38,1.16,6.48,1.66,12.6,3.22,14.51,7.13,1.22,2.49,2.51,7.01,2.62,10.74-2.24,1.23-13.6,2.83-28.73,2.83h0c-12.86,0-25.46-1.24-28.68-2.83-.84-.41-1.85-.07-2.26.77-.41.84-.07,1.85.77,2.26,4.23,2.08,18.38,3.17,30.17,3.17h0c7.58,0,15.27-.42,21.12-1.15,9.15-1.14,10.99-2.58,10.99-4.54,0-4.38-1.5-9.73-2.98-12.75-2.6-5.31-9.45-7.06-16.71-8.91Z"/>
        <path class="cls-1" d="M75.16,44c-2.29-4.67-8.25-6.19-14.55-7.81-.94-.24-1.89-.48-2.84-.74-.03-.6.01-1.47.1-1.95,2.35-2.17,2.85-3.12,4.24-7.04,2.22-1.65,2.58-4.52,2.63-5.41.19-2.99-.85-4.33-1.77-4.92-.17-.11-.34-.2-.52-.27-.67-7.14-5.09-11.48-12.08-11.71-.96-.03-1.72.7-1.75,1.63-.03.93.71,1.71,1.64,1.74,3.26.11,8.75,1.54,8.9,9.94.01.59.32,1.12.82,1.42.37.22.8.29,1.21.2.1.22.24.73.18,1.75-.07,1.05-.5,2.49-1.5,3.05-.36.2-.63.53-.77.91-1.5,4.3-1.71,4.54-3.81,6.47-1.24,1.14-.86,4.76-.86,4.79.05.47.18,1.74,1.24,2.27.1.05.21.09.32.12,1.27.35,2.54.68,3.78,1,5.53,1.41,10.75,2.75,12.35,6.02,1.02,2.09,2.11,5.84,2.24,8.99-.3.13-.84.33-1.81.57-.91.22-1.46,1.13-1.25,2.04.19.78.88,1.3,1.64,1.3.13,0,.26-.02.4-.05,1.43-.35,4.4-1.06,4.4-3.24,0-3.81-1.3-8.46-2.59-11.09ZM47.75,42.66c-1.15-.29-2.32-.59-3.49-.91-.06-.76,0-2.01.12-2.61,2.76-2.54,3.32-3.6,4.94-8.2,2.54-1.84,2.95-5.11,3.01-6.12.22-3.33-.93-4.82-1.93-5.47-.23-.15-.46-.27-.71-.35-.71-8.24-5.77-13.21-13.77-13.51-.21,0-.97,0-1.15,0-8.04.24-13.12,5.25-13.83,13.51-.25.08-.49.2-.71.35-1,.65-2.14,2.13-1.93,5.47.07,1.01.48,4.29,3.02,6.12,1.62,4.6,2.18,5.66,4.94,8.2.05.29.12.83.14,1.54.01.46,0,.82-.03,1.08-1.16.32-2.34.62-3.48.91-7.25,1.86-14.1,3.61-16.71,8.91-.58,1.18-1.55,4.07-1.95,5.36-.27.89.23,1.83,1.12,2.11.89.28,1.84-.23,2.11-1.12.43-1.4,1.33-3.99,1.75-4.86,1.92-3.91,8.03-5.47,14.51-7.12,1.43-.37,2.92-.74,4.38-1.16.11-.03.22-.07.32-.12,1.01-.52,1.41-1.74,1.35-4.07-.08-2.86-.66-3.44-1-3.72-2.53-2.31-2.75-2.68-4.46-7.59-.14-.39-.41-.71-.77-.91-1.25-.7-1.79-2.47-1.87-3.77-.1-1.48.19-2.15.34-2.35.46.15.97.1,1.4-.15.5-.3.81-.84.83-1.42.17-10,6.73-11.69,10.63-11.8.16,0,.78,0,.95,0,3.88.12,10.42,1.82,10.59,11.8,0,.58.32,1.12.82,1.42.43.25.94.31,1.4.15.15.2.44.87.35,2.36-.08,1.29-.62,3.06-1.88,3.77-.36.2-.63.53-.76.91-1.73,4.94-1.93,5.29-4.49,7.62h0c-1.3,1.2-.91,5.3-.91,5.34.06.51.2,1.86,1.29,2.42.1.05.21.09.32.12,1.46.42,2.95.79,4.38,1.16,6.48,1.66,12.6,3.22,14.51,7.13,1.22,2.49,2.51,7.01,2.62,10.74-2.24,1.23-13.6,2.83-28.73,2.83h0c-12.86,0-25.46-1.24-28.68-2.83-.84-.41-1.85-.07-2.26.77-.41.84-.07,1.85.77,2.26,4.23,2.08,18.38,3.17,30.17,3.17h0c7.58,0,15.27-.42,21.12-1.15,9.15-1.14,10.99-2.58,10.99-4.54,0-4.38-1.5-9.73-2.98-12.75-2.6-5.31-9.45-7.06-16.71-8.91Z"/>
        <path class="cls-3" d="M74.54,43.38c-2.29-4.67-8.25-6.19-14.55-7.81-.94-.24-1.89-.48-2.84-.74-.03-.6.01-1.47.1-1.95,2.35-2.17,2.85-3.12,4.24-7.04,2.22-1.65,2.58-4.52,2.63-5.41.19-2.99-.85-4.33-1.77-4.92-.17-.11-.34-.2-.52-.27-.67-7.14-5.09-11.48-12.08-11.71-.96-.03-1.72.7-1.75,1.63-.03.93.71,1.71,1.64,1.74,3.26.11,8.75,1.54,8.9,9.94.01.59.32,1.12.82,1.42.37.22.8.29,1.21.2.1.22.24.73.18,1.75-.07,1.05-.5,2.49-1.5,3.05-.36.2-.63.53-.77.91-1.5,4.3-1.71,4.54-3.81,6.47-1.24,1.14-.86,4.76-.86,4.79.05.47.18,1.74,1.24,2.27.1.05.21.09.32.12,1.27.35,2.54.68,3.78,1,5.53,1.41,10.75,2.75,12.35,6.02,1.02,2.09,2.11,5.84,2.24,8.99-.3.13-.84.33-1.81.57-.91.22-1.46,1.13-1.25,2.04.19.78.88,1.3,1.64,1.3.13,0,.26-.02.4-.05,1.43-.35,4.4-1.06,4.4-3.24,0-3.81-1.3-8.46-2.59-11.09ZM47.12,42.03c-1.15-.29-2.32-.59-3.49-.91-.06-.76,0-2.01.12-2.61,2.76-2.54,3.32-3.6,4.94-8.2,2.54-1.84,2.95-5.11,3.01-6.12.22-3.33-.93-4.82-1.93-5.47-.23-.15-.46-.27-.71-.35-.71-8.24-5.77-13.21-13.77-13.51-.21,0-.97,0-1.15,0-8.04.24-13.12,5.25-13.83,13.51-.25.08-.49.2-.71.35-1,.65-2.14,2.13-1.93,5.47.07,1.01.48,4.29,3.02,6.12,1.62,4.6,2.18,5.66,4.94,8.2.05.29.12.83.14,1.54.01.46,0,.82-.03,1.08-1.16.32-2.34.62-3.48.91-7.25,1.86-14.1,3.61-16.71,8.91-.58,1.18-1.55,4.07-1.95,5.36-.27.89.23,1.83,1.12,2.11.89.28,1.84-.23,2.11-1.12.43-1.4,1.33-3.99,1.75-4.86,1.92-3.91,8.03-5.47,14.51-7.12,1.43-.37,2.92-.74,4.38-1.16.11-.03.22-.07.32-.12,1.01-.52,1.41-1.74,1.35-4.07-.08-2.86-.66-3.44-1-3.72-2.53-2.31-2.75-2.68-4.46-7.59-.14-.39-.41-.71-.77-.91-1.25-.7-1.79-2.47-1.87-3.77-.1-1.48.19-2.15.34-2.35.46.15.97.1,1.4-.15.5-.3.81-.84.83-1.42.17-10,6.73-11.69,10.63-11.8.16,0,.78,0,.95,0,3.88.12,10.42,1.82,10.59,11.8,0,.58.32,1.12.82,1.42.43.25.94.31,1.4.15.15.2.44.87.35,2.36-.08,1.29-.62,3.06-1.88,3.77-.36.2-.63.53-.76.91-1.73,4.94-1.93,5.29-4.49,7.62h0c-1.3,1.2-.91,5.3-.91,5.34.06.51.2,1.86,1.29,2.42.1.05.21.09.32.12,1.46.42,2.95.79,4.38,1.16,6.48,1.66,12.6,3.22,14.51,7.13,1.22,2.49,2.51,7.01,2.62,10.74-2.24,1.23-13.6,2.83-28.73,2.83h0c-12.86,0-25.46-1.24-28.68-2.83-.84-.41-1.85-.07-2.26.77-.41.84-.07,1.85.77,2.26,4.23,2.08,18.38,3.17,30.17,3.17h0c7.58,0,15.27-.42,21.12-1.15,9.15-1.14,10.99-2.58,10.99-4.54,0-4.38-1.5-9.73-2.98-12.75-2.6-5.31-9.45-7.06-16.71-8.91Z"/>
        <path class="cls-9" d="M73.91,42.75c-2.29-4.67-8.25-6.19-14.55-7.81-.94-.24-1.89-.48-2.84-.74-.03-.6.01-1.47.1-1.95,2.35-2.17,2.85-3.12,4.24-7.04,2.22-1.65,2.58-4.52,2.63-5.41.19-2.99-.85-4.33-1.77-4.92-.17-.11-.34-.2-.52-.27-.67-7.14-5.09-11.48-12.08-11.71-.96-.03-1.72.7-1.75,1.63-.03.93.71,1.71,1.64,1.74,3.26.11,8.75,1.54,8.9,9.94.01.59.32,1.12.82,1.42.37.22.8.29,1.21.2.1.22.24.73.18,1.75-.07,1.05-.5,2.49-1.5,3.05-.36.2-.63.53-.77.91-1.5,4.3-1.71,4.54-3.81,6.47-1.24,1.14-.86,4.76-.86,4.79.05.47.18,1.74,1.24,2.27.1.05.21.09.32.12,1.27.35,2.54.68,3.78,1,5.53,1.41,10.75,2.75,12.35,6.02,1.02,2.09,2.11,5.84,2.24,8.99-.3.13-.84.33-1.81.57-.91.22-1.46,1.13-1.25,2.04.19.78.88,1.3,1.64,1.3.13,0,.26-.02.4-.05,1.43-.35,4.4-1.06,4.4-3.24,0-3.81-1.3-8.46-2.59-11.09ZM46.5,41.41c-1.15-.29-2.32-.59-3.49-.91-.06-.76,0-2.01.12-2.61,2.76-2.54,3.32-3.6,4.94-8.2,2.54-1.84,2.95-5.11,3.01-6.12.22-3.33-.93-4.82-1.93-5.47-.23-.15-.46-.27-.71-.35-.71-8.24-5.77-13.21-13.77-13.51-.21,0-.97,0-1.15,0-8.04.24-13.12,5.25-13.83,13.51-.25.08-.49.2-.71.35-1,.65-2.14,2.13-1.93,5.47.07,1.01.48,4.29,3.02,6.12,1.62,4.6,2.18,5.66,4.94,8.2.05.29.12.83.14,1.54.01.46,0,.82-.03,1.08-1.16.32-2.34.62-3.48.91-7.25,1.86-14.1,3.61-16.71,8.91-.58,1.18-1.55,4.07-1.95,5.36-.27.89.23,1.83,1.12,2.11.89.28,1.84-.23,2.11-1.12.43-1.4,1.33-3.99,1.75-4.86,1.92-3.91,8.03-5.47,14.51-7.12,1.43-.37,2.92-.74,4.38-1.16.11-.03.22-.07.32-.12,1.01-.52,1.41-1.74,1.35-4.07-.08-2.86-.66-3.44-1-3.72-2.53-2.31-2.75-2.68-4.46-7.59-.14-.39-.41-.71-.77-.91-1.25-.7-1.79-2.47-1.87-3.77-.1-1.48.19-2.15.34-2.35.46.15.97.1,1.4-.15.5-.3.81-.84.83-1.42.17-10,6.73-11.69,10.63-11.8.16,0,.78,0,.95,0,3.88.12,10.42,1.82,10.59,11.8,0,.58.32,1.12.82,1.42.43.25.94.31,1.4.15.15.2.44.87.35,2.36-.08,1.29-.62,3.06-1.88,3.77-.36.2-.63.53-.76.91-1.73,4.94-1.93,5.29-4.49,7.62h0c-1.3,1.2-.91,5.3-.91,5.34.06.51.2,1.86,1.29,2.42.1.05.21.09.32.12,1.46.42,2.95.79,4.38,1.16,6.48,1.66,12.6,3.22,14.51,7.13,1.22,2.49,2.51,7.01,2.62,10.74-2.24,1.23-13.6,2.83-28.73,2.83h0c-12.86,0-25.46-1.24-28.68-2.83-.84-.41-1.85-.07-2.26.77-.41.84-.07,1.85.77,2.26,4.23,2.08,18.38,3.17,30.17,3.17h0c7.58,0,15.27-.42,21.12-1.15,9.15-1.14,10.99-2.58,10.99-4.54,0-4.38-1.5-9.73-2.98-12.75-2.6-5.31-9.45-7.06-16.71-8.91Z"/>
        <path class="cls-7" d="M73.29,42.13c-2.29-4.67-8.25-6.19-14.55-7.81-.94-.24-1.89-.48-2.84-.74-.03-.6.01-1.47.1-1.95,2.35-2.17,2.85-3.12,4.24-7.04,2.22-1.65,2.58-4.52,2.63-5.41.19-2.99-.85-4.33-1.77-4.92-.17-.11-.34-.2-.52-.27-.67-7.14-5.09-11.48-12.08-11.71-.96-.03-1.72.7-1.75,1.63-.03.93.71,1.71,1.64,1.74,3.26.11,8.75,1.54,8.9,9.94.01.59.32,1.12.82,1.42.37.22.8.29,1.21.2.1.22.24.73.18,1.75-.07,1.05-.5,2.49-1.5,3.05-.36.2-.63.53-.77.91-1.5,4.3-1.71,4.54-3.81,6.47-1.24,1.14-.86,4.76-.86,4.79.05.47.18,1.74,1.24,2.27.1.05.21.09.32.12,1.27.35,2.54.68,3.78,1,5.53,1.41,10.75,2.75,12.35,6.02,1.02,2.09,2.11,5.84,2.24,8.99-.3.13-.84.33-1.81.57-.91.22-1.46,1.13-1.25,2.04.19.78.88,1.3,1.64,1.3.13,0,.26-.02.4-.05,1.43-.35,4.4-1.06,4.4-3.24,0-3.81-1.3-8.46-2.59-11.09ZM45.87,40.78c-1.15-.29-2.32-.59-3.49-.91-.06-.76,0-2.01.12-2.61,2.76-2.54,3.32-3.6,4.94-8.2,2.54-1.84,2.95-5.11,3.01-6.12.22-3.33-.93-4.82-1.93-5.47-.23-.15-.46-.27-.71-.35-.71-8.24-5.77-13.21-13.77-13.51-.21,0-.97,0-1.15,0-8.04.24-13.12,5.25-13.83,13.51-.25.08-.49.2-.71.35-1,.65-2.14,2.13-1.93,5.47.07,1.01.48,4.29,3.02,6.12,1.62,4.6,2.18,5.66,4.94,8.2.05.29.12.83.14,1.54.01.46,0,.82-.03,1.08-1.16.32-2.34.62-3.48.91-7.25,1.86-14.1,3.61-16.71,8.91-.58,1.18-1.55,4.07-1.95,5.36-.27.89.23,1.83,1.12,2.11.89.28,1.84-.23,2.11-1.12.43-1.4,1.33-3.99,1.75-4.86,1.92-3.91,8.03-5.47,14.51-7.12,1.43-.37,2.92-.74,4.38-1.16.11-.03.22-.07.32-.12,1.01-.52,1.41-1.74,1.35-4.07-.08-2.86-.66-3.44-1-3.72-2.53-2.31-2.75-2.68-4.46-7.59-.14-.39-.41-.71-.77-.91-1.25-.7-1.79-2.47-1.87-3.77-.1-1.48.19-2.15.34-2.35.46.15.97.1,1.4-.15.5-.3.81-.84.83-1.42.17-10,6.73-11.69,10.63-11.8.16,0,.78,0,.95,0,3.88.12,10.42,1.82,10.59,11.8,0,.58.32,1.12.82,1.42.43.25.94.31,1.4.15.15.2.44.87.35,2.36-.08,1.29-.62,3.06-1.88,3.77-.36.2-.63.53-.76.91-1.73,4.94-1.93,5.29-4.49,7.62h0c-1.3,1.2-.91,5.3-.91,5.34.06.51.2,1.86,1.29,2.42.1.05.21.09.32.12,1.46.42,2.95.79,4.38,1.16,6.48,1.66,12.6,3.22,14.51,7.13,1.22,2.49,2.51,7.01,2.62,10.74-2.24,1.23-13.6,2.83-28.73,2.83h0c-12.86,0-25.46-1.24-28.68-2.83-.84-.41-1.85-.07-2.26.77-.41.84-.07,1.85.77,2.26,4.23,2.08,18.38,3.17,30.17,3.17h0c7.58,0,15.27-.42,21.12-1.15,9.15-1.14,10.99-2.58,10.99-4.54,0-4.38-1.5-9.73-2.98-12.75-2.6-5.31-9.45-7.06-16.71-8.91Z"/>
        <path class="cls-4" d="M72.66,41.5c-2.29-4.67-8.25-6.19-14.55-7.81-.94-.24-1.89-.48-2.84-.74-.03-.6.01-1.47.1-1.95,2.35-2.17,2.85-3.12,4.24-7.04,2.22-1.65,2.58-4.52,2.63-5.41.19-2.99-.85-4.33-1.77-4.92-.17-.11-.34-.2-.52-.27-.67-7.14-5.09-11.48-12.08-11.71-.96-.03-1.72.7-1.75,1.63-.03.93.71,1.71,1.64,1.74,3.26.11,8.75,1.54,8.9,9.94.01.59.32,1.12.82,1.42.37.22.8.29,1.21.2.1.22.24.73.18,1.75-.07,1.05-.5,2.49-1.5,3.05-.36.2-.63.53-.77.91-1.5,4.3-1.71,4.54-3.81,6.47-1.24,1.14-.86,4.76-.86,4.79.05.47.18,1.74,1.24,2.27.1.05.21.09.32.12,1.27.35,2.54.68,3.78,1,5.53,1.41,10.75,2.75,12.35,6.02,1.02,2.09,2.11,5.84,2.24,8.99-.3.13-.84.33-1.81.57-.91.22-1.46,1.13-1.25,2.04.19.78.88,1.3,1.64,1.3.13,0,.26-.02.4-.05,1.43-.35,4.4-1.06,4.4-3.24,0-3.81-1.3-8.46-2.59-11.09ZM45.25,40.16c-1.15-.29-2.32-.59-3.49-.91-.06-.76,0-2.01.12-2.61,2.76-2.54,3.32-3.6,4.94-8.2,2.54-1.84,2.95-5.11,3.01-6.12.22-3.33-.93-4.82-1.93-5.47-.23-.15-.46-.27-.71-.35-.71-8.24-5.77-13.21-13.77-13.51-.21,0-.97,0-1.15,0-8.04.24-13.12,5.25-13.83,13.51-.25.08-.49.2-.71.35-1,.65-2.14,2.13-1.93,5.47.07,1.01.48,4.29,3.02,6.12,1.62,4.6,2.18,5.66,4.94,8.2.05.29.12.83.14,1.54.01.46,0,.82-.03,1.08-1.16.32-2.34.62-3.48.91-7.25,1.86-14.1,3.61-16.71,8.91-.58,1.18-1.55,4.07-1.95,5.36-.27.89.23,1.83,1.12,2.11.89.28,1.84-.23,2.11-1.12.43-1.4,1.33-3.99,1.75-4.86,1.92-3.91,8.03-5.47,14.51-7.12,1.43-.37,2.92-.74,4.38-1.16.11-.03.22-.07.32-.12,1.01-.52,1.41-1.74,1.35-4.07-.08-2.86-.66-3.44-1-3.72-2.53-2.31-2.75-2.68-4.46-7.59-.14-.39-.41-.71-.77-.91-1.25-.7-1.79-2.47-1.87-3.77-.1-1.48.19-2.15.34-2.35.46.15.97.1,1.4-.15.5-.3.81-.84.83-1.42.17-10,6.73-11.69,10.63-11.8.16,0,.78,0,.95,0,3.88.12,10.42,1.82,10.59,11.8,0,.58.32,1.12.82,1.42.43.25.94.31,1.4.15.15.2.44.87.35,2.36-.08,1.29-.62,3.06-1.88,3.77-.36.2-.63.53-.76.91-1.73,4.94-1.93,5.29-4.49,7.62h0c-1.3,1.2-.91,5.3-.91,5.34.06.51.2,1.86,1.29,2.42.1.05.21.09.32.12,1.46.42,2.95.79,4.38,1.16,6.48,1.66,12.6,3.22,14.51,7.13,1.22,2.49,2.51,7.01,2.62,10.74-2.24,1.23-13.6,2.83-28.73,2.83h0c-12.86,0-25.46-1.24-28.68-2.83-.84-.41-1.85-.07-2.26.77-.41.84-.07,1.85.77,2.26,4.23,2.08,18.38,3.17,30.17,3.17h0c7.58,0,15.27-.42,21.12-1.15,9.15-1.14,10.99-2.58,10.99-4.54,0-4.38-1.5-9.73-2.98-12.75-2.6-5.31-9.45-7.06-16.71-8.91Z"/>
        <path class="cls-6" d="M72.04,40.88c-2.29-4.67-8.25-6.19-14.55-7.81-.94-.24-1.89-.48-2.84-.74-.03-.6.01-1.47.1-1.95,2.35-2.17,2.85-3.12,4.24-7.04,2.22-1.65,2.58-4.52,2.63-5.41.19-2.99-.85-4.33-1.77-4.92-.17-.11-.34-.2-.52-.27-.67-7.14-5.09-11.48-12.08-11.71-.96-.03-1.72.7-1.75,1.63-.03.93.71,1.71,1.64,1.74,3.26.11,8.75,1.54,8.9,9.94.01.59.32,1.12.82,1.42.37.22.8.29,1.21.2.1.22.24.73.18,1.75-.07,1.05-.5,2.49-1.5,3.05-.36.2-.63.53-.77.91-1.5,4.3-1.71,4.54-3.81,6.47-1.24,1.14-.86,4.76-.86,4.79.05.47.18,1.74,1.24,2.27.1.05.21.09.32.12,1.27.35,2.54.68,3.78,1,5.53,1.41,10.75,2.75,12.35,6.02,1.02,2.09,2.11,5.84,2.24,8.99-.3.13-.84.33-1.81.57-.91.22-1.46,1.13-1.25,2.04.19.78.88,1.3,1.64,1.3.13,0,.26-.02.4-.05,1.43-.35,4.4-1.06,4.4-3.24,0-3.81-1.3-8.46-2.59-11.09ZM44.62,39.53c-1.15-.29-2.32-.59-3.49-.91-.06-.76,0-2.01.12-2.61,2.76-2.54,3.32-3.6,4.94-8.2,2.54-1.84,2.95-5.11,3.01-6.12.22-3.33-.93-4.82-1.93-5.47-.23-.15-.46-.27-.71-.35-.71-8.24-5.77-13.21-13.77-13.51-.21,0-.97,0-1.15,0-8.04.24-13.12,5.25-13.83,13.51-.25.08-.49.2-.71.35-1,.65-2.14,2.13-1.93,5.47.07,1.01.48,4.29,3.02,6.12,1.62,4.6,2.18,5.66,4.94,8.2.05.29.12.83.14,1.54.01.46,0,.82-.03,1.08-1.16.32-2.34.62-3.48.91-7.25,1.86-14.1,3.61-16.71,8.91-.58,1.18-1.55,4.07-1.95,5.36-.27.89.23,1.83,1.12,2.11.89.28,1.84-.23,2.11-1.12.43-1.4,1.33-3.99,1.75-4.86,1.92-3.91,8.03-5.47,14.51-7.12,1.43-.37,2.92-.74,4.38-1.16.11-.03.22-.07.32-.12,1.01-.52,1.41-1.74,1.35-4.07-.08-2.86-.66-3.44-1-3.72-2.53-2.31-2.75-2.68-4.46-7.59-.14-.39-.41-.71-.77-.91-1.25-.7-1.79-2.47-1.87-3.77-.1-1.48.19-2.15.34-2.35.46.15.97.1,1.4-.15.5-.3.81-.84.83-1.42.17-10,6.73-11.69,10.63-11.8.16,0,.78,0,.95,0,3.88.12,10.42,1.82,10.59,11.8,0,.58.32,1.12.82,1.42.43.25.94.31,1.4.15.15.2.44.87.35,2.36-.08,1.29-.62,3.06-1.88,3.77-.36.2-.63.53-.76.91-1.73,4.94-1.93,5.29-4.49,7.62h0c-1.3,1.2-.91,5.3-.91,5.34.06.51.2,1.86,1.29,2.42.1.05.21.09.32.12,1.46.42,2.95.79,4.38,1.16,6.48,1.66,12.6,3.22,14.51,7.13,1.22,2.49,2.51,7.01,2.62,10.74-2.24,1.23-13.6,2.83-28.73,2.83h0c-12.86,0-25.46-1.24-28.68-2.83-.84-.41-1.85-.07-2.26.77-.41.84-.07,1.85.77,2.26,4.23,2.08,18.38,3.17,30.17,3.17h0c7.58,0,15.27-.42,21.12-1.15,9.15-1.14,10.99-2.58,10.99-4.54,0-4.38-1.5-9.73-2.98-12.75-2.6-5.31-9.45-7.06-16.71-8.91Z"/>
        <path class="cls-5" d="M71.41,40.25c-2.29-4.67-8.25-6.19-14.55-7.81-.94-.24-1.89-.48-2.84-.74-.03-.6.01-1.47.1-1.95,2.35-2.17,2.85-3.12,4.24-7.04,2.22-1.65,2.58-4.52,2.63-5.41.19-2.99-.86-4.32-1.77-4.92-.17-.11-.34-.2-.52-.27-.67-7.14-5.09-11.48-12.08-11.71-.96-.03-1.71.7-1.75,1.63-.03.93.71,1.71,1.64,1.74,3.26.11,8.75,1.54,8.9,9.94.01.59.32,1.12.82,1.42.37.22.8.29,1.21.2.1.22.24.73.18,1.75-.07,1.05-.5,2.49-1.5,3.05-.36.2-.63.53-.77.91-1.5,4.3-1.7,4.55-3.81,6.47-1.24,1.15-.86,4.76-.86,4.79.05.47.19,1.73,1.24,2.27.1.05.21.09.32.12,1.27.36,2.54.68,3.78,1,5.53,1.41,10.75,2.75,12.35,6.02,1.02,2.09,2.11,5.84,2.24,8.99-.3.13-.84.33-1.81.57-.91.22-1.46,1.13-1.25,2.04.19.78.88,1.3,1.64,1.3.13,0,.26-.02.4-.05,1.43-.34,4.4-1.06,4.4-3.24,0-3.81-1.3-8.46-2.59-11.09ZM44,38.91c-1.15-.29-2.32-.59-3.49-.91-.06-.76,0-2.01.12-2.61,2.76-2.54,3.32-3.6,4.94-8.2,2.54-1.84,2.95-5.11,3.01-6.12.22-3.33-.93-4.81-1.93-5.47-.23-.15-.46-.27-.71-.35-.71-8.24-5.76-13.25-13.77-13.51-.21,0-.97,0-1.15,0-8.04.24-13.12,5.25-13.83,13.51-.25.08-.49.2-.71.35-1,.65-2.14,2.13-1.93,5.47.07,1.01.48,4.29,3.02,6.12,1.62,4.6,2.18,5.66,4.94,8.2.05.29.12.83.14,1.54.01.46,0,.82-.03,1.08-1.16.32-2.34.62-3.48.91-7.25,1.86-14.1,3.61-16.71,8.91-.58,1.18-1.55,4.07-1.95,5.36-.27.89.23,1.83,1.12,2.11.89.28,1.84-.23,2.11-1.12.43-1.4,1.33-3.99,1.75-4.86,1.92-3.91,8.03-5.47,14.51-7.12,1.43-.37,2.91-.75,4.38-1.16.11-.03.22-.07.32-.12,1.01-.52,1.41-1.74,1.35-4.07-.08-2.86-.66-3.44-1-3.72-2.53-2.31-2.75-2.68-4.46-7.59-.14-.39-.41-.71-.77-.91-1.25-.71-1.79-2.47-1.87-3.77-.1-1.48.19-2.15.34-2.35.46.15.97.1,1.4-.15.5-.3.81-.84.83-1.42.17-10,6.73-11.69,10.63-11.8.16,0,.78,0,.95,0,3.88.12,10.42,1.82,10.59,11.8,0,.58.32,1.12.82,1.42.43.25.94.31,1.4.15.15.2.44.87.35,2.36-.08,1.29-.62,3.06-1.88,3.77-.36.2-.63.53-.76.91-1.73,4.94-1.93,5.29-4.49,7.62h0c-1.3,1.2-.92,5.3-.91,5.34.05.51.2,1.86,1.29,2.42.1.05.21.09.32.12,1.47.41,2.95.79,4.38,1.16,6.48,1.66,12.6,3.22,14.51,7.13,1.22,2.49,2.51,7.01,2.62,10.74-2.24,1.23-13.6,2.83-28.73,2.83h0c-12.86,0-25.46-1.24-28.68-2.83-.84-.41-1.85-.07-2.26.77-.41.84-.07,1.85.77,2.26,4.23,2.08,18.38,3.17,30.17,3.17h0c7.58,0,15.27-.42,21.12-1.15,9.15-1.14,10.99-2.58,10.99-4.54,0-4.38-1.5-9.73-2.98-12.75-2.6-5.31-9.45-7.06-16.71-8.91Z"/>
      </g>
      <path class="cls-2" d="M43.59,38.5c-1.15-.29-2.32-.59-3.49-.91-.06-.76,0-2.01.12-2.61,2.76-2.54,3.32-3.6,4.94-8.2,2.54-1.84,2.95-5.11,3.01-6.12.22-3.33-.93-4.81-1.93-5.47-.23-.15-.46-.27-.71-.35-.71-8.24-5.76-13.25-13.77-13.51-.21,0-.97,0-1.15,0-8.04.24-13.12,5.25-13.83,13.51-.25.08-.49.2-.71.35-1,.65-2.14,2.13-1.93,5.47.07,1.01.48,4.29,3.02,6.12,1.62,4.6,2.18,5.66,4.94,8.2.05.29.12.83.14,1.54.01.46,0,.82-.03,1.08-1.16.32-2.34.62-3.48.91-7.25,1.86-14.1,3.61-16.71,8.91-.58,1.18-1.55,4.07-1.95,5.36-.27.89.23,1.84,1.12,2.11.89.28,1.84-.23,2.11-1.12.43-1.4,1.33-3.99,1.75-4.86,1.92-3.91,8.03-5.47,14.51-7.12,1.43-.37,2.91-.75,4.38-1.16.11-.03.22-.07.32-.12,1.01-.52,1.41-1.74,1.35-4.07-.08-2.86-.66-3.44-1-3.72-2.53-2.31-2.75-2.68-4.46-7.59-.14-.39-.41-.71-.77-.91-1.25-.71-1.79-2.47-1.87-3.77-.1-1.48.19-2.15.34-2.35.46.15.97.1,1.4-.15.5-.3.81-.84.83-1.42.17-10,6.73-11.69,10.63-11.8.16,0,.78,0,.95,0,3.88.12,10.42,1.82,10.59,11.8,0,.58.32,1.12.82,1.42.43.25.94.31,1.4.15.15.2.44.87.35,2.36-.08,1.29-.62,3.06-1.88,3.77-.36.2-.63.53-.76.91-1.73,4.94-1.93,5.29-4.49,7.62h0c-1.3,1.2-.91,5.3-.91,5.34.05.51.2,1.86,1.29,2.42.1.05.21.09.32.12,1.47.41,2.95.79,4.38,1.16,6.48,1.66,12.6,3.22,14.51,7.13,1.22,2.49,2.51,7.01,2.62,10.74-2.24,1.23-13.6,2.83-28.73,2.83h0c-12.86,0-25.46-1.24-28.68-2.83-.84-.41-1.85-.07-2.26.77-.41.84-.07,1.85.77,2.26,4.23,2.08,18.38,3.17,30.17,3.17h0c7.58,0,15.27-.42,21.12-1.15,9.15-1.14,10.99-2.58,10.99-4.54,0-4.38-1.5-9.73-2.98-12.75-2.6-5.31-9.45-7.06-16.71-8.91ZM71.01,39.85c-2.29-4.67-8.25-6.19-14.55-7.81-.94-.24-1.89-.48-2.84-.74-.03-.6.01-1.47.1-1.95,2.35-2.17,2.85-3.12,4.24-7.04,2.22-1.65,2.58-4.52,2.63-5.41.19-2.99-.86-4.32-1.77-4.92-.17-.11-.34-.2-.52-.27C57.63,4.57,53.2.22,46.21,0c-.96-.03-1.71.7-1.75,1.63-.03.93.71,1.71,1.64,1.74,3.26.11,8.75,1.54,8.9,9.94.01.58.32,1.12.82,1.42.37.22.8.29,1.21.2.1.22.24.73.18,1.75-.07,1.05-.5,2.49-1.5,3.05-.36.2-.63.53-.77.91-1.5,4.3-1.7,4.55-3.81,6.47-1.24,1.15-.86,4.76-.86,4.79.05.47.19,1.73,1.24,2.27.1.05.21.09.32.12,1.27.36,2.54.68,3.78,1,5.53,1.41,10.75,2.75,12.35,6.02,1.02,2.09,2.11,5.84,2.24,8.99-.3.13-.84.33-1.81.57-.91.22-1.46,1.13-1.25,2.04.19.78.88,1.3,1.64,1.3.13,0,.26-.02.4-.05,1.43-.34,4.4-1.06,4.4-3.24,0-3.81-1.3-8.46-2.59-11.09Z"/>
    </g>
  </g>
</svg>