<?xml version="1.0" encoding="UTF-8"?>
<svg id="Layer_2" data-name="Layer 2" xmlns="http://www.w3.org/2000/svg" xmlns:xlink="http://www.w3.org/1999/xlink" viewBox="0 0 77.34 74.65">
  <defs>
    <style>
      .cls-1 {
        opacity: .14;
      }

      .cls-2 {
        fill: url(#linear-gradient-2);
      }

      .cls-3 {
        opacity: .21;
      }

      .cls-4 {
        opacity: .42;
      }

      .cls-5 {
        opacity: .55;
      }

      .cls-6 {
        opacity: .48;
      }

      .cls-7 {
        opacity: .35;
      }

      .cls-8 {
        opacity: .08;
      }

      .cls-9 {
        opacity: .28;
      }

      .cls-10 {
        opacity: 0;
      }

      .cls-11 {
        fill: url(#linear-gradient);
      }
    </style>
    <linearGradient id="linear-gradient" x1="14" y1="10.99" x2="56.97" y2="53.96" gradientUnits="userSpaceOnUse">
      <stop offset="0" stop-color="#eb0a00"/>
      <stop offset="1" stop-color="#ff853b"/>
    </linearGradient>
    <linearGradient id="linear-gradient-2" x1="13.9" y1="11.48" x2="57.34" y2="54.91" gradientUnits="userSpaceOnUse">
      <stop offset="0" stop-color="#2c2e2c"/>
      <stop offset=".99" stop-color="#000"/>
    </linearGradient>
  </defs>
  <g id="Layer_1-2" data-name="Layer 1">
    <g>
      <path class="cls-11" d="M3.05,30.46s-1.37,6.15-1.48,9.11c2.85-2.05,14.23-6.83,22.09.57,5.58-3.99,13.89-8.2,24.59-.68,5.69-3.19,14-5.81,21.52-.34-.34-5.81-6.26-33.47-33.7-33.47C11.02,5.64,3.05,30.46,3.05,30.46Z"/>
      <g>
        <path class="cls-10" d="M66.58,20.02c-6.37-6.25-14.66-9.86-23.52-10.27v-2.66c0-.93-.76-1.69-1.69-1.69s-1.69.76-1.69,1.69v2.66c-12.15.58-23.33,7.33-29.47,17.92-1.38,2.39-2.49,4.93-3.29,7.57-.27.89.23,1.83,1.13,2.11.89.27,1.84-.24,2.11-1.13.72-2.39,1.72-4.69,2.97-6.85,5.82-10.05,16.64-16.29,28.24-16.29,16.53,0,30.42,12.61,32.36,28.71-2.73-1.41-5.74-2.15-8.88-2.15-4.01,0-7.93,1.26-11.2,3.57-3.43-2.75-7.67-4.25-12.11-4.25s-8.81,1.55-12.27,4.39c-3.3-2.4-7.29-3.71-11.4-3.71-4.31,0-8.4,1.39-11.82,4.02-.74.57-.88,1.63-.31,2.37.57.74,1.63.88,2.37.31,2.82-2.17,6.2-3.32,9.76-3.32,3.79,0,7.48,1.36,10.37,3.82.32.27.7.4,1.09.4.42,0,.84-.15,1.16-.46,2.6-2.48,5.9-3.99,9.42-4.34v24.88c0,2.18-1.77,3.95-3.95,3.95s-3.95-1.77-3.95-3.95c0-.94-.75-1.69-1.69-1.69s-1.69.75-1.69,1.69c0,4.04,3.29,7.33,7.33,7.33s7.33-3.29,7.33-7.33v-24.86c3.4.37,6.6,1.81,9.14,4.17.62.58,1.57.61,2.22.07,2.86-2.37,6.48-3.67,10.18-3.67s6.94,1.15,9.76,3.33c.51.4,1.21.46,1.79.17.58-.29.94-.89.93-1.54-.18-9.46-4.01-18.33-10.76-24.96Z"/>
        <path class="cls-8" d="M65.95,19.4c-6.37-6.25-14.66-9.86-23.52-10.27v-2.66c0-.93-.76-1.69-1.69-1.69s-1.69.76-1.69,1.69v2.66c-12.15.58-23.33,7.33-29.47,17.92-1.38,2.39-2.49,4.93-3.29,7.57-.27.89.23,1.83,1.13,2.11.89.27,1.84-.24,2.11-1.13.72-2.39,1.72-4.69,2.97-6.85,5.82-10.05,16.64-16.29,28.24-16.29,16.53,0,30.42,12.61,32.36,28.71-2.73-1.41-5.74-2.15-8.88-2.15-4.01,0-7.93,1.26-11.2,3.57-3.43-2.75-7.67-4.25-12.11-4.25s-8.81,1.55-12.27,4.39c-3.3-2.4-7.29-3.71-11.4-3.71-4.31,0-8.4,1.39-11.82,4.02-.74.57-.88,1.63-.31,2.37.57.74,1.63.88,2.37.31,2.82-2.17,6.2-3.32,9.76-3.32,3.79,0,7.48,1.35,10.37,3.82.32.27.7.4,1.09.4.42,0,.84-.16,1.16-.46,2.59-2.48,5.9-3.99,9.42-4.34v24.88c0,2.18-1.77,3.95-3.95,3.95s-3.95-1.77-3.95-3.95c0-.94-.75-1.69-1.69-1.69s-1.69.75-1.69,1.69c0,4.04,3.29,7.33,7.33,7.33s7.33-3.29,7.33-7.33v-24.86c3.4.37,6.6,1.81,9.14,4.17.62.58,1.57.61,2.22.07,2.86-2.37,6.48-3.67,10.18-3.67s6.94,1.15,9.76,3.33c.51.4,1.21.46,1.79.17.58-.29.94-.89.93-1.54-.18-9.46-4.01-18.33-10.76-24.96Z"/>
        <path class="cls-1" d="M65.33,18.77c-6.37-6.25-14.66-9.86-23.52-10.27v-2.66c0-.93-.76-1.69-1.69-1.69s-1.69.76-1.69,1.69v2.66c-12.15.58-23.33,7.33-29.47,17.92-1.38,2.39-2.49,4.93-3.29,7.57-.27.89.23,1.83,1.13,2.11.89.27,1.84-.24,2.11-1.13.72-2.39,1.72-4.69,2.97-6.85,5.82-10.05,16.64-16.29,28.24-16.29,16.53,0,30.42,12.61,32.36,28.71-2.73-1.41-5.74-2.15-8.88-2.15-4.01,0-7.93,1.26-11.2,3.57-3.43-2.75-7.67-4.25-12.11-4.25s-8.81,1.55-12.27,4.39c-3.3-2.4-7.29-3.71-11.4-3.71-4.31,0-8.4,1.39-11.82,4.02-.74.57-.88,1.63-.31,2.37.57.74,1.63.88,2.37.31,2.82-2.17,6.2-3.32,9.76-3.32,3.79,0,7.48,1.35,10.37,3.82.32.27.7.4,1.09.4.42,0,.84-.16,1.16-.46,2.59-2.48,5.9-3.99,9.42-4.34v24.88c0,2.18-1.77,3.95-3.95,3.95s-3.95-1.77-3.95-3.95c0-.94-.75-1.69-1.69-1.69s-1.69.75-1.69,1.69c0,4.04,3.29,7.33,7.33,7.33s7.33-3.29,7.33-7.33v-24.86c3.4.37,6.6,1.81,9.14,4.17.62.58,1.57.61,2.22.07,2.86-2.37,6.48-3.67,10.18-3.67s6.94,1.15,9.76,3.33c.51.4,1.21.46,1.79.17.58-.29.94-.89.93-1.54-.18-9.46-4.01-18.33-10.76-24.96Z"/>
        <path class="cls-3" d="M64.7,18.15c-6.37-6.25-14.66-9.86-23.52-10.27v-2.66c0-.93-.76-1.69-1.69-1.69s-1.69.76-1.69,1.69v2.66c-12.15.58-23.33,7.33-29.47,17.92-1.38,2.39-2.49,4.93-3.29,7.57-.27.89.23,1.83,1.13,2.11.89.27,1.84-.24,2.11-1.13.72-2.39,1.72-4.69,2.97-6.85,5.82-10.05,16.64-16.29,28.24-16.29,16.53,0,30.42,12.61,32.36,28.71-2.73-1.41-5.74-2.15-8.88-2.15-4.01,0-7.93,1.26-11.2,3.57-3.43-2.75-7.67-4.25-12.11-4.25s-8.81,1.55-12.27,4.39c-3.3-2.4-7.29-3.71-11.4-3.71-4.31,0-8.4,1.39-11.82,4.02-.74.57-.88,1.63-.31,2.37.57.74,1.63.88,2.37.31,2.82-2.17,6.2-3.32,9.76-3.32,3.79,0,7.48,1.35,10.37,3.82.32.27.7.4,1.09.4.42,0,.84-.16,1.16-.46,2.59-2.48,5.9-3.99,9.42-4.34v24.88c0,2.18-1.77,3.95-3.95,3.95s-3.95-1.77-3.95-3.95c0-.94-.75-1.69-1.69-1.69s-1.69.75-1.69,1.69c0,4.04,3.29,7.33,7.33,7.33s7.33-3.29,7.33-7.33v-24.86c3.4.37,6.6,1.81,9.14,4.17.62.58,1.57.61,2.22.07,2.86-2.37,6.48-3.67,10.18-3.67s6.94,1.15,9.76,3.33c.51.4,1.21.46,1.79.17.58-.29.94-.89.93-1.54-.18-9.46-4.01-18.33-10.76-24.96Z"/>
        <path class="cls-9" d="M64.08,17.52c-6.37-6.25-14.66-9.86-23.52-10.27v-2.66c0-.93-.76-1.69-1.69-1.69s-1.69.76-1.69,1.69v2.66c-12.15.58-23.33,7.33-29.47,17.92-1.38,2.39-2.49,4.93-3.29,7.57-.27.89.23,1.83,1.13,2.11.89.27,1.84-.24,2.11-1.13.72-2.39,1.72-4.69,2.97-6.85,5.82-10.05,16.64-16.29,28.24-16.29,16.53,0,30.42,12.61,32.36,28.71-2.73-1.41-5.74-2.15-8.88-2.15-4.01,0-7.93,1.26-11.2,3.57-3.43-2.75-7.67-4.25-12.11-4.25s-8.81,1.55-12.27,4.39c-3.3-2.4-7.29-3.71-11.4-3.71-4.31,0-8.4,1.39-11.82,4.02-.74.57-.88,1.63-.31,2.37.57.74,1.63.88,2.37.31,2.82-2.17,6.2-3.32,9.76-3.32,3.79,0,7.48,1.35,10.37,3.82.32.27.7.4,1.09.4.42,0,.84-.16,1.16-.46,2.59-2.48,5.9-3.99,9.42-4.34v24.88c0,2.18-1.77,3.95-3.95,3.95s-3.95-1.77-3.95-3.95c0-.94-.75-1.69-1.69-1.69s-1.69.75-1.69,1.69c0,4.04,3.29,7.33,7.33,7.33s7.33-3.29,7.33-7.33v-24.86c3.4.37,6.6,1.81,9.14,4.17.62.58,1.57.61,2.22.07,2.86-2.37,6.48-3.67,10.18-3.67s6.94,1.15,9.76,3.33c.51.4,1.21.46,1.79.17.58-.29.94-.89.93-1.54-.18-9.46-4.01-18.33-10.76-24.96Z"/>
        <path class="cls-7" d="M63.45,16.9c-6.37-6.25-14.66-9.86-23.52-10.27v-2.66c0-.93-.76-1.69-1.69-1.69s-1.69.76-1.69,1.69v2.66c-12.15.58-23.33,7.33-29.47,17.92-1.38,2.39-2.49,4.93-3.29,7.57-.27.89.23,1.83,1.13,2.11.89.27,1.84-.24,2.11-1.13.72-2.39,1.72-4.69,2.97-6.85,5.82-10.05,16.64-16.29,28.24-16.29,16.53,0,30.42,12.61,32.36,28.71-2.73-1.41-5.74-2.15-8.88-2.15-4.01,0-7.93,1.26-11.2,3.57-3.43-2.75-7.67-4.25-12.11-4.25s-8.81,1.55-12.27,4.39c-3.3-2.4-7.29-3.71-11.4-3.71-4.31,0-8.4,1.39-11.82,4.02-.74.57-.88,1.63-.31,2.37.57.74,1.63.88,2.37.31,2.82-2.17,6.2-3.32,9.76-3.32,3.79,0,7.48,1.35,10.37,3.82.32.27.7.4,1.09.4.42,0,.84-.16,1.16-.46,2.59-2.48,5.9-3.99,9.42-4.34v24.88c0,2.18-1.77,3.95-3.95,3.95s-3.95-1.77-3.95-3.95c0-.94-.75-1.69-1.69-1.69s-1.69.75-1.69,1.69c0,4.04,3.29,7.33,7.33,7.33s7.33-3.29,7.33-7.33v-24.86c3.4.37,6.6,1.81,9.14,4.17.62.58,1.57.61,2.22.07,2.86-2.37,6.48-3.67,10.18-3.67s6.94,1.15,9.76,3.33c.51.4,1.21.46,1.79.17.58-.29.94-.89.93-1.54-.18-9.46-4.01-18.33-10.76-24.96Z"/>
        <path class="cls-4" d="M62.83,16.27c-6.37-6.25-14.66-9.86-23.52-10.27v-2.66c0-.93-.76-1.69-1.69-1.69s-1.69.76-1.69,1.69v2.66c-12.15.58-23.33,7.33-29.47,17.92-1.38,2.39-2.49,4.93-3.29,7.57-.27.89.23,1.83,1.13,2.11.89.27,1.84-.24,2.11-1.13.72-2.39,1.72-4.69,2.97-6.85,5.82-10.05,16.64-16.29,28.24-16.29,16.53,0,30.42,12.61,32.36,28.71-2.73-1.41-5.74-2.15-8.88-2.15-4.01,0-7.93,1.26-11.2,3.57-3.43-2.75-7.67-4.25-12.11-4.25s-8.81,1.55-12.27,4.39c-3.3-2.4-7.29-3.71-11.4-3.71-4.31,0-8.4,1.39-11.82,4.02-.74.57-.88,1.63-.31,2.37.57.74,1.63.88,2.37.31,2.82-2.17,6.2-3.32,9.76-3.32,3.79,0,7.48,1.35,10.37,3.82.32.27.7.4,1.09.4.42,0,.84-.16,1.16-.46,2.59-2.48,5.9-3.99,9.42-4.34v24.88c0,2.18-1.77,3.95-3.95,3.95s-3.95-1.77-3.95-3.95c0-.94-.75-1.69-1.69-1.69s-1.69.75-1.69,1.69c0,4.04,3.29,7.33,7.33,7.33s7.33-3.29,7.33-7.33v-24.86c3.4.37,6.6,1.81,9.14,4.17.62.58,1.57.61,2.22.07,2.86-2.37,6.48-3.67,10.18-3.67s6.94,1.15,9.76,3.33c.51.4,1.21.46,1.79.17.58-.29.94-.89.93-1.54-.18-9.46-4.01-18.33-10.76-24.96Z"/>
        <path class="cls-6" d="M62.2,15.65c-6.37-6.25-14.66-9.86-23.52-10.27v-2.66c0-.93-.76-1.69-1.69-1.69s-1.69.76-1.69,1.69v2.66c-12.15.58-23.33,7.33-29.47,17.92-1.38,2.39-2.49,4.93-3.29,7.57-.27.89.23,1.83,1.13,2.11.89.27,1.84-.24,2.11-1.13.72-2.39,1.72-4.69,2.97-6.85,5.82-10.05,16.64-16.29,28.24-16.29,16.53,0,30.42,12.61,32.36,28.71-2.73-1.41-5.74-2.15-8.88-2.15-4.01,0-7.93,1.26-11.2,3.57-3.43-2.75-7.67-4.25-12.11-4.25s-8.81,1.55-12.27,4.39c-3.3-2.4-7.29-3.71-11.4-3.71-4.31,0-8.4,1.39-11.82,4.02-.74.57-.88,1.63-.31,2.37.57.74,1.63.88,2.37.31,2.82-2.17,6.2-3.32,9.76-3.32,3.79,0,7.48,1.35,10.37,3.82.32.27.7.4,1.09.4.42,0,.84-.16,1.16-.46,2.59-2.48,5.9-3.99,9.42-4.34v24.88c0,2.18-1.77,3.95-3.95,3.95s-3.95-1.77-3.95-3.95c0-.94-.75-1.69-1.69-1.69s-1.69.75-1.69,1.69c0,4.04,3.29,7.33,7.33,7.33s7.33-3.29,7.33-7.33v-24.86c3.4.37,6.6,1.81,9.14,4.17.62.58,1.57.61,2.22.07,2.86-2.37,6.48-3.67,10.18-3.67s6.94,1.15,9.76,3.33c.51.4,1.21.46,1.79.17.58-.29.94-.89.93-1.54-.18-9.46-4.01-18.33-10.76-24.96Z"/>
        <path class="cls-5" d="M61.58,15.02c-6.37-6.25-14.66-9.86-23.52-10.27v-2.66c0-.93-.76-1.69-1.69-1.69s-1.69.76-1.69,1.69v2.66c-12.15.58-23.33,7.33-29.47,17.92-1.38,2.39-2.49,4.93-3.29,7.57-.27.89.23,1.83,1.13,2.11.89.27,1.84-.24,2.11-1.13.72-2.39,1.72-4.69,2.97-6.85,5.82-10.05,16.64-16.29,28.24-16.29,16.53,0,30.42,12.61,32.36,28.71-2.73-1.41-5.74-2.15-8.88-2.15-4.01,0-7.93,1.26-11.2,3.57-3.43-2.75-7.67-4.25-12.11-4.25s-8.81,1.55-12.27,4.39c-3.3-2.4-7.29-3.71-11.4-3.71-4.31,0-8.4,1.39-11.82,4.02-.74.57-.88,1.63-.31,2.37.57.74,1.63.88,2.37.31,2.82-2.17,6.2-3.32,9.76-3.32,3.79,0,7.48,1.36,10.37,3.82.32.27.7.4,1.09.4.42,0,.84-.15,1.16-.46,2.6-2.48,5.9-3.99,9.42-4.34v24.88c0,2.18-1.77,3.95-3.95,3.95s-3.95-1.77-3.95-3.95c0-.94-.75-1.69-1.69-1.69s-1.69.75-1.69,1.69c0,4.04,3.29,7.33,7.33,7.33s7.33-3.29,7.33-7.33v-24.86c3.4.37,6.6,1.81,9.14,4.17.62.58,1.57.61,2.22.07,2.86-2.37,6.48-3.67,10.18-3.67s6.94,1.15,9.76,3.33c.51.4,1.21.46,1.79.17.58-.29.94-.89.93-1.54-.18-9.46-4.01-18.33-10.76-24.96Z"/>
      </g>
      <path class="cls-2" d="M61.17,14.62c-6.37-6.25-14.66-9.86-23.52-10.27V1.69c0-.93-.76-1.69-1.69-1.69s-1.69.76-1.69,1.69v2.66c-12.15.58-23.33,7.33-29.47,17.92-1.38,2.39-2.49,4.93-3.29,7.57-.27.89.23,1.83,1.13,2.11.89.27,1.84-.24,2.11-1.13.72-2.39,1.72-4.69,2.97-6.85C13.55,13.93,24.37,7.69,35.97,7.69c16.53,0,30.42,12.61,32.36,28.71-2.73-1.41-5.74-2.15-8.88-2.15-4.01,0-7.93,1.26-11.2,3.57-3.43-2.75-7.67-4.25-12.11-4.25s-8.81,1.55-12.27,4.39c-3.3-2.4-7.29-3.71-11.4-3.71-4.31,0-8.4,1.39-11.82,4.02-.74.57-.88,1.63-.31,2.37.57.74,1.63.88,2.37.31,2.82-2.17,6.2-3.32,9.76-3.32,3.79,0,7.48,1.36,10.37,3.82.32.27.7.4,1.09.4.42,0,.84-.15,1.16-.46,2.6-2.48,5.9-3.99,9.42-4.34v24.88c0,2.18-1.77,3.95-3.95,3.95s-3.95-1.77-3.95-3.95c0-.94-.75-1.69-1.69-1.69s-1.69.75-1.69,1.69c0,4.04,3.29,7.33,7.33,7.33s7.33-3.29,7.33-7.33v-24.86c3.4.37,6.6,1.81,9.14,4.17.62.58,1.57.61,2.22.07,2.86-2.37,6.48-3.67,10.18-3.67s6.94,1.15,9.76,3.33c.51.4,1.21.46,1.79.17.58-.29.94-.89.93-1.54-.18-9.46-4.01-18.33-10.76-24.96Z"/>
    </g>
  </g>
</svg>