<?xml version="1.0" encoding="UTF-8"?>
<svg id="Layer_2" data-name="Layer 2" xmlns="http://www.w3.org/2000/svg" xmlns:xlink="http://www.w3.org/1999/xlink" viewBox="0 0 62.58 73.51">
  <defs>
    <style>
      .cls-1 {
        opacity: .14;
      }

      .cls-2 {
        fill: url(#linear-gradient-2);
      }

      .cls-3 {
        opacity: .21;
      }

      .cls-4 {
        opacity: .42;
      }

      .cls-5 {
        opacity: .55;
      }

      .cls-6 {
        opacity: .48;
      }

      .cls-7 {
        opacity: .35;
      }

      .cls-8 {
        fill: url(#linear-gradient-3);
      }

      .cls-9 {
        opacity: .08;
      }

      .cls-10 {
        opacity: .28;
      }

      .cls-11 {
        opacity: 0;
      }

      .cls-12 {
        fill: url(#linear-gradient);
      }
    </style>
    <linearGradient id="linear-gradient" x1="1.2" y1="9.73" x2="56.16" y2="64.69" gradientUnits="userSpaceOnUse">
      <stop offset="0" stop-color="#4ba129"/>
      <stop offset="1" stop-color="#c7ff3c"/>
    </linearGradient>
    <linearGradient id="linear-gradient-2" x1="22.3" y1="-.35" x2="34.43" y2="11.78" gradientUnits="userSpaceOnUse">
      <stop offset="0" stop-color="#79949c"/>
      <stop offset="1" stop-color="#b6c7c8"/>
    </linearGradient>
    <linearGradient id="linear-gradient-3" x1="1.81" y1="11.02" x2="55.36" y2="64.57" gradientUnits="userSpaceOnUse">
      <stop offset="0" stop-color="#2c2e2c"/>
      <stop offset=".99" stop-color="#000"/>
    </linearGradient>
  </defs>
  <g id="Layer_1-2" data-name="Layer 1">
    <g>
      <path class="cls-12" d="M56.02,59.28c0,3.92-3.18,7.1-7.1,7.1H9.03c-3.92,0-7.1-3.18-7.1-7.1V15.74c0-3.92,3.18-7.1,7.1-7.1h39.89c3.92,0,7.1,3.18,7.1,7.1v43.54Z"/>
      <rect class="cls-2" x="20.26" y="2.53" width="16.34" height="6.5"/>
      <g>
        <path class="cls-11" d="M16.51,38.01h34.96c.93,0,1.69-.76,1.69-1.69s-.76-1.69-1.69-1.69H16.51c-.94,0-1.69.76-1.69,1.69s.75,1.69,1.69,1.69ZM16.51,46.79h34.96c.93,0,1.69-.76,1.69-1.69s-.76-1.69-1.69-1.69H16.51c-.94,0-1.69.76-1.69,1.69s.75,1.69,1.69,1.69ZM53.46,12.89h-8.97v-1.76c0-3.16-2.57-5.72-5.72-5.72h-9.53c-3.16,0-5.72,2.57-5.72,5.72v1.76h-8.97c-5.03,0-9.12,4.09-9.12,9.12,0,.93.76,1.69,1.69,1.69s1.69-.76,1.69-1.69c0-3.17,2.58-5.75,5.75-5.75h38.93c3.17,0,5.74,2.58,5.74,5.75v42.37c0,3.17-2.58,5.74-5.74,5.74H14.53c-3.17,0-5.75-2.58-5.75-5.74v-30.75c0-.93-.76-1.69-1.69-1.69s-1.69.76-1.69,1.69v30.75c0,5.03,4.09,9.12,9.12,9.12h38.93c5.03,0,9.12-4.09,9.12-9.12V22.02c0-5.03-4.09-9.12-9.12-9.12ZM41.11,12.89h-14.23v-1.76c0-1.3,1.05-2.35,2.35-2.35h9.53c1.29,0,2.35,1.05,2.35,2.35v1.76ZM16.51,64.36h34.96c.93,0,1.69-.76,1.69-1.69s-.76-1.69-1.69-1.69H16.51c-.94,0-1.69.76-1.69,1.69s.75,1.69,1.69,1.69ZM16.51,55.58h34.96c.93,0,1.69-.76,1.69-1.69s-.76-1.69-1.69-1.69H16.51c-.94,0-1.69.76-1.69,1.69s.75,1.69,1.69,1.69Z"/>
        <path class="cls-9" d="M15.88,37.38h34.96c.93,0,1.69-.76,1.69-1.69s-.76-1.69-1.69-1.69H15.88c-.94,0-1.69.76-1.69,1.69s.75,1.69,1.69,1.69ZM15.88,46.17h34.96c.93,0,1.69-.76,1.69-1.69s-.76-1.69-1.69-1.69H15.88c-.94,0-1.69.76-1.69,1.69s.75,1.69,1.69,1.69ZM52.83,12.27h-8.97v-1.76c0-3.16-2.57-5.72-5.72-5.72h-9.53c-3.16,0-5.72,2.57-5.72,5.72v1.76h-8.97c-5.03,0-9.12,4.09-9.12,9.12,0,.93.76,1.69,1.69,1.69s1.69-.76,1.69-1.69c0-3.17,2.58-5.75,5.75-5.75h38.93c3.17,0,5.74,2.58,5.74,5.75v42.37c0,3.17-2.58,5.74-5.74,5.74H13.9c-3.17,0-5.75-2.58-5.75-5.74v-30.75c0-.93-.76-1.69-1.69-1.69s-1.69.76-1.69,1.69v30.75c0,5.03,4.09,9.12,9.12,9.12h38.93c5.03,0,9.12-4.09,9.12-9.12V21.39c0-5.03-4.09-9.12-9.12-9.12ZM40.48,12.27h-14.23v-1.76c0-1.3,1.05-2.35,2.35-2.35h9.53c1.29,0,2.35,1.05,2.35,2.35v1.76ZM15.88,63.74h34.96c.93,0,1.69-.76,1.69-1.69s-.76-1.69-1.69-1.69H15.88c-.94,0-1.69.76-1.69,1.69s.75,1.69,1.69,1.69ZM15.88,54.95h34.96c.93,0,1.69-.76,1.69-1.69s-.76-1.69-1.69-1.69H15.88c-.94,0-1.69.76-1.69,1.69s.75,1.69,1.69,1.69Z"/>
        <path class="cls-1" d="M15.26,36.76h34.96c.93,0,1.69-.76,1.69-1.69s-.76-1.69-1.69-1.69H15.26c-.94,0-1.69.76-1.69,1.69s.75,1.69,1.69,1.69ZM15.26,45.54h34.96c.93,0,1.69-.76,1.69-1.69s-.76-1.69-1.69-1.69H15.26c-.94,0-1.69.76-1.69,1.69s.75,1.69,1.69,1.69ZM52.21,11.64h-8.97v-1.76c0-3.16-2.57-5.72-5.72-5.72h-9.53c-3.16,0-5.72,2.57-5.72,5.72v1.76h-8.97c-5.03,0-9.12,4.09-9.12,9.12,0,.93.76,1.69,1.69,1.69s1.69-.76,1.69-1.69c0-3.17,2.58-5.75,5.75-5.75h38.93c3.17,0,5.74,2.58,5.74,5.75v42.37c0,3.17-2.58,5.74-5.74,5.74H13.28c-3.17,0-5.75-2.58-5.75-5.74v-30.75c0-.93-.76-1.69-1.69-1.69s-1.69.76-1.69,1.69v30.75c0,5.03,4.09,9.12,9.12,9.12h38.93c5.03,0,9.12-4.09,9.12-9.12V20.77c0-5.03-4.09-9.12-9.12-9.12ZM39.86,11.64h-14.23v-1.76c0-1.3,1.05-2.35,2.35-2.35h9.53c1.29,0,2.35,1.05,2.35,2.35v1.76ZM15.26,63.11h34.96c.93,0,1.69-.76,1.69-1.69s-.76-1.69-1.69-1.69H15.26c-.94,0-1.69.76-1.69,1.69s.75,1.69,1.69,1.69ZM15.26,54.33h34.96c.93,0,1.69-.76,1.69-1.69s-.76-1.69-1.69-1.69H15.26c-.94,0-1.69.76-1.69,1.69s.75,1.69,1.69,1.69Z"/>
        <path class="cls-3" d="M14.63,36.13h34.96c.93,0,1.69-.76,1.69-1.69s-.76-1.69-1.69-1.69H14.63c-.94,0-1.69.76-1.69,1.69s.75,1.69,1.69,1.69ZM14.63,44.92h34.96c.93,0,1.69-.76,1.69-1.69s-.76-1.69-1.69-1.69H14.63c-.94,0-1.69.76-1.69,1.69s.75,1.69,1.69,1.69ZM51.58,11.02h-8.97v-1.76c0-3.16-2.57-5.72-5.72-5.72h-9.53c-3.16,0-5.72,2.57-5.72,5.72v1.76h-8.97c-5.03,0-9.12,4.09-9.12,9.12,0,.93.76,1.69,1.69,1.69s1.69-.76,1.69-1.69c0-3.17,2.58-5.75,5.75-5.75h38.93c3.17,0,5.74,2.58,5.74,5.75v42.37c0,3.17-2.58,5.74-5.74,5.74H12.65c-3.17,0-5.75-2.58-5.75-5.74v-30.75c0-.93-.76-1.69-1.69-1.69s-1.69.76-1.69,1.69v30.75c0,5.03,4.09,9.12,9.12,9.12h38.93c5.03,0,9.12-4.09,9.12-9.12V20.14c0-5.03-4.09-9.12-9.12-9.12ZM39.23,11.02h-14.23v-1.76c0-1.3,1.05-2.35,2.35-2.35h9.53c1.29,0,2.35,1.05,2.35,2.35v1.76ZM14.63,62.49h34.96c.93,0,1.69-.76,1.69-1.69s-.76-1.69-1.69-1.69H14.63c-.94,0-1.69.76-1.69,1.69s.75,1.69,1.69,1.69ZM14.63,53.7h34.96c.93,0,1.69-.76,1.69-1.69s-.76-1.69-1.69-1.69H14.63c-.94,0-1.69.76-1.69,1.69s.75,1.69,1.69,1.69Z"/>
        <path class="cls-10" d="M14.01,35.51h34.96c.93,0,1.69-.76,1.69-1.69s-.76-1.69-1.69-1.69H14.01c-.94,0-1.69.76-1.69,1.69s.75,1.69,1.69,1.69ZM14.01,44.29h34.96c.93,0,1.69-.76,1.69-1.69s-.76-1.69-1.69-1.69H14.01c-.94,0-1.69.76-1.69,1.69s.75,1.69,1.69,1.69ZM50.96,10.39h-8.97v-1.76c0-3.16-2.57-5.72-5.72-5.72h-9.53c-3.16,0-5.72,2.57-5.72,5.72v1.76h-8.97c-5.03,0-9.12,4.09-9.12,9.12,0,.93.76,1.69,1.69,1.69s1.69-.76,1.69-1.69c0-3.17,2.58-5.75,5.75-5.75h38.93c3.17,0,5.74,2.58,5.74,5.75v42.37c0,3.17-2.58,5.74-5.74,5.74H12.03c-3.17,0-5.75-2.58-5.75-5.74v-30.75c0-.93-.76-1.69-1.69-1.69s-1.69.76-1.69,1.69v30.75c0,5.03,4.09,9.12,9.12,9.12h38.93c5.03,0,9.12-4.09,9.12-9.12V19.52c0-5.03-4.09-9.12-9.12-9.12ZM38.61,10.39h-14.23v-1.76c0-1.3,1.05-2.35,2.35-2.35h9.53c1.29,0,2.35,1.05,2.35,2.35v1.76ZM14.01,61.86h34.96c.93,0,1.69-.76,1.69-1.69s-.76-1.69-1.69-1.69H14.01c-.94,0-1.69.76-1.69,1.69s.75,1.69,1.69,1.69ZM14.01,53.08h34.96c.93,0,1.69-.76,1.69-1.69s-.76-1.69-1.69-1.69H14.01c-.94,0-1.69.76-1.69,1.69s.75,1.69,1.69,1.69Z"/>
        <path class="cls-7" d="M13.38,34.88h34.96c.93,0,1.69-.76,1.69-1.69s-.76-1.69-1.69-1.69H13.38c-.94,0-1.69.76-1.69,1.69s.75,1.69,1.69,1.69ZM13.38,43.67h34.96c.93,0,1.69-.76,1.69-1.69s-.76-1.69-1.69-1.69H13.38c-.94,0-1.69.76-1.69,1.69s.75,1.69,1.69,1.69ZM50.33,9.77h-8.97v-1.76c0-3.16-2.57-5.72-5.72-5.72h-9.53c-3.16,0-5.72,2.57-5.72,5.72v1.76h-8.97c-5.03,0-9.12,4.09-9.12,9.12,0,.93.76,1.69,1.69,1.69s1.69-.76,1.69-1.69c0-3.17,2.58-5.75,5.75-5.75h38.93c3.17,0,5.74,2.58,5.74,5.75v42.37c0,3.17-2.58,5.74-5.74,5.74H11.4c-3.17,0-5.75-2.58-5.75-5.74v-30.75c0-.93-.76-1.69-1.69-1.69s-1.69.76-1.69,1.69v30.75c0,5.03,4.09,9.12,9.12,9.12h38.93c5.03,0,9.12-4.09,9.12-9.12V18.89c0-5.03-4.09-9.12-9.12-9.12ZM37.98,9.77h-14.23v-1.76c0-1.3,1.05-2.35,2.35-2.35h9.53c1.29,0,2.35,1.05,2.35,2.35v1.76ZM13.38,61.24h34.96c.93,0,1.69-.76,1.69-1.69s-.76-1.69-1.69-1.69H13.38c-.94,0-1.69.76-1.69,1.69s.75,1.69,1.69,1.69ZM13.38,52.45h34.96c.93,0,1.69-.76,1.69-1.69s-.76-1.69-1.69-1.69H13.38c-.94,0-1.69.76-1.69,1.69s.75,1.69,1.69,1.69Z"/>
        <path class="cls-4" d="M12.76,34.26h34.96c.93,0,1.69-.76,1.69-1.69s-.76-1.69-1.69-1.69H12.76c-.94,0-1.69.76-1.69,1.69s.75,1.69,1.69,1.69ZM12.76,43.04h34.96c.93,0,1.69-.76,1.69-1.69s-.76-1.69-1.69-1.69H12.76c-.94,0-1.69.76-1.69,1.69s.75,1.69,1.69,1.69ZM49.71,9.14h-8.97v-1.76c0-3.16-2.57-5.72-5.72-5.72h-9.53c-3.16,0-5.72,2.57-5.72,5.72v1.76h-8.97c-5.03,0-9.12,4.09-9.12,9.12,0,.93.76,1.69,1.69,1.69s1.69-.76,1.69-1.69c0-3.17,2.58-5.75,5.75-5.75h38.93c3.17,0,5.74,2.58,5.74,5.75v42.37c0,3.17-2.58,5.74-5.74,5.74H10.78c-3.17,0-5.75-2.58-5.75-5.74v-30.75c0-.93-.76-1.69-1.69-1.69s-1.69.76-1.69,1.69v30.75c0,5.03,4.09,9.12,9.12,9.12h38.93c5.03,0,9.12-4.09,9.12-9.12V18.27c0-5.03-4.09-9.12-9.12-9.12ZM37.36,9.14h-14.23v-1.76c0-1.3,1.05-2.35,2.35-2.35h9.53c1.29,0,2.35,1.05,2.35,2.35v1.76ZM12.76,60.61h34.96c.93,0,1.69-.76,1.69-1.69s-.76-1.69-1.69-1.69H12.76c-.94,0-1.69.76-1.69,1.69s.75,1.69,1.69,1.69ZM12.76,51.83h34.96c.93,0,1.69-.76,1.69-1.69s-.76-1.69-1.69-1.69H12.76c-.94,0-1.69.76-1.69,1.69s.75,1.69,1.69,1.69Z"/>
        <path class="cls-6" d="M12.13,33.63h34.96c.93,0,1.69-.76,1.69-1.69s-.76-1.69-1.69-1.69H12.13c-.94,0-1.69.76-1.69,1.69s.75,1.69,1.69,1.69ZM12.13,42.42h34.96c.93,0,1.69-.76,1.69-1.69s-.76-1.69-1.69-1.69H12.13c-.94,0-1.69.76-1.69,1.69s.75,1.69,1.69,1.69ZM49.08,8.52h-8.97v-1.76c0-3.16-2.57-5.72-5.72-5.72h-9.53c-3.16,0-5.72,2.57-5.72,5.72v1.76h-8.97c-5.03,0-9.12,4.09-9.12,9.12,0,.93.76,1.69,1.69,1.69s1.69-.76,1.69-1.69c0-3.17,2.58-5.75,5.75-5.75h38.93c3.17,0,5.74,2.58,5.74,5.75v42.37c0,3.17-2.58,5.74-5.74,5.74H10.15c-3.17,0-5.75-2.58-5.75-5.74v-30.75c0-.93-.76-1.69-1.69-1.69s-1.69.76-1.69,1.69v30.75c0,5.03,4.09,9.12,9.12,9.12h38.93c5.03,0,9.12-4.09,9.12-9.12V17.64c0-5.03-4.09-9.12-9.12-9.12ZM36.73,8.52h-14.23v-1.76c0-1.3,1.05-2.35,2.35-2.35h9.53c1.29,0,2.35,1.05,2.35,2.35v1.76ZM12.13,59.99h34.96c.93,0,1.69-.76,1.69-1.69s-.76-1.69-1.69-1.69H12.13c-.94,0-1.69.76-1.69,1.69s.75,1.69,1.69,1.69ZM12.13,51.2h34.96c.93,0,1.69-.76,1.69-1.69s-.76-1.69-1.69-1.69H12.13c-.94,0-1.69.76-1.69,1.69s.75,1.69,1.69,1.69Z"/>
        <path class="cls-5" d="M11.51,33.01h34.96c.93,0,1.69-.76,1.69-1.69s-.76-1.69-1.69-1.69H11.51c-.94,0-1.69.76-1.69,1.69s.75,1.69,1.69,1.69ZM11.51,41.79h34.96c.93,0,1.69-.76,1.69-1.69s-.76-1.69-1.69-1.69H11.51c-.94,0-1.69.76-1.69,1.69s.75,1.69,1.69,1.69ZM48.46,7.89h-8.97v-1.76c0-3.16-2.57-5.72-5.72-5.72h-9.53c-3.16,0-5.72,2.57-5.72,5.72v1.76h-8.97C4.5,7.89.41,11.99.41,17.02c0,.93.76,1.69,1.69,1.69s1.69-.76,1.69-1.69c0-3.17,2.58-5.75,5.75-5.75h38.93c3.17,0,5.74,2.58,5.74,5.75v42.37c0,3.17-2.58,5.74-5.74,5.74H9.53c-3.17,0-5.75-2.58-5.75-5.74v-30.75c0-.93-.76-1.69-1.69-1.69s-1.69.76-1.69,1.69v30.75c0,5.03,4.09,9.12,9.12,9.12h38.93c5.03,0,9.12-4.09,9.12-9.12V17.02c0-5.03-4.09-9.12-9.12-9.12ZM36.11,7.89h-14.23v-1.76c0-1.3,1.05-2.35,2.35-2.35h9.53c1.29,0,2.35,1.05,2.35,2.35v1.76ZM11.51,59.36h34.96c.93,0,1.69-.76,1.69-1.69s-.76-1.69-1.69-1.69H11.51c-.94,0-1.69.76-1.69,1.69s.75,1.69,1.69,1.69ZM11.51,50.58h34.96c.93,0,1.69-.76,1.69-1.69s-.76-1.69-1.69-1.69H11.51c-.94,0-1.69.76-1.69,1.69s.75,1.69,1.69,1.69Z"/>
      </g>
      <path class="cls-8" d="M48.05,7.49h-8.97v-1.76c0-3.16-2.57-5.72-5.72-5.72h-9.53c-3.16,0-5.72,2.57-5.72,5.72v1.76h-8.97C4.09,7.49,0,11.58,0,16.61c0,.93.76,1.69,1.69,1.69s1.69-.76,1.69-1.69c0-3.17,2.58-5.75,5.75-5.75h38.93c3.17,0,5.74,2.58,5.74,5.75v42.37c0,3.17-2.58,5.74-5.74,5.74H9.12c-3.17,0-5.75-2.58-5.75-5.74v-30.75c0-.93-.76-1.69-1.69-1.69s-1.69.76-1.69,1.69v30.75c0,5.03,4.09,9.12,9.12,9.12h38.93c5.03,0,9.12-4.09,9.12-9.12V16.61c0-5.03-4.09-9.12-9.12-9.12ZM35.7,7.49h-14.23v-1.76c0-1.29,1.05-2.35,2.35-2.35h9.53c1.29,0,2.35,1.05,2.35,2.35v1.76ZM11.1,58.96h34.96c.93,0,1.69-.76,1.69-1.69s-.76-1.69-1.69-1.69H11.1c-.94,0-1.69.76-1.69,1.69s.75,1.69,1.69,1.69ZM11.1,50.17h34.96c.93,0,1.69-.76,1.69-1.69s-.76-1.69-1.69-1.69H11.1c-.94,0-1.69.76-1.69,1.69s.75,1.69,1.69,1.69ZM11.1,41.39h34.96c.93,0,1.69-.76,1.69-1.69s-.76-1.69-1.69-1.69H11.1c-.94,0-1.69.76-1.69,1.69s.75,1.69,1.69,1.69ZM11.1,32.6h34.96c.93,0,1.69-.76,1.69-1.69s-.76-1.69-1.69-1.69H11.1c-.94,0-1.69.76-1.69,1.69s.75,1.69,1.69,1.69Z"/>
    </g>
  </g>
</svg>