<?xml version="1.0" encoding="UTF-8"?>
<svg id="Layer_2" data-name="Layer 2" xmlns="http://www.w3.org/2000/svg" xmlns:xlink="http://www.w3.org/1999/xlink" viewBox="0 0 70.96 70.95">
  <defs>
    <style>
      .cls-1 {
        opacity: .14;
      }

      .cls-2 {
        fill: url(#linear-gradient-2);
      }

      .cls-3 {
        opacity: .21;
      }

      .cls-4 {
        opacity: .42;
      }

      .cls-5 {
        opacity: .55;
      }

      .cls-6 {
        opacity: .48;
      }

      .cls-7 {
        opacity: .35;
      }

      .cls-8 {
        opacity: .08;
      }

      .cls-9 {
        opacity: .28;
      }

      .cls-10 {
        opacity: 0;
      }

      .cls-11 {
        fill: url(#linear-gradient);
      }
    </style>
    <linearGradient id="linear-gradient" x1="8.84" y1="8.95" x2="57.27" y2="57.38" gradientUnits="userSpaceOnUse">
      <stop offset=".01" stop-color="#ff870a"/>
      <stop offset="1" stop-color="#ffdb4a"/>
    </linearGradient>
    <linearGradient id="linear-gradient-2" x1="9.61" y1="9.6" x2="55.94" y2="55.94" gradientUnits="userSpaceOnUse">
      <stop offset="0" stop-color="#2c2e2c"/>
      <stop offset=".99" stop-color="#000"/>
    </linearGradient>
  </defs>
  <g id="Layer_1-2" data-name="Layer 1">
    <g>
      <path class="cls-11" d="M64.02,32.96c0,17.21-13.95,31.16-31.16,31.16S1.69,50.17,1.69,32.96,15.65,1.8,32.86,1.8s31.16,13.95,31.16,31.16Z"/>
      <g>
        <path class="cls-10" d="M60.56,57.21c-3.2-4.99-5.13-11.19-5.44-17.34h7.14c.93,0,1.69-.76,1.69-1.69s-.76-1.69-1.69-1.69h-7.14c.29-6.38,2.19-12.45,5.44-17.34,4.37,5.13,7.02,11.78,7.02,19.03s-2.65,13.9-7.02,19.03ZM18.15,16.7c5.38-5,12.52-7.92,20.03-7.92s14.74,2.99,19.99,7.87c-3.88,5.55-6.13,12.53-6.44,19.84h-11.86V14.28c0-.93-.76-1.69-1.69-1.69s-1.69.75-1.69,1.69v22.21h-11.94c-.3-7.29-2.55-14.25-6.4-19.79ZM18.15,59.66c3.86-5.54,6.1-12.5,6.4-19.8h11.94v22.21c0,.93.75,1.69,1.69,1.69s1.69-.76,1.69-1.69v-22.21h11.87c.32,7.03,2.59,14.14,6.36,19.76.02.03.05.05.07.08-5.25,4.88-12.27,7.86-19.99,7.86s-14.78-3.01-20.04-7.91ZM38.18,5.41c-11.65,0-22.53,6.27-28.38,16.37-1.06,1.84-1.95,3.78-2.64,5.79-.3.88.17,1.84,1.05,2.14.88.3,1.84-.17,2.14-1.05.62-1.79,1.41-3.54,2.37-5.19.88-1.53,1.91-2.95,3.03-4.27,3.23,4.88,5.12,10.94,5.41,17.29H7.1c-.93,0-1.69.76-1.69,1.69,0,18.07,14.7,32.77,32.78,32.77s32.77-14.7,32.77-32.77S56.25,5.41,38.18,5.41ZM21.17,39.87c-.29,6.35-2.18,12.41-5.41,17.29-4-4.72-6.55-10.72-6.93-17.29h12.33Z"/>
        <path class="cls-8" d="M59.93,56.59c-3.2-4.99-5.13-11.19-5.44-17.34h7.14c.93,0,1.69-.76,1.69-1.69s-.76-1.69-1.69-1.69h-7.14c.29-6.38,2.19-12.45,5.44-17.34,4.37,5.13,7.02,11.78,7.02,19.03s-2.65,13.9-7.02,19.03ZM17.52,16.08c5.38-5,12.52-7.92,20.03-7.92s14.74,2.99,19.99,7.87c-3.88,5.55-6.13,12.53-6.44,19.84h-11.86V13.65c0-.93-.76-1.69-1.69-1.69s-1.69.75-1.69,1.69v22.21h-11.94c-.3-7.29-2.55-14.25-6.4-19.79ZM17.52,59.04c3.86-5.54,6.1-12.5,6.4-19.8h11.94v22.21c0,.93.75,1.69,1.69,1.69s1.69-.76,1.69-1.69v-22.21h11.87c.32,7.03,2.59,14.14,6.36,19.76.02.03.05.05.07.08-5.25,4.88-12.27,7.86-19.99,7.86s-14.78-3.01-20.04-7.91ZM37.56,4.78c-11.65,0-22.53,6.27-28.38,16.37-1.06,1.84-1.95,3.78-2.64,5.79-.3.88.17,1.84,1.05,2.14.88.3,1.84-.17,2.14-1.05.62-1.79,1.41-3.54,2.37-5.19.88-1.53,1.91-2.95,3.03-4.27,3.23,4.88,5.12,10.94,5.41,17.29H6.47c-.93,0-1.69.76-1.69,1.69,0,18.07,14.7,32.77,32.78,32.77s32.77-14.7,32.77-32.77S55.63,4.78,37.56,4.78ZM20.54,39.24c-.29,6.35-2.18,12.41-5.41,17.29-4-4.72-6.55-10.72-6.93-17.29h12.33Z"/>
        <path class="cls-1" d="M59.31,55.96c-3.2-4.99-5.13-11.19-5.44-17.34h7.14c.93,0,1.69-.76,1.69-1.69s-.76-1.69-1.69-1.69h-7.14c.29-6.38,2.19-12.45,5.44-17.34,4.37,5.13,7.02,11.78,7.02,19.03s-2.65,13.9-7.02,19.03ZM16.9,15.45c5.38-5,12.52-7.92,20.03-7.92s14.74,2.99,19.99,7.87c-3.88,5.55-6.13,12.53-6.44,19.84h-11.86V13.03c0-.93-.76-1.69-1.69-1.69s-1.69.75-1.69,1.69v22.21h-11.94c-.3-7.29-2.55-14.25-6.4-19.79ZM16.9,58.41c3.86-5.54,6.1-12.5,6.4-19.8h11.94v22.21c0,.93.75,1.69,1.69,1.69s1.69-.76,1.69-1.69v-22.21h11.87c.32,7.03,2.59,14.14,6.36,19.76.02.03.05.05.07.08-5.25,4.88-12.27,7.86-19.99,7.86s-14.78-3.01-20.04-7.91ZM36.93,4.16c-11.65,0-22.53,6.27-28.38,16.37-1.06,1.84-1.95,3.78-2.64,5.79-.3.88.17,1.84,1.05,2.14.88.3,1.84-.17,2.14-1.05.62-1.79,1.41-3.54,2.37-5.19.88-1.53,1.91-2.95,3.03-4.27,3.23,4.88,5.12,10.94,5.41,17.29H5.85c-.93,0-1.69.76-1.69,1.69,0,18.07,14.7,32.77,32.78,32.77s32.77-14.7,32.77-32.77S55,4.16,36.93,4.16ZM19.92,38.62c-.29,6.35-2.18,12.41-5.41,17.29-4-4.72-6.55-10.72-6.93-17.29h12.33Z"/>
        <path class="cls-3" d="M58.68,55.34c-3.2-4.99-5.13-11.19-5.44-17.34h7.14c.93,0,1.69-.76,1.69-1.69s-.76-1.69-1.69-1.69h-7.14c.29-6.38,2.19-12.45,5.44-17.34,4.37,5.13,7.02,11.78,7.02,19.03s-2.65,13.9-7.02,19.03ZM16.27,14.83c5.38-5,12.52-7.92,20.03-7.92s14.74,2.99,19.99,7.87c-3.88,5.55-6.13,12.53-6.44,19.84h-11.86V12.4c0-.93-.76-1.69-1.69-1.69s-1.69.75-1.69,1.69v22.21h-11.94c-.3-7.29-2.55-14.25-6.4-19.79ZM16.27,57.79c3.86-5.54,6.1-12.5,6.4-19.8h11.94v22.21c0,.93.75,1.69,1.69,1.69s1.69-.76,1.69-1.69v-22.21h11.87c.32,7.03,2.59,14.14,6.36,19.76.02.03.05.05.07.08-5.25,4.88-12.27,7.86-19.99,7.86s-14.78-3.01-20.04-7.91ZM36.31,3.53c-11.65,0-22.53,6.27-28.38,16.37-1.06,1.84-1.95,3.78-2.64,5.79-.3.88.17,1.84,1.05,2.14.88.3,1.84-.17,2.14-1.05.62-1.79,1.41-3.54,2.37-5.19.88-1.53,1.91-2.95,3.03-4.27,3.23,4.88,5.12,10.94,5.41,17.29H5.22c-.93,0-1.69.76-1.69,1.69,0,18.07,14.7,32.77,32.78,32.77s32.77-14.7,32.77-32.77S54.38,3.53,36.31,3.53ZM19.29,37.99c-.29,6.35-2.18,12.41-5.41,17.29-4-4.72-6.55-10.72-6.93-17.29h12.33Z"/>
        <path class="cls-9" d="M58.06,54.71c-3.2-4.99-5.13-11.19-5.44-17.34h7.14c.93,0,1.69-.76,1.69-1.69s-.76-1.69-1.69-1.69h-7.14c.29-6.38,2.19-12.45,5.44-17.34,4.37,5.13,7.02,11.78,7.02,19.03s-2.65,13.9-7.02,19.03ZM15.65,14.2c5.38-5,12.52-7.92,20.03-7.92s14.74,2.99,19.99,7.87c-3.88,5.55-6.13,12.53-6.44,19.84h-11.86V11.78c0-.93-.76-1.69-1.69-1.69s-1.69.75-1.69,1.69v22.21h-11.94c-.3-7.29-2.55-14.25-6.4-19.79ZM15.65,57.16c3.86-5.54,6.1-12.5,6.4-19.8h11.94v22.21c0,.93.75,1.69,1.69,1.69s1.69-.76,1.69-1.69v-22.21h11.87c.32,7.03,2.59,14.14,6.36,19.76.02.03.05.05.07.08-5.25,4.88-12.27,7.86-19.99,7.86s-14.78-3.01-20.04-7.91ZM35.68,2.91c-11.65,0-22.53,6.27-28.38,16.37-1.06,1.84-1.95,3.78-2.64,5.79-.3.88.17,1.84,1.05,2.14.88.3,1.84-.17,2.14-1.05.62-1.79,1.41-3.54,2.37-5.19.88-1.53,1.91-2.95,3.03-4.27,3.23,4.88,5.12,10.94,5.41,17.29H4.6c-.93,0-1.69.76-1.69,1.69,0,18.07,14.7,32.77,32.78,32.77s32.77-14.7,32.77-32.77S53.75,2.91,35.68,2.91ZM18.67,37.37c-.29,6.35-2.18,12.41-5.41,17.29-4-4.72-6.55-10.72-6.93-17.29h12.33Z"/>
        <path class="cls-7" d="M57.43,54.09c-3.2-4.99-5.13-11.19-5.44-17.34h7.14c.93,0,1.69-.76,1.69-1.69s-.76-1.69-1.69-1.69h-7.14c.29-6.38,2.19-12.45,5.44-17.34,4.37,5.13,7.02,11.78,7.02,19.03s-2.65,13.9-7.02,19.03ZM15.02,13.58c5.38-5,12.52-7.92,20.03-7.92s14.74,2.99,19.99,7.87c-3.88,5.55-6.13,12.53-6.44,19.84h-11.86V11.15c0-.93-.76-1.69-1.69-1.69s-1.69.75-1.69,1.69v22.21h-11.94c-.3-7.29-2.55-14.25-6.4-19.79ZM15.02,56.54c3.86-5.54,6.1-12.5,6.4-19.8h11.94v22.21c0,.93.75,1.69,1.69,1.69s1.69-.76,1.69-1.69v-22.21h11.87c.32,7.03,2.59,14.14,6.36,19.76.02.03.05.05.07.08-5.25,4.88-12.27,7.86-19.99,7.86s-14.78-3.01-20.04-7.91ZM35.06,2.28c-11.65,0-22.53,6.27-28.38,16.37-1.06,1.84-1.95,3.78-2.64,5.79-.3.88.17,1.84,1.05,2.14.88.3,1.84-.17,2.14-1.05.62-1.79,1.41-3.54,2.37-5.19.88-1.53,1.91-2.95,3.03-4.27,3.23,4.88,5.12,10.94,5.41,17.29H3.97c-.93,0-1.69.76-1.69,1.69,0,18.07,14.7,32.77,32.78,32.77s32.77-14.7,32.77-32.77S53.13,2.28,35.06,2.28ZM18.04,36.74c-.29,6.35-2.18,12.41-5.41,17.29-4-4.72-6.55-10.72-6.93-17.29h12.33Z"/>
        <path class="cls-4" d="M56.81,53.46c-3.2-4.99-5.13-11.19-5.44-17.34h7.14c.93,0,1.69-.76,1.69-1.69s-.76-1.69-1.69-1.69h-7.14c.29-6.38,2.19-12.45,5.44-17.34,4.37,5.13,7.02,11.78,7.02,19.03s-2.65,13.9-7.02,19.03ZM14.4,12.95c5.38-5,12.52-7.92,20.03-7.92s14.74,2.99,19.99,7.87c-3.88,5.55-6.13,12.53-6.44,19.84h-11.86V10.53c0-.93-.76-1.69-1.69-1.69s-1.69.75-1.69,1.69v22.21h-11.94c-.3-7.29-2.55-14.25-6.4-19.79ZM14.4,55.91c3.86-5.54,6.1-12.5,6.4-19.8h11.94v22.21c0,.93.75,1.69,1.69,1.69s1.69-.76,1.69-1.69v-22.21h11.87c.32,7.03,2.59,14.14,6.36,19.76.02.03.05.05.07.08-5.25,4.88-12.27,7.86-19.99,7.86s-14.78-3.01-20.04-7.91ZM34.43,1.66C22.78,1.66,11.9,7.93,6.05,18.02c-1.06,1.84-1.95,3.78-2.64,5.79-.3.88.17,1.84,1.05,2.14.88.3,1.84-.17,2.14-1.05.62-1.79,1.41-3.54,2.37-5.19.88-1.53,1.91-2.95,3.03-4.27,3.23,4.88,5.12,10.94,5.41,17.29H3.35c-.93,0-1.69.76-1.69,1.69,0,18.07,14.7,32.77,32.78,32.77s32.77-14.7,32.77-32.77S52.5,1.66,34.43,1.66ZM17.42,36.12c-.29,6.35-2.18,12.41-5.41,17.29-4-4.72-6.55-10.72-6.93-17.29h12.33Z"/>
        <path class="cls-6" d="M56.18,52.84c-3.2-4.99-5.13-11.19-5.44-17.34h7.14c.93,0,1.69-.76,1.69-1.69s-.76-1.69-1.69-1.69h-7.14c.29-6.38,2.19-12.45,5.44-17.34,4.37,5.13,7.02,11.78,7.02,19.03s-2.65,13.9-7.02,19.03ZM13.77,12.33c5.38-5,12.52-7.92,20.03-7.92s14.74,2.99,19.99,7.87c-3.88,5.55-6.13,12.53-6.44,19.84h-11.86V9.9c0-.93-.76-1.69-1.69-1.69s-1.69.75-1.69,1.69v22.21h-11.94c-.3-7.29-2.55-14.25-6.4-19.79ZM13.77,55.29c3.86-5.54,6.1-12.5,6.4-19.8h11.94v22.21c0,.93.75,1.69,1.69,1.69s1.69-.76,1.69-1.69v-22.21h11.87c.32,7.03,2.59,14.14,6.36,19.76.02.03.05.05.07.08-5.25,4.88-12.27,7.86-19.99,7.86s-14.78-3.01-20.04-7.91ZM33.81,1.03C22.15,1.03,11.28,7.3,5.43,17.4c-1.06,1.84-1.95,3.78-2.64,5.79-.3.88.17,1.84,1.05,2.14.88.3,1.84-.17,2.14-1.05.62-1.79,1.41-3.54,2.37-5.19.88-1.53,1.91-2.95,3.03-4.27,3.23,4.88,5.12,10.94,5.41,17.29H2.72c-.93,0-1.69.76-1.69,1.69,0,18.07,14.7,32.77,32.78,32.77s32.77-14.7,32.77-32.77S51.88,1.03,33.81,1.03ZM16.79,35.49c-.29,6.35-2.18,12.41-5.41,17.29-4-4.72-6.55-10.72-6.93-17.29h12.33Z"/>
        <path class="cls-5" d="M55.56,52.21c-3.2-4.99-5.13-11.19-5.44-17.34h7.14c.93,0,1.69-.76,1.69-1.69s-.76-1.69-1.69-1.69h-7.14c.29-6.38,2.19-12.45,5.44-17.34,4.37,5.13,7.02,11.78,7.02,19.03s-2.65,13.9-7.02,19.03ZM13.15,11.7c5.38-5,12.52-7.92,20.03-7.92s14.74,2.99,19.99,7.87c-3.88,5.55-6.13,12.53-6.44,19.84h-11.86V9.28c0-.93-.76-1.69-1.69-1.69s-1.69.75-1.69,1.69v22.21h-11.94c-.3-7.29-2.55-14.25-6.4-19.79ZM13.15,54.66c3.86-5.54,6.1-12.5,6.4-19.8h11.94v22.21c0,.93.75,1.69,1.69,1.69s1.69-.76,1.69-1.69v-22.21h11.87c.32,7.03,2.59,14.14,6.36,19.76.02.03.05.05.07.08-5.25,4.88-12.27,7.86-19.99,7.86s-14.78-3.01-20.04-7.91ZM33.18.41C21.53.41,10.65,6.68,4.8,16.77c-1.06,1.84-1.95,3.78-2.64,5.79-.3.88.17,1.84,1.05,2.14.88.3,1.84-.17,2.14-1.05.62-1.79,1.41-3.54,2.37-5.19.88-1.53,1.91-2.95,3.03-4.27,3.23,4.88,5.12,10.94,5.41,17.29H2.1c-.93,0-1.69.76-1.69,1.69,0,18.07,14.7,32.77,32.78,32.77s32.77-14.7,32.77-32.77S51.25.41,33.18.41ZM16.17,34.87c-.29,6.35-2.18,12.41-5.41,17.29-4-4.72-6.55-10.72-6.93-17.29h12.33Z"/>
      </g>
      <path class="cls-2" d="M32.78,0C21.12,0,10.25,6.27,4.4,16.37c-1.06,1.84-1.95,3.78-2.64,5.79-.3.88.17,1.84,1.05,2.14.88.3,1.84-.17,2.14-1.05.62-1.79,1.41-3.54,2.37-5.19.88-1.53,1.91-2.95,3.03-4.27,3.23,4.88,5.12,10.94,5.41,17.3H1.69c-.93,0-1.69.76-1.69,1.69,0,18.07,14.7,32.77,32.78,32.77s32.77-14.7,32.77-32.77S50.85,0,32.78,0ZM12.74,11.3c5.38-5,12.52-7.92,20.03-7.92s14.74,2.99,19.99,7.87c-3.88,5.55-6.13,12.53-6.44,19.84h-11.86V8.87c0-.93-.76-1.69-1.69-1.69s-1.69.75-1.69,1.69v22.21h-11.94c-.3-7.3-2.55-14.25-6.4-19.79ZM15.76,34.46c-.29,6.35-2.18,12.41-5.41,17.29-4-4.72-6.55-10.72-6.93-17.29h12.33ZM12.74,54.26c3.86-5.54,6.1-12.5,6.4-19.79h11.94v22.21c0,.93.75,1.69,1.69,1.69s1.69-.76,1.69-1.69v-22.21h11.87c.32,7.03,2.59,14.14,6.36,19.76.02.03.05.05.07.08-5.25,4.88-12.27,7.86-19.99,7.86s-14.78-3.01-20.04-7.91ZM55.15,51.8c-3.2-4.99-5.13-11.19-5.44-17.34h7.14c.93,0,1.69-.76,1.69-1.69s-.76-1.69-1.69-1.69h-7.14c.29-6.38,2.19-12.45,5.44-17.34,4.37,5.13,7.02,11.78,7.02,19.03s-2.65,13.9-7.02,19.03Z"/>
    </g>
  </g>
</svg>