<?xml version="1.0" encoding="UTF-8"?>
<svg xmlns="http://www.w3.org/2000/svg" xmlns:xlink="http://www.w3.org/1999/xlink" viewBox="0 0 66.96 56.58">
  <defs>
    <style>
      .cls-1 {
        fill: #fff;
        mix-blend-mode: soft-light;
        opacity: .8;
        stroke: #fff;
      }

      .cls-1, .cls-2 {
        stroke-miterlimit: 10;
      }

      .cls-3 {
        isolation: isolate;
      }

      .cls-2 {
        fill: url(#linear-gradient);
        stroke: #ce0543;
      }
    </style>
    <linearGradient id="linear-gradient" x1=".5" y1="28.29" x2="66.46" y2="28.29" gradientUnits="userSpaceOnUse">
      <stop offset="0" stop-color="#f2b3c3"/>
      <stop offset=".51" stop-color="#e84f7b"/>
      <stop offset=".69" stop-color="#d13769"/>
      <stop offset=".86" stop-color="#c1275d"/>
      <stop offset="1" stop-color="#bc2259"/>
    </linearGradient>
  </defs>
  <g class="cls-3">
    <g id="Layer_2" data-name="Layer 2">
      <g id="Objects">
        <g>
          <path class="cls-2" d="M47.82,9.54l-.37.4s.4.36,1,1.1c1.82,2.19,5.48,7.62,5.48,15.78,0,5.45-1.62,12.12-6.52,19.89l.46.28c4.94-7.85,6.61-14.62,6.61-20.17-.01-11.11-6.62-17.25-6.65-17.28h0ZM54.11,7.57l-.39.38s.41.42,1.01,1.22c1.82,2.43,5.48,8.44,5.48,17.5,0,6.02-1.63,13.43-6.53,22.03l.46.27c4.95-8.67,6.6-16.16,6.6-22.3,0-12.27-6.61-19.07-6.64-19.1h0ZM59.83,6.31l-.4.37s.4.43,1,1.29c1.82,2.59,5.48,8.97,5.48,18.59,0,6.41-1.63,14.26-6.53,23.4l.47.26c4.95-9.21,6.6-17.16,6.6-23.66,0-13.01-6.61-20.22-6.63-20.25h0ZM42.31.67c-1.08-.34-2.29-.14-3.09.43l-17.92,12.73H2.7c-1.22,0-2.2.68-2.2,1.52v25.9c0,.83.98,1.52,2.2,1.52h18.6l17.92,12.73c.8.57,2.01.76,3.09.43,1.08-.34,1.72-1.12,1.72-1.93V2.6c0-.83-.65-1.59-1.72-1.93h0ZM42.31.67c-1.08-.34-2.29-.14-3.09.43l-17.92,12.73H2.7c-1.22,0-2.2.68-2.2,1.52v25.9c0,.83.98,1.52,2.2,1.52h18.6l17.92,12.73c.8.57,2.01.76,3.09.43,1.08-.34,1.72-1.12,1.72-1.93V2.6c0-.83-.65-1.59-1.72-1.93h0ZM42.31.67c-1.08-.34-2.29-.14-3.09.43l-17.92,12.73H2.7c-1.22,0-2.2.68-2.2,1.52v25.9c0,.83.98,1.52,2.2,1.52h18.6l17.92,12.73c.8.57,2.01.76,3.09.43,1.08-.34,1.72-1.12,1.72-1.93V2.6c0-.83-.65-1.59-1.72-1.93h0Z"/>
          <path class="cls-1" d="M53.53.67c-1.08-.34-2.29-.14-3.09.43l-17.92,12.73H13.92c-1.22,0-2.2.68-2.2,1.52v25.9c0,.83.98,1.52,2.2,1.52L55.25,2.6c0-.83-.65-1.59-1.72-1.93h0Z"/>
        </g>
      </g>
    </g>
  </g>
</svg>