<?xml version="1.0" encoding="UTF-8"?>
<svg id="Layer_2" data-name="Layer 2" xmlns="http://www.w3.org/2000/svg" xmlns:xlink="http://www.w3.org/1999/xlink" viewBox="0 0 69.82 76.15">
  <defs>
    <style>
      .cls-1 {
        opacity: .14;
      }

      .cls-2 {
        fill: url(#linear-gradient-2);
      }

      .cls-3 {
        opacity: .21;
      }

      .cls-4 {
        opacity: .42;
      }

      .cls-5 {
        opacity: .55;
      }

      .cls-6 {
        opacity: .48;
      }

      .cls-7 {
        opacity: .35;
      }

      .cls-8 {
        opacity: .08;
      }

      .cls-9 {
        opacity: .28;
      }

      .cls-10 {
        opacity: 0;
      }

      .cls-11 {
        fill: url(#linear-gradient);
      }
    </style>
    <linearGradient id="linear-gradient" x1="2.52" y1="15.84" x2="60.48" y2="73.79" gradientUnits="userSpaceOnUse">
      <stop offset="0" stop-color="#4ba129"/>
      <stop offset="1" stop-color="#c7ff3c"/>
    </linearGradient>
    <linearGradient id="linear-gradient-2" x1="3.45" y1="16.5" x2="60.57" y2="73.61" gradientUnits="userSpaceOnUse">
      <stop offset="0" stop-color="#2c2e2c"/>
      <stop offset=".99" stop-color="#000"/>
    </linearGradient>
  </defs>
  <g id="Layer_1-2" data-name="Layer 1">
    <g>
      <polygon class="cls-11" points="3.94 18.42 1.61 68.84 62.67 68.84 59.32 18.71 3.94 18.42"/>
      <g>
        <path class="cls-10" d="M24.49,22.16v-.29c0-7.21,5.87-13.09,13.08-13.09s13.08,5.87,13.08,13.09v.29h-26.16ZM66.82,23.75c-.05-.89-.79-1.59-1.69-1.59h-11.1v-.29c0-9.08-7.38-16.46-16.46-16.46s-16.46,7.38-16.46,16.46v.29h-11.81c-.93,0-1.69.76-1.69,1.69s.76,1.69,1.69,1.69h11.81v4.42h-.94c-.93,0-1.69.75-1.69,1.69s.75,1.69,1.69,1.69h5.3c.94,0,1.69-.75,1.69-1.69s-.75-1.69-1.69-1.69h-.98v-4.42h26.16v4.42h-.93c-.93,0-1.69.75-1.69,1.69s.76,1.69,1.69,1.69h5.3c.93,0,1.69-.75,1.69-1.69s-.76-1.69-1.69-1.69h-.99v-4.42h9.51l2.8,47.23H8.86l1.75-40.13c.04-.93-.68-1.72-1.62-1.76-.93-.03-1.72.68-1.76,1.62l-1.83,41.9c-.02.46.15.91.47,1.24.32.33.76.52,1.22.52h61.04c.46,0,.91-.19,1.23-.53.32-.34.48-.79.46-1.26l-3-50.61Z"/>
        <path class="cls-8" d="M23.87,21.54v-.29c0-7.21,5.87-13.09,13.08-13.09s13.08,5.87,13.08,13.09v.29h-26.16ZM66.2,23.13c-.05-.89-.79-1.59-1.69-1.59h-11.1v-.29c0-9.08-7.38-16.46-16.46-16.46s-16.46,7.38-16.46,16.46v.29h-11.81c-.93,0-1.69.76-1.69,1.69s.76,1.69,1.69,1.69h11.81v4.42h-.94c-.93,0-1.69.75-1.69,1.69s.75,1.69,1.69,1.69h5.3c.94,0,1.69-.75,1.69-1.69s-.75-1.69-1.69-1.69h-.98v-4.42h26.16v4.42h-.93c-.93,0-1.69.75-1.69,1.69s.76,1.69,1.69,1.69h5.3c.93,0,1.69-.75,1.69-1.69s-.76-1.69-1.69-1.69h-.99v-4.42h9.51l2.8,47.23H8.23l1.75-40.13c.04-.93-.68-1.73-1.62-1.76-.93-.03-1.72.68-1.76,1.62l-1.83,41.9c-.02.46.15.91.47,1.24.32.33.76.52,1.22.52h61.04c.46,0,.91-.19,1.23-.53.32-.34.48-.79.46-1.26l-3-50.61Z"/>
        <path class="cls-1" d="M23.24,20.91v-.29c0-7.21,5.87-13.09,13.08-13.09s13.08,5.87,13.08,13.09v.29h-26.16ZM65.57,22.5c-.05-.89-.79-1.59-1.69-1.59h-11.1v-.29c0-9.08-7.38-16.46-16.46-16.46s-16.46,7.38-16.46,16.46v.29h-11.81c-.93,0-1.69.76-1.69,1.69s.76,1.69,1.69,1.69h11.81v4.42h-.94c-.93,0-1.69.75-1.69,1.69s.75,1.69,1.69,1.69h5.3c.94,0,1.69-.75,1.69-1.69s-.75-1.69-1.69-1.69h-.98v-4.42h26.16v4.42h-.93c-.93,0-1.69.75-1.69,1.69s.76,1.69,1.69,1.69h5.3c.93,0,1.69-.75,1.69-1.69s-.76-1.69-1.69-1.69h-.99v-4.42h9.51l2.8,47.23H7.61l1.75-40.13c.04-.93-.68-1.73-1.62-1.76-.93-.03-1.72.68-1.76,1.62l-1.83,41.9c-.02.46.15.91.47,1.24.32.33.76.52,1.22.52h61.04c.46,0,.91-.19,1.23-.53.32-.34.48-.79.46-1.26l-3-50.61Z"/>
        <path class="cls-3" d="M22.62,20.29v-.29c0-7.21,5.87-13.09,13.08-13.09s13.08,5.87,13.08,13.09v.29h-26.16ZM64.95,21.88c-.05-.89-.79-1.59-1.69-1.59h-11.1v-.29c0-9.08-7.38-16.46-16.46-16.46s-16.46,7.38-16.46,16.46v.29H7.43c-.93,0-1.69.76-1.69,1.69s.76,1.69,1.69,1.69h11.81v4.42h-.94c-.93,0-1.69.75-1.69,1.69s.75,1.69,1.69,1.69h5.3c.94,0,1.69-.75,1.69-1.69s-.75-1.69-1.69-1.69h-.98v-4.42h26.16v4.42h-.93c-.93,0-1.69.75-1.69,1.69s.76,1.69,1.69,1.69h5.3c.93,0,1.69-.75,1.69-1.69s-.76-1.69-1.69-1.69h-.99v-4.42h9.51l2.8,47.23H6.98l1.75-40.13c.04-.93-.68-1.73-1.62-1.76-.93-.03-1.72.68-1.76,1.62l-1.83,41.9c-.02.46.15.91.47,1.24.32.33.76.52,1.22.52h61.04c.46,0,.91-.19,1.23-.53.32-.34.48-.79.46-1.26l-3-50.61Z"/>
        <path class="cls-9" d="M21.99,19.66v-.29c0-7.21,5.87-13.09,13.08-13.09s13.08,5.87,13.08,13.09v.29h-26.16ZM64.32,21.25c-.05-.89-.79-1.59-1.69-1.59h-11.1v-.29c0-9.08-7.38-16.46-16.46-16.46s-16.46,7.38-16.46,16.46v.29H6.8c-.93,0-1.69.76-1.69,1.69s.76,1.69,1.69,1.69h11.81v4.42h-.94c-.93,0-1.69.75-1.69,1.69s.75,1.69,1.69,1.69h5.3c.94,0,1.69-.75,1.69-1.69s-.75-1.69-1.69-1.69h-.98v-4.42h26.16v4.42h-.93c-.93,0-1.69.75-1.69,1.69s.76,1.69,1.69,1.69h5.3c.93,0,1.69-.75,1.69-1.69s-.76-1.69-1.69-1.69h-.99v-4.42h9.51l2.8,47.23H6.36l1.75-40.13c.04-.93-.68-1.73-1.62-1.76-.93-.03-1.72.68-1.76,1.62l-1.83,41.9c-.02.46.15.91.47,1.24.32.33.76.52,1.22.52h61.04c.46,0,.91-.19,1.23-.53.32-.34.48-.79.46-1.26l-3-50.61Z"/>
        <path class="cls-7" d="M21.37,19.04v-.29c0-7.21,5.87-13.09,13.08-13.09s13.08,5.87,13.08,13.09v.29h-26.16ZM63.7,20.63c-.05-.89-.79-1.59-1.69-1.59h-11.1v-.29c0-9.08-7.38-16.46-16.46-16.46s-16.46,7.38-16.46,16.46v.29H6.18c-.93,0-1.69.76-1.69,1.69s.76,1.69,1.69,1.69h11.81v4.42h-.94c-.93,0-1.69.75-1.69,1.69s.75,1.69,1.69,1.69h5.3c.94,0,1.69-.75,1.69-1.69s-.75-1.69-1.69-1.69h-.98v-4.42h26.16v4.42h-.93c-.93,0-1.69.75-1.69,1.69s.76,1.69,1.69,1.69h5.3c.93,0,1.69-.75,1.69-1.69s-.76-1.69-1.69-1.69h-.99v-4.42h9.51l2.8,47.23H5.73l1.75-40.13c.04-.93-.68-1.73-1.62-1.76-.93-.03-1.72.68-1.76,1.62l-1.83,41.9c-.02.46.15.91.47,1.24.32.33.76.52,1.22.52h61.04c.46,0,.91-.19,1.23-.53.32-.34.48-.79.46-1.26l-3-50.61Z"/>
        <path class="cls-4" d="M20.74,18.41v-.29c0-7.21,5.87-13.09,13.08-13.09s13.08,5.87,13.08,13.09v.29h-26.16ZM63.07,20c-.05-.89-.79-1.59-1.69-1.59h-11.1v-.29c0-9.08-7.38-16.46-16.46-16.46s-16.46,7.38-16.46,16.46v.29H5.55c-.93,0-1.69.76-1.69,1.69s.76,1.69,1.69,1.69h11.81v4.42h-.94c-.93,0-1.69.75-1.69,1.69s.75,1.69,1.69,1.69h5.3c.94,0,1.69-.75,1.69-1.69s-.75-1.69-1.69-1.69h-.98v-4.42h26.16v4.42h-.93c-.93,0-1.69.75-1.69,1.69s.76,1.69,1.69,1.69h5.3c.93,0,1.69-.75,1.69-1.69s-.76-1.69-1.69-1.69h-.99v-4.42h9.51l2.8,47.23H5.11l1.75-40.13c.04-.93-.68-1.73-1.62-1.76-.93-.03-1.72.68-1.76,1.62l-1.83,41.9c-.02.46.15.91.47,1.24.32.33.76.52,1.22.52h61.04c.46,0,.91-.19,1.23-.53.32-.34.48-.79.46-1.26l-3-50.61Z"/>
        <path class="cls-6" d="M20.12,17.79v-.29c0-7.21,5.87-13.09,13.08-13.09s13.08,5.87,13.08,13.09v.29h-26.16ZM62.45,19.38c-.05-.89-.79-1.59-1.69-1.59h-11.1v-.29c0-9.08-7.38-16.46-16.46-16.46s-16.46,7.38-16.46,16.46v.29H4.93c-.93,0-1.69.76-1.69,1.69s.76,1.69,1.69,1.69h11.81v4.42h-.94c-.93,0-1.69.75-1.69,1.69s.75,1.69,1.69,1.69h5.3c.94,0,1.69-.75,1.69-1.69s-.75-1.69-1.69-1.69h-.98v-4.42h26.16v4.42h-.93c-.93,0-1.69.75-1.69,1.69s.76,1.69,1.69,1.69h5.3c.93,0,1.69-.75,1.69-1.69s-.76-1.69-1.69-1.69h-.99v-4.42h9.51l2.8,47.23H4.48l1.75-40.13c.04-.93-.68-1.73-1.62-1.76-.93-.03-1.72.68-1.76,1.62l-1.83,41.9c-.02.46.15.91.47,1.24.32.33.76.52,1.22.52h61.04c.46,0,.91-.19,1.23-.53.32-.34.48-.79.46-1.26l-3-50.61Z"/>
        <path class="cls-5" d="M19.49,17.16v-.29c0-7.21,5.87-13.09,13.08-13.09s13.08,5.87,13.08,13.09v.29h-26.16ZM61.82,18.75c-.05-.89-.79-1.59-1.69-1.59h-11.1v-.29C49.04,7.79,41.65.41,32.57.41s-16.46,7.38-16.46,16.46v.29H4.3c-.93,0-1.69.76-1.69,1.69s.76,1.69,1.69,1.69h11.81v4.42h-.94c-.93,0-1.69.75-1.69,1.69s.75,1.69,1.69,1.69h5.3c.94,0,1.69-.75,1.69-1.69s-.75-1.69-1.69-1.69h-.98v-4.42h26.16v4.42h-.93c-.93,0-1.69.75-1.69,1.69s.76,1.69,1.69,1.69h5.3c.93,0,1.69-.75,1.69-1.69s-.76-1.69-1.69-1.69h-.99v-4.42h9.51l2.8,47.23H3.86l1.75-40.13c.04-.93-.68-1.72-1.62-1.76-.93-.03-1.72.68-1.76,1.62L.41,69.39c-.02.46.15.91.47,1.24.32.33.76.52,1.22.52h61.04c.46,0,.91-.19,1.23-.53.32-.34.48-.79.46-1.26l-3-50.61Z"/>
      </g>
      <path class="cls-2" d="M61.42,18.35c-.05-.89-.79-1.59-1.69-1.59h-11.1v-.29C48.63,7.38,41.24,0,32.17,0S15.71,7.38,15.71,16.46v.29H3.9c-.93,0-1.69.76-1.69,1.69s.76,1.69,1.69,1.69h11.81v4.42h-.94c-.93,0-1.69.75-1.69,1.69s.75,1.69,1.69,1.69h5.3c.94,0,1.69-.75,1.69-1.69s-.75-1.69-1.69-1.69h-.98v-4.42h26.16v4.42h-.93c-.93,0-1.69.75-1.69,1.69s.76,1.69,1.69,1.69h5.3c.93,0,1.69-.75,1.69-1.69s-.76-1.69-1.69-1.69h-.99v-4.42h9.51l2.8,47.23H3.45l1.75-40.13c.04-.93-.68-1.72-1.62-1.76-.93-.03-1.72.68-1.76,1.62L0,68.98c-.02.46.15.91.47,1.24.32.33.76.52,1.22.52h61.04c.46,0,.91-.19,1.23-.53.32-.34.48-.79.46-1.26l-3-50.61ZM19.08,16.76v-.29c0-7.21,5.87-13.09,13.08-13.09s13.08,5.87,13.08,13.09v.29h-26.16Z"/>
    </g>
  </g>
</svg>