<?xml version="1.0" encoding="UTF-8"?>
<svg id="Layer_2" data-name="Layer 2" xmlns="http://www.w3.org/2000/svg" xmlns:xlink="http://www.w3.org/1999/xlink" viewBox="0 0 73.72 66.96">
  <defs>
    <style>
      .cls-1 {
        opacity: .14;
      }

      .cls-2 {
        fill: url(#linear-gradient-2);
      }

      .cls-3 {
        opacity: .21;
      }

      .cls-4 {
        opacity: .42;
      }

      .cls-5 {
        opacity: .55;
      }

      .cls-6 {
        opacity: .48;
      }

      .cls-7 {
        opacity: .35;
      }

      .cls-8 {
        opacity: .08;
      }

      .cls-9 {
        opacity: .28;
      }

      .cls-10 {
        opacity: 0;
      }

      .cls-11 {
        fill: url(#linear-gradient);
      }
    </style>
    <linearGradient id="linear-gradient" x1="21.32" y1="4.37" x2="68.23" y2="51.28" gradientUnits="userSpaceOnUse">
      <stop offset="0" stop-color="#c0c1c0"/>
      <stop offset=".2" stop-color="#d4d4d4"/>
      <stop offset=".49" stop-color="#ebeceb"/>
      <stop offset=".77" stop-color="#fafafa"/>
      <stop offset="1" stop-color="#fff"/>
    </linearGradient>
    <linearGradient id="linear-gradient-2" x1="20.56" y1="3.66" x2="68.35" y2="51.45" gradientUnits="userSpaceOnUse">
      <stop offset="0" stop-color="#2c2e2c"/>
      <stop offset=".99" stop-color="#000"/>
    </linearGradient>
  </defs>
  <g id="Layer_1-2" data-name="Layer 1">
    <g>
      <path class="cls-11" d="M66.19,1.78C62.75,3.2,2.43,25.13,2.43,25.13l26.55,13.87v20.5l11.14-14.58,20.98,11.14L66.19,1.78Z"/>
      <g>
        <path class="cls-10" d="M65.03,59.07l-27.57-14.89L69.87,11.66l-4.83,47.41ZM72.75,5.57c-.31-.15-.65-.19-.98-.14-.03,0-.07.01-.11.02-.06.01-.13.03-.19.05,0,0-.01,0-.02,0L6.53,28.74c-.63.22-1.07.81-1.12,1.47-.04.67.31,1.3.91,1.62l19.67,10.24c.25.13.51.19.78.19.61,0,1.2-.33,1.5-.91.43-.82.11-1.85-.72-2.28l-16.24-8.45,54.24-19.41-32.61,32.72c-.32.32-.49.75-.49,1.2v20.14c0,.72.46,1.37,1.15,1.6.18.06.36.09.54.09.51,0,1.01-.23,1.34-.66l6.87-8.93c.57-.74.43-1.8-.31-2.37-.74-.57-1.8-.43-2.37.31l-3.85,5v-13.18l29.83,16.12c.5.27,1.09.27,1.59,0,.5-.26.83-.76.89-1.32l5.57-54.66c.07-.71-.31-1.39-.96-1.7Z"/>
        <path class="cls-8" d="M64.41,58.44l-27.57-14.89L69.24,11.03l-4.83,47.41ZM72.13,4.94c-.31-.15-.65-.19-.98-.14-.03,0-.07.01-.11.02-.06.01-.13.03-.19.05,0,0-.01,0-.02,0L5.9,28.11c-.63.22-1.07.81-1.12,1.47-.05.67.31,1.3.91,1.62l19.67,10.24c.25.13.51.19.78.19.61,0,1.2-.33,1.5-.91.43-.82.11-1.85-.72-2.28l-16.24-8.45,54.24-19.41-32.61,32.72c-.32.32-.49.75-.49,1.2v20.14c0,.72.46,1.37,1.15,1.6.18.06.36.09.54.09.51,0,1.01-.23,1.34-.66l6.87-8.93c.57-.74.43-1.8-.31-2.37-.74-.57-1.8-.43-2.37.31l-3.85,5v-13.18l29.83,16.12c.5.27,1.09.27,1.59,0,.5-.26.83-.76.89-1.32l5.57-54.66c.07-.71-.31-1.39-.96-1.7Z"/>
        <path class="cls-1" d="M63.78,57.82l-27.57-14.89L68.62,10.41l-4.83,47.41ZM71.5,4.32c-.31-.15-.65-.19-.98-.14-.03,0-.07.01-.11.02-.06.01-.13.03-.19.05,0,0-.01,0-.02,0L5.28,27.49c-.63.22-1.07.81-1.12,1.47-.05.67.31,1.3.91,1.62l19.67,10.24c.25.13.51.19.78.19.61,0,1.2-.33,1.5-.91.43-.82.11-1.85-.72-2.28l-16.24-8.45,54.24-19.41L31.69,42.68c-.32.32-.49.75-.49,1.2v20.14c0,.72.46,1.37,1.15,1.6.18.06.36.09.54.09.51,0,1.01-.23,1.34-.66l6.87-8.93c.57-.74.43-1.8-.31-2.37-.74-.57-1.8-.43-2.37.31l-3.85,5v-13.18l29.83,16.12c.5.27,1.09.27,1.59,0,.5-.26.83-.76.89-1.32l5.57-54.66c.07-.71-.31-1.39-.96-1.7Z"/>
        <path class="cls-3" d="M63.16,57.19l-27.57-14.89L67.99,9.78l-4.83,47.41ZM70.88,3.69c-.31-.15-.65-.19-.98-.14-.03,0-.07.01-.11.02-.06.01-.13.03-.19.05,0,0-.01,0-.02,0L4.65,26.86c-.63.22-1.07.81-1.12,1.47-.05.67.31,1.3.91,1.62l19.67,10.24c.25.13.51.19.78.19.61,0,1.2-.33,1.5-.91.43-.82.11-1.85-.72-2.28l-16.24-8.45L63.67,9.33,31.06,42.06c-.32.32-.49.75-.49,1.2v20.14c0,.72.46,1.37,1.15,1.6.18.06.36.09.54.09.51,0,1.01-.23,1.34-.66l6.87-8.93c.57-.74.43-1.8-.31-2.37-.74-.57-1.8-.43-2.37.31l-3.85,5v-13.18l29.83,16.12c.5.27,1.09.27,1.59,0,.5-.26.83-.76.89-1.32l5.57-54.66c.07-.71-.31-1.39-.96-1.7Z"/>
        <path class="cls-9" d="M62.53,56.57l-27.57-14.89L67.37,9.16l-4.83,47.41ZM70.25,3.07c-.31-.15-.65-.19-.98-.14-.03,0-.07.01-.11.02-.06.01-.13.03-.19.05,0,0-.01,0-.02,0L4.03,26.24c-.63.22-1.07.81-1.12,1.47-.05.67.31,1.3.91,1.62l19.67,10.24c.25.13.51.19.78.19.61,0,1.2-.33,1.5-.91.43-.82.11-1.85-.72-2.28l-16.24-8.45L63.05,8.71,30.44,41.43c-.32.32-.49.75-.49,1.2v20.14c0,.72.46,1.37,1.15,1.6.18.06.36.09.54.09.51,0,1.01-.23,1.34-.66l6.87-8.93c.57-.74.43-1.8-.31-2.37-.74-.57-1.8-.43-2.37.31l-3.85,5v-13.18l29.83,16.12c.5.27,1.09.27,1.59,0,.5-.26.83-.76.89-1.32l5.57-54.66c.07-.71-.31-1.39-.96-1.7Z"/>
        <path class="cls-7" d="M61.91,55.94l-27.57-14.89L66.74,8.53l-4.83,47.41ZM69.63,2.44c-.31-.15-.65-.19-.98-.14-.03,0-.07.01-.11.02-.06.01-.13.03-.19.05,0,0-.01,0-.02,0L3.4,25.61c-.63.22-1.07.81-1.12,1.47-.05.67.31,1.3.91,1.62l19.67,10.24c.25.13.51.19.78.19.61,0,1.2-.33,1.5-.91.43-.82.11-1.85-.72-2.28l-16.24-8.45L62.42,8.08,29.81,40.81c-.32.32-.49.75-.49,1.2v20.14c0,.72.46,1.37,1.15,1.6.18.06.36.09.54.09.51,0,1.01-.23,1.34-.66l6.87-8.93c.57-.74.43-1.8-.31-2.37-.74-.57-1.8-.43-2.37.31l-3.85,5v-13.18l29.83,16.12c.5.27,1.09.27,1.59,0,.5-.26.83-.76.89-1.32l5.57-54.66c.07-.71-.31-1.39-.96-1.7Z"/>
        <path class="cls-4" d="M61.28,55.32l-27.57-14.89L66.12,7.91l-4.83,47.41ZM69,1.82c-.31-.15-.65-.19-.98-.14-.03,0-.07.01-.11.02-.06.01-.13.03-.19.05,0,0-.01,0-.02,0L2.78,24.99c-.63.22-1.07.81-1.12,1.47-.05.67.31,1.3.91,1.62l19.67,10.24c.25.13.51.19.78.19.61,0,1.2-.33,1.5-.91.43-.82.11-1.85-.72-2.28L7.56,26.87,61.8,7.46,29.19,40.18c-.32.32-.49.75-.49,1.2v20.14c0,.72.46,1.37,1.15,1.6.18.06.36.09.54.09.51,0,1.01-.23,1.34-.66l6.87-8.93c.57-.74.43-1.8-.31-2.37-.74-.57-1.8-.43-2.37.31l-3.85,5v-13.18l29.83,16.12c.5.27,1.09.27,1.59,0,.5-.26.83-.76.89-1.32l5.57-54.66c.07-.71-.31-1.39-.96-1.7Z"/>
        <path class="cls-6" d="M60.66,54.69l-27.57-14.89L65.49,7.28l-4.83,47.41ZM68.38,1.19c-.31-.15-.65-.19-.98-.14-.03,0-.07.01-.11.02-.06.01-.13.03-.19.05,0,0-.01,0-.02,0L2.15,24.36c-.63.22-1.07.81-1.12,1.47-.05.67.31,1.3.91,1.62l19.67,10.24c.25.13.51.19.78.19.61,0,1.2-.33,1.5-.91.43-.82.11-1.85-.72-2.28L6.93,26.24,61.17,6.83,28.56,39.56c-.32.32-.49.75-.49,1.2v20.14c0,.72.46,1.37,1.15,1.6.18.06.36.09.54.09.51,0,1.01-.23,1.34-.66l6.87-8.93c.57-.74.43-1.8-.31-2.37-.74-.57-1.8-.43-2.37.31l-3.85,5v-13.18l29.83,16.12c.5.27,1.09.27,1.59,0,.5-.26.83-.76.89-1.32l5.57-54.66c.07-.71-.31-1.39-.96-1.7Z"/>
        <path class="cls-5" d="M60.03,54.07l-27.57-14.89L64.87,6.66l-4.83,47.41ZM67.75.57c-.31-.15-.65-.19-.98-.14-.03,0-.07.01-.11.02-.06.01-.13.03-.19.05,0,0-.01,0-.02,0L1.53,23.74c-.63.22-1.07.81-1.12,1.47-.04.67.31,1.3.91,1.62l19.67,10.24c.25.13.51.19.78.19.61,0,1.2-.33,1.5-.91.43-.82.11-1.85-.72-2.28L6.31,25.62,60.55,6.21,27.94,38.93c-.32.32-.49.75-.49,1.2v20.14c0,.72.46,1.37,1.15,1.6.18.06.36.09.54.09.51,0,1.01-.23,1.34-.66l6.87-8.93c.57-.74.43-1.8-.31-2.37-.74-.57-1.8-.43-2.37.31l-3.85,5v-13.18l29.83,16.12c.5.27,1.09.27,1.59,0,.5-.26.83-.76.89-1.32l5.57-54.66c.07-.71-.31-1.39-.96-1.7Z"/>
      </g>
      <path class="cls-2" d="M67.35.16c-.31-.15-.65-.19-.98-.14-.03,0-.07.01-.11.02-.06.01-.13.03-.19.05,0,0-.01,0-.02,0L1.12,23.33c-.63.23-1.07.81-1.12,1.48-.04.67.31,1.3.91,1.62l19.67,10.24c.25.13.51.19.78.19.61,0,1.2-.33,1.5-.91.43-.82.11-1.85-.72-2.28L5.9,25.21,60.14,5.8,27.53,38.53c-.32.32-.49.75-.49,1.2v20.14c0,.72.46,1.36,1.15,1.6.18.06.36.09.54.09.51,0,1.01-.24,1.34-.66l6.87-8.93c.57-.74.43-1.8-.31-2.37-.74-.57-1.8-.43-2.37.31l-3.85,5v-13.18l29.83,16.12c.5.27,1.09.27,1.59,0,.5-.26.83-.76.89-1.32L68.3,1.86c.07-.71-.31-1.39-.96-1.7ZM59.63,53.66l-27.57-14.89L64.46,6.25l-4.83,47.41Z"/>
    </g>
  </g>
</svg>