<?xml version="1.0" encoding="UTF-8"?>
<svg id="Layer_2" data-name="Layer 2" xmlns="http://www.w3.org/2000/svg" viewBox="0 0 27.36 23.56">
  <g id="_1" data-name="1">
    <path d="M.68,12.81c.76-.57,1.85-.43,2.43.33.06.08.1.16.15.23l4.26-.72c-.04-.29-.07-.59-.07-.9,0-1.23.35-2.39.93-3.38l-2.71-1.76c-.16.13-.39.18-.61.17-.51-.06-.9-.5-.86-1.02.06-.51.51-.9,1.02-.84.53.04.9.5.86,1.01,0,.06-.01.1-.02.16l2.69,1.74c.54-.73,1.22-1.34,2-1.79l-1.95-3.05c-.2.03-.42,0-.61-.11-.46-.26-.61-.84-.35-1.29.26-.46.83-.61,1.29-.34.44.26.59.83.33,1.28-.01.04-.04.08-.08.12l1.95,3.08c.66-.3,1.38-.51,2.13-.58l-.39-2.34c-.15-.04-.3-.11-.4-.25-.22-.3-.17-.73.14-.97.31-.23.73-.17.97.14.22.3.16.73-.14.97-.03.01-.06.01-.1.04l.42,2.38h.14c.87,0,1.7.17,2.45.47l1.86-3.43c-.18-.23-.29-.53-.29-.84C18.14.57,18.75-.01,19.47,0c.73.02,1.31.61,1.3,1.34-.01.73-.61,1.31-1.34,1.3-.07,0-.14-.02-.21-.02l-1.82,3.36c.91.51,1.69,1.24,2.27,2.11l2.72-2.14c-.05-.21-.04-.43.06-.63.21-.48.76-.69,1.23-.47.48.2.69.75.48,1.23-.22.47-.77.69-1.24.47-.06-.02-.1-.04-.14-.07l-2.76,2.17c.42.79.66,1.66.73,2.6h4.09c.12-.27.32-.52.59-.66.65-.35,1.45-.1,1.78.55.33.63.1,1.44-.55,1.78-.65.33-1.44.08-1.78-.55-.03-.07-.05-.14-.08-.21h-4.04c-.04.54-.12,1.06-.28,1.55l2.61,1.01c.15-.15.35-.25.57-.28.51-.06.98.31,1.04.82.06.51-.31.98-.83,1.05-.51.06-.97-.32-1.04-.83v-.15l-2.57-1c-.51,1.22-1.38,2.24-2.46,2.96l1.26,1.3c.21-.07.43-.09.64-.02.5.17.76.69.59,1.19-.15.48-.69.76-1.19.59-.48-.17-.75-.69-.59-1.19.01-.05.04-.09.06-.14l-1.34-1.4c-.65.34-1.36.58-2.1.69l.36,3.37c.21.06.38.17.52.34.32.41.25,1-.16,1.33-.4.32-1,.23-1.32-.17-.32-.41-.23-1.01.17-1.33.04-.03.08-.06.12-.07l-.36-3.4c-.11,0-.22,0-.35,0-.86,0-1.69-.16-2.44-.46l-.67,2.99c.17.12.29.3.36.52.12.5-.16,1.01-.66,1.15-.51.13-1.03-.16-1.16-.66-.13-.51.16-1.02.67-1.16.04-.01.1-.01.14-.01l.71-3.1c-.48-.26-.94-.56-1.34-.92l-.93,1.3c.08.12.14.28.11.44-.06.37-.4.65-.78.59-.39-.06-.65-.4-.59-.77.05-.39.4-.65.77-.6.04,0,.07.03.1.05l.95-1.34c-.7-.72-1.23-1.59-1.56-2.56l-4.38.73c-.08.39-.29.74-.62.98-.76.58-1.85.43-2.43-.33-.58-.76-.43-1.85.33-2.43h0Z"/>
  </g>
</svg>