<?xml version="1.0" encoding="UTF-8"?>
<svg id="Layer_2" data-name="Layer 2" xmlns="http://www.w3.org/2000/svg" xmlns:xlink="http://www.w3.org/1999/xlink" viewBox="0 0 72.21 70.1">
  <defs>
    <style>
      .cls-1 {
        opacity: .14;
      }

      .cls-2 {
        fill: url(#linear-gradient-2);
      }

      .cls-3 {
        opacity: .21;
      }

      .cls-4 {
        opacity: .42;
      }

      .cls-5 {
        opacity: .55;
      }

      .cls-6 {
        opacity: .48;
      }

      .cls-7 {
        opacity: .35;
      }

      .cls-8 {
        opacity: .08;
      }

      .cls-9 {
        opacity: .28;
      }

      .cls-10 {
        opacity: 0;
      }

      .cls-11 {
        fill: url(#linear-gradient);
      }
    </style>
    <linearGradient id="linear-gradient" x1="7.03" y1="6.68" x2="59.14" y2="58.79" gradientUnits="userSpaceOnUse">
      <stop offset="0" stop-color="#3d704a"/>
      <stop offset="1" stop-color="#6bb387"/>
    </linearGradient>
    <linearGradient id="linear-gradient-2" x1="7.52" y1="6.84" x2="59.28" y2="58.61" gradientUnits="userSpaceOnUse">
      <stop offset="0" stop-color="#2c2e2c"/>
      <stop offset=".99" stop-color="#000"/>
    </linearGradient>
  </defs>
  <g id="Layer_1-2" data-name="Layer 1">
    <g>
      <path class="cls-11" d="M40.29,14.11L51.42,1.98H15.33l10.53,11.43s-15.44,7.42-19.15,13.43-8.52,16.44-.9,27.27c7.62,10.83,21.55,9.02,27.37,9.02s20.15.3,25.96-6.92c5.81-7.22,9.32-18.95,1.7-28.37-7.62-9.42-20.55-13.73-20.55-13.73Z"/>
      <g>
        <path class="cls-10" d="M41.41,42.79h-5.2c-2.14,0-3.88-1.74-3.88-3.88s1.74-3.87,3.88-3.87h4.93c2.38,0,3.15,1.28,3.21,1.38.41.84,1.42,1.19,2.25.78.84-.41,1.19-1.42.78-2.26-.59-1.22-2.58-3.29-6.25-3.29h-.64v-1.31c0-.94-.76-1.69-1.69-1.69s-1.69.76-1.69,1.69v1.31h-.91c-4,0-7.25,3.25-7.25,7.25s3.25,7.25,7.25,7.25h5.21c2.13,0,3.87,1.74,3.87,3.87s-1.74,3.88-3.87,3.88h-5.94c-2.35,0-3.13-1.25-3.23-1.42-.42-.81-1.41-1.15-2.24-.75-.84.41-1.19,1.42-.78,2.26.59,1.22,2.58,3.29,6.25,3.29h1.65v1.14c0,.94.75,1.69,1.69,1.69s1.69-.75,1.69-1.69v-1.14h.91c4,0,7.25-3.25,7.25-7.25s-3.25-7.25-7.25-7.25ZM62.58,61.34c-5.11,5.39-13.26,5.38-22.74,5.38h-1.72c-9.71,0-18.08,0-23.25-5.55-3.98-4.28-6.09-9.39-6.09-14.77,0-7.94,4.81-15.46,12.86-20.08.92-.53,1.87-1.06,2.83-1.56,2.86-1.52,5.48-2.72,7.41-3.59l.38-.16h13.44c.12,0,.24-.01.36-.04.02.01.04.02.07.03,2.75,1.4,5.61,2.96,9.31,5.03,8.38,4.67,13.39,12.29,13.39,20.38,0,5.46-2.16,10.63-6.24,14.94ZM57.08,23.06c-3.26-1.81-5.87-3.24-8.34-4.52l9.64-10.29c.46-.49.59-1.21.32-1.83-.27-.62-.88-1.02-1.55-1.02H20.47c-.68,0-1.29.4-1.55,1.02-.27.62-.14,1.34.33,1.83l5.77,6.11c.64.68,1.71.71,2.39.06.68-.64.71-1.71.07-2.39l-3.08-3.25h28.85l-8.28,8.83h-13.05c-.23,0-.46.05-.66.13l-.73.31c-2,.9-4.68,2.14-7.63,3.7-.99.52-1.97,1.07-2.93,1.62-9.11,5.24-14.55,13.84-14.55,23.01,0,6.25,2.42,12.16,6.99,17.07,6.17,6.63,15.66,6.64,25.72,6.63h2.71c9.45,0,18.31-.2,24.21-6.44,4.69-4.95,7.17-10.92,7.17-17.27,0-9.33-5.65-18.06-15.13-23.33Z"/>
        <path class="cls-8" d="M40.79,42.17h-5.2c-2.14,0-3.88-1.74-3.88-3.88s1.74-3.87,3.88-3.87h4.93c2.38,0,3.15,1.28,3.21,1.38.41.84,1.42,1.19,2.25.78.84-.41,1.19-1.42.78-2.26-.59-1.22-2.58-3.29-6.25-3.29h-.64v-1.31c0-.94-.76-1.69-1.69-1.69s-1.69.76-1.69,1.69v1.31h-.91c-4,0-7.25,3.25-7.25,7.25s3.25,7.25,7.25,7.25h5.21c2.13,0,3.87,1.74,3.87,3.87s-1.74,3.88-3.87,3.88h-5.94c-2.35,0-3.13-1.25-3.23-1.42-.42-.81-1.41-1.15-2.24-.75-.84.41-1.19,1.42-.78,2.26.59,1.22,2.58,3.29,6.25,3.29h1.65v1.14c0,.94.75,1.69,1.69,1.69s1.69-.75,1.69-1.69v-1.14h.91c4,0,7.25-3.25,7.25-7.25s-3.25-7.25-7.25-7.25ZM61.96,60.71c-5.11,5.39-13.26,5.38-22.74,5.38h-1.72c-9.71,0-18.08,0-23.25-5.55-3.98-4.28-6.09-9.39-6.09-14.77,0-7.94,4.81-15.46,12.86-20.08.92-.53,1.87-1.06,2.83-1.56,2.86-1.52,5.48-2.72,7.41-3.59l.38-.16h13.44c.12,0,.24-.01.36-.04.02.01.04.02.07.03,2.79,1.34,5.61,2.96,9.31,5.03,8.38,4.67,13.39,12.29,13.39,20.38,0,5.46-2.16,10.63-6.24,14.94ZM56.45,22.44c-3.26-1.81-5.87-3.24-8.34-4.52l9.64-10.29c.46-.49.59-1.21.32-1.83-.27-.62-.88-1.02-1.55-1.02H19.84c-.68,0-1.29.4-1.55,1.02s-.14,1.34.33,1.83l5.77,6.11c.64.68,1.71.71,2.39.06.68-.64.71-1.71.07-2.39l-3.08-3.25h28.85l-8.28,8.83h-13.05c-.23,0-.46.05-.66.13l-.73.31c-2,.9-4.68,2.14-7.63,3.7-.99.52-1.97,1.07-2.93,1.62-9.11,5.24-14.55,13.84-14.55,23.01,0,6.25,2.42,12.16,6.99,17.07,6.17,6.63,15.66,6.64,25.72,6.63h2.71c9.45,0,18.31-.2,24.21-6.44,4.69-4.95,7.17-10.92,7.17-17.27,0-9.33-5.65-18.06-15.13-23.33Z"/>
        <path class="cls-1" d="M40.16,41.54h-5.2c-2.14,0-3.88-1.74-3.88-3.88s1.74-3.87,3.88-3.87h4.93c2.38,0,3.15,1.28,3.21,1.38.41.84,1.42,1.19,2.25.78.84-.41,1.19-1.42.78-2.26-.59-1.22-2.58-3.29-6.25-3.29h-.64v-1.31c0-.94-.76-1.69-1.69-1.69s-1.69.76-1.69,1.69v1.31h-.91c-4,0-7.25,3.25-7.25,7.25s3.25,7.25,7.25,7.25h5.21c2.13,0,3.87,1.74,3.87,3.87s-1.74,3.88-3.87,3.88h-5.94c-2.35,0-3.13-1.25-3.23-1.42-.42-.81-1.41-1.15-2.24-.75-.84.41-1.19,1.42-.78,2.26.59,1.22,2.58,3.29,6.25,3.29h1.65v1.14c0,.94.75,1.69,1.69,1.69s1.69-.75,1.69-1.69v-1.14h.91c4,0,7.25-3.25,7.25-7.25s-3.25-7.25-7.25-7.25ZM61.33,60.09c-5.11,5.39-13.26,5.38-22.74,5.38h-1.72c-9.71,0-18.08,0-23.25-5.55-3.98-4.28-6.09-9.39-6.09-14.77,0-7.94,4.81-15.46,12.86-20.08.92-.53,1.87-1.06,2.83-1.56,2.86-1.52,5.48-2.72,7.41-3.59l.38-.16h13.44c.12,0,.24-.01.36-.04.02.01.04.02.07.03,2.79,1.34,5.61,2.96,9.31,5.03,8.38,4.67,13.39,12.29,13.39,20.38,0,5.46-2.16,10.63-6.24,14.94ZM55.83,21.81c-3.26-1.81-5.87-3.24-8.34-4.52l9.64-10.29c.46-.49.59-1.21.32-1.83-.27-.62-.88-1.02-1.55-1.02H19.22c-.68,0-1.29.4-1.55,1.02s-.14,1.34.33,1.83l5.77,6.11c.64.68,1.71.71,2.39.06.68-.64.71-1.71.07-2.39l-3.08-3.25h28.85l-8.28,8.83h-13.05c-.23,0-.46.05-.66.13l-.73.31c-2,.9-4.68,2.14-7.63,3.7-.99.52-1.97,1.07-2.93,1.62-9.11,5.24-14.55,13.84-14.55,23.01,0,6.25,2.42,12.16,6.99,17.07,6.17,6.63,15.66,6.64,25.72,6.63h2.71c9.45,0,18.31-.2,24.21-6.44,4.69-4.95,7.17-10.92,7.17-17.27,0-9.33-5.65-18.06-15.13-23.33Z"/>
        <path class="cls-3" d="M39.54,40.92h-5.2c-2.14,0-3.88-1.74-3.88-3.88s1.74-3.87,3.88-3.87h4.93c2.38,0,3.15,1.28,3.21,1.38.41.84,1.42,1.19,2.25.78.84-.41,1.19-1.42.78-2.26-.59-1.22-2.58-3.29-6.25-3.29h-.64v-1.31c0-.94-.76-1.69-1.69-1.69s-1.69.76-1.69,1.69v1.31h-.91c-4,0-7.25,3.25-7.25,7.25s3.25,7.25,7.25,7.25h5.21c2.13,0,3.87,1.74,3.87,3.87s-1.74,3.88-3.87,3.88h-5.94c-2.35,0-3.13-1.25-3.23-1.42-.42-.81-1.41-1.15-2.24-.75-.84.41-1.19,1.42-.78,2.26.59,1.22,2.58,3.29,6.25,3.29h1.65v1.14c0,.94.75,1.69,1.69,1.69s1.69-.75,1.69-1.69v-1.14h.91c4,0,7.25-3.25,7.25-7.25s-3.25-7.25-7.25-7.25ZM60.71,59.46c-5.11,5.39-13.26,5.38-22.74,5.38h-1.72c-9.71,0-18.08,0-23.25-5.55-3.98-4.28-6.09-9.39-6.09-14.77,0-7.94,4.81-15.46,12.86-20.08.92-.53,1.87-1.06,2.83-1.56,2.86-1.52,5.48-2.72,7.41-3.59l.38-.16h13.44c.12,0,.24-.01.36-.04.02.01.04.02.07.03,2.79,1.34,5.61,2.96,9.31,5.03,8.38,4.67,13.39,12.29,13.39,20.38,0,5.46-2.16,10.63-6.24,14.94ZM55.2,21.19c-3.26-1.81-5.87-3.24-8.34-4.52l9.64-10.29c.46-.49.59-1.21.32-1.83-.27-.62-.88-1.02-1.55-1.02H18.59c-.68,0-1.29.4-1.55,1.02s-.14,1.34.33,1.83l5.77,6.11c.64.68,1.71.71,2.39.06.68-.64.71-1.71.07-2.39l-3.08-3.25h28.85l-8.28,8.83h-13.05c-.23,0-.46.05-.66.13l-.73.31c-2,.9-4.68,2.14-7.63,3.7-.99.52-1.97,1.07-2.93,1.62-9.11,5.24-14.55,13.84-14.55,23.01,0,6.25,2.42,12.16,6.99,17.07,6.17,6.63,15.66,6.64,25.72,6.63h2.71c9.45,0,18.31-.2,24.21-6.44,4.69-4.95,7.17-10.92,7.17-17.27,0-9.33-5.65-18.06-15.13-23.33Z"/>
        <path class="cls-9" d="M38.91,40.29h-5.2c-2.14,0-3.88-1.74-3.88-3.88s1.74-3.87,3.88-3.87h4.93c2.38,0,3.15,1.28,3.21,1.38.41.84,1.42,1.19,2.25.78.84-.41,1.19-1.42.78-2.26-.59-1.22-2.58-3.29-6.25-3.29h-.64v-1.31c0-.94-.76-1.69-1.69-1.69s-1.69.76-1.69,1.69v1.31h-.91c-4,0-7.25,3.25-7.25,7.25s3.25,7.25,7.25,7.25h5.21c2.13,0,3.87,1.74,3.87,3.87s-1.74,3.88-3.87,3.88h-5.94c-2.35,0-3.13-1.25-3.23-1.42-.42-.81-1.41-1.15-2.24-.75-.84.41-1.19,1.42-.78,2.26.59,1.22,2.58,3.29,6.25,3.29h1.65v1.14c0,.94.75,1.69,1.69,1.69s1.69-.75,1.69-1.69v-1.14h.91c4,0,7.25-3.25,7.25-7.25s-3.25-7.25-7.25-7.25ZM60.08,58.84c-5.11,5.39-13.26,5.38-22.74,5.38h-1.72c-9.71,0-18.08,0-23.25-5.55-3.98-4.28-6.09-9.39-6.09-14.77,0-7.94,4.81-15.46,12.86-20.08.92-.53,1.87-1.06,2.83-1.56,2.86-1.52,5.48-2.72,7.41-3.59l.38-.16h13.44c.12,0,.24-.01.36-.04.02.01.04.02.07.03,2.79,1.34,5.61,2.96,9.31,5.03,8.38,4.67,13.39,12.29,13.39,20.38,0,5.46-2.16,10.63-6.24,14.94ZM54.58,20.56c-3.26-1.81-5.87-3.24-8.34-4.52l9.64-10.29c.46-.49.59-1.21.32-1.83-.27-.62-.88-1.02-1.55-1.02H17.97c-.68,0-1.29.4-1.55,1.02s-.14,1.34.33,1.83l5.77,6.11c.64.68,1.71.71,2.39.06.68-.64.71-1.71.07-2.39l-3.08-3.25h28.85l-8.28,8.83h-13.05c-.23,0-.46.05-.66.13l-.73.31c-2,.9-4.68,2.14-7.63,3.7-.99.52-1.97,1.07-2.93,1.62-9.11,5.24-14.55,13.84-14.55,23.01,0,6.25,2.42,12.16,6.99,17.07,6.17,6.63,15.66,6.64,25.72,6.63h2.71c9.45,0,18.31-.2,24.21-6.44,4.69-4.95,7.17-10.92,7.17-17.27,0-9.33-5.65-18.06-15.13-23.33Z"/>
        <path class="cls-7" d="M38.29,39.67h-5.2c-2.14,0-3.88-1.74-3.88-3.88s1.74-3.87,3.88-3.87h4.93c2.38,0,3.15,1.28,3.21,1.38.41.84,1.42,1.19,2.25.78.84-.41,1.19-1.42.78-2.26-.59-1.22-2.58-3.29-6.25-3.29h-.64v-1.31c0-.94-.76-1.69-1.69-1.69s-1.69.76-1.69,1.69v1.31h-.91c-4,0-7.25,3.25-7.25,7.25s3.25,7.25,7.25,7.25h5.21c2.13,0,3.87,1.74,3.87,3.87s-1.74,3.88-3.87,3.88h-5.94c-2.35,0-3.13-1.25-3.23-1.42-.42-.81-1.41-1.15-2.24-.75-.84.41-1.19,1.42-.78,2.26.59,1.22,2.58,3.29,6.25,3.29h1.65v1.14c0,.94.75,1.69,1.69,1.69s1.69-.75,1.69-1.69v-1.14h.91c4,0,7.25-3.25,7.25-7.25s-3.25-7.25-7.25-7.25ZM59.46,58.21c-5.11,5.39-13.26,5.38-22.74,5.38h-1.72c-9.71,0-18.08,0-23.25-5.55-3.98-4.28-6.09-9.39-6.09-14.77,0-7.94,4.81-15.46,12.86-20.08.92-.53,1.87-1.06,2.83-1.56,2.86-1.52,5.48-2.72,7.41-3.59l.38-.16h13.44c.12,0,.24-.01.36-.04.02.01.04.02.07.03,2.79,1.34,5.61,2.96,9.31,5.03,8.38,4.67,13.39,12.29,13.39,20.38,0,5.46-2.16,10.63-6.24,14.94ZM53.95,19.94c-3.26-1.81-5.87-3.24-8.34-4.52l9.64-10.29c.46-.49.59-1.21.32-1.83-.27-.62-.88-1.02-1.55-1.02H17.34c-.68,0-1.29.4-1.55,1.02s-.14,1.34.33,1.83l5.77,6.11c.64.68,1.71.71,2.39.06.68-.64.71-1.71.07-2.39l-3.08-3.25h28.85l-8.28,8.83h-13.05c-.23,0-.46.05-.66.13l-.73.31c-2,.9-4.68,2.14-7.63,3.7-.99.52-1.97,1.07-2.93,1.62-9.11,5.24-14.55,13.84-14.55,23.01,0,6.25,2.42,12.16,6.99,17.07,6.17,6.63,15.66,6.64,25.72,6.63h2.71c9.45,0,18.31-.2,24.21-6.44,4.69-4.95,7.17-10.92,7.17-17.27,0-9.33-5.65-18.06-15.13-23.33Z"/>
        <path class="cls-4" d="M37.66,39.04h-5.2c-2.14,0-3.88-1.74-3.88-3.88s1.74-3.87,3.88-3.87h4.93c2.38,0,3.15,1.28,3.21,1.38.41.84,1.42,1.19,2.25.78.84-.41,1.19-1.42.78-2.26-.59-1.22-2.58-3.29-6.25-3.29h-.64v-1.31c0-.94-.76-1.69-1.69-1.69s-1.69.76-1.69,1.69v1.31h-.91c-4,0-7.25,3.25-7.25,7.25s3.25,7.25,7.25,7.25h5.21c2.13,0,3.87,1.74,3.87,3.87s-1.74,3.88-3.87,3.88h-5.94c-2.35,0-3.13-1.25-3.23-1.42-.42-.81-1.41-1.15-2.24-.75-.84.41-1.19,1.42-.78,2.26.59,1.22,2.58,3.29,6.25,3.29h1.65v1.14c0,.94.75,1.69,1.69,1.69s1.69-.75,1.69-1.69v-1.14h.91c4,0,7.25-3.25,7.25-7.25s-3.25-7.25-7.25-7.25ZM58.83,57.59c-5.11,5.39-13.26,5.38-22.74,5.38h-1.72c-9.71,0-18.08,0-23.25-5.55-3.98-4.28-6.09-9.39-6.09-14.77,0-7.94,4.81-15.46,12.86-20.08.92-.53,1.87-1.06,2.83-1.56,2.86-1.52,5.48-2.72,7.41-3.59l.38-.16h13.44c.12,0,.24-.01.36-.04.02.01.04.02.07.03,2.79,1.34,5.61,2.96,9.31,5.03,8.38,4.67,13.39,12.29,13.39,20.38,0,5.46-2.16,10.63-6.24,14.94ZM53.33,19.31c-3.26-1.81-5.87-3.24-8.34-4.52l9.64-10.29c.46-.49.59-1.21.32-1.83-.27-.62-.88-1.02-1.55-1.02H16.72c-.68,0-1.29.4-1.55,1.02s-.14,1.34.33,1.83l5.77,6.11c.64.68,1.71.71,2.39.06.68-.64.71-1.71.07-2.39l-3.08-3.25h28.85l-8.28,8.83h-13.05c-.23,0-.46.05-.66.13l-.73.31c-2,.9-4.68,2.14-7.63,3.7-.99.52-1.97,1.07-2.93,1.62C7.1,24.88,1.66,33.48,1.66,42.64c0,6.25,2.42,12.16,6.99,17.07,6.17,6.63,15.66,6.64,25.72,6.63h2.71c9.45,0,18.31-.2,24.21-6.44,4.69-4.95,7.17-10.92,7.17-17.27,0-9.33-5.65-18.06-15.13-23.33Z"/>
        <path class="cls-6" d="M37.04,38.42h-5.2c-2.14,0-3.88-1.74-3.88-3.88s1.74-3.87,3.88-3.87h4.93c2.38,0,3.15,1.28,3.21,1.38.41.84,1.42,1.19,2.25.78.84-.41,1.19-1.42.78-2.26-.59-1.22-2.58-3.29-6.25-3.29h-.64v-1.31c0-.94-.76-1.69-1.69-1.69s-1.69.76-1.69,1.69v1.31h-.91c-4,0-7.25,3.25-7.25,7.25s3.25,7.25,7.25,7.25h5.21c2.13,0,3.87,1.74,3.87,3.87s-1.74,3.88-3.87,3.88h-5.94c-2.35,0-3.13-1.25-3.23-1.42-.42-.81-1.41-1.15-2.24-.75-.84.41-1.19,1.42-.78,2.26.59,1.22,2.58,3.29,6.25,3.29h1.65v1.14c0,.94.75,1.69,1.69,1.69s1.69-.75,1.69-1.69v-1.14h.91c4,0,7.25-3.25,7.25-7.25s-3.25-7.25-7.25-7.25ZM58.21,56.96c-5.11,5.39-13.26,5.38-22.74,5.38h-1.72c-9.71,0-18.08,0-23.25-5.55-3.98-4.28-6.09-9.39-6.09-14.77,0-7.94,4.81-15.46,12.86-20.08.92-.53,1.87-1.06,2.83-1.56,2.86-1.52,5.48-2.72,7.41-3.59l.38-.16h13.44c.12,0,.24-.01.36-.04.02.01.04.02.07.03,2.79,1.34,5.61,2.96,9.31,5.03,8.38,4.67,13.39,12.29,13.39,20.38,0,5.46-2.16,10.63-6.24,14.94ZM52.7,18.69c-3.26-1.81-5.87-3.24-8.34-4.52l9.64-10.29c.46-.49.59-1.21.32-1.83-.27-.62-.88-1.02-1.55-1.02H16.09c-.68,0-1.29.4-1.55,1.02s-.14,1.34.33,1.83l5.77,6.11c.64.68,1.71.71,2.39.06.68-.64.71-1.71.07-2.39l-3.08-3.25h28.85l-8.28,8.83h-13.05c-.23,0-.46.05-.66.13l-.73.31c-2,.9-4.68,2.14-7.63,3.7-.99.52-1.97,1.07-2.93,1.62C6.47,24.25,1.03,32.85,1.03,42.02c0,6.25,2.42,12.16,6.99,17.07,6.17,6.63,15.66,6.64,25.72,6.63h2.71c9.45,0,18.31-.2,24.21-6.44,4.69-4.95,7.17-10.92,7.17-17.27,0-9.33-5.65-18.06-15.13-23.33Z"/>
        <path class="cls-5" d="M36.41,37.79h-5.2c-2.14,0-3.88-1.74-3.88-3.88s1.74-3.87,3.88-3.87h4.93c2.38,0,3.15,1.28,3.21,1.38.41.84,1.42,1.19,2.25.78.84-.41,1.19-1.42.78-2.26-.59-1.22-2.58-3.29-6.25-3.29h-.64v-1.31c0-.94-.76-1.69-1.69-1.69s-1.69.76-1.69,1.69v1.31h-.91c-4,0-7.25,3.25-7.25,7.25s3.25,7.25,7.25,7.25h5.21c2.13,0,3.87,1.74,3.87,3.87s-1.74,3.88-3.87,3.88h-5.94c-2.35,0-3.13-1.25-3.23-1.42-.42-.81-1.41-1.15-2.24-.75-.84.41-1.19,1.42-.78,2.26.59,1.22,2.58,3.29,6.25,3.29h1.65v1.14c0,.94.75,1.69,1.69,1.69s1.69-.75,1.69-1.69v-1.14h.91c4,0,7.25-3.25,7.25-7.25s-3.25-7.25-7.25-7.25ZM57.58,56.34c-5.11,5.39-13.26,5.38-22.74,5.38h-1.72c-9.71,0-18.08,0-23.25-5.55-3.98-4.28-6.09-9.39-6.09-14.77,0-7.94,4.81-15.46,12.86-20.08.92-.53,1.87-1.06,2.83-1.56,2.86-1.52,5.48-2.72,7.41-3.59l.38-.16h13.44c.12,0,.24-.01.36-.04.02.01.04.02.07.03,2.75,1.4,5.61,2.96,9.31,5.03,8.38,4.67,13.39,12.29,13.39,20.38,0,5.46-2.16,10.63-6.24,14.94ZM52.08,18.06c-3.26-1.81-5.87-3.24-8.34-4.52l9.64-10.29c.46-.49.59-1.21.32-1.83-.27-.62-.88-1.02-1.55-1.02H15.47c-.68,0-1.29.4-1.55,1.02-.27.62-.14,1.34.33,1.83l5.77,6.11c.64.68,1.71.71,2.39.06.68-.64.71-1.71.07-2.39l-3.08-3.25h28.85l-8.28,8.83h-13.05c-.23,0-.46.05-.66.13l-.73.31c-2,.9-4.68,2.14-7.63,3.7-.99.52-1.97,1.07-2.93,1.62C5.85,23.62.41,32.23.41,41.39c0,6.25,2.42,12.16,6.99,17.07,6.17,6.63,15.66,6.64,25.72,6.63h2.71c9.45,0,18.31-.2,24.21-6.44,4.69-4.95,7.17-10.92,7.17-17.27,0-9.33-5.65-18.06-15.13-23.33Z"/>
      </g>
      <path class="cls-2" d="M36,37.38h-5.21c-2.14,0-3.88-1.74-3.88-3.88s1.74-3.87,3.88-3.87h4.93c2.38,0,3.15,1.28,3.21,1.39.41.84,1.42,1.19,2.25.78.84-.41,1.19-1.42.78-2.26-.59-1.22-2.58-3.29-6.25-3.29h-.64v-1.31c0-.93-.76-1.69-1.69-1.69s-1.69.76-1.69,1.69v1.31h-.91c-4,0-7.25,3.25-7.25,7.25s3.25,7.25,7.25,7.25h5.21c2.13,0,3.87,1.74,3.87,3.87s-1.74,3.88-3.87,3.88h-5.94c-2.35,0-3.13-1.25-3.23-1.42-.42-.81-1.41-1.15-2.24-.75-.84.41-1.19,1.42-.78,2.26.59,1.22,2.58,3.29,6.25,3.29h1.65v1.14c0,.93.75,1.69,1.69,1.69s1.69-.75,1.69-1.69v-1.14h.91c4,0,7.25-3.25,7.25-7.25s-3.25-7.25-7.25-7.25ZM51.67,17.66c-3.26-1.81-5.87-3.25-8.34-4.52l9.64-10.29c.46-.49.59-1.21.32-1.83-.27-.62-.88-1.02-1.55-1.02H15.06c-.68,0-1.29.4-1.55,1.02-.27.62-.14,1.34.33,1.83l5.77,6.11c.64.68,1.71.71,2.39.07.68-.64.71-1.71.07-2.39l-3.08-3.25h28.85l-8.28,8.83h-13.05c-.23,0-.45.05-.66.13l-.73.31c-2,.9-4.68,2.14-7.63,3.7-.99.52-1.97,1.07-2.93,1.62C5.44,23.22,0,31.82,0,40.99c0,6.25,2.42,12.16,6.99,17.07,6.17,6.63,15.66,6.64,25.72,6.63h2.71c9.45,0,18.31-.2,24.21-6.44,4.69-4.95,7.17-10.92,7.17-17.26,0-9.34-5.65-18.06-15.13-23.33ZM57.17,55.93c-5.11,5.39-13.26,5.38-22.74,5.38h-1.72c-9.71.01-18.08,0-23.25-5.55-3.98-4.28-6.09-9.39-6.09-14.77,0-7.94,4.81-15.46,12.86-20.08.92-.53,1.87-1.06,2.83-1.56,2.86-1.52,5.48-2.72,7.41-3.59l.38-.16h13.44c.12,0,.24-.01.36-.04.02.01.04.02.07.03,2.75,1.4,5.61,2.96,9.31,5.03,8.38,4.67,13.39,12.28,13.39,20.38,0,5.46-2.16,10.63-6.24,14.94Z"/>
    </g>
  </g>
</svg>