<?xml version="1.0" encoding="UTF-8"?>
<svg xmlns="http://www.w3.org/2000/svg" xmlns:xlink="http://www.w3.org/1999/xlink" viewBox="0 0 67.58 68.14">
  <defs>
    <style>
      .cls-1 {
        mix-blend-mode: soft-light;
        opacity: .8;
        stroke: #fff;
      }

      .cls-1, .cls-2 {
        fill: #fff;
      }

      .cls-1, .cls-3, .cls-4, .cls-5 {
        stroke-miterlimit: 10;
      }

      .cls-3 {
        fill: url(#linear-gradient);
      }

      .cls-3, .cls-4, .cls-5 {
        stroke: #999;
      }

      .cls-4 {
        fill: url(#linear-gradient-3);
      }

      .cls-6 {
        isolation: isolate;
      }

      .cls-5 {
        fill: url(#linear-gradient-2);
      }
    </style>
    <linearGradient id="linear-gradient" x1="-1408.88" y1="45.11" x2="-1342.3" y2="45.11" gradientTransform="translate(-11.32 -1341.24) rotate(-90)" gradientUnits="userSpaceOnUse">
      <stop offset="0" stop-color="#e5e2df"/>
      <stop offset="0" stop-color="#f1efed"/>
      <stop offset="0" stop-color="#fff"/>
      <stop offset=".13" stop-color="#f0f0f0"/>
      <stop offset=".37" stop-color="#c9cacb"/>
      <stop offset=".52" stop-color="#adaeb0"/>
      <stop offset=".67" stop-color="#a3a4a6"/>
      <stop offset=".91" stop-color="#8b8b8c"/>
      <stop offset="1" stop-color="gray"/>
    </linearGradient>
    <linearGradient id="linear-gradient-2" x1="-1381.57" y1="45.15" x2="-1369.56" y2="45.15" xlink:href="#linear-gradient"/>
    <linearGradient id="linear-gradient-3" x1="-1382.24" y1="45.17" x2="-1368.6" y2="45.17" xlink:href="#linear-gradient"/>
  </defs>
  <g class="cls-6">
    <g id="Layer_2" data-name="Layer 2">
      <g id="Objects">
        <g>
          <g>
            <g>
              <path class="cls-3" d="M54.05,60.76c14.59-11.19,17.34-32.09,6.14-46.67C49-.5,28.11-3.26,13.52,7.94-1.06,19.13-3.81,40.02,7.38,54.61c11.19,14.58,32.09,17.34,46.67,6.15ZM41.2,28.66c3.13,4.09,2.36,9.95-1.73,13.08-4.09,3.14-9.95,2.37-13.08-1.72-3.14-4.09-2.37-9.95,1.72-13.08,4.09-3.14,9.95-2.37,13.09,1.72Z"/>
              <path class="cls-5" d="M29.06,37.99h0c2.02,2.63,5.79,3.13,8.41,1.11,2.64-2.02,3.13-5.79,1.11-8.42-2.02-2.64-5.79-3.13-8.42-1.11-2.63,2.02-3.13,5.79-1.11,8.42ZM31.46,31.25c1.71-1.31,4.14-.98,5.45.72,1.31,1.7.98,4.13-.71,5.44-1.7,1.3-4.14.98-5.45-.72-1.3-1.71-.98-4.14.72-5.45Z"/>
            </g>
            <path class="cls-2" d="M16.14,8.87l10.95,16.44s-.49.25-1.17.77l-12.84-14.83c.94-.84,1.95-1.65,3.06-2.38Z"/>
            <path class="cls-2" d="M10.32,13.79l14.98,12.88s-2.18,1.99-2.8,5.33l-18.95-3.57s1.35-8.45,6.78-14.63Z"/>
          </g>
          <g>
            <g>
              <path class="cls-3" d="M54.05,60.76c14.59-11.19,17.34-32.09,6.14-46.67C49-.5,28.11-3.26,13.52,7.94-1.06,19.13-3.81,40.02,7.38,54.61c11.19,14.58,32.09,17.34,46.67,6.15ZM41.2,28.66c3.13,4.09,2.36,9.95-1.73,13.08-4.09,3.14-9.95,2.37-13.08-1.72-3.14-4.09-2.37-9.95,1.72-13.08,4.09-3.14,9.95-2.37,13.09,1.72Z"/>
              <path class="cls-4" d="M28.44,38.33h0c2.29,2.99,6.57,3.55,9.55,1.26,2.99-2.29,3.55-6.57,1.26-9.56-2.29-2.99-6.57-3.55-9.56-1.26-2.99,2.29-3.55,6.57-1.26,9.56ZM31.16,30.68c1.94-1.48,4.7-1.12,6.18.82,1.49,1.93,1.12,4.69-.81,6.18-1.93,1.48-4.7,1.12-6.19-.81-1.48-1.94-1.12-4.7.81-6.19Z"/>
            </g>
            <path class="cls-2" d="M16.14,8.87l10.95,16.44s-.49.25-1.17.77l-12.84-14.83c.94-.84,1.95-1.65,3.06-2.38Z"/>
            <path class="cls-2" d="M10.32,13.79l14.98,12.88s-2.18,1.99-2.8,5.33l-18.95-3.57s1.35-8.45,6.78-14.63Z"/>
          </g>
          <path class="cls-1" d="M60.2,13.53C49-1.06,28.11-3.81,13.52,7.38-1.06,18.58-3.81,39.47,7.38,54.05"/>
        </g>
      </g>
    </g>
  </g>
</svg>