<?xml version="1.0" encoding="UTF-8"?>
<svg id="Layer_2" data-name="Layer 2" xmlns="http://www.w3.org/2000/svg" viewBox="0 0 17.62 27.36">
  <defs>
    <style>
      .cls-1 {
        fill-rule: evenodd;
      }
    </style>
  </defs>
  <g id="_1" data-name="1">
    <path class="cls-1" d="M15.17,15.18c-1,1.47-2.05,2.99-2.1,5.05-.01.27-.1.51-.27.68h-7.97c-.16-.17-.26-.41-.27-.68-.06-2.06-1.1-3.58-2.11-5.05-1.2-1.77-2.46-3.59-2.46-6.81C0,3.76,3.96,0,8.81,0s8.81,3.76,8.81,8.37c0,3.22-1.24,5.04-2.45,6.81h0ZM12.72,8.22l-.75-.35c-.01-.13-.04-.25-.06-.36l.61-.56c.19-.16.23-.44.1-.67l-.38-.61c-.13-.22-.4-.32-.63-.22l-.77.26c-.09-.07-.2-.15-.3-.21l.05-.84c0-.24-.17-.48-.41-.54l-.69-.17c-.14-.04-.28-.01-.4.07-.1.05-.17.12-.22.22l-.34.75c-.13,0-.25.02-.37.04l-.56-.61c-.16-.19-.45-.22-.66-.1l-.61.36c-.22.13-.32.4-.23.63l.28.78c-.08.1-.15.19-.21.3l-.83-.03c-.11-.02-.21.02-.29.07-.12.07-.21.18-.25.33l-.18.68c-.06.25.06.51.29.61l.75.35c0,.12.02.25.05.37l-.61.55c-.19.18-.23.45-.1.67l.37.61c.13.22.4.32.63.24l.78-.28c.1.08.19.14.3.22l-.04.82c-.01.26.15.48.4.54l.69.17c.15.03.29.01.41-.06.08-.06.15-.13.2-.23l.36-.75c.12,0,.24-.03.37-.05l.55.61c.17.19.44.23.66.1l.61-.36c.23-.13.31-.4.23-.63l-.28-.77c.08-.1.16-.2.22-.3l.82.04c.12,0,.22-.01.3-.07.12-.07.2-.18.24-.33l.17-.69c.07-.25-.06-.51-.28-.61h0ZM9.53,7.73c-.12-.19-.28-.32-.47-.37-.23-.07-.45-.05-.67.08-.4.23-.53.74-.28,1.13.08.14.21.26.36.32.04.02.08.04.13.05.21.05.44.04.64-.09.29-.18.45-.53.38-.86-.02-.09-.05-.19-.1-.28h0ZM9.77,9.74h0c-.52.3-1.14.33-1.66.12-.05-.02-.09-.03-.13-.06-.3-.15-.56-.38-.74-.7-.53-.87-.25-2,.63-2.53.48-.29,1.05-.34,1.55-.17.4.13.75.41.98.8.02.02.02.06.05.08.46.87.17,1.94-.68,2.46h0ZM12.55,21.44c.26.2.43.51.43.87,0,.29-.12.55-.29.75h-7.74c-.19-.2-.29-.46-.29-.75,0-.35.16-.67.43-.87h7.46ZM12.72,23.57c.16.19.25.43.25.71,0,.32-.15.63-.39.83h-7.54c-.24-.2-.39-.51-.39-.83,0-.27.1-.52.25-.71h7.82ZM11.16,25.61c-.3,1.02-1.24,1.74-2.35,1.74s-2.03-.72-2.34-1.74h4.69ZM8.81,2.64c3.04,0,5.51,2.46,5.51,5.51s-2.47,5.51-5.51,5.51-5.51-2.47-5.51-5.51,2.47-5.51,5.51-5.51h0Z"/>
  </g>
</svg>