<?xml version="1.0" encoding="UTF-8"?>
<svg id="Layer_2" data-name="Layer 2" xmlns="http://www.w3.org/2000/svg" viewBox="0 0 27.36 25.02">
  <g id="_1" data-name="1">
    <path d="M6.22,17.87h0l4.81-2.42c-.21-.95-.04-1.99.54-2.83l-.89-.7c-1.02.62-2.36.5-3.24-.37-1.02-1.02-1.02-2.7,0-3.72,1.03-1.02,2.69-1.02,3.71,0,.91.9,1.01,2.3.33,3.32l.83.66c.58-.46,1.26-.71,1.95-.77l.47-4.09c-.37-.17-.73-.42-1.04-.72-1.42-1.42-1.42-3.72,0-5.15,1.42-1.42,3.73-1.42,5.15,0,1.43,1.43,1.43,3.73,0,5.15-.62.61-1.4.96-2.18,1.04l-.85,3.98c.48.17.94.46,1.34.84.18.18.33.39.47.59l2.67-1.34c-.01-.38.11-.79.42-1.08.54-.55,1.43-.55,1.97,0,.55.55.55,1.44,0,1.99-.51.51-1.34.54-1.88.06l-2.72,1.37c.19.71.16,1.44-.06,2.13l3.63,2.56c1.43-.96,3.36-.81,4.62.45,1.42,1.42,1.42,3.72,0,5.14-1.42,1.43-3.73,1.43-5.15,0-.98-.98-1.28-2.4-.9-3.65l-3.08-3.06c-.56.55-1.25.88-1.96,1l-.14,1.76c.29.12.55.29.79.52.94.94.94,2.45,0,3.39-.93.93-2.44.93-3.37,0-.93-.94-.93-2.45,0-3.39.41-.4.94-.62,1.48-.68l.12-1.58c-.75-.11-1.48-.45-2.06-1.04-.07-.05-.12-.12-.18-.19l-4.58,3.03c.11,1.05-.24,2.15-1.05,2.97-1.41,1.42-3.72,1.42-5.14,0-1.42-1.42-1.42-3.73,0-5.15,1.42-1.42,3.73-1.42,5.16,0h0Z"/>
  </g>
</svg>