<?xml version="1.0" encoding="UTF-8"?>
<svg id="Layer_2" data-name="Layer 2" xmlns="http://www.w3.org/2000/svg" xmlns:xlink="http://www.w3.org/1999/xlink" viewBox="0 0 81.99 59.1">
  <defs>
    <style>
      .cls-1 {
        opacity: .14;
      }

      .cls-2 {
        fill: url(#linear-gradient-2);
      }

      .cls-3 {
        opacity: .21;
      }

      .cls-4 {
        opacity: .42;
      }

      .cls-5 {
        opacity: .55;
      }

      .cls-6 {
        opacity: .48;
      }

      .cls-7 {
        opacity: .35;
      }

      .cls-8 {
        opacity: .08;
      }

      .cls-9 {
        opacity: .28;
      }

      .cls-10 {
        opacity: 0;
      }

      .cls-11 {
        fill: url(#linear-gradient);
      }
    </style>
    <linearGradient id="linear-gradient" x1="16.45" y1="12.79" x2="61.52" y2="57.86" gradientUnits="userSpaceOnUse">
      <stop offset="0" stop-color="#6eb5fa"/>
      <stop offset="1" stop-color="#d9f0ff"/>
    </linearGradient>
    <linearGradient id="linear-gradient-2" x1="16.73" y1="13.03" x2="61.7" y2="57.99" gradientUnits="userSpaceOnUse">
      <stop offset="0" stop-color="#2c2e2c"/>
      <stop offset=".99" stop-color="#000"/>
    </linearGradient>
  </defs>
  <g id="Layer_1-2" data-name="Layer 1">
    <g>
      <path class="cls-11" d="M14.05,52.16h44.48c5.88,0,17-4.92,16.36-18.43-.79-9.85-9.53-14.14-12.71-14.77-.32-3.65-3.18-14.3-12.71-16.84-9.53-2.54-16.68,4.45-18.74,7.94-2.54-.32-9.53.64-13.03,4.61-3.49,3.97-3.81,11.28-3.81,11.28,0,0-12.39,3.5-12.39,12.71s7.94,13.5,12.55,13.5Z"/>
      <g>
        <g class="cls-10">
          <path d="M64.23,59.1H30.93c-.93,0-1.69-.76-1.69-1.69s.76-1.69,1.69-1.69h33.3c7.93,0,14.39-6.73,14.39-15,0-7.06-4.8-13.23-11.42-14.68-.76-.16-1.32-.84-1.33-1.62-.14-8.63-7-15.65-15.28-15.65-5.35,0-10.37,2.97-13.12,7.76-.37.64-1.1.96-1.82.81-.82-.17-1.66-.26-2.49-.26-6.72,0-12.18,5.7-12.18,12.7,0,.51.03,1.03.1,1.59.06.47-.09.95-.41,1.31-.32.36-.77.57-1.25.58-5.86.07-10.62,5.11-10.62,11.22s4.83,11.23,10.76,11.23c.93,0,1.69.76,1.69,1.69s-.76,1.69-1.69,1.69c-7.8,0-14.14-6.55-14.14-14.61,0-7.34,5.32-13.47,12.19-14.46,0-.08,0-.16,0-.24,0-8.87,6.98-16.08,15.56-16.08.67,0,1.34.04,2.01.13,3.46-5.23,9.26-8.44,15.43-8.44,9.69,0,17.78,7.82,18.59,17.67,7.5,2.25,12.81,9.47,12.81,17.65,0,10.13-7.97,18.38-17.77,18.38Z"/>
        </g>
        <g class="cls-8">
          <path d="M63.6,58.48H30.3c-.93,0-1.69-.76-1.69-1.69s.76-1.69,1.69-1.69h33.3c7.93,0,14.39-6.73,14.39-15,0-7.06-4.8-13.23-11.42-14.68-.76-.16-1.32-.84-1.33-1.62-.14-8.63-7-15.65-15.28-15.65-5.35,0-10.37,2.97-13.12,7.76-.37.64-1.1.96-1.82.81-.82-.18-1.66-.26-2.49-.26-6.72,0-12.18,5.7-12.18,12.7,0,.51.03,1.03.1,1.59.06.47-.09.95-.41,1.31-.32.36-.77.57-1.25.58-5.86.09-10.62,5.11-10.62,11.22s4.83,11.23,10.76,11.23c.93,0,1.69.76,1.69,1.69s-.76,1.69-1.69,1.69c-7.8,0-14.14-6.55-14.14-14.61,0-7.34,5.32-13.47,12.19-14.46,0-.08,0-.16,0-.24,0-8.87,6.98-16.08,15.56-16.08.67,0,1.34.04,2.01.13,3.46-5.23,9.26-8.44,15.43-8.44,9.69,0,17.78,7.82,18.59,17.67,7.5,2.25,12.81,9.47,12.81,17.65,0,10.13-7.97,18.38-17.77,18.38Z"/>
        </g>
        <g class="cls-1">
          <path d="M62.98,57.85H29.68c-.93,0-1.69-.76-1.69-1.69s.76-1.69,1.69-1.69h33.3c7.93,0,14.39-6.73,14.39-15,0-7.06-4.8-13.23-11.42-14.68-.76-.16-1.32-.84-1.33-1.62-.14-8.63-7-15.65-15.28-15.65-5.35,0-10.37,2.97-13.12,7.76-.37.64-1.1.96-1.82.81-.82-.18-1.66-.26-2.49-.26-6.72,0-12.18,5.7-12.18,12.7,0,.51.03,1.03.1,1.59.06.47-.09.95-.41,1.31-.32.36-.77.57-1.25.58-5.86.09-10.62,5.11-10.62,11.22s4.83,11.23,10.76,11.23c.93,0,1.69.76,1.69,1.69s-.76,1.69-1.69,1.69c-7.8,0-14.14-6.55-14.14-14.61,0-7.34,5.32-13.47,12.19-14.46,0-.08,0-.16,0-.24,0-8.87,6.98-16.08,15.56-16.08.67,0,1.34.04,2.01.13,3.46-5.23,9.26-8.44,15.43-8.44,9.69,0,17.78,7.82,18.59,17.67,7.5,2.25,12.81,9.47,12.81,17.65,0,10.13-7.97,18.38-17.77,18.38Z"/>
        </g>
        <g class="cls-3">
          <path d="M62.35,57.23H29.05c-.93,0-1.69-.76-1.69-1.69s.76-1.69,1.69-1.69h33.3c7.93,0,14.39-6.73,14.39-15,0-7.06-4.8-13.23-11.42-14.68-.76-.16-1.32-.84-1.33-1.62-.14-8.63-7-15.65-15.28-15.65-5.35,0-10.37,2.97-13.12,7.76-.37.64-1.1.96-1.82.81-.82-.18-1.66-.26-2.49-.26-6.72,0-12.18,5.7-12.18,12.7,0,.51.03,1.03.1,1.59.06.47-.09.95-.41,1.31-.32.36-.77.57-1.25.58-5.86.09-10.62,5.11-10.62,11.22s4.83,11.23,10.76,11.23c.93,0,1.69.76,1.69,1.69s-.76,1.69-1.69,1.69c-7.8,0-14.14-6.55-14.14-14.61,0-7.34,5.32-13.47,12.19-14.46,0-.08,0-.16,0-.24,0-8.87,6.98-16.08,15.56-16.08.67,0,1.34.04,2.01.13,3.46-5.23,9.26-8.44,15.43-8.44,9.69,0,17.78,7.82,18.59,17.67,7.5,2.25,12.81,9.47,12.81,17.65,0,10.13-7.97,18.38-17.77,18.38Z"/>
        </g>
        <g class="cls-9">
          <path d="M61.73,56.6H28.43c-.93,0-1.69-.76-1.69-1.69s.76-1.69,1.69-1.69h33.3c7.93,0,14.39-6.73,14.39-15,0-7.06-4.8-13.23-11.42-14.68-.76-.16-1.32-.84-1.33-1.62-.14-8.63-7-15.65-15.28-15.65-5.35,0-10.37,2.97-13.12,7.76-.37.64-1.1.96-1.82.81-.82-.18-1.66-.26-2.49-.26-6.72,0-12.18,5.7-12.18,12.7,0,.51.03,1.03.1,1.59.06.47-.09.95-.41,1.31-.32.36-.77.57-1.25.58-5.86.09-10.62,5.11-10.62,11.22s4.83,11.23,10.76,11.23c.93,0,1.69.76,1.69,1.69s-.76,1.69-1.69,1.69c-7.8,0-14.14-6.55-14.14-14.61,0-7.34,5.32-13.47,12.19-14.46,0-.08,0-.16,0-.24,0-8.87,6.98-16.08,15.56-16.08.67,0,1.34.04,2.01.13,3.46-5.23,9.26-8.44,15.43-8.44,9.69,0,17.78,7.82,18.59,17.67,7.5,2.25,12.81,9.47,12.81,17.65,0,10.13-7.97,18.38-17.77,18.38Z"/>
        </g>
        <g class="cls-7">
          <path d="M61.1,55.98H27.8c-.93,0-1.69-.76-1.69-1.69s.76-1.69,1.69-1.69h33.3c7.93,0,14.39-6.73,14.39-15,0-7.06-4.8-13.23-11.42-14.68-.76-.16-1.32-.84-1.33-1.62-.14-8.63-7-15.65-15.28-15.65-5.35,0-10.37,2.97-13.12,7.76-.37.64-1.1.96-1.82.81-.82-.18-1.66-.26-2.49-.26-6.72,0-12.18,5.7-12.18,12.7,0,.51.03,1.03.1,1.59.06.47-.09.95-.41,1.31-.32.36-.77.57-1.25.58-5.86.09-10.62,5.11-10.62,11.22s4.83,11.23,10.76,11.23c.93,0,1.69.76,1.69,1.69s-.76,1.69-1.69,1.69c-7.8,0-14.14-6.55-14.14-14.61,0-7.34,5.32-13.47,12.19-14.46,0-.08,0-.16,0-.24,0-8.87,6.98-16.08,15.56-16.08.67,0,1.34.04,2.01.13,3.46-5.23,9.26-8.44,15.43-8.44,9.69,0,17.78,7.82,18.59,17.67,7.5,2.25,12.81,9.47,12.81,17.65,0,10.13-7.97,18.38-17.77,18.38Z"/>
        </g>
        <g class="cls-4">
          <path d="M60.48,55.35H27.18c-.93,0-1.69-.76-1.69-1.69s.76-1.69,1.69-1.69h33.3c7.93,0,14.39-6.73,14.39-15,0-7.06-4.8-13.23-11.42-14.68-.76-.16-1.32-.84-1.33-1.62-.14-8.63-7-15.65-15.28-15.65-5.35,0-10.37,2.97-13.12,7.76-.37.64-1.1.96-1.82.81-.82-.18-1.66-.26-2.49-.26-6.72,0-12.18,5.7-12.18,12.7,0,.51.03,1.03.1,1.59.06.47-.09.95-.41,1.31-.32.36-.77.57-1.25.58-5.86.09-10.62,5.11-10.62,11.22s4.83,11.23,10.76,11.23c.93,0,1.69.76,1.69,1.69s-.76,1.69-1.69,1.69c-7.8,0-14.14-6.55-14.14-14.61,0-7.34,5.32-13.47,12.19-14.46,0-.08,0-.16,0-.24,0-8.87,6.98-16.08,15.56-16.08.67,0,1.34.04,2.01.13,3.46-5.23,9.26-8.44,15.43-8.44,9.69,0,17.78,7.82,18.59,17.67,7.5,2.25,12.81,9.47,12.81,17.65,0,10.13-7.97,18.38-17.77,18.38Z"/>
        </g>
        <g class="cls-6">
          <path d="M59.85,54.73H26.55c-.93,0-1.69-.76-1.69-1.69s.76-1.69,1.69-1.69h33.3c7.93,0,14.39-6.73,14.39-15,0-7.06-4.8-13.23-11.42-14.68-.76-.16-1.32-.84-1.33-1.62-.14-8.63-7-15.65-15.28-15.65-5.35,0-10.37,2.97-13.12,7.76-.37.64-1.1.96-1.82.81-.82-.18-1.66-.26-2.49-.26-6.72,0-12.18,5.7-12.18,12.7,0,.51.03,1.03.1,1.59.06.47-.09.95-.41,1.31-.32.36-.77.57-1.25.58-5.86.09-10.62,5.11-10.62,11.22s4.83,11.23,10.76,11.23c.93,0,1.69.76,1.69,1.69s-.76,1.69-1.69,1.69c-7.8,0-14.14-6.55-14.14-14.61,0-7.34,5.32-13.47,12.19-14.46,0-.08,0-.16,0-.24,0-8.87,6.98-16.08,15.56-16.08.67,0,1.34.04,2.01.13,3.46-5.23,9.26-8.44,15.43-8.44,9.69,0,17.78,7.82,18.59,17.67,7.5,2.25,12.81,9.47,12.81,17.65,0,10.13-7.97,18.38-17.77,18.38Z"/>
        </g>
        <g class="cls-5">
          <path d="M59.23,54.1H25.93c-.93,0-1.69-.76-1.69-1.69s.76-1.69,1.69-1.69h33.3c7.93,0,14.39-6.73,14.39-15,0-7.06-4.8-13.23-11.42-14.68-.76-.16-1.32-.84-1.33-1.62-.14-8.63-7-15.65-15.28-15.65-5.35,0-10.37,2.97-13.12,7.76-.37.64-1.1.96-1.82.81-.82-.17-1.66-.26-2.49-.26-6.72,0-12.18,5.7-12.18,12.7,0,.51.03,1.03.1,1.59.06.47-.09.95-.41,1.31-.32.36-.77.57-1.25.58-5.86.07-10.62,5.11-10.62,11.22s4.83,11.23,10.76,11.23c.93,0,1.69.76,1.69,1.69s-.76,1.69-1.69,1.69c-7.8,0-14.14-6.55-14.14-14.61,0-7.34,5.32-13.47,12.19-14.46,0-.08,0-.16,0-.24,0-8.87,6.98-16.08,15.56-16.08.67,0,1.34.04,2.01.13C33.62,3.61,39.43.41,45.59.41c9.69,0,17.78,7.82,18.59,17.67,7.5,2.25,12.81,9.47,12.81,17.65,0,10.13-7.97,18.38-17.77,18.38Z"/>
        </g>
      </g>
      <path class="cls-2" d="M58.82,53.7H25.52c-.93,0-1.69-.76-1.69-1.69s.76-1.69,1.69-1.69h33.3c7.93,0,14.39-6.73,14.39-15,0-7.06-4.8-13.23-11.42-14.68-.76-.17-1.32-.84-1.33-1.62-.14-8.63-7-15.65-15.28-15.65-5.35,0-10.37,2.97-13.12,7.76-.37.64-1.1.96-1.82.81-.82-.17-1.66-.26-2.49-.26-6.72,0-12.18,5.7-12.18,12.7,0,.51.03,1.03.1,1.59.06.47-.09.95-.41,1.31-.32.36-.77.57-1.25.58-5.86.07-10.62,5.11-10.62,11.22s4.83,11.23,10.76,11.23c.93,0,1.69.76,1.69,1.69s-.76,1.69-1.69,1.69c-7.8,0-14.14-6.55-14.14-14.61,0-7.34,5.32-13.47,12.19-14.46,0-.08,0-.16,0-.24,0-8.87,6.98-16.08,15.56-16.08.67,0,1.34.04,2.01.13C33.21,3.21,39.02,0,45.18,0c9.69,0,17.78,7.82,18.59,17.67,7.5,2.25,12.81,9.47,12.81,17.65,0,10.13-7.97,18.38-17.77,18.38Z"/>
    </g>
  </g>
</svg>