<?xml version="1.0" encoding="UTF-8"?>
<svg xmlns="http://www.w3.org/2000/svg" xmlns:xlink="http://www.w3.org/1999/xlink" viewBox="0 0 61.39 69.27">
  <defs>
    <style>
      .cls-1 {
        fill: #fff;
        mix-blend-mode: soft-light;
        opacity: .8;
        stroke: #fff;
      }

      .cls-1, .cls-2 {
        stroke-miterlimit: 10;
      }

      .cls-2 {
        fill: url(#linear-gradient);
        stroke: #999;
      }

      .cls-3 {
        isolation: isolate;
      }
    </style>
    <linearGradient id="linear-gradient" x1=".5" y1="34.64" x2="60.89" y2="34.64" gradientUnits="userSpaceOnUse">
      <stop offset="0" stop-color="#e5e2df"/>
      <stop offset="0" stop-color="#f1efed"/>
      <stop offset="0" stop-color="#fff"/>
      <stop offset=".13" stop-color="#f0f0f0"/>
      <stop offset=".37" stop-color="#c9cacb"/>
      <stop offset=".52" stop-color="#adaeb0"/>
      <stop offset=".67" stop-color="#a3a4a6"/>
      <stop offset=".91" stop-color="#8b8b8c"/>
      <stop offset="1" stop-color="gray"/>
    </linearGradient>
  </defs>
  <g class="cls-3">
    <g id="Layer_2" data-name="Layer 2">
      <g id="Objects">
        <g>
          <path class="cls-2" d="M31.09.5c9.54.79,7.64,3.05,14.37,6.03,3.52,1.55,14.83,4.5,14.83,4.5,0,0,.56,7.65.6,11.12.1,8.46-2.78,23.57-7.15,30.99-4.13,7.02-13.91,14.3-22.85,15.63h-.39c-8.94-1.32-18.71-8.61-22.84-15.63C3.29,45.72.41,30.62.5,22.15c.04-3.48.6-11.12.6-11.12,0,0,11.32-2.95,14.83-4.5,6.73-2.97,4.83-5.23,14.37-6.03h.79Z"/>
          <path class="cls-1" d="M31.09.5c9.54.79,7.64,3.05,14.37,6.03,3.52,1.55-33.68,53.64-37.81,46.62C3.29,45.72.41,30.62.5,22.15c.04-3.48.6-11.12.6-11.12,0,0,11.32-2.95,14.83-4.5,6.73-2.97,4.83-5.23,14.37-6.03h.79Z"/>
        </g>
      </g>
    </g>
  </g>
</svg>