<?xml version="1.0" encoding="UTF-8"?>
<svg id="Layer_2" data-name="Layer 2" xmlns="http://www.w3.org/2000/svg" xmlns:xlink="http://www.w3.org/1999/xlink" viewBox="0 0 81.27 67.17">
  <defs>
    <style>
      .cls-1 {
        opacity: .14;
      }

      .cls-2 {
        fill: url(#linear-gradient-2);
      }

      .cls-3 {
        opacity: .21;
      }

      .cls-4 {
        opacity: .42;
      }

      .cls-5 {
        opacity: .55;
      }

      .cls-6 {
        opacity: .48;
      }

      .cls-7 {
        opacity: .35;
      }

      .cls-8 {
        opacity: .08;
      }

      .cls-9 {
        opacity: .28;
      }

      .cls-10 {
        opacity: 0;
      }

      .cls-11 {
        fill: url(#linear-gradient);
      }
    </style>
    <linearGradient id="linear-gradient" x1="13.89" y1="-11.71" x2="65.56" y2="39.95" gradientUnits="userSpaceOnUse">
      <stop offset="0" stop-color="#6eb5fa"/>
      <stop offset="1" stop-color="#d9f0ff"/>
    </linearGradient>
    <linearGradient id="linear-gradient-2" x1="13.48" y1="-12.49" x2="66.11" y2="40.13" gradientUnits="userSpaceOnUse">
      <stop offset="0" stop-color="#2c2e2c"/>
      <stop offset=".99" stop-color="#000"/>
    </linearGradient>
  </defs>
  <g id="Layer_1-2" data-name="Layer 1">
    <g>
      <polygon class="cls-11" points="8.95 10.09 31.92 36.37 31.92 52.27 43.57 59.35 43.57 37.16 73.62 2.07 2.18 2.07 8.95 10.09"/>
      <g>
        <path class="cls-10" d="M49.18,67.17c-.32,0-.63-.09-.91-.26l-11.68-7.46c-.49-.31-.78-.85-.78-1.43v-15.54L13.18,16.62c-.62-.7-.54-1.77.16-2.39.7-.61,1.77-.54,2.38.16l23.04,26.34c.27.31.42.7.42,1.11v15.25l8.3,5.3v-20.55c0-.41.15-.8.42-1.11l27.95-31.96H7.1c-.94,0-1.69-.75-1.69-1.69s.75-1.69,1.69-1.69h72.48c.66,0,1.26.39,1.54.99.27.6.17,1.31-.27,1.81l-29.99,34.28v23c0,.62-.33,1.18-.88,1.48-.25.14-.53.21-.81.21Z"/>
        <path class="cls-8" d="M48.55,66.54c-.32,0-.63-.09-.91-.26l-11.68-7.46c-.49-.31-.78-.85-.78-1.43v-15.54L12.56,16c-.62-.7-.54-1.77.16-2.39.7-.61,1.77-.54,2.38.16l23.04,26.34c.27.31.42.7.42,1.11v15.25l8.3,5.3v-20.55c0-.41.15-.8.42-1.11l27.95-31.96H6.47c-.94,0-1.69-.75-1.69-1.69s.75-1.69,1.69-1.69h72.48c.66,0,1.27.39,1.54.99.27.6.17,1.31-.27,1.81l-29.99,34.28v23c0,.62-.33,1.18-.88,1.48-.25.14-.53.21-.81.21Z"/>
        <path class="cls-1" d="M47.93,65.92c-.32,0-.63-.09-.91-.26l-11.68-7.46c-.49-.31-.78-.85-.78-1.43v-15.54L11.93,15.37c-.62-.7-.54-1.77.16-2.39.7-.61,1.77-.54,2.38.16l23.04,26.34c.27.31.42.7.42,1.11v15.25l8.3,5.3v-20.55c0-.41.15-.8.42-1.11l27.95-31.96H5.85c-.94,0-1.69-.75-1.69-1.69s.75-1.69,1.69-1.69h72.48c.66,0,1.27.39,1.54.99.27.6.17,1.31-.27,1.81l-29.99,34.28v23c0,.62-.33,1.18-.88,1.48-.25.14-.53.21-.81.21Z"/>
        <path class="cls-3" d="M47.3,65.29c-.32,0-.63-.09-.91-.26l-11.68-7.46c-.49-.31-.78-.85-.78-1.43v-15.54L11.31,14.75c-.62-.7-.54-1.77.16-2.39.7-.61,1.77-.54,2.38.16l23.04,26.34c.27.31.42.7.42,1.11v15.25l8.3,5.3v-20.55c0-.41.15-.8.42-1.11l27.95-31.96H5.22c-.94,0-1.69-.75-1.69-1.69s.75-1.69,1.69-1.69h72.48c.66,0,1.27.39,1.54.99.27.6.17,1.31-.27,1.81l-29.99,34.28v23c0,.62-.33,1.18-.88,1.48-.25.14-.53.21-.81.21Z"/>
        <path class="cls-9" d="M46.68,64.67c-.32,0-.63-.09-.91-.26l-11.68-7.46c-.49-.31-.78-.85-.78-1.43v-15.54L10.68,14.12c-.62-.7-.54-1.77.16-2.39.7-.61,1.77-.54,2.38.16l23.04,26.34c.27.31.42.7.42,1.11v15.25l8.3,5.3v-20.55c0-.41.15-.8.42-1.11l27.95-31.96H4.6c-.94,0-1.69-.75-1.69-1.69s.75-1.69,1.69-1.69h72.48c.66,0,1.27.39,1.54.99.27.6.17,1.31-.27,1.81l-29.99,34.28v23c0,.62-.33,1.18-.88,1.48-.25.14-.53.21-.81.21Z"/>
        <path class="cls-7" d="M46.05,64.04c-.32,0-.63-.09-.91-.26l-11.68-7.46c-.49-.31-.78-.85-.78-1.43v-15.54L10.06,13.5c-.62-.7-.54-1.77.16-2.39.7-.61,1.77-.54,2.38.16l23.04,26.34c.27.31.42.7.42,1.11v15.25l8.3,5.3v-20.55c0-.41.15-.8.42-1.11l27.95-31.96H3.97c-.94,0-1.69-.75-1.69-1.69s.75-1.69,1.69-1.69h72.48c.66,0,1.27.39,1.54.99.27.6.17,1.31-.27,1.81l-29.99,34.28v23c0,.62-.33,1.18-.88,1.48-.25.14-.53.21-.81.21Z"/>
        <path class="cls-4" d="M45.43,63.42c-.32,0-.63-.09-.91-.26l-11.68-7.46c-.49-.31-.78-.85-.78-1.43v-15.54L9.43,12.87c-.62-.7-.54-1.77.16-2.39.7-.61,1.77-.54,2.38.16l23.04,26.34c.27.31.42.7.42,1.11v15.25l8.3,5.3v-20.55c0-.41.15-.8.42-1.11l27.95-31.96H3.35c-.94,0-1.69-.75-1.69-1.69s.75-1.69,1.69-1.69h72.48c.66,0,1.27.39,1.54.99.27.6.17,1.31-.27,1.81l-29.99,34.28v23c0,.62-.33,1.18-.88,1.48-.25.14-.53.21-.81.21Z"/>
        <path class="cls-6" d="M44.8,62.79c-.32,0-.63-.09-.91-.26l-11.68-7.46c-.49-.31-.78-.85-.78-1.43v-15.54L8.81,12.25c-.62-.7-.54-1.77.16-2.39.7-.61,1.77-.54,2.38.16l23.04,26.34c.27.31.42.7.42,1.11v15.25l8.3,5.3v-20.55c0-.41.15-.8.42-1.11l27.95-31.96H2.72c-.94,0-1.69-.75-1.69-1.69s.75-1.69,1.69-1.69h72.48c.66,0,1.27.39,1.54.99.27.6.17,1.31-.27,1.81l-29.99,34.28v23c0,.62-.33,1.18-.88,1.48-.25.14-.53.21-.81.21Z"/>
        <path class="cls-5" d="M44.18,62.17c-.32,0-.63-.09-.91-.26l-11.68-7.46c-.49-.31-.78-.85-.78-1.43v-15.54L8.18,11.62c-.62-.7-.54-1.77.16-2.39.7-.61,1.77-.54,2.38.16l23.04,26.34c.27.31.42.7.42,1.11v15.25l8.3,5.3v-20.55c0-.41.15-.8.42-1.11L70.86,3.78H2.1c-.94,0-1.69-.75-1.69-1.69S1.16.41,2.1.41h72.48c.66,0,1.26.39,1.54.99.27.6.17,1.31-.27,1.81l-29.99,34.28v23c0,.62-.33,1.18-.88,1.48-.25.14-.53.21-.81.21Z"/>
      </g>
      <path class="cls-2" d="M43.77,61.76c-.32,0-.63-.09-.91-.26l-11.68-7.46c-.49-.31-.78-.85-.78-1.43v-15.54L7.78,11.21c-.62-.7-.54-1.77.16-2.39.7-.61,1.77-.54,2.38.16l23.04,26.34c.27.31.42.71.42,1.11v15.25l8.3,5.3v-20.55c0-.41.15-.8.42-1.11L70.45,3.38H1.69c-.94,0-1.69-.75-1.69-1.69S.75,0,1.69,0h72.48c.66,0,1.26.39,1.54.99.27.6.17,1.31-.27,1.81l-29.99,34.28v23c0,.62-.33,1.18-.88,1.48-.25.14-.53.21-.81.21Z"/>
    </g>
  </g>
</svg>