<?xml version="1.0" encoding="UTF-8"?>
<svg id="Layer_2" data-name="Layer 2" xmlns="http://www.w3.org/2000/svg" viewBox="0 0 26.26 27.36">
  <defs>
    <style>
      .cls-1 {
        fill-rule: evenodd;
      }
    </style>
  </defs>
  <g id="_1" data-name="1">
    <path class="cls-1" d="M25.39,20.98c0,2-1.76,3.77-4.51,4.94V9.38c1.52-.2,3.02-.47,4.51-.81v12.41ZM12.03,5.07l-.44-1.6c-.37-.25-2.54-1.55-3.96.24l.66,2.42s.03.2.27.32c.22.1.55.1.97-.01.62-.17,1.44-.69,2.51-1.36h0ZM12.11,5.33l-.97,2.52,1.16-.35.63,1.03.92-2.45,2.03,1.64.02-1.2,1.18-.27-2.15-1.74c.03.2-.09.4-.28.44l-.67.18-.73.2-.71.18c-.18.06-.36-.03-.44-.19h0ZM13.55,4.96h.02s1.01-.28,1.01-.28c.07-.02.1-.08.08-.14l-.09-.35-.48-1.75c-.01-.07-.08-.1-.14-.08l-2.1.57c-.07,0-.1.08-.08.13l.49,1.83.08.27c.01.07.08.1.13.08l1.07-.28h0ZM17.96.92c-2.04-.81-3.25,1.22-3.51,1.74l.46,1.65c1.22.04,2.18.08,2.8-.09.42-.11.7-.27.84-.48.15-.22.08-.4.06-.42l-.64-2.4h0ZM20.05,26.24s-.08.04-.13.04c.04,0,.08-.03.13-.04h0ZM19.8,26.34s-.08.02-.13.03c.05-.01.08-.02.13-.03h0ZM19.55,26.42s-.08.02-.12.03c.04-.01.08-.02.12-.03h0ZM19.05,26.56s-.1.04-.15.05c.05,0,.1-.03.15-.05h0ZM18.52,26.71s-.09.02-.14.04c.05-.01.09-.02.14-.04h0ZM20.87,8.69v-.88l-4.42-2.82-.07-.07c.52,0,1.04-.04,1.46-.15.44-.11.91-.32,1.17-.71.18-.26.26-.62.15-.92l-.72-2.65-.27-.12c-.09-.02-.17-.06-.25-.08,4.88.62,8.33,2.19,8.33,4.02,0,.08,0,.16-.01.24h.01v1.8c0,2.09-3.88,2.12-5.39,2.34h0ZM12.17,2.25L8.98.21c1.31-.15,2.7-.21,4.15-.21,1.27,0,2.5.06,3.66.17-1.03.09-1.92.76-2.54,1.67-.13-.06-.29-.06-.44-.03l-1.64.45ZM20.75,25.97s-.07.03-.1.04l.1-.04ZM19.3,26.49s-.09.02-.13.03c.04,0,.09-.02.13-.03h0ZM18.79,26.64c-.06,0-.1.02-.16.03.06,0,.1-.02.16-.03h0ZM18.24,26.78s-.08.02-.12.02c.05,0,.09-.02.12-.02h0ZM17.97,26.83c-1.49.34-3.12.52-4.84.52-6.77,0-12.25-2.86-12.25-6.37v-12.55c4.29.95,8.54,1.44,12.73,1.44,1.47,0,2.92-.06,4.36-.17v17.13ZM.59,7.66C.22,7.24.01,6.81.01,6.36v-1.8h.01c-.01-.08-.02-.16-.02-.24C0,2.8,2.37,1.47,5.96.69l2.59,1.66c-.51.17-.98.49-1.38,1l-.18.23.73,2.67c.05.31.29.58.59.71.42.21.92.13,1.36.03.44-.13.95-.37,1.44-.66l-.92,2.43,1.85-.58.61,1.01c-3.96-.08-7.98-.58-12.06-1.52h0ZM16.48,7.4l.85.55.62.39h.02v.67c-1.44.11-2.89.18-4.36.18h-.32s.82-2.17.82-2.17l2.32,1.88.04-1.51Z"/>
  </g>
</svg>