<?xml version="1.0" encoding="UTF-8"?>
<svg id="Layer_2" data-name="Layer 2" xmlns="http://www.w3.org/2000/svg" xmlns:xlink="http://www.w3.org/1999/xlink" viewBox="0 0 69.25 76.03">
  <defs>
    <style>
      .cls-1 {
        opacity: .14;
      }

      .cls-2 {
        fill: url(#linear-gradient-2);
      }

      .cls-3 {
        opacity: .21;
      }

      .cls-4 {
        opacity: .42;
      }

      .cls-5 {
        opacity: .55;
      }

      .cls-6 {
        opacity: .48;
      }

      .cls-7 {
        opacity: .35;
      }

      .cls-8 {
        fill: url(#linear-gradient-3);
      }

      .cls-9 {
        opacity: .08;
      }

      .cls-10 {
        opacity: .28;
      }

      .cls-11 {
        opacity: 0;
      }

      .cls-12 {
        fill: url(#linear-gradient);
      }
    </style>
    <linearGradient id="linear-gradient" x1="18.24" y1="20.05" x2="47.78" y2="49.59" gradientUnits="userSpaceOnUse">
      <stop offset=".01" stop-color="#ff870a"/>
      <stop offset="1" stop-color="#ffdb4a"/>
    </linearGradient>
    <linearGradient id="linear-gradient-2" x1="16.54" y1="4.18" x2="47.07" y2="34.71" gradientUnits="userSpaceOnUse">
      <stop offset="0" stop-color="#3a3a3a"/>
      <stop offset="1" stop-color="#818181"/>
    </linearGradient>
    <linearGradient id="linear-gradient-3" x1="7.61" y1="12.99" x2="56.25" y2="61.63" gradientUnits="userSpaceOnUse">
      <stop offset="0" stop-color="#2c2e2c"/>
      <stop offset=".99" stop-color="#000"/>
    </linearGradient>
  </defs>
  <g id="Layer_1-2" data-name="Layer 1">
    <g>
      <path class="cls-12" d="M11.88,28.45c13-1.7,29.66-5.67,39.65-5.67,0,14.29.35,12.93.35,16.19s-4.9,14.69-14.97,14.69h-11.16s-8.39-.52-12.38-9.66c-1.48-3.38-1.5-9.23-1.5-15.55Z"/>
      <path class="cls-2" d="M37.32,1.69h-10.34c-12.65,0-15.1,13.88-15.1,16.73v10.03h40v-11.25c0-14.29-14.56-15.51-14.56-15.51Z"/>
      <g>
        <path class="cls-11" d="M33.32,60.98h8c9.8,0,17.78-7.98,17.78-17.78v-20.01c0-9.81-7.97-17.78-17.78-17.78h-8c-9.62,0-17.59,7.82-17.78,17.43,0,.11,0,1.96,0,2.07,0,.93.76,1.69,1.69,1.69s1.69-.76,1.69-1.69c0-.1,0-1.86,0-2,.11-5.77,3.69-10.74,8.71-12.93v6.74c0,.93.76,1.69,1.69,1.69s1.69-.76,1.69-1.69v-7.73c.76-.12,1.52-.2,2.31-.2h2.31v7.94c0,.93.76,1.69,1.69,1.69s1.69-.76,1.69-1.69v-7.94h2.31c.79,0,1.55.08,2.31.2v7.74c0,.93.76,1.69,1.69,1.69s1.69-.76,1.69-1.69v-6.76c5.12,2.21,8.71,7.3,8.71,13.23v20.01c0,7.94-6.46,14.4-14.4,14.4h-8c-7.94,0-14.4-6.46-14.4-14.4v-7.49h30.8c.93,0,1.69-.75,1.69-1.69s-.76-1.69-1.69-1.69H17.3s-.03,0-.04,0h-.01c-.94,0-1.7.75-1.7,1.69v9.18c0,9.8,7.98,17.78,17.78,17.78ZM67.56,35.51h-2.86c-.93,0-1.69.76-1.69,1.69v7.17c0,11.33-9.22,20.56-20.56,20.56h-10.24c-11.34,0-20.56-9.22-20.56-20.56v-7.17c0-.93-.76-1.69-1.69-1.69h-2.88c-.93,0-1.69.76-1.69,1.69s.76,1.69,1.69,1.69h1.19v5.48c0,13.2,10.74,23.93,23.94,23.93h3.42v4.35h-12.94c-.93,0-1.69.76-1.69,1.69s.76,1.69,1.69,1.69h29.26c.93,0,1.69-.76,1.69-1.69s-.76-1.69-1.69-1.69h-12.93v-4.35h3.43c13.2,0,23.94-10.74,23.94-23.93v-5.48h1.17c.93,0,1.69-.76,1.69-1.69s-.76-1.69-1.69-1.69Z"/>
        <path class="cls-9" d="M32.7,60.36h8c9.8,0,17.78-7.98,17.78-17.78v-20.01c0-9.81-7.97-17.78-17.78-17.78h-8c-9.62,0-17.59,7.82-17.78,17.43,0,.11,0,1.96,0,2.07,0,.93.76,1.69,1.69,1.69s1.69-.76,1.69-1.69c0-.1,0-1.86,0-2,.09-5.77,3.69-10.74,8.71-12.93v6.74c0,.93.76,1.69,1.69,1.69s1.69-.76,1.69-1.69v-7.73c.76-.12,1.52-.2,2.31-.2h2.31v7.94c0,.93.76,1.69,1.69,1.69s1.69-.76,1.69-1.69v-7.94h2.31c.79,0,1.55.08,2.31.2v7.74c0,.93.76,1.69,1.69,1.69s1.69-.76,1.69-1.69v-6.76c5.12,2.21,8.71,7.3,8.71,13.23v20.01c0,7.94-6.46,14.4-14.4,14.4h-8c-7.94,0-14.4-6.46-14.4-14.4v-7.49h30.8c.93,0,1.69-.75,1.69-1.69s-.76-1.69-1.69-1.69H16.68s-.03,0-.04,0h-.01c-.94,0-1.7.75-1.7,1.69v9.18c0,9.8,7.98,17.78,17.78,17.78ZM66.94,34.89h-2.86c-.93,0-1.69.76-1.69,1.69v7.17c0,11.33-9.22,20.56-20.56,20.56h-10.24c-11.34,0-20.56-9.22-20.56-20.56v-7.17c0-.93-.76-1.69-1.69-1.69h-2.88c-.93,0-1.69.76-1.69,1.69s.76,1.69,1.69,1.69h1.19v5.48c0,13.2,10.74,23.93,23.94,23.93h3.42v4.35h-12.94c-.93,0-1.69.76-1.69,1.69s.76,1.69,1.69,1.69h29.26c.93,0,1.69-.76,1.69-1.69s-.76-1.69-1.69-1.69h-12.93v-4.35h3.43c13.2,0,23.94-10.74,23.94-23.93v-5.48h1.17c.93,0,1.69-.76,1.69-1.69s-.76-1.69-1.69-1.69Z"/>
        <path class="cls-1" d="M32.07,59.73h8c9.8,0,17.78-7.98,17.78-17.78v-20.01c0-9.81-7.97-17.78-17.78-17.78h-8c-9.62,0-17.59,7.82-17.78,17.43,0,.11,0,1.96,0,2.07,0,.93.76,1.69,1.69,1.69s1.69-.76,1.69-1.69c0-.1,0-1.86,0-2,.09-5.77,3.69-10.74,8.71-12.93v6.74c0,.93.76,1.69,1.69,1.69s1.69-.76,1.69-1.69v-7.73c.76-.12,1.52-.2,2.31-.2h2.31v7.94c0,.93.76,1.69,1.69,1.69s1.69-.76,1.69-1.69v-7.94h2.31c.79,0,1.55.08,2.31.2v7.74c0,.93.76,1.69,1.69,1.69s1.69-.76,1.69-1.69v-6.76c5.12,2.21,8.71,7.3,8.71,13.23v20.01c0,7.94-6.46,14.4-14.4,14.4h-8c-7.94,0-14.4-6.46-14.4-14.4v-7.49h30.8c.93,0,1.69-.75,1.69-1.69s-.76-1.69-1.69-1.69H16.05s-.03,0-.04,0h-.01c-.94,0-1.7.75-1.7,1.69v9.18c0,9.8,7.98,17.78,17.78,17.78ZM66.31,34.26h-2.86c-.93,0-1.69.76-1.69,1.69v7.17c0,11.33-9.22,20.56-20.56,20.56h-10.24c-11.34,0-20.56-9.22-20.56-20.56v-7.17c0-.93-.76-1.69-1.69-1.69h-2.88c-.93,0-1.69.76-1.69,1.69s.76,1.69,1.69,1.69h1.19v5.48c0,13.2,10.74,23.93,23.94,23.93h3.42v4.35h-12.94c-.93,0-1.69.76-1.69,1.69s.76,1.69,1.69,1.69h29.26c.93,0,1.69-.76,1.69-1.69s-.76-1.69-1.69-1.69h-12.93v-4.35h3.43c13.2,0,23.94-10.74,23.94-23.93v-5.48h1.17c.93,0,1.69-.76,1.69-1.69s-.76-1.69-1.69-1.69Z"/>
        <path class="cls-3" d="M31.45,59.11h8c9.8,0,17.78-7.98,17.78-17.78v-20.01c0-9.81-7.97-17.78-17.78-17.78h-8c-9.62,0-17.59,7.82-17.78,17.43,0,.11,0,1.96,0,2.07,0,.93.76,1.69,1.69,1.69s1.69-.76,1.69-1.69c0-.1,0-1.86,0-2,.09-5.77,3.69-10.74,8.71-12.93v6.74c0,.93.76,1.69,1.69,1.69s1.69-.76,1.69-1.69v-7.73c.76-.12,1.52-.2,2.31-.2h2.31v7.94c0,.93.76,1.69,1.69,1.69s1.69-.76,1.69-1.69v-7.94h2.31c.79,0,1.55.08,2.31.2v7.74c0,.93.76,1.69,1.69,1.69s1.69-.76,1.69-1.69v-6.76c5.12,2.21,8.71,7.3,8.71,13.23v20.01c0,7.94-6.46,14.4-14.4,14.4h-8c-7.94,0-14.4-6.46-14.4-14.4v-7.49h30.8c.93,0,1.69-.75,1.69-1.69s-.76-1.69-1.69-1.69H15.43s-.03,0-.04,0h-.01c-.94,0-1.7.75-1.7,1.69v9.18c0,9.8,7.98,17.78,17.78,17.78ZM65.69,33.64h-2.86c-.93,0-1.69.76-1.69,1.69v7.17c0,11.33-9.22,20.56-20.56,20.56h-10.24c-11.34,0-20.56-9.22-20.56-20.56v-7.17c0-.93-.76-1.69-1.69-1.69h-2.88c-.93,0-1.69.76-1.69,1.69s.76,1.69,1.69,1.69h1.19v5.48c0,13.2,10.74,23.93,23.94,23.93h3.42v4.35h-12.94c-.93,0-1.69.76-1.69,1.69s.76,1.69,1.69,1.69h29.26c.93,0,1.69-.76,1.69-1.69s-.76-1.69-1.69-1.69h-12.93v-4.35h3.43c13.2,0,23.94-10.74,23.94-23.93v-5.48h1.17c.93,0,1.69-.76,1.69-1.69s-.76-1.69-1.69-1.69Z"/>
        <path class="cls-10" d="M30.82,58.48h8c9.8,0,17.78-7.98,17.78-17.78v-20.01c0-9.81-7.97-17.78-17.78-17.78h-8c-9.62,0-17.59,7.82-17.78,17.43,0,.11,0,1.96,0,2.07,0,.93.76,1.69,1.69,1.69s1.69-.76,1.69-1.69c0-.1,0-1.86,0-2,.09-5.77,3.69-10.74,8.71-12.93v6.74c0,.93.76,1.69,1.69,1.69s1.69-.76,1.69-1.69v-7.73c.76-.12,1.52-.2,2.31-.2h2.31v7.94c0,.93.76,1.69,1.69,1.69s1.69-.76,1.69-1.69v-7.94h2.31c.79,0,1.55.08,2.31.2v7.74c0,.93.76,1.69,1.69,1.69s1.69-.76,1.69-1.69v-6.76c5.12,2.21,8.71,7.3,8.71,13.23v20.01c0,7.94-6.46,14.4-14.4,14.4h-8c-7.94,0-14.4-6.46-14.4-14.4v-7.49h30.8c.93,0,1.69-.75,1.69-1.69s-.76-1.69-1.69-1.69H14.8s-.03,0-.04,0h-.01c-.94,0-1.7.75-1.7,1.69v9.18c0,9.8,7.98,17.78,17.78,17.78ZM65.06,33.01h-2.86c-.93,0-1.69.76-1.69,1.69v7.17c0,11.33-9.22,20.56-20.56,20.56h-10.24c-11.34,0-20.56-9.22-20.56-20.56v-7.17c0-.93-.76-1.69-1.69-1.69h-2.88c-.93,0-1.69.76-1.69,1.69s.76,1.69,1.69,1.69h1.19v5.48c0,13.2,10.74,23.93,23.94,23.93h3.42v4.35h-12.94c-.93,0-1.69.76-1.69,1.69s.76,1.69,1.69,1.69h29.26c.93,0,1.69-.76,1.69-1.69s-.76-1.69-1.69-1.69h-12.93v-4.35h3.43c13.2,0,23.94-10.74,23.94-23.93v-5.48h1.17c.93,0,1.69-.76,1.69-1.69s-.76-1.69-1.69-1.69Z"/>
        <path class="cls-7" d="M30.2,57.86h8c9.8,0,17.78-7.98,17.78-17.78v-20.01c0-9.81-7.97-17.78-17.78-17.78h-8c-9.62,0-17.59,7.82-17.78,17.43,0,.11,0,1.96,0,2.07,0,.93.76,1.69,1.69,1.69s1.69-.76,1.69-1.69c0-.1,0-1.86,0-2,.09-5.77,3.69-10.74,8.71-12.93v6.74c0,.93.76,1.69,1.69,1.69s1.69-.76,1.69-1.69v-7.73c.76-.12,1.52-.2,2.31-.2h2.31v7.94c0,.93.76,1.69,1.69,1.69s1.69-.76,1.69-1.69v-7.94h2.31c.79,0,1.55.08,2.31.2v7.74c0,.93.76,1.69,1.69,1.69s1.69-.76,1.69-1.69v-6.76c5.12,2.21,8.71,7.3,8.71,13.23v20.01c0,7.94-6.46,14.4-14.4,14.4h-8c-7.94,0-14.4-6.46-14.4-14.4v-7.49h30.8c.93,0,1.69-.75,1.69-1.69s-.76-1.69-1.69-1.69H14.18s-.03,0-.04,0h-.01c-.94,0-1.7.75-1.7,1.69v9.18c0,9.8,7.98,17.78,17.78,17.78ZM64.44,32.39h-2.86c-.93,0-1.69.76-1.69,1.69v7.17c0,11.33-9.22,20.56-20.56,20.56h-10.24c-11.34,0-20.56-9.22-20.56-20.56v-7.17c0-.93-.76-1.69-1.69-1.69h-2.88c-.93,0-1.69.76-1.69,1.69s.76,1.69,1.69,1.69h1.19v5.48c0,13.2,10.74,23.93,23.94,23.93h3.42v4.35h-12.94c-.93,0-1.69.76-1.69,1.69s.76,1.69,1.69,1.69h29.26c.93,0,1.69-.76,1.69-1.69s-.76-1.69-1.69-1.69h-12.93v-4.35h3.43c13.2,0,23.94-10.74,23.94-23.93v-5.48h1.17c.93,0,1.69-.76,1.69-1.69s-.76-1.69-1.69-1.69Z"/>
        <path class="cls-4" d="M29.57,57.23h8c9.8,0,17.78-7.98,17.78-17.78v-20.01c0-9.81-7.97-17.78-17.78-17.78h-8c-9.62,0-17.59,7.82-17.78,17.43,0,.11,0,1.96,0,2.07,0,.93.76,1.69,1.69,1.69s1.69-.76,1.69-1.69c0-.1,0-1.86,0-2,.09-5.77,3.69-10.74,8.71-12.93v6.74c0,.93.76,1.69,1.69,1.69s1.69-.76,1.69-1.69v-7.73c.76-.12,1.52-.2,2.31-.2h2.31v7.94c0,.93.76,1.69,1.69,1.69s1.69-.76,1.69-1.69v-7.94h2.31c.79,0,1.55.08,2.31.2v7.74c0,.93.76,1.69,1.69,1.69s1.69-.76,1.69-1.69v-6.76c5.12,2.21,8.71,7.3,8.71,13.23v20.01c0,7.94-6.46,14.4-14.4,14.4h-8c-7.94,0-14.4-6.46-14.4-14.4v-7.49h30.8c.93,0,1.69-.75,1.69-1.69s-.76-1.69-1.69-1.69H13.55s-.03,0-.04,0h-.01c-.94,0-1.7.75-1.7,1.69v9.18c0,9.8,7.98,17.78,17.78,17.78ZM63.81,31.76h-2.86c-.93,0-1.69.76-1.69,1.69v7.17c0,11.33-9.22,20.56-20.56,20.56h-10.24c-11.34,0-20.56-9.22-20.56-20.56v-7.17c0-.93-.76-1.69-1.69-1.69h-2.88c-.93,0-1.69.76-1.69,1.69s.76,1.69,1.69,1.69h1.19v5.48c0,13.2,10.74,23.93,23.94,23.93h3.42v4.35h-12.94c-.93,0-1.69.76-1.69,1.69s.76,1.69,1.69,1.69h29.26c.93,0,1.69-.76,1.69-1.69s-.76-1.69-1.69-1.69h-12.93v-4.35h3.43c13.2,0,23.94-10.74,23.94-23.93v-5.48h1.17c.93,0,1.69-.76,1.69-1.69s-.76-1.69-1.69-1.69Z"/>
        <path class="cls-6" d="M28.95,56.61h8c9.8,0,17.78-7.98,17.78-17.78v-20.01c0-9.81-7.97-17.78-17.78-17.78h-8c-9.62,0-17.59,7.82-17.78,17.43,0,.11,0,1.96,0,2.07,0,.93.76,1.69,1.69,1.69s1.69-.76,1.69-1.69c0-.1,0-1.86,0-2,.09-5.77,3.69-10.74,8.71-12.93v6.74c0,.93.76,1.69,1.69,1.69s1.69-.76,1.69-1.69v-7.73c.76-.12,1.52-.2,2.31-.2h2.31v7.94c0,.93.76,1.69,1.69,1.69s1.69-.76,1.69-1.69v-7.94h2.31c.79,0,1.55.08,2.31.2v7.74c0,.93.76,1.69,1.69,1.69s1.69-.76,1.69-1.69v-6.76c5.12,2.21,8.71,7.3,8.71,13.23v20.01c0,7.94-6.46,14.4-14.4,14.4h-8c-7.94,0-14.4-6.46-14.4-14.4v-7.49h30.8c.93,0,1.69-.75,1.69-1.69s-.76-1.69-1.69-1.69H12.93s-.03,0-.04,0h-.01c-.94,0-1.7.75-1.7,1.69v9.18c0,9.8,7.98,17.78,17.78,17.78ZM63.19,31.14h-2.86c-.93,0-1.69.76-1.69,1.69v7.17c0,11.33-9.22,20.56-20.56,20.56h-10.24c-11.34,0-20.56-9.22-20.56-20.56v-7.17c0-.93-.76-1.69-1.69-1.69h-2.88c-.93,0-1.69.76-1.69,1.69s.76,1.69,1.69,1.69h1.19v5.48c0,13.2,10.74,23.93,23.94,23.93h3.42v4.35h-12.94c-.93,0-1.69.76-1.69,1.69s.76,1.69,1.69,1.69h29.26c.93,0,1.69-.76,1.69-1.69s-.76-1.69-1.69-1.69h-12.93v-4.35h3.43c13.2,0,23.94-10.74,23.94-23.93v-5.48h1.17c.93,0,1.69-.76,1.69-1.69s-.76-1.69-1.69-1.69Z"/>
        <path class="cls-5" d="M28.32,55.98h8c9.8,0,17.78-7.98,17.78-17.78v-20.01C54.11,8.38,46.13.41,36.33.41h-8C18.71.41,10.74,8.23,10.55,17.84c0,.11,0,1.96,0,2.07,0,.93.76,1.69,1.69,1.69s1.69-.76,1.69-1.69c0-.1,0-1.86,0-2,.11-5.77,3.69-10.74,8.71-12.93v6.74c0,.93.76,1.69,1.69,1.69s1.69-.76,1.69-1.69V3.99c.76-.12,1.52-.2,2.31-.2h2.31v7.94c0,.93.76,1.69,1.69,1.69s1.69-.76,1.69-1.69V3.78h2.31c.79,0,1.55.08,2.31.2v7.74c0,.93.76,1.69,1.69,1.69s1.69-.76,1.69-1.69v-6.76c5.12,2.21,8.71,7.3,8.71,13.23v20.01c0,7.94-6.46,14.4-14.4,14.4h-8c-7.94,0-14.4-6.46-14.4-14.4v-7.49h30.8c.93,0,1.69-.75,1.69-1.69s-.76-1.69-1.69-1.69H12.3s-.03,0-.04,0h-.01c-.94,0-1.7.75-1.7,1.69v9.18c0,9.8,7.98,17.78,17.78,17.78ZM62.56,30.51h-2.86c-.93,0-1.69.76-1.69,1.69v7.17c0,11.33-9.22,20.56-20.56,20.56h-10.24c-11.34,0-20.56-9.22-20.56-20.56v-7.17c0-.93-.76-1.69-1.69-1.69h-2.88c-.93,0-1.69.76-1.69,1.69s.76,1.69,1.69,1.69h1.19v5.48c0,13.2,10.74,23.93,23.94,23.93h3.42v4.35h-12.94c-.93,0-1.69.76-1.69,1.69s.76,1.69,1.69,1.69h29.26c.93,0,1.69-.76,1.69-1.69s-.76-1.69-1.69-1.69h-12.93v-4.35h3.43c13.2,0,23.94-10.74,23.94-23.93v-5.48h1.17c.93,0,1.69-.76,1.69-1.69s-.76-1.69-1.69-1.69Z"/>
      </g>
      <path class="cls-8" d="M27.92,55.58h8c9.8,0,17.78-7.98,17.78-17.78v-20.01C53.7,7.98,45.73,0,35.92,0h-8C18.3,0,10.33,7.82,10.14,17.43c0,.11,0,1.96,0,2.07,0,.93.76,1.69,1.69,1.69s1.69-.76,1.69-1.69c0-.1,0-1.86,0-2,.11-5.77,3.69-10.74,8.71-12.93v6.74c0,.93.76,1.69,1.69,1.69s1.69-.76,1.69-1.69V3.58c.76-.12,1.52-.2,2.31-.2h2.31v7.94c0,.93.76,1.69,1.69,1.69s1.69-.76,1.69-1.69V3.38h2.31c.79,0,1.55.08,2.31.2v7.74c0,.93.76,1.69,1.69,1.69s1.69-.76,1.69-1.69v-6.76c5.12,2.21,8.71,7.3,8.71,13.23v20.01c0,7.94-6.46,14.4-14.4,14.4h-8c-7.94,0-14.4-6.46-14.4-14.4v-7.49h30.8c.93,0,1.69-.75,1.69-1.69s-.76-1.69-1.69-1.69H11.89s-.03,0-.04,0h-.01c-.94,0-1.7.75-1.7,1.69v9.18c0,9.8,7.98,17.78,17.78,17.78ZM62.15,30.11h-2.86c-.93,0-1.69.76-1.69,1.69v7.17c0,11.33-9.22,20.56-20.56,20.56h-10.24c-11.34,0-20.56-9.22-20.56-20.56v-7.17c0-.93-.76-1.69-1.69-1.69H1.69c-.93,0-1.69.76-1.69,1.69s.76,1.69,1.69,1.69h1.19v5.48c0,13.2,10.74,23.93,23.94,23.93h3.42v4.35h-12.94c-.93,0-1.69.76-1.69,1.69s.76,1.69,1.69,1.69h29.26c.93,0,1.69-.76,1.69-1.69s-.76-1.69-1.69-1.69h-12.93v-4.35h3.43c13.2,0,23.94-10.74,23.94-23.93v-5.48h1.17c.93,0,1.69-.76,1.69-1.69s-.76-1.69-1.69-1.69Z"/>
    </g>
  </g>
</svg>