<?xml version="1.0" encoding="UTF-8"?>
<svg id="Layer_2" data-name="Layer 2" xmlns="http://www.w3.org/2000/svg" xmlns:xlink="http://www.w3.org/1999/xlink" viewBox="0 0 80.19 80.74">
  <defs>
    <style>
      .cls-1 {
        opacity: .14;
      }

      .cls-2 {
        fill: url(#linear-gradient-2);
      }

      .cls-3 {
        opacity: .21;
      }

      .cls-4 {
        opacity: .42;
      }

      .cls-5 {
        opacity: .55;
      }

      .cls-6 {
        opacity: .48;
      }

      .cls-7 {
        opacity: .35;
      }

      .cls-8 {
        opacity: .08;
      }

      .cls-9 {
        opacity: .28;
      }

      .cls-10 {
        opacity: 0;
      }

      .cls-11 {
        fill: url(#linear-gradient);
      }
    </style>
    <linearGradient id="linear-gradient" x1="23.26" y1="17.74" x2="66.92" y2="61.4" gradientUnits="userSpaceOnUse">
      <stop offset="0" stop-color="#c0c1c0"/>
      <stop offset=".2" stop-color="#d4d4d4"/>
      <stop offset=".49" stop-color="#ebeceb"/>
      <stop offset=".77" stop-color="#fafafa"/>
      <stop offset="1" stop-color="#fff"/>
    </linearGradient>
    <linearGradient id="linear-gradient-2" x1="15.95" y1="18.88" x2="71.46" y2="74.4" gradientUnits="userSpaceOnUse">
      <stop offset="0" stop-color="#2c2e2c"/>
      <stop offset=".99" stop-color="#000"/>
    </linearGradient>
  </defs>
  <g id="Layer_1-2" data-name="Layer 1">
    <g>
      <path class="cls-11" d="M17.06,25.69v18.57c0,5.19,3.3,15.11,12.9,21.56h29.9s11.02-8.18,12.59-18.25c1.57-10.07.63-22.19.63-22.19l-56.02.31Z"/>
      <g>
        <path class="cls-10" d="M56.96,24.96c.93,0,1.69-.76,1.69-1.69v-9.84c0-.93-.75-1.69-1.69-1.69s-1.69.75-1.69,1.69v9.84c0,.93.76,1.69,1.69,1.69ZM44.71,24.96c.93,0,1.69-.76,1.69-1.69V7.09c0-.93-.76-1.69-1.69-1.69s-1.69.76-1.69,1.69v16.18c0,.93.76,1.69,1.69,1.69ZM76.81,48.44c0,8.57-4.56,16.54-11.93,20.91h-29.15s-.02-.01-.03-.02c-7.33-4.37-11.88-12.38-11.88-20.9v-16.04h52.99v16.04ZM78.5,29.02H22.13c-.93,0-1.69.75-1.69,1.69v17.73c0,3.88.84,7.65,2.37,11.11-14.18-2.09-14.06-11.96-14.02-15.82,0-.21,0-.39,0-.55,0-1.07,0-3.56,5.31-3.56.93,0,1.69-.76,1.69-1.69s-.76-1.69-1.69-1.69c-7.56,0-8.69,4.35-8.69,6.94v.51c-.03,2.18-.09,6.71,2.44,10.9,3.03,5.03,8.71,7.91,16.87,8.59,2.25,3.56,5.29,6.64,8.98,8.9.31.4.79.67,1.33.67h30.4c.47,0,.89-.19,1.19-.5,8.37-4.98,13.55-14.05,13.55-23.8v-17.73c0-.93-.75-1.69-1.69-1.69ZM75.24,77.36H25.39c-.93,0-1.69.76-1.69,1.69s.75,1.69,1.69,1.69h49.85c.93,0,1.69-.76,1.69-1.69s-.76-1.69-1.69-1.69ZM33.13,24.96c.93,0,1.69-.76,1.69-1.69v-6.78c0-.93-.76-1.69-1.69-1.69s-1.69.76-1.69,1.69v6.78c0,.93.76,1.69,1.69,1.69Z"/>
        <path class="cls-8" d="M56.33,24.34c.93,0,1.69-.76,1.69-1.69v-9.84c0-.93-.75-1.69-1.69-1.69s-1.69.75-1.69,1.69v9.84c0,.93.76,1.69,1.69,1.69ZM44.09,24.34c.93,0,1.69-.76,1.69-1.69V6.47c0-.93-.76-1.69-1.69-1.69s-1.69.76-1.69,1.69v16.18c0,.93.76,1.69,1.69,1.69ZM76.18,47.81c0,8.57-4.56,16.54-11.93,20.91h-29.15s-.02-.01-.03-.02c-7.41-4.23-11.88-12.38-11.88-20.9v-16.04h52.99v16.04ZM77.87,28.39H21.51c-.93,0-1.69.75-1.69,1.69v17.73c0,3.88.84,7.65,2.37,11.11-14.18-2.09-14.06-11.96-14.02-15.82,0-.21,0-.39,0-.55,0-1.07,0-3.56,5.31-3.56.93,0,1.69-.76,1.69-1.69s-.76-1.69-1.69-1.69c-7.56,0-8.69,4.35-8.69,6.94v.51c-.03,2.18-.09,6.71,2.44,10.9,3.03,5.03,8.71,7.91,16.87,8.59,2.25,3.56,5.29,6.64,8.98,8.9.31.4.79.67,1.33.67h30.4c.47,0,.89-.19,1.19-.5,8.37-4.98,13.55-14.05,13.55-23.8v-17.73c0-.93-.75-1.69-1.69-1.69ZM74.62,76.73H24.76c-.93,0-1.69.76-1.69,1.69s.75,1.69,1.69,1.69h49.85c.93,0,1.69-.76,1.69-1.69s-.76-1.69-1.69-1.69ZM32.5,24.34c.93,0,1.69-.76,1.69-1.69v-6.78c0-.93-.76-1.69-1.69-1.69s-1.69.76-1.69,1.69v6.78c0,.93.76,1.69,1.69,1.69Z"/>
        <path class="cls-1" d="M55.71,23.71c.93,0,1.69-.76,1.69-1.69v-9.84c0-.93-.75-1.69-1.69-1.69s-1.69.75-1.69,1.69v9.84c0,.93.76,1.69,1.69,1.69ZM43.46,23.71c.93,0,1.69-.76,1.69-1.69V5.84c0-.93-.76-1.69-1.69-1.69s-1.69.76-1.69,1.69v16.18c0,.93.76,1.69,1.69,1.69ZM75.56,47.19c0,8.57-4.56,16.54-11.93,20.91h-29.15s-.02-.01-.03-.02c-7.41-4.23-11.88-12.38-11.88-20.9v-16.04h52.99v16.04ZM77.25,27.77H20.88c-.93,0-1.69.75-1.69,1.69v17.73c0,3.88.84,7.65,2.37,11.11-14.18-2.09-14.06-11.96-14.02-15.82,0-.21,0-.39,0-.55,0-1.07,0-3.56,5.31-3.56.93,0,1.69-.76,1.69-1.69s-.76-1.69-1.69-1.69c-7.56,0-8.69,4.35-8.69,6.94v.51c-.03,2.18-.09,6.71,2.44,10.9,3.03,5.03,8.71,7.91,16.87,8.59,2.25,3.56,5.29,6.64,8.98,8.9.31.4.79.67,1.33.67h30.4c.47,0,.89-.19,1.19-.5,8.37-4.98,13.55-14.05,13.55-23.8v-17.73c0-.93-.75-1.69-1.69-1.69ZM73.99,76.11H24.14c-.93,0-1.69.76-1.69,1.69s.75,1.69,1.69,1.69h49.85c.93,0,1.69-.76,1.69-1.69s-.76-1.69-1.69-1.69ZM31.88,23.71c.93,0,1.69-.76,1.69-1.69v-6.78c0-.93-.76-1.69-1.69-1.69s-1.69.76-1.69,1.69v6.78c0,.93.76,1.69,1.69,1.69Z"/>
        <path class="cls-3" d="M55.08,23.09c.93,0,1.69-.76,1.69-1.69v-9.84c0-.93-.75-1.69-1.69-1.69s-1.69.75-1.69,1.69v9.84c0,.93.76,1.69,1.69,1.69ZM42.84,23.09c.93,0,1.69-.76,1.69-1.69V5.22c0-.93-.76-1.69-1.69-1.69s-1.69.76-1.69,1.69v16.18c0,.93.76,1.69,1.69,1.69ZM74.93,46.56c0,8.57-4.56,16.54-11.93,20.91h-29.15s-.02-.01-.03-.02c-7.41-4.23-11.88-12.38-11.88-20.9v-16.04h52.99v16.04ZM76.62,27.14H20.26c-.93,0-1.69.75-1.69,1.69v17.73c0,3.88.84,7.65,2.37,11.11-14.18-2.09-14.06-11.96-14.02-15.82,0-.21,0-.39,0-.55,0-1.07,0-3.56,5.31-3.56.93,0,1.69-.76,1.69-1.69s-.76-1.69-1.69-1.69c-7.56,0-8.69,4.35-8.69,6.94v.51c-.03,2.18-.09,6.71,2.44,10.9,3.03,5.03,8.71,7.91,16.87,8.59,2.25,3.56,5.29,6.64,8.98,8.9.31.4.79.67,1.33.67h30.4c.47,0,.89-.19,1.19-.5,8.37-4.98,13.55-14.05,13.55-23.8v-17.73c0-.93-.75-1.69-1.69-1.69ZM73.37,75.48H23.51c-.93,0-1.69.76-1.69,1.69s.75,1.69,1.69,1.69h49.85c.93,0,1.69-.76,1.69-1.69s-.76-1.69-1.69-1.69ZM31.25,23.09c.93,0,1.69-.76,1.69-1.69v-6.78c0-.93-.76-1.69-1.69-1.69s-1.69.76-1.69,1.69v6.78c0,.93.76,1.69,1.69,1.69Z"/>
        <path class="cls-9" d="M54.46,22.46c.93,0,1.69-.76,1.69-1.69v-9.84c0-.93-.75-1.69-1.69-1.69s-1.69.75-1.69,1.69v9.84c0,.93.76,1.69,1.69,1.69ZM42.21,22.46c.93,0,1.69-.76,1.69-1.69V4.59c0-.93-.76-1.69-1.69-1.69s-1.69.76-1.69,1.69v16.18c0,.93.76,1.69,1.69,1.69ZM74.31,45.94c0,8.57-4.56,16.54-11.93,20.91h-29.15s-.02-.01-.03-.02c-7.41-4.23-11.88-12.38-11.88-20.9v-16.04h52.99v16.04ZM76,26.52H19.63c-.93,0-1.69.75-1.69,1.69v17.73c0,3.88.84,7.65,2.37,11.11-14.18-2.09-14.06-11.96-14.02-15.82,0-.21,0-.39,0-.55,0-1.07,0-3.56,5.31-3.56.93,0,1.69-.76,1.69-1.69s-.76-1.69-1.69-1.69c-7.56,0-8.69,4.35-8.69,6.94v.51c-.03,2.18-.09,6.71,2.44,10.9,3.03,5.03,8.71,7.91,16.87,8.59,2.25,3.56,5.29,6.64,8.98,8.9.31.4.79.67,1.33.67h30.4c.47,0,.89-.19,1.19-.5,8.37-4.98,13.55-14.05,13.55-23.8v-17.73c0-.93-.75-1.69-1.69-1.69ZM72.74,74.86H22.89c-.93,0-1.69.76-1.69,1.69s.75,1.69,1.69,1.69h49.85c.93,0,1.69-.76,1.69-1.69s-.76-1.69-1.69-1.69ZM30.63,22.46c.93,0,1.69-.76,1.69-1.69v-6.78c0-.93-.76-1.69-1.69-1.69s-1.69.76-1.69,1.69v6.78c0,.93.76,1.69,1.69,1.69Z"/>
        <path class="cls-7" d="M53.83,21.84c.93,0,1.69-.76,1.69-1.69v-9.84c0-.93-.75-1.69-1.69-1.69s-1.69.75-1.69,1.69v9.84c0,.93.76,1.69,1.69,1.69ZM41.59,21.84c.93,0,1.69-.76,1.69-1.69V3.97c0-.93-.76-1.69-1.69-1.69s-1.69.76-1.69,1.69v16.18c0,.93.76,1.69,1.69,1.69ZM73.68,45.31c0,8.57-4.56,16.54-11.93,20.91h-29.15s-.02-.01-.03-.02c-7.41-4.23-11.88-12.38-11.88-20.9v-16.04h52.99v16.04ZM75.37,25.89H19.01c-.93,0-1.69.75-1.69,1.69v17.73c0,3.88.84,7.65,2.37,11.11-14.18-2.09-14.06-11.96-14.02-15.82,0-.21,0-.39,0-.55,0-1.07,0-3.56,5.31-3.56.93,0,1.69-.76,1.69-1.69s-.76-1.69-1.69-1.69c-7.56,0-8.69,4.35-8.69,6.94v.51c-.03,2.18-.09,6.71,2.44,10.9,3.03,5.03,8.71,7.91,16.87,8.59,2.25,3.56,5.29,6.64,8.98,8.9.31.4.79.67,1.33.67h30.4c.47,0,.89-.19,1.19-.5,8.37-4.98,13.55-14.05,13.55-23.8v-17.73c0-.93-.75-1.69-1.69-1.69ZM72.12,74.23H22.26c-.93,0-1.69.76-1.69,1.69s.75,1.69,1.69,1.69h49.85c.93,0,1.69-.76,1.69-1.69s-.76-1.69-1.69-1.69ZM30,21.84c.93,0,1.69-.76,1.69-1.69v-6.78c0-.93-.76-1.69-1.69-1.69s-1.69.76-1.69,1.69v6.78c0,.93.76,1.69,1.69,1.69Z"/>
        <path class="cls-4" d="M53.21,21.21c.93,0,1.69-.76,1.69-1.69v-9.84c0-.93-.75-1.69-1.69-1.69s-1.69.75-1.69,1.69v9.84c0,.93.76,1.69,1.69,1.69ZM40.96,21.21c.93,0,1.69-.76,1.69-1.69V3.34c0-.93-.76-1.69-1.69-1.69s-1.69.76-1.69,1.69v16.18c0,.93.76,1.69,1.69,1.69ZM73.06,44.69c0,8.57-4.56,16.54-11.93,20.91h-29.15s-.02-.01-.03-.02c-7.41-4.23-11.88-12.38-11.88-20.9v-16.04h52.99v16.04ZM74.75,25.27H18.38c-.93,0-1.69.75-1.69,1.69v17.73c0,3.88.84,7.65,2.37,11.11-14.18-2.09-14.06-11.96-14.02-15.82,0-.21,0-.39,0-.55,0-1.07,0-3.56,5.31-3.56.93,0,1.69-.76,1.69-1.69s-.76-1.69-1.69-1.69c-7.56,0-8.69,4.35-8.69,6.94v.51c-.03,2.18-.09,6.71,2.44,10.9,3.03,5.03,8.71,7.91,16.87,8.59,2.25,3.56,5.29,6.64,8.98,8.9.31.4.79.67,1.33.67h30.4c.47,0,.89-.19,1.19-.5,8.37-4.98,13.55-14.05,13.55-23.8v-17.73c0-.93-.75-1.69-1.69-1.69ZM71.49,73.61H21.64c-.93,0-1.69.76-1.69,1.69s.75,1.69,1.69,1.69h49.85c.93,0,1.69-.76,1.69-1.69s-.76-1.69-1.69-1.69ZM29.38,21.21c.93,0,1.69-.76,1.69-1.69v-6.78c0-.93-.76-1.69-1.69-1.69s-1.69.76-1.69,1.69v6.78c0,.93.76,1.69,1.69,1.69Z"/>
        <path class="cls-6" d="M52.58,20.59c.93,0,1.69-.76,1.69-1.69v-9.84c0-.93-.75-1.69-1.69-1.69s-1.69.75-1.69,1.69v9.84c0,.93.76,1.69,1.69,1.69ZM40.34,20.59c.93,0,1.69-.76,1.69-1.69V2.72c0-.93-.76-1.69-1.69-1.69s-1.69.76-1.69,1.69v16.18c0,.93.76,1.69,1.69,1.69ZM72.43,44.06c0,8.57-4.56,16.54-11.93,20.91h-29.15s-.02-.01-.03-.02c-7.41-4.23-11.88-12.38-11.88-20.9v-16.04h52.99v16.04ZM74.12,24.64H17.76c-.93,0-1.69.75-1.69,1.69v17.73c0,3.88.84,7.65,2.37,11.11-14.18-2.09-14.06-11.96-14.02-15.82,0-.21,0-.39,0-.55,0-1.07,0-3.56,5.31-3.56.93,0,1.69-.76,1.69-1.69s-.76-1.69-1.69-1.69c-7.56,0-8.69,4.35-8.69,6.94v.51c-.03,2.18-.09,6.71,2.44,10.9,3.03,5.03,8.71,7.91,16.87,8.59,2.25,3.56,5.29,6.64,8.98,8.9.31.4.79.67,1.33.67h30.4c.47,0,.89-.19,1.19-.5,8.37-4.98,13.55-14.05,13.55-23.8v-17.73c0-.93-.75-1.69-1.69-1.69ZM70.87,72.98H21.01c-.93,0-1.69.76-1.69,1.69s.75,1.69,1.69,1.69h49.85c.93,0,1.69-.76,1.69-1.69s-.76-1.69-1.69-1.69ZM28.75,20.59c.93,0,1.69-.76,1.69-1.69v-6.78c0-.93-.76-1.69-1.69-1.69s-1.69.76-1.69,1.69v6.78c0,.93.76,1.69,1.69,1.69Z"/>
        <path class="cls-5" d="M51.96,19.96c.93,0,1.69-.76,1.69-1.69v-9.84c0-.93-.75-1.69-1.69-1.69s-1.69.75-1.69,1.69v9.84c0,.93.76,1.69,1.69,1.69ZM39.71,19.96c.93,0,1.69-.76,1.69-1.69V2.09c0-.93-.76-1.69-1.69-1.69s-1.69.76-1.69,1.69v16.18c0,.93.76,1.69,1.69,1.69ZM71.81,43.44c0,8.57-4.56,16.54-11.93,20.91h-29.15s-.02-.01-.03-.02c-7.33-4.37-11.88-12.38-11.88-20.9v-16.04h52.99v16.04ZM73.5,24.02H17.13c-.93,0-1.69.75-1.69,1.69v17.73c0,3.88.84,7.65,2.37,11.11-14.18-2.09-14.06-11.96-14.02-15.82,0-.21,0-.39,0-.55,0-1.07,0-3.56,5.31-3.56.93,0,1.69-.76,1.69-1.69s-.76-1.69-1.69-1.69C1.55,31.23.42,35.58.42,38.17v.51c-.03,2.18-.09,6.71,2.44,10.9,3.03,5.03,8.71,7.91,16.87,8.59,2.25,3.56,5.29,6.64,8.98,8.9.31.4.79.67,1.33.67h30.4c.47,0,.89-.19,1.19-.5,8.37-4.98,13.55-14.05,13.55-23.8v-17.73c0-.93-.75-1.69-1.69-1.69ZM70.24,72.36H20.39c-.93,0-1.69.76-1.69,1.69s.75,1.69,1.69,1.69h49.85c.93,0,1.69-.76,1.69-1.69s-.76-1.69-1.69-1.69ZM28.13,19.96c.93,0,1.69-.76,1.69-1.69v-6.78c0-.93-.76-1.69-1.69-1.69s-1.69.76-1.69,1.69v6.78c0,.93.76,1.69,1.69,1.69Z"/>
      </g>
      <path class="cls-2" d="M73.09,23.61H16.72c-.93,0-1.69.75-1.69,1.69v17.73c0,3.88.84,7.65,2.37,11.11-14.18-2.09-14.06-11.96-14.02-15.82,0-.21,0-.39,0-.55,0-1.07,0-3.56,5.31-3.56.93,0,1.69-.76,1.69-1.69s-.76-1.69-1.69-1.69C1.14,30.83.01,35.18.01,37.77v.51c-.03,2.18-.09,6.71,2.44,10.9,3.03,5.03,8.71,7.91,16.87,8.59,2.25,3.56,5.29,6.64,8.98,8.9.31.4.79.67,1.33.67h30.4c.47,0,.89-.19,1.19-.5,8.37-4.98,13.55-14.05,13.55-23.8v-17.73c0-.93-.75-1.69-1.69-1.69ZM71.4,43.03c0,8.57-4.56,16.55-11.93,20.91h-29.15s-.02-.01-.03-.02c-7.33-4.37-11.88-12.38-11.88-20.9v-16.04h52.99v16.04ZM69.84,71.95H19.98c-.93,0-1.69.76-1.69,1.69s.75,1.69,1.69,1.69h49.85c.93,0,1.69-.76,1.69-1.69s-.76-1.69-1.69-1.69ZM39.31,19.56c.93,0,1.69-.76,1.69-1.69V1.69c0-.93-.76-1.69-1.69-1.69s-1.69.76-1.69,1.69v16.18c0,.93.76,1.69,1.69,1.69ZM51.55,19.56c.93,0,1.69-.76,1.69-1.69v-9.84c0-.93-.75-1.69-1.69-1.69s-1.69.75-1.69,1.69v9.84c0,.93.76,1.69,1.69,1.69ZM27.72,19.56c.93,0,1.69-.76,1.69-1.69v-6.78c0-.93-.76-1.69-1.69-1.69s-1.69.76-1.69,1.69v6.78c0,.93.76,1.69,1.69,1.69Z"/>
    </g>
  </g>
</svg>