<?xml version="1.0" encoding="UTF-8"?>
<svg id="Layer_2" data-name="Layer 2" xmlns="http://www.w3.org/2000/svg" viewBox="0 0 15.71 27.35">
  <defs>
    <style>
      .cls-1 {
        fill-rule: evenodd;
      }
    </style>
  </defs>
  <g id="_1" data-name="1">
    <path class="cls-1" d="M.72,6.06l.14.25c.26.45.53.91.78,1.37h.03s.14.28.14.28c1.8-.1,3.76-.67,5.64-1.73,1.5-.85,2.76-1.92,3.72-3.07-.48-1.04-.99-2.06-1.6-3.03C6.58-.43,2.21.81,0,4.45c.21.61.44,1.14.72,1.61h0ZM2.52,9.5c.5,1.11.97,2.24,1.12,2.83.39,1.54-.02,2.52-.53,3.76l-.06.14c-.47,1.15-1.05,2.55-1.43,3.97.77-.12,1.57-.18,2.39-.18,2.87,0,5.51.77,7.51,2.03.64-1.02,1.27-2.06,1.72-2.91.03-.06.07-.12.1-.18-.14-.2-.27-.38-.43-.6-1.03-1.39-2.31-3.11-2.29-4.79.02-2.3,1.7-3.56,3.18-4.68-.19-.42-.39-.85-.58-1.27-.22-.47-.44-.92-.65-1.38-.23-.49-.46-.99-.7-1.49-1,1.08-2.23,2.07-3.66,2.87-1.88,1.07-3.85,1.69-5.71,1.89h0ZM1.31,21.86c-.21,1.84.19,3.57,1.93,4.7.82.53,1.67.8,2.52.8,1.33,0,2.57-.67,3.49-1.89.03-.03.05-.06.07-.09h0c.37-.53.84-1.23,1.34-2-1.75-1.1-4.08-1.77-6.65-1.77-.95,0-1.86.09-2.71.25h0ZM15.64,13.62c-.31-1.14-.75-2.27-1.23-3.39-1.28.97-2.34,1.86-2.35,3.35,0,1.2,1.11,2.72,2.02,3.93.03.05.06.09.1.13.87-1.32,1.81-2.81,1.47-4.01h0Z"/>
  </g>
</svg>