<?xml version="1.0" encoding="UTF-8"?>
<svg id="Layer_2" data-name="Layer 2" xmlns="http://www.w3.org/2000/svg" viewBox="0 0 27.35 20.26">
  <defs>
    <style>
      .cls-1 {
        fill-rule: evenodd;
      }
    </style>
  </defs>
  <g id="_1" data-name="1">
    <path class="cls-1" d="M.46,5.78h4.25l-.47-1.1-.15-.37.28-.28L8.16.01h1.67l-4.31,4.58.51,1.19h6.86V0h1.4v5.78h6.65l.67-1.55L17.7.01h1.66l3.4,3.66.28.3-.16.37-.62,1.44h4.66s.45.51.45.51l-.49.5h-5.06l-3.71,8.92-2.35,2.39,4.74-11.31h-6.19v12.77l-.69.71-.72-.74V6.79h-6.43l4.38,10.65-2.34-2.42-3.36-8.22H.49l-.49-.5.46-.51ZM.05,6.22L5.69.04l.04-.03h15.89l.03.03,5.64,6.18.07.07-.07.07-13.62,13.83-.07.07-.07-.07L.05,6.36l-.05-.07.05-.07Z"/>
  </g>
</svg>