<?xml version="1.0" encoding="UTF-8"?>
<svg id="Layer_2" data-name="Layer 2" xmlns="http://www.w3.org/2000/svg" viewBox="0 0 27.36 21.08">
  <defs>
    <style>
      .cls-1 {
        fill-rule: evenodd;
      }
    </style>
  </defs>
  <g id="_1" data-name="1">
    <path class="cls-1" d="M19.05,15.25l-.37-1.39c-.06-.25-.24-.46-.47-.57-.22-.09-.5-.09-.73.01l-1.42.72c-.35.16-.49.59-.32.94.14.26.4.41.66.4-.7.92-1.81,1.49-3.03,1.49-1.7,0-3.16-1.09-3.66-2.71-.1-.37-.51-.58-.88-.47-.37.11-.58.51-.47.88.31,1.05.98,2.01,1.86,2.67.91.68,2,1.04,3.15,1.04s2.23-.36,3.14-1.04c.51-.39.94-.86,1.27-1.39.14.19.35.3.58.3.07,0,.13-.01.18-.03.39-.09.61-.48.51-.87h0ZM.33,0h27.03v21.08H0V0h.33ZM7.41,1.45h-2.43v2.12h2.43V1.45ZM4.12,1.45H1.69v2.12h2.43V1.45ZM11.79,3.69h13.66V1.19h-13.66v2.51ZM26.67,4.59H.68v15.8h25.99V4.59ZM8.63,12.57c.11.05.24.08.35.08.14,0,.26-.04.39-.1l1.42-.7c.36-.19.5-.61.32-.96-.12-.26-.39-.4-.66-.39.7-.92,1.81-1.5,3.04-1.5,1.71,0,3.17,1.09,3.67,2.71.08.31.37.51.68.51.07,0,.13,0,.21-.04.37-.11.58-.51.47-.88-.32-1.05-.98-1.99-1.87-2.66-.91-.69-2-1.05-3.15-1.05s-2.22.36-3.15,1.05c-.5.37-.92.84-1.27,1.38-.16-.23-.46-.36-.76-.28-.37.11-.59.49-.5.87l.36,1.39c.07.26.24.47.47.57h0Z"/>
  </g>
</svg>