<?xml version="1.0" encoding="UTF-8"?>
<svg id="Layer_2" data-name="Layer 2" xmlns="http://www.w3.org/2000/svg" xmlns:xlink="http://www.w3.org/1999/xlink" viewBox="0 0 62.58 69.4">
  <defs>
    <style>
      .cls-1 {
        opacity: .14;
      }

      .cls-2 {
        fill: url(#linear-gradient-2);
      }

      .cls-3 {
        opacity: .21;
      }

      .cls-4 {
        opacity: .42;
      }

      .cls-5 {
        opacity: .55;
      }

      .cls-6 {
        opacity: .48;
      }

      .cls-7 {
        opacity: .35;
      }

      .cls-8 {
        opacity: .08;
      }

      .cls-9 {
        opacity: .28;
      }

      .cls-10 {
        opacity: 0;
      }

      .cls-11 {
        fill: url(#linear-gradient);
      }
    </style>
    <linearGradient id="linear-gradient" x1="5.7" y1="8.83" x2="56.4" y2="59.53" gradientUnits="userSpaceOnUse">
      <stop offset="0" stop-color="#c0c1c0"/>
      <stop offset=".2" stop-color="#d4d4d4"/>
      <stop offset=".49" stop-color="#ebeceb"/>
      <stop offset=".77" stop-color="#fafafa"/>
      <stop offset="1" stop-color="#fff"/>
    </linearGradient>
    <linearGradient id="linear-gradient-2" x1="6.09" y1="9.5" x2="56.2" y2="59.61" gradientUnits="userSpaceOnUse">
      <stop offset="0" stop-color="#2c2e2c"/>
      <stop offset=".99" stop-color="#000"/>
    </linearGradient>
  </defs>
  <g id="Layer_1-2" data-name="Layer 1">
    <g>
      <path class="cls-11" d="M55.73,54.84c0,3.92-3.18,7.1-7.1,7.1H8.75c-3.92,0-7.1-3.18-7.1-7.1V16.38L16.62,1.7h32.02c3.92,0,7.1,3.18,7.1,7.1v46.05Z"/>
      <g>
        <path class="cls-10" d="M22.56,37.36h22.86c.93,0,1.69-.75,1.69-1.69s-.76-1.69-1.69-1.69h-22.86c-.93,0-1.69.76-1.69,1.69s.76,1.69,1.69,1.69ZM22.56,46.7h22.86c.93,0,1.69-.75,1.69-1.69s-.76-1.69-1.69-1.69h-22.86c-.93,0-1.69.76-1.69,1.69s.76,1.69,1.69,1.69ZM22.56,56.04h22.86c.93,0,1.69-.75,1.69-1.69s-.76-1.69-1.69-1.69h-22.86c-.93,0-1.69.76-1.69,1.69s.76,1.69,1.69,1.69ZM53.46,5.41h-31.77c-.45,0-.88.18-1.19.5l-14.5,14.51c-.48.48-.63,1.21-.36,1.84.26.63.88,1.04,1.56,1.04h15.38c.93,0,1.69-.76,1.69-1.69v-12.82h29.19c3.17,0,5.74,2.57,5.74,5.74v45.75c0,3.17-2.58,5.74-5.74,5.74H14.53c-3.17,0-5.74-2.57-5.74-5.74v-30.55c0-.94-.76-1.69-1.69-1.69s-1.69.76-1.69,1.69v30.55c0,5.03,4.09,9.12,9.12,9.12h38.93c5.03,0,9.12-4.09,9.12-9.12V14.53c0-5.03-4.09-9.12-9.12-9.12ZM20.89,19.92h-9.62l9.62-9.63v9.63Z"/>
        <path class="cls-8" d="M21.94,36.74h22.86c.93,0,1.69-.75,1.69-1.69s-.76-1.69-1.69-1.69h-22.86c-.93,0-1.69.76-1.69,1.69s.76,1.69,1.69,1.69ZM21.94,46.07h22.86c.93,0,1.69-.75,1.69-1.69s-.76-1.69-1.69-1.69h-22.86c-.93,0-1.69.76-1.69,1.69s.76,1.69,1.69,1.69ZM21.94,55.41h22.86c.93,0,1.69-.75,1.69-1.69s-.76-1.69-1.69-1.69h-22.86c-.93,0-1.69.76-1.69,1.69s.76,1.69,1.69,1.69ZM52.83,4.78h-31.77c-.45,0-.88.18-1.19.5l-14.5,14.51c-.48.48-.63,1.21-.36,1.84.26.63.88,1.04,1.56,1.04h15.38c.93,0,1.69-.76,1.69-1.69v-12.82h29.19c3.17,0,5.74,2.57,5.74,5.74v45.75c0,3.17-2.58,5.74-5.74,5.74H13.9c-3.17,0-5.74-2.57-5.74-5.74v-30.55c0-.94-.76-1.69-1.69-1.69s-1.69.76-1.69,1.69v30.55c0,5.03,4.09,9.12,9.12,9.12h38.93c5.03,0,9.12-4.09,9.12-9.12V13.9c0-5.03-4.09-9.12-9.12-9.12ZM20.26,19.29h-9.62l9.62-9.63v9.63Z"/>
        <path class="cls-1" d="M21.31,36.11h22.86c.93,0,1.69-.75,1.69-1.69s-.76-1.69-1.69-1.69h-22.86c-.93,0-1.69.76-1.69,1.69s.76,1.69,1.69,1.69ZM21.31,45.45h22.86c.93,0,1.69-.75,1.69-1.69s-.76-1.69-1.69-1.69h-22.86c-.93,0-1.69.76-1.69,1.69s.76,1.69,1.69,1.69ZM21.31,54.79h22.86c.93,0,1.69-.75,1.69-1.69s-.76-1.69-1.69-1.69h-22.86c-.93,0-1.69.76-1.69,1.69s.76,1.69,1.69,1.69ZM52.21,4.16h-31.77c-.45,0-.88.18-1.19.5l-14.5,14.51c-.48.48-.63,1.21-.36,1.84.26.63.88,1.04,1.56,1.04h15.38c.93,0,1.69-.76,1.69-1.69V7.53h29.19c3.17,0,5.74,2.57,5.74,5.74v45.75c0,3.17-2.58,5.74-5.74,5.74H13.28c-3.17,0-5.74-2.57-5.74-5.74v-30.55c0-.94-.76-1.69-1.69-1.69s-1.69.76-1.69,1.69v30.55c0,5.03,4.09,9.12,9.12,9.12h38.93c5.03,0,9.12-4.09,9.12-9.12V13.28c0-5.03-4.09-9.12-9.12-9.12ZM19.64,18.67h-9.62l9.62-9.63v9.63Z"/>
        <path class="cls-3" d="M20.69,35.49h22.86c.93,0,1.69-.75,1.69-1.69s-.76-1.69-1.69-1.69h-22.86c-.93,0-1.69.76-1.69,1.69s.76,1.69,1.69,1.69ZM20.69,44.82h22.86c.93,0,1.69-.75,1.69-1.69s-.76-1.69-1.69-1.69h-22.86c-.93,0-1.69.76-1.69,1.69s.76,1.69,1.69,1.69ZM20.69,54.16h22.86c.93,0,1.69-.75,1.69-1.69s-.76-1.69-1.69-1.69h-22.86c-.93,0-1.69.76-1.69,1.69s.76,1.69,1.69,1.69ZM51.58,3.53h-31.77c-.45,0-.88.18-1.19.5l-14.5,14.51c-.48.48-.63,1.21-.36,1.84.26.63.88,1.04,1.56,1.04h15.38c.93,0,1.69-.76,1.69-1.69V6.91h29.19c3.17,0,5.74,2.57,5.74,5.74v45.75c0,3.17-2.58,5.74-5.74,5.74H12.65c-3.17,0-5.74-2.57-5.74-5.74v-30.55c0-.94-.76-1.69-1.69-1.69s-1.69.76-1.69,1.69v30.55c0,5.03,4.09,9.12,9.12,9.12h38.93c5.03,0,9.12-4.09,9.12-9.12V12.65c0-5.03-4.09-9.12-9.12-9.12ZM19.01,18.04h-9.62l9.62-9.63v9.63Z"/>
        <path class="cls-9" d="M20.06,34.86h22.86c.93,0,1.69-.75,1.69-1.69s-.76-1.69-1.69-1.69h-22.86c-.93,0-1.69.76-1.69,1.69s.76,1.69,1.69,1.69ZM20.06,44.2h22.86c.93,0,1.69-.75,1.69-1.69s-.76-1.69-1.69-1.69h-22.86c-.93,0-1.69.76-1.69,1.69s.76,1.69,1.69,1.69ZM20.06,53.54h22.86c.93,0,1.69-.75,1.69-1.69s-.76-1.69-1.69-1.69h-22.86c-.93,0-1.69.76-1.69,1.69s.76,1.69,1.69,1.69ZM50.96,2.91h-31.77c-.45,0-.88.18-1.19.5L3.5,17.91c-.48.48-.63,1.21-.36,1.84.26.63.88,1.04,1.56,1.04h15.38c.93,0,1.69-.76,1.69-1.69V6.28h29.19c3.17,0,5.74,2.57,5.74,5.74v45.75c0,3.17-2.58,5.74-5.74,5.74H12.03c-3.17,0-5.74-2.57-5.74-5.74v-30.55c0-.94-.76-1.69-1.69-1.69s-1.69.76-1.69,1.69v30.55c0,5.03,4.09,9.12,9.12,9.12h38.93c5.03,0,9.12-4.09,9.12-9.12V12.03c0-5.03-4.09-9.12-9.12-9.12ZM18.39,17.42h-9.62l9.62-9.63v9.63Z"/>
        <path class="cls-7" d="M19.44,34.24h22.86c.93,0,1.69-.75,1.69-1.69s-.76-1.69-1.69-1.69h-22.86c-.93,0-1.69.76-1.69,1.69s.76,1.69,1.69,1.69ZM19.44,43.57h22.86c.93,0,1.69-.75,1.69-1.69s-.76-1.69-1.69-1.69h-22.86c-.93,0-1.69.76-1.69,1.69s.76,1.69,1.69,1.69ZM19.44,52.91h22.86c.93,0,1.69-.75,1.69-1.69s-.76-1.69-1.69-1.69h-22.86c-.93,0-1.69.76-1.69,1.69s.76,1.69,1.69,1.69ZM50.33,2.28h-31.77c-.45,0-.88.18-1.19.5L2.87,17.29c-.48.48-.63,1.21-.36,1.84.26.63.88,1.04,1.56,1.04h15.38c.93,0,1.69-.76,1.69-1.69V5.66h29.19c3.17,0,5.74,2.57,5.74,5.74v45.75c0,3.17-2.58,5.74-5.74,5.74H11.4c-3.17,0-5.74-2.57-5.74-5.74v-30.55c0-.94-.76-1.69-1.69-1.69s-1.69.76-1.69,1.69v30.55c0,5.03,4.09,9.12,9.12,9.12h38.93c5.03,0,9.12-4.09,9.12-9.12V11.4c0-5.03-4.09-9.12-9.12-9.12ZM17.76,16.79h-9.62l9.62-9.63v9.63Z"/>
        <path class="cls-4" d="M18.81,33.61h22.86c.93,0,1.69-.75,1.69-1.69s-.76-1.69-1.69-1.69h-22.86c-.93,0-1.69.76-1.69,1.69s.76,1.69,1.69,1.69ZM18.81,42.95h22.86c.93,0,1.69-.75,1.69-1.69s-.76-1.69-1.69-1.69h-22.86c-.93,0-1.69.76-1.69,1.69s.76,1.69,1.69,1.69ZM18.81,52.29h22.86c.93,0,1.69-.75,1.69-1.69s-.76-1.69-1.69-1.69h-22.86c-.93,0-1.69.76-1.69,1.69s.76,1.69,1.69,1.69ZM49.71,1.66h-31.77c-.45,0-.88.18-1.19.5L2.25,16.66c-.48.48-.63,1.21-.36,1.84.26.63.88,1.04,1.56,1.04h15.38c.93,0,1.69-.76,1.69-1.69V5.03h29.19c3.17,0,5.74,2.57,5.74,5.74v45.75c0,3.17-2.58,5.74-5.74,5.74H10.78c-3.17,0-5.74-2.57-5.74-5.74v-30.55c0-.94-.76-1.69-1.69-1.69s-1.69.76-1.69,1.69v30.55c0,5.03,4.09,9.12,9.12,9.12h38.93c5.03,0,9.12-4.09,9.12-9.12V10.78c0-5.03-4.09-9.12-9.12-9.12ZM17.14,16.17H7.52l9.62-9.63v9.63Z"/>
        <path class="cls-6" d="M18.19,32.99h22.86c.93,0,1.69-.75,1.69-1.69s-.76-1.69-1.69-1.69h-22.86c-.93,0-1.69.76-1.69,1.69s.76,1.69,1.69,1.69ZM18.19,42.32h22.86c.93,0,1.69-.75,1.69-1.69s-.76-1.69-1.69-1.69h-22.86c-.93,0-1.69.76-1.69,1.69s.76,1.69,1.69,1.69ZM18.19,51.66h22.86c.93,0,1.69-.75,1.69-1.69s-.76-1.69-1.69-1.69h-22.86c-.93,0-1.69.76-1.69,1.69s.76,1.69,1.69,1.69ZM49.08,1.03h-31.77c-.45,0-.88.18-1.19.5L1.62,16.04c-.48.48-.63,1.21-.36,1.84.26.63.88,1.04,1.56,1.04h15.38c.93,0,1.69-.76,1.69-1.69V4.41h29.19c3.17,0,5.74,2.57,5.74,5.74v45.75c0,3.17-2.58,5.74-5.74,5.74H10.15c-3.17,0-5.74-2.57-5.74-5.74v-30.55c0-.94-.76-1.69-1.69-1.69s-1.69.76-1.69,1.69v30.55c0,5.03,4.09,9.12,9.12,9.12h38.93c5.03,0,9.12-4.09,9.12-9.12V10.15c0-5.03-4.09-9.12-9.12-9.12ZM16.51,15.54H6.89l9.62-9.63v9.63Z"/>
        <path class="cls-5" d="M17.56,32.36h22.86c.93,0,1.69-.75,1.69-1.69s-.76-1.69-1.69-1.69h-22.86c-.93,0-1.69.76-1.69,1.69s.76,1.69,1.69,1.69ZM17.56,41.7h22.86c.93,0,1.69-.75,1.69-1.69s-.76-1.69-1.69-1.69h-22.86c-.93,0-1.69.76-1.69,1.69s.76,1.69,1.69,1.69ZM17.56,51.04h22.86c.93,0,1.69-.75,1.69-1.69s-.76-1.69-1.69-1.69h-22.86c-.93,0-1.69.76-1.69,1.69s.76,1.69,1.69,1.69ZM48.46.41h-31.77c-.45,0-.88.18-1.19.5L1,15.41c-.48.48-.63,1.21-.36,1.84.26.63.88,1.04,1.56,1.04h15.38c.93,0,1.69-.76,1.69-1.69V3.78h29.19c3.17,0,5.74,2.57,5.74,5.74v45.75c0,3.17-2.58,5.74-5.74,5.74H9.53c-3.17,0-5.74-2.57-5.74-5.74v-30.55c0-.94-.76-1.69-1.69-1.69s-1.69.76-1.69,1.69v30.55c0,5.03,4.09,9.12,9.12,9.12h38.93c5.03,0,9.12-4.09,9.12-9.12V9.53c0-5.03-4.09-9.12-9.12-9.12ZM15.89,14.92H6.27L15.89,5.29v9.63Z"/>
      </g>
      <path class="cls-2" d="M48.05,0h-31.77c-.45,0-.88.18-1.19.5L.59,15.01c-.48.48-.63,1.21-.36,1.84.26.63.88,1.04,1.56,1.04h15.38c.93,0,1.69-.76,1.69-1.69V3.38h29.19c3.17,0,5.74,2.57,5.74,5.74v45.75c0,3.17-2.58,5.74-5.74,5.74H9.12c-3.17,0-5.74-2.57-5.74-5.74v-30.55c0-.94-.76-1.69-1.69-1.69s-1.69.76-1.69,1.69v30.55c0,5.03,4.09,9.12,9.12,9.12h38.93c5.03,0,9.12-4.09,9.12-9.12V9.12c0-5.03-4.09-9.12-9.12-9.12ZM15.48,14.51H5.86L15.48,4.88v9.63ZM17.16,31.96h22.86c.93,0,1.69-.75,1.69-1.69s-.76-1.69-1.69-1.69h-22.86c-.93,0-1.69.76-1.69,1.69s.76,1.69,1.69,1.69ZM17.16,50.63h22.86c.93,0,1.69-.75,1.69-1.69s-.76-1.69-1.69-1.69h-22.86c-.93,0-1.69.76-1.69,1.69s.76,1.69,1.69,1.69ZM17.16,41.29h22.86c.93,0,1.69-.75,1.69-1.69s-.76-1.69-1.69-1.69h-22.86c-.93,0-1.69.76-1.69,1.69s.76,1.69,1.69,1.69Z"/>
    </g>
  </g>
</svg>