<?xml version="1.0" encoding="UTF-8"?>
<svg id="Layer_2" data-name="Layer 2" xmlns="http://www.w3.org/2000/svg" viewBox="0 0 27.19 27.36">
  <defs>
    <style>
      .cls-1 {
        fill-rule: evenodd;
      }
    </style>
  </defs>
  <g id="_1" data-name="1">
    <path class="cls-1" d="M6.53,5.45c1.94,3.49.59,4.13-1.04,5.29-1.13.8.48,3.6,2.24,6.08,1.76,2.47,3.86,4.92,5,4.11,1.62-1.15,2.69-2.21,5.33.77,2.64,2.98.01,4.22-1.57,5.33-1.81,1.29-7.35-1.17-12.1-7.86C-.35,12.49-.84,6.46.98,5.17c1.57-1.11,3.61-3.19,5.55.29h0ZM15.75,7.94c.58,0,1.04.47,1.04,1.05s-.47,1.04-1.04,1.04-1.04-.47-1.04-1.04.47-1.05,1.04-1.05h0ZM20.65,7.94c.58,0,1.04.47,1.04,1.05s-.47,1.04-1.04,1.04-1.04-.47-1.04-1.04.46-1.05,1.04-1.05h0ZM18.21,7.94c.57,0,1.04.47,1.04,1.05s-.47,1.04-1.04,1.04-1.05-.47-1.05-1.04.47-1.05,1.05-1.05h0ZM11.56,10.11h-2.35v5.61l1.66-1.52c1.63,2.28,4.31,3.78,7.33,3.78,4.57,0,8.36-3.43,8.91-7.87h-2.27c-.53,3.18-3.31,5.61-6.64,5.61-2.38,0-4.45-1.22-5.66-3.06l2.78-2.55h-3.77ZM18.21,0c-4.59,0-8.36,3.43-8.93,7.87h2.28c.53-3.2,3.3-5.62,6.65-5.62,2.43,0,4.57,1.29,5.75,3.23l-2.39,2.39h5.62V2.25l-1.61,1.61c-1.62-2.34-4.32-3.86-7.37-3.86h0Z"/>
  </g>
</svg>