<?xml version="1.0" encoding="UTF-8"?>
<svg id="Layer_2" data-name="Layer 2" xmlns="http://www.w3.org/2000/svg" viewBox="0 0 27.35 27.36">
  <defs>
    <style>
      .cls-1 {
        fill-rule: evenodd;
      }
    </style>
  </defs>
  <g id="_1" data-name="1">
    <path class="cls-1" d="M3.07,6.56c.53.5.45,1.84.28,2.26-.2.38-.91.55-1.63.42-.72-.17-1.46.5-1.67,1.51-.21.96.17,1.88.87,2.06.76.16,1.3,1.38,1.34,1.8.04.41-.46.96-1.18,1.17-.71.25-1,1.22-.71,2.18.29.96,1.14,1.55,1.84,1.34.68-.25,1.44-.12,1.65.25.21.33.46,1.67-.04,2.22-.47.54-.27,1.55.46,2.21.75.68,1.79.8,2.26.26.49-.55,1.84-.42,2.26-.26.38.18.54.88.42,1.6-.16.75.5,1.51,1.5,1.71.97.21,1.89-.2,2.06-.93.17-.7,1.38-1.3,1.8-1.34.42-.04.97.51,1.18,1.18.25.71,1.22,1.05,2.18.71.96-.29,1.55-1.13,1.3-1.81-.22-.71.58-1.84.91-2.09.35-.26,1.05-.04,1.61.46.54.5,1.55.29,2.21-.46.68-.75.81-1.77.26-2.26-.55-.5-.43-1.85-.26-2.23.19-.37.89-.58,1.61-.42.75.17,1.51-.55,1.72-1.5.2-1.01-.21-1.93-.93-2.1-.71-.12-1.3-1.38-1.34-1.8-.04-.43.51-.93,1.18-1.18.71-.21,1.05-1.17.71-2.14-.3-.97-1.13-1.55-1.81-1.33-.71.2-1.83-.56-2.09-.89-.26-.37-.04-1.1.46-1.63.49-.54.29-1.55-.46-2.22-.76-.67-1.77-.79-2.27-.25-.51.54-1.85.45-2.23.29-.37-.16-.58-.91-.42-1.63.17-.72-.55-1.46-1.5-1.67-1-.22-1.94.16-2.1.91-.12.72-1.38,1.3-1.79,1.34-.43,0-.93-.5-1.17-1.22-.21-.71-1.18-.99-2.15-.71-.96.29-1.55,1.14-1.34,1.84.2.72-.56,1.81-.93,2.06-.33.25-1.05.04-1.58-.46-.55-.47-1.55-.26-2.23.46-.66.76-.79,1.79-.24,2.26h0ZM12.3,12.37c.21-.16.43-.25.67-.3.23-.04.49-.06.72-.02h0c.23.04.47.12.67.26.06.04.13.09.18.13.03-.02.04-.04.07-.06l2.57-1.81c.09-.07.23-.1.34-.08.13.03.24.09.32.2l.03.04c.07.11.1.23.08.36-.02.12-.09.23-.19.3l-2.57,1.81s-.05.04-.08.06c.03.07.05.14.07.21.05.25.05.48.01.71h0c-.04.25-.12.47-.26.68-.12.21-.29.39-.49.53-.21.14-.43.23-.66.29-.24.05-.49.05-.72,0h0c-.24-.04-.47-.12-.68-.24-.19-.14-.37-.3-.53-.5-.14-.21-.24-.43-.29-.67-.06-.23-.06-.48-.02-.72.04-.23.13-.46.26-.67.12-.19.29-.37.48-.51h0ZM12.95,13.28c.16-.12.36-.17.54-.12h.01c.18.03.35.12.47.29.11.16.15.36.12.55h0c-.04.18-.14.37-.3.47-.17.11-.36.15-.55.12-.18-.03-.34-.14-.47-.3-.11-.16-.15-.36-.12-.54h0c.04-.2.14-.36.3-.47h0ZM13.57,12.67c-.15-.02-.32-.02-.47.02h0c-.15.03-.29.1-.43.19-.14.09-.25.21-.33.35h0c-.08.13-.14.27-.17.44h0c-.02.15-.02.32.02.46h0c.02.16.1.3.19.43.1.14.2.25.33.33h0c.13.08.29.15.44.16h.01c.15.03.3.03.47,0h0c.15-.04.29-.09.42-.19.14-.09.25-.22.33-.34h0c.08-.14.13-.29.16-.45h0c.02-.16.02-.32-.02-.48h0c-.02-.14-.1-.29-.19-.43-.1-.14-.21-.24-.33-.33h0c-.14-.08-.29-.14-.44-.17h-.02ZM11.2,6.05h0c4.24-1.34,8.72.97,10.06,5.15,1.38,4.24-.91,8.72-5.16,10.1-4.19,1.34-8.72-.95-10.06-5.19-1.34-4.19.96-8.72,5.16-10.06h0Z"/>
  </g>
</svg>