<?xml version="1.0" encoding="UTF-8"?>
<svg id="Layer_2" data-name="Layer 2" xmlns="http://www.w3.org/2000/svg" xmlns:xlink="http://www.w3.org/1999/xlink" viewBox="0 0 68.93 67.66">
  <defs>
    <style>
      .cls-1 {
        opacity: .14;
      }

      .cls-2 {
        fill: url(#linear-gradient-2);
      }

      .cls-3 {
        opacity: .21;
      }

      .cls-4 {
        opacity: .42;
      }

      .cls-5 {
        opacity: .55;
      }

      .cls-6 {
        fill: url(#linear-gradient-4);
      }

      .cls-7 {
        opacity: .48;
      }

      .cls-8 {
        opacity: .35;
      }

      .cls-9 {
        fill: url(#linear-gradient-3);
      }

      .cls-10 {
        fill: url(#linear-gradient-5);
      }

      .cls-11 {
        opacity: .08;
      }

      .cls-12 {
        opacity: .28;
      }

      .cls-13 {
        opacity: 0;
      }

      .cls-14 {
        fill: url(#linear-gradient);
      }
    </style>
    <linearGradient id="linear-gradient" x1="4.49" y1="5.51" x2="58.34" y2="59.36" gradientUnits="userSpaceOnUse">
      <stop offset="0" stop-color="#96490a"/>
      <stop offset="1" stop-color="#c78240"/>
    </linearGradient>
    <linearGradient id="linear-gradient-2" x1="42.01" y1="29.07" x2="49.54" y2="36.59" gradientUnits="userSpaceOnUse">
      <stop offset="0" stop-color="#f2a300"/>
      <stop offset="1" stop-color="#ffff36"/>
    </linearGradient>
    <linearGradient id="linear-gradient-3" x1="16.42" y1="18.25" x2="29.18" y2="31.01" gradientTransform="translate(38.76 -5.22) rotate(70.28)" gradientUnits="userSpaceOnUse">
      <stop offset="0" stop-color="#eb0a00"/>
      <stop offset="1" stop-color="#ff853b"/>
    </linearGradient>
    <linearGradient id="linear-gradient-4" x1="21.22" y1="40.38" x2="29.89" y2="49.06" gradientUnits="userSpaceOnUse">
      <stop offset="0" stop-color="#4ba129"/>
      <stop offset="1" stop-color="#c7ff3c"/>
    </linearGradient>
    <linearGradient id="linear-gradient-5" x1="5.24" y1="6.3" x2="58.27" y2="59.33" gradientUnits="userSpaceOnUse">
      <stop offset="0" stop-color="#2c2e2c"/>
      <stop offset=".99" stop-color="#000"/>
    </linearGradient>
  </defs>
  <g id="Layer_1-2" data-name="Layer 1">
    <g>
      <rect class="cls-14" x="1.75" y="7.82" width="59.93" height="49.81" rx="7.1" ry="7.1"/>
      <path class="cls-2" d="M50.83,32.87c0,2.77-2.24,5.01-5.01,5.01s-5.01-2.24-5.01-5.01,2.24-5.01,5.01-5.01,5.01,2.24,5.01,5.01Z"/>
      <rect class="cls-9" x="18.59" y="19.28" width="9" height="11.28" transform="translate(-8.16 38.25) rotate(-70.28)"/>
      <polygon class="cls-6" points="24.88 39.04 22.88 49.04 32.63 44.79 24.88 39.04"/>
      <g>
        <path class="cls-13" d="M47.17,38.23c0-2.09,1.71-3.8,3.8-3.8s3.8,1.71,3.8,3.8-1.7,3.8-3.8,3.8-3.8-1.7-3.8-3.8ZM58.16,38.23c0-3.96-3.22-7.18-7.18-7.18s-7.18,3.22-7.18,7.18,3.22,7.18,7.18,7.18,7.18-3.22,7.18-7.18ZM35.47,49.86l-5.16,2.04.98-5.08,4.19,3.04ZM29.51,42.33c-.54.21-.93.68-1.04,1.25l-2.06,10.7c-.12.61.11,1.23.58,1.62.31.26.69.39,1.08.39.21,0,.42-.04.62-.12l10.88-4.31c.57-.23.98-.75,1.05-1.36.08-.61-.19-1.22-.68-1.58l-8.83-6.4c-.47-.34-1.08-.42-1.61-.2ZM43,11.63h-11.65v-2.84h11.65v2.84ZM59.81,11.63h-13.44v-4.53c0-.94-.75-1.69-1.69-1.69h-15.03c-.93,0-1.69.75-1.69,1.69v4.53h-13.43c-4.95,0-8.95,3.87-9.12,8.82,0,.09,0,1.51,0,1.6,0,.12.02.24.04.36.12.82.82,1.45,1.67,1.45h5.64c3.41,0,5.11-2.08,5.58-3.31.33-.87-.11-1.85-.98-2.18-.87-.33-1.85.11-2.18.98,0,.01-.52,1.14-2.42,1.14h-3.95c.14-3.07,2.65-5.46,5.74-5.46h45.28c3.07,0,5.58,2.43,5.73,5.46h-3.95c-1.85,0-2.38-1.06-2.42-1.14-.33-.87-1.3-1.31-2.18-.98-.87.33-1.31,1.31-.98,2.18.47,1.23,2.17,3.31,5.58,3.31h3.96v29.08h-3.96c-3.41,0-5.11,2.08-5.58,3.31-.33.87.11,1.85.98,2.18.2.08.4.11.6.11.68,0,1.32-.41,1.58-1.09,0,0,.52-1.13,2.42-1.13h3.93c-.3,2.88-2.75,5.14-5.71,5.14H14.53c-2.96,0-5.41-2.26-5.71-5.14h3.93c1.85,0,2.38,1.06,2.42,1.13.26.67.9,1.09,1.58,1.09.2,0,.4-.03.6-.11.87-.33,1.31-1.31.98-2.18-.47-1.23-2.17-3.31-5.58-3.31h-3.96v-20.56c0-.93-.76-1.69-1.69-1.69s-1.69.76-1.69,1.69v23.34c0,5.03,4.09,9.12,9.12,9.12h2.4v1.14c0,.93.75,1.69,1.69,1.69s1.69-.75,1.69-1.69v-1.14h33.72v1.14c0,.93.75,1.69,1.69,1.69s1.69-.75,1.69-1.69v-1.14h2.4c5.03,0,9.12-4.09,9.12-9.12V20.75c0-5.03-4.09-9.12-9.12-9.12ZM31.4,34.64l-7.96-2.91,2.04-5.58,7.96,2.91-2.04,5.58ZM36.19,26.47l-11.13-4.07c-.87-.32-1.84.13-2.17,1.01l-3.2,8.75c-.15.42-.13.89.06,1.29.19.41.53.72.95.88l11.13,4.07c.19.07.39.1.58.1.69,0,1.34-.42,1.59-1.11l3.2-8.76c.15-.42.13-.88-.06-1.29-.19-.41-.53-.72-.95-.87Z"/>
        <path class="cls-11" d="M46.55,37.6c0-2.09,1.71-3.8,3.8-3.8s3.8,1.71,3.8,3.8-1.7,3.8-3.8,3.8-3.8-1.7-3.8-3.8ZM57.53,37.6c0-3.96-3.22-7.18-7.18-7.18s-7.18,3.22-7.18,7.18,3.22,7.18,7.18,7.18,7.18-3.22,7.18-7.18ZM34.85,49.24l-5.16,2.04.98-5.08,4.19,3.04ZM28.88,41.7c-.54.21-.93.68-1.04,1.25l-2.06,10.7c-.12.61.11,1.23.58,1.62.31.26.69.39,1.08.39.21,0,.42-.04.62-.12l10.88-4.31c.57-.23.98-.75,1.05-1.36.08-.61-.19-1.22-.68-1.58l-8.83-6.4c-.47-.34-1.08-.42-1.61-.2ZM42.37,11h-11.65v-2.84h11.65v2.84ZM59.18,11h-13.44v-4.53c0-.94-.75-1.69-1.69-1.69h-15.03c-.93,0-1.69.75-1.69,1.69v4.53h-13.43c-4.95,0-8.95,3.87-9.12,8.82,0,.09,0,1.51,0,1.6,0,.12.02.24.04.36.12.82.82,1.45,1.67,1.45h5.64c3.41,0,5.11-2.08,5.58-3.31.33-.87-.11-1.85-.98-2.18-.87-.33-1.87.1-2.18.98,0,.01-.52,1.14-2.42,1.14h-3.95c.14-3.07,2.65-5.46,5.74-5.46h45.28c3.07,0,5.58,2.43,5.73,5.46h-3.95c-1.85,0-2.38-1.06-2.42-1.14-.33-.87-1.3-1.31-2.18-.98-.87.33-1.31,1.31-.98,2.18.47,1.23,2.17,3.31,5.58,3.31h3.96v29.08h-3.96c-3.41,0-5.11,2.08-5.58,3.31-.33.87.11,1.85.98,2.18.2.08.4.11.6.11.68,0,1.26-.44,1.58-1.09,0-.01.52-1.13,2.42-1.13h3.93c-.3,2.88-2.75,5.14-5.71,5.14H13.91c-2.96,0-5.41-2.26-5.71-5.14h3.93c1.85,0,2.38,1.06,2.42,1.13.26.67.9,1.09,1.58,1.09.2,0,.4-.03.6-.11.87-.33,1.31-1.31.98-2.18-.47-1.23-2.17-3.31-5.58-3.31h-3.96v-20.56c0-.93-.76-1.69-1.69-1.69s-1.69.76-1.69,1.69v23.34c0,5.03,4.09,9.12,9.12,9.12h2.4v1.14c0,.93.75,1.69,1.69,1.69s1.69-.75,1.69-1.69v-1.14h33.72v1.14c0,.93.75,1.69,1.69,1.69s1.69-.75,1.69-1.69v-1.14h2.4c5.03,0,9.12-4.09,9.12-9.12V20.13c0-5.03-4.09-9.12-9.12-9.12ZM30.78,34.02l-7.96-2.91,2.04-5.58,7.96,2.91-2.04,5.58ZM35.56,25.84l-11.13-4.07c-.87-.32-1.84.13-2.17,1.01l-3.2,8.75c-.15.42-.13.89.06,1.29.19.41.53.72.95.88l11.13,4.07c.19.07.39.1.58.1.69,0,1.34-.42,1.59-1.11l3.2-8.76c.15-.42.13-.88-.06-1.29-.19-.4-.53-.72-.95-.87Z"/>
        <path class="cls-1" d="M45.92,36.98c0-2.09,1.71-3.8,3.8-3.8s3.8,1.71,3.8,3.8-1.7,3.8-3.8,3.8-3.8-1.7-3.8-3.8ZM56.91,36.98c0-3.96-3.22-7.18-7.18-7.18s-7.18,3.22-7.18,7.18,3.22,7.18,7.18,7.18,7.18-3.22,7.18-7.18ZM34.22,48.61l-5.16,2.04.98-5.08,4.19,3.04ZM28.26,41.08c-.54.21-.93.68-1.04,1.25l-2.06,10.7c-.12.61.11,1.23.58,1.62.31.26.69.39,1.08.39.21,0,.42-.04.62-.12l10.88-4.31c.57-.23.98-.75,1.05-1.36.08-.61-.19-1.22-.68-1.58l-8.83-6.4c-.47-.34-1.08-.42-1.61-.2ZM41.75,10.38h-11.65v-2.84h11.65v2.84ZM58.56,10.38h-13.44v-4.53c0-.94-.75-1.69-1.69-1.69h-15.03c-.93,0-1.69.75-1.69,1.69v4.53h-13.43c-4.95,0-8.95,3.87-9.12,8.82,0,.09,0,1.51,0,1.6,0,.12.02.24.04.36.12.82.82,1.45,1.67,1.45h5.64c3.41,0,5.11-2.08,5.58-3.31.33-.87-.11-1.85-.98-2.18-.87-.33-1.87.1-2.18.98,0,.01-.52,1.14-2.42,1.14h-3.95c.14-3.07,2.65-5.46,5.74-5.46h45.28c3.07,0,5.58,2.43,5.73,5.46h-3.95c-1.85,0-2.38-1.06-2.42-1.14-.33-.87-1.3-1.31-2.18-.98-.87.33-1.31,1.31-.98,2.18.47,1.23,2.17,3.31,5.58,3.31h3.96v29.08h-3.96c-3.41,0-5.11,2.08-5.58,3.31-.33.87.11,1.85.98,2.18.2.08.4.11.6.11.68,0,1.26-.44,1.58-1.09,0-.01.52-1.13,2.42-1.13h3.93c-.3,2.88-2.75,5.14-5.71,5.14H13.28c-2.96,0-5.41-2.26-5.71-5.14h3.93c1.85,0,2.38,1.06,2.42,1.13.26.67.9,1.09,1.58,1.09.2,0,.4-.03.6-.11.87-.33,1.31-1.31.98-2.18-.47-1.23-2.17-3.31-5.58-3.31h-3.96v-20.56c0-.93-.76-1.69-1.69-1.69s-1.69.76-1.69,1.69v23.34c0,5.03,4.09,9.12,9.12,9.12h2.4v1.14c0,.93.75,1.69,1.69,1.69s1.69-.75,1.69-1.69v-1.14h33.72v1.14c0,.93.75,1.69,1.69,1.69s1.69-.75,1.69-1.69v-1.14h2.4c5.03,0,9.12-4.09,9.12-9.12V19.5c0-5.03-4.09-9.12-9.12-9.12ZM30.15,33.39l-7.96-2.91,2.04-5.58,7.96,2.91-2.04,5.58ZM34.94,25.22l-11.13-4.07c-.87-.32-1.84.13-2.17,1.01l-3.2,8.75c-.15.42-.13.89.06,1.29.19.41.53.72.95.88l11.13,4.07c.19.07.39.1.58.1.69,0,1.34-.42,1.59-1.11l3.2-8.76c.15-.42.13-.88-.06-1.29-.19-.4-.53-.72-.95-.87Z"/>
        <path class="cls-3" d="M45.3,36.35c0-2.09,1.71-3.8,3.8-3.8s3.8,1.71,3.8,3.8-1.7,3.8-3.8,3.8-3.8-1.7-3.8-3.8ZM56.28,36.35c0-3.96-3.22-7.18-7.18-7.18s-7.18,3.22-7.18,7.18,3.22,7.18,7.18,7.18,7.18-3.22,7.18-7.18ZM33.6,47.99l-5.16,2.04.98-5.08,4.19,3.04ZM27.63,40.45c-.54.21-.93.68-1.04,1.25l-2.06,10.7c-.12.61.11,1.23.58,1.62.31.26.69.39,1.08.39.21,0,.42-.04.62-.12l10.88-4.31c.57-.23.98-.75,1.05-1.36.08-.61-.19-1.22-.68-1.58l-8.83-6.4c-.47-.34-1.08-.42-1.61-.2ZM41.12,9.75h-11.65v-2.84h11.65v2.84ZM57.93,9.75h-13.44v-4.53c0-.94-.75-1.69-1.69-1.69h-15.03c-.93,0-1.69.75-1.69,1.69v4.53h-13.43c-4.95,0-8.95,3.87-9.12,8.82,0,.09,0,1.51,0,1.6,0,.12.02.24.04.36.12.82.82,1.45,1.67,1.45h5.64c3.41,0,5.11-2.08,5.58-3.31.33-.87-.11-1.85-.98-2.18-.87-.33-1.87.1-2.18.98,0,.01-.52,1.14-2.42,1.14h-3.95c.14-3.07,2.65-5.46,5.74-5.46h45.28c3.07,0,5.58,2.43,5.73,5.46h-3.95c-1.85,0-2.38-1.06-2.42-1.14-.33-.87-1.3-1.31-2.18-.98-.87.33-1.31,1.31-.98,2.18.47,1.23,2.17,3.31,5.58,3.31h3.96v29.08h-3.96c-3.41,0-5.11,2.08-5.58,3.31-.33.87.11,1.85.98,2.18.2.08.4.11.6.11.68,0,1.26-.44,1.58-1.09,0-.01.52-1.13,2.42-1.13h3.93c-.3,2.88-2.75,5.14-5.71,5.14H12.66c-2.96,0-5.41-2.26-5.71-5.14h3.93c1.85,0,2.38,1.06,2.42,1.13.26.67.9,1.09,1.58,1.09.2,0,.4-.03.6-.11.87-.33,1.31-1.31.98-2.18-.47-1.23-2.17-3.31-5.58-3.31h-3.96v-20.56c0-.93-.76-1.69-1.69-1.69s-1.69.76-1.69,1.69v23.34c0,5.03,4.09,9.12,9.12,9.12h2.4v1.14c0,.93.75,1.69,1.69,1.69s1.69-.75,1.69-1.69v-1.14h33.72v1.14c0,.93.75,1.69,1.69,1.69s1.69-.75,1.69-1.69v-1.14h2.4c5.03,0,9.12-4.09,9.12-9.12V18.88c0-5.03-4.09-9.12-9.12-9.12ZM29.53,32.77l-7.96-2.91,2.04-5.58,7.96,2.91-2.04,5.58ZM34.31,24.59l-11.13-4.07c-.87-.32-1.84.13-2.17,1.01l-3.2,8.75c-.15.42-.13.89.06,1.29.19.41.53.72.95.88l11.13,4.07c.19.07.39.1.58.1.69,0,1.34-.42,1.59-1.11l3.2-8.76c.15-.42.13-.88-.06-1.29-.19-.4-.53-.72-.95-.87Z"/>
        <path class="cls-12" d="M44.67,35.73c0-2.09,1.71-3.8,3.8-3.8s3.8,1.71,3.8,3.8-1.7,3.8-3.8,3.8-3.8-1.7-3.8-3.8ZM55.66,35.73c0-3.96-3.22-7.18-7.18-7.18s-7.18,3.22-7.18,7.18,3.22,7.18,7.18,7.18,7.18-3.22,7.18-7.18ZM32.97,47.36l-5.16,2.04.98-5.08,4.19,3.04ZM27.01,39.83c-.54.21-.93.68-1.04,1.25l-2.06,10.7c-.12.61.11,1.23.58,1.62.31.26.69.39,1.08.39.21,0,.42-.04.62-.12l10.88-4.31c.57-.23.98-.75,1.05-1.36.08-.61-.19-1.22-.68-1.58l-8.83-6.4c-.47-.34-1.08-.42-1.61-.2ZM40.5,9.13h-11.65v-2.84h11.65v2.84ZM57.31,9.13h-13.44v-4.53c0-.94-.75-1.69-1.69-1.69h-15.03c-.93,0-1.69.75-1.69,1.69v4.53h-13.43c-4.95,0-8.95,3.87-9.12,8.82,0,.09,0,1.51,0,1.6,0,.12.02.24.04.36.12.82.82,1.45,1.67,1.45h5.64c3.41,0,5.11-2.08,5.58-3.31.33-.87-.11-1.85-.98-2.18-.87-.33-1.87.1-2.18.98,0,.01-.52,1.14-2.42,1.14h-3.95c.14-3.07,2.65-5.46,5.74-5.46h45.28c3.07,0,5.58,2.43,5.73,5.46h-3.95c-1.85,0-2.38-1.06-2.42-1.14-.33-.87-1.3-1.31-2.18-.98-.87.33-1.31,1.31-.98,2.18.47,1.23,2.17,3.31,5.58,3.31h3.96v29.08h-3.96c-3.41,0-5.11,2.08-5.58,3.31-.33.87.11,1.85.98,2.18.2.08.4.11.6.11.68,0,1.26-.44,1.58-1.09,0-.01.52-1.13,2.42-1.13h3.93c-.3,2.88-2.75,5.14-5.71,5.14H12.03c-2.96,0-5.41-2.26-5.71-5.14h3.93c1.85,0,2.38,1.06,2.42,1.13.26.67.9,1.09,1.58,1.09.2,0,.4-.03.6-.11.87-.33,1.31-1.31.98-2.18-.47-1.23-2.17-3.31-5.58-3.31h-3.96v-20.56c0-.93-.76-1.69-1.69-1.69s-1.69.76-1.69,1.69v23.34c0,5.03,4.09,9.12,9.12,9.12h2.4v1.14c0,.93.75,1.69,1.69,1.69s1.69-.75,1.69-1.69v-1.14h33.72v1.14c0,.93.75,1.69,1.69,1.69s1.69-.75,1.69-1.69v-1.14h2.4c5.03,0,9.12-4.09,9.12-9.12V18.25c0-5.03-4.09-9.12-9.12-9.12ZM28.9,32.14l-7.96-2.91,2.04-5.58,7.96,2.91-2.04,5.58ZM33.69,23.97l-11.13-4.07c-.87-.32-1.84.13-2.17,1.01l-3.2,8.75c-.15.42-.13.89.06,1.29.19.41.53.72.95.88l11.13,4.07c.19.07.39.1.58.1.69,0,1.34-.42,1.59-1.11l3.2-8.76c.15-.42.13-.88-.06-1.29-.19-.4-.53-.72-.95-.87Z"/>
        <path class="cls-8" d="M44.05,35.1c0-2.09,1.71-3.8,3.8-3.8s3.8,1.71,3.8,3.8-1.7,3.8-3.8,3.8-3.8-1.7-3.8-3.8ZM55.03,35.1c0-3.96-3.22-7.18-7.18-7.18s-7.18,3.22-7.18,7.18,3.22,7.18,7.18,7.18,7.18-3.22,7.18-7.18ZM32.35,46.74l-5.16,2.04.98-5.08,4.19,3.04ZM26.38,39.2c-.54.21-.93.68-1.04,1.25l-2.06,10.7c-.12.61.11,1.23.58,1.62.31.26.69.39,1.08.39.21,0,.42-.04.62-.12l10.88-4.31c.57-.23.98-.75,1.05-1.36.08-.61-.19-1.22-.68-1.58l-8.83-6.4c-.47-.34-1.08-.42-1.61-.2ZM39.87,8.5h-11.65v-2.84h11.65v2.84ZM56.68,8.5h-13.44V3.97c0-.94-.75-1.69-1.69-1.69h-15.03c-.93,0-1.69.75-1.69,1.69v4.53h-13.43c-4.95,0-8.95,3.87-9.12,8.82,0,.09,0,1.51,0,1.6,0,.12.02.24.04.36.12.82.82,1.45,1.67,1.45h5.64c3.41,0,5.11-2.08,5.58-3.31.33-.87-.11-1.85-.98-2.18-.87-.33-1.87.1-2.18.98,0,.01-.52,1.14-2.42,1.14h-3.95c.14-3.07,2.65-5.46,5.74-5.46h45.28c3.07,0,5.58,2.43,5.73,5.46h-3.95c-1.85,0-2.38-1.06-2.42-1.14-.33-.87-1.3-1.31-2.18-.98-.87.33-1.31,1.31-.98,2.18.47,1.23,2.17,3.31,5.58,3.31h3.96v29.08h-3.96c-3.41,0-5.11,2.08-5.58,3.31-.33.87.11,1.85.98,2.18.2.08.4.11.6.11.68,0,1.26-.44,1.58-1.09,0-.01.52-1.13,2.42-1.13h3.93c-.3,2.88-2.75,5.14-5.71,5.14H11.41c-2.96,0-5.41-2.26-5.71-5.14h3.93c1.85,0,2.38,1.06,2.42,1.13.26.67.9,1.09,1.58,1.09.2,0,.4-.03.6-.11.87-.33,1.31-1.31.98-2.18-.47-1.23-2.17-3.31-5.58-3.31h-3.96v-20.56c0-.93-.76-1.69-1.69-1.69s-1.69.76-1.69,1.69v23.34c0,5.03,4.09,9.12,9.12,9.12h2.4v1.14c0,.93.75,1.69,1.69,1.69s1.69-.75,1.69-1.69v-1.14h33.72v1.14c0,.93.75,1.69,1.69,1.69s1.69-.75,1.69-1.69v-1.14h2.4c5.03,0,9.12-4.09,9.12-9.12V17.63c0-5.03-4.09-9.12-9.12-9.12ZM28.28,31.52l-7.96-2.91,2.04-5.58,7.96,2.91-2.04,5.58ZM33.06,23.34l-11.13-4.07c-.87-.32-1.84.13-2.17,1.01l-3.2,8.75c-.15.42-.13.89.06,1.29.19.41.53.72.95.88l11.13,4.07c.19.07.39.1.58.1.69,0,1.34-.42,1.59-1.11l3.2-8.76c.15-.42.13-.88-.06-1.29-.19-.4-.53-.72-.95-.87Z"/>
        <path class="cls-4" d="M43.42,34.48c0-2.09,1.71-3.8,3.8-3.8s3.8,1.71,3.8,3.8-1.7,3.8-3.8,3.8-3.8-1.7-3.8-3.8ZM54.41,34.48c0-3.96-3.22-7.18-7.18-7.18s-7.18,3.22-7.18,7.18,3.22,7.18,7.18,7.18,7.18-3.22,7.18-7.18ZM31.72,46.11l-5.16,2.04.98-5.08,4.19,3.04ZM25.76,38.58c-.54.21-.93.68-1.04,1.25l-2.06,10.7c-.12.61.11,1.23.58,1.62.31.26.69.39,1.08.39.21,0,.42-.04.62-.12l10.88-4.31c.57-.23.98-.75,1.05-1.36.08-.61-.19-1.22-.68-1.58l-8.83-6.4c-.47-.34-1.08-.42-1.61-.2ZM39.25,7.88h-11.65v-2.84h11.65v2.84ZM56.06,7.88h-13.44V3.34c0-.94-.75-1.69-1.69-1.69h-15.03c-.93,0-1.69.75-1.69,1.69v4.53h-13.43c-4.95,0-8.95,3.87-9.12,8.82,0,.09,0,1.51,0,1.6,0,.12.02.24.04.36.12.82.82,1.45,1.67,1.45h5.64c3.41,0,5.11-2.08,5.58-3.31.33-.87-.11-1.85-.98-2.18-.87-.33-1.87.1-2.18.98,0,.01-.52,1.14-2.42,1.14h-3.95c.14-3.07,2.65-5.46,5.74-5.46h45.28c3.07,0,5.58,2.43,5.73,5.46h-3.95c-1.85,0-2.38-1.06-2.42-1.14-.33-.87-1.3-1.31-2.18-.98-.87.33-1.31,1.31-.98,2.18.47,1.23,2.17,3.31,5.58,3.31h3.96v29.08h-3.96c-3.41,0-5.11,2.08-5.58,3.31-.33.87.11,1.85.98,2.18.2.08.4.11.6.11.68,0,1.26-.44,1.58-1.09,0-.01.52-1.13,2.42-1.13h3.93c-.3,2.88-2.75,5.14-5.71,5.14H10.78c-2.96,0-5.41-2.26-5.71-5.14h3.93c1.85,0,2.38,1.06,2.42,1.13.26.67.9,1.09,1.58,1.09.2,0,.4-.03.6-.11.87-.33,1.31-1.31.98-2.18-.47-1.23-2.17-3.31-5.58-3.31h-3.96v-20.56c0-.93-.76-1.69-1.69-1.69s-1.69.76-1.69,1.69v23.34c0,5.03,4.09,9.12,9.12,9.12h2.4v1.14c0,.93.75,1.69,1.69,1.69s1.69-.75,1.69-1.69v-1.14h33.72v1.14c0,.93.75,1.69,1.69,1.69s1.69-.75,1.69-1.69v-1.14h2.4c5.03,0,9.12-4.09,9.12-9.12V17c0-5.03-4.09-9.12-9.12-9.12ZM27.65,30.89l-7.96-2.91,2.04-5.58,7.96,2.91-2.04,5.58ZM32.44,22.72l-11.13-4.07c-.87-.32-1.84.13-2.17,1.01l-3.2,8.75c-.15.42-.13.89.06,1.29.19.41.53.72.95.88l11.13,4.07c.19.07.39.1.58.1.69,0,1.34-.42,1.59-1.11l3.2-8.76c.15-.42.13-.88-.06-1.29-.19-.4-.53-.72-.95-.87Z"/>
        <path class="cls-7" d="M42.8,33.85c0-2.09,1.71-3.8,3.8-3.8s3.8,1.71,3.8,3.8-1.7,3.8-3.8,3.8-3.8-1.7-3.8-3.8ZM53.78,33.85c0-3.96-3.22-7.18-7.18-7.18s-7.18,3.22-7.18,7.18,3.22,7.18,7.18,7.18,7.18-3.22,7.18-7.18ZM31.1,45.49l-5.16,2.04.98-5.08,4.19,3.04ZM25.13,37.95c-.54.21-.93.68-1.04,1.25l-2.06,10.7c-.12.61.11,1.23.58,1.62.31.26.69.39,1.08.39.21,0,.42-.04.62-.12l10.88-4.31c.57-.23.98-.75,1.05-1.36.08-.61-.19-1.22-.68-1.58l-8.83-6.4c-.47-.34-1.08-.42-1.61-.2ZM38.62,7.25h-11.65v-2.84h11.65v2.84ZM55.43,7.25h-13.44V2.72c0-.94-.75-1.69-1.69-1.69h-15.03c-.93,0-1.69.75-1.69,1.69v4.53h-13.43c-4.95,0-8.95,3.87-9.12,8.82,0,.09,0,1.51,0,1.6,0,.12.02.24.04.36.12.82.82,1.45,1.67,1.45h5.64c3.41,0,5.11-2.08,5.58-3.31.33-.87-.11-1.85-.98-2.18-.87-.33-1.87.1-2.18.98,0,.01-.52,1.14-2.42,1.14h-3.95c.14-3.07,2.65-5.46,5.74-5.46h45.28c3.07,0,5.58,2.43,5.73,5.46h-3.95c-1.85,0-2.38-1.06-2.42-1.14-.33-.87-1.3-1.31-2.18-.98-.87.33-1.31,1.31-.98,2.18.47,1.23,2.17,3.31,5.58,3.31h3.96v29.08h-3.96c-3.41,0-5.11,2.08-5.58,3.31-.33.87.11,1.85.98,2.18.2.08.4.11.6.11.68,0,1.26-.44,1.58-1.09,0-.01.52-1.13,2.42-1.13h3.93c-.3,2.88-2.75,5.14-5.71,5.14H10.16c-2.96,0-5.41-2.26-5.71-5.14h3.93c1.85,0,2.38,1.06,2.42,1.13.26.67.9,1.09,1.58,1.09.2,0,.4-.03.6-.11.87-.33,1.31-1.31.98-2.18-.47-1.23-2.17-3.31-5.58-3.31h-3.96v-20.56c0-.93-.76-1.69-1.69-1.69s-1.69.76-1.69,1.69v23.34c0,5.03,4.09,9.12,9.12,9.12h2.4v1.14c0,.93.75,1.69,1.69,1.69s1.69-.75,1.69-1.69v-1.14h33.72v1.14c0,.93.75,1.69,1.69,1.69s1.69-.75,1.69-1.69v-1.14h2.4c5.03,0,9.12-4.09,9.12-9.12V16.38c0-5.03-4.09-9.12-9.12-9.12ZM27.03,30.27l-7.96-2.91,2.04-5.58,7.96,2.91-2.04,5.58ZM31.81,22.09l-11.13-4.07c-.87-.32-1.84.13-2.17,1.01l-3.2,8.75c-.15.42-.13.89.06,1.29.19.41.53.72.95.88l11.13,4.07c.19.07.39.1.58.1.69,0,1.34-.42,1.59-1.11l3.2-8.76c.15-.42.13-.88-.06-1.29-.19-.4-.53-.72-.95-.87Z"/>
        <path class="cls-5" d="M42.17,33.23c0-2.09,1.71-3.8,3.8-3.8s3.8,1.71,3.8,3.8-1.7,3.8-3.8,3.8-3.8-1.7-3.8-3.8ZM53.16,33.23c0-3.96-3.22-7.18-7.18-7.18s-7.18,3.22-7.18,7.18,3.22,7.18,7.18,7.18,7.18-3.22,7.18-7.18ZM30.47,44.86l-5.16,2.04.98-5.08,4.19,3.04ZM24.51,37.33c-.54.21-.93.68-1.04,1.25l-2.06,10.7c-.12.61.11,1.23.58,1.62.31.26.69.39,1.08.39.21,0,.42-.04.62-.12l10.88-4.31c.57-.23.98-.75,1.05-1.36.08-.61-.19-1.22-.68-1.58l-8.83-6.4c-.47-.34-1.08-.42-1.61-.2ZM38,6.63h-11.65v-2.84h11.65v2.84ZM54.81,6.63h-13.44V2.09c0-.94-.75-1.69-1.69-1.69h-15.03c-.93,0-1.69.75-1.69,1.69v4.53h-13.43C4.58,6.63.58,10.5.41,15.44c0,.09,0,1.51,0,1.6,0,.12.02.24.04.36.12.82.82,1.45,1.67,1.45h5.64c3.41,0,5.11-2.08,5.58-3.31.33-.87-.11-1.85-.98-2.18-.87-.33-1.85.11-2.18.98,0,.01-.52,1.14-2.42,1.14h-3.95c.14-3.07,2.65-5.46,5.74-5.46h45.28c3.07,0,5.58,2.43,5.73,5.46h-3.95c-1.85,0-2.38-1.06-2.42-1.14-.33-.87-1.3-1.31-2.18-.98-.87.33-1.31,1.31-.98,2.18.47,1.23,2.17,3.31,5.58,3.31h3.96v29.08h-3.96c-3.41,0-5.11,2.08-5.58,3.31-.33.87.11,1.85.98,2.18.2.08.4.11.6.11.68,0,1.32-.41,1.58-1.09,0,0,.52-1.13,2.42-1.13h3.93c-.3,2.88-2.75,5.14-5.71,5.14H9.53c-2.96,0-5.41-2.26-5.71-5.14h3.93c1.85,0,2.38,1.06,2.42,1.13.26.67.9,1.09,1.58,1.09.2,0,.4-.03.6-.11.87-.33,1.31-1.31.98-2.18-.47-1.23-2.17-3.31-5.58-3.31h-3.96v-20.56c0-.93-.76-1.69-1.69-1.69s-1.69.76-1.69,1.69v23.34c0,5.03,4.09,9.12,9.12,9.12h2.4v1.14c0,.93.75,1.69,1.69,1.69s1.69-.75,1.69-1.69v-1.14h33.72v1.14c0,.93.75,1.69,1.69,1.69s1.69-.75,1.69-1.69v-1.14h2.4c5.03,0,9.12-4.09,9.12-9.12V15.75c0-5.03-4.09-9.12-9.12-9.12ZM26.4,29.64l-7.96-2.91,2.04-5.58,7.96,2.91-2.04,5.58ZM31.19,21.47l-11.13-4.07c-.87-.32-1.84.13-2.17,1.01l-3.2,8.75c-.15.42-.13.89.06,1.29.19.41.53.72.95.88l11.13,4.07c.19.07.39.1.58.1.69,0,1.34-.42,1.59-1.11l3.2-8.76c.15-.42.13-.88-.06-1.29-.19-.41-.53-.72-.95-.87Z"/>
      </g>
      <path class="cls-10" d="M54.4,6.22h-13.44V1.69c0-.94-.75-1.69-1.69-1.69h-15.03c-.93,0-1.69.75-1.69,1.69v4.53h-13.43C4.17,6.22.17,10.09,0,15.04c0,.09,0,1.51,0,1.6,0,.12.02.24.04.36.12.82.82,1.45,1.67,1.45h5.64c3.41,0,5.11-2.08,5.58-3.31.33-.87-.11-1.85-.98-2.18-.87-.33-1.85.11-2.18.98,0,.01-.52,1.14-2.42,1.14h-3.95c.14-3.07,2.65-5.46,5.74-5.46h45.28c3.07,0,5.58,2.43,5.73,5.46h-3.95c-1.85,0-2.38-1.06-2.42-1.14-.33-.87-1.3-1.31-2.18-.98-.87.33-1.31,1.31-.98,2.18.47,1.23,2.17,3.31,5.58,3.31h3.96v29.08h-3.96c-3.41,0-5.11,2.08-5.58,3.31-.33.87.11,1.85.98,2.18.2.08.4.11.6.11.68,0,1.32-.41,1.58-1.09,0,0,.52-1.13,2.42-1.13h3.93c-.3,2.88-2.75,5.14-5.71,5.14H9.12c-2.96,0-5.41-2.26-5.71-5.14h3.93c1.85,0,2.38,1.06,2.42,1.13.26.67.9,1.09,1.58,1.09.2,0,.4-.03.6-.11.87-.33,1.31-1.31.98-2.18-.47-1.23-2.17-3.31-5.58-3.31h-3.96v-20.56c0-.93-.76-1.69-1.69-1.69s-1.69.76-1.69,1.69v23.34c0,5.03,4.09,9.12,9.12,9.12h2.4v1.14c0,.93.75,1.69,1.69,1.69s1.69-.75,1.69-1.69v-1.14h33.72v1.14c0,.93.75,1.69,1.69,1.69s1.69-.75,1.69-1.69v-1.14h2.4c5.03,0,9.12-4.09,9.12-9.12V15.35c0-5.03-4.09-9.12-9.12-9.12ZM37.59,6.22h-11.65v-2.84h11.65v2.84ZM30.78,21.06l-11.13-4.07c-.87-.32-1.84.13-2.17,1.01l-3.2,8.75c-.15.42-.13.89.06,1.29.19.41.53.72.95.88l11.13,4.07c.19.07.39.1.58.1.69,0,1.34-.42,1.59-1.11l3.2-8.76c.15-.42.13-.88-.06-1.29-.19-.41-.53-.72-.95-.87ZM26,29.24l-7.96-2.91,2.04-5.58,7.96,2.91-2.04,5.58ZM52.75,32.82c0-3.96-3.22-7.18-7.18-7.18s-7.18,3.22-7.18,7.18,3.22,7.18,7.18,7.18,7.18-3.22,7.18-7.18ZM41.77,32.82c0-2.09,1.71-3.8,3.8-3.8s3.8,1.71,3.8,3.8-1.71,3.8-3.8,3.8-3.8-1.7-3.8-3.8ZM24.1,36.92c-.54.21-.93.68-1.04,1.25l-2.06,10.71c-.12.61.11,1.23.58,1.62.31.26.69.39,1.08.39.21,0,.42-.04.62-.12l10.88-4.31c.57-.23.98-.75,1.05-1.36.08-.61-.19-1.22-.68-1.58l-8.83-6.4c-.47-.34-1.08-.41-1.61-.2ZM30.07,44.46l-5.16,2.04.98-5.08,4.19,3.04Z"/>
    </g>
  </g>
</svg>