<?xml version="1.0" encoding="UTF-8"?>
<svg id="Layer_2" data-name="Layer 2" xmlns="http://www.w3.org/2000/svg" xmlns:xlink="http://www.w3.org/1999/xlink" viewBox="0 0 70.95 70.95">
  <defs>
    <style>
      .cls-1 {
        opacity: .14;
      }

      .cls-2 {
        fill: url(#linear-gradient-2);
      }

      .cls-3 {
        opacity: .21;
      }

      .cls-4 {
        opacity: .42;
      }

      .cls-5 {
        opacity: .55;
      }

      .cls-6 {
        opacity: .48;
      }

      .cls-7 {
        opacity: .35;
      }

      .cls-8 {
        fill: url(#linear-gradient-3);
      }

      .cls-9 {
        opacity: .08;
      }

      .cls-10 {
        opacity: .28;
      }

      .cls-11 {
        opacity: 0;
      }

      .cls-12 {
        fill: url(#linear-gradient);
      }
    </style>
    <linearGradient id="linear-gradient" x1="8.98" y1="8.64" x2="57.42" y2="57.07" gradientUnits="userSpaceOnUse">
      <stop offset="0" stop-color="#eb0a00"/>
      <stop offset="1" stop-color="#ff853b"/>
    </linearGradient>
    <linearGradient id="linear-gradient-2" x1="17.95" y1="17.61" x2="48.3" y2="47.95" gradientUnits="userSpaceOnUse">
      <stop offset="0" stop-color="#c0c1c0"/>
      <stop offset=".2" stop-color="#d4d4d4"/>
      <stop offset=".49" stop-color="#ebeceb"/>
      <stop offset=".77" stop-color="#fafafa"/>
      <stop offset="1" stop-color="#fff"/>
    </linearGradient>
    <linearGradient id="linear-gradient-3" x1="9.6" y1="9.6" x2="55.94" y2="55.94" gradientUnits="userSpaceOnUse">
      <stop offset="0" stop-color="#2c2e2c"/>
      <stop offset=".99" stop-color="#000"/>
    </linearGradient>
  </defs>
  <g id="Layer_1-2" data-name="Layer 1">
    <g>
      <path class="cls-12" d="M64.16,32.66c0,17.21-13.95,31.16-31.16,31.16S1.84,49.87,1.84,32.66,15.79,1.49,33,1.49s31.16,13.95,31.16,31.16Z"/>
      <path class="cls-2" d="M33,13.13c-10.78,0-19.52,8.74-19.52,19.52s8.74,19.52,19.52,19.52,19.52-8.74,19.52-19.52-8.74-19.52-19.52-19.52ZM33,39.99c-4.05,0-7.33-3.28-7.33-7.33s3.28-7.33,7.33-7.33,7.33,3.28,7.33,7.33-3.28,7.33-7.33,7.33Z"/>
      <g>
        <path class="cls-11" d="M32.3,37.8c0-.55.22-1.24.3-1.46,0-.02.02-.04.03-.07.12-.36.28-.71.47-1.03,1.05-1.81,3-2.93,5.09-2.93,3.23,0,5.87,2.63,5.87,5.87s-2.63,5.87-5.87,5.87-5.87-2.63-5.87-5.87c0-.08,0-.15-.01-.22,0-.05,0-.1,0-.16ZM38.18,47.43c5.1,0,9.25-4.15,9.25-9.25s-4.15-9.25-9.25-9.25c-3.29,0-6.36,1.77-8.01,4.62-.29.51-.54,1.05-.74,1.61-.09.25-.51,1.44-.51,2.64,0,.08,0,.15.01.22,0,.05,0,.1,0,.16,0,5.1,4.15,9.25,9.25,9.25ZM20.71,38.18c0-.93-.75-1.69-1.69-1.69s-1.69.76-1.69,1.69c0,11.49,9.36,20.85,20.85,20.85s20.85-9.35,20.85-20.85-9.35-20.85-20.85-20.85c-7.42,0-14.33,3.99-18.05,10.41-.68,1.16-1.24,2.4-1.68,3.68-.3.88.17,1.84,1.05,2.14.88.3,1.84-.17,2.15-1.05.36-1.07.84-2.11,1.4-3.08,3.12-5.38,8.92-8.73,15.13-8.73,9.63,0,17.47,7.84,17.47,17.47s-7.84,17.47-17.47,17.47-17.47-7.84-17.47-17.47ZM38.18,5.41c-11.65,0-22.53,6.27-28.38,16.37-1.06,1.83-1.95,3.78-2.64,5.79-.3.88.17,1.84,1.05,2.14.88.3,1.85-.17,2.15-1.05.62-1.8,1.41-3.54,2.37-5.19,5.24-9.05,15-14.68,25.45-14.68,16.21,0,29.39,13.19,29.39,29.39s-13.19,29.39-29.39,29.39-29.4-13.19-29.4-29.39c0-.93-.76-1.69-1.69-1.69s-1.69.76-1.69,1.69c0,18.07,14.7,32.77,32.78,32.77s32.77-14.7,32.77-32.77S56.25,5.41,38.18,5.41Z"/>
        <path class="cls-9" d="M31.68,37.18c0-.55.21-1.24.3-1.46,0-.02.02-.04.03-.07.13-.35.28-.71.47-1.03,1.05-1.81,3-2.93,5.09-2.93,3.23,0,5.87,2.63,5.87,5.87s-2.63,5.87-5.87,5.87-5.87-2.63-5.87-5.87c0-.08,0-.15-.01-.22,0-.05,0-.1,0-.16ZM37.56,46.8c5.1,0,9.25-4.15,9.25-9.25s-4.15-9.25-9.25-9.25c-3.29,0-6.36,1.77-8.01,4.62-.29.51-.54,1.05-.74,1.61-.09.25-.51,1.44-.51,2.64,0,.08,0,.15.01.22,0,.05,0,.1,0,.16,0,5.1,4.15,9.25,9.25,9.25ZM20.08,37.56c0-.93-.75-1.69-1.69-1.69s-1.69.76-1.69,1.69c0,11.49,9.36,20.85,20.85,20.85s20.85-9.35,20.85-20.85-9.35-20.85-20.85-20.85c-7.42,0-14.33,3.99-18.05,10.41-.68,1.16-1.24,2.4-1.68,3.68-.3.88.17,1.84,1.05,2.14.88.3,1.84-.16,2.15-1.05.37-1.07.84-2.11,1.4-3.08,3.12-5.38,8.92-8.73,15.13-8.73,9.63,0,17.47,7.84,17.47,17.47s-7.84,17.47-17.47,17.47-17.47-7.84-17.47-17.47ZM37.56,4.78c-11.65,0-22.53,6.27-28.38,16.37-1.06,1.83-1.95,3.78-2.64,5.79-.3.88.17,1.84,1.05,2.14.88.3,1.85-.17,2.15-1.05.62-1.8,1.41-3.54,2.37-5.19,5.24-9.05,15-14.68,25.45-14.68,16.21,0,29.39,13.19,29.39,29.39s-13.19,29.39-29.39,29.39-29.4-13.19-29.4-29.39c0-.93-.76-1.69-1.69-1.69s-1.69.76-1.69,1.69c0,18.07,14.7,32.77,32.78,32.77s32.77-14.7,32.77-32.77S55.63,4.78,37.56,4.78Z"/>
        <path class="cls-1" d="M31.05,36.55c0-.55.21-1.24.3-1.46,0-.02.02-.04.03-.07.13-.35.28-.71.47-1.03,1.05-1.81,3-2.93,5.09-2.93,3.23,0,5.87,2.63,5.87,5.87s-2.63,5.87-5.87,5.87-5.87-2.63-5.87-5.87c0-.08,0-.15-.01-.22,0-.05,0-.1,0-.16ZM36.93,46.18c5.1,0,9.25-4.15,9.25-9.25s-4.15-9.25-9.25-9.25c-3.29,0-6.36,1.77-8.01,4.62-.29.51-.54,1.05-.74,1.61-.09.25-.51,1.44-.51,2.64,0,.08,0,.15.01.22,0,.05,0,.1,0,.16,0,5.1,4.15,9.25,9.25,9.25ZM19.46,36.93c0-.93-.75-1.69-1.69-1.69s-1.69.76-1.69,1.69c0,11.49,9.36,20.85,20.85,20.85s20.85-9.35,20.85-20.85-9.35-20.85-20.85-20.85c-7.42,0-14.33,3.99-18.05,10.41-.68,1.16-1.24,2.4-1.68,3.68-.3.88.17,1.84,1.05,2.14.88.3,1.84-.16,2.15-1.05.37-1.07.84-2.11,1.4-3.08,3.12-5.38,8.92-8.73,15.13-8.73,9.63,0,17.47,7.84,17.47,17.47s-7.84,17.47-17.47,17.47-17.47-7.84-17.47-17.47ZM36.93,4.16c-11.65,0-22.53,6.27-28.38,16.37-1.06,1.83-1.95,3.78-2.64,5.79-.3.88.17,1.84,1.05,2.14.88.3,1.85-.17,2.15-1.05.62-1.8,1.41-3.54,2.37-5.19,5.24-9.05,15-14.68,25.45-14.68,16.21,0,29.39,13.19,29.39,29.39s-13.19,29.39-29.39,29.39S7.54,53.14,7.54,36.93c0-.93-.76-1.69-1.69-1.69s-1.69.76-1.69,1.69c0,18.07,14.7,32.77,32.78,32.77s32.77-14.7,32.77-32.77S55,4.16,36.93,4.16Z"/>
        <path class="cls-3" d="M30.43,35.93c0-.55.21-1.24.3-1.46,0-.02.02-.04.03-.07.13-.35.28-.71.47-1.03,1.05-1.81,3-2.93,5.09-2.93,3.23,0,5.87,2.63,5.87,5.87s-2.63,5.87-5.87,5.87-5.87-2.63-5.87-5.87c0-.08,0-.15-.01-.22,0-.05,0-.1,0-.16ZM36.31,45.55c5.1,0,9.25-4.15,9.25-9.25s-4.15-9.25-9.25-9.25c-3.29,0-6.36,1.77-8.01,4.62-.29.51-.54,1.05-.74,1.61-.09.25-.51,1.44-.51,2.64,0,.08,0,.15.01.22,0,.05,0,.1,0,.16,0,5.1,4.15,9.25,9.25,9.25ZM18.83,36.31c0-.93-.75-1.69-1.69-1.69s-1.69.76-1.69,1.69c0,11.49,9.36,20.85,20.85,20.85s20.85-9.35,20.85-20.85-9.35-20.85-20.85-20.85c-7.42,0-14.33,3.99-18.05,10.41-.68,1.16-1.24,2.4-1.68,3.68-.3.88.17,1.84,1.05,2.14.88.3,1.84-.16,2.15-1.05.37-1.07.84-2.11,1.4-3.08,3.12-5.38,8.92-8.73,15.13-8.73,9.63,0,17.47,7.84,17.47,17.47s-7.84,17.47-17.47,17.47-17.47-7.84-17.47-17.47ZM36.31,3.53c-11.65,0-22.53,6.27-28.38,16.37-1.06,1.83-1.95,3.78-2.64,5.79-.3.88.17,1.84,1.05,2.14.88.3,1.85-.17,2.15-1.05.62-1.8,1.41-3.54,2.37-5.19,5.24-9.05,15-14.68,25.45-14.68,16.21,0,29.39,13.19,29.39,29.39s-13.19,29.39-29.39,29.39S6.91,52.52,6.91,36.31c0-.93-.76-1.69-1.69-1.69s-1.69.76-1.69,1.69c0,18.07,14.7,32.77,32.78,32.77s32.77-14.7,32.77-32.77S54.38,3.53,36.31,3.53Z"/>
        <path class="cls-10" d="M29.8,35.3c0-.55.21-1.24.3-1.46,0-.02.02-.04.03-.07.13-.35.28-.71.47-1.03,1.05-1.81,3-2.93,5.09-2.93,3.23,0,5.87,2.63,5.87,5.87s-2.63,5.87-5.87,5.87-5.87-2.63-5.87-5.87c0-.08,0-.15-.01-.22,0-.05,0-.1,0-.16ZM35.68,44.93c5.1,0,9.25-4.15,9.25-9.25s-4.15-9.25-9.25-9.25c-3.29,0-6.36,1.77-8.01,4.62-.29.51-.54,1.05-.74,1.61-.09.25-.51,1.44-.51,2.64,0,.08,0,.15.01.22,0,.05,0,.1,0,.16,0,5.1,4.15,9.25,9.25,9.25ZM18.21,35.68c0-.93-.75-1.69-1.69-1.69s-1.69.76-1.69,1.69c0,11.49,9.36,20.85,20.85,20.85s20.85-9.35,20.85-20.85-9.35-20.85-20.85-20.85c-7.42,0-14.33,3.99-18.05,10.41-.68,1.16-1.24,2.4-1.68,3.68-.3.88.17,1.84,1.05,2.14.88.3,1.84-.16,2.15-1.05.37-1.07.84-2.11,1.4-3.08,3.12-5.38,8.92-8.73,15.13-8.73,9.63,0,17.47,7.84,17.47,17.47s-7.84,17.47-17.47,17.47-17.47-7.84-17.47-17.47ZM35.68,2.91c-11.65,0-22.53,6.27-28.38,16.37-1.06,1.83-1.95,3.78-2.64,5.79-.3.88.17,1.84,1.05,2.14.88.3,1.85-.17,2.15-1.05.62-1.8,1.41-3.54,2.37-5.19,5.24-9.05,15-14.68,25.45-14.68,16.21,0,29.39,13.19,29.39,29.39s-13.19,29.39-29.39,29.39S6.29,51.89,6.29,35.68c0-.93-.76-1.69-1.69-1.69s-1.69.76-1.69,1.69c0,18.07,14.7,32.77,32.78,32.77s32.77-14.7,32.77-32.77S53.75,2.91,35.68,2.91Z"/>
        <path class="cls-7" d="M29.18,34.68c0-.55.21-1.24.3-1.46,0-.02.02-.04.03-.07.13-.35.28-.71.47-1.03,1.05-1.81,3-2.93,5.09-2.93,3.23,0,5.87,2.63,5.87,5.87s-2.63,5.87-5.87,5.87-5.87-2.63-5.87-5.87c0-.08,0-.15-.01-.22,0-.05,0-.1,0-.16ZM35.06,44.3c5.1,0,9.25-4.15,9.25-9.25s-4.15-9.25-9.25-9.25c-3.29,0-6.36,1.77-8.01,4.62-.29.51-.54,1.05-.74,1.61-.09.25-.51,1.44-.51,2.64,0,.08,0,.15.01.22,0,.05,0,.1,0,.16,0,5.1,4.15,9.25,9.25,9.25ZM17.58,35.06c0-.93-.75-1.69-1.69-1.69s-1.69.76-1.69,1.69c0,11.49,9.36,20.85,20.85,20.85s20.85-9.35,20.85-20.85-9.35-20.85-20.85-20.85c-7.42,0-14.33,3.99-18.05,10.41-.68,1.16-1.24,2.4-1.68,3.68-.3.88.17,1.84,1.05,2.14.88.3,1.84-.16,2.15-1.05.37-1.07.84-2.11,1.4-3.08,3.12-5.38,8.92-8.73,15.13-8.73,9.63,0,17.47,7.84,17.47,17.47s-7.84,17.47-17.47,17.47-17.47-7.84-17.47-17.47ZM35.06,2.28c-11.65,0-22.53,6.27-28.38,16.37-1.06,1.83-1.95,3.78-2.64,5.79-.3.88.17,1.84,1.05,2.14.88.3,1.85-.17,2.15-1.05.62-1.8,1.41-3.54,2.37-5.19,5.24-9.05,15-14.68,25.45-14.68,16.21,0,29.39,13.19,29.39,29.39s-13.19,29.39-29.39,29.39S5.66,51.27,5.66,35.06c0-.93-.76-1.69-1.69-1.69s-1.69.76-1.69,1.69c0,18.07,14.7,32.77,32.78,32.77s32.77-14.7,32.77-32.77S53.13,2.28,35.06,2.28Z"/>
        <path class="cls-4" d="M28.55,34.05c0-.55.21-1.24.3-1.46,0-.02.02-.04.03-.07.13-.35.28-.71.47-1.03,1.05-1.81,3-2.93,5.09-2.93,3.23,0,5.87,2.63,5.87,5.87s-2.63,5.87-5.87,5.87-5.87-2.63-5.87-5.87c0-.08,0-.15-.01-.22,0-.05,0-.1,0-.16ZM34.43,43.68c5.1,0,9.25-4.15,9.25-9.25s-4.15-9.25-9.25-9.25c-3.29,0-6.36,1.77-8.01,4.62-.29.51-.54,1.05-.74,1.61-.09.25-.51,1.44-.51,2.64,0,.08,0,.15.01.22,0,.05,0,.1,0,.16,0,5.1,4.15,9.25,9.25,9.25ZM16.96,34.43c0-.93-.75-1.69-1.69-1.69s-1.69.76-1.69,1.69c0,11.49,9.36,20.85,20.85,20.85s20.85-9.35,20.85-20.85-9.35-20.85-20.85-20.85c-7.42,0-14.33,3.99-18.05,10.41-.68,1.16-1.24,2.4-1.68,3.68-.3.88.17,1.84,1.05,2.14.88.3,1.84-.16,2.15-1.05.37-1.07.84-2.11,1.4-3.08,3.12-5.38,8.92-8.73,15.13-8.73,9.63,0,17.47,7.84,17.47,17.47s-7.84,17.47-17.47,17.47-17.47-7.84-17.47-17.47ZM34.43,1.66C22.78,1.66,11.9,7.93,6.05,18.02c-1.06,1.83-1.95,3.78-2.64,5.79-.3.88.17,1.84,1.05,2.14.88.3,1.85-.17,2.15-1.05.62-1.8,1.41-3.54,2.37-5.19,5.24-9.05,15-14.68,25.45-14.68,16.21,0,29.39,13.19,29.39,29.39s-13.19,29.39-29.39,29.39S5.04,50.64,5.04,34.43c0-.93-.76-1.69-1.69-1.69s-1.69.76-1.69,1.69c0,18.07,14.7,32.77,32.78,32.77s32.77-14.7,32.77-32.77S52.5,1.66,34.43,1.66Z"/>
        <path class="cls-6" d="M27.93,33.43c0-.55.21-1.24.3-1.46,0-.02.02-.04.03-.07.13-.35.28-.71.47-1.03,1.05-1.81,3-2.93,5.09-2.93,3.23,0,5.87,2.63,5.87,5.87s-2.63,5.87-5.87,5.87-5.87-2.63-5.87-5.87c0-.08,0-.15-.01-.22,0-.05,0-.1,0-.16ZM33.81,43.05c5.1,0,9.25-4.15,9.25-9.25s-4.15-9.25-9.25-9.25c-3.29,0-6.36,1.77-8.01,4.62-.29.51-.54,1.05-.74,1.61-.09.25-.51,1.44-.51,2.64,0,.08,0,.15.01.22,0,.05,0,.1,0,.16,0,5.1,4.15,9.25,9.25,9.25ZM16.33,33.81c0-.93-.75-1.69-1.69-1.69s-1.69.76-1.69,1.69c0,11.49,9.36,20.85,20.85,20.85s20.85-9.35,20.85-20.85-9.35-20.85-20.85-20.85c-7.42,0-14.33,3.99-18.05,10.41-.68,1.16-1.24,2.4-1.68,3.68-.3.88.17,1.84,1.05,2.14.88.3,1.84-.16,2.15-1.05.37-1.07.84-2.11,1.4-3.08,3.12-5.38,8.92-8.73,15.13-8.73,9.63,0,17.47,7.84,17.47,17.47s-7.84,17.47-17.47,17.47-17.47-7.84-17.47-17.47ZM33.81,1.03C22.15,1.03,11.28,7.3,5.43,17.4c-1.06,1.83-1.95,3.78-2.64,5.79-.3.88.17,1.84,1.05,2.14.88.3,1.85-.17,2.15-1.05.62-1.8,1.41-3.54,2.37-5.19,5.24-9.05,15-14.68,25.45-14.68,16.21,0,29.39,13.19,29.39,29.39s-13.19,29.39-29.39,29.39S4.41,50.02,4.41,33.81c0-.93-.76-1.69-1.69-1.69s-1.69.76-1.69,1.69c0,18.07,14.7,32.77,32.78,32.77s32.77-14.7,32.77-32.77S51.88,1.03,33.81,1.03Z"/>
        <path class="cls-5" d="M27.3,32.8c0-.55.22-1.24.3-1.46,0-.02.02-.04.03-.07.12-.36.28-.71.47-1.03,1.05-1.81,3-2.93,5.09-2.93,3.23,0,5.87,2.63,5.87,5.87s-2.63,5.87-5.87,5.87-5.87-2.63-5.87-5.87c0-.08,0-.15-.01-.22,0-.05,0-.1,0-.16ZM33.18,42.43c5.1,0,9.25-4.15,9.25-9.25s-4.15-9.25-9.25-9.25c-3.29,0-6.36,1.77-8.01,4.62-.29.51-.54,1.05-.74,1.61-.09.25-.51,1.44-.51,2.64,0,.08,0,.15.01.22,0,.05,0,.1,0,.16,0,5.1,4.15,9.25,9.25,9.25ZM15.71,33.18c0-.93-.75-1.69-1.69-1.69s-1.69.76-1.69,1.69c0,11.49,9.36,20.85,20.85,20.85s20.85-9.35,20.85-20.85-9.35-20.85-20.85-20.85c-7.42,0-14.33,3.99-18.05,10.41-.68,1.16-1.24,2.4-1.68,3.68-.3.88.17,1.84,1.05,2.14.88.3,1.84-.17,2.15-1.05.36-1.07.84-2.11,1.4-3.08,3.12-5.38,8.92-8.73,15.13-8.73,9.63,0,17.47,7.84,17.47,17.47s-7.84,17.47-17.47,17.47-17.47-7.84-17.47-17.47ZM33.18.41C21.53.41,10.65,6.68,4.8,16.77c-1.06,1.83-1.95,3.78-2.64,5.79-.3.88.17,1.84,1.05,2.14.88.3,1.85-.17,2.15-1.05.62-1.8,1.41-3.54,2.37-5.19C12.97,9.41,22.73,3.79,33.18,3.79c16.21,0,29.39,13.19,29.39,29.39s-13.19,29.39-29.39,29.39S3.79,49.39,3.79,33.18c0-.93-.76-1.69-1.69-1.69s-1.69.76-1.69,1.69c0,18.07,14.7,32.77,32.78,32.77s32.77-14.7,32.77-32.77S51.25.41,33.18.41Z"/>
      </g>
      <path class="cls-8" d="M32.78,0C21.12,0,10.25,6.27,4.4,16.37c-1.06,1.83-1.95,3.78-2.64,5.79-.3.88.17,1.84,1.05,2.14.88.3,1.85-.17,2.15-1.05.62-1.8,1.41-3.55,2.37-5.19C12.57,9.01,22.32,3.38,32.78,3.38c16.21,0,29.39,13.19,29.39,29.39s-13.19,29.39-29.39,29.39S3.38,48.98,3.38,32.78c0-.93-.76-1.69-1.69-1.69s-1.69.76-1.69,1.69c0,18.07,14.7,32.77,32.78,32.77s32.77-14.7,32.77-32.77S50.85,0,32.78,0ZM15.3,32.78c0-.93-.75-1.69-1.69-1.69s-1.69.76-1.69,1.69c0,11.49,9.36,20.85,20.85,20.85s20.85-9.35,20.85-20.85-9.35-20.85-20.85-20.85c-7.42,0-14.33,3.99-18.05,10.41-.68,1.16-1.24,2.4-1.68,3.68-.3.88.17,1.84,1.05,2.14.88.3,1.84-.17,2.15-1.05.36-1.07.84-2.11,1.4-3.08,3.12-5.38,8.92-8.73,15.13-8.73,9.63,0,17.47,7.84,17.47,17.47s-7.84,17.47-17.47,17.47-17.47-7.84-17.47-17.47ZM32.78,42.02c5.1,0,9.25-4.15,9.25-9.25s-4.15-9.25-9.25-9.25c-3.29,0-6.36,1.77-8.01,4.62-.29.51-.54,1.05-.74,1.61-.09.25-.51,1.44-.51,2.64,0,.08,0,.15.01.22,0,.05,0,.1,0,.16,0,5.1,4.15,9.25,9.25,9.25ZM26.9,32.39c0-.55.22-1.24.3-1.46,0-.02.02-.04.03-.07.12-.36.28-.71.47-1.03,1.05-1.81,3-2.93,5.09-2.93,3.23,0,5.87,2.63,5.87,5.87s-2.63,5.87-5.87,5.87-5.87-2.63-5.87-5.87c0-.08,0-.15-.01-.22,0-.05,0-.1,0-.16Z"/>
    </g>
  </g>
</svg>