<?xml version="1.0" encoding="UTF-8"?>
<svg id="Layer_2" data-name="Layer 2" xmlns="http://www.w3.org/2000/svg" viewBox="0 0 27.35 23.82">
  <defs>
    <style>
      .cls-1 {
        fill-rule: evenodd;
      }
    </style>
  </defs>
  <g id="_1" data-name="1">
    <path class="cls-1" d="M1.64,4.82h22.85c.46,0,.87.18,1.18.48.29.31.48.7.48,1.16v3.5h-7.16c-.58,0-1.12.25-1.51.64-.38.38-.62.91-.62,1.5v4.42c0,.6.24,1.12.62,1.51.39.39.93.64,1.51.64h7.16v3.48c0,.46-.19.87-.48,1.18-.31.29-.72.48-1.18.48H1.64c-.46,0-.87-.19-1.16-.48-.31-.3-.49-.72-.49-1.18V6.47c0-.46.18-.86.49-1.16.29-.3.7-.48,1.16-.48h0ZM19,11.17h7.42c.51,0,.94.41.94.94v4.42c0,.51-.43.94-.94.94h-7.42c-.51,0-.94-.43-.94-.94v-4.42c0-.53.43-.94.94-.94h0ZM1.6,3.84C6.71,2.56,15.72,1.27,20.83,0c.43.02.74.21.93.57.28,1.09.57,2.18.85,3.27H1.6ZM22.59,12.42c1.02,0,1.85.83,1.85,1.85s-.83,1.87-1.85,1.87-1.85-.85-1.85-1.87.82-1.85,1.85-1.85h0Z"/>
  </g>
</svg>