<?xml version="1.0" encoding="UTF-8"?>
<svg id="Layer_2" data-name="Layer 2" xmlns="http://www.w3.org/2000/svg" xmlns:xlink="http://www.w3.org/1999/xlink" viewBox="0 0 71.86 66.46">
  <defs>
    <style>
      .cls-1 {
        opacity: .14;
      }

      .cls-2 {
        fill: url(#linear-gradient-2);
      }

      .cls-3 {
        opacity: .21;
      }

      .cls-4 {
        opacity: .42;
      }

      .cls-5 {
        opacity: .55;
      }

      .cls-6 {
        opacity: .48;
      }

      .cls-7 {
        opacity: .35;
      }

      .cls-8 {
        opacity: .08;
      }

      .cls-9 {
        opacity: .28;
      }

      .cls-10 {
        opacity: 0;
      }

      .cls-11 {
        fill: url(#linear-gradient);
      }
    </style>
    <linearGradient id="linear-gradient" x1="5.74" y1="7.4" x2="60.83" y2="62.49" gradientUnits="userSpaceOnUse">
      <stop offset="0" stop-color="#3d704a"/>
      <stop offset="1" stop-color="#6bb387"/>
    </linearGradient>
    <linearGradient id="linear-gradient-2" x1="5.59" y1="7.06" x2="60.86" y2="62.34" gradientUnits="userSpaceOnUse">
      <stop offset="0" stop-color="#2c2e2c"/>
      <stop offset=".99" stop-color="#000"/>
    </linearGradient>
  </defs>
  <g id="Layer_1-2" data-name="Layer 1">
    <g>
      <path class="cls-11" d="M10.97,11.83v6.77s-4.88-.52-6.61,6.14c-1.73,6.66-2.78,21.25-2.78,25.92s1,8.81,7.03,8.81h12.85c2.52,0,6.35-1,6.66-5.77.32-4.77.47-13.27.47-13.27h9.55v8.6c0,3.04-.84,10.49,6.98,10.49h12.96c2.88,0,6.72-.89,6.61-9.13-.11-8.24-2.46-24.97-3.46-27.72s-3.87-3.62-5.87-3.62V7.05c0-2.25-1-5.25-5-5.25h-7.87c-2.5,0-4.62,1.88-4.62,5.5v11.38h-10V6.42c0-2.25-.37-4.88-4.62-4.88h-7.75c-2,0-4.25,1.75-4.25,4.25s-.26,6.03-.26,6.03Z"/>
      <g>
        <path class="cls-10" d="M41.39,34.94c0,1.52-1.24,2.75-2.76,2.75s-2.75-1.24-2.75-2.75c0-.25.03-.49.1-.73.06-.23.15-.45.27-.65.49-.85,1.41-1.38,2.39-1.38,1.52,0,2.76,1.24,2.76,2.75ZM33.32,31.87c-.26.46-.47.95-.61,1.45-.14.53-.21,1.07-.21,1.62,0,3.38,2.75,6.13,6.13,6.13s6.13-2.75,6.13-6.13-2.75-6.13-6.13-6.13c-2.18,0-4.21,1.17-5.31,3.06ZM59.19,22.79h-14.04v-11.3c0-1.46.94-2.7,2.05-2.7h9.94c1.11,0,2.05,1.23,2.05,2.7v11.3ZM69.04,29.82c-1.02-4.91-2.91-6.95-6.47-7.02v-11.31c0-3.35-2.44-6.08-5.43-6.08h-9.94c-3,0-5.43,2.73-5.43,6.08v11.3h-6.29v-11.3c0-3.35-2.44-6.08-5.43-6.08h-9.93c-3,0-5.43,2.73-5.43,6.08v5.47c0,.93.76,1.69,1.69,1.69s1.69-.76,1.69-1.69v-5.47c0-1.46.94-2.7,2.05-2.7h9.93c1.11,0,2.05,1.23,2.05,2.7v11.3H14.88c-3.69,0-5.62,2.04-6.66,7.03-1.83,8.76-2.81,20.91-2.81,27.9,0,5.8,2.82,8.74,8.4,8.74h13.52c5.11,0,8.16-2.76,8.16-7.38v-11.79h14.86c.93,0,1.69-.76,1.69-1.69s-.75-1.69-1.69-1.69h-23.42c-.93,0-1.69.76-1.69,1.69s.75,1.69,1.69,1.69h5.19v11.79c0,1.72-.5,4-4.78,4h-13.52c-2.12,0-5.02,0-5.02-5.36,0-6.82.96-18.68,2.74-27.21.91-4.34,2.09-4.34,3.35-4.34h47.51c1.25,0,2.44,0,3.35,4.34,1.78,8.54,2.74,20.39,2.74,27.21,0,5.36-2.9,5.36-5.02,5.36h-13.53c-4.29,0-4.79-2.29-4.79-4v-6.9c0-.93-.76-1.69-1.69-1.69s-1.69.76-1.69,1.69v6.9c0,4.62,3.05,7.38,8.16,7.38h13.53c5.57,0,8.39-2.94,8.39-8.74,0-6.99-.99-19.14-2.82-27.9Z"/>
        <path class="cls-8" d="M40.76,34.32c0,1.52-1.24,2.75-2.76,2.75s-2.75-1.24-2.75-2.75c0-.25.03-.49.1-.73.06-.23.15-.45.27-.65.49-.85,1.41-1.38,2.39-1.38,1.52,0,2.76,1.24,2.76,2.75ZM32.7,31.25c-.26.46-.47.95-.61,1.45-.14.53-.21,1.07-.21,1.62,0,3.38,2.75,6.13,6.13,6.13s6.13-2.75,6.13-6.13-2.75-6.13-6.13-6.13c-2.18,0-4.21,1.17-5.31,3.06ZM58.57,22.16h-14.04v-11.3c0-1.46.94-2.7,2.05-2.7h9.94c1.11,0,2.05,1.23,2.05,2.7v11.3ZM68.42,29.19c-1.02-4.91-2.91-6.95-6.47-7.02v-11.31c0-3.35-2.44-6.08-5.43-6.08h-9.94c-3,0-5.43,2.73-5.43,6.08v11.3h-6.29v-11.3c0-3.35-2.44-6.08-5.43-6.08h-9.93c-3,0-5.43,2.73-5.43,6.08v5.47c0,.93.76,1.69,1.69,1.69s1.69-.76,1.69-1.69v-5.47c0-1.46.94-2.7,2.05-2.7h9.93c1.11,0,2.05,1.23,2.05,2.7v11.3H14.25c-3.69,0-5.62,2.04-6.66,7.03-1.83,8.76-2.81,20.91-2.81,27.9,0,5.8,2.82,8.74,8.4,8.74h13.52c5.11,0,8.16-2.76,8.16-7.38v-11.79h14.86c.93,0,1.69-.76,1.69-1.69s-.75-1.69-1.69-1.69h-23.42c-.93,0-1.69.76-1.69,1.69s.75,1.69,1.69,1.69h5.19v11.79c0,1.72-.5,4-4.78,4h-13.52c-2.12,0-5.02,0-5.02-5.36,0-6.82.96-18.68,2.74-27.21.91-4.34,2.09-4.34,3.35-4.34h47.51c1.25,0,2.44,0,3.35,4.34,1.78,8.54,2.74,20.39,2.74,27.21,0,5.36-2.9,5.36-5.02,5.36h-13.53c-4.29,0-4.79-2.29-4.79-4v-6.9c0-.93-.76-1.69-1.69-1.69s-1.69.76-1.69,1.69v6.9c0,4.62,3.05,7.38,8.16,7.38h13.53c5.57,0,8.39-2.94,8.39-8.74,0-6.99-.99-19.14-2.82-27.9Z"/>
        <path class="cls-1" d="M40.14,33.69c0,1.52-1.24,2.75-2.76,2.75s-2.75-1.24-2.75-2.75c0-.25.03-.49.1-.73.06-.23.15-.45.27-.65.49-.85,1.41-1.38,2.39-1.38,1.52,0,2.76,1.24,2.76,2.75ZM32.07,30.62c-.26.46-.47.95-.61,1.45-.14.53-.21,1.07-.21,1.62,0,3.38,2.75,6.13,6.13,6.13s6.13-2.75,6.13-6.13-2.75-6.13-6.13-6.13c-2.18,0-4.21,1.17-5.31,3.06ZM57.94,21.54h-14.04v-11.3c0-1.46.94-2.7,2.05-2.7h9.94c1.11,0,2.05,1.23,2.05,2.7v11.3ZM67.79,28.57c-1.02-4.91-2.91-6.95-6.47-7.02v-11.31c0-3.35-2.44-6.08-5.43-6.08h-9.94c-3,0-5.43,2.73-5.43,6.08v11.3h-6.29v-11.3c0-3.35-2.44-6.08-5.43-6.08h-9.93c-3,0-5.43,2.73-5.43,6.08v5.47c0,.93.76,1.69,1.69,1.69s1.69-.76,1.69-1.69v-5.47c0-1.46.94-2.7,2.05-2.7h9.93c1.11,0,2.05,1.23,2.05,2.7v11.3H13.63c-3.69,0-5.62,2.04-6.66,7.03-1.83,8.76-2.81,20.91-2.81,27.9,0,5.8,2.82,8.74,8.4,8.74h13.52c5.11,0,8.16-2.76,8.16-7.38v-11.79h14.86c.93,0,1.69-.76,1.69-1.69s-.75-1.69-1.69-1.69h-23.42c-.93,0-1.69.76-1.69,1.69s.75,1.69,1.69,1.69h5.19v11.79c0,1.72-.5,4-4.78,4h-13.52c-2.12,0-5.02,0-5.02-5.36,0-6.82.96-18.68,2.74-27.21.91-4.34,2.09-4.34,3.35-4.34h47.51c1.25,0,2.44,0,3.35,4.34,1.78,8.54,2.74,20.39,2.74,27.21,0,5.36-2.9,5.36-5.02,5.36h-13.53c-4.29,0-4.79-2.29-4.79-4v-6.9c0-.93-.76-1.69-1.69-1.69s-1.69.76-1.69,1.69v6.9c0,4.62,3.05,7.38,8.16,7.38h13.53c5.57,0,8.39-2.94,8.39-8.74,0-6.99-.99-19.14-2.82-27.9Z"/>
        <path class="cls-3" d="M39.51,33.07c0,1.52-1.24,2.75-2.76,2.75s-2.75-1.24-2.75-2.75c0-.25.03-.49.1-.73.06-.23.15-.45.27-.65.49-.85,1.41-1.38,2.39-1.38,1.52,0,2.76,1.24,2.76,2.75ZM31.45,30c-.26.46-.47.95-.61,1.45-.14.53-.21,1.07-.21,1.62,0,3.38,2.75,6.13,6.13,6.13s6.13-2.75,6.13-6.13-2.75-6.13-6.13-6.13c-2.18,0-4.21,1.17-5.31,3.06ZM57.32,20.91h-14.04v-11.3c0-1.46.94-2.7,2.05-2.7h9.94c1.11,0,2.05,1.23,2.05,2.7v11.3ZM67.17,27.94c-1.02-4.91-2.91-6.95-6.47-7.02v-11.31c0-3.35-2.44-6.08-5.43-6.08h-9.94c-3,0-5.43,2.73-5.43,6.08v11.3h-6.29v-11.3c0-3.35-2.44-6.08-5.43-6.08h-9.93c-3,0-5.43,2.73-5.43,6.08v5.47c0,.93.76,1.69,1.69,1.69s1.69-.76,1.69-1.69v-5.47c0-1.46.94-2.7,2.05-2.7h9.93c1.11,0,2.05,1.23,2.05,2.7v11.3H13c-3.69,0-5.62,2.04-6.66,7.03-1.83,8.76-2.81,20.91-2.81,27.9,0,5.8,2.82,8.74,8.4,8.74h13.52c5.11,0,8.16-2.76,8.16-7.38v-11.79h14.86c.93,0,1.69-.76,1.69-1.69s-.75-1.69-1.69-1.69h-23.42c-.93,0-1.69.76-1.69,1.69s.75,1.69,1.69,1.69h5.19v11.79c0,1.72-.5,4-4.78,4h-13.52c-2.12,0-5.02,0-5.02-5.36,0-6.82.96-18.68,2.74-27.21.91-4.34,2.09-4.34,3.35-4.34h47.51c1.25,0,2.44,0,3.35,4.34,1.78,8.54,2.74,20.39,2.74,27.21,0,5.36-2.9,5.36-5.02,5.36h-13.53c-4.29,0-4.79-2.29-4.79-4v-6.9c0-.93-.76-1.69-1.69-1.69s-1.69.76-1.69,1.69v6.9c0,4.62,3.05,7.38,8.16,7.38h13.53c5.57,0,8.39-2.94,8.39-8.74,0-6.99-.99-19.14-2.82-27.9Z"/>
        <path class="cls-9" d="M38.89,32.44c0,1.52-1.24,2.75-2.76,2.75s-2.75-1.24-2.75-2.75c0-.25.03-.49.1-.73.06-.23.15-.45.27-.65.49-.85,1.41-1.38,2.39-1.38,1.52,0,2.76,1.24,2.76,2.75ZM30.82,29.37c-.26.46-.47.95-.61,1.45-.14.53-.21,1.07-.21,1.62,0,3.38,2.75,6.13,6.13,6.13s6.13-2.75,6.13-6.13-2.75-6.13-6.13-6.13c-2.18,0-4.21,1.17-5.31,3.06ZM56.69,20.29h-14.04v-11.3c0-1.46.94-2.7,2.05-2.7h9.94c1.11,0,2.05,1.23,2.05,2.7v11.3ZM66.54,27.32c-1.02-4.91-2.91-6.95-6.47-7.02v-11.31c0-3.35-2.44-6.08-5.43-6.08h-9.94c-3,0-5.43,2.73-5.43,6.08v11.3h-6.29v-11.3c0-3.35-2.44-6.08-5.43-6.08h-9.93c-3,0-5.43,2.73-5.43,6.08v5.47c0,.93.76,1.69,1.69,1.69s1.69-.76,1.69-1.69v-5.47c0-1.46.94-2.7,2.05-2.7h9.93c1.11,0,2.05,1.23,2.05,2.7v11.3H12.38c-3.69,0-5.62,2.04-6.66,7.03-1.83,8.76-2.81,20.91-2.81,27.9,0,5.8,2.82,8.74,8.4,8.74h13.52c5.11,0,8.16-2.76,8.16-7.38v-11.79h14.86c.93,0,1.69-.76,1.69-1.69s-.75-1.69-1.69-1.69h-23.42c-.93,0-1.69.76-1.69,1.69s.75,1.69,1.69,1.69h5.19v11.79c0,1.72-.5,4-4.78,4h-13.52c-2.12,0-5.02,0-5.02-5.36,0-6.82.96-18.68,2.74-27.21.91-4.34,2.09-4.34,3.35-4.34h47.51c1.25,0,2.44,0,3.35,4.34,1.78,8.54,2.74,20.39,2.74,27.21,0,5.36-2.9,5.36-5.02,5.36h-13.53c-4.29,0-4.79-2.29-4.79-4v-6.9c0-.93-.76-1.69-1.69-1.69s-1.69.76-1.69,1.69v6.9c0,4.62,3.05,7.38,8.16,7.38h13.53c5.57,0,8.39-2.94,8.39-8.74,0-6.99-.99-19.14-2.82-27.9Z"/>
        <path class="cls-7" d="M38.26,31.82c0,1.52-1.24,2.75-2.76,2.75s-2.75-1.24-2.75-2.75c0-.25.03-.49.1-.73.06-.23.15-.45.27-.65.49-.85,1.41-1.38,2.39-1.38,1.52,0,2.76,1.24,2.76,2.75ZM30.2,28.75c-.26.46-.47.95-.61,1.45-.14.53-.21,1.07-.21,1.62,0,3.38,2.75,6.13,6.13,6.13s6.13-2.75,6.13-6.13-2.75-6.13-6.13-6.13c-2.18,0-4.21,1.17-5.31,3.06ZM56.07,19.66h-14.04v-11.3c0-1.46.94-2.7,2.05-2.7h9.94c1.11,0,2.05,1.23,2.05,2.7v11.3ZM65.92,26.69c-1.02-4.91-2.91-6.95-6.47-7.02v-11.31c0-3.35-2.44-6.08-5.43-6.08h-9.94c-3,0-5.43,2.73-5.43,6.08v11.3h-6.29v-11.3c0-3.35-2.44-6.08-5.43-6.08h-9.93c-3,0-5.43,2.73-5.43,6.08v5.47c0,.93.76,1.69,1.69,1.69s1.69-.76,1.69-1.69v-5.47c0-1.46.94-2.7,2.05-2.7h9.93c1.11,0,2.05,1.23,2.05,2.7v11.3H11.75c-3.69,0-5.62,2.04-6.66,7.03-1.83,8.76-2.81,20.91-2.81,27.9,0,5.8,2.82,8.74,8.4,8.74h13.52c5.11,0,8.16-2.76,8.16-7.38v-11.79h14.86c.93,0,1.69-.76,1.69-1.69s-.75-1.69-1.69-1.69h-23.42c-.93,0-1.69.76-1.69,1.69s.75,1.69,1.69,1.69h5.19v11.79c0,1.72-.5,4-4.78,4h-13.52c-2.12,0-5.02,0-5.02-5.36,0-6.82.96-18.68,2.74-27.21.91-4.34,2.09-4.34,3.35-4.34h47.51c1.25,0,2.44,0,3.35,4.34,1.78,8.54,2.74,20.39,2.74,27.21,0,5.36-2.9,5.36-5.02,5.36h-13.53c-4.29,0-4.79-2.29-4.79-4v-6.9c0-.93-.76-1.69-1.69-1.69s-1.69.76-1.69,1.69v6.9c0,4.62,3.05,7.38,8.16,7.38h13.53c5.57,0,8.39-2.94,8.39-8.74,0-6.99-.99-19.14-2.82-27.9Z"/>
        <path class="cls-4" d="M37.64,31.19c0,1.52-1.24,2.75-2.76,2.75s-2.75-1.24-2.75-2.75c0-.25.03-.49.1-.73.06-.23.15-.45.27-.65.49-.85,1.41-1.38,2.39-1.38,1.52,0,2.76,1.24,2.76,2.75ZM29.57,28.12c-.26.46-.47.95-.61,1.45-.14.53-.21,1.07-.21,1.62,0,3.38,2.75,6.13,6.13,6.13s6.13-2.75,6.13-6.13-2.75-6.13-6.13-6.13c-2.18,0-4.21,1.17-5.31,3.06ZM55.44,19.04h-14.04V7.73c0-1.46.94-2.7,2.05-2.7h9.94c1.11,0,2.05,1.23,2.05,2.7v11.3ZM65.29,26.07c-1.02-4.91-2.91-6.95-6.47-7.02V7.73c0-3.35-2.44-6.08-5.43-6.08h-9.94c-3,0-5.43,2.73-5.43,6.08v11.3h-6.29V7.73c0-3.35-2.44-6.08-5.43-6.08h-9.93c-3,0-5.43,2.73-5.43,6.08v5.47c0,.93.76,1.69,1.69,1.69s1.69-.76,1.69-1.69v-5.47c0-1.46.94-2.7,2.05-2.7h9.93c1.11,0,2.05,1.23,2.05,2.7v11.3H11.13c-3.69,0-5.62,2.04-6.66,7.03-1.83,8.76-2.81,20.91-2.81,27.9,0,5.8,2.82,8.74,8.4,8.74h13.52c5.11,0,8.16-2.76,8.16-7.38v-11.79h14.86c.93,0,1.69-.76,1.69-1.69s-.75-1.69-1.69-1.69h-23.42c-.93,0-1.69.76-1.69,1.69s.75,1.69,1.69,1.69h5.19v11.79c0,1.72-.5,4-4.78,4h-13.52c-2.12,0-5.02,0-5.02-5.36,0-6.82.96-18.68,2.74-27.21.91-4.34,2.09-4.34,3.35-4.34h47.51c1.25,0,2.44,0,3.35,4.34,1.78,8.54,2.74,20.39,2.74,27.21,0,5.36-2.9,5.36-5.02,5.36h-13.53c-4.29,0-4.79-2.29-4.79-4v-6.9c0-.93-.76-1.69-1.69-1.69s-1.69.76-1.69,1.69v6.9c0,4.62,3.05,7.38,8.16,7.38h13.53c5.57,0,8.39-2.94,8.39-8.74,0-6.99-.99-19.14-2.82-27.9Z"/>
        <path class="cls-6" d="M37.01,30.57c0,1.52-1.24,2.75-2.76,2.75s-2.75-1.24-2.75-2.75c0-.25.03-.49.1-.73.06-.23.15-.45.27-.65.49-.85,1.41-1.38,2.39-1.38,1.52,0,2.76,1.24,2.76,2.75ZM28.95,27.5c-.26.46-.47.95-.61,1.45-.14.53-.21,1.07-.21,1.62,0,3.38,2.75,6.13,6.13,6.13s6.13-2.75,6.13-6.13-2.75-6.13-6.13-6.13c-2.18,0-4.21,1.17-5.31,3.06ZM54.82,18.41h-14.04V7.11c0-1.46.94-2.7,2.05-2.7h9.94c1.11,0,2.05,1.23,2.05,2.7v11.3ZM64.67,25.44c-1.02-4.91-2.91-6.95-6.47-7.02V7.11c0-3.35-2.44-6.08-5.43-6.08h-9.94c-3,0-5.43,2.73-5.43,6.08v11.3h-6.29V7.11c0-3.35-2.44-6.08-5.43-6.08h-9.93c-3,0-5.43,2.73-5.43,6.08v5.47c0,.93.76,1.69,1.69,1.69s1.69-.76,1.69-1.69v-5.47c0-1.46.94-2.7,2.05-2.7h9.93c1.11,0,2.05,1.23,2.05,2.7v11.3H10.5c-3.69,0-5.62,2.04-6.66,7.03-1.83,8.76-2.81,20.91-2.81,27.9,0,5.8,2.82,8.74,8.4,8.74h13.52c5.11,0,8.16-2.76,8.16-7.38v-11.79h14.86c.93,0,1.69-.76,1.69-1.69s-.75-1.69-1.69-1.69h-23.42c-.93,0-1.69.76-1.69,1.69s.75,1.69,1.69,1.69h5.19v11.79c0,1.72-.5,4-4.78,4h-13.52c-2.12,0-5.02,0-5.02-5.36,0-6.82.96-18.68,2.74-27.21.91-4.34,2.09-4.34,3.35-4.34h47.51c1.25,0,2.44,0,3.35,4.34,1.78,8.54,2.74,20.39,2.74,27.21,0,5.36-2.9,5.36-5.02,5.36h-13.53c-4.29,0-4.79-2.29-4.79-4v-6.9c0-.93-.76-1.69-1.69-1.69s-1.69.76-1.69,1.69v6.9c0,4.62,3.05,7.38,8.16,7.38h13.53c5.57,0,8.39-2.94,8.39-8.74,0-6.99-.99-19.14-2.82-27.9Z"/>
        <path class="cls-5" d="M36.39,29.94c0,1.52-1.24,2.75-2.76,2.75s-2.75-1.24-2.75-2.75c0-.25.03-.49.1-.73.06-.23.15-.45.27-.65.49-.85,1.41-1.38,2.39-1.38,1.52,0,2.76,1.24,2.76,2.75ZM28.32,26.87c-.26.46-.47.95-.61,1.45-.14.53-.21,1.07-.21,1.62,0,3.38,2.75,6.13,6.13,6.13s6.13-2.75,6.13-6.13-2.75-6.13-6.13-6.13c-2.18,0-4.21,1.17-5.31,3.06ZM54.19,17.79h-14.04V6.48c0-1.46.94-2.7,2.05-2.7h9.94c1.11,0,2.05,1.23,2.05,2.7v11.3ZM64.04,24.82c-1.02-4.91-2.91-6.95-6.47-7.02V6.48c0-3.35-2.44-6.08-5.43-6.08h-9.94c-3,0-5.43,2.73-5.43,6.08v11.3h-6.29V6.48c0-3.35-2.44-6.08-5.43-6.08h-9.93c-3,0-5.43,2.73-5.43,6.08v5.47c0,.93.76,1.69,1.69,1.69s1.69-.76,1.69-1.69v-5.47c0-1.46.94-2.7,2.05-2.7h9.93c1.11,0,2.05,1.23,2.05,2.7v11.3H9.88c-3.69,0-5.62,2.04-6.66,7.03C1.39,33.57.41,45.73.41,52.72c0,5.8,2.82,8.74,8.4,8.74h13.52c5.11,0,8.16-2.76,8.16-7.38v-11.79h14.86c.93,0,1.69-.76,1.69-1.69s-.75-1.69-1.69-1.69h-23.42c-.93,0-1.69.76-1.69,1.69s.75,1.69,1.69,1.69h5.19v11.79c0,1.72-.5,4-4.78,4h-13.52c-2.12,0-5.02,0-5.02-5.36,0-6.82.96-18.68,2.74-27.21.91-4.34,2.09-4.34,3.35-4.34h47.51c1.25,0,2.44,0,3.35,4.34,1.78,8.54,2.74,20.39,2.74,27.21,0,5.36-2.9,5.36-5.02,5.36h-13.53c-4.29,0-4.79-2.29-4.79-4v-6.9c0-.93-.76-1.69-1.69-1.69s-1.69.76-1.69,1.69v6.9c0,4.62,3.05,7.38,8.16,7.38h13.53c5.57,0,8.39-2.94,8.39-8.74,0-6.99-.99-19.14-2.82-27.9Z"/>
      </g>
      <path class="cls-2" d="M27.92,26.47c-.26.46-.47.95-.61,1.45-.14.53-.21,1.07-.21,1.62,0,3.38,2.75,6.13,6.13,6.13s6.13-2.75,6.13-6.13-2.75-6.13-6.13-6.13c-2.18,0-4.21,1.17-5.31,3.06ZM35.98,29.54c0,1.52-1.24,2.75-2.76,2.75s-2.75-1.24-2.75-2.75c0-.25.03-.49.1-.73.06-.23.15-.45.27-.65.49-.85,1.41-1.38,2.39-1.38,1.52,0,2.76,1.24,2.76,2.75ZM63.64,24.41c-1.02-4.91-2.91-6.95-6.47-7.02V6.08c0-3.35-2.44-6.08-5.43-6.08h-9.94c-3,0-5.43,2.73-5.43,6.08v11.3h-6.29V6.08c0-3.35-2.44-6.08-5.43-6.08h-9.93c-3,0-5.43,2.73-5.43,6.08v5.47c0,.93.76,1.69,1.69,1.69s1.69-.76,1.69-1.69v-5.47c0-1.47.94-2.7,2.05-2.7h9.93c1.11,0,2.05,1.23,2.05,2.7v11.3H9.47c-3.69,0-5.62,2.04-6.66,7.03C.99,33.17,0,45.32,0,52.31c0,5.8,2.82,8.74,8.4,8.74h13.52c5.11,0,8.16-2.76,8.16-7.38v-11.79h14.86c.93,0,1.69-.76,1.69-1.69s-.75-1.69-1.69-1.69h-23.42c-.93,0-1.69.76-1.69,1.69s.75,1.69,1.69,1.69h5.19v11.79c0,1.72-.5,4-4.78,4h-13.52c-2.12,0-5.02,0-5.02-5.36,0-6.82.96-18.68,2.74-27.22.91-4.34,2.09-4.34,3.35-4.34h47.51c1.25,0,2.44,0,3.35,4.34,1.78,8.54,2.74,20.4,2.74,27.22,0,5.36-2.9,5.36-5.02,5.36h-13.53c-4.29,0-4.79-2.29-4.79-4v-6.9c0-.93-.76-1.69-1.69-1.69s-1.69.76-1.69,1.69v6.9c0,4.62,3.05,7.38,8.16,7.38h13.53c5.57,0,8.39-2.94,8.39-8.74,0-6.99-.99-19.14-2.82-27.91ZM53.79,17.38h-14.04V6.08c0-1.47.94-2.7,2.05-2.7h9.94c1.11,0,2.05,1.23,2.05,2.7v11.3Z"/>
    </g>
  </g>
</svg>