<?xml version="1.0" encoding="UTF-8"?>
<svg xmlns="http://www.w3.org/2000/svg" xmlns:xlink="http://www.w3.org/1999/xlink" viewBox="0 0 64.82 68.27">
  <defs>
    <style>
      .cls-1 {
        fill: url(#linear-gradient-4);
      }

      .cls-1, .cls-2, .cls-3, .cls-4, .cls-5, .cls-6 {
        stroke-miterlimit: 10;
      }

      .cls-1, .cls-2, .cls-4, .cls-5, .cls-6 {
        stroke: #ce0543;
      }

      .cls-2 {
        fill: url(#linear-gradient-2);
      }

      .cls-3 {
        fill: #fff;
        mix-blend-mode: soft-light;
        opacity: .8;
        stroke: #fff;
      }

      .cls-4 {
        fill: url(#linear-gradient-5);
      }

      .cls-7 {
        isolation: isolate;
      }

      .cls-5 {
        fill: url(#linear-gradient-3);
      }

      .cls-6 {
        fill: url(#linear-gradient);
      }
    </style>
    <linearGradient id="linear-gradient" x1="1.01" y1="30.49" x2="61.66" y2="30.49" gradientUnits="userSpaceOnUse">
      <stop offset="0" stop-color="#f2b3c3"/>
      <stop offset=".51" stop-color="#e84f7b"/>
      <stop offset=".69" stop-color="#d13769"/>
      <stop offset=".86" stop-color="#c1275d"/>
      <stop offset="1" stop-color="#bc2259"/>
    </linearGradient>
    <linearGradient id="linear-gradient-2" x1="38.27" y1="62.63" x2="48.53" y2="62.63" xlink:href="#linear-gradient"/>
    <linearGradient id="linear-gradient-3" x1="17.53" y1="62.63" x2="27.79" y2="62.63" xlink:href="#linear-gradient"/>
    <linearGradient id="linear-gradient-4" x1="41.55" y1="62.89" x2="45.24" y2="62.89" xlink:href="#linear-gradient"/>
    <linearGradient id="linear-gradient-5" x1="20.82" y1="62.89" x2="24.51" y2="62.89" xlink:href="#linear-gradient"/>
  </defs>
  <g class="cls-7">
    <g id="Layer_2" data-name="Layer 2">
      <g id="Objects">
        <g>
          <g>
            <path class="cls-6" d="M60.14,15.49H13.43L7.52,2.74c-.09-.75-.72-1.25-1.5-1.25H1.98c-.84,0-.97.56-.97,1.39v1.01c0,.84.13,1.59.97,1.59h2.9l5.39,11.66c.09.19.21.34.36.47l2.98,29.78c0,.47,4.55,11.1,4.55,11.1,0,0,0-.26,0-.25,0,.84.68,1.24,1.52,1.24h28.83c.84,0,1.52-.66,1.52-1.5s-.68-1.5-1.52-1.5h-27.13l-3.32-7h32.98c.84,0,1.52-.97,1.52-1.81l9.1-30.51c0-.84-.68-1.68-1.52-1.68ZM24.2,35.49h-8.5l-.68-6h8.76l.42,6ZM23.22,18.49l.45,8h-8.83l-.72-8h9.1ZM16.76,46.49l-.88-8h8.43l.59,8h-8.14ZM26.25,18.49h9.61l.29,8h-9.56l-.34-8ZM26.67,29.49h9.55l.27,6h-9.51l-.32-6ZM27.48,46.62l-.4-8.13h9.49l.35,8.09-9.44.04ZM47.47,46.48l-8.34.14-.21-8.12h8.58l-.02,7.99ZM48.01,35.49h-9.14l-.2-6h9.34v6ZM48.01,26.49h-9.4l-.22-8h9.62v8ZM50.2,46.49h-.96l.4-8h3.01l-2.45,8ZM53.36,35.49h-3.69l.15-6h5.72l-2.18,6ZM56.26,26.49h-6.4l.16-8h8.6l-2.36,8Z"/>
            <path class="cls-2" d="M48.53,62.63c0,2.83-2.3,5.13-5.13,5.13s-5.13-2.3-5.13-5.13,2.3-5.13,5.13-5.13,5.13,2.3,5.13,5.13Z"/>
            <path class="cls-5" d="M27.79,62.63c0,2.83-2.29,5.13-5.13,5.13s-5.13-2.3-5.13-5.13,2.3-5.13,5.13-5.13,5.13,2.3,5.13,5.13Z"/>
            <path class="cls-1" d="M45.24,62.89c0,1.02-.82,1.84-1.84,1.84s-1.84-.83-1.84-1.84.83-1.84,1.84-1.84,1.84.83,1.84,1.84Z"/>
            <path class="cls-4" d="M24.51,62.89c0,1.02-.82,1.84-1.84,1.84s-1.84-.83-1.84-1.84.83-1.84,1.84-1.84,1.84.83,1.84,1.84Z"/>
          </g>
          <path class="cls-3" d="M61.66,15.14c-1.52.51-14.74,21.47-47.51,33.69l-3.26-28.76L4.87,5.09s-2.67,1.27-3.87.21c-.86-.76-.36-3.85-.36-4.27C.65.02,2.14.75,7.14.82l3.07,5.79,4.06,5.45,3.25,3.59,44.12-.51Z"/>
        </g>
      </g>
    </g>
  </g>
</svg>