<?xml version="1.0" encoding="UTF-8"?>
<svg xmlns="http://www.w3.org/2000/svg" xmlns:xlink="http://www.w3.org/1999/xlink" viewBox="0 0 75.03 66.58">
  <defs>
    <style>
      .cls-1 {
        mix-blend-mode: soft-light;
        opacity: .8;
        stroke: #fff;
      }

      .cls-1, .cls-2 {
        fill: #fff;
      }

      .cls-1, .cls-3 {
        stroke-miterlimit: 10;
      }

      .cls-4 {
        isolation: isolate;
      }

      .cls-3 {
        fill: url(#linear-gradient);
        stroke: #ce0543;
      }

      .cls-5 {
        opacity: .7;
      }
    </style>
    <linearGradient id="linear-gradient" x1="9.41" y1="4.89" x2="39.36" y2="63.4" gradientUnits="userSpaceOnUse">
      <stop offset="0" stop-color="#f2b3c3"/>
      <stop offset=".51" stop-color="#e84f7b"/>
      <stop offset=".69" stop-color="#d13769"/>
      <stop offset=".86" stop-color="#c1275d"/>
      <stop offset="1" stop-color="#bc2259"/>
    </linearGradient>
  </defs>
  <g class="cls-4">
    <g id="Layer_2" data-name="Layer 2">
      <g id="Objects">
        <g>
          <path class="cls-3" d="M1.99,55.23c-3.47,5.97-.66,10.85,6.24,10.85h58.56c6.9,0,9.71-4.88,6.25-10.85L43.82,4.98c-3.47-5.97-9.15-5.97-12.62,0L1.99,55.23Z"/>
          <g class="cls-5">
            <path class="cls-2" d="M37.42,49.24c2.21,0,3.89,1.69,3.89,3.85s-1.69,3.85-3.89,3.85-3.85-1.69-3.85-3.85,1.73-3.85,3.85-3.85ZM40.71,42.84c0,2.29-1.08,3.37-3.37,3.37-2.16,0-3.24-1.08-3.24-3.37v-15.74c0-2.38,1.04-3.59,3.29-3.59s3.33,1.21,3.33,3.59v15.74Z"/>
          </g>
          <path class="cls-1" d="M1.99,55.23c-3.47,5.97,50.48-35.39,50.48-35.39l-8.64-14.87c-3.47-5.97-9.15-5.97-12.62,0L1.99,55.23Z"/>
        </g>
      </g>
    </g>
  </g>
</svg>