<?xml version="1.0" encoding="UTF-8"?>
<svg id="Layer_2" data-name="Layer 2" xmlns="http://www.w3.org/2000/svg" viewBox="0 0 20.72 27.35">
  <defs>
    <style>
      .cls-1 {
        fill-rule: evenodd;
      }
    </style>
  </defs>
  <g id="_1" data-name="1">
    <path class="cls-1" d="M19.18.94h-4.92v-.31c0-.34-.31-.64-.68-.64h-6.43c-.38,0-.68.3-.68.64v.31H1.54c-.86,0-1.54.64-1.54,1.43v23.55c0,.79.68,1.42,1.54,1.42h17.64c.85,0,1.54-.64,1.54-1.42V2.38c0-.79-.69-1.43-1.54-1.43h0ZM6.39,20.59h11.22c.28,0,.51.23.51.51v.72c0,.29-.23.52-.51.52H6.39c-.28,0-.51-.23-.51-.52v-.72c0-.28.23-.51.51-.51h0ZM3.48,20.59h1.22c.28,0,.51.23.51.51v.72c0,.29-.23.52-.51.52h-1.22c-.28,0-.51-.23-.51-.52v-.72c0-.28.23-.51.51-.51h0ZM6.39,17.19h11.22c.28,0,.51.23.51.51v.73c0,.28-.23.51-.51.51H6.39c-.28,0-.51-.23-.51-.51v-.73c0-.28.23-.51.51-.51h0ZM3.48,17.19h1.22c.28,0,.51.23.51.51v.73c0,.28-.23.51-.51.51h-1.22c-.28,0-.51-.23-.51-.51v-.73c0-.28.23-.51.51-.51h0ZM6.39,13.79h11.22c.28,0,.51.23.51.51v.72c0,.29-.23.51-.51.51H6.39c-.28,0-.51-.23-.51-.51v-.72c0-.28.23-.51.51-.51h0ZM3.48,13.79h1.22c.28,0,.51.23.51.51v.72c0,.29-.23.51-.51.51h-1.22c-.28,0-.51-.23-.51-.51v-.72c0-.28.23-.51.51-.51h0ZM6.39,10.4h11.22c.28,0,.51.23.51.51v.71c0,.28-.23.52-.51.52H6.39c-.28,0-.51-.24-.51-.52v-.71c0-.28.23-.51.51-.51h0ZM3.48,10.4h1.22c.28,0,.51.23.51.51v.71c0,.28-.23.52-.51.52h-1.22c-.28,0-.51-.24-.51-.52v-.71c0-.28.23-.51.51-.51h0ZM6.39,6.99h11.22c.28,0,.51.23.51.52v.72c0,.28-.23.51-.51.51H6.39c-.28,0-.51-.23-.51-.51v-.72c0-.29.23-.52.51-.52h0ZM3.48,6.99h1.22c.28,0,.51.23.51.52v.72c0,.28-.23.51-.51.51h-1.22c-.28,0-.51-.23-.51-.51v-.72c0-.29.23-.52.51-.52h0ZM19.01,25.76H1.72V2.53h4.75v.2c0,.34.3.64.68.64h6.43c.38,0,.68-.3.68-.64v-.2h4.76v23.23Z"/>
  </g>
</svg>