<?xml version="1.0" encoding="UTF-8"?>
<svg id="Layer_2" data-name="Layer 2" xmlns="http://www.w3.org/2000/svg" xmlns:xlink="http://www.w3.org/1999/xlink" viewBox="0 0 70.96 70.95">
  <defs>
    <style>
      .cls-1 {
        opacity: .14;
      }

      .cls-2 {
        fill: url(#linear-gradient-2);
      }

      .cls-3 {
        opacity: .21;
      }

      .cls-4 {
        opacity: .42;
      }

      .cls-5 {
        opacity: .55;
      }

      .cls-6 {
        opacity: .48;
      }

      .cls-7 {
        opacity: .35;
      }

      .cls-8 {
        opacity: .08;
      }

      .cls-9 {
        opacity: .28;
      }

      .cls-10 {
        opacity: 0;
      }

      .cls-11 {
        fill: url(#linear-gradient);
      }
    </style>
    <linearGradient id="linear-gradient" x1="8.93" y1="8.7" x2="57.36" y2="57.13" gradientUnits="userSpaceOnUse">
      <stop offset="0" stop-color="#a83dff"/>
      <stop offset="1" stop-color="#d4a1ff"/>
    </linearGradient>
    <linearGradient id="linear-gradient-2" x1="9.61" y1="9.6" x2="55.94" y2="55.94" gradientUnits="userSpaceOnUse">
      <stop offset="0" stop-color="#2c2e2c"/>
      <stop offset=".99" stop-color="#000"/>
    </linearGradient>
  </defs>
  <g id="Layer_1-2" data-name="Layer 1">
    <g>
      <path class="cls-11" d="M64.1,32.72c0,17.21-13.95,31.16-31.16,31.16S1.78,49.93,1.78,32.72,15.73,1.55,32.94,1.55s31.16,13.95,31.16,31.16Z"/>
      <g>
        <path class="cls-10" d="M48.58,48.58c-1.07,1.07-2.82,1.07-3.9,0-.17-.17-.32-.37-.44-.58-.12-.2-.21-.43-.27-.65-.25-.95.02-1.97.71-2.66,1.08-1.07,2.82-1.07,3.9,0,1.07,1.08,1.07,2.82,0,3.89ZM42.3,42.3c-1.54,1.54-2.15,3.81-1.59,5.92.14.51.34,1,.6,1.46.27.47.6.9.99,1.29,2.39,2.39,6.28,2.39,8.67,0,2.39-2.39,2.39-6.28,0-8.67-2.39-2.39-6.28-2.39-8.67,0ZM49.15,24.82l-24.33,24.33c-.66.66-.66,1.73,0,2.39.33.33.76.5,1.19.5s.86-.16,1.19-.5l24.33-24.33c.66-.66.66-1.73,0-2.39-.66-.66-1.73-.66-2.39,0ZM38.18,5.41c-11.66,0-22.53,6.27-28.38,16.37-1.06,1.84-1.95,3.79-2.64,5.79-.3.88.17,1.84,1.05,2.15.88.3,1.84-.17,2.15-1.05.62-1.8,1.41-3.54,2.36-5.19,5.25-9.05,15-14.68,25.46-14.68,16.21,0,29.39,13.19,29.39,29.39s-13.19,29.4-29.39,29.4-29.4-13.19-29.4-29.4c0-.94-.75-1.69-1.69-1.69s-1.69.75-1.69,1.69c0,18.07,14.7,32.78,32.78,32.78s32.77-14.7,32.77-32.78S56.25,5.41,38.18,5.41ZM25.39,25.39c-1.54,1.54-2.15,3.81-1.59,5.92.14.51.34,1,.6,1.46.27.47.6.91.99,1.29,2.39,2.39,6.28,2.39,8.67,0s2.39-6.28,0-8.67c-2.39-2.39-6.28-2.39-8.67,0ZM31.67,31.68c-1.07,1.07-2.82,1.07-3.89,0-.18-.18-.32-.37-.45-.58-.12-.21-.21-.43-.27-.65-.25-.95.02-1.97.71-2.66,1.07-1.07,2.82-1.07,3.89,0,1.08,1.07,1.08,2.82,0,3.89Z"/>
        <path class="cls-8" d="M47.96,47.95c-1.07,1.07-2.82,1.07-3.9,0-.17-.17-.32-.37-.44-.58-.12-.21-.21-.43-.27-.65-.25-.95.02-1.97.71-2.66,1.08-1.07,2.82-1.07,3.9,0,1.07,1.08,1.07,2.82,0,3.89ZM41.67,41.67c-1.54,1.54-2.15,3.81-1.59,5.92.14.51.34,1,.6,1.46.27.47.6.9.99,1.29,2.39,2.39,6.28,2.39,8.67,0,2.39-2.39,2.39-6.28,0-8.67-2.39-2.39-6.28-2.39-8.67,0ZM48.53,24.2l-24.33,24.33c-.66.66-.66,1.73,0,2.39.33.33.76.5,1.19.5s.86-.16,1.19-.5l24.33-24.33c.66-.66.66-1.73,0-2.39-.66-.66-1.73-.66-2.39,0ZM37.56,4.78c-11.66,0-22.53,6.27-28.38,16.37-1.06,1.84-1.95,3.79-2.64,5.79-.3.88.17,1.85,1.05,2.15.88.3,1.84-.17,2.15-1.05.62-1.8,1.41-3.54,2.36-5.19,5.25-9.05,15-14.68,25.46-14.68,16.21,0,29.39,13.19,29.39,29.39s-13.19,29.4-29.39,29.4-29.4-13.19-29.4-29.4c0-.94-.75-1.69-1.69-1.69s-1.69.75-1.69,1.69c0,18.07,14.7,32.78,32.78,32.78s32.77-14.7,32.77-32.78S55.63,4.78,37.56,4.78ZM24.77,24.77c-1.54,1.54-2.15,3.81-1.59,5.92.14.51.34,1,.6,1.46.27.47.6.91.99,1.29,2.39,2.39,6.28,2.39,8.67,0s2.39-6.28,0-8.67c-2.39-2.39-6.28-2.39-8.67,0ZM31.05,31.05c-1.07,1.07-2.82,1.07-3.89,0-.18-.18-.33-.37-.45-.58-.12-.21-.21-.43-.27-.65-.25-.95.02-1.97.71-2.66,1.07-1.07,2.82-1.07,3.89,0,1.08,1.07,1.08,2.82,0,3.89Z"/>
        <path class="cls-1" d="M47.33,47.33c-1.07,1.07-2.82,1.07-3.9,0-.17-.17-.32-.37-.44-.58-.12-.21-.21-.43-.27-.65-.25-.95.02-1.97.71-2.66,1.08-1.07,2.82-1.07,3.9,0,1.07,1.08,1.07,2.82,0,3.89ZM41.05,41.05c-1.54,1.54-2.15,3.81-1.59,5.92.14.51.34,1,.6,1.46.27.47.6.9.99,1.29,2.39,2.39,6.28,2.39,8.67,0,2.39-2.39,2.39-6.28,0-8.67-2.39-2.39-6.28-2.39-8.67,0ZM47.9,23.57l-24.33,24.33c-.66.66-.66,1.73,0,2.39.33.33.76.5,1.19.5s.86-.16,1.19-.5l24.33-24.33c.66-.66.66-1.73,0-2.39-.66-.66-1.73-.66-2.39,0ZM36.93,4.16c-11.66,0-22.53,6.27-28.38,16.37-1.06,1.84-1.95,3.79-2.64,5.79-.3.88.17,1.85,1.05,2.15.88.3,1.84-.17,2.15-1.05.62-1.8,1.41-3.54,2.36-5.19,5.25-9.05,15-14.68,25.46-14.68,16.21,0,29.39,13.19,29.39,29.39s-13.19,29.4-29.39,29.4S7.54,53.14,7.54,36.93c0-.94-.75-1.69-1.69-1.69s-1.69.75-1.69,1.69c0,18.07,14.7,32.78,32.78,32.78s32.77-14.7,32.77-32.78S55,4.16,36.93,4.16ZM24.14,24.14c-1.54,1.54-2.15,3.81-1.59,5.92.14.51.34,1,.6,1.46.27.47.6.91.99,1.29,2.39,2.39,6.28,2.39,8.67,0s2.39-6.28,0-8.67c-2.39-2.39-6.28-2.39-8.67,0ZM30.42,30.43c-1.07,1.07-2.82,1.07-3.89,0-.18-.18-.33-.37-.45-.58-.12-.21-.21-.43-.27-.65-.25-.95.02-1.97.71-2.66,1.07-1.07,2.82-1.07,3.89,0,1.08,1.07,1.08,2.82,0,3.89Z"/>
        <path class="cls-3" d="M46.71,46.7c-1.07,1.07-2.82,1.07-3.9,0-.17-.17-.32-.37-.44-.58-.12-.21-.21-.43-.27-.65-.25-.95.02-1.97.71-2.66,1.08-1.07,2.82-1.07,3.9,0,1.07,1.08,1.07,2.82,0,3.89ZM40.42,40.42c-1.54,1.54-2.15,3.81-1.59,5.92.14.51.34,1,.6,1.46.27.47.6.9.99,1.29,2.39,2.39,6.28,2.39,8.67,0,2.39-2.39,2.39-6.28,0-8.67-2.39-2.39-6.28-2.39-8.67,0ZM47.28,22.95l-24.33,24.33c-.66.66-.66,1.73,0,2.39.33.33.76.5,1.19.5s.86-.16,1.19-.5l24.33-24.33c.66-.66.66-1.73,0-2.39-.66-.66-1.73-.66-2.39,0ZM36.31,3.53c-11.66,0-22.53,6.27-28.38,16.37-1.06,1.84-1.95,3.79-2.64,5.79-.3.88.17,1.85,1.05,2.15.88.3,1.84-.17,2.15-1.05.62-1.8,1.41-3.54,2.36-5.19,5.25-9.05,15-14.68,25.46-14.68,16.21,0,29.39,13.19,29.39,29.39s-13.19,29.4-29.39,29.4S6.91,52.51,6.91,36.3c0-.94-.75-1.69-1.69-1.69s-1.69.75-1.69,1.69c0,18.07,14.7,32.78,32.78,32.78s32.77-14.7,32.77-32.78S54.38,3.53,36.31,3.53ZM23.52,23.52c-1.54,1.54-2.15,3.81-1.59,5.92.14.51.34,1,.6,1.46.27.47.6.91.99,1.29,2.39,2.39,6.28,2.39,8.67,0s2.39-6.28,0-8.67c-2.39-2.39-6.28-2.39-8.67,0ZM29.8,29.8c-1.07,1.07-2.82,1.07-3.89,0-.18-.18-.33-.37-.45-.58-.12-.21-.21-.43-.27-.65-.25-.95.02-1.97.71-2.66,1.07-1.07,2.82-1.07,3.89,0,1.08,1.07,1.08,2.82,0,3.89Z"/>
        <path class="cls-9" d="M46.08,46.08c-1.07,1.07-2.82,1.07-3.9,0-.17-.17-.32-.37-.44-.58-.12-.21-.21-.43-.27-.65-.25-.95.02-1.97.71-2.66,1.08-1.07,2.82-1.07,3.9,0,1.07,1.08,1.07,2.82,0,3.89ZM39.8,39.8c-1.54,1.54-2.15,3.81-1.59,5.92.14.51.34,1,.6,1.46.27.47.6.9.99,1.29,2.39,2.39,6.28,2.39,8.67,0,2.39-2.39,2.39-6.28,0-8.67-2.39-2.39-6.28-2.39-8.67,0ZM46.65,22.32l-24.33,24.33c-.66.66-.66,1.73,0,2.39.33.33.76.5,1.19.5s.86-.16,1.19-.5l24.33-24.33c.66-.66.66-1.73,0-2.39-.66-.66-1.73-.66-2.39,0ZM35.68,2.91c-11.66,0-22.53,6.27-28.38,16.37-1.06,1.84-1.95,3.79-2.64,5.79-.3.88.17,1.85,1.05,2.15.88.3,1.84-.17,2.15-1.05.62-1.8,1.41-3.54,2.36-5.19,5.25-9.05,15-14.68,25.46-14.68,16.21,0,29.39,13.19,29.39,29.39s-13.19,29.4-29.39,29.4S6.29,51.89,6.29,35.68c0-.94-.75-1.69-1.69-1.69s-1.69.75-1.69,1.69c0,18.07,14.7,32.78,32.78,32.78s32.77-14.7,32.77-32.78S53.75,2.91,35.68,2.91ZM22.89,22.89c-1.54,1.54-2.15,3.81-1.59,5.92.14.51.34,1,.6,1.46.27.47.6.91.99,1.29,2.39,2.39,6.28,2.39,8.67,0s2.39-6.28,0-8.67c-2.39-2.39-6.28-2.39-8.67,0ZM29.17,29.18c-1.07,1.07-2.82,1.07-3.89,0-.18-.18-.33-.37-.45-.58-.12-.21-.21-.43-.27-.65-.25-.95.02-1.97.71-2.66,1.07-1.07,2.82-1.07,3.89,0,1.08,1.07,1.08,2.82,0,3.89Z"/>
        <path class="cls-7" d="M45.46,45.45c-1.07,1.07-2.82,1.07-3.9,0-.17-.17-.32-.37-.44-.58-.12-.21-.21-.43-.27-.65-.25-.95.02-1.97.71-2.66,1.08-1.07,2.82-1.07,3.9,0,1.07,1.08,1.07,2.82,0,3.89ZM39.17,39.17c-1.54,1.54-2.15,3.81-1.59,5.92.14.51.34,1,.6,1.46.27.47.6.9.99,1.29,2.39,2.39,6.28,2.39,8.67,0,2.39-2.39,2.39-6.28,0-8.67-2.39-2.39-6.28-2.39-8.67,0ZM46.03,21.7l-24.33,24.33c-.66.66-.66,1.73,0,2.39.33.33.76.5,1.19.5s.86-.16,1.19-.5l24.33-24.33c.66-.66.66-1.73,0-2.39-.66-.66-1.73-.66-2.39,0ZM35.06,2.28c-11.66,0-22.53,6.27-28.38,16.37-1.06,1.84-1.95,3.79-2.64,5.79-.3.88.17,1.85,1.05,2.15.88.3,1.84-.17,2.15-1.05.62-1.8,1.41-3.54,2.36-5.19,5.25-9.05,15-14.68,25.46-14.68,16.21,0,29.39,13.19,29.39,29.39s-13.19,29.4-29.39,29.4S5.66,51.26,5.66,35.05c0-.94-.75-1.69-1.69-1.69s-1.69.75-1.69,1.69c0,18.07,14.7,32.78,32.78,32.78s32.77-14.7,32.77-32.78S53.13,2.28,35.06,2.28ZM22.27,22.27c-1.54,1.54-2.15,3.81-1.59,5.92.14.51.34,1,.6,1.46.27.47.6.91.99,1.29,2.39,2.39,6.28,2.39,8.67,0s2.39-6.28,0-8.67c-2.39-2.39-6.28-2.39-8.67,0ZM28.55,28.55c-1.07,1.07-2.82,1.07-3.89,0-.18-.18-.33-.37-.45-.58-.12-.21-.21-.43-.27-.65-.25-.95.02-1.97.71-2.66,1.07-1.07,2.82-1.07,3.89,0,1.08,1.07,1.08,2.82,0,3.89Z"/>
        <path class="cls-4" d="M44.83,44.83c-1.07,1.07-2.82,1.07-3.9,0-.17-.17-.32-.37-.44-.58-.12-.21-.21-.43-.27-.65-.25-.95.02-1.97.71-2.66,1.08-1.07,2.82-1.07,3.9,0,1.07,1.08,1.07,2.82,0,3.89ZM38.55,38.55c-1.54,1.54-2.15,3.81-1.59,5.92.14.51.34,1,.6,1.46.27.47.6.9.99,1.29,2.39,2.39,6.28,2.39,8.67,0,2.39-2.39,2.39-6.28,0-8.67-2.39-2.39-6.28-2.39-8.67,0ZM45.4,21.07l-24.33,24.33c-.66.66-.66,1.73,0,2.39.33.33.76.5,1.19.5s.86-.16,1.19-.5l24.33-24.33c.66-.66.66-1.73,0-2.39-.66-.66-1.73-.66-2.39,0ZM34.43,1.66C22.78,1.66,11.9,7.93,6.05,18.02c-1.06,1.84-1.95,3.79-2.64,5.79-.3.88.17,1.85,1.05,2.15.88.3,1.84-.17,2.15-1.05.62-1.8,1.41-3.54,2.36-5.19,5.25-9.05,15-14.68,25.46-14.68,16.21,0,29.39,13.19,29.39,29.39s-13.19,29.4-29.39,29.4S5.04,50.64,5.04,34.43c0-.94-.75-1.69-1.69-1.69s-1.69.75-1.69,1.69c0,18.07,14.7,32.78,32.78,32.78s32.77-14.7,32.77-32.78S52.5,1.66,34.43,1.66ZM21.64,21.64c-1.54,1.54-2.15,3.81-1.59,5.92.14.51.34,1,.6,1.46.27.47.6.91.99,1.29,2.39,2.39,6.28,2.39,8.67,0s2.39-6.28,0-8.67c-2.39-2.39-6.28-2.39-8.67,0ZM27.92,27.93c-1.07,1.07-2.82,1.07-3.89,0-.18-.18-.33-.37-.45-.58-.12-.21-.21-.43-.27-.65-.25-.95.02-1.97.71-2.66,1.07-1.07,2.82-1.07,3.89,0,1.08,1.07,1.08,2.82,0,3.89Z"/>
        <path class="cls-6" d="M44.21,44.2c-1.07,1.07-2.82,1.07-3.9,0-.17-.17-.32-.37-.44-.58-.12-.21-.21-.43-.27-.65-.25-.95.02-1.97.71-2.66,1.08-1.07,2.82-1.07,3.9,0,1.07,1.08,1.07,2.82,0,3.89ZM37.92,37.92c-1.54,1.54-2.15,3.81-1.59,5.92.14.51.34,1,.6,1.46.27.47.6.9.99,1.29,2.39,2.39,6.28,2.39,8.67,0,2.39-2.39,2.39-6.28,0-8.67-2.39-2.39-6.28-2.39-8.67,0ZM44.78,20.45l-24.33,24.33c-.66.66-.66,1.73,0,2.39.33.33.76.5,1.19.5s.86-.16,1.19-.5l24.33-24.33c.66-.66.66-1.73,0-2.39-.66-.66-1.73-.66-2.39,0ZM33.81,1.03C22.15,1.03,11.28,7.3,5.43,17.4c-1.06,1.84-1.95,3.79-2.64,5.79-.3.88.17,1.85,1.05,2.15.88.3,1.84-.17,2.15-1.05.62-1.8,1.41-3.54,2.36-5.19,5.25-9.05,15-14.68,25.46-14.68,16.21,0,29.39,13.19,29.39,29.39s-13.19,29.4-29.39,29.4S4.41,50.01,4.41,33.8c0-.94-.75-1.69-1.69-1.69s-1.69.75-1.69,1.69c0,18.07,14.7,32.78,32.78,32.78s32.77-14.7,32.77-32.78S51.88,1.03,33.81,1.03ZM21.02,21.02c-1.54,1.54-2.15,3.81-1.59,5.92.14.51.34,1,.6,1.46.27.47.6.91.99,1.29,2.39,2.39,6.28,2.39,8.67,0s2.39-6.28,0-8.67c-2.39-2.39-6.28-2.39-8.67,0ZM27.3,27.3c-1.07,1.07-2.82,1.07-3.89,0-.18-.18-.33-.37-.45-.58-.12-.21-.21-.43-.27-.65-.25-.95.02-1.97.71-2.66,1.07-1.07,2.82-1.07,3.89,0,1.08,1.07,1.08,2.82,0,3.89Z"/>
        <path class="cls-5" d="M43.58,43.58c-1.07,1.07-2.82,1.07-3.9,0-.17-.17-.32-.37-.44-.58-.12-.2-.21-.43-.27-.65-.25-.95.02-1.97.71-2.66,1.08-1.07,2.82-1.07,3.9,0,1.07,1.08,1.07,2.82,0,3.89ZM37.3,37.3c-1.54,1.54-2.15,3.81-1.59,5.92.14.51.34,1,.6,1.46.27.47.6.9.99,1.29,2.39,2.39,6.28,2.39,8.67,0,2.39-2.39,2.39-6.28,0-8.67-2.39-2.39-6.28-2.39-8.67,0ZM44.15,19.82l-24.33,24.33c-.66.66-.66,1.73,0,2.39.33.33.76.5,1.19.5s.86-.16,1.19-.5l24.33-24.33c.66-.66.66-1.73,0-2.39-.66-.66-1.73-.66-2.39,0ZM33.18.41C21.53.41,10.65,6.68,4.8,16.77c-1.06,1.84-1.95,3.79-2.64,5.79-.3.88.17,1.84,1.05,2.15.88.3,1.84-.17,2.15-1.05.62-1.8,1.41-3.54,2.36-5.19C12.98,9.41,22.73,3.78,33.18,3.78c16.21,0,29.39,13.19,29.39,29.39s-13.19,29.4-29.39,29.4S3.79,49.39,3.79,33.18c0-.94-.75-1.69-1.69-1.69s-1.69.75-1.69,1.69c0,18.07,14.7,32.78,32.78,32.78s32.77-14.7,32.77-32.78S51.25.41,33.18.41ZM20.39,20.39c-1.54,1.54-2.15,3.81-1.59,5.92.14.51.34,1,.6,1.46.27.47.6.91.99,1.29,2.39,2.39,6.28,2.39,8.67,0s2.39-6.28,0-8.67c-2.39-2.39-6.28-2.39-8.67,0ZM26.67,26.68c-1.07,1.07-2.82,1.07-3.89,0-.18-.18-.32-.37-.45-.58-.12-.21-.21-.43-.27-.65-.25-.95.02-1.97.71-2.66,1.07-1.07,2.82-1.07,3.89,0,1.08,1.07,1.08,2.82,0,3.89Z"/>
      </g>
      <path class="cls-2" d="M32.78,0C21.12,0,10.25,6.27,4.4,16.37c-1.06,1.84-1.95,3.79-2.64,5.79-.3.88.17,1.84,1.05,2.15.88.3,1.84-.17,2.15-1.05.62-1.8,1.41-3.54,2.36-5.19C12.57,9.01,22.32,3.38,32.78,3.38c16.21,0,29.39,13.19,29.39,29.39s-13.19,29.4-29.39,29.4S3.38,48.98,3.38,32.77c0-.94-.75-1.69-1.69-1.69s-1.69.75-1.69,1.69c0,18.07,14.7,32.78,32.78,32.78s32.77-14.7,32.77-32.78S50.85,0,32.78,0ZM19.99,19.99c-1.54,1.54-2.15,3.81-1.59,5.92.14.51.34,1,.6,1.46.27.47.6.91.99,1.29,2.39,2.39,6.28,2.39,8.67,0,2.39-2.39,2.39-6.28,0-8.67-2.39-2.39-6.28-2.39-8.67,0ZM26.27,26.27c-1.07,1.07-2.82,1.07-3.89,0-.18-.18-.32-.37-.45-.58-.12-.21-.21-.43-.27-.65-.25-.95.02-1.97.71-2.66,1.07-1.07,2.82-1.07,3.89,0,1.08,1.07,1.08,2.82,0,3.89ZM43.75,19.42l-24.33,24.33c-.66.66-.66,1.73,0,2.39.33.33.76.5,1.19.5s.86-.16,1.19-.5l24.33-24.33c.66-.66.66-1.73,0-2.39-.66-.66-1.73-.66-2.39,0ZM36.89,36.89c-1.54,1.54-2.15,3.81-1.59,5.92.14.51.34,1,.6,1.46.27.47.6.9.99,1.29,2.39,2.39,6.28,2.39,8.67,0s2.39-6.28,0-8.67c-2.39-2.39-6.28-2.39-8.67,0ZM43.18,43.17c-1.07,1.07-2.82,1.07-3.9,0-.17-.17-.32-.37-.44-.58-.12-.21-.21-.43-.27-.65-.25-.95.02-1.97.71-2.66,1.08-1.07,2.82-1.07,3.9,0,1.07,1.08,1.07,2.82,0,3.89Z"/>
    </g>
  </g>
</svg>