<?xml version="1.0" encoding="UTF-8"?>
<svg id="Layer_2" data-name="Layer 2" xmlns="http://www.w3.org/2000/svg" viewBox="0 0 23.37 27.36">
  <defs>
    <style>
      .cls-1 {
        fill-rule: evenodd;
      }
    </style>
  </defs>
  <g id="_1" data-name="1">
    <path class="cls-1" d="M6.63,24.29h2.49v-5.3H1.6v4.44c0,.47.39.86.86.86h4.17ZM10.03,11.11h3.31v16.25l-1.66-1.96-1.65,1.96V11.11ZM14.24,24.29h6.7c.48,0,.86-.39.86-.86v-4.44h-7.56v5.3ZM22.51,7.3h-3.89c1.64-.57,2.73-1.89,2.73-3.5,0-.94-.39-1.88-1.08-2.6-.74-.77-1.74-1.2-2.82-1.2-.27,0-.55.03-.83.09-1.77.34-3.17,1.65-4.02,3.76-.01.04-.03.08-.04.12l-.83,2.42-.92-2.42s-.03-.08-.05-.12C9.91,1.74,8.52.42,6.75.09c-.28-.06-.56-.09-.84-.09-1.08,0-2.08.42-2.81,1.2-.69.72-1.09,1.66-1.09,2.6,0,1.61,1.09,2.93,2.73,3.5H.86c-.47,0-.86.38-.86.86v2.99c0,.48.39.86.86.86h.74v3.82h7.52v-5.63h5.12v5.63h7.56v-3.82h.7c.48,0,.86-.39.86-.86v-2.99c0-.48-.38-.86-.86-.86h0ZM16.88,1.45c.19-.04.38-.06.57-.06,1.5,0,2.51,1.25,2.51,2.41,0,1.38-1.38,2.42-3.21,2.42h-3.41c.27-1.41,1.12-4.3,3.54-4.77h0ZM6.62,6.22c-1.83,0-3.21-1.04-3.21-2.42,0-1.16,1.01-2.41,2.5-2.41.18,0,.38.02.56.06,2.42.47,3.27,3.37,3.54,4.77h-3.4Z"/>
  </g>
</svg>