<?xml version="1.0" encoding="UTF-8"?>
<svg id="Layer_2" data-name="Layer 2" xmlns="http://www.w3.org/2000/svg" xmlns:xlink="http://www.w3.org/1999/xlink" viewBox="0 0 70.21 69.4">
  <defs>
    <style>
      .cls-1 {
        opacity: .14;
      }

      .cls-2 {
        fill: url(#linear-gradient-2);
      }

      .cls-3 {
        opacity: .21;
      }

      .cls-4 {
        opacity: .42;
      }

      .cls-5 {
        opacity: .55;
      }

      .cls-6 {
        fill: url(#linear-gradient-4);
      }

      .cls-7 {
        opacity: .48;
      }

      .cls-8 {
        opacity: .35;
      }

      .cls-9 {
        fill: url(#linear-gradient-3);
      }

      .cls-10 {
        fill: url(#linear-gradient-5);
      }

      .cls-11 {
        opacity: .08;
      }

      .cls-12 {
        opacity: .28;
      }

      .cls-13 {
        opacity: 0;
      }

      .cls-14 {
        fill: url(#linear-gradient);
      }
    </style>
    <linearGradient id="linear-gradient" x1="5.47" y1="8.83" x2="56.17" y2="59.53" gradientUnits="userSpaceOnUse">
      <stop offset="0" stop-color="#c0c1c0"/>
      <stop offset=".2" stop-color="#d4d4d4"/>
      <stop offset=".49" stop-color="#ebeceb"/>
      <stop offset=".77" stop-color="#fafafa"/>
      <stop offset="1" stop-color="#fff"/>
    </linearGradient>
    <linearGradient id="linear-gradient-2" x1="41.39" y1="32.41" x2="51.09" y2="42.12" gradientUnits="userSpaceOnUse">
      <stop offset=".01" stop-color="#ff870a"/>
      <stop offset="1" stop-color="#ffdb4a"/>
    </linearGradient>
    <linearGradient id="linear-gradient-3" x1="54.1" y1="20.17" x2="62.86" y2="28.93" gradientUnits="userSpaceOnUse">
      <stop offset="0" stop-color="#f24154"/>
      <stop offset="1" stop-color="#ff9078"/>
    </linearGradient>
    <linearGradient id="linear-gradient-4" x1="29.49" y1="46.8" x2="37.81" y2="55.12" gradientUnits="userSpaceOnUse">
      <stop offset="0" stop-color="#d79d81"/>
      <stop offset="1" stop-color="#f8d6b3"/>
    </linearGradient>
    <linearGradient id="linear-gradient-5" x1="6.09" y1="9.5" x2="56.2" y2="59.61" gradientUnits="userSpaceOnUse">
      <stop offset="0" stop-color="#2c2e2c"/>
      <stop offset=".99" stop-color="#000"/>
    </linearGradient>
  </defs>
  <g id="Layer_1-2" data-name="Layer 1">
    <g>
      <path class="cls-14" d="M55.5,54.84c0,3.92-3.18,7.1-7.1,7.1H8.51c-3.92,0-7.1-3.18-7.1-7.1V16.38L16.38,1.7h32.02c3.92,0,7.1,3.18,7.1,7.1v10.86s7.06-.15,7.2,5.94c.12,5.21-7.2,10.31-7.2,10.31v18.94Z"/>
      <polygon class="cls-2" points="50.5 23.97 33.46 43.07 41.88 50.87 59.54 31.98 50.5 23.97"/>
      <path class="cls-9" d="M51.74,23.21s4.61-6.03,9.57-1.24c4.96,4.79-.89,8.86-.89,8.86l-8.68-7.62Z"/>
      <polygon class="cls-6" points="33 43.87 30.1 54.43 41.12 51.41 33 43.87"/>
      <g>
        <path class="cls-13" d="M65.41,34.21c-.12.12-.24.24-.36.36l-5.98-5.97c.12-.12.25-.25.36-.37.39-.39,1.18-1.07,2.18-1.27,1.18-.25,2.35.24,3.59,1.48,2.1,2.09,2.16,3.82.21,5.78ZM39.81,51.3l4.38,4.39-6.24,1.85,1.85-6.23ZM67.59,26.05c-1.82-1.82-3.58-2.43-5.02-2.52v-9c0-5.03-4.09-9.12-9.12-9.12h-31.77c-.45,0-.88.17-1.19.49l-14.5,14.52c-.48.48-.63,1.21-.36,1.84.26.63.88,1.04,1.56,1.04h15.38c.93,0,1.69-.76,1.69-1.69v-12.82h29.19c3.17,0,5.74,2.58,5.74,5.74v9.74c-.99.5-1.73,1.15-2.16,1.57-3.22,3.22-9.09,9.76-14.34,15.64-.62.7-.56,1.77.14,2.39.7.62,1.76.56,2.38-.13,3.14-3.52,7.93-8.88,11.51-12.7l5.97,5.97c-5.24,5.52-12.53,13.75-15.4,17.01l-7.01-7.02c-.19-.19-.41-.32-.65-.4-.06-.03-.11-.05-.17-.07-.89-.26-1.83.24-2.1,1.14l-3.53,11.89c-.18.6-.01,1.24.43,1.68.32.32.75.49,1.19.49.16,0,.32-.02.48-.07l11.89-3.53c.31-.09.58-.27.79-.51.08-.09,5.26-6,10.58-11.86v14.51c0,3.17-2.58,5.74-5.74,5.74H14.53c-3.17,0-5.74-2.58-5.74-5.74v-30.55c0-.94-.76-1.69-1.69-1.69s-1.69.75-1.69,1.69v30.55c0,5.03,4.09,9.12,9.12,9.12h38.93c5.03,0,9.12-4.09,9.12-9.12v-18.14s0-.04,0-.05c1.96-2.13,3.8-4.07,5.22-5.49,3.29-3.29,3.21-7.13-.2-10.55ZM20.89,19.92h-9.62l9.62-9.63v9.63Z"/>
        <path class="cls-11" d="M64.78,33.59c-.12.12-.24.24-.36.36l-5.98-5.97c.12-.12.25-.25.36-.37.38-.39,1.19-1.06,2.18-1.27,1.18-.25,2.35.24,3.59,1.48,2.1,2.09,2.16,3.83.21,5.78ZM39.18,50.68l4.38,4.39-6.24,1.85,1.85-6.23ZM66.97,25.42c-1.82-1.82-3.58-2.43-5.02-2.52v-9c0-5.03-4.09-9.12-9.12-9.12h-31.77c-.45,0-.88.17-1.19.49l-14.5,14.52c-.48.48-.63,1.21-.36,1.84.26.63.88,1.04,1.56,1.04h15.38c.93,0,1.69-.76,1.69-1.69v-12.82h29.19c3.17,0,5.74,2.58,5.74,5.74v9.74c-.99.5-1.73,1.15-2.16,1.57-3.22,3.22-9.09,9.76-14.34,15.64-.62.7-.56,1.77.14,2.39.7.62,1.76.56,2.38-.13,3.14-3.52,7.93-8.88,11.51-12.7l5.97,5.97c-5.24,5.52-12.53,13.75-15.4,17.01l-7.01-7.02c-.19-.19-.41-.32-.65-.4-.06-.03-.11-.05-.17-.07-.89-.26-1.83.24-2.1,1.14l-3.53,11.89c-.18.6-.01,1.24.43,1.68.32.32.75.49,1.19.49.16,0,.32-.02.48-.07l11.89-3.53c.31-.09.58-.27.79-.51.08-.09,5.26-6,10.58-11.86v14.51c0,3.17-2.58,5.74-5.74,5.74H13.9c-3.17,0-5.74-2.58-5.74-5.74v-30.55c0-.94-.76-1.69-1.69-1.69s-1.69.75-1.69,1.69v30.55c0,5.03,4.09,9.12,9.12,9.12h38.93c5.03,0,9.12-4.09,9.12-9.12v-18.14s0-.04,0-.05c1.96-2.13,3.8-4.07,5.22-5.49,3.29-3.29,3.21-7.13-.2-10.55ZM20.26,19.29h-9.62l9.62-9.63v9.63Z"/>
        <path class="cls-1" d="M64.16,32.96c-.12.12-.24.24-.36.36l-5.98-5.97c.12-.12.25-.25.36-.37.38-.39,1.19-1.06,2.18-1.27,1.18-.25,2.35.24,3.59,1.48,2.1,2.09,2.16,3.83.21,5.78ZM38.56,50.05l4.38,4.39-6.24,1.85,1.85-6.23ZM66.34,24.8c-1.82-1.82-3.58-2.43-5.02-2.52v-9c0-5.03-4.09-9.12-9.12-9.12h-31.77c-.45,0-.88.17-1.19.49l-14.5,14.52c-.48.48-.63,1.21-.36,1.84.26.63.88,1.04,1.56,1.04h15.38c.93,0,1.69-.76,1.69-1.69V7.53h29.19c3.17,0,5.74,2.58,5.74,5.74v9.74c-.99.5-1.73,1.15-2.16,1.57-3.22,3.22-9.09,9.76-14.34,15.64-.62.7-.56,1.77.14,2.39.7.62,1.76.56,2.38-.13,3.14-3.52,7.93-8.88,11.51-12.7l5.97,5.97c-5.24,5.52-12.53,13.75-15.4,17.01l-7.01-7.02c-.19-.19-.41-.32-.65-.4-.06-.03-.11-.05-.17-.07-.89-.26-1.83.24-2.1,1.14l-3.53,11.89c-.18.6-.01,1.24.43,1.68.32.32.75.49,1.19.49.16,0,.32-.02.48-.07l11.89-3.53c.31-.09.58-.27.79-.51.08-.09,5.26-6,10.58-11.86v14.51c0,3.17-2.58,5.74-5.74,5.74H13.28c-3.17,0-5.74-2.58-5.74-5.74v-30.55c0-.94-.76-1.69-1.69-1.69s-1.69.75-1.69,1.69v30.55c0,5.03,4.09,9.12,9.12,9.12h38.93c5.03,0,9.12-4.09,9.12-9.12v-18.14s0-.04,0-.05c1.96-2.13,3.8-4.07,5.22-5.49,3.29-3.29,3.21-7.13-.2-10.55ZM19.64,18.67h-9.62l9.62-9.63v9.63Z"/>
        <path class="cls-3" d="M63.53,32.34c-.12.12-.24.24-.36.36l-5.98-5.97c.12-.12.25-.25.36-.37.38-.39,1.19-1.06,2.18-1.27,1.18-.25,2.35.24,3.59,1.48,2.1,2.09,2.16,3.83.21,5.78ZM37.93,49.43l4.38,4.39-6.24,1.85,1.85-6.23ZM65.72,24.17c-1.82-1.82-3.58-2.43-5.02-2.52v-9c0-5.03-4.09-9.12-9.12-9.12h-31.77c-.45,0-.88.17-1.19.49l-14.5,14.52c-.48.48-.63,1.21-.36,1.84.26.63.88,1.04,1.56,1.04h15.38c.93,0,1.69-.76,1.69-1.69V6.91h29.19c3.17,0,5.74,2.58,5.74,5.74v9.74c-.99.5-1.73,1.15-2.16,1.57-3.22,3.22-9.09,9.76-14.34,15.64-.62.7-.56,1.77.14,2.39.7.62,1.76.56,2.38-.13,3.14-3.52,7.93-8.88,11.51-12.7l5.97,5.97c-5.24,5.52-12.53,13.75-15.4,17.01l-7.01-7.02c-.19-.19-.41-.32-.65-.4-.06-.03-.11-.05-.17-.07-.89-.26-1.83.24-2.1,1.14l-3.53,11.89c-.18.6-.01,1.24.43,1.68.32.32.75.49,1.19.49.16,0,.32-.02.48-.07l11.89-3.53c.31-.09.58-.27.79-.51.08-.09,5.26-6,10.58-11.86v14.51c0,3.17-2.58,5.74-5.74,5.74H12.65c-3.17,0-5.74-2.58-5.74-5.74v-30.55c0-.94-.76-1.69-1.69-1.69s-1.69.75-1.69,1.69v30.55c0,5.03,4.09,9.12,9.12,9.12h38.93c5.03,0,9.12-4.09,9.12-9.12v-18.14s0-.04,0-.05c1.96-2.13,3.8-4.07,5.22-5.49,3.29-3.29,3.21-7.13-.2-10.55ZM19.01,18.04h-9.62l9.62-9.63v9.63Z"/>
        <path class="cls-12" d="M62.91,31.71c-.12.12-.24.24-.36.36l-5.98-5.97c.12-.12.25-.25.36-.37.38-.39,1.19-1.06,2.18-1.27,1.18-.25,2.35.24,3.59,1.48,2.1,2.09,2.16,3.83.21,5.78ZM37.31,48.8l4.38,4.39-6.24,1.85,1.85-6.23ZM65.09,23.55c-1.82-1.82-3.58-2.43-5.02-2.52v-9c0-5.03-4.09-9.12-9.12-9.12h-31.77c-.45,0-.88.17-1.19.49L3.5,17.92c-.48.48-.63,1.21-.36,1.84.26.63.88,1.04,1.56,1.04h15.38c.93,0,1.69-.76,1.69-1.69V6.28h29.19c3.17,0,5.74,2.58,5.74,5.74v9.74c-.99.5-1.73,1.15-2.16,1.57-3.22,3.22-9.09,9.76-14.34,15.64-.62.7-.56,1.77.14,2.39.7.62,1.76.56,2.38-.13,3.14-3.52,7.93-8.88,11.51-12.7l5.97,5.97c-5.24,5.52-12.53,13.75-15.4,17.01l-7.01-7.02c-.19-.19-.41-.32-.65-.4-.06-.03-.11-.05-.17-.07-.89-.26-1.83.24-2.1,1.14l-3.53,11.89c-.18.6-.01,1.24.43,1.68.32.32.75.49,1.19.49.16,0,.32-.02.48-.07l11.89-3.53c.31-.09.58-.27.79-.51.08-.09,5.26-6,10.58-11.86v14.51c0,3.17-2.58,5.74-5.74,5.74H12.03c-3.17,0-5.74-2.58-5.74-5.74v-30.55c0-.94-.76-1.69-1.69-1.69s-1.69.75-1.69,1.69v30.55c0,5.03,4.09,9.12,9.12,9.12h38.93c5.03,0,9.12-4.09,9.12-9.12v-18.14s0-.04,0-.05c1.96-2.13,3.8-4.07,5.22-5.49,3.29-3.29,3.21-7.13-.2-10.55ZM18.39,17.42h-9.62l9.62-9.63v9.63Z"/>
        <path class="cls-8" d="M62.28,31.09c-.12.12-.24.24-.36.36l-5.98-5.97c.12-.12.25-.25.36-.37.38-.39,1.19-1.06,2.18-1.27,1.18-.25,2.35.24,3.59,1.48,2.1,2.09,2.16,3.83.21,5.78ZM36.68,48.18l4.38,4.39-6.24,1.85,1.85-6.23ZM64.47,22.92c-1.82-1.82-3.58-2.43-5.02-2.52v-9c0-5.03-4.09-9.12-9.12-9.12h-31.77c-.45,0-.88.17-1.19.49L2.87,17.29c-.48.48-.63,1.21-.36,1.84.26.63.88,1.04,1.56,1.04h15.38c.93,0,1.69-.76,1.69-1.69V5.66h29.19c3.17,0,5.74,2.58,5.74,5.74v9.74c-.99.5-1.73,1.15-2.16,1.57-3.22,3.22-9.09,9.76-14.34,15.64-.62.7-.56,1.77.14,2.39.7.62,1.76.56,2.38-.13,3.14-3.52,7.93-8.88,11.51-12.7l5.97,5.97c-5.24,5.52-12.53,13.75-15.4,17.01l-7.01-7.02c-.19-.19-.41-.32-.65-.4-.06-.03-.11-.05-.17-.07-.89-.26-1.83.24-2.1,1.14l-3.53,11.89c-.18.6-.01,1.24.43,1.68.32.32.75.49,1.19.49.16,0,.32-.02.48-.07l11.89-3.53c.31-.09.58-.27.79-.51.08-.09,5.26-6,10.58-11.86v14.51c0,3.17-2.58,5.74-5.74,5.74H11.4c-3.17,0-5.74-2.58-5.74-5.74v-30.55c0-.94-.76-1.69-1.69-1.69s-1.69.75-1.69,1.69v30.55c0,5.03,4.09,9.12,9.12,9.12h38.93c5.03,0,9.12-4.09,9.12-9.12v-18.14s0-.04,0-.05c1.96-2.13,3.8-4.07,5.22-5.49,3.29-3.29,3.21-7.13-.2-10.55ZM17.76,16.79h-9.62l9.62-9.63v9.63Z"/>
        <path class="cls-4" d="M61.66,30.46c-.12.12-.24.24-.36.36l-5.98-5.97c.12-.12.25-.25.36-.37.38-.39,1.19-1.06,2.18-1.27,1.18-.25,2.35.24,3.59,1.48,2.1,2.09,2.16,3.83.21,5.78ZM36.06,47.55l4.38,4.39-6.24,1.85,1.85-6.23ZM63.84,22.3c-1.82-1.82-3.58-2.43-5.02-2.52v-9c0-5.03-4.09-9.12-9.12-9.12h-31.77c-.45,0-.88.17-1.19.49L2.25,16.67c-.48.48-.63,1.21-.36,1.84.26.63.88,1.04,1.56,1.04h15.38c.93,0,1.69-.76,1.69-1.69V5.03h29.19c3.17,0,5.74,2.58,5.74,5.74v9.74c-.99.5-1.73,1.15-2.16,1.57-3.22,3.22-9.09,9.76-14.34,15.64-.62.7-.56,1.77.14,2.39.7.62,1.76.56,2.38-.13,3.14-3.52,7.93-8.88,11.51-12.7l5.97,5.97c-5.24,5.52-12.53,13.75-15.4,17.01l-7.01-7.02c-.19-.19-.41-.32-.65-.4-.06-.03-.11-.05-.17-.07-.89-.26-1.83.24-2.1,1.14l-3.53,11.89c-.18.6-.01,1.24.43,1.68.32.32.75.49,1.19.49.16,0,.32-.02.48-.07l11.89-3.53c.31-.09.58-.27.79-.51.08-.09,5.26-6,10.58-11.86v14.51c0,3.17-2.58,5.74-5.74,5.74H10.78c-3.17,0-5.74-2.58-5.74-5.74v-30.55c0-.94-.76-1.69-1.69-1.69s-1.69.75-1.69,1.69v30.55c0,5.03,4.09,9.12,9.12,9.12h38.93c5.03,0,9.12-4.09,9.12-9.12v-18.14s0-.04,0-.05c1.96-2.13,3.8-4.07,5.22-5.49,3.29-3.29,3.21-7.13-.2-10.55ZM17.14,16.17H7.52l9.62-9.63v9.63Z"/>
        <path class="cls-7" d="M61.03,29.84c-.12.12-.24.24-.36.36l-5.98-5.97c.12-.12.25-.25.36-.37.38-.39,1.19-1.06,2.18-1.27,1.18-.25,2.35.24,3.59,1.48,2.1,2.09,2.16,3.83.21,5.78ZM35.43,46.93l4.38,4.39-6.24,1.85,1.85-6.23ZM63.22,21.67c-1.82-1.82-3.58-2.43-5.02-2.52v-9c0-5.03-4.09-9.12-9.12-9.12h-31.77c-.45,0-.88.17-1.19.49L1.62,16.04c-.48.48-.63,1.21-.36,1.84.26.63.88,1.04,1.56,1.04h15.38c.93,0,1.69-.76,1.69-1.69V4.41h29.19c3.17,0,5.74,2.58,5.74,5.74v9.74c-.99.5-1.73,1.15-2.16,1.57-3.22,3.22-9.09,9.76-14.34,15.64-.62.7-.56,1.77.14,2.39.7.62,1.76.56,2.38-.13,3.14-3.52,7.93-8.88,11.51-12.7l5.97,5.97c-5.24,5.52-12.53,13.75-15.4,17.01l-7.01-7.02c-.19-.19-.41-.32-.65-.4-.06-.03-.11-.05-.17-.07-.89-.26-1.83.24-2.1,1.14l-3.53,11.89c-.18.6-.01,1.24.43,1.68.32.32.75.49,1.19.49.16,0,.32-.02.48-.07l11.89-3.53c.31-.09.58-.27.79-.51.08-.09,5.26-6,10.58-11.86v14.51c0,3.17-2.58,5.74-5.74,5.74H10.15c-3.17,0-5.74-2.58-5.74-5.74v-30.55c0-.94-.76-1.69-1.69-1.69s-1.69.75-1.69,1.69v30.55c0,5.03,4.09,9.12,9.12,9.12h38.93c5.03,0,9.12-4.09,9.12-9.12v-18.14s0-.04,0-.05c1.96-2.13,3.8-4.07,5.22-5.49,3.29-3.29,3.21-7.13-.2-10.55ZM16.51,15.54H6.89l9.62-9.63v9.63Z"/>
        <path class="cls-5" d="M60.41,29.21c-.12.12-.24.24-.36.36l-5.98-5.97c.12-.12.25-.25.36-.37.39-.39,1.18-1.07,2.18-1.27,1.18-.25,2.35.24,3.59,1.48,2.1,2.09,2.16,3.82.21,5.78ZM34.81,46.3l4.38,4.39-6.24,1.85,1.85-6.23ZM62.59,21.05c-1.82-1.82-3.58-2.43-5.02-2.52v-9c0-5.03-4.09-9.12-9.12-9.12h-31.77c-.45,0-.88.17-1.19.49L1,15.42c-.48.48-.63,1.21-.36,1.84.26.63.88,1.04,1.56,1.04h15.38c.93,0,1.69-.76,1.69-1.69V3.78h29.19c3.17,0,5.74,2.58,5.74,5.74v9.74c-.99.5-1.73,1.15-2.16,1.57-3.22,3.22-9.09,9.76-14.34,15.64-.62.7-.56,1.77.14,2.39.7.62,1.76.56,2.38-.13,3.14-3.52,7.93-8.88,11.51-12.7l5.97,5.97c-5.24,5.52-12.53,13.75-15.4,17.01l-7.01-7.02c-.19-.19-.41-.32-.65-.4-.06-.03-.11-.05-.17-.07-.89-.26-1.83.24-2.1,1.14l-3.53,11.89c-.18.6-.01,1.24.43,1.68.32.32.75.49,1.19.49.16,0,.32-.02.48-.07l11.89-3.53c.31-.09.58-.27.79-.51.08-.09,5.26-6,10.58-11.86v14.51c0,3.17-2.58,5.74-5.74,5.74H9.53c-3.17,0-5.74-2.58-5.74-5.74v-30.55c0-.94-.76-1.69-1.69-1.69s-1.69.75-1.69,1.69v30.55c0,5.03,4.09,9.12,9.12,9.12h38.93c5.03,0,9.12-4.09,9.12-9.12v-18.14s0-.04,0-.05c1.96-2.13,3.8-4.07,5.22-5.49,3.29-3.29,3.21-7.13-.2-10.55ZM15.89,14.92H6.27L15.89,5.29v9.63Z"/>
      </g>
      <path class="cls-10" d="M62.19,20.64c-1.82-1.82-3.58-2.43-5.02-2.52v-9c0-5.03-4.09-9.12-9.12-9.12h-31.77c-.45,0-.88.17-1.19.49L.59,15.01c-.48.48-.63,1.21-.36,1.84.26.63.88,1.04,1.56,1.04h15.38c.93,0,1.69-.76,1.69-1.69V3.38h29.19c3.17,0,5.74,2.58,5.74,5.74v9.74c-.99.5-1.73,1.15-2.16,1.57-3.22,3.22-9.09,9.76-14.34,15.64-.62.7-.56,1.77.14,2.39.7.62,1.76.56,2.38-.13,3.14-3.52,7.93-8.88,11.51-12.7l5.97,5.97c-5.24,5.52-12.53,13.75-15.4,17.01l-7.01-7.02c-.19-.19-.41-.32-.65-.4-.06-.03-.11-.05-.17-.07-.89-.26-1.84.24-2.1,1.14l-3.53,11.89c-.18.6-.01,1.24.43,1.68.32.32.75.49,1.19.49.16,0,.32-.02.48-.07l11.89-3.53c.31-.09.58-.27.79-.51.08-.09,5.26-6,10.59-11.86v14.51c0,3.17-2.58,5.74-5.74,5.74H9.12c-3.17,0-5.74-2.58-5.74-5.74v-30.55c0-.94-.76-1.69-1.69-1.69s-1.69.75-1.69,1.69v30.55c0,5.03,4.09,9.12,9.12,9.12h38.93c5.03,0,9.12-4.09,9.12-9.12v-18.14s0-.04,0-.05c1.96-2.13,3.8-4.07,5.22-5.49,3.29-3.29,3.21-7.13-.2-10.55ZM15.48,14.51H5.86L15.48,4.88v9.63ZM34.4,45.89l4.38,4.39-6.24,1.85,1.85-6.23ZM60,28.8c-.12.12-.24.24-.36.36l-5.98-5.97c.12-.12.25-.25.36-.37.39-.39,1.18-1.07,2.18-1.27,1.18-.25,2.35.24,3.59,1.48,2.1,2.09,2.16,3.82.21,5.78Z"/>
    </g>
  </g>
</svg>