<?xml version="1.0" encoding="UTF-8"?>
<svg id="Layer_2" data-name="Layer 2" xmlns="http://www.w3.org/2000/svg" viewBox="0 0 18.3 27.35">
  <defs>
    <style>
      .cls-1 {
        fill-rule: evenodd;
      }
    </style>
  </defs>
  <g id="_1" data-name="1">
    <path class="cls-1" d="M17.61,5.59l-1.29-.75v-1.48c-.01-.76-.62-1.38-1.38-1.39h-1.49l-.74-1.29c-.39-.66-1.23-.88-1.89-.5l-1.29.74-1.29-.74c-.66-.37-1.5-.16-1.89.5l-.75,1.29h-1.48c-.76.01-1.37.63-1.37,1.39v1.48s-1.3.75-1.3.75c-.66.38-.88,1.23-.51,1.9l.74,1.28-.74,1.28c-.37.66-.15,1.51.51,1.89l1.28.75v1.49c.01.76.63,1.38,1.39,1.38h.32L0,25.26l3.97-2.31.6,4.41,4.6-10.02,2.84,9.99,1.26-4.26,3.57,2.89-2.96-10.39h1.06c.76,0,1.37-.62,1.37-1.38v-1.49s1.3-.75,1.3-.75c.66-.38.88-1.23.51-1.89l-.74-1.28.74-1.28c.37-.66.15-1.51-.51-1.9h0ZM10.56,12.27h-1.54v-5.06h-1.47v-1.09l3.01-.46v6.6ZM9.53,2.98c3.19,0,5.78,2.6,5.78,5.79s-2.59,5.77-5.78,5.77-5.77-2.58-5.77-5.77,2.58-5.79,5.77-5.79h0Z"/>
  </g>
</svg>