<?xml version="1.0" encoding="UTF-8"?>
<svg id="Layer_2" data-name="Layer 2" xmlns="http://www.w3.org/2000/svg" viewBox="0 0 24.9 27.35">
  <defs>
    <style>
      .cls-1 {
        fill-rule: evenodd;
      }
    </style>
  </defs>
  <g id="_1" data-name="1">
    <path class="cls-1" d="M13.83,2.34c.87.11,1.68.34,2.47.65,0-.02.01-.05.03-.06l.86-1.49c.14-.25.48-.34.73-.2l1.5.86c.25.15.34.48.19.74l-.85,1.48s-.03.05-.06.08c.68.53,1.29,1.13,1.81,1.8.03-.01.05-.03.07-.04l1.48-.87c.26-.14.59-.04.74.2l.85,1.5c.15.25.06.58-.19.72l-1.49.86s-.05.03-.08.03c.33.77.54,1.61.67,2.47.03-.02.06-.02.08-.02h1.73c.29,0,.54.24.54.54v1.71c0,.29-.25.54-.54.54h-1.81c-.13.85-.34,1.68-.67,2.45.03.01.06.01.08.03l1.49.86c.25.16.34.48.19.72l-.85,1.5c-.15.26-.48.34-.74.2l-1.48-.87s-.04-.03-.07-.05c-.52.66-1.13,1.28-1.81,1.79.03.03.05.05.06.08l.85,1.5c.14.23.08.54-.15.69l2.64,4.58h-1.7l-2.22-3.84-.25.15c-.25.14-.59.06-.73-.2l-.86-1.5s-.03-.04-.03-.06c-.79.3-1.61.53-2.47.64.02.04.02.07.02.09v1.72c0,.29-.25.54-.54.54h-1.71c-.31,0-.54-.25-.54-.54v-1.81c-.85-.11-1.68-.34-2.45-.64-.02.01-.03.04-.05.06l-.85,1.5c-.15.26-.47.34-.74.2l-.25-.15-2.22,3.84h-1.67l2.64-4.57c-.24-.15-.32-.46-.18-.71l.86-1.5s.03-.05.05-.08c-.68-.51-1.28-1.13-1.81-1.79-.02.02-.05.03-.06.05l-1.5.87c-.25.14-.59.05-.73-.2l-.86-1.5c-.14-.24-.06-.56.2-.72l1.48-.86s.06-.02.08-.03c-.31-.77-.54-1.6-.65-2.45H.54c-.3,0-.54-.25-.54-.54v-1.71c0-.29.25-.54.54-.54h1.71s.06,0,.09.02c.11-.87.34-1.7.65-2.47-.01,0-.05-.01-.08-.03l-1.48-.86c-.26-.14-.34-.48-.2-.72l.86-1.5c.14-.24.48-.34.73-.2l1.5.87s.04.03.06.04c.52-.67,1.13-1.26,1.81-1.8-.02-.02-.03-.04-.05-.08l-.86-1.48c-.14-.26-.06-.59.2-.74l1.48-.86c.27-.14.59-.05.74.2l.85,1.49s.03.05.05.06c.77-.31,1.6-.54,2.45-.65V.54c0-.29.23-.54.54-.54h1.71c.29,0,.54.24.54.54v1.71s0,.06-.02.09h0ZM7.57,4.74l3.58,6.21c-.06.06-.14.14-.2.21l-6.21-3.58c.73-1.14,1.68-2.12,2.83-2.84h0ZM13.11,14.33l3.58,6.2c-1.17.62-2.49.99-3.88,1.04v-7.17c.09-.02.2-.04.29-.08h0ZM17.32,20.16l-3.58-6.21c.08-.06.14-.14.22-.21l6.21,3.6c-.73,1.13-1.7,2.1-2.84,2.82h0ZM11.79,10.57l-3.58-6.2c1.16-.62,2.47-.98,3.86-1.04v7.16c-.09.02-.19.05-.28.08h0ZM4.37,8.21l6.21,3.58c-.03.09-.06.18-.08.29H3.34c.05-1.41.42-2.72,1.03-3.88h0ZM20.53,16.69l-6.21-3.58c.03-.09.05-.18.08-.3h7.16c-.06,1.41-.43,2.72-1.03,3.88h0ZM3.34,12.81h7.16c.01.11.05.2.08.3l-6.21,3.58c-.61-1.16-.98-2.47-1.03-3.88h0ZM21.57,12.09h-7.16c-.03-.11-.05-.2-.08-.29l6.21-3.58c.6,1.16.97,2.47,1.03,3.88h0ZM4.74,17.34l6.21-3.6c.06.08.14.15.2.21l-3.58,6.21c-1.14-.72-2.1-1.69-2.83-2.82h0ZM20.16,7.58l-6.21,3.58c-.08-.08-.14-.15-.22-.21l3.58-6.21c1.14.73,2.11,1.7,2.84,2.84h0ZM8.21,20.53l3.58-6.2c.1.03.19.06.28.08v7.17c-1.39-.05-2.7-.42-3.86-1.04h0ZM16.69,4.37l-3.58,6.2c-.09-.03-.2-.06-.29-.08V3.33c1.39.06,2.7.42,3.88,1.04h0Z"/>
  </g>
</svg>