<?xml version="1.0" encoding="UTF-8"?>
<svg id="Layer_2" data-name="Layer 2" xmlns="http://www.w3.org/2000/svg" xmlns:xlink="http://www.w3.org/1999/xlink" viewBox="0 0 78.54 78.54">
  <defs>
    <style>
      .cls-1 {
        opacity: .14;
      }

      .cls-2 {
        fill: url(#linear-gradient-2);
      }

      .cls-3 {
        opacity: .21;
      }

      .cls-4 {
        opacity: .42;
      }

      .cls-5 {
        opacity: .55;
      }

      .cls-6 {
        opacity: .48;
      }

      .cls-7 {
        opacity: .35;
      }

      .cls-8 {
        opacity: .08;
      }

      .cls-9 {
        opacity: .28;
      }

      .cls-10 {
        opacity: 0;
      }

      .cls-11 {
        fill: url(#linear-gradient);
      }
    </style>
    <linearGradient id="linear-gradient" x1="14.15" y1="13.59" x2="59.85" y2="59.3" gradientUnits="userSpaceOnUse">
      <stop offset="0" stop-color="#ed5d2b"/>
      <stop offset="1" stop-color="#ffb466"/>
    </linearGradient>
    <linearGradient id="linear-gradient-2" x1="14.79" y1="14.79" x2="58.34" y2="58.34" gradientUnits="userSpaceOnUse">
      <stop offset="0" stop-color="#2c2e2c"/>
      <stop offset=".99" stop-color="#000"/>
    </linearGradient>
  </defs>
  <g id="Layer_1-2" data-name="Layer 1">
    <g>
      <path class="cls-11" d="M66.22,36.25c0,16.24-13.17,29.41-29.41,29.41S7.4,52.5,7.4,36.25,20.57,6.84,36.81,6.84s29.41,13.17,29.41,29.41Z"/>
      <g>
        <path class="cls-10" d="M41.97,43.72c.96,0,1.75-.78,1.75-1.75s-.78-1.75-1.75-1.75-1.75.78-1.75,1.75.78,1.75,1.75,1.75ZM76.85,40.28h-4.12c-.85-15.64-13.43-28.22-29.07-29.07v-4.12c0-.94-.76-1.69-1.69-1.69s-1.69.75-1.69,1.69v4.13c-10.31.57-19.77,6.33-24.98,15.33-1,1.72-1.83,3.55-2.48,5.44-.3.88.17,1.84,1.05,2.15.88.3,1.84-.17,2.15-1.05.58-1.68,1.32-3.31,2.21-4.84,4.61-7.96,12.96-13.08,22.06-13.65v8.07c0,.93.76,1.69,1.69,1.69s1.69-.75,1.69-1.69v-8.07c13.78.84,24.84,11.9,25.68,25.68h-8.07c-.93,0-1.69.76-1.69,1.69s.75,1.69,1.69,1.69h8.07c-.84,13.78-11.9,24.84-25.68,25.68v-8.07c0-.93-.76-1.69-1.69-1.69s-1.69.76-1.69,1.69v8.07c-13.78-.84-24.84-11.9-25.68-25.68h8.07c.93,0,1.69-.76,1.69-1.69s-.75-1.69-1.69-1.69H7.1c-.93,0-1.69.76-1.69,1.69s.76,1.69,1.69,1.69h4.12c.85,15.65,13.42,28.22,29.07,29.07v4.12c0,.93.76,1.69,1.69,1.69s1.69-.75,1.69-1.69v-4.12c15.64-.85,28.22-13.42,29.07-29.07h4.12c.93,0,1.69-.76,1.69-1.69s-.76-1.69-1.69-1.69Z"/>
        <path class="cls-8" d="M41.35,43.09c.96,0,1.75-.78,1.75-1.75s-.78-1.75-1.75-1.75-1.75.78-1.75,1.75.78,1.75,1.75,1.75ZM76.23,39.66h-4.12c-.85-15.64-13.43-28.22-29.07-29.07v-4.12c0-.94-.76-1.69-1.69-1.69s-1.69.75-1.69,1.69v4.13c-10.31.57-19.77,6.33-24.98,15.33-1,1.72-1.83,3.55-2.48,5.44-.3.88.17,1.84,1.05,2.15.88.3,1.84-.17,2.15-1.05.58-1.68,1.32-3.31,2.21-4.84,4.61-7.96,12.96-13.08,22.06-13.65v8.07c0,.93.76,1.69,1.69,1.69s1.69-.75,1.69-1.69v-8.07c13.78.84,24.84,11.9,25.68,25.68h-8.07c-.93,0-1.69.76-1.69,1.69s.75,1.69,1.69,1.69h8.07c-.84,13.78-11.9,24.84-25.68,25.68v-8.07c0-.93-.76-1.69-1.69-1.69s-1.69.76-1.69,1.69v8.07c-13.78-.84-24.84-11.9-25.68-25.68h8.07c.93,0,1.69-.76,1.69-1.69s-.75-1.69-1.69-1.69H6.47c-.93,0-1.69.76-1.69,1.69s.76,1.69,1.69,1.69h4.12c.85,15.65,13.42,28.22,29.07,29.07v4.12c0,.93.76,1.69,1.69,1.69s1.69-.75,1.69-1.69v-4.12c15.64-.85,28.22-13.42,29.07-29.07h4.12c.93,0,1.69-.76,1.69-1.69s-.76-1.69-1.69-1.69Z"/>
        <path class="cls-1" d="M40.72,42.47c.96,0,1.75-.78,1.75-1.75s-.78-1.75-1.75-1.75-1.75.78-1.75,1.75.78,1.75,1.75,1.75ZM75.6,39.03h-4.12c-.85-15.64-13.43-28.22-29.07-29.07v-4.12c0-.94-.76-1.69-1.69-1.69s-1.69.75-1.69,1.69v4.13c-10.31.57-19.77,6.33-24.98,15.33-1,1.72-1.83,3.55-2.48,5.44-.3.88.17,1.84,1.05,2.15.88.3,1.84-.17,2.15-1.05.58-1.68,1.32-3.31,2.21-4.84,4.61-7.96,12.96-13.08,22.06-13.65v8.07c0,.93.76,1.69,1.69,1.69s1.69-.75,1.69-1.69v-8.07c13.78.84,24.84,11.9,25.68,25.68h-8.07c-.93,0-1.69.76-1.69,1.69s.75,1.69,1.69,1.69h8.07c-.84,13.78-11.9,24.84-25.68,25.68v-8.07c0-.93-.76-1.69-1.69-1.69s-1.69.76-1.69,1.69v8.07c-13.78-.84-24.84-11.9-25.68-25.68h8.07c.93,0,1.69-.76,1.69-1.69s-.75-1.69-1.69-1.69H5.85c-.93,0-1.69.76-1.69,1.69s.76,1.69,1.69,1.69h4.12c.85,15.65,13.42,28.22,29.07,29.07v4.12c0,.93.76,1.69,1.69,1.69s1.69-.75,1.69-1.69v-4.12c15.64-.85,28.22-13.42,29.07-29.07h4.12c.93,0,1.69-.76,1.69-1.69s-.76-1.69-1.69-1.69Z"/>
        <path class="cls-3" d="M40.1,41.84c.96,0,1.75-.78,1.75-1.75s-.78-1.75-1.75-1.75-1.75.78-1.75,1.75.78,1.75,1.75,1.75ZM74.98,38.41h-4.12c-.85-15.64-13.43-28.22-29.07-29.07v-4.12c0-.94-.76-1.69-1.69-1.69s-1.69.75-1.69,1.69v4.13c-10.31.57-19.77,6.33-24.98,15.33-1,1.72-1.83,3.55-2.48,5.44-.3.88.17,1.84,1.05,2.15.88.3,1.84-.17,2.15-1.05.58-1.68,1.32-3.31,2.21-4.84,4.61-7.96,12.96-13.08,22.06-13.65v8.07c0,.93.76,1.69,1.69,1.69s1.69-.75,1.69-1.69v-8.07c13.78.84,24.84,11.9,25.68,25.68h-8.07c-.93,0-1.69.76-1.69,1.69s.75,1.69,1.69,1.69h8.07c-.84,13.78-11.9,24.84-25.68,25.68v-8.07c0-.93-.76-1.69-1.69-1.69s-1.69.76-1.69,1.69v8.07c-13.78-.84-24.84-11.9-25.68-25.68h8.07c.93,0,1.69-.76,1.69-1.69s-.75-1.69-1.69-1.69H5.22c-.93,0-1.69.76-1.69,1.69s.76,1.69,1.69,1.69h4.12c.85,15.65,13.42,28.22,29.07,29.07v4.12c0,.93.76,1.69,1.69,1.69s1.69-.75,1.69-1.69v-4.12c15.64-.85,28.22-13.42,29.07-29.07h4.12c.93,0,1.69-.76,1.69-1.69s-.76-1.69-1.69-1.69Z"/>
        <path class="cls-9" d="M39.47,41.22c.96,0,1.75-.78,1.75-1.75s-.78-1.75-1.75-1.75-1.75.78-1.75,1.75.78,1.75,1.75,1.75ZM74.35,37.78h-4.12c-.85-15.64-13.43-28.22-29.07-29.07v-4.12c0-.94-.76-1.69-1.69-1.69s-1.69.75-1.69,1.69v4.13c-10.31.57-19.77,6.33-24.98,15.33-1,1.72-1.83,3.55-2.48,5.44-.3.88.17,1.84,1.05,2.15.88.3,1.84-.17,2.15-1.05.58-1.68,1.32-3.31,2.21-4.84,4.61-7.96,12.96-13.08,22.06-13.65v8.07c0,.93.76,1.69,1.69,1.69s1.69-.75,1.69-1.69v-8.07c13.78.84,24.84,11.9,25.68,25.68h-8.07c-.93,0-1.69.76-1.69,1.69s.75,1.69,1.69,1.69h8.07c-.84,13.78-11.9,24.84-25.68,25.68v-8.07c0-.93-.76-1.69-1.69-1.69s-1.69.76-1.69,1.69v8.07c-13.78-.84-24.84-11.9-25.68-25.68h8.07c.93,0,1.69-.76,1.69-1.69s-.75-1.69-1.69-1.69H4.6c-.93,0-1.69.76-1.69,1.69s.76,1.69,1.69,1.69h4.12c.85,15.65,13.42,28.22,29.07,29.07v4.12c0,.93.76,1.69,1.69,1.69s1.69-.75,1.69-1.69v-4.12c15.64-.85,28.22-13.42,29.07-29.07h4.12c.93,0,1.69-.76,1.69-1.69s-.76-1.69-1.69-1.69Z"/>
        <path class="cls-7" d="M38.85,40.59c.96,0,1.75-.78,1.75-1.75s-.78-1.75-1.75-1.75-1.75.78-1.75,1.75.78,1.75,1.75,1.75ZM73.73,37.16h-4.12c-.85-15.64-13.43-28.22-29.07-29.07V3.97c0-.94-.76-1.69-1.69-1.69s-1.69.75-1.69,1.69v4.13c-10.31.57-19.77,6.33-24.98,15.33-1,1.72-1.83,3.55-2.48,5.44-.3.88.17,1.84,1.05,2.15.88.3,1.84-.17,2.15-1.05.58-1.68,1.32-3.31,2.21-4.84,4.61-7.96,12.96-13.08,22.06-13.65v8.07c0,.93.76,1.69,1.69,1.69s1.69-.75,1.69-1.69v-8.07c13.78.84,24.84,11.9,25.68,25.68h-8.07c-.93,0-1.69.76-1.69,1.69s.75,1.69,1.69,1.69h8.07c-.84,13.78-11.9,24.84-25.68,25.68v-8.07c0-.93-.76-1.69-1.69-1.69s-1.69.76-1.69,1.69v8.07c-13.78-.84-24.84-11.9-25.68-25.68h8.07c.93,0,1.69-.76,1.69-1.69s-.75-1.69-1.69-1.69H3.97c-.93,0-1.69.76-1.69,1.69s.76,1.69,1.69,1.69h4.12c.85,15.65,13.42,28.22,29.07,29.07v4.12c0,.93.76,1.69,1.69,1.69s1.69-.75,1.69-1.69v-4.12c15.64-.85,28.22-13.42,29.07-29.07h4.12c.93,0,1.69-.76,1.69-1.69s-.76-1.69-1.69-1.69Z"/>
        <path class="cls-4" d="M38.22,39.97c.96,0,1.75-.78,1.75-1.75s-.78-1.75-1.75-1.75-1.75.78-1.75,1.75.78,1.75,1.75,1.75ZM73.1,36.53h-4.12c-.85-15.64-13.43-28.22-29.07-29.07V3.34c0-.94-.76-1.69-1.69-1.69s-1.69.75-1.69,1.69v4.13c-10.31.57-19.77,6.33-24.98,15.33-1,1.72-1.83,3.55-2.48,5.44-.3.88.17,1.84,1.05,2.15.88.3,1.84-.17,2.15-1.05.58-1.68,1.32-3.31,2.21-4.84,4.61-7.96,12.96-13.08,22.06-13.65v8.07c0,.93.76,1.69,1.69,1.69s1.69-.75,1.69-1.69v-8.07c13.78.84,24.84,11.9,25.68,25.68h-8.07c-.93,0-1.69.76-1.69,1.69s.75,1.69,1.69,1.69h8.07c-.84,13.78-11.9,24.84-25.68,25.68v-8.07c0-.93-.76-1.69-1.69-1.69s-1.69.76-1.69,1.69v8.07c-13.78-.84-24.84-11.9-25.68-25.68h8.07c.93,0,1.69-.76,1.69-1.69s-.75-1.69-1.69-1.69H3.35c-.93,0-1.69.76-1.69,1.69s.76,1.69,1.69,1.69h4.12c.85,15.65,13.42,28.22,29.07,29.07v4.12c0,.93.76,1.69,1.69,1.69s1.69-.75,1.69-1.69v-4.12c15.64-.85,28.22-13.42,29.07-29.07h4.12c.93,0,1.69-.76,1.69-1.69s-.76-1.69-1.69-1.69Z"/>
        <path class="cls-6" d="M37.6,39.34c.96,0,1.75-.78,1.75-1.75s-.78-1.75-1.75-1.75-1.75.78-1.75,1.75.78,1.75,1.75,1.75ZM72.48,35.91h-4.12c-.85-15.64-13.43-28.22-29.07-29.07V2.72c0-.94-.76-1.69-1.69-1.69s-1.69.75-1.69,1.69v4.13c-10.31.57-19.77,6.33-24.98,15.33-1,1.72-1.83,3.55-2.48,5.44-.3.88.17,1.84,1.05,2.15.88.3,1.84-.17,2.15-1.05.58-1.68,1.32-3.31,2.21-4.84,4.61-7.96,12.96-13.08,22.06-13.65v8.07c0,.93.76,1.69,1.69,1.69s1.69-.75,1.69-1.69v-8.07c13.78.84,24.84,11.9,25.68,25.68h-8.07c-.93,0-1.69.76-1.69,1.69s.75,1.69,1.69,1.69h8.07c-.84,13.78-11.9,24.84-25.68,25.68v-8.07c0-.93-.76-1.69-1.69-1.69s-1.69.76-1.69,1.69v8.07c-13.78-.84-24.84-11.9-25.68-25.68h8.07c.93,0,1.69-.76,1.69-1.69s-.75-1.69-1.69-1.69H2.72c-.93,0-1.69.76-1.69,1.69s.76,1.69,1.69,1.69h4.12c.85,15.65,13.42,28.22,29.07,29.07v4.12c0,.93.76,1.69,1.69,1.69s1.69-.75,1.69-1.69v-4.12c15.64-.85,28.22-13.42,29.07-29.07h4.12c.93,0,1.69-.76,1.69-1.69s-.76-1.69-1.69-1.69Z"/>
        <path class="cls-5" d="M36.97,38.72c.96,0,1.75-.78,1.75-1.75s-.78-1.75-1.75-1.75-1.75.78-1.75,1.75.78,1.75,1.75,1.75ZM71.85,35.28h-4.12c-.85-15.64-13.43-28.22-29.07-29.07V2.09c0-.94-.76-1.69-1.69-1.69s-1.69.75-1.69,1.69v4.13c-10.31.57-19.77,6.33-24.98,15.33-1,1.72-1.83,3.55-2.48,5.44-.3.88.17,1.84,1.05,2.15.88.3,1.84-.17,2.15-1.05.58-1.68,1.32-3.31,2.21-4.84,4.61-7.96,12.96-13.08,22.06-13.65v8.07c0,.93.76,1.69,1.69,1.69s1.69-.75,1.69-1.69v-8.07c13.78.84,24.84,11.9,25.68,25.68h-8.07c-.93,0-1.69.76-1.69,1.69s.75,1.69,1.69,1.69h8.07c-.84,13.78-11.9,24.84-25.68,25.68v-8.07c0-.93-.76-1.69-1.69-1.69s-1.69.76-1.69,1.69v8.07c-13.78-.84-24.84-11.9-25.68-25.68h8.07c.93,0,1.69-.76,1.69-1.69s-.75-1.69-1.69-1.69H2.1c-.93,0-1.69.76-1.69,1.69s.76,1.69,1.69,1.69h4.12c.85,15.65,13.42,28.22,29.07,29.07v4.12c0,.93.76,1.69,1.69,1.69s1.69-.75,1.69-1.69v-4.12c15.64-.85,28.22-13.42,29.07-29.07h4.12c.93,0,1.69-.76,1.69-1.69s-.76-1.69-1.69-1.69Z"/>
      </g>
      <path class="cls-2" d="M36.57,38.31c.96,0,1.75-.78,1.75-1.75s-.78-1.75-1.75-1.75-1.75.78-1.75,1.75.78,1.75,1.75,1.75ZM71.45,34.88h-4.12c-.85-15.64-13.43-28.22-29.07-29.07V1.69c0-.94-.76-1.69-1.69-1.69s-1.69.75-1.69,1.69v4.13c-10.31.57-19.77,6.33-24.98,15.33-1,1.72-1.83,3.55-2.48,5.44-.3.88.17,1.84,1.05,2.15.88.3,1.84-.17,2.15-1.05.58-1.68,1.32-3.31,2.21-4.84,4.61-7.96,12.96-13.08,22.06-13.65v8.07c0,.93.76,1.69,1.69,1.69s1.69-.75,1.69-1.69v-8.07c13.78.84,24.84,11.9,25.68,25.68h-8.07c-.93,0-1.69.76-1.69,1.69s.75,1.69,1.69,1.69h8.07c-.84,13.78-11.9,24.84-25.68,25.68v-8.07c0-.93-.76-1.69-1.69-1.69s-1.69.76-1.69,1.69v8.07c-13.78-.84-24.84-11.9-25.68-25.68h8.07c.93,0,1.69-.76,1.69-1.69s-.75-1.69-1.69-1.69H1.69c-.93,0-1.69.76-1.69,1.69s.76,1.69,1.69,1.69h4.12c.85,15.65,13.42,28.22,29.07,29.07v4.12c0,.93.76,1.69,1.69,1.69s1.69-.75,1.69-1.69v-4.12c15.64-.85,28.22-13.42,29.07-29.07h4.12c.93,0,1.69-.76,1.69-1.69s-.76-1.69-1.69-1.69Z"/>
    </g>
  </g>
</svg>