<?xml version="1.0" encoding="UTF-8"?>
<svg id="Layer_2" data-name="Layer 2" xmlns="http://www.w3.org/2000/svg" xmlns:xlink="http://www.w3.org/1999/xlink" viewBox="0 0 64.72 71.05">
  <defs>
    <style>
      .cls-1 {
        opacity: .14;
      }

      .cls-2 {
        fill: url(#linear-gradient-2);
      }

      .cls-3 {
        opacity: .21;
      }

      .cls-4 {
        opacity: .42;
      }

      .cls-5 {
        opacity: .55;
      }

      .cls-6 {
        opacity: .48;
      }

      .cls-7 {
        opacity: .35;
      }

      .cls-8 {
        opacity: .08;
      }

      .cls-9 {
        opacity: .28;
      }

      .cls-10 {
        opacity: 0;
      }

      .cls-11 {
        fill: url(#linear-gradient);
      }
    </style>
    <linearGradient id="linear-gradient" x1="1.79" y1="9.31" x2="49.23" y2="56.75" gradientUnits="userSpaceOnUse">
      <stop offset="0" stop-color="#4ba129"/>
      <stop offset="1" stop-color="#c7ff3c"/>
    </linearGradient>
    <linearGradient id="linear-gradient-2" x1="2.47" y1="9.65" x2="55.67" y2="62.84" gradientUnits="userSpaceOnUse">
      <stop offset="0" stop-color="#2c2e2c"/>
      <stop offset=".99" stop-color="#000"/>
    </linearGradient>
  </defs>
  <g id="Layer_1-2" data-name="Layer 1">
    <g>
      <path class="cls-11" d="M51.17,52.14s-3.91,4.67-6.67,6.86c-2.76,2.19-11.52,8.19-25.99,2.76C4.04,56.33.9,38.34,1.85,28.24,2.8,18.15,6.61,9.1,12.42,1.96c2.48,1.9,9.52,7.43,18.85,9.33,9.33,1.91,21.8,5.33,25.23,18.38,3.43,13.04-5.33,22.47-5.33,22.47Z"/>
      <g>
        <path class="cls-10" d="M63.65,34.37c-4.23-13.26-15.13-17.01-26.28-19.09-9.82-1.83-16.2-7.31-17.83-9.27-.55-.66-1.52-.8-2.23-.33-1.52,1.01-14.15,15.72-11.54,36.58,2.48,19.88,16.27,28.78,28.84,28.78,9.38,0,14.12-3.28,16.87-5.75.7-.62.75-1.69.13-2.38-.62-.69-1.69-.75-2.39-.13-2.33,2.1-6.39,4.89-14.61,4.89-10.27,0-23.11-6.76-25.49-25.82-2.03-16.21,6.03-28.69,9.1-32.34,3.11,2.97,9.61,7.43,18.54,9.09,9.42,1.76,19.8,4.64,23.68,16.79,2.7,8.44-1.36,15.9-3.75,19.33-2.05-3.47-6.95-9.63-17.46-13.76-14.61-5.74-17.27-15.11-17.99-21.66-.1-.93-.94-1.6-1.87-1.49-.93.1-1.59.94-1.49,1.87,1.29,11.63,7.87,19.62,20.12,24.43,13.47,5.29,16.74,14.23,16.77,14.31,0,.02.02.03.02.05,0,.03.01.05.02.08.02.05,2,4.71,1.93,9.95-.01.93.73,1.7,1.66,1.71,0,0,.02,0,.02,0,.93,0,1.68-.74,1.7-1.67.07-4.48-1.16-8.51-1.81-10.32,2.29-2.79,9.04-12.33,5.36-23.85Z"/>
        <path class="cls-8" d="M63.02,33.75c-4.23-13.26-15.13-17.01-26.28-19.09-9.82-1.83-16.2-7.31-17.83-9.27-.55-.66-1.52-.8-2.23-.33-1.52,1.01-14.15,15.72-11.54,36.58,2.48,19.88,16.27,28.78,28.84,28.78,9.38,0,14.12-3.28,16.87-5.75.7-.62.75-1.69.13-2.38-.62-.69-1.69-.75-2.39-.13-2.33,2.1-6.39,4.89-14.61,4.89-10.27,0-23.11-6.76-25.49-25.82-2.03-16.21,6.03-28.69,9.1-32.34,3.11,2.97,9.61,7.43,18.54,9.09,9.42,1.76,19.8,4.64,23.68,16.79,2.7,8.44-1.36,15.9-3.75,19.33-2.05-3.47-6.95-9.63-17.46-13.76-14.61-5.74-17.27-15.11-17.99-21.66-.1-.93-.94-1.6-1.87-1.49-.93.1-1.59.94-1.49,1.87,1.29,11.63,7.87,19.62,20.12,24.43,13.47,5.29,16.74,14.23,16.77,14.31,0,.02.02.03.02.05,0,.03.01.05.02.08.02.05,2,4.71,1.93,9.95-.01.93.74,1.59,1.66,1.71,0,0,.02,0,.02,0,.93,0,1.68-.74,1.7-1.67.07-4.48-1.16-8.51-1.81-10.32,2.29-2.79,9.04-12.33,5.36-23.85Z"/>
        <path class="cls-1" d="M62.4,33.12c-4.23-13.26-15.13-17.01-26.28-19.09-9.82-1.83-16.2-7.31-17.83-9.27-.55-.66-1.52-.8-2.23-.33-1.52,1.01-14.15,15.72-11.54,36.58,2.48,19.88,16.27,28.78,28.84,28.78,9.38,0,14.12-3.28,16.87-5.75.7-.62.75-1.69.13-2.38-.62-.69-1.69-.75-2.39-.13-2.33,2.1-6.39,4.89-14.61,4.89-10.27,0-23.11-6.76-25.49-25.82-2.03-16.21,6.03-28.69,9.1-32.34,3.11,2.97,9.61,7.43,18.54,9.09,9.42,1.76,19.8,4.64,23.68,16.79,2.7,8.44-1.36,15.9-3.75,19.33-2.05-3.47-6.95-9.63-17.46-13.76-14.61-5.74-17.27-15.11-17.99-21.66-.1-.93-.94-1.6-1.87-1.49-.93.1-1.59.94-1.49,1.87,1.29,11.63,7.87,19.62,20.12,24.43,13.47,5.29,16.74,14.23,16.77,14.31,0,.02.02.03.02.05,0,.03.01.05.02.08.02.05,2,4.71,1.93,9.95-.01.93.74,1.59,1.66,1.71,0,0,.02,0,.02,0,.93,0,1.68-.74,1.7-1.67.07-4.48-1.16-8.51-1.81-10.32,2.29-2.79,9.04-12.33,5.36-23.85Z"/>
        <path class="cls-3" d="M61.77,32.5c-4.23-13.26-15.13-17.01-26.28-19.09-9.82-1.83-16.2-7.31-17.83-9.27-.55-.66-1.52-.8-2.23-.33-1.52,1.01-14.15,15.72-11.54,36.58,2.48,19.88,16.27,28.78,28.84,28.78,9.38,0,14.12-3.28,16.87-5.75.7-.62.75-1.69.13-2.38-.62-.69-1.69-.75-2.39-.13-2.33,2.1-6.39,4.89-14.61,4.89-10.27,0-23.11-6.76-25.49-25.82C5.21,23.77,13.26,11.29,16.33,7.64c3.11,2.97,9.61,7.43,18.54,9.09,9.42,1.76,19.8,4.64,23.68,16.79,2.7,8.44-1.36,15.9-3.75,19.33-2.05-3.47-6.95-9.63-17.46-13.76-14.61-5.74-17.27-15.11-17.99-21.66-.1-.93-.94-1.6-1.87-1.49-.93.1-1.59.94-1.49,1.87,1.29,11.63,7.87,19.62,20.12,24.43,13.47,5.29,16.74,14.23,16.77,14.31,0,.02.02.03.02.05,0,.03.01.05.02.08.02.05,2,4.71,1.93,9.95-.01.93.74,1.59,1.66,1.71,0,0,.02,0,.02,0,.93,0,1.68-.74,1.7-1.67.07-4.48-1.16-8.51-1.81-10.32,2.29-2.79,9.04-12.33,5.36-23.85Z"/>
        <path class="cls-9" d="M61.15,31.87c-4.23-13.26-15.13-17.01-26.28-19.09-9.82-1.83-16.2-7.31-17.83-9.27-.55-.66-1.52-.8-2.23-.33-1.52,1.01-14.15,15.72-11.54,36.58,2.48,19.88,16.27,28.78,28.84,28.78,9.38,0,14.12-3.28,16.87-5.75.7-.62.75-1.69.13-2.38-.62-.69-1.69-.75-2.39-.13-2.33,2.1-6.39,4.89-14.61,4.89-10.27,0-23.11-6.76-25.49-25.82C4.59,23.14,12.64,10.66,15.71,7.01c3.11,2.97,9.61,7.43,18.54,9.09,9.42,1.76,19.8,4.64,23.68,16.79,2.7,8.44-1.36,15.9-3.75,19.33-2.05-3.47-6.95-9.63-17.46-13.76-14.61-5.74-17.27-15.11-17.99-21.66-.1-.93-.94-1.6-1.87-1.49-.93.1-1.59.94-1.49,1.87,1.29,11.63,7.87,19.62,20.12,24.43,13.47,5.29,16.74,14.23,16.77,14.31,0,.02.02.03.02.05,0,.03.01.05.02.08.02.05,2,4.71,1.93,9.95-.01.93.74,1.59,1.66,1.71,0,0,.02,0,.02,0,.93,0,1.68-.74,1.7-1.67.07-4.48-1.16-8.51-1.81-10.32,2.29-2.79,9.04-12.33,5.36-23.85Z"/>
        <path class="cls-7" d="M60.52,31.25c-4.23-13.26-15.13-17.01-26.28-19.09-9.82-1.83-16.2-7.31-17.83-9.27-.55-.66-1.52-.8-2.23-.33C12.66,3.58.03,18.29,2.63,39.15c2.48,19.88,16.27,28.78,28.84,28.78,9.38,0,14.12-3.28,16.87-5.75.7-.62.75-1.69.13-2.38-.62-.69-1.69-.75-2.39-.13-2.33,2.1-6.39,4.89-14.61,4.89-10.27,0-23.11-6.76-25.49-25.82C3.96,22.52,12.01,10.04,15.08,6.39c3.11,2.97,9.61,7.43,18.54,9.09,9.42,1.76,19.8,4.64,23.68,16.79,2.7,8.44-1.36,15.9-3.75,19.33-2.05-3.47-6.95-9.63-17.46-13.76-14.61-5.74-17.27-15.11-17.99-21.66-.1-.93-.94-1.6-1.87-1.49-.93.1-1.59.94-1.49,1.87,1.29,11.63,7.87,19.62,20.12,24.43,13.47,5.29,16.74,14.23,16.77,14.31,0,.02.02.03.02.05,0,.03.01.05.02.08.02.05,2,4.71,1.93,9.95-.01.93.74,1.59,1.66,1.71,0,0,.02,0,.02,0,.93,0,1.68-.74,1.7-1.67.07-4.48-1.16-8.51-1.81-10.32,2.29-2.79,9.04-12.33,5.36-23.85Z"/>
        <path class="cls-4" d="M59.9,30.62c-4.23-13.26-15.13-17.01-26.28-19.09-9.82-1.83-16.2-7.31-17.83-9.27-.55-.66-1.52-.8-2.23-.33C12.04,2.95-.6,17.66,2.01,38.52c2.48,19.88,16.27,28.78,28.84,28.78,9.38,0,14.12-3.28,16.87-5.75.7-.62.75-1.69.13-2.38-.62-.69-1.69-.75-2.39-.13-2.33,2.1-6.39,4.89-14.61,4.89-10.27,0-23.11-6.76-25.49-25.82C3.34,21.89,11.39,9.41,14.46,5.76c3.11,2.97,9.61,7.43,18.54,9.09,9.42,1.76,19.8,4.64,23.68,16.79,2.7,8.44-1.36,15.9-3.75,19.33-2.05-3.47-6.95-9.63-17.46-13.76-14.61-5.74-17.27-15.11-17.99-21.66-.1-.93-.94-1.6-1.87-1.49-.93.1-1.59.94-1.49,1.87,1.29,11.63,7.87,19.62,20.12,24.43,13.47,5.29,16.74,14.23,16.77,14.31,0,.02.02.03.02.05,0,.03.01.05.02.08.02.05,2,4.71,1.93,9.95-.01.93.74,1.59,1.66,1.71,0,0,.02,0,.02,0,.93,0,1.68-.74,1.7-1.67.07-4.48-1.16-8.51-1.81-10.32,2.29-2.79,9.04-12.33,5.36-23.85Z"/>
        <path class="cls-6" d="M59.27,30c-4.23-13.26-15.13-17.01-26.28-19.09C23.18,9.08,16.79,3.6,15.16,1.64c-.55-.66-1.52-.8-2.23-.33C11.41,2.33-1.22,17.04,1.38,37.9c2.48,19.88,16.27,28.78,28.84,28.78,9.38,0,14.12-3.28,16.87-5.75.7-.62.75-1.69.13-2.38-.62-.69-1.69-.75-2.39-.13-2.33,2.1-6.39,4.89-14.61,4.89-10.27,0-23.11-6.76-25.49-25.82C2.71,21.27,10.76,8.79,13.83,5.14c3.11,2.97,9.61,7.43,18.54,9.09,9.42,1.76,19.8,4.64,23.68,16.79,2.7,8.44-1.36,15.9-3.75,19.33-2.05-3.47-6.95-9.63-17.46-13.76-14.61-5.74-17.27-15.11-17.99-21.66-.1-.93-.94-1.6-1.87-1.49-.93.1-1.59.94-1.49,1.87,1.29,11.63,7.87,19.62,20.12,24.43,13.47,5.29,16.74,14.23,16.77,14.31,0,.02.02.03.02.05,0,.03.01.05.02.08.02.05,2,4.71,1.93,9.95-.01.93.74,1.59,1.66,1.71,0,0,.02,0,.02,0,.93,0,1.68-.74,1.7-1.67.07-4.48-1.16-8.51-1.81-10.32,2.29-2.79,9.04-12.33,5.36-23.85Z"/>
        <path class="cls-5" d="M58.65,29.37c-4.23-13.26-15.13-17.01-26.28-19.09C22.55,8.45,16.17,2.97,14.54,1.02c-.55-.66-1.52-.8-2.23-.33C10.79,1.7-1.85,16.41.76,37.27c2.48,19.88,16.27,28.78,28.84,28.78,9.38,0,14.12-3.28,16.87-5.75.7-.62.75-1.69.13-2.38-.62-.69-1.69-.75-2.39-.13-2.33,2.1-6.39,4.89-14.61,4.89-10.27,0-23.11-6.76-25.49-25.82C2.09,20.64,10.14,8.16,13.21,4.51c3.11,2.97,9.61,7.43,18.54,9.09,9.42,1.76,19.8,4.64,23.68,16.79,2.7,8.44-1.36,15.9-3.75,19.33-2.05-3.47-6.95-9.63-17.46-13.76-14.61-5.74-17.27-15.11-17.99-21.66-.1-.93-.94-1.6-1.87-1.49-.93.1-1.59.94-1.49,1.87,1.29,11.63,7.87,19.62,20.12,24.43,13.47,5.29,16.74,14.23,16.77,14.31,0,.02.02.03.02.05,0,.03.01.05.02.08.02.05,2,4.71,1.93,9.95-.01.93.73,1.7,1.66,1.71,0,0,.02,0,.02,0,.93,0,1.68-.74,1.7-1.67.07-4.48-1.16-8.51-1.81-10.32,2.29-2.79,9.04-12.33,5.36-23.85Z"/>
      </g>
      <path class="cls-2" d="M58.24,28.97c-4.23-13.26-15.13-17.01-26.28-19.09C22.14,8.05,15.76,2.57,14.13.61c-.55-.66-1.52-.8-2.23-.33C10.38,1.3-2.25,16.01.35,36.87c2.48,19.88,16.27,28.78,28.84,28.78,9.38,0,14.12-3.28,16.87-5.75.7-.62.75-1.69.13-2.38-.62-.69-1.69-.75-2.39-.13-2.33,2.1-6.39,4.89-14.61,4.89-10.27,0-23.11-6.76-25.49-25.82C1.68,20.24,9.73,7.76,12.8,4.11c3.11,2.97,9.61,7.43,18.54,9.09,9.42,1.76,19.8,4.65,23.68,16.79,2.7,8.44-1.36,15.9-3.75,19.33-2.05-3.47-6.95-9.63-17.46-13.76-14.61-5.74-17.27-15.11-17.99-21.66-.1-.93-.94-1.6-1.87-1.49-.93.1-1.59.94-1.49,1.87,1.29,11.63,7.87,19.62,20.12,24.43,13.47,5.29,16.74,14.23,16.77,14.31,0,.02.02.03.02.05,0,.03.01.05.02.08.02.05,2,4.71,1.93,9.95-.01.93.73,1.7,1.66,1.71,0,0,.02,0,.02,0,.93,0,1.68-.74,1.7-1.67.07-4.48-1.16-8.51-1.81-10.32,2.29-2.8,9.04-12.33,5.36-23.85Z"/>
    </g>
  </g>
</svg>