<?xml version="1.0" encoding="UTF-8"?>
<svg id="Layer_2" data-name="Layer 2" xmlns="http://www.w3.org/2000/svg" xmlns:xlink="http://www.w3.org/1999/xlink" viewBox="0 0 71.67 69.45">
  <defs>
    <style>
      .cls-1 {
        opacity: .14;
      }

      .cls-2 {
        fill: url(#linear-gradient-2);
      }

      .cls-3 {
        opacity: .21;
      }

      .cls-4 {
        opacity: .42;
      }

      .cls-5 {
        opacity: .55;
      }

      .cls-6 {
        opacity: .48;
      }

      .cls-7 {
        opacity: .35;
      }

      .cls-8 {
        opacity: .08;
      }

      .cls-9 {
        opacity: .28;
      }

      .cls-10 {
        opacity: 0;
      }

      .cls-11 {
        fill: url(#linear-gradient);
      }
    </style>
    <linearGradient id="linear-gradient" x1="4.74" y1="-.19" x2="61.27" y2="56.35" gradientUnits="userSpaceOnUse">
      <stop offset="0" stop-color="#96490a"/>
      <stop offset="1" stop-color="#c78240"/>
    </linearGradient>
    <linearGradient id="linear-gradient-2" x1="4.13" y1="-3.14" x2="62.14" y2="54.88" gradientUnits="userSpaceOnUse">
      <stop offset="0" stop-color="#2c2e2c"/>
      <stop offset=".99" stop-color="#000"/>
    </linearGradient>
  </defs>
  <g id="Layer_1-2" data-name="Layer 1">
    <g>
      <path class="cls-11" d="M60.35,51.63c0,3.92-3.18,7.1-7.1,7.1H13.37c-3.92,0-7.1-3.18-7.1-7.1V2.19h54.08v49.45Z"/>
      <g>
        <path class="cls-10" d="M30.76,18.06c-.93,0-1.69.76-1.69,1.69v2.88c0,.93.76,1.69,1.69,1.69h15.56c.93,0,1.69-.75,1.69-1.69v-2.88c0-.93-.76-1.69-1.69-1.69s-1.69.76-1.69,1.69v1.19h-12.18v-1.19c0-.93-.76-1.69-1.69-1.69ZM30.76,52.94h15.56c.93,0,1.69-.76,1.69-1.69v-2.88c0-.94-.76-1.69-1.69-1.69s-1.69.75-1.69,1.69v1.19h-12.18v-1.19c0-.94-.76-1.69-1.69-1.69s-1.69.75-1.69,1.69v2.88c0,.93.76,1.69,1.69,1.69ZM63.75,56.93c0,3.17-2.58,5.74-5.75,5.74H19.08c-3.17,0-5.75-2.58-5.75-5.74v-19.73h50.41v19.73ZM69.98,5.41H7.09c-.93,0-1.69.76-1.69,1.69s.76,1.69,1.69,1.69h56.65v25.04H13.33v-16.18c0-.93-.76-1.69-1.69-1.69s-1.69.76-1.69,1.69v39.29c0,4.68,3.54,8.54,8.08,9.06v1.77c0,.94.75,1.69,1.69,1.69s1.69-.75,1.69-1.69v-1.7h34.26v1.7c0,.94.75,1.69,1.69,1.69s1.69-.75,1.69-1.69v-1.77c4.54-.52,8.08-4.38,8.08-9.06V8.78h2.86c.93,0,1.69-.76,1.69-1.69s-.76-1.69-1.69-1.69Z"/>
        <path class="cls-8" d="M30.14,17.44c-.93,0-1.69.76-1.69,1.69v2.88c0,.93.76,1.69,1.69,1.69h15.56c.93,0,1.69-.75,1.69-1.69v-2.88c0-.93-.76-1.69-1.69-1.69s-1.69.76-1.69,1.69v1.19h-12.18v-1.19c0-.93-.76-1.69-1.69-1.69ZM30.14,52.32h15.56c.93,0,1.69-.76,1.69-1.69v-2.88c0-.94-.76-1.69-1.69-1.69s-1.69.75-1.69,1.69v1.19h-12.18v-1.19c0-.94-.76-1.69-1.69-1.69s-1.69.75-1.69,1.69v2.88c0,.93.76,1.69,1.69,1.69ZM63.12,56.31c0,3.17-2.58,5.74-5.75,5.74H18.45c-3.17,0-5.75-2.58-5.75-5.74v-19.73h50.41v19.73ZM69.36,4.78H6.47c-.93,0-1.69.76-1.69,1.69s.76,1.69,1.69,1.69h56.65v25.04H12.71v-16.18c0-.93-.76-1.69-1.69-1.69s-1.69.76-1.69,1.69v39.29c0,4.68,3.54,8.54,8.08,9.06v1.77c0,.94.75,1.69,1.69,1.69s1.69-.75,1.69-1.69v-1.7h34.26v1.7c0,.94.75,1.69,1.69,1.69s1.69-.75,1.69-1.69v-1.77c4.54-.52,8.08-4.38,8.08-9.06V8.16h2.86c.93,0,1.69-.76,1.69-1.69s-.76-1.69-1.69-1.69Z"/>
        <path class="cls-1" d="M29.51,16.81c-.93,0-1.69.76-1.69,1.69v2.88c0,.93.76,1.69,1.69,1.69h15.56c.93,0,1.69-.75,1.69-1.69v-2.88c0-.93-.76-1.69-1.69-1.69s-1.69.76-1.69,1.69v1.19h-12.18v-1.19c0-.93-.76-1.69-1.69-1.69ZM29.51,51.69h15.56c.93,0,1.69-.76,1.69-1.69v-2.88c0-.94-.76-1.69-1.69-1.69s-1.69.75-1.69,1.69v1.19h-12.18v-1.19c0-.94-.76-1.69-1.69-1.69s-1.69.75-1.69,1.69v2.88c0,.93.76,1.69,1.69,1.69ZM62.5,55.68c0,3.17-2.58,5.74-5.75,5.74H17.83c-3.17,0-5.75-2.58-5.75-5.74v-19.73h50.41v19.73ZM68.73,4.16H5.84c-.93,0-1.69.76-1.69,1.69s.76,1.69,1.69,1.69h56.65v25.04H12.08v-16.18c0-.93-.76-1.69-1.69-1.69s-1.69.76-1.69,1.69v39.29c0,4.68,3.54,8.54,8.08,9.06v1.77c0,.94.75,1.69,1.69,1.69s1.69-.75,1.69-1.69v-1.7h34.26v1.7c0,.94.75,1.69,1.69,1.69s1.69-.75,1.69-1.69v-1.77c4.54-.52,8.08-4.38,8.08-9.06V7.53h2.86c.93,0,1.69-.76,1.69-1.69s-.76-1.69-1.69-1.69Z"/>
        <path class="cls-3" d="M28.89,16.19c-.93,0-1.69.76-1.69,1.69v2.88c0,.93.76,1.69,1.69,1.69h15.56c.93,0,1.69-.75,1.69-1.69v-2.88c0-.93-.76-1.69-1.69-1.69s-1.69.76-1.69,1.69v1.19h-12.18v-1.19c0-.93-.76-1.69-1.69-1.69ZM28.89,51.07h15.56c.93,0,1.69-.76,1.69-1.69v-2.88c0-.94-.76-1.69-1.69-1.69s-1.69.75-1.69,1.69v1.19h-12.18v-1.19c0-.94-.76-1.69-1.69-1.69s-1.69.75-1.69,1.69v2.88c0,.93.76,1.69,1.69,1.69ZM61.87,55.06c0,3.17-2.58,5.74-5.75,5.74H17.2c-3.17,0-5.75-2.58-5.75-5.74v-19.73h50.41v19.73ZM68.11,3.53H5.22c-.93,0-1.69.76-1.69,1.69s.76,1.69,1.69,1.69h56.65v25.04H11.46V15.77c0-.93-.76-1.69-1.69-1.69s-1.69.76-1.69,1.69v39.29c0,4.68,3.54,8.54,8.08,9.06v1.77c0,.94.75,1.69,1.69,1.69s1.69-.75,1.69-1.69v-1.7h34.26v1.7c0,.94.75,1.69,1.69,1.69s1.69-.75,1.69-1.69v-1.77c4.54-.52,8.08-4.38,8.08-9.06V6.91h2.86c.93,0,1.69-.76,1.69-1.69s-.76-1.69-1.69-1.69Z"/>
        <path class="cls-9" d="M28.26,15.56c-.93,0-1.69.76-1.69,1.69v2.88c0,.93.76,1.69,1.69,1.69h15.56c.93,0,1.69-.75,1.69-1.69v-2.88c0-.93-.76-1.69-1.69-1.69s-1.69.76-1.69,1.69v1.19h-12.18v-1.19c0-.93-.76-1.69-1.69-1.69ZM28.26,50.44h15.56c.93,0,1.69-.76,1.69-1.69v-2.88c0-.94-.76-1.69-1.69-1.69s-1.69.75-1.69,1.69v1.19h-12.18v-1.19c0-.94-.76-1.69-1.69-1.69s-1.69.75-1.69,1.69v2.88c0,.93.76,1.69,1.69,1.69ZM61.25,54.43c0,3.17-2.58,5.74-5.75,5.74H16.58c-3.17,0-5.75-2.58-5.75-5.74v-19.73h50.41v19.73ZM67.48,2.91H4.59c-.93,0-1.69.76-1.69,1.69s.76,1.69,1.69,1.69h56.65v25.04H10.83V15.15c0-.93-.76-1.69-1.69-1.69s-1.69.76-1.69,1.69v39.29c0,4.68,3.54,8.54,8.08,9.06v1.77c0,.94.75,1.69,1.69,1.69s1.69-.75,1.69-1.69v-1.7h34.26v1.7c0,.94.75,1.69,1.69,1.69s1.69-.75,1.69-1.69v-1.77c4.54-.52,8.08-4.38,8.08-9.06V6.28h2.86c.93,0,1.69-.76,1.69-1.69s-.76-1.69-1.69-1.69Z"/>
        <path class="cls-7" d="M27.64,14.94c-.93,0-1.69.76-1.69,1.69v2.88c0,.93.76,1.69,1.69,1.69h15.56c.93,0,1.69-.75,1.69-1.69v-2.88c0-.93-.76-1.69-1.69-1.69s-1.69.76-1.69,1.69v1.19h-12.18v-1.19c0-.93-.76-1.69-1.69-1.69ZM27.64,49.82h15.56c.93,0,1.69-.76,1.69-1.69v-2.88c0-.94-.76-1.69-1.69-1.69s-1.69.75-1.69,1.69v1.19h-12.18v-1.19c0-.94-.76-1.69-1.69-1.69s-1.69.75-1.69,1.69v2.88c0,.93.76,1.69,1.69,1.69ZM60.62,53.81c0,3.17-2.58,5.74-5.75,5.74H15.95c-3.17,0-5.75-2.58-5.75-5.74v-19.73h50.41v19.73ZM66.86,2.28H3.97c-.93,0-1.69.76-1.69,1.69s.76,1.69,1.69,1.69h56.65v25.04H10.21V14.52c0-.93-.76-1.69-1.69-1.69s-1.69.76-1.69,1.69v39.29c0,4.68,3.54,8.54,8.08,9.06v1.77c0,.94.75,1.69,1.69,1.69s1.69-.75,1.69-1.69v-1.7h34.26v1.7c0,.94.75,1.69,1.69,1.69s1.69-.75,1.69-1.69v-1.77c4.54-.52,8.08-4.38,8.08-9.06V5.66h2.86c.93,0,1.69-.76,1.69-1.69s-.76-1.69-1.69-1.69Z"/>
        <path class="cls-4" d="M27.01,14.31c-.93,0-1.69.76-1.69,1.69v2.88c0,.93.76,1.69,1.69,1.69h15.56c.93,0,1.69-.75,1.69-1.69v-2.88c0-.93-.76-1.69-1.69-1.69s-1.69.76-1.69,1.69v1.19h-12.18v-1.19c0-.93-.76-1.69-1.69-1.69ZM27.01,49.19h15.56c.93,0,1.69-.76,1.69-1.69v-2.88c0-.94-.76-1.69-1.69-1.69s-1.69.75-1.69,1.69v1.19h-12.18v-1.19c0-.94-.76-1.69-1.69-1.69s-1.69.75-1.69,1.69v2.88c0,.93.76,1.69,1.69,1.69ZM60,53.18c0,3.17-2.58,5.74-5.75,5.74H15.33c-3.17,0-5.75-2.58-5.75-5.74v-19.73h50.41v19.73ZM66.23,1.66H3.34c-.93,0-1.69.76-1.69,1.69s.76,1.69,1.69,1.69h56.65v25.04H9.58V13.9c0-.93-.76-1.69-1.69-1.69s-1.69.76-1.69,1.69v39.29c0,4.68,3.54,8.54,8.08,9.06v1.77c0,.94.75,1.69,1.69,1.69s1.69-.75,1.69-1.69v-1.7h34.26v1.7c0,.94.75,1.69,1.69,1.69s1.69-.75,1.69-1.69v-1.77c4.54-.52,8.08-4.38,8.08-9.06V5.03h2.86c.93,0,1.69-.76,1.69-1.69s-.76-1.69-1.69-1.69Z"/>
        <path class="cls-6" d="M26.39,13.69c-.93,0-1.69.76-1.69,1.69v2.88c0,.93.76,1.69,1.69,1.69h15.56c.93,0,1.69-.75,1.69-1.69v-2.88c0-.93-.76-1.69-1.69-1.69s-1.69.76-1.69,1.69v1.19h-12.18v-1.19c0-.93-.76-1.69-1.69-1.69ZM26.39,48.57h15.56c.93,0,1.69-.76,1.69-1.69v-2.88c0-.94-.76-1.69-1.69-1.69s-1.69.75-1.69,1.69v1.19h-12.18v-1.19c0-.94-.76-1.69-1.69-1.69s-1.69.75-1.69,1.69v2.88c0,.93.76,1.69,1.69,1.69ZM59.37,52.56c0,3.17-2.58,5.74-5.75,5.74H14.7c-3.17,0-5.75-2.58-5.75-5.74v-19.73h50.41v19.73ZM65.61,1.03H2.72c-.93,0-1.69.76-1.69,1.69s.76,1.69,1.69,1.69h56.65v25.04H8.96V13.27c0-.93-.76-1.69-1.69-1.69s-1.69.76-1.69,1.69v39.29c0,4.68,3.54,8.54,8.08,9.06v1.77c0,.94.75,1.69,1.69,1.69s1.69-.75,1.69-1.69v-1.7h34.26v1.7c0,.94.75,1.69,1.69,1.69s1.69-.75,1.69-1.69v-1.77c4.54-.52,8.08-4.38,8.08-9.06V4.41h2.86c.93,0,1.69-.76,1.69-1.69s-.76-1.69-1.69-1.69Z"/>
        <path class="cls-5" d="M25.76,13.06c-.93,0-1.69.76-1.69,1.69v2.88c0,.93.76,1.69,1.69,1.69h15.56c.93,0,1.69-.75,1.69-1.69v-2.88c0-.93-.76-1.69-1.69-1.69s-1.69.76-1.69,1.69v1.19h-12.18v-1.19c0-.93-.76-1.69-1.69-1.69ZM25.76,47.94h15.56c.93,0,1.69-.76,1.69-1.69v-2.88c0-.94-.76-1.69-1.69-1.69s-1.69.75-1.69,1.69v1.19h-12.18v-1.19c0-.94-.76-1.69-1.69-1.69s-1.69.75-1.69,1.69v2.88c0,.93.76,1.69,1.69,1.69ZM58.75,51.93c0,3.17-2.58,5.74-5.75,5.74H14.08c-3.17,0-5.75-2.58-5.75-5.74v-19.73h50.41v19.73ZM64.98.41H2.09C1.16.41.41,1.16.41,2.09s.76,1.69,1.69,1.69h56.65v25.04H8.33V12.65c0-.93-.76-1.69-1.69-1.69s-1.69.76-1.69,1.69v39.29c0,4.68,3.54,8.54,8.08,9.06v1.77c0,.94.75,1.69,1.69,1.69s1.69-.75,1.69-1.69v-1.7h34.26v1.7c0,.94.75,1.69,1.69,1.69s1.69-.75,1.69-1.69v-1.77c4.54-.52,8.08-4.38,8.08-9.06V3.78h2.86c.93,0,1.69-.76,1.69-1.69s-.76-1.69-1.69-1.69Z"/>
      </g>
      <path class="cls-2" d="M64.58,0H1.69C.76,0,0,.76,0,1.69s.76,1.69,1.69,1.69h56.65v25.04H7.93V12.24c0-.93-.76-1.69-1.69-1.69s-1.69.76-1.69,1.69v39.28c0,4.68,3.54,8.54,8.08,9.06v1.77c0,.94.75,1.69,1.69,1.69s1.69-.75,1.69-1.69v-1.71h34.26v1.71c0,.94.75,1.69,1.69,1.69s1.69-.75,1.69-1.69v-1.77c4.54-.52,8.08-4.38,8.08-9.06V3.38h2.86c.93,0,1.69-.76,1.69-1.69s-.76-1.69-1.69-1.69ZM58.34,51.53c0,3.17-2.58,5.75-5.75,5.75H13.67c-3.17,0-5.75-2.58-5.75-5.75v-19.73h50.42v19.73ZM25.36,12.66c-.93,0-1.69.75-1.69,1.69v2.88c0,.93.76,1.69,1.69,1.69h15.56c.93,0,1.69-.75,1.69-1.69v-2.88c0-.93-.76-1.69-1.69-1.69s-1.69.75-1.69,1.69v1.19h-12.18v-1.19c0-.93-.76-1.69-1.69-1.69ZM25.36,47.54h15.56c.93,0,1.69-.76,1.69-1.69v-2.88c0-.94-.76-1.69-1.69-1.69s-1.69.75-1.69,1.69v1.19h-12.18v-1.19c0-.94-.76-1.69-1.69-1.69s-1.69.75-1.69,1.69v2.88c0,.93.76,1.69,1.69,1.69Z"/>
    </g>
  </g>
</svg>