<?xml version="1.0" encoding="UTF-8"?>
<svg id="Layer_2" data-name="Layer 2" xmlns="http://www.w3.org/2000/svg" viewBox="0 0 27.36 18.44">
  <g id="_1" data-name="1">
    <path d="M1.54,0h24.28c.43,0,.82.17,1.1.45.28.28.44.67.44,1.08v15.37c0,.43-.16.8-.44,1.09h0c-.28.28-.67.44-1.1.44H1.54c-.41,0-.8-.17-1.08-.44H.46c-.28-.29-.46-.66-.46-1.09V1.53c0-.41.18-.8.46-1.08.28-.28.67-.45,1.08-.45h0ZM14.83,5.13h9.26c.35,0,.64.28.64.64v.73c0,.36-.29.64-.64.64h-9.26c-.35,0-.64-.28-.64-.64v-.73c0-.36.29-.64.64-.64h0ZM14.83,2.21h9.26c.35,0,.64.29.64.64v.75c0,.35-.29.64-.64.64h-9.26c-.35,0-.64-.3-.64-.64v-.75c0-.35.29-.64.64-.64h0ZM.81,10.89h25.74V1.53c0-.19-.08-.37-.22-.51-.12-.12-.3-.21-.51-.21H1.54c-.19,0-.37.08-.51.21-.12.14-.21.32-.21.51v9.36ZM26.55,14.49H.81v2.41c0,.21.09.39.21.51.14.14.32.22.51.22h24.28c.21,0,.39-.08.51-.22.14-.12.22-.3.22-.51v-2.41Z"/>
  </g>
</svg>