<?xml version="1.0" encoding="UTF-8"?>
<svg id="Layer_2" data-name="Layer 2" xmlns="http://www.w3.org/2000/svg" xmlns:xlink="http://www.w3.org/1999/xlink" viewBox="0 0 75.45 75.44">
  <defs>
    <style>
      .cls-1 {
        opacity: .14;
      }

      .cls-2 {
        fill: url(#linear-gradient-2);
      }

      .cls-3 {
        opacity: .21;
      }

      .cls-4 {
        opacity: .42;
      }

      .cls-5 {
        opacity: .55;
      }

      .cls-6 {
        opacity: .48;
      }

      .cls-7 {
        opacity: .35;
      }

      .cls-8 {
        opacity: .08;
      }

      .cls-9 {
        opacity: .28;
      }

      .cls-10 {
        opacity: 0;
      }

      .cls-11 {
        fill: url(#linear-gradient);
      }
    </style>
    <linearGradient id="linear-gradient" x1="3.85" y1="3.9" x2="56.78" y2="56.84" gradientUnits="userSpaceOnUse">
      <stop offset="0" stop-color="#4ba129"/>
      <stop offset="1" stop-color="#c7ff3c"/>
    </linearGradient>
    <linearGradient id="linear-gradient-2" x1="4.26" y1="4.26" x2="56.9" y2="56.9" gradientUnits="userSpaceOnUse">
      <stop offset="0" stop-color="#2c2e2c"/>
      <stop offset=".99" stop-color="#000"/>
    </linearGradient>
  </defs>
  <g id="Layer_1-2" data-name="Layer 1">
    <g>
      <path class="cls-11" d="M65.41,34.03c-3.45-3.45-27.77-27.77-29.5-29.5s-3.53-3.04-7.64-3.04h-13.48C12.49,1.49,1.81,4.94,1.81,14.14s-.16,12.33-.16,12.33c0,0-.49,6.08,2.63,9.2,3.12,3.12,28.6,28.92,30.57,30.4,1.97,1.48,6.82,3.37,10.35-.16s19.39-19.39,21.2-21.2c1.81-1.81,2.46-7.23-.99-10.68ZM14.63,20.22c-3,0-5.42-2.43-5.42-5.42s2.43-5.42,5.42-5.42,5.42,2.43,5.42,5.42-2.43,5.42-5.42,5.42Z"/>
      <g>
        <path class="cls-10" d="M17.32,17.31c.74-.74,1.72-1.14,2.77-1.14s2.03.41,2.77,1.14c1.53,1.53,1.53,4.01,0,5.53-.74.74-1.72,1.15-2.77,1.15s-2.03-.41-2.77-1.15c-1.52-1.53-1.52-4.01,0-5.53ZM25.24,25.23c2.84-2.84,2.84-7.47,0-10.31-1.38-1.38-3.21-2.13-5.16-2.13s-3.78.76-5.15,2.13c-2.85,2.84-2.85,7.47,0,10.31,1.37,1.38,3.21,2.14,5.15,2.14s3.78-.76,5.16-2.14ZM72.78,38.94l-30.87-30.87c-1.74-1.74-4.06-2.67-6.5-2.67h-.06s-8.27,0-14.12,0c-9.76,0-15.82,6.07-15.82,15.84v10.33c0,.93.76,1.69,1.69,1.69s1.69-.76,1.69-1.69v-10.33c0-7.92,4.53-12.46,12.44-12.46,5.53,0,13.21,0,14.05,0,.03,0,.07,0,.1,0,1.56-.03,3.04.57,4.14,1.68l30.87,30.87c1.08,1.09,1.68,2.53,1.68,4.06s-.6,2.98-1.68,4.06l-20.93,20.93c-1.08,1.08-2.53,1.68-4.06,1.68s-2.98-.6-4.06-1.68l-30.87-30.87c-.66-.66-1.73-.66-2.39,0-.66.66-.66,1.73,0,2.39l30.87,30.87c1.78,1.78,4.12,2.67,6.45,2.67s4.67-.89,6.45-2.67l20.93-20.93c1.72-1.73,2.67-4.01,2.67-6.45s-.95-4.73-2.67-6.45Z"/>
        <path class="cls-8" d="M16.69,16.69c.74-.74,1.72-1.14,2.77-1.14s2.03.41,2.77,1.14c1.53,1.53,1.53,4.01,0,5.53-.74.74-1.72,1.15-2.77,1.15s-2.03-.41-2.77-1.15c-1.52-1.53-1.52-4.01,0-5.53ZM24.61,24.61c2.84-2.84,2.84-7.47,0-10.31-1.38-1.38-3.21-2.13-5.16-2.13s-3.78.76-5.15,2.13c-2.85,2.84-2.85,7.47,0,10.31,1.37,1.38,3.21,2.14,5.15,2.14s3.78-.76,5.16-2.14ZM72.15,38.32L41.29,7.45c-1.74-1.74-4.06-2.67-6.5-2.67h-.06s-8.27,0-14.12,0c-9.76,0-15.82,6.07-15.82,15.84v10.33c0,.93.76,1.69,1.69,1.69s1.69-.76,1.69-1.69v-10.33c0-7.92,4.53-12.46,12.44-12.46,5.53,0,13.21,0,14.05,0,.03,0,.07,0,.1,0,1.56-.06,3.04.57,4.14,1.68l30.87,30.87c1.08,1.09,1.68,2.53,1.68,4.06s-.6,2.98-1.68,4.06l-20.93,20.93c-1.08,1.08-2.53,1.68-4.06,1.68s-2.98-.6-4.06-1.68l-30.87-30.87c-.66-.66-1.73-.66-2.39,0-.66.66-.66,1.73,0,2.39l30.87,30.87c1.78,1.78,4.12,2.67,6.45,2.67s4.67-.89,6.45-2.67l20.93-20.93c1.72-1.73,2.67-4.01,2.67-6.45s-.95-4.73-2.67-6.45Z"/>
        <path class="cls-1" d="M16.07,16.06c.74-.74,1.72-1.14,2.77-1.14s2.03.41,2.77,1.14c1.53,1.53,1.53,4.01,0,5.53-.74.74-1.72,1.15-2.77,1.15s-2.03-.41-2.77-1.15c-1.52-1.53-1.52-4.01,0-5.53ZM23.99,23.98c2.84-2.84,2.84-7.47,0-10.31-1.38-1.38-3.21-2.13-5.16-2.13s-3.78.76-5.15,2.13c-2.85,2.84-2.85,7.47,0,10.31,1.37,1.38,3.21,2.14,5.15,2.14s3.78-.76,5.16-2.14ZM71.53,37.69L40.66,6.82c-1.74-1.74-4.06-2.67-6.5-2.67h-.06s-8.27,0-14.12,0c-9.76,0-15.82,6.07-15.82,15.84v10.33c0,.93.76,1.69,1.69,1.69s1.69-.76,1.69-1.69v-10.33c0-7.92,4.53-12.46,12.44-12.46,5.53,0,13.21,0,14.05,0,.03,0,.07,0,.1,0,1.56-.06,3.04.57,4.14,1.68l30.87,30.87c1.08,1.09,1.68,2.53,1.68,4.06s-.6,2.98-1.68,4.06l-20.93,20.93c-1.08,1.08-2.53,1.68-4.06,1.68s-2.98-.6-4.06-1.68l-30.87-30.87c-.66-.66-1.73-.66-2.39,0-.66.66-.66,1.73,0,2.39l30.87,30.87c1.78,1.78,4.12,2.67,6.45,2.67s4.67-.89,6.45-2.67l20.93-20.93c1.72-1.73,2.67-4.01,2.67-6.45s-.95-4.73-2.67-6.45Z"/>
        <path class="cls-3" d="M15.44,15.44c.74-.74,1.72-1.14,2.77-1.14s2.03.41,2.77,1.14c1.53,1.53,1.53,4.01,0,5.53-.74.74-1.72,1.15-2.77,1.15s-2.03-.41-2.77-1.15c-1.52-1.53-1.52-4.01,0-5.53ZM23.36,23.36c2.84-2.84,2.84-7.47,0-10.31-1.38-1.38-3.21-2.13-5.16-2.13s-3.78.76-5.15,2.13c-2.85,2.84-2.85,7.47,0,10.31,1.37,1.38,3.21,2.14,5.15,2.14s3.78-.76,5.16-2.14ZM70.9,37.07L40.04,6.2c-1.74-1.74-4.06-2.67-6.5-2.67h-.06s-8.27,0-14.12,0c-9.76,0-15.82,6.07-15.82,15.84v10.33c0,.93.76,1.69,1.69,1.69s1.69-.76,1.69-1.69v-10.33c0-7.92,4.53-12.46,12.44-12.46,5.53,0,13.21,0,14.05,0,.03,0,.07,0,.1,0,1.56-.06,3.04.57,4.14,1.68l30.87,30.87c1.08,1.09,1.68,2.53,1.68,4.06s-.6,2.98-1.68,4.06l-20.93,20.93c-1.08,1.08-2.53,1.68-4.06,1.68s-2.98-.6-4.06-1.68l-30.87-30.87c-.66-.66-1.73-.66-2.39,0-.66.66-.66,1.73,0,2.39l30.87,30.87c1.78,1.78,4.12,2.67,6.45,2.67s4.67-.89,6.45-2.67l20.93-20.93c1.72-1.73,2.67-4.01,2.67-6.45s-.95-4.73-2.67-6.45Z"/>
        <path class="cls-9" d="M14.82,14.81c.74-.74,1.72-1.14,2.77-1.14s2.03.41,2.77,1.14c1.53,1.53,1.53,4.01,0,5.53-.74.74-1.72,1.15-2.77,1.15s-2.03-.41-2.77-1.15c-1.52-1.53-1.52-4.01,0-5.53ZM22.74,22.73c2.84-2.84,2.84-7.47,0-10.31-1.38-1.38-3.21-2.13-5.16-2.13s-3.78.76-5.15,2.13c-2.85,2.84-2.85,7.47,0,10.31,1.37,1.38,3.21,2.14,5.15,2.14s3.78-.76,5.16-2.14ZM70.28,36.44L39.41,5.57c-1.74-1.74-4.06-2.67-6.5-2.67h-.06s-8.27,0-14.12,0c-9.76,0-15.82,6.07-15.82,15.84v10.33c0,.93.76,1.69,1.69,1.69s1.69-.76,1.69-1.69v-10.33c0-7.92,4.53-12.46,12.44-12.46,5.53,0,13.21,0,14.05,0,.03,0,.07,0,.1,0,1.56-.06,3.04.57,4.14,1.68l30.87,30.87c1.08,1.09,1.68,2.53,1.68,4.06s-.6,2.98-1.68,4.06l-20.93,20.93c-1.08,1.08-2.53,1.68-4.06,1.68s-2.98-.6-4.06-1.68L7.96,37.02c-.66-.66-1.73-.66-2.39,0-.66.66-.66,1.73,0,2.39l30.87,30.87c1.78,1.78,4.12,2.67,6.45,2.67s4.67-.89,6.45-2.67l20.93-20.93c1.72-1.73,2.67-4.01,2.67-6.45s-.95-4.73-2.67-6.45Z"/>
        <path class="cls-7" d="M14.19,14.19c.74-.74,1.72-1.14,2.77-1.14s2.03.41,2.77,1.14c1.53,1.53,1.53,4.01,0,5.53-.74.74-1.72,1.15-2.77,1.15s-2.03-.41-2.77-1.15c-1.52-1.53-1.52-4.01,0-5.53ZM22.11,22.11c2.84-2.84,2.84-7.47,0-10.31-1.38-1.38-3.21-2.13-5.16-2.13s-3.78.76-5.15,2.13c-2.85,2.84-2.85,7.47,0,10.31,1.37,1.38,3.21,2.14,5.15,2.14s3.78-.76,5.16-2.14ZM69.65,35.82L38.79,4.95c-1.74-1.74-4.06-2.67-6.5-2.67h-.06s-8.27,0-14.12,0c-9.76,0-15.82,6.07-15.82,15.84v10.33c0,.93.76,1.69,1.69,1.69s1.69-.76,1.69-1.69v-10.33c0-7.92,4.53-12.46,12.44-12.46,5.53,0,13.21,0,14.05,0,.03,0,.07,0,.1,0,1.56-.06,3.04.57,4.14,1.68l30.87,30.87c1.08,1.09,1.68,2.53,1.68,4.06s-.6,2.98-1.68,4.06l-20.93,20.93c-1.08,1.08-2.53,1.68-4.06,1.68s-2.98-.6-4.06-1.68L7.34,36.39c-.66-.66-1.73-.66-2.39,0-.66.66-.66,1.73,0,2.39l30.87,30.87c1.78,1.78,4.12,2.67,6.45,2.67s4.67-.89,6.45-2.67l20.93-20.93c1.72-1.73,2.67-4.01,2.67-6.45s-.95-4.73-2.67-6.45Z"/>
        <path class="cls-4" d="M13.57,13.56c.74-.74,1.72-1.14,2.77-1.14s2.03.41,2.77,1.14c1.53,1.53,1.53,4.01,0,5.53-.74.74-1.72,1.15-2.77,1.15s-2.03-.41-2.77-1.15c-1.52-1.53-1.52-4.01,0-5.53ZM21.49,21.48c2.84-2.84,2.84-7.47,0-10.31-1.38-1.38-3.21-2.13-5.16-2.13s-3.78.76-5.15,2.13c-2.85,2.84-2.85,7.47,0,10.31,1.37,1.38,3.21,2.14,5.15,2.14s3.78-.76,5.16-2.14ZM69.03,35.19L38.16,4.32c-1.74-1.74-4.06-2.67-6.5-2.67h-.06s-8.27,0-14.12,0C7.72,1.66,1.66,7.73,1.66,17.5v10.33c0,.93.76,1.69,1.69,1.69s1.69-.76,1.69-1.69v-10.33c0-7.92,4.53-12.46,12.44-12.46,5.53,0,13.21,0,14.05,0,.03,0,.07,0,.1,0,1.56-.06,3.04.57,4.14,1.68l30.87,30.87c1.08,1.09,1.68,2.53,1.68,4.06s-.6,2.98-1.68,4.06l-20.93,20.93c-1.08,1.08-2.53,1.68-4.06,1.68s-2.98-.6-4.06-1.68L6.71,35.77c-.66-.66-1.73-.66-2.39,0-.66.66-.66,1.73,0,2.39l30.87,30.87c1.78,1.78,4.12,2.67,6.45,2.67s4.67-.89,6.45-2.67l20.93-20.93c1.72-1.73,2.67-4.01,2.67-6.45s-.95-4.73-2.67-6.45Z"/>
        <path class="cls-6" d="M12.94,12.94c.74-.74,1.72-1.14,2.77-1.14s2.03.41,2.77,1.14c1.53,1.53,1.53,4.01,0,5.53-.74.74-1.72,1.15-2.77,1.15s-2.03-.41-2.77-1.15c-1.52-1.53-1.52-4.01,0-5.53ZM20.86,20.86c2.84-2.84,2.84-7.47,0-10.31-1.38-1.38-3.21-2.13-5.16-2.13s-3.78.76-5.15,2.13c-2.85,2.84-2.85,7.47,0,10.31,1.37,1.38,3.21,2.14,5.15,2.14s3.78-.76,5.16-2.14ZM68.4,34.57L37.54,3.7c-1.74-1.74-4.06-2.67-6.5-2.67h-.06s-8.27,0-14.12,0C7.09,1.04,1.03,7.11,1.03,16.88v10.33c0,.93.76,1.69,1.69,1.69s1.69-.76,1.69-1.69v-10.33c0-7.92,4.53-12.46,12.44-12.46,5.53,0,13.21,0,14.05,0,.03,0,.07,0,.1,0,1.56-.06,3.04.57,4.14,1.68l30.87,30.87c1.08,1.09,1.68,2.53,1.68,4.06s-.6,2.98-1.68,4.06l-20.93,20.93c-1.08,1.08-2.53,1.68-4.06,1.68s-2.98-.6-4.06-1.68L6.09,35.14c-.66-.66-1.73-.66-2.39,0-.66.66-.66,1.73,0,2.39l30.87,30.87c1.78,1.78,4.12,2.67,6.45,2.67s4.67-.89,6.45-2.67l20.93-20.93c1.72-1.73,2.67-4.01,2.67-6.45s-.95-4.73-2.67-6.45Z"/>
        <path class="cls-5" d="M12.32,12.31c.74-.74,1.72-1.14,2.77-1.14s2.03.41,2.77,1.14c1.53,1.53,1.53,4.01,0,5.53-.74.74-1.72,1.15-2.77,1.15s-2.03-.41-2.77-1.15c-1.52-1.53-1.52-4.01,0-5.53ZM20.24,20.23c2.84-2.84,2.84-7.47,0-10.31-1.38-1.38-3.21-2.13-5.16-2.13s-3.78.76-5.15,2.13c-2.85,2.84-2.85,7.47,0,10.31,1.37,1.38,3.21,2.14,5.15,2.14s3.78-.76,5.16-2.14ZM67.78,33.94L36.91,3.07c-1.74-1.74-4.06-2.67-6.5-2.67h-.06s-8.27,0-14.12,0C6.47.41.41,6.48.41,16.25v10.33c0,.93.76,1.69,1.69,1.69s1.69-.76,1.69-1.69v-10.33c0-7.92,4.53-12.46,12.44-12.46,5.53,0,13.21,0,14.05,0,.03,0,.07,0,.1,0,1.56-.03,3.04.57,4.14,1.68l30.87,30.87c1.08,1.09,1.68,2.53,1.68,4.06s-.6,2.98-1.68,4.06l-20.93,20.93c-1.08,1.08-2.53,1.68-4.06,1.68s-2.98-.6-4.06-1.68L5.46,34.52c-.66-.66-1.73-.66-2.39,0-.66.66-.66,1.73,0,2.39l30.87,30.87c1.78,1.78,4.12,2.67,6.45,2.67s4.67-.89,6.45-2.67l20.93-20.93c1.72-1.73,2.67-4.01,2.67-6.45s-.95-4.73-2.67-6.45Z"/>
      </g>
      <path class="cls-2" d="M67.37,33.54L36.5,2.67C34.77.93,32.44,0,30,0h-.06s-8.27,0-14.12,0C6.06,0,0,6.08,0,15.85v10.33c0,.93.76,1.69,1.69,1.69s1.69-.76,1.69-1.69v-10.33c0-7.92,4.53-12.46,12.44-12.46,5.53,0,13.21,0,14.05,0,.03,0,.07,0,.1,0,1.56-.03,3.04.57,4.14,1.68l30.87,30.87c1.08,1.09,1.68,2.53,1.68,4.06s-.6,2.98-1.68,4.06l-20.93,20.93c-1.08,1.08-2.53,1.68-4.06,1.68s-2.98-.6-4.06-1.68L5.06,34.11c-.66-.66-1.73-.66-2.39,0-.66.66-.66,1.73,0,2.39l30.87,30.87c1.78,1.78,4.12,2.67,6.45,2.67s4.67-.89,6.45-2.67l20.93-20.93c1.72-1.73,2.67-4.01,2.67-6.45s-.95-4.73-2.67-6.45ZM19.83,19.83c2.84-2.84,2.84-7.47,0-10.31-1.38-1.38-3.21-2.13-5.16-2.13s-3.78.76-5.15,2.13c-2.85,2.84-2.85,7.47,0,10.31,1.37,1.38,3.21,2.14,5.15,2.14s3.78-.76,5.16-2.14ZM11.91,11.91c.74-.74,1.72-1.14,2.77-1.14s2.03.41,2.77,1.14c1.53,1.53,1.53,4.01,0,5.53-.74.74-1.72,1.15-2.77,1.15s-2.03-.41-2.77-1.15c-1.52-1.53-1.52-4.01,0-5.53Z"/>
    </g>
  </g>
</svg>