<?xml version="1.0" encoding="UTF-8"?>
<svg id="Layer_2" data-name="Layer 2" xmlns="http://www.w3.org/2000/svg" viewBox="0 0 20.52 27.36">
  <defs>
    <style>
      .cls-1 {
        fill-rule: evenodd;
      }
    </style>
  </defs>
  <g id="_1" data-name="1">
    <path class="cls-1" d="M18.81,1.71h1.71V0H0v1.71h1.7v1.7h.81c-1.23,3.38-.16,7.2,2.71,9.4.43.35.92.62,1.4.86-.49.25-.97.53-1.4.86-2.87,2.2-3.94,6.04-2.71,9.41h-.81v1.71H0v1.71h20.52v-1.71h-1.71v-1.71h-.82c1.24-3.37.17-7.2-2.7-9.41-.45-.33-.92-.61-1.42-.86.5-.23.97-.51,1.42-.86,2.87-2.2,3.94-6.02,2.7-9.4h.82v-1.7ZM16.31,3.75c1.13,2.73.28,5.9-2.07,7.71-.7.54-1.47.89-2.28,1.1v2.21c.81.21,1.58.58,2.28,1.11,2.35,1.8,3.19,4.97,2.07,7.71l-.14.33h-1.75c.29-1.43-.15-2.97-1.29-4.02-.6-.53-1.3-.87-2.03-1.02v-7c1.01-.15,1.99-.56,2.83-1.25.71-.59,1.24-1.32,1.59-2.1H4.98c.36.78.88,1.51,1.59,2.1.83.69,1.82,1.1,2.84,1.25v7c-.74.15-1.45.49-2.03,1.02-1.14,1.05-1.59,2.59-1.29,4.02h-1.74l-.14-.33c-1.14-2.74-.3-5.91,2.05-7.71.7-.54,1.48-.9,2.29-1.11v-2.21c-.81-.21-1.59-.57-2.29-1.1-2.35-1.81-3.2-4.98-2.05-7.71l.14-.34h11.83l.14.34Z"/>
  </g>
</svg>