<?xml version="1.0" encoding="UTF-8"?>
<svg id="Layer_2" data-name="Layer 2" xmlns="http://www.w3.org/2000/svg" xmlns:xlink="http://www.w3.org/1999/xlink" viewBox="0 0 70.95 70.95">
  <defs>
    <style>
      .cls-1 {
        opacity: .14;
      }

      .cls-2 {
        fill: url(#linear-gradient-2);
      }

      .cls-3 {
        opacity: .21;
      }

      .cls-4 {
        opacity: .42;
      }

      .cls-5 {
        opacity: .55;
      }

      .cls-6 {
        opacity: .48;
      }

      .cls-7 {
        opacity: .35;
      }

      .cls-8 {
        opacity: .08;
      }

      .cls-9 {
        opacity: .28;
      }

      .cls-10 {
        opacity: 0;
      }

      .cls-11 {
        fill: url(#linear-gradient);
      }
    </style>
    <linearGradient id="linear-gradient" x1="8.86" y1="8.93" x2="57.29" y2="57.36" gradientUnits="userSpaceOnUse">
      <stop offset="0" stop-color="#4ba129"/>
      <stop offset="1" stop-color="#c7ff3c"/>
    </linearGradient>
    <linearGradient id="linear-gradient-2" x1="9.6" y1="9.6" x2="55.94" y2="55.94" gradientUnits="userSpaceOnUse">
      <stop offset="0" stop-color="#2c2e2c"/>
      <stop offset=".99" stop-color="#000"/>
    </linearGradient>
  </defs>
  <g id="Layer_1-2" data-name="Layer 1">
    <g>
      <path class="cls-11" d="M64.04,32.95c0,17.21-13.95,31.16-31.16,31.16S1.71,50.16,1.71,32.95,15.67,1.79,32.88,1.79s31.16,13.95,31.16,31.16Z"/>
      <g>
        <path class="cls-10" d="M36.11,49.18c.45,0,.88-.18,1.19-.49l17.86-17.86c.66-.66.66-1.73,0-2.39-.66-.66-1.73-.66-2.39,0l-16.67,16.67-9.44-9.44c-.66-.66-1.73-.66-2.39,0-.66.66-.66,1.73,0,2.39l10.64,10.64c.32.32.75.49,1.19.49ZM38.18,5.41c-11.66,0-22.53,6.27-28.38,16.37-1.06,1.84-1.95,3.78-2.64,5.79-.3.88.17,1.84,1.05,2.15.88.3,1.84-.17,2.15-1.05.61-1.79,1.41-3.54,2.36-5.19,5.25-9.06,15-14.68,25.46-14.68,16.21,0,29.39,13.19,29.39,29.4s-13.19,29.39-29.39,29.39-29.4-13.18-29.4-29.39c0-.94-.76-1.69-1.69-1.69s-1.69.75-1.69,1.69c0,18.07,14.7,32.77,32.78,32.77s32.77-14.7,32.77-32.77S56.25,5.41,38.18,5.41Z"/>
        <path class="cls-8" d="M35.48,48.55c.45,0,.88-.18,1.19-.49l17.86-17.86c.66-.66.66-1.73,0-2.39-.66-.66-1.73-.66-2.39,0l-16.67,16.67-9.44-9.44c-.66-.66-1.73-.66-2.39,0-.66.66-.66,1.73,0,2.39l10.64,10.64c.32.32.75.49,1.19.49ZM37.56,4.78c-11.66,0-22.53,6.27-28.38,16.37-1.06,1.84-1.95,3.78-2.64,5.79-.3.88.17,1.84,1.05,2.15.88.3,1.84-.17,2.15-1.05.61-1.79,1.41-3.54,2.36-5.19,5.25-9.06,15-14.68,25.46-14.68,16.21,0,29.39,13.19,29.39,29.4s-13.19,29.39-29.39,29.39-29.4-13.18-29.4-29.39c0-.94-.76-1.69-1.69-1.69s-1.69.75-1.69,1.69c0,18.07,14.7,32.77,32.78,32.77s32.77-14.7,32.77-32.77S55.63,4.78,37.56,4.78Z"/>
        <path class="cls-1" d="M34.86,47.93c.45,0,.88-.18,1.19-.49l17.86-17.86c.66-.66.66-1.73,0-2.39-.66-.66-1.73-.66-2.39,0l-16.67,16.67-9.44-9.44c-.66-.66-1.73-.66-2.39,0-.66.66-.66,1.73,0,2.39l10.64,10.64c.32.32.75.49,1.19.49ZM36.93,4.16c-11.66,0-22.53,6.27-28.38,16.37-1.06,1.84-1.95,3.78-2.64,5.79-.3.88.17,1.84,1.05,2.15.88.3,1.84-.17,2.15-1.05.61-1.79,1.41-3.54,2.36-5.19,5.25-9.06,15-14.68,25.46-14.68,16.21,0,29.39,13.19,29.39,29.4s-13.19,29.39-29.39,29.39S7.54,53.14,7.54,36.93c0-.94-.76-1.69-1.69-1.69s-1.69.75-1.69,1.69c0,18.07,14.7,32.77,32.78,32.77s32.77-14.7,32.77-32.77S55,4.16,36.93,4.16Z"/>
        <path class="cls-3" d="M34.23,47.3c.45,0,.88-.18,1.19-.49l17.86-17.86c.66-.66.66-1.73,0-2.39-.66-.66-1.73-.66-2.39,0l-16.67,16.67-9.44-9.44c-.66-.66-1.73-.66-2.39,0-.66.66-.66,1.73,0,2.39l10.64,10.64c.32.32.75.49,1.19.49ZM36.31,3.53c-11.66,0-22.53,6.27-28.38,16.37-1.06,1.84-1.95,3.78-2.64,5.79-.3.88.17,1.84,1.05,2.15.88.3,1.84-.17,2.15-1.05.61-1.79,1.41-3.54,2.36-5.19,5.25-9.06,15-14.68,25.46-14.68,16.21,0,29.39,13.19,29.39,29.4s-13.19,29.39-29.39,29.39S6.91,52.51,6.91,36.31c0-.94-.76-1.69-1.69-1.69s-1.69.75-1.69,1.69c0,18.07,14.7,32.77,32.78,32.77s32.77-14.7,32.77-32.77S54.38,3.53,36.31,3.53Z"/>
        <path class="cls-9" d="M33.61,46.68c.45,0,.88-.18,1.19-.49l17.86-17.86c.66-.66.66-1.73,0-2.39-.66-.66-1.73-.66-2.39,0l-16.67,16.67-9.44-9.44c-.66-.66-1.73-.66-2.39,0-.66.66-.66,1.73,0,2.39l10.64,10.64c.32.32.75.49,1.19.49ZM35.68,2.91c-11.66,0-22.53,6.27-28.38,16.37-1.06,1.84-1.95,3.78-2.64,5.79-.3.88.17,1.84,1.05,2.15.88.3,1.84-.17,2.15-1.05.61-1.79,1.41-3.54,2.36-5.19,5.25-9.06,15-14.68,25.46-14.68,16.21,0,29.39,13.19,29.39,29.4s-13.19,29.39-29.39,29.39S6.29,51.89,6.29,35.68c0-.94-.76-1.69-1.69-1.69s-1.69.75-1.69,1.69c0,18.07,14.7,32.77,32.78,32.77s32.77-14.7,32.77-32.77S53.75,2.91,35.68,2.91Z"/>
        <path class="cls-7" d="M32.98,46.05c.45,0,.88-.18,1.19-.49l17.86-17.86c.66-.66.66-1.73,0-2.39-.66-.66-1.73-.66-2.39,0l-16.67,16.67-9.44-9.44c-.66-.66-1.73-.66-2.39,0-.66.66-.66,1.73,0,2.39l10.64,10.64c.32.32.75.49,1.19.49ZM35.06,2.28c-11.66,0-22.53,6.27-28.38,16.37-1.06,1.84-1.95,3.78-2.64,5.79-.3.88.17,1.84,1.05,2.15.88.3,1.84-.17,2.15-1.05.61-1.79,1.41-3.54,2.36-5.19,5.25-9.06,15-14.68,25.46-14.68,16.21,0,29.39,13.19,29.39,29.4s-13.19,29.39-29.39,29.39S5.66,51.26,5.66,35.06c0-.94-.76-1.69-1.69-1.69s-1.69.75-1.69,1.69c0,18.07,14.7,32.77,32.78,32.77s32.77-14.7,32.77-32.77S53.13,2.28,35.06,2.28Z"/>
        <path class="cls-4" d="M32.36,45.43c.45,0,.88-.18,1.19-.49l17.86-17.86c.66-.66.66-1.73,0-2.39-.66-.66-1.73-.66-2.39,0l-16.67,16.67-9.44-9.44c-.66-.66-1.73-.66-2.39,0-.66.66-.66,1.73,0,2.39l10.64,10.64c.32.32.75.49,1.19.49ZM34.43,1.66C22.78,1.66,11.9,7.93,6.05,18.02c-1.06,1.84-1.95,3.78-2.64,5.79-.3.88.17,1.84,1.05,2.15.88.3,1.84-.17,2.15-1.05.61-1.79,1.41-3.54,2.36-5.19,5.25-9.06,15-14.68,25.46-14.68,16.21,0,29.39,13.19,29.39,29.4s-13.19,29.39-29.39,29.39S5.04,50.64,5.04,34.43c0-.94-.76-1.69-1.69-1.69s-1.69.75-1.69,1.69c0,18.07,14.7,32.77,32.78,32.77s32.77-14.7,32.77-32.77S52.5,1.66,34.43,1.66Z"/>
        <path class="cls-6" d="M31.73,44.8c.45,0,.88-.18,1.19-.49l17.86-17.86c.66-.66.66-1.73,0-2.39-.66-.66-1.73-.66-2.39,0l-16.67,16.67-9.44-9.44c-.66-.66-1.73-.66-2.39,0-.66.66-.66,1.73,0,2.39l10.64,10.64c.32.32.75.49,1.19.49ZM33.81,1.03C22.15,1.03,11.28,7.3,5.43,17.4c-1.06,1.84-1.95,3.78-2.64,5.79-.3.88.17,1.84,1.05,2.15.88.3,1.84-.17,2.15-1.05.61-1.79,1.41-3.54,2.36-5.19,5.25-9.06,15-14.68,25.46-14.68,16.21,0,29.39,13.19,29.39,29.4s-13.19,29.39-29.39,29.39S4.41,50.01,4.41,33.81c0-.94-.76-1.69-1.69-1.69s-1.69.75-1.69,1.69c0,18.07,14.7,32.77,32.78,32.77s32.77-14.7,32.77-32.77S51.88,1.03,33.81,1.03Z"/>
        <path class="cls-5" d="M31.11,44.18c.45,0,.88-.18,1.19-.49l17.86-17.86c.66-.66.66-1.73,0-2.39-.66-.66-1.73-.66-2.39,0l-16.67,16.67-9.44-9.44c-.66-.66-1.73-.66-2.39,0-.66.66-.66,1.73,0,2.39l10.64,10.64c.32.32.75.49,1.19.49ZM33.18.41C21.53.41,10.65,6.68,4.8,16.77c-1.06,1.84-1.95,3.78-2.64,5.79-.3.88.17,1.84,1.05,2.15.88.3,1.84-.17,2.15-1.05.61-1.79,1.41-3.54,2.36-5.19C12.97,9.41,22.73,3.78,33.18,3.78c16.21,0,29.39,13.19,29.39,29.4s-13.19,29.39-29.39,29.39S3.79,49.39,3.79,33.18c0-.94-.76-1.69-1.69-1.69s-1.69.75-1.69,1.69c0,18.07,14.7,32.77,32.78,32.77s32.77-14.7,32.77-32.77S51.25.41,33.18.41Z"/>
      </g>
      <path class="cls-2" d="M32.78,0C21.12,0,10.25,6.27,4.4,16.37c-1.06,1.84-1.95,3.78-2.64,5.79-.3.88.17,1.84,1.05,2.15.88.3,1.84-.17,2.15-1.05.61-1.79,1.41-3.54,2.36-5.19C12.57,9,22.32,3.38,32.78,3.38c16.21,0,29.39,13.19,29.39,29.4s-13.19,29.39-29.39,29.39S3.38,48.98,3.38,32.78c0-.94-.76-1.69-1.69-1.69s-1.69.75-1.69,1.69c0,18.07,14.7,32.77,32.78,32.77s32.77-14.7,32.77-32.77S50.85,0,32.78,0ZM30.7,43.77c.45,0,.88-.18,1.19-.49l17.86-17.86c.66-.66.66-1.73,0-2.39-.66-.66-1.73-.66-2.39,0l-16.67,16.66-9.44-9.44c-.66-.66-1.73-.66-2.39,0-.66.66-.66,1.73,0,2.39l10.64,10.64c.32.32.75.49,1.19.49Z"/>
    </g>
  </g>
</svg>