<?xml version="1.0" encoding="UTF-8"?>
<svg id="Layer_2" data-name="Layer 2" xmlns="http://www.w3.org/2000/svg" xmlns:xlink="http://www.w3.org/1999/xlink" viewBox="0 0 68.93 58.61">
  <defs>
    <style>
      .cls-1 {
        opacity: .14;
      }

      .cls-2 {
        fill: url(#linear-gradient-2);
      }

      .cls-3 {
        opacity: .21;
      }

      .cls-4 {
        opacity: .42;
      }

      .cls-5 {
        opacity: .55;
      }

      .cls-6 {
        opacity: .48;
      }

      .cls-7 {
        opacity: .35;
      }

      .cls-8 {
        opacity: .08;
      }

      .cls-9 {
        opacity: .28;
      }

      .cls-10 {
        opacity: 0;
      }

      .cls-11 {
        fill: url(#linear-gradient);
      }
    </style>
    <linearGradient id="linear-gradient" x1="4.86" y1="-.84" x2="58.77" y2="53.08" gradientUnits="userSpaceOnUse">
      <stop offset="0" stop-color="#3d704a"/>
      <stop offset="1" stop-color="#6bb387"/>
    </linearGradient>
    <linearGradient id="linear-gradient-2" x1="5.26" y1=".09" x2="58.27" y2="53.11" gradientUnits="userSpaceOnUse">
      <stop offset="0" stop-color="#2c2e2c"/>
      <stop offset=".99" stop-color="#000"/>
    </linearGradient>
  </defs>
  <g id="Layer_1-2" data-name="Layer 1">
    <g>
      <rect class="cls-11" x="1.91" y="1.68" width="60.4" height="49.45" rx="7.1" ry="7.1"/>
      <g>
        <path class="cls-10" d="M60.11,12.31c-.96,0-1.75.78-1.75,1.74s.78,1.75,1.75,1.75,1.74-.78,1.74-1.75-.78-1.74-1.74-1.74ZM60.11,48.21c-.96,0-1.75.78-1.75,1.74s.78,1.75,1.75,1.75,1.74-.78,1.74-1.75-.78-1.74-1.74-1.74ZM48.48,25.19c4.24.08,5.34.55,5.34,1.99s-1.11,1.91-5.34,1.99v-3.98ZM56.5,35.7c0,2.47-2.05,3.05-8.02,3.13v-6.26c5.97.08,8.02.66,8.02,3.13ZM46.81,21.79c-.36,0-.69.12-.96.3-.45.3-.75.82-.75,1.41v17.01c0,.47.2.9.51,1.21.3.31.73.5,1.2.5,6.12,0,13.07,0,13.07-6.52,0-2.98-1.45-4.59-3.61-5.47.59-.75.93-1.74.93-3.05,0-5.38-5.76-5.38-10.39-5.38ZM38.02,26.75c-.93,0-1.69.76-1.69,1.69v1.88h-1.88c-.93,0-1.69.76-1.69,1.69s.76,1.69,1.69,1.69h1.88v1.88c0,.93.75,1.69,1.69,1.69s1.69-.75,1.69-1.69v-1.88h1.88c.93,0,1.69-.76,1.69-1.69s-.76-1.69-1.69-1.69h-1.88v-1.88c0-.93-.76-1.69-1.69-1.69ZM14.22,12.31c-.96,0-1.74.78-1.74,1.74s.78,1.75,1.74,1.75,1.75-.78,1.75-1.75-.78-1.74-1.75-1.74ZM14.22,51.7c.96,0,1.75-.78,1.75-1.75s-.78-1.74-1.75-1.74-1.74.78-1.74,1.74.78,1.75,1.74,1.75ZM59.81,5.41H14.53c-5.03,0-9.12,4.09-9.12,9.12,0,.94.76,1.69,1.69,1.69s1.69-.75,1.69-1.69c0-3.17,2.58-5.74,5.74-5.74h45.28c3.17,0,5.74,2.58,5.74,5.74v34.96c0,3.17-2.58,5.74-5.74,5.74H14.53c-3.17,0-5.74-2.58-5.74-5.74v-23.34c0-.93-.76-1.69-1.69-1.69s-1.69.76-1.69,1.69v23.34c0,5.03,4.09,9.12,9.12,9.12h45.28c5.03,0,9.12-4.09,9.12-9.12V14.53c0-5.03-4.09-9.12-9.12-9.12ZM21.53,32.82l2.42-4.87,2.42,4.87h-4.84ZM23.95,22.46c-.64,0-1.22.36-1.51.94l-7.81,15.71c-.41.83-.07,1.85.76,2.26.24.12.5.18.75.18.62,0,1.22-.35,1.51-.94l2.19-4.41h8.2l2.19,4.41c.42.84,1.43,1.18,2.27.76.84-.42,1.18-1.43.76-2.26l-7.8-15.71c-.28-.58-.87-.94-1.51-.94Z"/>
        <path class="cls-8" d="M59.49,11.69c-.96,0-1.75.78-1.75,1.74s.78,1.75,1.75,1.75,1.74-.78,1.74-1.75-.78-1.74-1.74-1.74ZM59.49,47.58c-.96,0-1.75.78-1.75,1.74s.78,1.75,1.75,1.75,1.74-.78,1.74-1.75-.78-1.74-1.74-1.74ZM47.85,24.56c4.24.08,5.34.55,5.34,1.99s-1.11,1.91-5.34,1.99v-3.98ZM55.87,35.08c0,2.47-2.05,3.05-8.02,3.13v-6.26c5.97.08,8.02.66,8.02,3.13ZM46.19,21.17c-.36,0-.69.12-.96.3-.45.31-.75.82-.75,1.41v17.01c0,.47.2.9.51,1.21.31.31.73.5,1.2.5,6.12,0,13.07,0,13.07-6.52,0-2.98-1.45-4.59-3.61-5.47.59-.75.93-1.74.93-3.05,0-5.38-5.76-5.38-10.39-5.38ZM37.4,26.12c-.93,0-1.69.76-1.69,1.69v1.88h-1.88c-.93,0-1.69.76-1.69,1.69s.76,1.69,1.69,1.69h1.88v1.88c0,.93.75,1.69,1.69,1.69s1.69-.75,1.69-1.69v-1.88h1.88c.93,0,1.69-.76,1.69-1.69s-.76-1.69-1.69-1.69h-1.88v-1.88c0-.93-.76-1.69-1.69-1.69ZM13.6,11.69c-.96,0-1.74.78-1.74,1.74s.78,1.75,1.74,1.75,1.75-.78,1.75-1.75-.78-1.74-1.75-1.74ZM13.6,51.07c.96,0,1.75-.78,1.75-1.75s-.78-1.74-1.75-1.74-1.74.78-1.74,1.74.78,1.75,1.74,1.75ZM59.18,4.78H13.9c-5.03,0-9.12,4.09-9.12,9.12,0,.94.76,1.69,1.69,1.69s1.69-.75,1.69-1.69c0-3.17,2.58-5.74,5.74-5.74h45.28c3.17,0,5.74,2.58,5.74,5.74v34.96c0,3.17-2.58,5.74-5.74,5.74H13.9c-3.17,0-5.74-2.58-5.74-5.74v-23.34c0-.93-.76-1.69-1.69-1.69s-1.69.76-1.69,1.69v23.34c0,5.03,4.09,9.12,9.12,9.12h45.28c5.03,0,9.12-4.09,9.12-9.12V13.9c0-5.03-4.09-9.12-9.12-9.12ZM20.91,32.2l2.42-4.87,2.42,4.87h-4.84ZM23.33,21.84c-.64,0-1.22.36-1.51.94l-7.81,15.71c-.41.83-.07,1.84.76,2.26.24.12.5.18.75.18.62,0,1.22-.35,1.51-.94l2.19-4.41h8.2l2.19,4.41c.42.84,1.43,1.18,2.27.76.84-.42,1.18-1.43.76-2.26l-7.8-15.71c-.28-.58-.87-.94-1.51-.94Z"/>
        <path class="cls-1" d="M58.86,11.06c-.96,0-1.75.78-1.75,1.74s.78,1.75,1.75,1.75,1.74-.78,1.74-1.75-.78-1.74-1.74-1.74ZM58.86,46.96c-.96,0-1.75.78-1.75,1.74s.78,1.75,1.75,1.75,1.74-.78,1.74-1.75-.78-1.74-1.74-1.74ZM47.23,23.94c4.24.08,5.34.55,5.34,1.99s-1.11,1.91-5.34,1.99v-3.98ZM55.25,34.45c0,2.47-2.05,3.05-8.02,3.13v-6.26c5.97.08,8.02.66,8.02,3.13ZM45.56,20.54c-.36,0-.69.12-.96.3-.45.31-.75.82-.75,1.41v17.01c0,.47.2.9.51,1.21.31.31.73.5,1.2.5,6.12,0,13.07,0,13.07-6.52,0-2.98-1.45-4.59-3.61-5.47.59-.75.93-1.74.93-3.05,0-5.38-5.76-5.38-10.39-5.38ZM36.77,25.5c-.93,0-1.69.76-1.69,1.69v1.88h-1.88c-.93,0-1.69.76-1.69,1.69s.76,1.69,1.69,1.69h1.88v1.88c0,.93.75,1.69,1.69,1.69s1.69-.75,1.69-1.69v-1.88h1.88c.93,0,1.69-.76,1.69-1.69s-.76-1.69-1.69-1.69h-1.88v-1.88c0-.93-.76-1.69-1.69-1.69ZM12.97,11.06c-.96,0-1.74.78-1.74,1.74s.78,1.75,1.74,1.75,1.75-.78,1.75-1.75-.78-1.74-1.75-1.74ZM12.97,50.45c.96,0,1.75-.78,1.75-1.75s-.78-1.74-1.75-1.74-1.74.78-1.74,1.74.78,1.75,1.74,1.75ZM58.56,4.16H13.28c-5.03,0-9.12,4.09-9.12,9.12,0,.94.76,1.69,1.69,1.69s1.69-.75,1.69-1.69c0-3.17,2.58-5.74,5.74-5.74h45.28c3.17,0,5.74,2.58,5.74,5.74v34.96c0,3.17-2.58,5.74-5.74,5.74H13.28c-3.17,0-5.74-2.58-5.74-5.74v-23.34c0-.93-.76-1.69-1.69-1.69s-1.69.76-1.69,1.69v23.34c0,5.03,4.09,9.12,9.12,9.12h45.28c5.03,0,9.12-4.09,9.12-9.12V13.28c0-5.03-4.09-9.12-9.12-9.12ZM20.28,31.57l2.42-4.87,2.42,4.87h-4.84ZM22.7,21.21c-.64,0-1.22.36-1.51.94l-7.81,15.71c-.41.83-.07,1.84.76,2.26.24.12.5.18.75.18.62,0,1.22-.35,1.51-.94l2.19-4.41h8.2l2.19,4.41c.42.84,1.43,1.18,2.27.76.84-.42,1.18-1.43.76-2.26l-7.8-15.71c-.28-.58-.87-.94-1.51-.94Z"/>
        <path class="cls-3" d="M58.24,10.44c-.96,0-1.75.78-1.75,1.74s.78,1.75,1.75,1.75,1.74-.78,1.74-1.75-.78-1.74-1.74-1.74ZM58.24,46.33c-.96,0-1.75.78-1.75,1.74s.78,1.75,1.75,1.75,1.74-.78,1.74-1.75-.78-1.74-1.74-1.74ZM46.6,23.31c4.24.08,5.34.55,5.34,1.99s-1.11,1.91-5.34,1.99v-3.98ZM54.62,33.83c0,2.47-2.05,3.05-8.02,3.13v-6.26c5.97.08,8.02.66,8.02,3.13ZM44.94,19.92c-.36,0-.69.12-.96.3-.45.31-.75.82-.75,1.41v17.01c0,.47.2.9.51,1.21.31.31.73.5,1.2.5,6.12,0,13.07,0,13.07-6.52,0-2.98-1.45-4.59-3.61-5.47.59-.75.93-1.74.93-3.05,0-5.38-5.76-5.38-10.39-5.38ZM36.15,24.88c-.93,0-1.69.76-1.69,1.69v1.88h-1.88c-.93,0-1.69.76-1.69,1.69s.76,1.69,1.69,1.69h1.88v1.88c0,.93.75,1.69,1.69,1.69s1.69-.75,1.69-1.69v-1.88h1.88c.93,0,1.69-.76,1.69-1.69s-.76-1.69-1.69-1.69h-1.88v-1.88c0-.93-.76-1.69-1.69-1.69ZM12.35,10.44c-.96,0-1.74.78-1.74,1.74s.78,1.75,1.74,1.75,1.75-.78,1.75-1.75-.78-1.74-1.75-1.74ZM12.35,49.82c.96,0,1.75-.78,1.75-1.75s-.78-1.74-1.75-1.74-1.74.78-1.74,1.74.78,1.75,1.74,1.75ZM57.93,3.53H12.65C7.62,3.53,3.53,7.62,3.53,12.65c0,.94.76,1.69,1.69,1.69s1.69-.75,1.69-1.69c0-3.17,2.58-5.74,5.74-5.74h45.28c3.17,0,5.74,2.58,5.74,5.74v34.96c0,3.17-2.58,5.74-5.74,5.74H12.65c-3.17,0-5.74-2.58-5.74-5.74v-23.34c0-.93-.76-1.69-1.69-1.69s-1.69.76-1.69,1.69v23.34c0,5.03,4.09,9.12,9.12,9.12h45.28c5.03,0,9.12-4.09,9.12-9.12V12.65c0-5.03-4.09-9.12-9.12-9.12ZM19.66,30.95l2.42-4.87,2.42,4.87h-4.84ZM22.08,20.59c-.64,0-1.22.36-1.51.94l-7.81,15.71c-.41.83-.07,1.84.76,2.26.24.12.5.18.75.18.62,0,1.22-.35,1.51-.94l2.19-4.41h8.2l2.19,4.41c.42.84,1.43,1.18,2.27.76.84-.42,1.18-1.43.76-2.26l-7.8-15.71c-.28-.58-.87-.94-1.51-.94Z"/>
        <path class="cls-9" d="M57.61,9.81c-.96,0-1.75.78-1.75,1.74s.78,1.75,1.75,1.75,1.74-.78,1.74-1.75-.78-1.74-1.74-1.74ZM57.61,45.71c-.96,0-1.75.78-1.75,1.74s.78,1.75,1.75,1.75,1.74-.78,1.74-1.75-.78-1.74-1.74-1.74ZM45.98,22.69c4.24.08,5.34.55,5.34,1.99s-1.11,1.91-5.34,1.99v-3.98ZM54,33.2c0,2.47-2.05,3.05-8.02,3.13v-6.26c5.97.08,8.02.66,8.02,3.13ZM44.31,19.29c-.36,0-.69.12-.96.3-.45.31-.75.82-.75,1.41v17.01c0,.47.2.9.51,1.21.31.31.73.5,1.2.5,6.12,0,13.07,0,13.07-6.52,0-2.98-1.45-4.59-3.61-5.47.59-.75.93-1.74.93-3.05,0-5.38-5.76-5.38-10.39-5.38ZM35.52,24.25c-.93,0-1.69.76-1.69,1.69v1.88h-1.88c-.93,0-1.69.76-1.69,1.69s.76,1.69,1.69,1.69h1.88v1.88c0,.93.75,1.69,1.69,1.69s1.69-.75,1.69-1.69v-1.88h1.88c.93,0,1.69-.76,1.69-1.69s-.76-1.69-1.69-1.69h-1.88v-1.88c0-.93-.76-1.69-1.69-1.69ZM11.72,9.81c-.96,0-1.74.78-1.74,1.74s.78,1.75,1.74,1.75,1.75-.78,1.75-1.75-.78-1.74-1.75-1.74ZM11.72,49.2c.96,0,1.75-.78,1.75-1.75s-.78-1.74-1.75-1.74-1.74.78-1.74,1.74.78,1.75,1.74,1.75ZM57.31,2.91H12.03C7,2.91,2.91,7,2.91,12.03c0,.94.76,1.69,1.69,1.69s1.69-.75,1.69-1.69c0-3.17,2.58-5.74,5.74-5.74h45.28c3.17,0,5.74,2.58,5.74,5.74v34.96c0,3.17-2.58,5.74-5.74,5.74H12.03c-3.17,0-5.74-2.58-5.74-5.74v-23.34c0-.93-.76-1.69-1.69-1.69s-1.69.76-1.69,1.69v23.34c0,5.03,4.09,9.12,9.12,9.12h45.28c5.03,0,9.12-4.09,9.12-9.12V12.03c0-5.03-4.09-9.12-9.12-9.12ZM19.03,30.32l2.42-4.87,2.42,4.87h-4.84ZM21.45,19.96c-.64,0-1.22.36-1.51.94l-7.81,15.71c-.41.83-.07,1.84.76,2.26.24.12.5.18.75.18.62,0,1.22-.35,1.51-.94l2.19-4.41h8.2l2.19,4.41c.42.84,1.43,1.18,2.27.76.84-.42,1.18-1.43.76-2.26l-7.8-15.71c-.28-.58-.87-.94-1.51-.94Z"/>
        <path class="cls-7" d="M56.99,9.19c-.96,0-1.75.78-1.75,1.74s.78,1.75,1.75,1.75,1.74-.78,1.74-1.75-.78-1.74-1.74-1.74ZM56.99,45.08c-.96,0-1.75.78-1.75,1.74s.78,1.75,1.75,1.75,1.74-.78,1.74-1.75-.78-1.74-1.74-1.74ZM45.35,22.06c4.24.08,5.34.55,5.34,1.99s-1.11,1.91-5.34,1.99v-3.98ZM53.37,32.58c0,2.47-2.05,3.05-8.02,3.13v-6.26c5.97.08,8.02.66,8.02,3.13ZM43.69,18.67c-.36,0-.69.12-.96.3-.45.31-.75.82-.75,1.41v17.01c0,.47.2.9.51,1.21.31.31.73.5,1.2.5,6.12,0,13.07,0,13.07-6.52,0-2.98-1.45-4.59-3.61-5.47.59-.75.93-1.74.93-3.05,0-5.38-5.76-5.38-10.39-5.38ZM34.9,23.62c-.93,0-1.69.76-1.69,1.69v1.88h-1.88c-.93,0-1.69.76-1.69,1.69s.76,1.69,1.69,1.69h1.88v1.88c0,.93.75,1.69,1.69,1.69s1.69-.75,1.69-1.69v-1.88h1.88c.93,0,1.69-.76,1.69-1.69s-.76-1.69-1.69-1.69h-1.88v-1.88c0-.93-.76-1.69-1.69-1.69ZM11.1,9.19c-.96,0-1.74.78-1.74,1.74s.78,1.75,1.74,1.75,1.75-.78,1.75-1.75-.78-1.74-1.75-1.74ZM11.1,48.57c.96,0,1.75-.78,1.75-1.75s-.78-1.74-1.75-1.74-1.74.78-1.74,1.74.78,1.75,1.74,1.75ZM56.68,2.28H11.4C6.37,2.28,2.28,6.37,2.28,11.4c0,.94.76,1.69,1.69,1.69s1.69-.75,1.69-1.69c0-3.17,2.58-5.74,5.74-5.74h45.28c3.17,0,5.74,2.58,5.74,5.74v34.96c0,3.17-2.58,5.74-5.74,5.74H11.4c-3.17,0-5.74-2.58-5.74-5.74v-23.34c0-.93-.76-1.69-1.69-1.69s-1.69.76-1.69,1.69v23.34c0,5.03,4.09,9.12,9.12,9.12h45.28c5.03,0,9.12-4.09,9.12-9.12V11.4c0-5.03-4.09-9.12-9.12-9.12ZM18.41,29.7l2.42-4.87,2.42,4.87h-4.84ZM20.83,19.34c-.64,0-1.22.36-1.51.94l-7.81,15.71c-.41.83-.07,1.84.76,2.26.24.12.5.18.75.18.62,0,1.22-.35,1.51-.94l2.19-4.41h8.2l2.19,4.41c.42.84,1.43,1.18,2.27.76.84-.42,1.18-1.43.76-2.26l-7.8-15.71c-.28-.58-.87-.94-1.51-.94Z"/>
        <path class="cls-4" d="M56.36,8.56c-.96,0-1.75.78-1.75,1.74s.78,1.75,1.75,1.75,1.74-.78,1.74-1.75-.78-1.74-1.74-1.74ZM56.36,44.46c-.96,0-1.75.78-1.75,1.74s.78,1.75,1.75,1.75,1.74-.78,1.74-1.75-.78-1.74-1.74-1.74ZM44.73,21.44c4.24.08,5.34.55,5.34,1.99s-1.11,1.91-5.34,1.99v-3.98ZM52.75,31.95c0,2.47-2.05,3.05-8.02,3.13v-6.26c5.97.08,8.02.66,8.02,3.13ZM43.06,18.04c-.36,0-.69.12-.96.3-.45.31-.75.82-.75,1.41v17.01c0,.47.2.9.51,1.21.31.31.73.5,1.2.5,6.12,0,13.07,0,13.07-6.52,0-2.98-1.45-4.59-3.61-5.47.59-.75.93-1.74.93-3.05,0-5.38-5.76-5.38-10.39-5.38ZM34.27,23c-.93,0-1.69.76-1.69,1.69v1.88h-1.88c-.93,0-1.69.76-1.69,1.69s.76,1.69,1.69,1.69h1.88v1.88c0,.93.75,1.69,1.69,1.69s1.69-.75,1.69-1.69v-1.88h1.88c.93,0,1.69-.76,1.69-1.69s-.76-1.69-1.69-1.69h-1.88v-1.88c0-.93-.76-1.69-1.69-1.69ZM10.47,8.56c-.96,0-1.74.78-1.74,1.74s.78,1.75,1.74,1.75,1.75-.78,1.75-1.75-.78-1.74-1.75-1.74ZM10.47,47.95c.96,0,1.75-.78,1.75-1.75s-.78-1.74-1.75-1.74-1.74.78-1.74,1.74.78,1.75,1.74,1.75ZM56.06,1.66H10.78C5.75,1.66,1.66,5.75,1.66,10.78c0,.94.76,1.69,1.69,1.69s1.69-.75,1.69-1.69c0-3.17,2.58-5.74,5.74-5.74h45.28c3.17,0,5.74,2.58,5.74,5.74v34.96c0,3.17-2.58,5.74-5.74,5.74H10.78c-3.17,0-5.74-2.58-5.74-5.74v-23.34c0-.93-.76-1.69-1.69-1.69s-1.69.76-1.69,1.69v23.34c0,5.03,4.09,9.12,9.12,9.12h45.28c5.03,0,9.12-4.09,9.12-9.12V10.78c0-5.03-4.09-9.12-9.12-9.12ZM17.78,29.07l2.42-4.87,2.42,4.87h-4.84ZM20.2,18.71c-.64,0-1.22.36-1.51.94l-7.81,15.71c-.41.83-.07,1.84.76,2.26.24.12.5.18.75.18.62,0,1.22-.35,1.51-.94l2.19-4.41h8.2l2.19,4.41c.42.84,1.43,1.18,2.27.76.84-.42,1.18-1.43.76-2.26l-7.8-15.71c-.28-.58-.87-.94-1.51-.94Z"/>
        <path class="cls-6" d="M55.74,7.94c-.96,0-1.75.78-1.75,1.74s.78,1.75,1.75,1.75,1.74-.78,1.74-1.75-.78-1.74-1.74-1.74ZM55.74,43.83c-.96,0-1.75.78-1.75,1.74s.78,1.75,1.75,1.75,1.74-.78,1.74-1.75-.78-1.74-1.74-1.74ZM44.1,20.81c4.24.08,5.34.55,5.34,1.99s-1.11,1.91-5.34,1.99v-3.98ZM52.12,31.33c0,2.47-2.05,3.05-8.02,3.13v-6.26c5.97.08,8.02.66,8.02,3.13ZM42.44,17.42c-.36,0-.69.12-.96.3-.45.31-.75.82-.75,1.41v17.01c0,.47.2.9.51,1.21.31.31.73.5,1.2.5,6.12,0,13.07,0,13.07-6.52,0-2.98-1.45-4.59-3.61-5.47.59-.75.93-1.74.93-3.05,0-5.38-5.76-5.38-10.39-5.38ZM33.65,22.38c-.93,0-1.69.76-1.69,1.69v1.88h-1.88c-.93,0-1.69.76-1.69,1.69s.76,1.69,1.69,1.69h1.88v1.88c0,.93.75,1.69,1.69,1.69s1.69-.75,1.69-1.69v-1.88h1.88c.93,0,1.69-.76,1.69-1.69s-.76-1.69-1.69-1.69h-1.88v-1.88c0-.93-.76-1.69-1.69-1.69ZM9.85,7.94c-.96,0-1.74.78-1.74,1.74s.78,1.75,1.74,1.75,1.75-.78,1.75-1.75-.78-1.74-1.75-1.74ZM9.85,47.32c.96,0,1.75-.78,1.75-1.75s-.78-1.74-1.75-1.74-1.74.78-1.74,1.74.78,1.75,1.74,1.75ZM55.43,1.03H10.15C5.12,1.03,1.03,5.12,1.03,10.15c0,.94.76,1.69,1.69,1.69s1.69-.75,1.69-1.69c0-3.17,2.58-5.74,5.74-5.74h45.28c3.17,0,5.74,2.58,5.74,5.74v34.96c0,3.17-2.58,5.74-5.74,5.74H10.15c-3.17,0-5.74-2.58-5.74-5.74v-23.34c0-.93-.76-1.69-1.69-1.69s-1.69.76-1.69,1.69v23.34c0,5.03,4.09,9.12,9.12,9.12h45.28c5.03,0,9.12-4.09,9.12-9.12V10.15c0-5.03-4.09-9.12-9.12-9.12ZM17.16,28.45l2.42-4.87,2.42,4.87h-4.84ZM19.58,18.09c-.64,0-1.22.36-1.51.94l-7.81,15.71c-.41.83-.07,1.84.76,2.26.24.12.5.18.75.18.62,0,1.22-.35,1.51-.94l2.19-4.41h8.2l2.19,4.41c.42.84,1.43,1.18,2.27.76.84-.42,1.18-1.43.76-2.26l-7.8-15.71c-.28-.58-.87-.94-1.51-.94Z"/>
        <path class="cls-5" d="M55.11,7.31c-.96,0-1.75.78-1.75,1.74s.78,1.75,1.75,1.75,1.74-.78,1.74-1.75-.78-1.74-1.74-1.74ZM55.11,43.21c-.96,0-1.75.78-1.75,1.74s.78,1.75,1.75,1.75,1.74-.78,1.74-1.75-.78-1.74-1.74-1.74ZM43.48,20.19c4.24.08,5.34.55,5.34,1.99s-1.11,1.91-5.34,1.99v-3.98ZM51.5,30.7c0,2.47-2.05,3.05-8.02,3.13v-6.26c5.97.08,8.02.66,8.02,3.13ZM41.81,16.79c-.36,0-.69.12-.96.3-.45.3-.75.82-.75,1.41v17.01c0,.47.2.9.51,1.21.3.31.73.5,1.2.5,6.12,0,13.07,0,13.07-6.52,0-2.98-1.45-4.59-3.61-5.47.59-.75.93-1.74.93-3.05,0-5.38-5.76-5.38-10.39-5.38ZM33.02,21.75c-.93,0-1.69.76-1.69,1.69v1.88h-1.88c-.93,0-1.69.76-1.69,1.69s.76,1.69,1.69,1.69h1.88v1.88c0,.93.75,1.69,1.69,1.69s1.69-.75,1.69-1.69v-1.88h1.88c.93,0,1.69-.76,1.69-1.69s-.76-1.69-1.69-1.69h-1.88v-1.88c0-.93-.76-1.69-1.69-1.69ZM9.22,7.31c-.96,0-1.74.78-1.74,1.74s.78,1.75,1.74,1.75,1.75-.78,1.75-1.75-.78-1.74-1.75-1.74ZM9.22,46.7c.96,0,1.75-.78,1.75-1.75s-.78-1.74-1.75-1.74-1.74.78-1.74,1.74.78,1.75,1.74,1.75ZM54.81.41H9.53C4.5.41.41,4.5.41,9.53c0,.94.76,1.69,1.69,1.69s1.69-.75,1.69-1.69c0-3.17,2.58-5.74,5.74-5.74h45.28c3.17,0,5.74,2.58,5.74,5.74v34.96c0,3.17-2.58,5.74-5.74,5.74H9.53c-3.17,0-5.74-2.58-5.74-5.74v-23.34c0-.93-.76-1.69-1.69-1.69s-1.69.76-1.69,1.69v23.34c0,5.03,4.09,9.12,9.12,9.12h45.28c5.03,0,9.12-4.09,9.12-9.12V9.53c0-5.03-4.09-9.12-9.12-9.12ZM16.53,27.82l2.42-4.87,2.42,4.87h-4.84ZM18.95,17.46c-.64,0-1.22.36-1.51.94l-7.81,15.71c-.41.83-.07,1.85.76,2.26.24.12.5.18.75.18.62,0,1.22-.35,1.51-.94l2.19-4.41h8.2l2.19,4.41c.42.84,1.43,1.18,2.27.76.84-.42,1.18-1.43.76-2.26l-7.8-15.71c-.28-.58-.87-.94-1.51-.94Z"/>
      </g>
      <path class="cls-2" d="M8.82,6.9c-.96,0-1.74.78-1.74,1.75s.78,1.75,1.74,1.75,1.75-.78,1.75-1.75-.78-1.75-1.75-1.75ZM8.82,46.29c.96,0,1.75-.78,1.75-1.75s-.78-1.75-1.75-1.75-1.74.78-1.74,1.75.78,1.75,1.74,1.75ZM54.7,42.8c-.96,0-1.75.78-1.75,1.75s.78,1.75,1.75,1.75,1.74-.78,1.74-1.75-.78-1.75-1.74-1.75ZM54.7,6.9c-.96,0-1.75.78-1.75,1.75s.78,1.75,1.75,1.75,1.74-.78,1.74-1.75-.78-1.75-1.74-1.75ZM54.4,0H9.12C4.09,0,0,4.09,0,9.12c0,.94.76,1.69,1.69,1.69s1.69-.75,1.69-1.69c0-3.17,2.58-5.74,5.74-5.74h45.28c3.17,0,5.74,2.58,5.74,5.74v34.96c0,3.17-2.58,5.75-5.74,5.75H9.12c-3.17,0-5.74-2.58-5.74-5.75v-23.34c0-.93-.76-1.69-1.69-1.69s-1.69.76-1.69,1.69v23.34c0,5.03,4.09,9.12,9.12,9.12h45.28c5.03,0,9.12-4.09,9.12-9.12V9.12c0-5.03-4.09-9.12-9.12-9.12ZM32.62,21.34c-.93,0-1.69.76-1.69,1.69v1.88h-1.88c-.93,0-1.69.76-1.69,1.69s.76,1.69,1.69,1.69h1.88v1.88c0,.93.75,1.69,1.69,1.69s1.69-.75,1.69-1.69v-1.88h1.87c.93,0,1.69-.76,1.69-1.69s-.76-1.69-1.69-1.69h-1.87v-1.88c0-.93-.76-1.69-1.69-1.69ZM41.4,16.38c-.36,0-.69.12-.96.3-.45.3-.75.82-.75,1.41v17.01c0,.47.2.9.51,1.21.3.31.73.5,1.2.5,6.12,0,13.07,0,13.07-6.52,0-2.98-1.45-4.59-3.61-5.47.59-.75.93-1.74.93-3.05,0-5.38-5.76-5.38-10.39-5.38ZM43.07,19.78c4.24.08,5.34.55,5.34,1.99s-1.11,1.91-5.34,1.99v-3.98ZM51.09,30.29c0,2.47-2.05,3.05-8.02,3.13v-6.26c5.97.08,8.02.66,8.02,3.13ZM18.54,17.06c-.64,0-1.22.36-1.51.94l-7.81,15.71c-.41.83-.07,1.85.76,2.26.24.12.5.18.75.18.62,0,1.22-.35,1.51-.94l2.19-4.41h8.2l2.19,4.41c.42.84,1.43,1.18,2.27.76.84-.42,1.18-1.43.76-2.26l-7.8-15.71c-.28-.58-.87-.94-1.51-.94ZM16.12,27.42l2.42-4.87,2.42,4.87h-4.84Z"/>
    </g>
  </g>
</svg>