<?xml version="1.0" encoding="UTF-8"?>
<svg id="Layer_2" data-name="Layer 2" xmlns="http://www.w3.org/2000/svg" viewBox="0 0 27.36 27.36">
  <defs>
    <style>
      .cls-1 {
        fill-rule: evenodd;
      }
    </style>
  </defs>
  <g id="_1" data-name="1">
    <path class="cls-1" d="M23.93,0H3.42L0,17.1h27.36L23.93,0ZM14.36,10.62c0-.34-.08-.62-.25-.84-.16-.23-.44-.43-.84-.62-.62-.24-1.09-.54-1.41-.87-.32-.35-.47-.83-.47-1.43s.16-1.05.46-1.42c.3-.36.7-.58,1.23-.65v-1.11h.69v1.13c.51.08.91.33,1.2.75.29.41.44.97.44,1.66h-1.08c0-.47-.08-.86-.25-1.15-.18-.3-.42-.44-.71-.44-.3,0-.54.11-.69.34-.16.23-.24.51-.24.88,0,.35.08.62.24.83.16.21.45.41.87.62.64.26,1.1.55,1.41.9.3.34.45.81.45,1.41s-.15,1.05-.47,1.41c-.3.36-.73.57-1.27.63v1.02h-.69v-1.02c-.54-.05-.98-.27-1.33-.66-.34-.39-.52-.96-.52-1.7h1.06c0,.55.11.95.32,1.18.22.25.48.36.78.36.34,0,.6-.11.78-.33.18-.24.27-.53.27-.89h0ZM22.23,15.39H5.13c0-1.54-1.01-2.81-2.4-3.24l1.43-7.18c.3.1.62.17.97.17,1.88,0,3.41-1.54,3.41-3.43h10.26c0,1.89,1.53,3.43,3.42,3.43.34,0,.65-.07.96-.17l1.43,7.18c-1.38.43-2.39,1.7-2.39,3.24h0ZM0,18.8h27.36v1.71H0v-1.71ZM0,22.23h27.36v1.7H0v-1.7ZM0,25.64h27.36v1.71H0v-1.71Z"/>
  </g>
</svg>