<?xml version="1.0" encoding="UTF-8"?>
<svg id="Layer_2" data-name="Layer 2" xmlns="http://www.w3.org/2000/svg" xmlns:xlink="http://www.w3.org/1999/xlink" viewBox="0 0 68.93 60.63">
  <defs>
    <style>
      .cls-1 {
        opacity: .14;
      }

      .cls-2 {
        fill: url(#linear-gradient-2);
      }

      .cls-3 {
        opacity: .21;
      }

      .cls-4 {
        opacity: .42;
      }

      .cls-5 {
        opacity: .55;
      }

      .cls-6 {
        opacity: .48;
      }

      .cls-7 {
        opacity: .35;
      }

      .cls-8 {
        opacity: .08;
      }

      .cls-9 {
        opacity: .28;
      }

      .cls-10 {
        opacity: 0;
      }

      .cls-11 {
        fill: url(#linear-gradient);
      }
    </style>
    <linearGradient id="linear-gradient" x1="3.76" y1="-.19" x2="58.72" y2="54.76" gradientUnits="userSpaceOnUse">
      <stop offset="0" stop-color="#e3bc61"/>
      <stop offset="1" stop-color="#fff7db"/>
    </linearGradient>
    <linearGradient id="linear-gradient-2" x1="4.75" y1=".6" x2="58.77" y2="54.63" gradientUnits="userSpaceOnUse">
      <stop offset="0" stop-color="#2c2e2c"/>
      <stop offset=".99" stop-color="#000"/>
    </linearGradient>
  </defs>
  <g id="Layer_1-2" data-name="Layer 1">
    <g>
      <rect class="cls-11" x="1.57" y="1.64" width="59.93" height="51.89" rx="7.1" ry="7.1"/>
      <g>
        <path class="cls-10" d="M54.26,17.91h3.95c.93,0,1.69-.75,1.69-1.69s-.76-1.69-1.69-1.69h-3.95c-2.07,0-3.75,1.76-3.75,3.93s1.68,3.93,3.75,3.93h2.51c.17,0,.37.24.37.55s-.2.55-.37.55h-3.96c-.93,0-1.69.76-1.69,1.69s.76,1.69,1.69,1.69h3.96c2.07,0,3.75-1.76,3.75-3.93s-1.69-3.93-3.75-3.93h-2.51c-.18,0-.37-.24-.37-.55s.2-.55.37-.55ZM40.15,26.9c.75,0,1.4-.49,1.62-1.2l1.1-3.65,1.1,3.65c.21.71.87,1.2,1.62,1.2h0c.75,0,1.41-.49,1.62-1.2l2.71-9.02c.27-.89-.24-1.84-1.13-2.1-.89-.27-1.83.24-2.1,1.13l-1.1,3.64-1.09-3.64c-.21-.71-.87-1.2-1.62-1.2s-1.4.49-1.62,1.2l-1.1,3.64-1.1-3.64c-.27-.9-1.21-1.4-2.1-1.13-.89.27-1.4,1.21-1.13,2.11l2.71,9.02c.21.71.87,1.2,1.62,1.2ZM33.13,17.91c.94,0,1.69-.75,1.69-1.69s-.76-1.69-1.69-1.69h-5.48c-.93,0-1.69.76-1.69,1.69v8.97c0,.93.76,1.69,1.69,1.69h5.48c.94,0,1.69-.76,1.69-1.69s-.76-1.69-1.69-1.69h-3.79v-1.1h2.43c.93,0,1.69-.75,1.69-1.69s-.76-1.69-1.69-1.69h-2.43v-1.1h3.79ZM14.98,35.17c0,.93.76,1.69,1.69,1.69h41c.93,0,1.69-.76,1.69-1.69s-.76-1.69-1.69-1.69H16.67c-.93,0-1.69.76-1.69,1.69ZM57.67,40.69H16.67c-.93,0-1.69.75-1.69,1.69s.76,1.69,1.69,1.69h41c.93,0,1.69-.76,1.69-1.69s-.76-1.69-1.69-1.69ZM59.81,5.41H14.53c-5.03,0-9.12,4.09-9.12,9.12,0,.93.76,1.69,1.69,1.69s1.69-.75,1.69-1.69c0-3.17,2.58-5.74,5.74-5.74h45.28c3.17,0,5.75,2.58,5.75,5.74v36.98c0,3.17-2.58,5.74-5.75,5.74H14.53c-3.17,0-5.74-2.58-5.74-5.74v-25.36c0-.94-.76-1.69-1.69-1.69s-1.69.75-1.69,1.69v25.36c0,5.03,4.09,9.12,9.12,9.12h45.28c5.03,0,9.12-4.09,9.12-9.12V14.53c0-5.03-4.09-9.12-9.12-9.12ZM22.74,14.53c-.93,0-1.69.76-1.69,1.69v4.19l-4.24-5.25c-.45-.56-1.21-.77-1.88-.53-.68.24-1.13.88-1.13,1.59v8.97c0,.93.76,1.69,1.69,1.69s1.69-.76,1.69-1.69v-4.18l4.24,5.25c.33.4.81.63,1.32.63.19,0,.38-.03.56-.1.67-.24,1.12-.88,1.12-1.59v-8.97c0-.93-.76-1.69-1.69-1.69ZM57.67,47.9H16.67c-.93,0-1.69.76-1.69,1.69s.76,1.69,1.69,1.69h41c.93,0,1.69-.75,1.69-1.69s-.76-1.69-1.69-1.69Z"/>
        <path class="cls-8" d="M53.64,17.28h3.95c.93,0,1.69-.75,1.69-1.69s-.76-1.69-1.69-1.69h-3.95c-2.07,0-3.75,1.76-3.75,3.93s1.68,3.93,3.75,3.93h2.51c.17,0,.37.24.37.55s-.2.55-.37.55h-3.96c-.93,0-1.69.76-1.69,1.69s.76,1.69,1.69,1.69h3.96c2.07,0,3.75-1.76,3.75-3.93s-1.69-3.93-3.75-3.93h-2.51c-.18,0-.37-.24-.37-.55s.2-.55.37-.55ZM39.53,26.28c.75,0,1.4-.49,1.62-1.2l1.1-3.65,1.1,3.65c.21.71.87,1.2,1.62,1.2h0c.75,0,1.41-.49,1.62-1.2l2.71-9.02c.27-.89-.24-1.84-1.13-2.1-.89-.27-1.83.24-2.1,1.13l-1.1,3.64-1.09-3.64c-.21-.71-.87-1.2-1.62-1.2s-1.4.49-1.62,1.2l-1.1,3.64-1.1-3.64c-.27-.9-1.21-1.4-2.1-1.13-.89.27-1.4,1.21-1.13,2.11l2.71,9.02c.21.71.87,1.2,1.62,1.2ZM32.51,17.28c.94,0,1.69-.75,1.69-1.69s-.76-1.69-1.69-1.69h-5.48c-.93,0-1.69.76-1.69,1.69v8.97c0,.93.76,1.69,1.69,1.69h5.48c.94,0,1.69-.76,1.69-1.69s-.76-1.69-1.69-1.69h-3.79v-1.1h2.43c.93,0,1.69-.75,1.69-1.69s-.76-1.69-1.69-1.69h-2.43v-1.1h3.79ZM14.36,34.55c0,.93.76,1.69,1.69,1.69h41c.93,0,1.69-.76,1.69-1.69s-.76-1.69-1.69-1.69H16.05c-.93,0-1.69.76-1.69,1.69ZM57.04,40.07H16.05c-.93,0-1.69.75-1.69,1.69s.76,1.69,1.69,1.69h41c.93,0,1.69-.76,1.69-1.69s-.76-1.69-1.69-1.69ZM59.18,4.78H13.9c-5.03,0-9.12,4.09-9.12,9.12,0,.93.76,1.69,1.69,1.69s1.69-.75,1.69-1.69c0-3.17,2.58-5.74,5.74-5.74h45.28c3.17,0,5.75,2.58,5.75,5.74v36.98c0,3.17-2.58,5.74-5.75,5.74H13.9c-3.17,0-5.74-2.58-5.74-5.74v-25.36c0-.94-.76-1.69-1.69-1.69s-1.69.75-1.69,1.69v25.36c0,5.03,4.09,9.12,9.12,9.12h45.28c5.03,0,9.12-4.09,9.12-9.12V13.9c0-5.03-4.09-9.12-9.12-9.12ZM22.12,13.91c-.93,0-1.69.76-1.69,1.69v4.19l-4.24-5.25c-.45-.56-1.21-.77-1.88-.53-.68.24-1.13.88-1.13,1.59v8.97c0,.93.76,1.69,1.69,1.69s1.69-.76,1.69-1.69v-4.18l4.24,5.25c.33.4.81.63,1.32.63.19,0,.38-.03.56-.1.67-.24,1.12-.88,1.12-1.59v-8.97c0-.93-.76-1.69-1.69-1.69ZM57.04,47.27H16.05c-.93,0-1.69.76-1.69,1.69s.76,1.69,1.69,1.69h41c.93,0,1.69-.75,1.69-1.69s-.76-1.69-1.69-1.69Z"/>
        <path class="cls-1" d="M53.01,16.66h3.95c.93,0,1.69-.75,1.69-1.69s-.76-1.69-1.69-1.69h-3.95c-2.07,0-3.75,1.76-3.75,3.93s1.68,3.93,3.75,3.93h2.51c.17,0,.37.24.37.55s-.2.55-.37.55h-3.96c-.93,0-1.69.76-1.69,1.69s.76,1.69,1.69,1.69h3.96c2.07,0,3.75-1.76,3.75-3.93s-1.69-3.93-3.75-3.93h-2.51c-.18,0-.37-.24-.37-.55s.2-.55.37-.55ZM38.9,25.65c.75,0,1.4-.49,1.62-1.2l1.1-3.65,1.1,3.65c.21.71.87,1.2,1.62,1.2h0c.75,0,1.41-.49,1.62-1.2l2.71-9.02c.27-.89-.24-1.84-1.13-2.1-.89-.27-1.83.24-2.1,1.13l-1.1,3.64-1.09-3.64c-.21-.71-.87-1.2-1.62-1.2s-1.4.49-1.62,1.2l-1.1,3.64-1.1-3.64c-.27-.9-1.21-1.4-2.1-1.13-.89.27-1.4,1.21-1.13,2.11l2.71,9.02c.21.71.87,1.2,1.62,1.2ZM31.88,16.66c.94,0,1.69-.75,1.69-1.69s-.76-1.69-1.69-1.69h-5.48c-.93,0-1.69.76-1.69,1.69v8.97c0,.93.76,1.69,1.69,1.69h5.48c.94,0,1.69-.76,1.69-1.69s-.76-1.69-1.69-1.69h-3.79v-1.1h2.43c.93,0,1.69-.75,1.69-1.69s-.76-1.69-1.69-1.69h-2.43v-1.1h3.79ZM13.73,33.92c0,.93.76,1.69,1.69,1.69h41c.93,0,1.69-.76,1.69-1.69s-.76-1.69-1.69-1.69H15.42c-.93,0-1.69.76-1.69,1.69ZM56.42,39.44H15.42c-.93,0-1.69.75-1.69,1.69s.76,1.69,1.69,1.69h41c.93,0,1.69-.76,1.69-1.69s-.76-1.69-1.69-1.69ZM58.56,4.16H13.28c-5.03,0-9.12,4.09-9.12,9.12,0,.93.76,1.69,1.69,1.69s1.69-.75,1.69-1.69c0-3.17,2.58-5.74,5.74-5.74h45.28c3.17,0,5.75,2.58,5.75,5.74v36.98c0,3.17-2.58,5.74-5.75,5.74H13.28c-3.17,0-5.74-2.58-5.74-5.74v-25.36c0-.94-.76-1.69-1.69-1.69s-1.69.75-1.69,1.69v25.36c0,5.03,4.09,9.12,9.12,9.12h45.28c5.03,0,9.12-4.09,9.12-9.12V13.28c0-5.03-4.09-9.12-9.12-9.12ZM21.49,13.28c-.93,0-1.69.76-1.69,1.69v4.19l-4.24-5.25c-.45-.56-1.21-.77-1.88-.53-.68.24-1.13.88-1.13,1.59v8.97c0,.93.76,1.69,1.69,1.69s1.69-.76,1.69-1.69v-4.18l4.24,5.25c.33.4.81.63,1.32.63.19,0,.38-.03.56-.1.67-.24,1.12-.88,1.12-1.59v-8.97c0-.93-.76-1.69-1.69-1.69ZM56.42,46.65H15.42c-.93,0-1.69.76-1.69,1.69s.76,1.69,1.69,1.69h41c.93,0,1.69-.75,1.69-1.69s-.76-1.69-1.69-1.69Z"/>
        <path class="cls-3" d="M52.39,16.03h3.95c.93,0,1.69-.75,1.69-1.69s-.76-1.69-1.69-1.69h-3.95c-2.07,0-3.75,1.76-3.75,3.93s1.68,3.93,3.75,3.93h2.51c.17,0,.37.24.37.55s-.2.55-.37.55h-3.96c-.93,0-1.69.76-1.69,1.69s.76,1.69,1.69,1.69h3.96c2.07,0,3.75-1.76,3.75-3.93s-1.69-3.93-3.75-3.93h-2.51c-.18,0-.37-.24-.37-.55s.2-.55.37-.55ZM38.28,25.03c.75,0,1.4-.49,1.62-1.2l1.1-3.65,1.1,3.65c.21.71.87,1.2,1.62,1.2h0c.75,0,1.41-.49,1.62-1.2l2.71-9.02c.27-.89-.24-1.84-1.13-2.1-.89-.27-1.83.24-2.1,1.13l-1.1,3.64-1.09-3.64c-.21-.71-.87-1.2-1.62-1.2s-1.4.49-1.62,1.2l-1.1,3.64-1.1-3.64c-.27-.9-1.21-1.4-2.1-1.13-.89.27-1.4,1.21-1.13,2.11l2.71,9.02c.21.71.87,1.2,1.62,1.2ZM31.26,16.03c.94,0,1.69-.75,1.69-1.69s-.76-1.69-1.69-1.69h-5.48c-.93,0-1.69.76-1.69,1.69v8.97c0,.93.76,1.69,1.69,1.69h5.48c.94,0,1.69-.76,1.69-1.69s-.76-1.69-1.69-1.69h-3.79v-1.1h2.43c.93,0,1.69-.75,1.69-1.69s-.76-1.69-1.69-1.69h-2.43v-1.1h3.79ZM13.11,33.3c0,.93.76,1.69,1.69,1.69h41c.93,0,1.69-.76,1.69-1.69s-.76-1.69-1.69-1.69H14.8c-.93,0-1.69.76-1.69,1.69ZM55.79,38.82H14.8c-.93,0-1.69.75-1.69,1.69s.76,1.69,1.69,1.69h41c.93,0,1.69-.76,1.69-1.69s-.76-1.69-1.69-1.69ZM57.93,3.53H12.65C7.62,3.53,3.53,7.62,3.53,12.65c0,.93.76,1.69,1.69,1.69s1.69-.75,1.69-1.69c0-3.17,2.58-5.74,5.74-5.74h45.28c3.17,0,5.75,2.58,5.75,5.74v36.98c0,3.17-2.58,5.74-5.75,5.74H12.65c-3.17,0-5.74-2.58-5.74-5.74v-25.36c0-.94-.76-1.69-1.69-1.69s-1.69.75-1.69,1.69v25.36c0,5.03,4.09,9.12,9.12,9.12h45.28c5.03,0,9.12-4.09,9.12-9.12V12.65c0-5.03-4.09-9.12-9.12-9.12ZM20.87,12.66c-.93,0-1.69.76-1.69,1.69v4.19l-4.24-5.25c-.45-.56-1.21-.77-1.88-.53-.68.24-1.13.88-1.13,1.59v8.97c0,.93.76,1.69,1.69,1.69s1.69-.76,1.69-1.69v-4.18l4.24,5.25c.33.4.81.63,1.32.63.19,0,.38-.03.56-.1.67-.24,1.12-.88,1.12-1.59v-8.97c0-.93-.76-1.69-1.69-1.69ZM55.79,46.02H14.8c-.93,0-1.69.76-1.69,1.69s.76,1.69,1.69,1.69h41c.93,0,1.69-.75,1.69-1.69s-.76-1.69-1.69-1.69Z"/>
        <path class="cls-9" d="M51.76,15.41h3.95c.93,0,1.69-.75,1.69-1.69s-.76-1.69-1.69-1.69h-3.95c-2.07,0-3.75,1.76-3.75,3.93s1.68,3.93,3.75,3.93h2.51c.17,0,.37.24.37.55s-.2.55-.37.55h-3.96c-.93,0-1.69.76-1.69,1.69s.76,1.69,1.69,1.69h3.96c2.07,0,3.75-1.76,3.75-3.93s-1.69-3.93-3.75-3.93h-2.51c-.18,0-.37-.24-.37-.55s.2-.55.37-.55ZM37.65,24.4c.75,0,1.4-.49,1.62-1.2l1.1-3.65,1.1,3.65c.21.71.87,1.2,1.62,1.2h0c.75,0,1.41-.49,1.62-1.2l2.71-9.02c.27-.89-.24-1.84-1.13-2.1-.89-.27-1.83.24-2.1,1.13l-1.1,3.64-1.09-3.64c-.21-.71-.87-1.2-1.62-1.2s-1.4.49-1.62,1.2l-1.1,3.64-1.1-3.64c-.27-.9-1.21-1.4-2.1-1.13-.89.27-1.4,1.21-1.13,2.11l2.71,9.02c.21.71.87,1.2,1.62,1.2ZM30.63,15.41c.94,0,1.69-.75,1.69-1.69s-.76-1.69-1.69-1.69h-5.48c-.93,0-1.69.76-1.69,1.69v8.97c0,.93.76,1.69,1.69,1.69h5.48c.94,0,1.69-.76,1.69-1.69s-.76-1.69-1.69-1.69h-3.79v-1.1h2.43c.93,0,1.69-.75,1.69-1.69s-.76-1.69-1.69-1.69h-2.43v-1.1h3.79ZM12.48,32.67c0,.93.76,1.69,1.69,1.69h41c.93,0,1.69-.76,1.69-1.69s-.76-1.69-1.69-1.69H14.17c-.93,0-1.69.76-1.69,1.69ZM55.17,38.19H14.17c-.93,0-1.69.75-1.69,1.69s.76,1.69,1.69,1.69h41c.93,0,1.69-.76,1.69-1.69s-.76-1.69-1.69-1.69ZM57.31,2.91H12.03C7,2.91,2.91,7,2.91,12.03c0,.93.76,1.69,1.69,1.69s1.69-.75,1.69-1.69c0-3.17,2.58-5.74,5.74-5.74h45.28c3.17,0,5.75,2.58,5.75,5.74v36.98c0,3.17-2.58,5.74-5.75,5.74H12.03c-3.17,0-5.74-2.58-5.74-5.74v-25.36c0-.94-.76-1.69-1.69-1.69s-1.69.75-1.69,1.69v25.36c0,5.03,4.09,9.12,9.12,9.12h45.28c5.03,0,9.12-4.09,9.12-9.12V12.03c0-5.03-4.09-9.12-9.12-9.12ZM20.24,12.03c-.93,0-1.69.76-1.69,1.69v4.19l-4.24-5.25c-.45-.56-1.21-.77-1.88-.53-.68.24-1.13.88-1.13,1.59v8.97c0,.93.76,1.69,1.69,1.69s1.69-.76,1.69-1.69v-4.18l4.24,5.25c.33.4.81.63,1.32.63.19,0,.38-.03.56-.1.67-.24,1.12-.88,1.12-1.59v-8.97c0-.93-.76-1.69-1.69-1.69ZM55.17,45.4H14.17c-.93,0-1.69.76-1.69,1.69s.76,1.69,1.69,1.69h41c.93,0,1.69-.75,1.69-1.69s-.76-1.69-1.69-1.69Z"/>
        <path class="cls-7" d="M51.14,14.78h3.95c.93,0,1.69-.75,1.69-1.69s-.76-1.69-1.69-1.69h-3.95c-2.07,0-3.75,1.76-3.75,3.93s1.68,3.93,3.75,3.93h2.51c.17,0,.37.24.37.55s-.2.55-.37.55h-3.96c-.93,0-1.69.76-1.69,1.69s.76,1.69,1.69,1.69h3.96c2.07,0,3.75-1.76,3.75-3.93s-1.69-3.93-3.75-3.93h-2.51c-.18,0-.37-.24-.37-.55s.2-.55.37-.55ZM37.03,23.78c.75,0,1.4-.49,1.62-1.2l1.1-3.65,1.1,3.65c.21.71.87,1.2,1.62,1.2h0c.75,0,1.41-.49,1.62-1.2l2.71-9.02c.27-.89-.24-1.84-1.13-2.1-.89-.27-1.83.24-2.1,1.13l-1.1,3.64-1.09-3.64c-.21-.71-.87-1.2-1.62-1.2s-1.4.49-1.62,1.2l-1.1,3.64-1.1-3.64c-.27-.9-1.21-1.4-2.1-1.13-.89.27-1.4,1.21-1.13,2.11l2.71,9.02c.21.71.87,1.2,1.62,1.2ZM30.01,14.78c.94,0,1.69-.75,1.69-1.69s-.76-1.69-1.69-1.69h-5.48c-.93,0-1.69.76-1.69,1.69v8.97c0,.93.76,1.69,1.69,1.69h5.48c.94,0,1.69-.76,1.69-1.69s-.76-1.69-1.69-1.69h-3.79v-1.1h2.43c.93,0,1.69-.75,1.69-1.69s-.76-1.69-1.69-1.69h-2.43v-1.1h3.79ZM11.86,32.05c0,.93.76,1.69,1.69,1.69h41c.93,0,1.69-.76,1.69-1.69s-.76-1.69-1.69-1.69H13.55c-.93,0-1.69.76-1.69,1.69ZM54.54,37.57H13.55c-.93,0-1.69.75-1.69,1.69s.76,1.69,1.69,1.69h41c.93,0,1.69-.76,1.69-1.69s-.76-1.69-1.69-1.69ZM56.68,2.28H11.4C6.37,2.28,2.28,6.37,2.28,11.4c0,.93.76,1.69,1.69,1.69s1.69-.75,1.69-1.69c0-3.17,2.58-5.74,5.74-5.74h45.28c3.17,0,5.75,2.58,5.75,5.74v36.98c0,3.17-2.58,5.74-5.75,5.74H11.4c-3.17,0-5.74-2.58-5.74-5.74v-25.36c0-.94-.76-1.69-1.69-1.69s-1.69.75-1.69,1.69v25.36c0,5.03,4.09,9.12,9.12,9.12h45.28c5.03,0,9.12-4.09,9.12-9.12V11.4c0-5.03-4.09-9.12-9.12-9.12ZM19.62,11.41c-.93,0-1.69.76-1.69,1.69v4.19l-4.24-5.25c-.45-.56-1.21-.77-1.88-.53-.68.24-1.13.88-1.13,1.59v8.97c0,.93.76,1.69,1.69,1.69s1.69-.76,1.69-1.69v-4.18l4.24,5.25c.33.4.81.63,1.32.63.19,0,.38-.03.56-.1.67-.24,1.12-.88,1.12-1.59v-8.97c0-.93-.76-1.69-1.69-1.69ZM54.54,44.77H13.55c-.93,0-1.69.76-1.69,1.69s.76,1.69,1.69,1.69h41c.93,0,1.69-.75,1.69-1.69s-.76-1.69-1.69-1.69Z"/>
        <path class="cls-4" d="M50.51,14.16h3.95c.93,0,1.69-.75,1.69-1.69s-.76-1.69-1.69-1.69h-3.95c-2.07,0-3.75,1.76-3.75,3.93s1.68,3.93,3.75,3.93h2.51c.17,0,.37.24.37.55s-.2.55-.37.55h-3.96c-.93,0-1.69.76-1.69,1.69s.76,1.69,1.69,1.69h3.96c2.07,0,3.75-1.76,3.75-3.93s-1.69-3.93-3.75-3.93h-2.51c-.18,0-.37-.24-.37-.55s.2-.55.37-.55ZM36.4,23.15c.75,0,1.4-.49,1.62-1.2l1.1-3.65,1.1,3.65c.21.71.87,1.2,1.62,1.2h0c.75,0,1.41-.49,1.62-1.2l2.71-9.02c.27-.89-.24-1.84-1.13-2.1-.89-.27-1.83.24-2.1,1.13l-1.1,3.64-1.09-3.64c-.21-.71-.87-1.2-1.62-1.2s-1.4.49-1.62,1.2l-1.1,3.64-1.1-3.64c-.27-.9-1.21-1.4-2.1-1.13-.89.27-1.4,1.21-1.13,2.11l2.71,9.02c.21.71.87,1.2,1.62,1.2ZM29.38,14.16c.94,0,1.69-.75,1.69-1.69s-.76-1.69-1.69-1.69h-5.48c-.93,0-1.69.76-1.69,1.69v8.97c0,.93.76,1.69,1.69,1.69h5.48c.94,0,1.69-.76,1.69-1.69s-.76-1.69-1.69-1.69h-3.79v-1.1h2.43c.93,0,1.69-.75,1.69-1.69s-.76-1.69-1.69-1.69h-2.43v-1.1h3.79ZM11.23,31.42c0,.93.76,1.69,1.69,1.69h41c.93,0,1.69-.76,1.69-1.69s-.76-1.69-1.69-1.69H12.92c-.93,0-1.69.76-1.69,1.69ZM53.92,36.94H12.92c-.93,0-1.69.75-1.69,1.69s.76,1.69,1.69,1.69h41c.93,0,1.69-.76,1.69-1.69s-.76-1.69-1.69-1.69ZM56.06,1.66H10.78C5.75,1.66,1.66,5.75,1.66,10.78c0,.93.76,1.69,1.69,1.69s1.69-.75,1.69-1.69c0-3.17,2.58-5.74,5.74-5.74h45.28c3.17,0,5.75,2.58,5.75,5.74v36.98c0,3.17-2.58,5.74-5.75,5.74H10.78c-3.17,0-5.74-2.58-5.74-5.74v-25.36c0-.94-.76-1.69-1.69-1.69s-1.69.75-1.69,1.69v25.36c0,5.03,4.09,9.12,9.12,9.12h45.28c5.03,0,9.12-4.09,9.12-9.12V10.78c0-5.03-4.09-9.12-9.12-9.12ZM18.99,10.78c-.93,0-1.69.76-1.69,1.69v4.19l-4.24-5.25c-.45-.56-1.21-.77-1.88-.53-.68.24-1.13.88-1.13,1.59v8.97c0,.93.76,1.69,1.69,1.69s1.69-.76,1.69-1.69v-4.18l4.24,5.25c.33.4.81.63,1.32.63.19,0,.38-.03.56-.1.67-.24,1.12-.88,1.12-1.59v-8.97c0-.93-.76-1.69-1.69-1.69ZM53.92,44.15H12.92c-.93,0-1.69.76-1.69,1.69s.76,1.69,1.69,1.69h41c.93,0,1.69-.75,1.69-1.69s-.76-1.69-1.69-1.69Z"/>
        <path class="cls-6" d="M49.89,13.53h3.95c.93,0,1.69-.75,1.69-1.69s-.76-1.69-1.69-1.69h-3.95c-2.07,0-3.75,1.76-3.75,3.93s1.68,3.93,3.75,3.93h2.51c.17,0,.37.24.37.55s-.2.55-.37.55h-3.96c-.93,0-1.69.76-1.69,1.69s.76,1.69,1.69,1.69h3.96c2.07,0,3.75-1.76,3.75-3.93s-1.69-3.93-3.75-3.93h-2.51c-.18,0-.37-.24-.37-.55s.2-.55.37-.55ZM35.78,22.53c.75,0,1.4-.49,1.62-1.2l1.1-3.65,1.1,3.65c.21.71.87,1.2,1.62,1.2h0c.75,0,1.41-.49,1.62-1.2l2.71-9.02c.27-.89-.24-1.84-1.13-2.1-.89-.27-1.83.24-2.1,1.13l-1.1,3.64-1.09-3.64c-.21-.71-.87-1.2-1.62-1.2s-1.4.49-1.62,1.2l-1.1,3.64-1.1-3.64c-.27-.9-1.21-1.4-2.1-1.13-.89.27-1.4,1.21-1.13,2.11l2.71,9.02c.21.71.87,1.2,1.62,1.2ZM28.76,13.53c.94,0,1.69-.75,1.69-1.69s-.76-1.69-1.69-1.69h-5.48c-.93,0-1.69.76-1.69,1.69v8.97c0,.93.76,1.69,1.69,1.69h5.48c.94,0,1.69-.76,1.69-1.69s-.76-1.69-1.69-1.69h-3.79v-1.1h2.43c.93,0,1.69-.75,1.69-1.69s-.76-1.69-1.69-1.69h-2.43v-1.1h3.79ZM10.61,30.8c0,.93.76,1.69,1.69,1.69h41c.93,0,1.69-.76,1.69-1.69s-.76-1.69-1.69-1.69H12.3c-.93,0-1.69.76-1.69,1.69ZM53.29,36.32H12.3c-.93,0-1.69.75-1.69,1.69s.76,1.69,1.69,1.69h41c.93,0,1.69-.76,1.69-1.69s-.76-1.69-1.69-1.69ZM55.43,1.03H10.15C5.12,1.03,1.03,5.12,1.03,10.15c0,.93.76,1.69,1.69,1.69s1.69-.75,1.69-1.69c0-3.17,2.58-5.74,5.74-5.74h45.28c3.17,0,5.75,2.58,5.75,5.74v36.98c0,3.17-2.58,5.74-5.75,5.74H10.15c-3.17,0-5.74-2.58-5.74-5.74v-25.36c0-.94-.76-1.69-1.69-1.69s-1.69.75-1.69,1.69v25.36c0,5.03,4.09,9.12,9.12,9.12h45.28c5.03,0,9.12-4.09,9.12-9.12V10.15c0-5.03-4.09-9.12-9.12-9.12ZM18.37,10.16c-.93,0-1.69.76-1.69,1.69v4.19l-4.24-5.25c-.45-.56-1.21-.77-1.88-.53-.68.24-1.13.88-1.13,1.59v8.97c0,.93.76,1.69,1.69,1.69s1.69-.76,1.69-1.69v-4.18l4.24,5.25c.33.4.81.63,1.32.63.19,0,.38-.03.56-.1.67-.24,1.12-.88,1.12-1.59v-8.97c0-.93-.76-1.69-1.69-1.69ZM53.29,43.52H12.3c-.93,0-1.69.76-1.69,1.69s.76,1.69,1.69,1.69h41c.93,0,1.69-.75,1.69-1.69s-.76-1.69-1.69-1.69Z"/>
        <path class="cls-5" d="M49.26,12.91h3.95c.93,0,1.69-.75,1.69-1.69s-.76-1.69-1.69-1.69h-3.95c-2.07,0-3.75,1.76-3.75,3.93s1.68,3.93,3.75,3.93h2.51c.17,0,.37.24.37.55s-.2.55-.37.55h-3.96c-.93,0-1.69.76-1.69,1.69s.76,1.69,1.69,1.69h3.96c2.07,0,3.75-1.76,3.75-3.93s-1.69-3.93-3.75-3.93h-2.51c-.18,0-.37-.24-.37-.55s.2-.55.37-.55ZM35.15,21.9c.75,0,1.4-.49,1.62-1.2l1.1-3.65,1.1,3.65c.21.71.87,1.2,1.62,1.2h0c.75,0,1.41-.49,1.62-1.2l2.71-9.02c.27-.89-.24-1.84-1.13-2.1-.89-.27-1.83.24-2.1,1.13l-1.1,3.64-1.09-3.64c-.21-.71-.87-1.2-1.62-1.2s-1.4.49-1.62,1.2l-1.1,3.64-1.1-3.64c-.27-.9-1.21-1.4-2.1-1.13-.89.27-1.4,1.21-1.13,2.11l2.71,9.02c.21.71.87,1.2,1.62,1.2ZM28.13,12.91c.94,0,1.69-.75,1.69-1.69s-.76-1.69-1.69-1.69h-5.48c-.93,0-1.69.76-1.69,1.69v8.97c0,.93.76,1.69,1.69,1.69h5.48c.94,0,1.69-.76,1.69-1.69s-.76-1.69-1.69-1.69h-3.79v-1.1h2.43c.93,0,1.69-.75,1.69-1.69s-.76-1.69-1.69-1.69h-2.43v-1.1h3.79ZM9.98,30.17c0,.93.76,1.69,1.69,1.69h41c.93,0,1.69-.76,1.69-1.69s-.76-1.69-1.69-1.69H11.67c-.93,0-1.69.76-1.69,1.69ZM52.67,35.69H11.67c-.93,0-1.69.75-1.69,1.69s.76,1.69,1.69,1.69h41c.93,0,1.69-.76,1.69-1.69s-.76-1.69-1.69-1.69ZM54.81.41H9.53C4.5.41.41,4.5.41,9.53c0,.93.76,1.69,1.69,1.69s1.69-.75,1.69-1.69c0-3.17,2.58-5.74,5.74-5.74h45.28c3.17,0,5.75,2.58,5.75,5.74v36.98c0,3.17-2.58,5.74-5.75,5.74H9.53c-3.17,0-5.74-2.58-5.74-5.74v-25.36c0-.94-.76-1.69-1.69-1.69s-1.69.75-1.69,1.69v25.36c0,5.03,4.09,9.12,9.12,9.12h45.28c5.03,0,9.12-4.09,9.12-9.12V9.53c0-5.03-4.09-9.12-9.12-9.12ZM17.74,9.53c-.93,0-1.69.76-1.69,1.69v4.19l-4.24-5.25c-.45-.56-1.21-.77-1.88-.53-.68.24-1.13.88-1.13,1.59v8.97c0,.93.76,1.69,1.69,1.69s1.69-.76,1.69-1.69v-4.18l4.24,5.25c.33.4.81.63,1.32.63.19,0,.38-.03.56-.1.67-.24,1.12-.88,1.12-1.59v-8.97c0-.93-.76-1.69-1.69-1.69ZM52.67,42.9H11.67c-.93,0-1.69.76-1.69,1.69s.76,1.69,1.69,1.69h41c.93,0,1.69-.75,1.69-1.69s-.76-1.69-1.69-1.69Z"/>
      </g>
      <path class="cls-2" d="M54.4,0H9.12C4.09,0,0,4.09,0,9.12c0,.93.76,1.69,1.69,1.69s1.69-.75,1.69-1.69c0-3.17,2.58-5.74,5.74-5.74h45.28c3.17,0,5.75,2.58,5.75,5.74v36.98c0,3.17-2.58,5.74-5.75,5.74H9.12c-3.17,0-5.74-2.58-5.74-5.74v-25.36c0-.94-.76-1.69-1.69-1.69s-1.69.75-1.69,1.69v25.36c0,5.03,4.09,9.12,9.12,9.12h45.28c5.03,0,9.12-4.09,9.12-9.12V9.12c0-5.03-4.09-9.12-9.12-9.12ZM17.34,9.13c-.93,0-1.69.76-1.69,1.69v4.19l-4.24-5.25c-.45-.56-1.21-.77-1.88-.53-.68.24-1.13.88-1.13,1.59v8.97c0,.93.76,1.69,1.69,1.69s1.69-.76,1.69-1.69v-4.18l4.24,5.25c.33.4.81.63,1.32.63.19,0,.38-.03.56-.1.67-.24,1.12-.88,1.12-1.59v-8.97c0-.93-.76-1.69-1.69-1.69ZM34.75,21.5c.75,0,1.4-.49,1.62-1.2l1.1-3.65,1.1,3.65c.21.71.87,1.2,1.62,1.2h0c.75,0,1.41-.49,1.62-1.2l2.71-9.02c.27-.89-.24-1.84-1.13-2.1-.89-.27-1.83.24-2.1,1.13l-1.1,3.64-1.09-3.64c-.21-.71-.87-1.2-1.62-1.2s-1.4.49-1.62,1.2l-1.1,3.64-1.1-3.64c-.27-.9-1.21-1.4-2.1-1.13-.89.27-1.4,1.21-1.13,2.11l2.71,9.02c.21.71.87,1.2,1.62,1.2ZM27.72,12.5c.94,0,1.69-.75,1.69-1.69s-.76-1.69-1.69-1.69h-5.48c-.93,0-1.69.76-1.69,1.69v8.97c0,.93.76,1.69,1.69,1.69h5.48c.94,0,1.69-.76,1.69-1.69s-.76-1.69-1.69-1.69h-3.79v-1.1h2.43c.93,0,1.69-.75,1.69-1.69s-.76-1.69-1.69-1.69h-2.43v-1.1h3.79ZM48.86,12.5h3.95c.93,0,1.69-.75,1.69-1.69s-.76-1.69-1.69-1.69h-3.95c-2.07,0-3.75,1.76-3.75,3.93s1.68,3.93,3.75,3.93h2.51c.17,0,.37.24.37.55s-.2.55-.37.55h-3.95c-.93,0-1.69.76-1.69,1.69s.76,1.69,1.69,1.69h3.95c2.07,0,3.75-1.76,3.75-3.93s-1.69-3.93-3.75-3.93h-2.51c-.18,0-.37-.24-.37-.55s.2-.55.37-.55ZM52.26,42.49H11.26c-.93,0-1.69.76-1.69,1.69s.76,1.69,1.69,1.69h41c.93,0,1.69-.75,1.69-1.69s-.76-1.69-1.69-1.69ZM52.26,35.29H11.26c-.93,0-1.69.75-1.69,1.69s.76,1.69,1.69,1.69h41c.93,0,1.69-.76,1.69-1.69s-.76-1.69-1.69-1.69ZM9.57,29.77c0,.93.76,1.69,1.69,1.69h41c.93,0,1.69-.76,1.69-1.69s-.76-1.69-1.69-1.69H11.26c-.93,0-1.69.76-1.69,1.69Z"/>
    </g>
  </g>
</svg>