<?xml version="1.0" encoding="UTF-8"?>
<svg id="Layer_2" data-name="Layer 2" xmlns="http://www.w3.org/2000/svg" xmlns:xlink="http://www.w3.org/1999/xlink" viewBox="0 0 88.28 61.31">
  <defs>
    <style>
      .cls-1 {
        opacity: .14;
      }

      .cls-2 {
        fill: url(#linear-gradient-2);
      }

      .cls-3 {
        opacity: .21;
      }

      .cls-4 {
        opacity: .42;
      }

      .cls-5 {
        opacity: .55;
      }

      .cls-6 {
        fill: url(#linear-gradient-4);
      }

      .cls-7 {
        opacity: .48;
      }

      .cls-8 {
        opacity: .35;
      }

      .cls-9 {
        fill: url(#linear-gradient-3);
      }

      .cls-10 {
        opacity: .08;
      }

      .cls-11 {
        opacity: .28;
      }

      .cls-12 {
        opacity: 0;
      }

      .cls-13 {
        fill: url(#linear-gradient);
      }
    </style>
    <linearGradient id="linear-gradient" x1="17.7" y1="5.67" x2="62.46" y2="50.43" gradientUnits="userSpaceOnUse">
      <stop offset="0" stop-color="#c0c1c0"/>
      <stop offset=".2" stop-color="#d4d4d4"/>
      <stop offset=".49" stop-color="#ebeceb"/>
      <stop offset=".77" stop-color="#fafafa"/>
      <stop offset="1" stop-color="#fff"/>
    </linearGradient>
    <linearGradient id="linear-gradient-2" x1="24.22" y1="8.49" x2="56.42" y2="40.68" gradientUnits="userSpaceOnUse">
      <stop offset="0" stop-color="#056696"/>
      <stop offset="1" stop-color="#80dbff"/>
    </linearGradient>
    <linearGradient id="linear-gradient-3" x1="35.78" y1="19.97" x2="47.45" y2="31.63" gradientUnits="userSpaceOnUse">
      <stop offset="0" stop-color="#3a3a3a"/>
      <stop offset="1" stop-color="#818181"/>
    </linearGradient>
    <linearGradient id="linear-gradient-4" x1="18.86" y1="7.23" x2="63.47" y2="51.84" gradientUnits="userSpaceOnUse">
      <stop offset="0" stop-color="#2c2e2c"/>
      <stop offset=".99" stop-color="#000"/>
    </linearGradient>
  </defs>
  <g id="Layer_1-2" data-name="Layer 1">
    <g>
      <path class="cls-13" d="M1.41,29.24s6.35-9.16,11.4-13.46c5.05-4.3,27.47-22.99,54.95-2.06,10.65,10.09,13.08,15.33,13.08,15.33,0,0-12.9,25.23-39.06,25.23S1.41,29.24,1.41,29.24Z"/>
      <circle class="cls-2" cx="41.22" cy="25.49" r="21.45"/>
      <path class="cls-9" d="M49.86,25.8c0,4.55-3.69,8.25-8.25,8.25s-8.25-3.69-8.25-8.25,3.69-8.25,8.25-8.25,8.25,3.69,8.25,8.25Z"/>
      <g>
        <path class="cls-12" d="M52.43,27.24c.68,1.06,1.06,2.3,1.06,3.58,0,3.66-2.98,6.64-6.64,6.64-1.32,0-2.55-.39-3.58-1.06l9.17-9.17ZM40.2,30.83c0-3.66,2.98-6.65,6.65-6.65,1.09,0,2.15.28,3.1.78l-8.97,8.97c-.49-.92-.77-1.98-.77-3.1ZM46.84,40.85c5.53,0,10.02-4.5,10.02-10.02,0-2.19-.72-4.3-2-6.01l6.85-6.85c2.99,3.45,4.81,7.95,4.81,12.87,0,10.85-8.83,19.68-19.68,19.68-4.76,0-9.3-1.7-12.87-4.8l6.87-6.87c1.68,1.26,3.75,2.01,6,2.01ZM88.07,33.71c-.41-.75-7.6-13.51-21.24-20.86l4.56-4.56c.66-.66.66-1.73,0-2.39-.66-.66-1.73-.66-2.39,0l-5.38,5.38c-4.88-2.15-10.47-3.56-16.77-3.56-16.53,0-28.45,9.87-35.54,18.15-.61.71-.52,1.78.19,2.38.71.61,1.78.53,2.38-.18,3.86-4.52,9.25-9.53,16.1-12.94-3.83,4.12-6.18,9.64-6.18,15.69,0,3.11.61,6.13,1.81,8.97.36.86,1.36,1.26,2.21.9.86-.36,1.26-1.36.9-2.21-1.02-2.43-1.54-5-1.54-7.66,0-10.85,8.83-19.68,19.68-19.68,4.72,0,9.06,1.67,12.45,4.45l-6.89,6.89c-1.64-1.09-3.57-1.69-5.56-1.69-5.53,0-10.02,4.5-10.02,10.02,0,2.06.63,3.97,1.69,5.56l-14.3,14.3c-10.28-7.07-15.54-16.8-15.62-16.95-.43-.83-1.46-1.15-2.28-.71-.82.43-1.14,1.45-.71,2.28.35.66,5.64,10.5,16.11,17.88l-4.18,4.18c-.66.66-.66,1.73,0,2.39.33.33.76.5,1.19.5s.87-.17,1.2-.5l4.68-4.68c5.97,3.6,13.37,6.25,22.24,6.25,26.95,0,40.66-24.93,41.23-26,.27-.51.27-1.11,0-1.61ZM46.84,57.93c-7.73,0-14.3-2.26-19.71-5.39l4.44-4.44c4.22,3.73,9.61,5.78,15.27,5.78,12.71,0,23.06-10.34,23.06-23.05,0-5.85-2.19-11.19-5.79-15.26l.16-.16c11.54,5.92,18.53,16.18,20.36,19.12-2.57,4.21-15.46,23.4-37.79,23.4Z"/>
        <path class="cls-10" d="M51.8,26.62c.68,1.06,1.06,2.3,1.06,3.58,0,3.66-2.98,6.64-6.64,6.64-1.32,0-2.55-.39-3.58-1.06l9.17-9.17ZM39.57,30.2c0-3.66,2.98-6.65,6.65-6.65,1.09,0,2.15.28,3.1.78l-8.97,8.97c-.49-.92-.77-1.98-.77-3.1ZM46.22,40.23c5.53,0,10.02-4.5,10.02-10.02,0-2.19-.72-4.3-2-6.01l6.85-6.85c2.99,3.45,4.81,7.95,4.81,12.87,0,10.85-8.83,19.68-19.68,19.68-4.76,0-9.3-1.7-12.87-4.8l6.87-6.87c1.68,1.26,3.75,2.01,6,2.01ZM87.44,33.08c-.41-.75-7.6-13.51-21.24-20.86l4.56-4.56c.66-.66.66-1.73,0-2.39-.66-.66-1.73-.66-2.39,0l-5.38,5.38c-4.88-2.15-10.47-3.56-16.77-3.56-16.53,0-28.45,9.87-35.54,18.15-.61.71-.52,1.78.19,2.38.71.61,1.78.53,2.38-.18,3.86-4.52,9.25-9.53,16.1-12.94-3.83,4.12-6.18,9.64-6.18,15.69,0,3.11.61,6.13,1.81,8.97.36.86,1.36,1.26,2.21.9.86-.36,1.26-1.36.9-2.21-1.02-2.43-1.54-5-1.54-7.66,0-10.85,8.83-19.68,19.68-19.68,4.72,0,9.06,1.67,12.45,4.45l-6.89,6.89c-1.64-1.09-3.57-1.69-5.56-1.69-5.53,0-10.02,4.5-10.02,10.02,0,2.06.63,3.97,1.69,5.56l-14.3,14.3c-10.28-7.07-15.54-16.8-15.62-16.95-.44-.83-1.46-1.15-2.28-.71-.82.43-1.14,1.45-.71,2.28.35.66,5.64,10.5,16.11,17.88l-4.18,4.18c-.66.66-.66,1.73,0,2.39.33.33.76.5,1.19.5s.87-.17,1.2-.5l4.68-4.68c5.97,3.6,13.37,6.25,22.24,6.25,26.95,0,40.66-24.93,41.23-26,.27-.51.27-1.11,0-1.61ZM46.22,57.31c-7.73,0-14.3-2.26-19.71-5.39l4.44-4.44c4.22,3.73,9.61,5.78,15.27,5.78,12.71,0,23.06-10.34,23.06-23.05,0-5.85-2.19-11.19-5.79-15.26l.16-.16c11.54,5.92,18.53,16.18,20.36,19.12-2.57,4.21-15.46,23.4-37.79,23.4Z"/>
        <path class="cls-1" d="M51.18,25.99c.68,1.06,1.06,2.3,1.06,3.58,0,3.66-2.98,6.64-6.64,6.64-1.32,0-2.55-.39-3.58-1.06l9.17-9.17ZM38.95,29.58c0-3.66,2.98-6.65,6.65-6.65,1.09,0,2.15.28,3.1.78l-8.97,8.97c-.49-.92-.77-1.98-.77-3.1ZM45.59,39.6c5.53,0,10.02-4.5,10.02-10.02,0-2.19-.72-4.3-2-6.01l6.85-6.85c2.99,3.45,4.81,7.95,4.81,12.87,0,10.85-8.83,19.68-19.68,19.68-4.76,0-9.3-1.7-12.87-4.8l6.87-6.87c1.68,1.26,3.75,2.01,6,2.01ZM86.82,32.46c-.41-.75-7.6-13.51-21.24-20.86l4.56-4.56c.66-.66.66-1.73,0-2.39-.66-.66-1.73-.66-2.39,0l-5.38,5.38c-4.88-2.15-10.47-3.56-16.77-3.56-16.53,0-28.45,9.87-35.54,18.15-.61.71-.52,1.78.19,2.38.71.61,1.78.53,2.38-.18,3.86-4.52,9.25-9.53,16.1-12.94-3.83,4.12-6.18,9.64-6.18,15.69,0,3.11.61,6.13,1.81,8.97.36.86,1.36,1.26,2.21.9.86-.36,1.26-1.36.9-2.21-1.02-2.43-1.54-5-1.54-7.66,0-10.85,8.83-19.68,19.68-19.68,4.72,0,9.06,1.67,12.45,4.45l-6.89,6.89c-1.64-1.09-3.57-1.69-5.56-1.69-5.53,0-10.02,4.5-10.02,10.02,0,2.06.63,3.97,1.69,5.56l-14.3,14.3c-10.28-7.07-15.54-16.8-15.62-16.95-.44-.83-1.46-1.15-2.28-.71-.82.43-1.14,1.45-.71,2.28.35.66,5.64,10.5,16.11,17.88l-4.18,4.18c-.66.66-.66,1.73,0,2.39.33.33.76.5,1.19.5s.87-.17,1.2-.5l4.68-4.68c5.97,3.6,13.37,6.25,22.24,6.25,26.95,0,40.66-24.93,41.23-26,.27-.51.27-1.11,0-1.61ZM45.59,56.68c-7.73,0-14.3-2.26-19.71-5.39l4.44-4.44c4.22,3.73,9.61,5.78,15.27,5.78,12.71,0,23.06-10.34,23.06-23.05,0-5.85-2.19-11.19-5.79-15.26l.16-.16c11.54,5.92,18.53,16.18,20.36,19.12-2.57,4.21-15.46,23.4-37.79,23.4Z"/>
        <path class="cls-3" d="M50.55,25.37c.68,1.06,1.06,2.3,1.06,3.58,0,3.66-2.98,6.64-6.64,6.64-1.32,0-2.55-.39-3.58-1.06l9.17-9.17ZM38.32,28.95c0-3.66,2.98-6.65,6.65-6.65,1.09,0,2.15.28,3.1.78l-8.97,8.97c-.49-.92-.77-1.98-.77-3.1ZM44.97,38.98c5.53,0,10.02-4.5,10.02-10.02,0-2.19-.72-4.3-2-6.01l6.85-6.85c2.99,3.45,4.81,7.95,4.81,12.87,0,10.85-8.83,19.68-19.68,19.68-4.76,0-9.3-1.7-12.87-4.8l6.87-6.87c1.68,1.26,3.75,2.01,6,2.01ZM86.19,31.83c-.41-.75-7.6-13.51-21.24-20.86l4.56-4.56c.66-.66.66-1.73,0-2.39-.66-.66-1.73-.66-2.39,0l-5.38,5.38c-4.88-2.15-10.47-3.56-16.77-3.56-16.53,0-28.45,9.87-35.54,18.15-.61.71-.52,1.78.19,2.38.71.61,1.78.53,2.38-.18,3.86-4.52,9.25-9.53,16.1-12.94-3.83,4.12-6.18,9.64-6.18,15.69,0,3.11.61,6.13,1.81,8.97.36.86,1.36,1.26,2.21.9.86-.36,1.26-1.36.9-2.21-1.02-2.43-1.54-5-1.54-7.66,0-10.85,8.83-19.68,19.68-19.68,4.72,0,9.06,1.67,12.45,4.45l-6.89,6.89c-1.64-1.09-3.57-1.69-5.56-1.69-5.53,0-10.02,4.5-10.02,10.02,0,2.06.63,3.97,1.69,5.56l-14.3,14.3c-10.28-7.07-15.54-16.8-15.62-16.95-.44-.83-1.46-1.15-2.28-.71-.82.43-1.14,1.45-.71,2.28.35.66,5.64,10.5,16.11,17.88l-4.18,4.18c-.66.66-.66,1.73,0,2.39.33.33.76.5,1.19.5s.87-.17,1.2-.5l4.68-4.68c5.97,3.6,13.37,6.25,22.24,6.25,26.95,0,40.66-24.93,41.23-26,.27-.51.27-1.11,0-1.61ZM44.97,56.06c-7.73,0-14.3-2.26-19.71-5.39l4.44-4.44c4.22,3.73,9.61,5.78,15.27,5.78,12.71,0,23.06-10.34,23.06-23.05,0-5.85-2.19-11.19-5.79-15.26l.16-.16c11.54,5.92,18.53,16.18,20.36,19.12-2.57,4.21-15.46,23.4-37.79,23.4Z"/>
        <path class="cls-11" d="M49.93,24.74c.68,1.06,1.06,2.3,1.06,3.58,0,3.66-2.98,6.64-6.64,6.64-1.32,0-2.55-.39-3.58-1.06l9.17-9.17ZM37.7,28.33c0-3.66,2.98-6.65,6.65-6.65,1.09,0,2.15.28,3.1.78l-8.97,8.97c-.49-.92-.77-1.98-.77-3.1ZM44.34,38.35c5.53,0,10.02-4.5,10.02-10.02,0-2.19-.72-4.3-2-6.01l6.85-6.85c2.99,3.45,4.81,7.95,4.81,12.87,0,10.85-8.83,19.68-19.68,19.68-4.76,0-9.3-1.7-12.87-4.8l6.87-6.87c1.68,1.26,3.75,2.01,6,2.01ZM85.57,31.21c-.41-.75-7.6-13.51-21.24-20.86l4.56-4.56c.66-.66.66-1.73,0-2.39-.66-.66-1.73-.66-2.39,0l-5.38,5.38c-4.88-2.15-10.47-3.56-16.77-3.56-16.53,0-28.45,9.87-35.54,18.15-.61.71-.52,1.78.19,2.38.71.61,1.78.53,2.38-.18,3.86-4.52,9.25-9.53,16.1-12.94-3.83,4.12-6.18,9.64-6.18,15.69,0,3.11.61,6.13,1.81,8.97.36.86,1.36,1.26,2.21.9.86-.36,1.26-1.36.9-2.21-1.02-2.43-1.54-5-1.54-7.66,0-10.85,8.83-19.68,19.68-19.68,4.72,0,9.06,1.67,12.45,4.45l-6.89,6.89c-1.64-1.09-3.57-1.69-5.56-1.69-5.53,0-10.02,4.5-10.02,10.02,0,2.06.63,3.97,1.69,5.56l-14.3,14.3c-10.28-7.07-15.54-16.8-15.62-16.95-.44-.83-1.46-1.15-2.28-.71-.82.43-1.14,1.45-.71,2.28.35.66,5.64,10.5,16.11,17.88l-4.18,4.18c-.66.66-.66,1.73,0,2.39.33.33.76.5,1.19.5s.87-.17,1.2-.5l4.68-4.68c5.97,3.6,13.37,6.25,22.24,6.25,26.95,0,40.66-24.93,41.23-26,.27-.51.27-1.11,0-1.61ZM44.34,55.43c-7.73,0-14.3-2.26-19.71-5.39l4.44-4.44c4.22,3.73,9.61,5.78,15.27,5.78,12.71,0,23.06-10.34,23.06-23.05,0-5.85-2.19-11.19-5.79-15.26l.16-.16c11.54,5.92,18.53,16.18,20.36,19.12-2.57,4.21-15.46,23.4-37.79,23.4Z"/>
        <path class="cls-8" d="M49.3,24.12c.68,1.06,1.06,2.3,1.06,3.58,0,3.66-2.98,6.64-6.64,6.64-1.32,0-2.55-.39-3.58-1.06l9.17-9.17ZM37.07,27.7c0-3.66,2.98-6.65,6.65-6.65,1.09,0,2.15.28,3.1.78l-8.97,8.97c-.49-.92-.77-1.98-.77-3.1ZM43.72,37.73c5.53,0,10.02-4.5,10.02-10.02,0-2.19-.72-4.3-2-6.01l6.85-6.85c2.99,3.45,4.81,7.95,4.81,12.87,0,10.85-8.83,19.68-19.68,19.68-4.76,0-9.3-1.7-12.87-4.8l6.87-6.87c1.68,1.26,3.75,2.01,6,2.01ZM84.94,30.58c-.41-.75-7.6-13.51-21.24-20.86l4.56-4.56c.66-.66.66-1.73,0-2.39-.66-.66-1.73-.66-2.39,0l-5.38,5.38c-4.88-2.15-10.47-3.56-16.77-3.56-16.53,0-28.45,9.87-35.54,18.15-.61.71-.52,1.78.19,2.38.71.61,1.78.53,2.38-.18,3.86-4.52,9.25-9.53,16.1-12.94-3.83,4.12-6.18,9.64-6.18,15.69,0,3.11.61,6.13,1.81,8.97.36.86,1.36,1.26,2.21.9.86-.36,1.26-1.36.9-2.21-1.02-2.43-1.54-5-1.54-7.66,0-10.85,8.83-19.68,19.68-19.68,4.72,0,9.06,1.67,12.45,4.45l-6.89,6.89c-1.64-1.09-3.57-1.69-5.56-1.69-5.53,0-10.02,4.5-10.02,10.02,0,2.06.63,3.97,1.69,5.56l-14.3,14.3c-10.28-7.07-15.54-16.8-15.62-16.95-.44-.83-1.46-1.15-2.28-.71-.82.43-1.14,1.45-.71,2.28.35.66,5.64,10.5,16.11,17.88l-4.18,4.18c-.66.66-.66,1.73,0,2.39.33.33.76.5,1.19.5s.87-.17,1.2-.5l4.68-4.68c5.97,3.6,13.37,6.25,22.24,6.25,26.95,0,40.66-24.93,41.23-26,.27-.51.27-1.11,0-1.61ZM43.72,54.81c-7.73,0-14.3-2.26-19.71-5.39l4.44-4.44c4.22,3.73,9.61,5.78,15.27,5.78,12.71,0,23.06-10.34,23.06-23.05,0-5.85-2.19-11.19-5.79-15.26l.16-.16c11.54,5.92,18.53,16.18,20.36,19.12-2.57,4.21-15.46,23.4-37.79,23.4Z"/>
        <path class="cls-4" d="M48.68,23.49c.68,1.06,1.06,2.3,1.06,3.58,0,3.66-2.98,6.64-6.64,6.64-1.32,0-2.55-.39-3.58-1.06l9.17-9.17ZM36.45,27.08c0-3.66,2.98-6.65,6.65-6.65,1.09,0,2.15.28,3.1.78l-8.97,8.97c-.49-.92-.77-1.98-.77-3.1ZM43.09,37.1c5.53,0,10.02-4.5,10.02-10.02,0-2.19-.72-4.3-2-6.01l6.85-6.85c2.99,3.45,4.81,7.95,4.81,12.87,0,10.85-8.83,19.68-19.68,19.68-4.76,0-9.3-1.7-12.87-4.8l6.87-6.87c1.68,1.26,3.75,2.01,6,2.01ZM84.32,29.96c-.41-.75-7.6-13.51-21.24-20.86l4.56-4.56c.66-.66.66-1.73,0-2.39-.66-.66-1.73-.66-2.39,0l-5.38,5.38c-4.88-2.15-10.47-3.56-16.77-3.56C26.56,3.98,14.64,13.84,7.56,22.12c-.61.71-.52,1.78.19,2.38.71.61,1.78.53,2.38-.18,3.86-4.52,9.25-9.53,16.1-12.94-3.83,4.12-6.18,9.64-6.18,15.69,0,3.11.61,6.13,1.81,8.97.36.86,1.36,1.26,2.21.9.86-.36,1.26-1.36.9-2.21-1.02-2.43-1.54-5-1.54-7.66,0-10.85,8.83-19.68,19.68-19.68,4.72,0,9.06,1.67,12.45,4.45l-6.89,6.89c-1.64-1.09-3.57-1.69-5.56-1.69-5.53,0-10.02,4.5-10.02,10.02,0,2.06.63,3.97,1.69,5.56l-14.3,14.3c-10.28-7.07-15.54-16.8-15.62-16.95-.44-.83-1.46-1.15-2.28-.71-.82.43-1.14,1.45-.71,2.28.35.66,5.64,10.5,16.11,17.88l-4.18,4.18c-.66.66-.66,1.73,0,2.39.33.33.76.5,1.19.5s.87-.17,1.2-.5l4.68-4.68c5.97,3.6,13.37,6.25,22.24,6.25,26.95,0,40.66-24.93,41.23-26,.27-.51.27-1.11,0-1.61ZM43.09,54.18c-7.73,0-14.3-2.26-19.71-5.39l4.44-4.44c4.22,3.73,9.61,5.78,15.27,5.78,12.71,0,23.06-10.34,23.06-23.05,0-5.85-2.19-11.19-5.79-15.26l.16-.16c11.54,5.92,18.53,16.18,20.36,19.12-2.57,4.21-15.46,23.4-37.79,23.4Z"/>
        <path class="cls-7" d="M48.05,22.87c.68,1.06,1.06,2.3,1.06,3.58,0,3.66-2.98,6.64-6.64,6.64-1.32,0-2.55-.39-3.58-1.06l9.17-9.17ZM35.82,26.45c0-3.66,2.98-6.65,6.65-6.65,1.09,0,2.15.28,3.1.78l-8.97,8.97c-.49-.92-.77-1.98-.77-3.1ZM42.47,36.48c5.53,0,10.02-4.5,10.02-10.02,0-2.19-.72-4.3-2-6.01l6.85-6.85c2.99,3.45,4.81,7.95,4.81,12.87,0,10.85-8.83,19.68-19.68,19.68-4.76,0-9.3-1.7-12.87-4.8l6.87-6.87c1.68,1.26,3.75,2.01,6,2.01ZM83.69,29.33c-.41-.75-7.6-13.51-21.24-20.86l4.56-4.56c.66-.66.66-1.73,0-2.39-.66-.66-1.73-.66-2.39,0l-5.38,5.38c-4.88-2.15-10.47-3.56-16.77-3.56C25.93,3.35,14.01,13.22,6.93,21.5c-.61.71-.52,1.78.19,2.38.71.61,1.78.53,2.38-.18,3.86-4.52,9.25-9.53,16.1-12.94-3.83,4.12-6.18,9.64-6.18,15.69,0,3.11.61,6.13,1.81,8.97.36.86,1.36,1.26,2.21.9.86-.36,1.26-1.36.9-2.21-1.02-2.43-1.54-5-1.54-7.66,0-10.85,8.83-19.68,19.68-19.68,4.72,0,9.06,1.67,12.45,4.45l-6.89,6.89c-1.64-1.09-3.57-1.69-5.56-1.69-5.53,0-10.02,4.5-10.02,10.02,0,2.06.63,3.97,1.69,5.56l-14.3,14.3c-10.28-7.07-15.54-16.8-15.62-16.95-.44-.83-1.46-1.15-2.28-.71-.82.43-1.14,1.45-.71,2.28.35.66,5.64,10.5,16.11,17.88l-4.18,4.18c-.66.66-.66,1.73,0,2.39.33.33.76.5,1.19.5s.87-.17,1.2-.5l4.68-4.68c5.97,3.6,13.37,6.25,22.24,6.25,26.95,0,40.66-24.93,41.23-26,.27-.51.27-1.11,0-1.61ZM42.47,53.56c-7.73,0-14.3-2.26-19.71-5.39l4.44-4.44c4.22,3.73,9.61,5.78,15.27,5.78,12.71,0,23.06-10.34,23.06-23.05,0-5.85-2.19-11.19-5.79-15.26l.16-.16c11.54,5.92,18.53,16.18,20.36,19.12-2.57,4.21-15.46,23.4-37.79,23.4Z"/>
        <path class="cls-5" d="M47.43,22.24c.68,1.06,1.06,2.3,1.06,3.58,0,3.66-2.98,6.64-6.64,6.64-1.32,0-2.55-.39-3.58-1.06l9.17-9.17ZM35.2,25.83c0-3.66,2.98-6.65,6.65-6.65,1.09,0,2.15.28,3.1.78l-8.97,8.97c-.49-.92-.77-1.98-.77-3.1ZM41.84,35.85c5.53,0,10.02-4.5,10.02-10.02,0-2.19-.72-4.3-2-6.01l6.85-6.85c2.99,3.45,4.81,7.95,4.81,12.87,0,10.85-8.83,19.68-19.68,19.68-4.76,0-9.3-1.7-12.87-4.8l6.87-6.87c1.68,1.26,3.75,2.01,6,2.01ZM83.07,28.71c-.41-.75-7.6-13.51-21.24-20.86l4.56-4.56c.66-.66.66-1.73,0-2.39-.66-.66-1.73-.66-2.39,0l-5.38,5.38c-4.88-2.15-10.47-3.56-16.77-3.56C25.31,2.73,13.39,12.59,6.31,20.87c-.61.71-.52,1.78.19,2.38.71.61,1.78.53,2.38-.18,3.86-4.52,9.25-9.53,16.1-12.94-3.83,4.12-6.18,9.64-6.18,15.69,0,3.11.61,6.13,1.81,8.97.36.86,1.36,1.26,2.21.9.86-.36,1.26-1.36.9-2.21-1.02-2.43-1.54-5-1.54-7.66,0-10.85,8.83-19.68,19.68-19.68,4.72,0,9.06,1.67,12.45,4.45l-6.89,6.89c-1.64-1.09-3.57-1.69-5.56-1.69-5.53,0-10.02,4.5-10.02,10.02,0,2.06.63,3.97,1.69,5.56l-14.3,14.3C8.93,38.61,3.67,28.89,3.59,28.73c-.43-.83-1.46-1.15-2.28-.71-.82.43-1.14,1.45-.71,2.28.35.66,5.64,10.5,16.11,17.88l-4.18,4.18c-.66.66-.66,1.73,0,2.39.33.33.76.5,1.19.5s.87-.17,1.2-.5l4.68-4.68c5.97,3.6,13.37,6.25,22.24,6.25,26.95,0,40.66-24.93,41.23-26,.27-.51.27-1.11,0-1.61ZM41.84,52.93c-7.73,0-14.3-2.26-19.71-5.39l4.44-4.44c4.22,3.73,9.61,5.78,15.27,5.78,12.71,0,23.06-10.34,23.06-23.05,0-5.85-2.19-11.19-5.79-15.26l.16-.16c11.54,5.92,18.53,16.18,20.36,19.12-2.57,4.21-15.46,23.4-37.79,23.4Z"/>
      </g>
      <path class="cls-6" d="M82.66,28.3c-.41-.75-7.6-13.51-21.24-20.86l4.56-4.56c.66-.66.66-1.73,0-2.39-.66-.66-1.73-.66-2.39,0l-5.38,5.38c-4.88-2.15-10.47-3.56-16.77-3.56C24.9,2.32,12.98,12.19,5.9,20.47c-.61.71-.52,1.78.19,2.38.71.61,1.78.53,2.38-.18,3.86-4.52,9.25-9.53,16.1-12.94-3.83,4.12-6.18,9.64-6.18,15.69,0,3.11.61,6.13,1.81,8.97.36.86,1.36,1.26,2.21.9.86-.36,1.26-1.36.9-2.21-1.02-2.43-1.54-5-1.54-7.66,0-10.85,8.83-19.68,19.68-19.68,4.72,0,9.06,1.67,12.45,4.45l-6.89,6.89c-1.64-1.09-3.57-1.69-5.56-1.69-5.53,0-10.02,4.5-10.02,10.02,0,2.06.63,3.97,1.69,5.56l-14.3,14.3C8.52,38.21,3.26,28.48,3.18,28.33c-.43-.83-1.46-1.15-2.28-.71-.82.43-1.14,1.46-.71,2.28.35.66,5.64,10.5,16.11,17.88l-4.18,4.18c-.66.66-.66,1.73,0,2.39.33.33.76.5,1.19.5s.87-.17,1.2-.5l4.68-4.68c5.97,3.6,13.37,6.25,22.24,6.25,26.95,0,40.66-24.93,41.23-26,.27-.51.27-1.11,0-1.61ZM47.02,21.84c.68,1.06,1.06,2.3,1.06,3.58,0,3.66-2.98,6.64-6.64,6.64-1.32,0-2.55-.39-3.58-1.06l9.17-9.17ZM41.43,35.44c5.53,0,10.02-4.5,10.02-10.02,0-2.19-.72-4.29-2-6.01l6.85-6.85c2.99,3.45,4.81,7.95,4.81,12.87,0,10.85-8.83,19.68-19.68,19.68-4.76,0-9.3-1.7-12.87-4.8l6.87-6.87c1.68,1.26,3.75,2.01,6,2.01ZM34.79,25.42c0-3.66,2.98-6.65,6.65-6.65,1.09,0,2.15.28,3.1.78l-8.97,8.97c-.49-.92-.77-1.98-.77-3.1ZM41.43,52.53c-7.73,0-14.3-2.26-19.71-5.39l4.44-4.44c4.22,3.73,9.61,5.78,15.27,5.78,12.71,0,23.06-10.34,23.06-23.05,0-5.85-2.19-11.19-5.79-15.26l.16-.16c11.54,5.92,18.53,16.18,20.36,19.12-2.57,4.21-15.46,23.4-37.79,23.4Z"/>
    </g>
  </g>
</svg>