<?xml version="1.0" encoding="UTF-8"?>
<svg id="Layer_2" data-name="Layer 2" xmlns="http://www.w3.org/2000/svg" viewBox="0 0 27.36 24.97">
  <defs>
    <style>
      .cls-1 {
        fill-rule: evenodd;
      }
    </style>
  </defs>
  <g id="_1" data-name="1">
    <path class="cls-1" d="M26.78,11.14c-.61-.4-1.41-.23-1.81.36l-.04.07c-.47-6.46-5.87-11.57-12.46-11.57S0,5.6,0,12.49s5.6,12.48,12.47,12.48c.97,0,1.74-.77,1.74-1.74s-.78-1.74-1.74-1.74c-4.95,0-8.99-4.04-8.99-9S7.52,3.48,12.47,3.48c4.6,0,8.41,3.47,8.94,7.94-.43-.53-1.17-.65-1.74-.28-.61.4-.76,1.22-.36,1.81l2.59,3.89c.3.45.8.73,1.33.73s1.02-.28,1.33-.73l2.59-3.89c.4-.59.23-1.41-.36-1.81h0ZM21.14,23.23v-1.06h-2.14v-.88l2.27-3.33h.85v3.33h.65v.88h-.65v1.06h-.97ZM21.14,21.29v-1.78l-1.2,1.78h1.2ZM18.5,22.29v.94h-3.52c.04-.36.15-.69.34-1.01.19-.32.57-.73,1.13-1.25.44-.42.72-.71.83-.86.14-.2.21-.41.21-.61,0-.23-.07-.4-.18-.52-.12-.12-.29-.18-.5-.18s-.37.07-.49.19c-.13.12-.19.33-.22.62l-.99-.1c.06-.55.25-.95.55-1.19.32-.23.71-.36,1.18-.36.52,0,.92.14,1.23.41.29.28.44.62.44,1.05,0,.23-.04.46-.14.66-.08.23-.21.45-.4.68-.11.15-.33.37-.65.66-.32.29-.53.49-.61.58-.08.1-.15.2-.21.28h2ZM13.04,7.84c-.75,1.63-.12,1.87.65,2.34.54.32-.08,1.63-.8,2.81-.71,1.17-1.56,2.35-2.1,2.03-.77-.47-1.28-.92-2.38.53-1.09,1.42.14,1.89.89,2.33.86.53,3.26-.77,5.18-3.94,1.91-3.17,1.92-5.9,1.06-6.43-.75-.44-1.74-1.3-2.5.33h0Z"/>
  </g>
</svg>