<?xml version="1.0" encoding="UTF-8"?>
<svg id="Layer_2" data-name="Layer 2" xmlns="http://www.w3.org/2000/svg" viewBox="0 0 27.72 25.97">
  <defs>
    <style>
      .cls-1 {
        fill-rule: evenodd;
      }
    </style>
  </defs>
  <g id="_1" data-name="1">
    <path class="cls-1" d="M7.09,20.73c0-.98-.87-1.75-1.74-1.75-.98,0-1.74.76-1.74,1.75s.76,1.74,1.74,1.74c.87,0,1.74-.76,1.74-1.74h0ZM13.97,1.2c-1.74,0-3.05,1.42-3.05,3.16,0,1.64,1.31,3.05,3.05,3.05s3.06-1.42,3.06-3.05c0-1.75-1.31-3.16-3.06-3.16h0ZM13.97,0c-2.4,0-4.36,1.96-4.36,4.36s1.97,4.26,4.36,4.26,4.26-1.86,4.26-4.26S16.37,0,13.97,0h0ZM3.6,2.51c-1.42,0-2.62,1.2-2.62,2.62,0,1.52,1.2,2.73,2.62,2.73s2.62-1.2,2.62-2.73c0-1.42-1.2-2.62-2.62-2.62h0ZM3.6,1.74C1.64,1.74.11,3.27.11,5.13c0,1.96,1.53,3.49,3.49,3.49,1.85,0,3.49-1.53,3.49-3.49,0-1.86-1.64-3.38-3.49-3.38h0ZM26.41,11.24l-5.56,3.38v6.99l5.56,3.38h1.31v-13.75h-1.31ZM2.51,10.26h16.59v15.71H2.51c-1.42,0-2.51-1.09-2.51-2.51v-10.69c0-1.42,1.09-2.51,2.51-2.51h0Z"/>
  </g>
</svg>