<?xml version="1.0" encoding="UTF-8"?>
<svg id="Layer_2" data-name="Layer 2" xmlns="http://www.w3.org/2000/svg" viewBox="0 0 27.36 18.2">
  <defs>
    <style>
      .cls-1 {
        fill-rule: evenodd;
      }
    </style>
  </defs>
  <g id="_1" data-name="1">
    <path class="cls-1" d="M14.37,2.14l2.66,5.96,1.75,3.88.63-.91,2.2-3.06c-.28-.21-.47-.53-.47-.92,0-.62.51-1.13,1.12-1.13s1.11.51,1.11,1.13c0,.54-.36.98-.87,1.08l.83,3.7.26,1.11c.06.02.15.04.24.06l.42-.52,1.31-1.6c-.26-.21-.42-.52-.42-.87,0-.62.5-1.12,1.12-1.12s1.11.51,1.11,1.12c0,.56-.41,1.03-.94,1.11l.32,2.03.37,2.24c.1.28.14.58.14.91,0,3.64-6.02.42-13.32.42S.11,20.17.11,16.52c0-.31.06-.59.14-.86l.37-2.28.33-2.04c-.54-.08-.94-.55-.94-1.11,0-.62.5-1.12,1.12-1.12s1.11.49,1.11,1.12c0,.34-.15.66-.4.87l1.29,1.6.42.5c.08-.03.17-.05.25-.07l.24-1.08.82-3.68c-.49-.12-.87-.56-.87-1.1,0-.62.5-1.13,1.12-1.13s1.12.51,1.12,1.13c0,.38-.2.7-.48.92l2.19,3.08.8,1.11h.11l1.93-4.29,2.66-5.96c-.39-.17-.66-.56-.66-1.03,0-.62.49-1.11,1.11-1.11s1.12.49,1.12,1.11c0,.47-.27.86-.66,1.03h0Z"/>
  </g>
</svg>