<?xml version="1.0" encoding="UTF-8"?>
<svg id="Layer_2" data-name="Layer 2" xmlns="http://www.w3.org/2000/svg" viewBox="0 0 14.09 27.36">
  <defs>
    <style>
      .cls-1 {
        fill-rule: evenodd;
      }
    </style>
  </defs>
  <g id="_1" data-name="1">
    <path class="cls-1" d="M11.77,19.37v-3.1c0-6.9-2.92-11.08-4.15-12.52-.04-.04-.08-.08-.13-.12V.41c0-.22-.19-.41-.41-.41s-.4.18-.4.41v3.23c-.05.04-.09.08-.13.12-1.24,1.44-4.21,5.62-4.21,12.52v3.1l-.57.38c-1.1.75-1.77,2-1.77,3.32v3.7c0,.22.13.42.31.52.19.11.42.1.61-.02l1.85-1.23c.52-.35,1.14-.53,1.77-.53h.21v.11c0,.41.35.76.76.76h3.07c.42,0,.75-.35.75-.76v-.11h.21c.63,0,1.24.19,1.76.53l1.85,1.23c.18.12.41.13.61.02.2-.1.31-.3.31-.52v-3.7c0-1.32-.66-2.57-1.75-3.32l-.57-.38ZM7.04,7.23c.99,0,1.78.79,1.78,1.77s-.79,1.78-1.78,1.78-1.77-.79-1.77-1.78.81-1.77,1.77-1.77h0Z"/>
  </g>
</svg>