<?xml version="1.0" encoding="UTF-8"?>
<svg id="Layer_2" data-name="Layer 2" xmlns="http://www.w3.org/2000/svg" xmlns:xlink="http://www.w3.org/1999/xlink" viewBox="0 0 62.52 70.33">
  <defs>
    <style>
      .cls-1 {
        opacity: .14;
      }

      .cls-2 {
        fill: url(#linear-gradient-2);
      }

      .cls-3 {
        opacity: .21;
      }

      .cls-4 {
        opacity: .42;
      }

      .cls-5 {
        opacity: .55;
      }

      .cls-6 {
        opacity: .48;
      }

      .cls-7 {
        opacity: .35;
      }

      .cls-8 {
        opacity: .08;
      }

      .cls-9 {
        opacity: .28;
      }

      .cls-10 {
        opacity: 0;
      }

      .cls-11 {
        fill: url(#linear-gradient);
      }
    </style>
    <linearGradient id="linear-gradient" x1=".52" y1="-.72" x2="55.5" y2="54.26" gradientUnits="userSpaceOnUse">
      <stop offset="0" stop-color="#eb0a00"/>
      <stop offset="1" stop-color="#ff853b"/>
    </linearGradient>
    <linearGradient id="linear-gradient-2" x1="-3.73" y1="4.72" x2="50.85" y2="59.3" gradientUnits="userSpaceOnUse">
      <stop offset="0" stop-color="#2c2e2c"/>
      <stop offset=".99" stop-color="#000"/>
    </linearGradient>
  </defs>
  <g id="Layer_1-2" data-name="Layer 1">
    <g>
      <path class="cls-11" d="M1.65,12.3V1.96h23.89c2.48,0,5.17,1.14,5.07,7.65,2.28,1.14,18.1,1.34,24.1,1.24-2.9,4.76-13.45,20.89-13.45,20.89l13.86,20.27h-19.65c-2.9,0-4.86-1.14-4.86-4.34s-2.48-4.55-5.48-4.55H1.75l-.1-30.82Z"/>
      <g>
        <path class="cls-10" d="M48.55,36.96l13.67-19.82c.36-.52.4-1.19.11-1.75-.29-.55-.87-.9-1.5-.9h-18.33c-2.86,0-4.18-.1-4.81-1.06-.11-.17-.17-.53-.17-1.07,0-.26.02-.53.03-.79.05-1.12.11-2.38-.62-3.41-1.82-2.55-4.72-2.76-7.31-2.76H7.09c-.93,0-1.69.76-1.69,1.69s.76,1.69,1.69,1.69h22.52c2.73,0,3.83.33,4.53,1.29.08.2-.02,2.64-.02,2.64v28.06c0,.93.76,1.69,1.69,1.69s1.69-.76,1.69-1.69v-23.45c1.51.54,3.27.54,5,.54h15.12l-12.51,18.13c-.4.58-.4,1.34,0,1.92l12.51,18.13h-15.12c-2.86,0-4.18-.1-4.81-1.05-.21-.32-.18-1.17-.14-1.86.05-1.12.11-2.38-.62-3.41-1.82-2.54-4.72-2.76-7.31-2.76H8.78v-29.59c0-.93-.76-1.69-1.69-1.69s-1.69.76-1.69,1.69v51.27c0,.93.76,1.69,1.69,1.69s1.69-.76,1.69-1.69v-18.29h20.83c2.73,0,3.83.33,4.53,1.29.08.2.05.89.03,1.34-.06,1.18-.12,2.65.7,3.89,1.71,2.56,4.72,2.56,7.63,2.56h18.33c.63,0,1.2-.35,1.5-.9.29-.56.25-1.23-.11-1.75l-13.67-19.82Z"/>
        <path class="cls-8" d="M47.93,36.33l13.67-19.82c.36-.52.4-1.19.11-1.75-.29-.55-.87-.9-1.5-.9h-18.33c-2.86,0-4.18-.1-4.81-1.06-.11-.17-.17-.53-.17-1.07,0-.26.02-.53.03-.79.05-1.12.11-2.38-.62-3.41-1.82-2.55-4.72-2.76-7.31-2.76H6.47c-.93,0-1.69.76-1.69,1.69s.76,1.69,1.69,1.69h22.52c2.73,0,3.83.33,4.53,1.29.08.2-.02,2.64-.02,2.64v28.06c0,.93.76,1.69,1.69,1.69s1.69-.76,1.69-1.69v-23.45c1.51.54,3.27.54,5,.54h15.12l-12.51,18.13c-.4.58-.4,1.34,0,1.92l12.51,18.13h-15.12c-2.86,0-4.18-.1-4.81-1.05-.21-.32-.17-1.17-.14-1.86.05-1.12.11-2.38-.62-3.41-1.82-2.54-4.72-2.76-7.31-2.76H8.16v-29.59c0-.93-.76-1.69-1.69-1.69s-1.69.76-1.69,1.69v51.27c0,.93.76,1.69,1.69,1.69s1.69-.76,1.69-1.69v-18.29h20.83c2.73,0,3.83.33,4.53,1.29.08.2.05.89.03,1.34-.06,1.18-.12,2.65.7,3.89,1.71,2.56,4.72,2.56,7.63,2.56h18.33c.63,0,1.2-.35,1.5-.9.29-.56.25-1.23-.11-1.75l-13.67-19.82Z"/>
        <path class="cls-1" d="M47.3,35.71l13.67-19.82c.36-.52.4-1.19.11-1.75-.29-.55-.87-.9-1.5-.9h-18.33c-2.86,0-4.18-.1-4.81-1.06-.11-.17-.17-.53-.17-1.07,0-.26.02-.53.03-.79.05-1.12.11-2.38-.62-3.41-1.82-2.55-4.72-2.76-7.31-2.76H5.84c-.93,0-1.69.76-1.69,1.69s.76,1.69,1.69,1.69h22.52c2.73,0,3.83.33,4.53,1.29.08.2-.02,2.64-.02,2.64v28.06c0,.93.76,1.69,1.69,1.69s1.69-.76,1.69-1.69v-23.45c1.51.54,3.27.54,5,.54h15.12l-12.51,18.13c-.4.58-.4,1.34,0,1.92l12.51,18.13h-15.12c-2.86,0-4.18-.1-4.81-1.05-.21-.32-.17-1.17-.14-1.86.05-1.12.11-2.38-.62-3.41-1.82-2.54-4.72-2.76-7.31-2.76H7.53v-29.59c0-.93-.76-1.69-1.69-1.69s-1.69.76-1.69,1.69v51.27c0,.93.76,1.69,1.69,1.69s1.69-.76,1.69-1.69v-18.29h20.83c2.73,0,3.83.33,4.53,1.29.08.2.05.89.03,1.34-.06,1.18-.12,2.65.7,3.89,1.71,2.56,4.72,2.56,7.63,2.56h18.33c.63,0,1.2-.35,1.5-.9.29-.56.25-1.23-.11-1.75l-13.67-19.82Z"/>
        <path class="cls-3" d="M46.68,35.08l13.67-19.82c.36-.52.4-1.19.11-1.75-.29-.55-.87-.9-1.5-.9h-18.33c-2.86,0-4.18-.1-4.81-1.06-.11-.17-.17-.53-.17-1.07,0-.26.02-.53.03-.79.05-1.12.11-2.38-.62-3.41-1.82-2.55-4.72-2.76-7.31-2.76H5.22c-.93,0-1.69.76-1.69,1.69s.76,1.69,1.69,1.69h22.52c2.73,0,3.83.33,4.53,1.29.08.2-.02,2.64-.02,2.64v28.06c0,.93.76,1.69,1.69,1.69s1.69-.76,1.69-1.69V15.45c1.51.54,3.27.54,5,.54h15.12l-12.51,18.13c-.4.58-.4,1.34,0,1.92l12.51,18.13h-15.12c-2.86,0-4.18-.1-4.81-1.05-.21-.32-.17-1.17-.14-1.86.05-1.12.11-2.38-.62-3.41-1.82-2.54-4.72-2.76-7.31-2.76H6.91V15.49c0-.93-.76-1.69-1.69-1.69s-1.69.76-1.69,1.69v51.27c0,.93.76,1.69,1.69,1.69s1.69-.76,1.69-1.69v-18.29h20.83c2.73,0,3.83.33,4.53,1.29.08.2.05.89.03,1.34-.06,1.18-.12,2.65.7,3.89,1.71,2.56,4.72,2.56,7.63,2.56h18.33c.63,0,1.2-.35,1.5-.9.29-.56.25-1.23-.11-1.75l-13.67-19.82Z"/>
        <path class="cls-9" d="M46.05,34.46l13.67-19.82c.36-.52.4-1.19.11-1.75-.29-.55-.87-.9-1.5-.9h-18.33c-2.86,0-4.18-.1-4.81-1.06-.11-.17-.17-.53-.17-1.07,0-.26.02-.53.03-.79.05-1.12.11-2.38-.62-3.41-1.82-2.55-4.72-2.76-7.31-2.76H4.59c-.93,0-1.69.76-1.69,1.69s.76,1.69,1.69,1.69h22.52c2.73,0,3.83.33,4.53,1.29.08.2-.02,2.64-.02,2.64v28.06c0,.93.76,1.69,1.69,1.69s1.69-.76,1.69-1.69V14.83c1.51.54,3.27.54,5,.54h15.12l-12.51,18.13c-.4.58-.4,1.34,0,1.92l12.51,18.13h-15.12c-2.86,0-4.18-.1-4.81-1.05-.21-.32-.17-1.17-.14-1.86.05-1.12.11-2.38-.62-3.41-1.82-2.54-4.72-2.76-7.31-2.76H6.28V14.87c0-.93-.76-1.69-1.69-1.69s-1.69.76-1.69,1.69v51.27c0,.93.76,1.69,1.69,1.69s1.69-.76,1.69-1.69v-18.29h20.83c2.73,0,3.83.33,4.53,1.29.08.2.05.89.03,1.34-.06,1.18-.12,2.65.7,3.89,1.71,2.56,4.72,2.56,7.63,2.56h18.33c.63,0,1.2-.35,1.5-.9.29-.56.25-1.23-.11-1.75l-13.67-19.82Z"/>
        <path class="cls-7" d="M45.43,33.83l13.67-19.82c.36-.52.4-1.19.11-1.75-.29-.55-.87-.9-1.5-.9h-18.33c-2.86,0-4.18-.1-4.81-1.06-.11-.17-.17-.53-.17-1.07,0-.26.02-.53.03-.79.05-1.12.11-2.38-.62-3.41-1.82-2.55-4.72-2.76-7.31-2.76H3.97c-.93,0-1.69.76-1.69,1.69s.76,1.69,1.69,1.69h22.52c2.73,0,3.83.33,4.53,1.29.08.2-.02,2.64-.02,2.64v28.06c0,.93.76,1.69,1.69,1.69s1.69-.76,1.69-1.69V14.2c1.51.54,3.27.54,5,.54h15.12l-12.51,18.13c-.4.58-.4,1.34,0,1.92l12.51,18.13h-15.12c-2.86,0-4.18-.1-4.81-1.05-.21-.32-.17-1.17-.14-1.86.05-1.12.11-2.38-.62-3.41-1.82-2.54-4.72-2.76-7.31-2.76H5.66V14.24c0-.93-.76-1.69-1.69-1.69s-1.69.76-1.69,1.69v51.27c0,.93.76,1.69,1.69,1.69s1.69-.76,1.69-1.69v-18.29h20.83c2.73,0,3.83.33,4.53,1.29.08.2.05.89.03,1.34-.06,1.18-.12,2.65.7,3.89,1.71,2.56,4.72,2.56,7.63,2.56h18.33c.63,0,1.2-.35,1.5-.9.29-.56.25-1.23-.11-1.75l-13.67-19.82Z"/>
        <path class="cls-4" d="M44.8,33.21l13.67-19.82c.36-.52.4-1.19.11-1.75-.29-.55-.87-.9-1.5-.9h-18.33c-2.86,0-4.18-.1-4.81-1.06-.11-.17-.17-.53-.17-1.07,0-.26.02-.53.03-.79.05-1.12.11-2.38-.62-3.41-1.82-2.55-4.72-2.76-7.31-2.76H3.34c-.93,0-1.69.76-1.69,1.69s.76,1.69,1.69,1.69h22.52c2.73,0,3.83.33,4.53,1.29.08.2-.02,2.64-.02,2.64v28.06c0,.93.76,1.69,1.69,1.69s1.69-.76,1.69-1.69V13.58c1.51.54,3.27.54,5,.54h15.12l-12.51,18.13c-.4.58-.4,1.34,0,1.92l12.51,18.13h-15.12c-2.86,0-4.18-.1-4.81-1.05-.21-.32-.17-1.17-.14-1.86.05-1.12.11-2.38-.62-3.41-1.82-2.54-4.72-2.76-7.31-2.76H5.03V13.62c0-.93-.76-1.69-1.69-1.69s-1.69.76-1.69,1.69v51.27c0,.93.76,1.69,1.69,1.69s1.69-.76,1.69-1.69v-18.29h20.83c2.73,0,3.83.33,4.53,1.29.08.2.05.89.03,1.34-.06,1.18-.12,2.65.7,3.89,1.71,2.56,4.72,2.56,7.63,2.56h18.33c.63,0,1.2-.35,1.5-.9.29-.56.25-1.23-.11-1.75l-13.67-19.82Z"/>
        <path class="cls-6" d="M44.18,32.58l13.67-19.82c.36-.52.4-1.19.11-1.75-.29-.55-.87-.9-1.5-.9h-18.33c-2.86,0-4.18-.1-4.81-1.06-.11-.17-.17-.53-.17-1.07,0-.26.02-.53.03-.79.05-1.12.11-2.38-.62-3.41-1.82-2.55-4.72-2.76-7.31-2.76H2.72c-.93,0-1.69.76-1.69,1.69s.76,1.69,1.69,1.69h22.52c2.73,0,3.83.33,4.53,1.29.08.2-.02,2.64-.02,2.64v28.06c0,.93.76,1.69,1.69,1.69s1.69-.76,1.69-1.69V12.95c1.51.54,3.27.54,5,.54h15.12l-12.51,18.13c-.4.58-.4,1.34,0,1.92l12.51,18.13h-15.12c-2.86,0-4.18-.1-4.81-1.05-.21-.32-.17-1.17-.14-1.86.05-1.12.11-2.38-.62-3.41-1.82-2.54-4.72-2.76-7.31-2.76H4.41V12.99c0-.93-.76-1.69-1.69-1.69s-1.69.76-1.69,1.69v51.27c0,.93.76,1.69,1.69,1.69s1.69-.76,1.69-1.69v-18.29h20.83c2.73,0,3.83.33,4.53,1.29.08.2.05.89.03,1.34-.06,1.18-.12,2.65.7,3.89,1.71,2.56,4.72,2.56,7.63,2.56h18.33c.63,0,1.2-.35,1.5-.9.29-.56.25-1.23-.11-1.75l-13.67-19.82Z"/>
        <path class="cls-5" d="M43.55,31.96l13.67-19.82c.36-.52.4-1.19.11-1.75-.29-.55-.87-.9-1.5-.9h-18.33c-2.86,0-4.18-.1-4.81-1.06-.11-.17-.17-.53-.17-1.07,0-.26.02-.53.03-.79.05-1.12.11-2.38-.62-3.41-1.82-2.55-4.72-2.76-7.31-2.76H2.09C1.16.41.41,1.16.41,2.1s.76,1.69,1.69,1.69h22.52c2.73,0,3.83.33,4.53,1.29.08.2-.02,2.64-.02,2.64v28.06c0,.93.76,1.69,1.69,1.69s1.69-.76,1.69-1.69V12.33c1.51.54,3.27.54,5,.54h15.12l-12.51,18.13c-.4.58-.4,1.34,0,1.92l12.51,18.13h-15.12c-2.86,0-4.18-.1-4.81-1.05-.21-.32-.18-1.17-.14-1.86.05-1.12.11-2.38-.62-3.41-1.82-2.54-4.72-2.76-7.31-2.76H3.78V12.37c0-.93-.76-1.69-1.69-1.69s-1.69.76-1.69,1.69v51.27c0,.93.76,1.69,1.69,1.69s1.69-.76,1.69-1.69v-18.29h20.83c2.73,0,3.83.33,4.53,1.29.08.2.05.89.03,1.34-.06,1.18-.12,2.65.7,3.89,1.71,2.56,4.72,2.56,7.63,2.56h18.33c.63,0,1.2-.35,1.5-.9.29-.56.25-1.23-.11-1.75l-13.67-19.82Z"/>
      </g>
      <path class="cls-2" d="M43.15,31.55l13.67-19.82c.36-.52.4-1.19.11-1.75-.29-.55-.87-.9-1.5-.9h-18.33c-2.86,0-4.18-.1-4.81-1.06-.11-.17-.17-.53-.17-1.07,0-.26.02-.53.03-.79.05-1.12.11-2.38-.62-3.41-1.82-2.55-4.72-2.76-7.31-2.76H1.69C.76,0,0,.76,0,1.69s.76,1.69,1.69,1.69h22.52c2.73,0,3.83.33,4.53,1.29.08.2-.02,2.64-.02,2.64v28.06c0,.93.76,1.69,1.69,1.69s1.69-.76,1.69-1.69V11.92c1.51.54,3.27.54,5,.54h15.12l-12.51,18.13c-.4.58-.4,1.34,0,1.92l12.51,18.13h-15.12c-2.86,0-4.18-.1-4.81-1.05-.21-.32-.18-1.17-.14-1.86.05-1.12.11-2.38-.62-3.41-1.82-2.54-4.72-2.76-7.31-2.76H3.38V11.96c0-.93-.76-1.69-1.69-1.69s-1.69.76-1.69,1.69v51.27c0,.93.76,1.69,1.69,1.69s1.69-.76,1.69-1.69v-18.29h20.83c2.73,0,3.83.33,4.53,1.29.08.2.05.89.03,1.34-.06,1.18-.12,2.65.7,3.89,1.71,2.56,4.72,2.56,7.63,2.56h18.33c.63,0,1.21-.35,1.5-.9.29-.56.25-1.23-.11-1.75l-13.67-19.82Z"/>
    </g>
  </g>
</svg>