<?xml version="1.0" encoding="UTF-8"?>
<svg id="Layer_2" data-name="Layer 2" xmlns="http://www.w3.org/2000/svg" xmlns:xlink="http://www.w3.org/1999/xlink" viewBox="0 0 88.28 59">
  <defs>
    <style>
      .cls-1 {
        opacity: .14;
      }

      .cls-2 {
        fill: url(#linear-gradient-2);
      }

      .cls-3 {
        opacity: .21;
      }

      .cls-4 {
        opacity: .42;
      }

      .cls-5 {
        opacity: .55;
      }

      .cls-6 {
        fill: url(#linear-gradient-4);
      }

      .cls-7 {
        opacity: .48;
      }

      .cls-8 {
        opacity: .35;
      }

      .cls-9 {
        fill: url(#linear-gradient-3);
      }

      .cls-10 {
        opacity: .08;
      }

      .cls-11 {
        opacity: .28;
      }

      .cls-12 {
        opacity: 0;
      }

      .cls-13 {
        fill: url(#linear-gradient);
      }
    </style>
    <linearGradient id="linear-gradient" x1="17.8" y1="3.57" x2="62.56" y2="48.34" gradientUnits="userSpaceOnUse">
      <stop offset="0" stop-color="#c0c1c0"/>
      <stop offset=".2" stop-color="#d4d4d4"/>
      <stop offset=".49" stop-color="#ebeceb"/>
      <stop offset=".77" stop-color="#fafafa"/>
      <stop offset="1" stop-color="#fff"/>
    </linearGradient>
    <linearGradient id="linear-gradient-2" x1="24.17" y1="5.94" x2="56.37" y2="38.14" gradientUnits="userSpaceOnUse">
      <stop offset="0" stop-color="#056696"/>
      <stop offset="1" stop-color="#80dbff"/>
    </linearGradient>
    <linearGradient id="linear-gradient-3" x1="35.73" y1="17.43" x2="47.4" y2="29.09" gradientUnits="userSpaceOnUse">
      <stop offset="0" stop-color="#3a3a3a"/>
      <stop offset="1" stop-color="#818181"/>
    </linearGradient>
    <linearGradient id="linear-gradient-4" x1="19.15" y1="4.62" x2="63.76" y2="49.23" gradientUnits="userSpaceOnUse">
      <stop offset="0" stop-color="#2c2e2c"/>
      <stop offset=".99" stop-color="#000"/>
    </linearGradient>
  </defs>
  <g id="Layer_1-2" data-name="Layer 1">
    <g>
      <path class="cls-13" d="M1.52,27.15s6.35-9.16,11.4-13.46c5.05-4.3,27.47-22.99,54.95-2.06,10.65,10.09,13.08,15.33,13.08,15.33,0,0-12.9,25.23-39.06,25.23S1.52,27.15,1.52,27.15Z"/>
      <circle class="cls-2" cx="41.17" cy="22.94" r="21.45"/>
      <path class="cls-9" d="M49.81,23.26c0,4.55-3.69,8.25-8.25,8.25s-8.25-3.69-8.25-8.25,3.69-8.25,8.25-8.25,8.25,3.69,8.25,8.25Z"/>
      <g>
        <path class="cls-12" d="M46.84,35.15c-3.66,0-6.64-2.98-6.64-6.64s2.98-6.65,6.64-6.65,6.64,2.98,6.64,6.65-2.98,6.64-6.64,6.64ZM46.84,18.48c-5.53,0-10.02,4.5-10.02,10.03s4.5,10.02,10.02,10.02,10.02-4.5,10.02-10.02-4.5-10.03-10.02-10.03ZM66.52,28.51c0,10.85-8.83,19.68-19.68,19.68-5.06,0-9.86-1.92-13.53-5.39-.07-.06-.14-.11-.21-.16-.05-.07-.11-.14-.17-.21-1.85-1.85-3.28-3.99-4.26-6.37-.04-.1-.08-.2-.12-.3-.1-.24-.19-.48-.27-.73-.73-2.08-1.11-4.27-1.11-6.51,0-10.85,8.83-19.68,19.68-19.68s19.68,8.83,19.68,19.68ZM88.07,31.39c-.58-1.06-14.62-25.98-41.22-25.98-16.53,0-28.45,9.87-35.54,18.15-.61.71-.52,1.78.19,2.38.71.61,1.78.52,2.38-.19,3.86-4.51,9.25-9.53,16.1-12.93-3.83,4.12-6.18,9.63-6.18,15.69,0,2.57.42,5.07,1.24,7.46,0,.02,0,.04.01.05.02.04.04.09.05.13.09.27.2.53.3.8.05.14.11.27.16.41.02.04.03.08.04.11,0,.02.02.04.03.05,1.15,2.72,2.8,5.16,4.92,7.28.07.07.16.13.24.2.06.08.13.17.2.24,4.3,4.07,9.93,6.32,15.86,6.32,12.71,0,23.06-10.34,23.06-23.05,0-6.07-2.36-11.59-6.21-15.71,11.89,5.87,19.07,16.42,20.93,19.41-2.56,4.22-15.46,23.41-37.78,23.41-25.2,0-38.12-23.96-38.25-24.2-.43-.82-1.46-1.14-2.28-.71-.83.44-1.15,1.46-.71,2.28.56,1.06,13.97,26.01,41.24,26.01s40.66-24.93,41.24-26c.27-.5.27-1.11-.01-1.61Z"/>
        <path class="cls-10" d="M46.22,34.53c-3.66,0-6.64-2.98-6.64-6.64s2.98-6.65,6.64-6.65,6.64,2.98,6.64,6.65-2.98,6.64-6.64,6.64ZM46.22,17.86c-5.53,0-10.02,4.5-10.02,10.03s4.5,10.02,10.02,10.02,10.02-4.5,10.02-10.02-4.5-10.03-10.02-10.03ZM65.89,27.89c0,10.85-8.83,19.68-19.68,19.68-5.06,0-9.84-1.94-13.53-5.39-.07-.06-.14-.11-.21-.16-.05-.07-.1-.14-.17-.21-1.84-1.86-3.28-3.99-4.26-6.37-.04-.1-.08-.2-.12-.3-.1-.24-.19-.48-.27-.73-.73-2.08-1.11-4.27-1.11-6.51,0-10.85,8.83-19.68,19.68-19.68s19.68,8.83,19.68,19.68ZM87.44,30.76c-.58-1.06-14.62-25.98-41.22-25.98-16.53,0-28.45,9.87-35.54,18.15-.61.71-.52,1.78.19,2.38.71.61,1.78.52,2.38-.19,3.86-4.51,9.25-9.53,16.1-12.93-3.83,4.12-6.18,9.63-6.18,15.69,0,2.57.43,5.07,1.24,7.46,0,.02,0,.04.01.05.02.05.04.09.05.13.1.27.2.53.3.8.05.14.1.27.16.41.02.04.03.08.04.11,0,.02.02.04.03.05,1.18,2.71,2.78,5.18,4.92,7.28.07.07.16.13.24.2.06.08.13.17.2.24,4.29,4.09,9.93,6.32,15.86,6.32,12.71,0,23.06-10.34,23.06-23.05,0-6.07-2.36-11.59-6.21-15.71,11.89,5.87,19.07,16.42,20.93,19.41-2.56,4.22-15.46,23.41-37.78,23.41-25.2,0-38.12-23.96-38.25-24.2-.43-.83-1.46-1.14-2.28-.71-.83.44-1.15,1.46-.71,2.28.56,1.06,13.97,26.01,41.24,26.01s40.66-24.93,41.24-26c.27-.5.27-1.11-.01-1.61Z"/>
        <path class="cls-1" d="M45.59,33.9c-3.66,0-6.64-2.98-6.64-6.64s2.98-6.65,6.64-6.65,6.64,2.98,6.64,6.65-2.98,6.64-6.64,6.64ZM45.59,17.23c-5.53,0-10.02,4.5-10.02,10.03s4.5,10.02,10.02,10.02,10.02-4.5,10.02-10.02-4.5-10.03-10.02-10.03ZM65.27,27.26c0,10.85-8.83,19.68-19.68,19.68-5.06,0-9.84-1.94-13.53-5.39-.07-.06-.14-.11-.21-.16-.05-.07-.1-.14-.17-.21-1.84-1.86-3.28-3.99-4.26-6.37-.04-.1-.08-.2-.12-.3-.1-.24-.19-.48-.27-.73-.73-2.08-1.11-4.27-1.11-6.51,0-10.85,8.83-19.68,19.68-19.68s19.68,8.83,19.68,19.68ZM86.82,30.14c-.58-1.06-14.62-25.98-41.22-25.98-16.53,0-28.45,9.87-35.54,18.15-.61.71-.52,1.78.19,2.38.71.61,1.78.52,2.38-.19,3.86-4.51,9.25-9.53,16.1-12.93-3.83,4.12-6.18,9.63-6.18,15.69,0,2.57.43,5.07,1.24,7.46,0,.02,0,.04.01.05.02.05.04.09.05.13.1.27.2.53.3.8.05.14.1.27.16.41.02.04.03.08.04.11,0,.02.02.04.03.05,1.18,2.71,2.78,5.18,4.92,7.28.07.07.16.13.24.2.06.08.13.17.2.24,4.29,4.09,9.93,6.32,15.86,6.32,12.71,0,23.06-10.34,23.06-23.05,0-6.07-2.36-11.59-6.21-15.71,11.89,5.87,19.07,16.42,20.93,19.41-2.56,4.22-15.46,23.41-37.78,23.41-25.2,0-38.12-23.96-38.25-24.2-.43-.83-1.46-1.14-2.28-.71-.83.44-1.15,1.46-.71,2.28.56,1.06,13.97,26.01,41.24,26.01s40.66-24.93,41.24-26c.27-.5.27-1.11-.01-1.61Z"/>
        <path class="cls-3" d="M44.97,33.28c-3.66,0-6.64-2.98-6.64-6.64s2.98-6.65,6.64-6.65,6.64,2.98,6.64,6.65-2.98,6.64-6.64,6.64ZM44.97,16.61c-5.53,0-10.02,4.5-10.02,10.03s4.5,10.02,10.02,10.02,10.02-4.5,10.02-10.02-4.5-10.03-10.02-10.03ZM64.64,26.64c0,10.85-8.83,19.68-19.68,19.68-5.06,0-9.84-1.94-13.53-5.39-.07-.06-.14-.11-.21-.16-.05-.07-.1-.14-.17-.21-1.84-1.86-3.28-3.99-4.26-6.37-.04-.1-.08-.2-.12-.3-.1-.24-.19-.48-.27-.73-.73-2.08-1.11-4.27-1.11-6.51,0-10.85,8.83-19.68,19.68-19.68s19.68,8.83,19.68,19.68ZM86.19,29.51c-.58-1.06-14.62-25.98-41.22-25.98-16.53,0-28.45,9.87-35.54,18.15-.61.71-.52,1.78.19,2.38.71.61,1.78.52,2.38-.19,3.86-4.51,9.25-9.53,16.1-12.93-3.83,4.12-6.18,9.63-6.18,15.69,0,2.57.43,5.07,1.24,7.46,0,.02,0,.04.01.05.02.05.04.09.05.13.1.27.2.53.3.8.05.14.1.27.16.41.02.04.03.08.04.11,0,.02.02.04.03.05,1.18,2.71,2.78,5.18,4.92,7.28.07.07.16.13.24.2.06.08.13.17.2.24,4.29,4.09,9.93,6.32,15.86,6.32,12.71,0,23.06-10.34,23.06-23.05,0-6.07-2.36-11.59-6.21-15.71,11.89,5.87,19.07,16.42,20.93,19.41-2.56,4.22-15.46,23.41-37.78,23.41-25.2,0-38.12-23.96-38.25-24.2-.43-.83-1.46-1.14-2.28-.71-.83.44-1.15,1.46-.71,2.28.56,1.06,13.97,26.01,41.24,26.01s40.66-24.93,41.24-26c.27-.5.27-1.11-.01-1.61Z"/>
        <path class="cls-11" d="M44.34,32.65c-3.66,0-6.64-2.98-6.64-6.64s2.98-6.65,6.64-6.65,6.64,2.98,6.64,6.65-2.98,6.64-6.64,6.64ZM44.34,15.98c-5.53,0-10.02,4.5-10.02,10.03s4.5,10.02,10.02,10.02,10.02-4.5,10.02-10.02-4.5-10.03-10.02-10.03ZM64.02,26.01c0,10.85-8.83,19.68-19.68,19.68-5.06,0-9.84-1.94-13.53-5.39-.07-.06-.14-.11-.21-.16-.05-.07-.1-.14-.17-.21-1.84-1.86-3.28-3.99-4.26-6.37-.04-.1-.08-.2-.12-.3-.1-.24-.19-.48-.27-.73-.73-2.08-1.11-4.27-1.11-6.51,0-10.85,8.83-19.68,19.68-19.68s19.68,8.83,19.68,19.68ZM85.57,28.89c-.58-1.06-14.62-25.98-41.22-25.98C27.81,2.91,15.89,12.77,8.81,21.05c-.61.71-.52,1.78.19,2.38.71.61,1.78.52,2.38-.19,3.86-4.51,9.25-9.53,16.1-12.93-3.83,4.12-6.18,9.63-6.18,15.69,0,2.57.43,5.07,1.24,7.46,0,.02,0,.04.01.05.02.05.04.09.05.13.1.27.2.53.3.8.05.14.1.27.16.41.02.04.03.08.04.11,0,.02.02.04.03.05,1.18,2.71,2.78,5.18,4.92,7.28.07.07.16.13.24.2.06.08.13.17.2.24,4.29,4.09,9.93,6.32,15.86,6.32,12.71,0,23.06-10.34,23.06-23.05,0-6.07-2.36-11.59-6.21-15.71,11.89,5.87,19.07,16.42,20.93,19.41-2.56,4.22-15.46,23.41-37.78,23.41-25.2,0-38.12-23.96-38.25-24.2-.43-.83-1.46-1.14-2.28-.71-.83.44-1.15,1.46-.71,2.28.56,1.06,13.97,26.01,41.24,26.01s40.66-24.93,41.24-26c.27-.5.27-1.11-.01-1.61Z"/>
        <path class="cls-8" d="M43.72,32.03c-3.66,0-6.64-2.98-6.64-6.64s2.98-6.65,6.64-6.65,6.64,2.98,6.64,6.65-2.98,6.64-6.64,6.64ZM43.72,15.36c-5.53,0-10.02,4.5-10.02,10.03s4.5,10.02,10.02,10.02,10.02-4.5,10.02-10.02-4.5-10.03-10.02-10.03ZM63.39,25.39c0,10.85-8.83,19.68-19.68,19.68-5.06,0-9.84-1.94-13.53-5.39-.07-.06-.14-.11-.21-.16-.05-.07-.1-.14-.17-.21-1.84-1.86-3.28-3.99-4.26-6.37-.04-.1-.08-.2-.12-.3-.1-.24-.19-.48-.27-.73-.73-2.08-1.11-4.27-1.11-6.51,0-10.85,8.83-19.68,19.68-19.68s19.68,8.83,19.68,19.68ZM84.94,28.26c-.58-1.06-14.62-25.98-41.22-25.98C27.18,2.28,15.27,12.15,8.18,20.43c-.61.71-.52,1.78.19,2.38.71.61,1.78.52,2.38-.19,3.86-4.51,9.25-9.53,16.1-12.93-3.83,4.12-6.18,9.63-6.18,15.69,0,2.57.43,5.07,1.24,7.46,0,.02,0,.04.01.05.02.05.04.09.05.13.1.27.2.53.3.8.05.14.1.27.16.41.02.04.03.08.04.11,0,.02.02.04.03.05,1.18,2.71,2.78,5.18,4.92,7.28.07.07.16.13.24.2.06.08.13.17.2.24,4.29,4.09,9.93,6.32,15.86,6.32,12.71,0,23.06-10.34,23.06-23.05,0-6.07-2.36-11.59-6.21-15.71,11.89,5.87,19.07,16.42,20.93,19.41-2.56,4.22-15.46,23.41-37.78,23.41-25.2,0-38.12-23.96-38.25-24.2-.43-.83-1.46-1.14-2.28-.71-.83.44-1.15,1.46-.71,2.28.56,1.06,13.97,26.01,41.24,26.01s40.66-24.93,41.24-26c.27-.5.27-1.11-.01-1.61Z"/>
        <path class="cls-4" d="M43.09,31.4c-3.66,0-6.64-2.98-6.64-6.64s2.98-6.65,6.64-6.65,6.64,2.98,6.64,6.65-2.98,6.64-6.64,6.64ZM43.09,14.73c-5.53,0-10.02,4.5-10.02,10.03s4.5,10.02,10.02,10.02,10.02-4.5,10.02-10.02-4.5-10.03-10.02-10.03ZM62.77,24.76c0,10.85-8.83,19.68-19.68,19.68-5.06,0-9.84-1.94-13.53-5.39-.07-.06-.14-.11-.21-.16-.05-.07-.1-.14-.17-.21-1.84-1.86-3.28-3.99-4.26-6.37-.04-.1-.08-.2-.12-.3-.1-.24-.19-.48-.27-.73-.73-2.08-1.11-4.27-1.11-6.51,0-10.85,8.83-19.68,19.68-19.68s19.68,8.83,19.68,19.68ZM84.32,27.64c-.58-1.06-14.62-25.98-41.22-25.98C26.56,1.66,14.64,11.52,7.56,19.8c-.61.71-.52,1.78.19,2.38.71.61,1.78.52,2.38-.19,3.86-4.51,9.25-9.53,16.1-12.93-3.83,4.12-6.18,9.63-6.18,15.69,0,2.57.43,5.07,1.24,7.46,0,.02,0,.04.01.05.02.05.04.09.05.13.1.27.2.53.3.8.05.14.1.27.16.41.02.04.03.08.04.11,0,.02.02.04.03.05,1.18,2.71,2.78,5.18,4.92,7.28.07.07.16.13.24.2.06.08.13.17.2.24,4.29,4.09,9.93,6.32,15.86,6.32,12.71,0,23.06-10.34,23.06-23.05,0-6.07-2.36-11.59-6.21-15.71,11.89,5.87,19.07,16.42,20.93,19.41-2.56,4.22-15.46,23.41-37.78,23.41-25.2,0-38.12-23.96-38.25-24.2-.43-.83-1.46-1.14-2.28-.71-.83.44-1.15,1.46-.71,2.28.56,1.06,13.97,26.01,41.24,26.01s40.66-24.93,41.24-26c.27-.5.27-1.11-.01-1.61Z"/>
        <path class="cls-7" d="M42.47,30.78c-3.66,0-6.64-2.98-6.64-6.64s2.98-6.65,6.64-6.65,6.64,2.98,6.64,6.65-2.98,6.64-6.64,6.64ZM42.47,14.11c-5.53,0-10.02,4.5-10.02,10.03s4.5,10.02,10.02,10.02,10.02-4.5,10.02-10.02-4.5-10.03-10.02-10.03ZM62.14,24.14c0,10.85-8.83,19.68-19.68,19.68-5.06,0-9.84-1.94-13.53-5.39-.07-.06-.14-.11-.21-.16-.05-.07-.1-.14-.17-.21-1.84-1.86-3.28-3.99-4.26-6.37-.04-.1-.08-.2-.12-.3-.1-.24-.19-.48-.27-.73-.73-2.08-1.11-4.27-1.11-6.51,0-10.85,8.83-19.68,19.68-19.68s19.68,8.83,19.68,19.68ZM83.69,27.01c-.58-1.06-14.62-25.98-41.22-25.98C25.93,1.03,14.02,10.9,6.93,19.18c-.61.71-.52,1.78.19,2.38.71.61,1.78.52,2.38-.19,3.86-4.51,9.25-9.53,16.1-12.93-3.83,4.12-6.18,9.63-6.18,15.69,0,2.57.43,5.07,1.24,7.46,0,.02,0,.04.01.05.02.05.04.09.05.13.1.27.2.53.3.8.05.14.1.27.16.41.02.04.03.08.04.11,0,.02.02.04.03.05,1.18,2.71,2.78,5.18,4.92,7.28.07.07.16.13.24.2.06.08.13.17.2.24,4.29,4.09,9.93,6.32,15.86,6.32,12.71,0,23.06-10.34,23.06-23.05,0-6.07-2.36-11.59-6.21-15.71,11.89,5.87,19.07,16.42,20.93,19.41-2.56,4.22-15.46,23.41-37.78,23.41-25.2,0-38.12-23.96-38.25-24.2-.43-.83-1.46-1.14-2.28-.71-.83.44-1.15,1.46-.71,2.28.56,1.06,13.97,26.01,41.24,26.01s40.66-24.93,41.24-26c.27-.5.27-1.11-.01-1.61Z"/>
        <path class="cls-5" d="M41.84,30.15c-3.66,0-6.64-2.98-6.64-6.64s2.98-6.65,6.64-6.65,6.64,2.98,6.64,6.65-2.98,6.64-6.64,6.64ZM41.84,13.48c-5.53,0-10.02,4.5-10.02,10.03s4.5,10.02,10.02,10.02,10.02-4.5,10.02-10.02-4.5-10.03-10.02-10.03ZM61.52,23.51c0,10.85-8.83,19.68-19.68,19.68-5.06,0-9.86-1.92-13.53-5.39-.07-.06-.14-.11-.21-.16-.05-.07-.11-.14-.17-.21-1.85-1.85-3.28-3.99-4.26-6.37-.04-.1-.08-.2-.12-.3-.1-.24-.19-.48-.27-.73-.73-2.08-1.11-4.27-1.11-6.51,0-10.85,8.83-19.68,19.68-19.68s19.68,8.83,19.68,19.68ZM83.07,26.39c-.58-1.06-14.62-25.98-41.22-25.98C25.31.41,13.39,10.27,6.31,18.55c-.61.71-.52,1.78.19,2.38.71.61,1.78.52,2.38-.19,3.86-4.51,9.25-9.53,16.1-12.93-3.83,4.12-6.18,9.63-6.18,15.69,0,2.57.42,5.07,1.24,7.46,0,.02,0,.04.01.05.02.04.04.09.05.13.09.27.2.53.3.8.05.14.11.27.16.41.02.04.03.08.04.11,0,.02.02.04.03.05,1.15,2.72,2.8,5.16,4.92,7.28.07.07.16.13.24.2.06.08.13.17.2.24,4.3,4.07,9.93,6.32,15.86,6.32,12.71,0,23.06-10.34,23.06-23.05,0-6.07-2.36-11.59-6.21-15.71,11.89,5.87,19.07,16.42,20.93,19.41-2.56,4.22-15.46,23.41-37.78,23.41C16.64,50.62,3.72,26.66,3.59,26.41c-.43-.82-1.46-1.14-2.28-.71-.83.44-1.15,1.46-.71,2.28.56,1.06,13.97,26.01,41.24,26.01s40.66-24.93,41.24-26c.27-.5.27-1.11-.01-1.61Z"/>
      </g>
      <path class="cls-6" d="M82.66,25.98c-.58-1.06-14.62-25.98-41.22-25.98C24.9,0,12.99,9.87,5.9,18.15c-.61.71-.52,1.78.19,2.38.71.61,1.78.52,2.38-.19,3.86-4.51,9.25-9.53,16.1-12.93-3.83,4.12-6.18,9.63-6.18,15.69,0,2.57.42,5.07,1.24,7.46,0,.02,0,.04.01.05.02.04.04.09.05.13.09.27.2.53.3.8.05.14.11.27.16.41.02.04.03.08.04.11,0,.02.02.04.03.05,1.15,2.72,2.8,5.16,4.92,7.28.07.07.16.13.24.2.06.08.13.17.2.24,4.3,4.07,9.93,6.32,15.86,6.32,12.71,0,23.06-10.34,23.06-23.05,0-6.07-2.36-11.59-6.21-15.71,11.89,5.87,19.07,16.42,20.93,19.41-2.56,4.22-15.46,23.41-37.78,23.41C16.24,50.21,3.31,26.25,3.19,26.01c-.43-.82-1.46-1.14-2.28-.71-.83.44-1.15,1.46-.71,2.28.56,1.06,13.97,26.01,41.24,26.01s40.66-24.93,41.24-26c.27-.5.27-1.11-.01-1.61ZM61.11,23.11c0,10.85-8.83,19.68-19.68,19.68-5.06,0-9.86-1.92-13.53-5.39-.07-.06-.14-.11-.21-.16-.05-.07-.11-.14-.17-.21-1.85-1.85-3.28-3.99-4.26-6.37-.04-.1-.08-.2-.12-.3-.1-.24-.19-.48-.27-.73-.73-2.08-1.11-4.27-1.11-6.51,0-10.85,8.83-19.68,19.68-19.68s19.68,8.83,19.68,19.68ZM41.44,13.08c-5.53,0-10.02,4.5-10.02,10.03s4.5,10.02,10.02,10.02,10.02-4.5,10.02-10.02-4.5-10.03-10.02-10.03ZM41.44,29.75c-3.66,0-6.64-2.98-6.64-6.64s2.98-6.65,6.64-6.65,6.64,2.98,6.64,6.65-2.98,6.64-6.64,6.64Z"/>
    </g>
  </g>
</svg>