<?xml version="1.0" encoding="UTF-8"?>
<svg id="Layer_2" data-name="Layer 2" xmlns="http://www.w3.org/2000/svg" viewBox="0 0 27.35 25.1">
  <g id="_1" data-name="1">
    <path d="M19.84,15.78c-1.22.72-2.02,1.87-2.34,3.12l-7.7-.13c-.11-.42-.28-.81-.48-1.18-.23-.39-.5-.72-.79-1.03l3.65-6.77c1.27.36,2.65.22,3.88-.48,2.38-1.4,3.18-4.45,1.8-6.84C16.47.09,13.4-.7,11.02.68c-2.39,1.39-3.19,4.45-1.8,6.84.22.39.5.73.8,1.02l-3.65,6.77c-1.27-.38-2.67-.25-3.9.46-2.39,1.4-3.19,4.46-1.8,6.84,1.4,2.38,4.45,3.19,6.84,1.8,1.21-.72,2.02-1.88,2.33-3.15l7.68.14c.11.41.27.83.5,1.21,1.38,2.39,4.45,3.19,6.83,1.8,2.39-1.4,3.19-4.45,1.81-6.84-1.39-2.38-4.46-3.18-6.84-1.8h0Z"/>
  </g>
</svg>