<?xml version="1.0" encoding="UTF-8"?>
<svg id="Layer_2" data-name="Layer 2" xmlns="http://www.w3.org/2000/svg" viewBox="0 0 27.35 26.76">
  <g id="_1" data-name="1">
    <path d="M10.49,0c1.41,0,2.77.29,4.01.8,1.3.52,2.45,1.31,3.41,2.27.97.97,1.74,2.13,2.28,3.42.12.32.23.62.33.94l-2.2.9c-.1-.32-.2-.64-.32-.94-.41-.98-1.02-1.88-1.77-2.63-.76-.76-1.65-1.37-2.64-1.77-.96-.4-2.01-.62-3.11-.62s-2.16.23-3.11.62c-.99.4-1.88,1.01-2.64,1.77-.75.75-1.36,1.65-1.77,2.63-.39.95-.61,2-.61,3.11s.22,2.17.61,3.13c.41.98,1.02,1.87,1.77,2.63.76.76,1.65,1.37,2.64,1.77.96.4,2,.62,3.11.62.17,0,.35-.01.51-.03l-.03,2.38c-.17.01-.32.01-.48.01-1.41,0-2.76-.29-4.01-.8-1.3-.53-2.45-1.31-3.41-2.27-.97-.97-1.74-2.13-2.28-3.41-.51-1.25-.79-2.6-.79-4.03s.28-2.76.79-4.01c.54-1.29,1.31-2.45,2.28-3.42.97-.95,2.12-1.74,3.41-2.27,1.25-.51,2.6-.8,4.01-.8h0ZM12.12,11.93l-.17,12.08,4.02,2.75.17-12.08,11.21-4.52-4.02-2.77-11.21,4.53ZM10.49,4.91c.75,0,1.48.15,2.13.43.71.28,1.31.69,1.82,1.2v.02c.35.33.64.71.89,1.13.23.4.41.84.55,1.31l.26.98-.93.37-.04.02-1.19.48-.33-1.23c-.08-.27-.19-.53-.33-.78-.14-.23-.32-.47-.51-.66-.32-.3-.68-.55-1.07-.72-.38-.15-.8-.25-1.26-.25s-.87.1-1.26.25c-.39.17-.75.42-1.07.72-.3.3-.54.66-.7,1.06-.17.37-.25.8-.25,1.24s.08.89.25,1.26c.16.4.4.76.7,1.06.32.31.68.56,1.07.72.39.15.8.25,1.26.25.17,0-.07,0,.06,0h.07l1.18-.04-.02,1.19v1.12s-1.09.04-1.09.04h-.1c-.18,0,.03,0-.1,0-.75,0-1.48-.15-2.14-.43-.69-.27-1.3-.69-1.81-1.2-.51-.51-.92-1.13-1.22-1.82-.28-.66-.43-1.38-.43-2.14s.15-1.46.43-2.13c.29-.69.71-1.31,1.22-1.82.51-.51,1.12-.93,1.81-1.2.66-.28,1.4-.43,2.14-.43h0Z"/>
  </g>
</svg>