<?xml version="1.0" encoding="UTF-8"?>
<svg id="Layer_2" data-name="Layer 2" xmlns="http://www.w3.org/2000/svg" viewBox="0 0 19.08 27.36">
  <defs>
    <style>
      .cls-1 {
        fill-rule: evenodd;
      }
    </style>
  </defs>
  <g id="_1" data-name="1">
    <path class="cls-1" d="M18.59,18.76h-1.56v-7.46c0-4.8-3.19-7.38-6.62-7.75V.86c0-.48-.4-.86-.88-.86h0c-.48,0-.86.39-.86.86v2.69c-3.43.37-6.62,2.96-6.62,7.75v7.46H.5c-.26,0-.5.22-.5.5v2.64c0,.28.23.5.5.5h18.08c.28,0,.5-.22.5-.5v-2.64c0-.28-.22-.5-.49-.5h0ZM9.46,27.36c1.61,0,2.91-1.45,2.91-3.27h-5.81c0,1.82,1.31,3.27,2.9,3.27h0ZM6.65,6.45c.06-.02.12-.02.18-.01.06.01.1.06.14.11.02.06.03.13,0,.17,0,.06-.06.11-.11.14-.63.34-1.12.71-1.49,1.13-.39.41-.66.86-.84,1.34-.2.49-.3,1-.34,1.54-.04.55-.02,1.11.04,1.69h0c0,.07-.01.13-.06.17h0s-.08.07-.15.08h0c-.05,0-.12-.01-.16-.05h0s-.08-.1-.08-.17h0c-.07-.6-.08-1.2-.04-1.77.05-.58.15-1.14.36-1.67.21-.52.51-1.03.93-1.48.41-.46.95-.87,1.61-1.24h0ZM8.15,8.02c.06-.04.12-.04.17-.02h0c.05.02.1.06.13.1h0c.03.06.03.12.02.17h0c-.02.06-.06.11-.11.13h0c-.51.28-.92.61-1.25.94-.31.35-.54.72-.7,1.13-.15.39-.25.83-.28,1.28-.03.45-.02.93.04,1.42h0c0,.06-.01.12-.06.15-.04.05-.08.08-.14.08-.07.01-.12-.01-.16-.05h0s-.08-.08-.08-.15h0c-.06-.51-.07-1.01-.04-1.5.04-.49.14-.96.31-1.4.18-.46.43-.87.78-1.26.35-.39.81-.73,1.37-1.04h0ZM7.29,7.48s.11-.04.17-.01c.06.01.11.05.13.11h0s.03.12.02.16h0c-.02.06-.06.1-.11.14h0c-.52.28-.93.59-1.25.94-.31.34-.54.71-.7,1.11-.16.41-.25.84-.28,1.28-.04.45-.03.93.02,1.42h0c.01.06-.01.11-.05.16-.03.03-.08.07-.15.08-.06,0-.12-.02-.16-.06h0s-.07-.08-.08-.14h0c-.05-.52-.07-1.02-.02-1.5.04-.49.13-.96.3-1.4.18-.45.43-.87.79-1.26.35-.38.8-.73,1.36-1.04h0Z"/>
  </g>
</svg>