<?xml version="1.0" encoding="UTF-8"?>
<svg id="Layer_2" data-name="Layer 2" xmlns="http://www.w3.org/2000/svg" xmlns:xlink="http://www.w3.org/1999/xlink" viewBox="0 0 68.93 67.22">
  <defs>
    <style>
      .cls-1 {
        opacity: .14;
      }

      .cls-2 {
        fill: url(#linear-gradient-2);
      }

      .cls-3 {
        opacity: .21;
      }

      .cls-4 {
        opacity: .42;
      }

      .cls-5 {
        opacity: .55;
      }

      .cls-6 {
        opacity: .48;
      }

      .cls-7 {
        opacity: .35;
      }

      .cls-8 {
        opacity: .08;
      }

      .cls-9 {
        opacity: .28;
      }

      .cls-10 {
        opacity: 0;
      }

      .cls-11 {
        fill: url(#linear-gradient);
      }
    </style>
    <linearGradient id="linear-gradient" x1="4.69" y1="8.01" x2="58.61" y2="61.93" gradientUnits="userSpaceOnUse">
      <stop offset="0" stop-color="#eb0a00"/>
      <stop offset="1" stop-color="#ff853b"/>
    </linearGradient>
    <linearGradient id="linear-gradient-2" x1="5.26" y1="8.71" x2="58.27" y2="61.72" gradientUnits="userSpaceOnUse">
      <stop offset="0" stop-color="#2c2e2c"/>
      <stop offset=".99" stop-color="#000"/>
    </linearGradient>
  </defs>
  <g id="Layer_1-2" data-name="Layer 1">
    <g>
      <rect class="cls-11" x="1.74" y="10.53" width="60.4" height="49.45" rx="7.1" ry="7.1"/>
      <g>
        <path class="cls-10" d="M37.17,28.93c-.93,0-1.69.76-1.69,1.69v7.95h-7.94c-.93,0-1.69.75-1.69,1.69s.76,1.69,1.69,1.69h7.94v7.94c0,.94.76,1.69,1.69,1.69s1.69-.75,1.69-1.69v-7.94h7.95c.93,0,1.69-.76,1.69-1.69s-.76-1.69-1.69-1.69h-7.95v-7.95c0-.93-.76-1.69-1.69-1.69ZM44.77,14.01h-15.21v-3.23c0-.77.48-1.99,1.79-1.99h11.63c1.3,0,1.79,1.22,1.79,1.99v3.23ZM59.81,14.01h-11.66v-3.23c0-2.64-1.93-5.37-5.17-5.37h-11.63c-3.24,0-5.17,2.73-5.17,5.37v3.23h-11.66c-4.96,0-9.05,4.04-9.12,8.99v1.45c0,.93.76,1.69,1.69,1.69s1.69-.76,1.69-1.69v-1.39c.04-3.12,2.62-5.66,5.74-5.66h45.28c3.17,0,5.74,2.58,5.74,5.74v34.96c0,3.17-2.58,5.74-5.74,5.74H14.53c-3.17,0-5.74-2.58-5.74-5.74v-23.45c0-.93-.76-1.69-1.69-1.69s-1.69.76-1.69,1.69v23.45c0,5.03,4.09,9.12,9.12,9.12h45.28c5.03,0,9.12-4.09,9.12-9.12V23.14c0-5.03-4.09-9.12-9.12-9.12Z"/>
        <path class="cls-8" d="M36.54,28.31c-.93,0-1.69.76-1.69,1.69v7.95h-7.94c-.93,0-1.69.75-1.69,1.69s.76,1.69,1.69,1.69h7.94v7.94c0,.94.76,1.69,1.69,1.69s1.69-.75,1.69-1.69v-7.94h7.95c.93,0,1.69-.76,1.69-1.69s-.76-1.69-1.69-1.69h-7.95v-7.95c0-.93-.76-1.69-1.69-1.69ZM44.15,13.39h-15.21v-3.23c0-.77.48-1.99,1.79-1.99h11.63c1.3,0,1.79,1.22,1.79,1.99v3.23ZM59.18,13.39h-11.66v-3.23c0-2.64-1.93-5.37-5.17-5.37h-11.63c-3.24,0-5.17,2.73-5.17,5.37v3.23h-11.66c-4.96,0-9.09,4.04-9.12,8.99v1.45c0,.93.76,1.69,1.69,1.69s1.69-.76,1.69-1.69c0-.75,0-1.24,0-1.39.02-3.12,2.62-5.66,5.74-5.66h45.28c3.17,0,5.74,2.58,5.74,5.74v34.96c0,3.17-2.58,5.74-5.74,5.74H13.9c-3.17,0-5.74-2.58-5.74-5.74v-23.45c0-.93-.76-1.69-1.69-1.69s-1.69.76-1.69,1.69v23.45c0,5.03,4.09,9.12,9.12,9.12h45.28c5.03,0,9.12-4.09,9.12-9.12V22.51c0-5.03-4.09-9.12-9.12-9.12Z"/>
        <path class="cls-1" d="M35.92,27.68c-.93,0-1.69.76-1.69,1.69v7.95h-7.94c-.93,0-1.69.75-1.69,1.69s.76,1.69,1.69,1.69h7.94v7.94c0,.94.76,1.69,1.69,1.69s1.69-.75,1.69-1.69v-7.94h7.95c.93,0,1.69-.76,1.69-1.69s-.76-1.69-1.69-1.69h-7.95v-7.95c0-.93-.76-1.69-1.69-1.69ZM43.52,12.76h-15.21v-3.23c0-.77.48-1.99,1.79-1.99h11.63c1.3,0,1.79,1.22,1.79,1.99v3.23ZM58.56,12.76h-11.66v-3.23c0-2.64-1.93-5.37-5.17-5.37h-11.63c-3.24,0-5.17,2.73-5.17,5.37v3.23h-11.66c-4.96,0-9.09,4.04-9.12,8.99v1.45c0,.93.76,1.69,1.69,1.69s1.69-.76,1.69-1.69c0-.75,0-1.24,0-1.39.02-3.12,2.62-5.66,5.74-5.66h45.28c3.17,0,5.74,2.58,5.74,5.74v34.96c0,3.17-2.58,5.74-5.74,5.74H13.28c-3.17,0-5.74-2.58-5.74-5.74v-23.45c0-.93-.76-1.69-1.69-1.69s-1.69.76-1.69,1.69v23.45c0,5.03,4.09,9.12,9.12,9.12h45.28c5.03,0,9.12-4.09,9.12-9.12V21.89c0-5.03-4.09-9.12-9.12-9.12Z"/>
        <path class="cls-3" d="M35.29,27.06c-.93,0-1.69.76-1.69,1.69v7.95h-7.94c-.93,0-1.69.75-1.69,1.69s.76,1.69,1.69,1.69h7.94v7.94c0,.94.76,1.69,1.69,1.69s1.69-.75,1.69-1.69v-7.94h7.95c.93,0,1.69-.76,1.69-1.69s-.76-1.69-1.69-1.69h-7.95v-7.95c0-.93-.76-1.69-1.69-1.69ZM42.9,12.14h-15.21v-3.23c0-.77.48-1.99,1.79-1.99h11.63c1.3,0,1.79,1.22,1.79,1.99v3.23ZM57.93,12.14h-11.66v-3.23c0-2.64-1.93-5.37-5.17-5.37h-11.63c-3.24,0-5.17,2.73-5.17,5.37v3.23h-11.66c-4.96,0-9.09,4.04-9.12,8.99v1.45c0,.93.76,1.69,1.69,1.69s1.69-.76,1.69-1.69c0-.75,0-1.24,0-1.39.02-3.12,2.62-5.66,5.74-5.66h45.28c3.17,0,5.74,2.58,5.74,5.74v34.96c0,3.17-2.58,5.74-5.74,5.74H12.65c-3.17,0-5.74-2.58-5.74-5.74v-23.45c0-.93-.76-1.69-1.69-1.69s-1.69.76-1.69,1.69v23.45c0,5.03,4.09,9.12,9.12,9.12h45.28c5.03,0,9.12-4.09,9.12-9.12V21.26c0-5.03-4.09-9.12-9.12-9.12Z"/>
        <path class="cls-9" d="M34.67,26.43c-.93,0-1.69.76-1.69,1.69v7.95h-7.94c-.93,0-1.69.75-1.69,1.69s.76,1.69,1.69,1.69h7.94v7.94c0,.94.76,1.69,1.69,1.69s1.69-.75,1.69-1.69v-7.94h7.95c.93,0,1.69-.76,1.69-1.69s-.76-1.69-1.69-1.69h-7.95v-7.95c0-.93-.76-1.69-1.69-1.69ZM42.27,11.51h-15.21v-3.23c0-.77.48-1.99,1.79-1.99h11.63c1.3,0,1.79,1.22,1.79,1.99v3.23ZM57.31,11.51h-11.66v-3.23c0-2.64-1.93-5.37-5.17-5.37h-11.63c-3.24,0-5.17,2.73-5.17,5.37v3.23h-11.66c-4.96,0-9.09,4.04-9.12,8.99v1.45c0,.93.76,1.69,1.69,1.69s1.69-.76,1.69-1.69c0-.75,0-1.24,0-1.39.02-3.12,2.62-5.66,5.74-5.66h45.28c3.17,0,5.74,2.58,5.74,5.74v34.96c0,3.17-2.58,5.74-5.74,5.74H12.03c-3.17,0-5.74-2.58-5.74-5.74v-23.45c0-.93-.76-1.69-1.69-1.69s-1.69.76-1.69,1.69v23.45c0,5.03,4.09,9.12,9.12,9.12h45.28c5.03,0,9.12-4.09,9.12-9.12V20.64c0-5.03-4.09-9.12-9.12-9.12Z"/>
        <path class="cls-7" d="M34.04,25.81c-.93,0-1.69.76-1.69,1.69v7.95h-7.94c-.93,0-1.69.75-1.69,1.69s.76,1.69,1.69,1.69h7.94v7.94c0,.94.76,1.69,1.69,1.69s1.69-.75,1.69-1.69v-7.94h7.95c.93,0,1.69-.76,1.69-1.69s-.76-1.69-1.69-1.69h-7.95v-7.95c0-.93-.76-1.69-1.69-1.69ZM41.65,10.89h-15.21v-3.23c0-.77.48-1.99,1.79-1.99h11.63c1.3,0,1.79,1.22,1.79,1.99v3.23ZM56.68,10.89h-11.66v-3.23c0-2.64-1.93-5.37-5.17-5.37h-11.63c-3.24,0-5.17,2.73-5.17,5.37v3.23h-11.66c-4.96,0-9.09,4.04-9.12,8.99v1.45c0,.93.76,1.69,1.69,1.69s1.69-.76,1.69-1.69c0-.75,0-1.24,0-1.39.02-3.12,2.62-5.66,5.74-5.66h45.28c3.17,0,5.74,2.58,5.74,5.74v34.96c0,3.17-2.58,5.74-5.74,5.74H11.4c-3.17,0-5.74-2.58-5.74-5.74v-23.45c0-.93-.76-1.69-1.69-1.69s-1.69.76-1.69,1.69v23.45c0,5.03,4.09,9.12,9.12,9.12h45.28c5.03,0,9.12-4.09,9.12-9.12V20.01c0-5.03-4.09-9.12-9.12-9.12Z"/>
        <path class="cls-4" d="M33.42,25.18c-.93,0-1.69.76-1.69,1.69v7.95h-7.94c-.93,0-1.69.75-1.69,1.69s.76,1.69,1.69,1.69h7.94v7.94c0,.94.76,1.69,1.69,1.69s1.69-.75,1.69-1.69v-7.94h7.95c.93,0,1.69-.76,1.69-1.69s-.76-1.69-1.69-1.69h-7.95v-7.95c0-.93-.76-1.69-1.69-1.69ZM41.02,10.26h-15.21v-3.23c0-.77.48-1.99,1.79-1.99h11.63c1.3,0,1.79,1.22,1.79,1.99v3.23ZM56.06,10.26h-11.66v-3.23c0-2.64-1.93-5.37-5.17-5.37h-11.63c-3.24,0-5.17,2.73-5.17,5.37v3.23h-11.66c-4.96,0-9.09,4.04-9.12,8.99v1.45c0,.93.76,1.69,1.69,1.69s1.69-.76,1.69-1.69c0-.75,0-1.24,0-1.39.02-3.12,2.62-5.66,5.74-5.66h45.28c3.17,0,5.74,2.58,5.74,5.74v34.96c0,3.17-2.58,5.74-5.74,5.74H10.78c-3.17,0-5.74-2.58-5.74-5.74v-23.45c0-.93-.76-1.69-1.69-1.69s-1.69.76-1.69,1.69v23.45c0,5.03,4.09,9.12,9.12,9.12h45.28c5.03,0,9.12-4.09,9.12-9.12V19.39c0-5.03-4.09-9.12-9.12-9.12Z"/>
        <path class="cls-6" d="M32.79,24.56c-.93,0-1.69.76-1.69,1.69v7.95h-7.94c-.93,0-1.69.75-1.69,1.69s.76,1.69,1.69,1.69h7.94v7.94c0,.94.76,1.69,1.69,1.69s1.69-.75,1.69-1.69v-7.94h7.95c.93,0,1.69-.76,1.69-1.69s-.76-1.69-1.69-1.69h-7.95v-7.95c0-.93-.76-1.69-1.69-1.69ZM40.4,9.64h-15.21v-3.23c0-.77.48-1.99,1.79-1.99h11.63c1.3,0,1.79,1.22,1.79,1.99v3.23ZM55.43,9.64h-11.66v-3.23c0-2.64-1.93-5.37-5.17-5.37h-11.63c-3.24,0-5.17,2.73-5.17,5.37v3.23h-11.66c-4.96,0-9.09,4.04-9.12,8.99v1.45c0,.93.76,1.69,1.69,1.69s1.69-.76,1.69-1.69c0-.75,0-1.24,0-1.39.02-3.12,2.62-5.66,5.74-5.66h45.28c3.17,0,5.74,2.58,5.74,5.74v34.96c0,3.17-2.58,5.74-5.74,5.74H10.15c-3.17,0-5.74-2.58-5.74-5.74v-23.45c0-.93-.76-1.69-1.69-1.69s-1.69.76-1.69,1.69v23.45c0,5.03,4.09,9.12,9.12,9.12h45.28c5.03,0,9.12-4.09,9.12-9.12V18.76c0-5.03-4.09-9.12-9.12-9.12Z"/>
        <path class="cls-5" d="M32.17,23.93c-.93,0-1.69.76-1.69,1.69v7.95h-7.94c-.93,0-1.69.75-1.69,1.69s.76,1.69,1.69,1.69h7.94v7.94c0,.94.76,1.69,1.69,1.69s1.69-.75,1.69-1.69v-7.94h7.95c.93,0,1.69-.76,1.69-1.69s-.76-1.69-1.69-1.69h-7.95v-7.95c0-.93-.76-1.69-1.69-1.69ZM39.77,9.01h-15.21v-3.23c0-.77.48-1.99,1.79-1.99h11.63c1.3,0,1.79,1.22,1.79,1.99v3.23ZM54.81,9.01h-11.66v-3.23c0-2.64-1.93-5.37-5.17-5.37h-11.63c-3.24,0-5.17,2.73-5.17,5.37v3.23h-11.66C4.57,9.01.47,13.05.41,18v1.45c0,.93.76,1.69,1.69,1.69s1.69-.76,1.69-1.69v-1.39c.04-3.12,2.62-5.66,5.74-5.66h45.28c3.17,0,5.74,2.58,5.74,5.74v34.96c0,3.17-2.58,5.74-5.74,5.74H9.53c-3.17,0-5.74-2.58-5.74-5.74v-23.45c0-.93-.76-1.69-1.69-1.69s-1.69.76-1.69,1.69v23.45c0,5.03,4.09,9.12,9.12,9.12h45.28c5.03,0,9.12-4.09,9.12-9.12V18.14c0-5.03-4.09-9.12-9.12-9.12Z"/>
      </g>
      <path class="cls-2" d="M54.4,8.61h-11.66v-3.24c0-2.64-1.93-5.37-5.17-5.37h-11.63c-3.24,0-5.17,2.73-5.17,5.37v3.24h-11.66C4.16,8.61.07,12.64,0,17.6v1.45c0,.93.76,1.69,1.69,1.69s1.69-.76,1.69-1.69v-1.39c.04-3.12,2.62-5.66,5.74-5.66h45.28c3.17,0,5.74,2.58,5.74,5.74v34.96c0,3.17-2.58,5.74-5.74,5.74H9.12c-3.17,0-5.74-2.58-5.74-5.74v-23.45c0-.93-.76-1.69-1.69-1.69s-1.69.76-1.69,1.69v23.45c0,5.03,4.09,9.12,9.12,9.12h45.28c5.03,0,9.12-4.09,9.12-9.12V17.73c0-5.03-4.09-9.12-9.12-9.12ZM39.37,8.61h-15.21v-3.24c0-.77.48-1.99,1.79-1.99h11.63c1.3,0,1.79,1.22,1.79,1.99v3.24ZM31.76,23.53c-.93,0-1.69.76-1.69,1.69v7.95h-7.94c-.93,0-1.69.75-1.69,1.69s.76,1.69,1.69,1.69h7.94v7.94c0,.93.76,1.69,1.69,1.69s1.69-.75,1.69-1.69v-7.94h7.95c.93,0,1.69-.75,1.69-1.69s-.76-1.69-1.69-1.69h-7.95v-7.95c0-.93-.76-1.69-1.69-1.69Z"/>
    </g>
  </g>
</svg>