<?xml version="1.0" encoding="UTF-8"?>
<svg id="Layer_2" data-name="Layer 2" xmlns="http://www.w3.org/2000/svg" viewBox="0 0 27.36 22.22">
  <defs>
    <style>
      .cls-1 {
        fill-rule: evenodd;
      }
    </style>
  </defs>
  <g id="_1" data-name="1">
    <path class="cls-1" d="M11.39,18.24h11.4c2.28,0,4.56-2.29,4.56-4.55V4.57c0-2.28-2.28-4.57-4.56-4.57H4.55C2.28,0,0,2.28,0,4.57v9.12c0,2.27,2.28,4.55,4.55,4.55v3.98l6.84-3.98ZM23.12,2.37l-.2-.03H4.29l-.11.02,9.42,8.4L23.12,2.37ZM13.6,12.54l-2.83-2.53-6.55,5.61h.07s18.58.01,18.58.01l-6.41-5.61-2.85,2.51ZM3.06,3.15c-.06.15-.1.33-.1.51v10.64c0,.2.04.37.12.53l6.68-5.72L3.06,3.15ZM24.17,3.22l-6.71,5.91,6.62,5.79c.11-.18.18-.38.18-.62V3.67c0-.16-.04-.3-.08-.44h0ZM24.06,2.12l-10.45,9.23L3.22,2.1l1.02-.21h18.72l1.09.22ZM13.6,11.95l2.83-2.5,7.6,6.64H4.25l-1-.19,7.52-6.45,2.83,2.52ZM2.89,2.41l7.55,6.72-7.52,6.44-.24-.52c-.11-.24-.17-.49-.17-.73V3.67c0-.24.04-.47.14-.68l.23-.58ZM24.58,3.07c.07.2.11.39.11.6v10.64c0,.3-.08.58-.23.84l-.26.47-7.41-6.48,7.56-6.68.23.61Z"/>
  </g>
</svg>