<?xml version="1.0" encoding="UTF-8"?>
<svg id="Layer_2" data-name="Layer 2" xmlns="http://www.w3.org/2000/svg" viewBox="0 0 27.35 27.36">
  <g id="_1" data-name="1">
    <path d="M25.68,15.56l-1.96-.87c.05-.53.07-1.05.04-1.57l1.99-.78c1.3-.5,1.93-1.97,1.42-3.25l-.44-1.13c-.5-1.3-1.95-1.95-3.25-1.44l-1.99.77c-.33-.4-.7-.78-1.1-1.14l.87-1.95c.55-1.27-.03-2.75-1.3-3.32l-1.11-.48c-1.27-.57-2.76.01-3.31,1.28l-.86,1.95c-.54-.05-1.06-.05-1.59-.03l-.76-1.99c-.51-1.3-1.97-1.95-3.26-1.44l-1.13.44c-1.3.5-1.95,1.96-1.44,3.25l.78,1.99c-.42.33-.79.69-1.15,1.09l-1.95-.86c-1.27-.56-2.75.02-3.32,1.29l-.48,1.12c-.57,1.27.02,2.75,1.28,3.32l1.95.86c-.05.52-.07,1.05-.03,1.58l-1.99.77c-1.3.5-1.93,1.96-1.44,3.26l.45,1.14c.49,1.28,1.96,1.93,3.26,1.42l1.99-.76c.32.4.68.79,1.08,1.14l-.86,1.95c-.55,1.27.02,2.76,1.29,3.32l1.12.5c1.27.55,2.75-.03,3.31-1.3l.86-1.95c.53.06,1.05.07,1.57.03l.78,2c.5,1.29,1.96,1.94,3.24,1.44l1.15-.46c1.3-.5,1.93-1.95,1.42-3.25l-.77-1.99c.42-.33.8-.69,1.15-1.09l1.95.86c1.27.57,2.77-.01,3.32-1.29l.5-1.1c.57-1.28-.01-2.76-1.29-3.31h0ZM10.09,10.1c.92-.91,2.18-1.49,3.58-1.49s2.67.58,3.58,1.49c.93.91,1.49,2.18,1.49,3.58s-.57,2.67-1.49,3.58h.02c-.93.93-2.2,1.49-3.6,1.49s-2.66-.57-3.58-1.49h0c-.91-.91-1.48-2.18-1.48-3.58s.57-2.66,1.48-3.58h0ZM12.43,17.1c.15.29.33.55.51.8.08.01.16.01.25.02l.09.02v-1.52h-1.17c.1.23.2.47.32.68h0ZM10.82,14.08h-1.41c.01.26.07.51.14.76.08.29.19.57.32.81h1.17c-.06-.23-.11-.48-.14-.73-.04-.28-.07-.57-.08-.84h0ZM14.07,9.42v1.51h1.07c-.1-.25-.21-.47-.34-.69-.15-.29-.33-.55-.53-.8-.06,0-.11-.01-.18-.01h-.02ZM15.56,12.5c-.04-.27-.09-.54-.17-.8h-1.32v1.59h1.58c-.02-.26-.05-.52-.09-.79h0ZM12.11,10.93h1.17v-1.51h-.09c-.08.01-.17.03-.25.04-.18.24-.36.51-.51.79h0c-.11.21-.22.44-.32.68h0ZM13.28,13.29v-1.59h-1.43c-.07.26-.14.53-.19.8-.04.26-.05.53-.06.79h1.68ZM9.42,13.29h1.41c.02-.29.04-.58.08-.84.03-.26.08-.51.14-.75h-1.17c-.12.25-.24.53-.32.81-.07.25-.13.51-.14.77h0ZM13.28,14.08h-1.68c0,.26.02.53.06.77.04.28.12.54.19.8h1.43v-1.58ZM15.14,16.43h-1.07v1.52h.04c.06-.02.11-.02.17-.03.2-.25.38-.51.53-.8.12-.22.23-.44.34-.69h0ZM14.07,14.08v1.58h1.32c.08-.26.13-.52.17-.8.04-.26.07-.51.09-.77h-1.58ZM17.94,14.08h-1.52c-.02.28-.04.57-.08.84-.04.25-.08.5-.14.73h1.27c.14-.25.25-.52.32-.8h0c.08-.25.13-.51.15-.77h0ZM16.34,12.45c.04.26.06.55.08.84h1.52c-.03-.26-.07-.52-.14-.77-.08-.29-.19-.57-.33-.81h-1.27c.06.24.1.48.14.75h0ZM15.96,10.93h1c-.08-.1-.16-.2-.26-.28h.02c-.27-.26-.55-.48-.88-.66-.14-.08-.28-.15-.41-.22.07.11.12.22.18.35h0c.14.26.25.53.36.82h0ZM11.45,10.01h0c-.29.18-.55.39-.8.64h0c-.08.08-.17.18-.25.28h.88c.1-.28.22-.56.34-.8.04-.1.1-.19.16-.29-.12.06-.22.11-.33.18h0ZM11.28,16.43h-.88c.07.1.17.19.25.28h0c.25.25.51.45.8.63.11.07.22.12.33.18-.05-.1-.12-.19-.16-.29-.12-.25-.25-.52-.34-.8h0ZM15.84,17.38c.32-.19.61-.41.86-.67h.02c.08-.08.16-.18.25-.28h-1c-.11.29-.22.57-.36.83h0c-.05.11-.1.22-.18.33.15-.07.28-.14.41-.21h0ZM19.64,16.3h0c-1.45,3.3-5.3,4.79-8.59,3.34-3.3-1.45-4.8-5.31-3.35-8.59,1.45-3.3,5.31-4.8,8.6-3.35,3.3,1.45,4.8,5.31,3.34,8.6h0Z"/>
  </g>
</svg>