<?xml version="1.0" encoding="UTF-8"?>
<svg id="Layer_2" data-name="Layer 2" xmlns="http://www.w3.org/2000/svg" viewBox="0 0 27.36 18.96">
  <defs>
    <style>
      .cls-1 {
        fill-rule: evenodd;
      }
    </style>
  </defs>
  <g id="_1" data-name="1">
    <path class="cls-1" d="M.86,0h23.09c.48,0,.87.38.87.87v9.44c-2.95-1.19-6.46.87-6.46,4.35,0,.42.06.83.16,1.22l-8.66.06-5.03,2.73-.04-2.78-3.92-.03c-.47-.01-.86-.38-.86-.86V.87c0-.48.4-.87.86-.87h0ZM23.05,14.65h4.31c0-2.38-1.94-4.31-4.31-4.31v4.31ZM22.51,15.19v-4.8c-2.12.26-3.77,2.07-3.77,4.27,0,2.38,1.94,4.3,4.31,4.3,2.2,0,4.01-1.65,4.27-3.77h-4.8ZM7.19,11.21h5.36s.04.04.04.08v.69s-.01.08-.04.08h-5.36s-.04-.04-.04-.08v-.69s.01-.08.04-.08h0ZM7.19,4.41h5.36s.04.04.04.08v.69s-.01.08-.04.08h-5.36s-.04-.04-.04-.08v-.69s.01-.08.04-.08h0ZM3.55,2.79h2.46c.1,0,.18.08.18.18v2.11c0,.1-.08.18-.18.18h-2.46c-.1,0-.18-.08-.18-.18v-2.11c0-.1.08-.18.18-.18h0ZM7.21,2.79h12.06c.05,0,.09.04.09.08v.69s-.04.08-.09.08H7.21c-.05,0-.08-.04-.08-.08v-.69s.03-.08.08-.08h0ZM7.19,7.81h5.36s.04.04.04.08v.68s-.01.09-.04.09h-5.36s-.04-.04-.04-.09v-.68s.01-.08.04-.08h0ZM3.55,6.19h2.46c.1,0,.18.08.18.18v2.11c0,.09-.08.18-.18.18h-2.46c-.1,0-.18-.09-.18-.18v-2.11c0-.09.08-.18.18-.18h0ZM7.21,6.19h12.06c.05,0,.09.04.09.08v.69s-.04.08-.09.08H7.21c-.05,0-.08-.04-.08-.08v-.69s.03-.08.08-.08h0ZM3.55,9.59h2.46c.1,0,.18.08.18.18v2.11c0,.1-.08.18-.18.18h-2.46c-.1,0-.18-.08-.18-.18v-2.11c0-.09.08-.18.18-.18h0ZM7.21,9.59h12.06c.05,0,.09.04.09.08v.68s-.04.08-.09.08H7.21c-.05,0-.08-.04-.08-.08v-.68s.03-.08.08-.08h0Z"/>
  </g>
</svg>