<?xml version="1.0" encoding="UTF-8"?>
<svg id="Layer_2" data-name="Layer 2" xmlns="http://www.w3.org/2000/svg" xmlns:xlink="http://www.w3.org/1999/xlink" viewBox="0 0 70.98 75.1">
  <defs>
    <style>
      .cls-1 {
        opacity: .14;
      }

      .cls-2 {
        fill: url(#linear-gradient-2);
      }

      .cls-3 {
        opacity: .21;
      }

      .cls-4 {
        opacity: .42;
      }

      .cls-5 {
        opacity: .55;
      }

      .cls-6 {
        opacity: .48;
      }

      .cls-7 {
        opacity: .35;
      }

      .cls-8 {
        fill: url(#linear-gradient-3);
      }

      .cls-9 {
        opacity: .08;
      }

      .cls-10 {
        opacity: .28;
      }

      .cls-11 {
        opacity: 0;
      }

      .cls-12 {
        fill: url(#linear-gradient);
      }
    </style>
    <linearGradient id="linear-gradient" x1="16.74" y1="4.82" x2="61.78" y2="49.86" gradientUnits="userSpaceOnUse">
      <stop offset="0" stop-color="#d79d81"/>
      <stop offset="1" stop-color="#f8d6b3"/>
    </linearGradient>
    <linearGradient id="linear-gradient-2" x1="-3.77" y1="9.51" x2="22.76" y2="36.03" gradientUnits="userSpaceOnUse">
      <stop offset="0" stop-color="#0594d6"/>
      <stop offset="1" stop-color="#7af5ff"/>
    </linearGradient>
    <linearGradient id="linear-gradient-3" x1="6.41" y1="-1.63" x2="60.27" y2="52.24" gradientUnits="userSpaceOnUse">
      <stop offset="0" stop-color="#2c2e2c"/>
      <stop offset=".99" stop-color="#000"/>
    </linearGradient>
  </defs>
  <g id="Layer_1-2" data-name="Layer 1">
    <g>
      <path class="cls-12" d="M17.32,40.76s4.25,1.38,9.01,10.14c4.75,8.76,8.51,15.89,11.14,16.52,2.63.62,7.76.25,7.13-6.13-.63-6.38-2.38-14.89-2.38-14.89h15.14c3,0,6.63-2,6.13-9.76-.5-7.76-3-27.78-3.88-30.53-.88-2.75-3.75-4.63-10.26-4.63h-17.27c-2.63,0-8.63,1.88-14.39,5.51,0,9.75-.38,33.79-.38,33.79Z"/>
      <path class="cls-2" d="M1.6,17.94v18.93c0,3.49,1.12,6.5,6.36,6.5s9.99-.7,9.99-6.99V8.65c0-2.87-1.61-6.15-6.15-6.15S1.6,2.99,1.6,8.09v9.85Z"/>
      <g>
        <path class="cls-11" d="M16.77,38.44c0-.97-.78-1.75-1.75-1.75s-1.74.78-1.74,1.75.78,1.75,1.74,1.75,1.75-.78,1.75-1.75ZM70.89,43.33c-.37-3.79-2.07-20.1-3.39-29.37-1.22-8.56-6.91-8.56-11.94-8.56h-16.73c-2.49,0-5.41.19-8.17,1.57-.84.42-1.17,1.43-.75,2.27.42.83,1.43,1.17,2.27.75,1.72-.86,3.65-1.21,6.66-1.21h16.73c5.77,0,7.86.46,8.59,5.65,1.31,9.21,3.01,25.45,3.37,29.22.23,2.38-.08,4.04-.91,4.96-.77.85-2.14,1.26-4.21,1.26h-15.36c-.5,0-.98.23-1.3.61-.32.39-.45.9-.36,1.39.01.08,1.37,7.34,2.46,15.35.27,1.97.16,3.25-.31,3.79-.41.48-1.41.71-2.96.71-1.74,0-2.32-.8-5.17-5.78-.58-1.02-1.24-2.18-2.01-3.49l-.51-.86c-2.99-5.05-4.79-8.11-7.25-11.98-1.51-2.38-3.14-3.91-5.1-4.8.07-.4.12-.81.12-1.23V12.97c0-3.68-2.95-6.67-6.58-6.67h-6.09c-3.63,0-6.58,2.99-6.58,6.67,0,.94.76,1.69,1.69,1.69s1.69-.75,1.69-1.69c0-1.82,1.44-3.29,3.2-3.29h6.09c1.76,0,3.2,1.48,3.2,3.29v30.62c0,1.81-1.44,3.29-3.2,3.29h-6.09c-1.77,0-3.2-1.48-3.2-3.29v-20.42c0-.93-.75-1.69-1.69-1.69s-1.69.75-1.69,1.69v20.42c0,3.67,2.95,6.67,6.58,6.67h6.09c2.02,0,3.82-.92,5.03-2.38,1.35.61,2.53,1.75,3.68,3.55,2.43,3.83,4.22,6.86,7.2,11.88l.51.87c.76,1.29,1.41,2.43,1.99,3.44,2.84,4.98,4.27,7.48,8.1,7.48,1.66,0,4.04-.19,5.51-1.87,1.53-1.75,1.4-4.37,1.11-6.46-.76-5.56-1.64-10.78-2.12-13.51h13.34c3.07,0,5.26-.78,6.71-2.37,1.52-1.67,2.1-4.15,1.78-7.55Z"/>
        <path class="cls-9" d="M16.15,37.82c0-.97-.78-1.75-1.75-1.75s-1.74.78-1.74,1.75.78,1.75,1.74,1.75,1.75-.78,1.75-1.75ZM70.26,42.71c-.37-3.79-2.07-20.1-3.39-29.37-1.22-8.56-6.91-8.56-11.94-8.56h-16.73c-2.49,0-5.41.19-8.17,1.57-.84.42-1.17,1.43-.75,2.27.42.83,1.43,1.17,2.27.75,1.72-.86,3.65-1.21,6.66-1.21h16.73c5.77,0,7.86.46,8.59,5.65,1.31,9.21,3.01,25.45,3.37,29.22.23,2.38-.08,4.04-.91,4.96-.77.85-2.14,1.26-4.21,1.26h-15.36c-.5,0-.98.23-1.3.61-.32.39-.45.9-.36,1.39.01.08,1.37,7.34,2.46,15.35.27,1.97.16,3.25-.31,3.79-.41.47-1.41.71-2.96.71-1.74,0-2.32-.8-5.17-5.78-.58-1.02-1.24-2.18-2.01-3.49l-.51-.86c-2.99-5.05-4.79-8.11-7.25-11.98-1.51-2.38-3.14-3.91-5.1-4.8.07-.4.12-.81.12-1.23V12.34c0-3.68-2.95-6.67-6.58-6.67h-6.09c-3.63,0-6.58,2.99-6.58,6.67,0,.94.76,1.69,1.69,1.69s1.69-.75,1.69-1.69c0-1.82,1.44-3.29,3.2-3.29h6.09c1.76,0,3.2,1.48,3.2,3.29v30.62c0,1.81-1.44,3.29-3.2,3.29h-6.09c-1.77,0-3.2-1.48-3.2-3.29v-20.42c0-.93-.75-1.69-1.69-1.69s-1.69.75-1.69,1.69v20.42c0,3.67,2.95,6.67,6.58,6.67h6.09c2.02,0,3.82-.92,5.03-2.38,1.35.61,2.53,1.75,3.68,3.55,2.43,3.83,4.22,6.86,7.2,11.88l.51.87c.76,1.29,1.41,2.43,1.99,3.44,2.84,4.98,4.27,7.48,8.1,7.48,1.66,0,4.04-.19,5.51-1.87,1.53-1.75,1.4-4.37,1.11-6.46-.76-5.56-1.64-10.78-2.12-13.51h13.34c3.07,0,5.26-.78,6.71-2.37,1.52-1.67,2.1-4.15,1.78-7.55Z"/>
        <path class="cls-1" d="M15.52,37.19c0-.97-.78-1.75-1.75-1.75s-1.74.78-1.74,1.75.78,1.75,1.74,1.75,1.75-.78,1.75-1.75ZM69.64,42.08c-.37-3.79-2.07-20.1-3.39-29.37-1.22-8.56-6.91-8.56-11.94-8.56h-16.73c-2.49,0-5.41.19-8.17,1.57-.84.42-1.17,1.43-.75,2.27.42.83,1.43,1.17,2.27.75,1.72-.86,3.65-1.21,6.66-1.21h16.73c5.77,0,7.86.46,8.59,5.65,1.31,9.21,3.01,25.45,3.37,29.22.23,2.38-.08,4.04-.91,4.96-.77.85-2.14,1.26-4.21,1.26h-15.36c-.5,0-.98.23-1.3.61-.32.39-.45.9-.36,1.39.01.08,1.37,7.34,2.46,15.35.27,1.97.16,3.25-.31,3.79-.41.47-1.41.71-2.96.71-1.74,0-2.32-.8-5.17-5.78-.58-1.02-1.24-2.18-2.01-3.49l-.51-.86c-2.99-5.05-4.79-8.11-7.25-11.98-1.51-2.38-3.14-3.91-5.1-4.8.07-.4.12-.81.12-1.23V11.72c0-3.68-2.95-6.67-6.58-6.67h-6.09c-3.63,0-6.58,2.99-6.58,6.67,0,.94.76,1.69,1.69,1.69s1.69-.75,1.69-1.69c0-1.82,1.44-3.29,3.2-3.29h6.09c1.76,0,3.2,1.48,3.2,3.29v30.62c0,1.81-1.44,3.29-3.2,3.29h-6.09c-1.77,0-3.2-1.48-3.2-3.29v-20.42c0-.93-.75-1.69-1.69-1.69s-1.69.75-1.69,1.69v20.42c0,3.67,2.95,6.67,6.58,6.67h6.09c2.02,0,3.82-.92,5.03-2.38,1.35.61,2.53,1.75,3.68,3.55,2.43,3.83,4.22,6.86,7.2,11.88l.51.87c.76,1.29,1.41,2.43,1.99,3.44,2.84,4.98,4.27,7.48,8.1,7.48,1.66,0,4.04-.19,5.51-1.87,1.53-1.75,1.4-4.37,1.11-6.46-.76-5.56-1.64-10.78-2.12-13.51h13.34c3.07,0,5.26-.78,6.71-2.37,1.52-1.67,2.1-4.15,1.78-7.55Z"/>
        <path class="cls-3" d="M14.9,36.57c0-.97-.78-1.75-1.75-1.75s-1.74.78-1.74,1.75.78,1.75,1.74,1.75,1.75-.78,1.75-1.75ZM69.01,41.46c-.37-3.79-2.07-20.1-3.39-29.37-1.22-8.56-6.91-8.56-11.94-8.56h-16.73c-2.49,0-5.41.19-8.17,1.57-.84.42-1.17,1.43-.75,2.27.42.83,1.43,1.17,2.27.75,1.72-.86,3.65-1.21,6.66-1.21h16.73c5.77,0,7.86.46,8.59,5.65,1.31,9.21,3.01,25.45,3.37,29.22.23,2.38-.08,4.04-.91,4.96-.77.85-2.14,1.26-4.21,1.26h-15.36c-.5,0-.98.23-1.3.61-.32.39-.45.9-.36,1.39.01.08,1.37,7.34,2.46,15.35.27,1.97.16,3.25-.31,3.79-.41.47-1.41.71-2.96.71-1.74,0-2.32-.8-5.17-5.78-.58-1.02-1.24-2.18-2.01-3.49l-.51-.86c-2.99-5.05-4.79-8.11-7.25-11.98-1.51-2.38-3.14-3.91-5.1-4.8.07-.4.12-.81.12-1.23V11.09c0-3.68-2.95-6.67-6.58-6.67h-6.09c-3.63,0-6.58,2.99-6.58,6.67,0,.94.76,1.69,1.69,1.69s1.69-.75,1.69-1.69c0-1.82,1.44-3.29,3.2-3.29h6.09c1.76,0,3.2,1.48,3.2,3.29v30.62c0,1.81-1.44,3.29-3.2,3.29h-6.09c-1.77,0-3.2-1.48-3.2-3.29v-20.42c0-.93-.75-1.69-1.69-1.69s-1.69.75-1.69,1.69v20.42c0,3.67,2.95,6.67,6.58,6.67h6.09c2.02,0,3.82-.92,5.03-2.38,1.35.61,2.53,1.75,3.68,3.55,2.43,3.83,4.22,6.86,7.2,11.88l.51.87c.76,1.29,1.41,2.43,1.99,3.44,2.84,4.98,4.27,7.48,8.1,7.48,1.66,0,4.04-.19,5.51-1.87,1.53-1.75,1.4-4.37,1.11-6.46-.76-5.56-1.64-10.78-2.12-13.51h13.34c3.07,0,5.26-.78,6.71-2.37,1.52-1.67,2.1-4.15,1.78-7.55Z"/>
        <path class="cls-10" d="M14.27,35.94c0-.97-.78-1.75-1.75-1.75s-1.74.78-1.74,1.75.78,1.75,1.74,1.75,1.75-.78,1.75-1.75ZM68.39,40.83c-.37-3.79-2.07-20.1-3.39-29.37-1.22-8.56-6.91-8.56-11.94-8.56h-16.73c-2.49,0-5.41.19-8.17,1.57-.84.42-1.17,1.43-.75,2.27.42.83,1.43,1.17,2.27.75,1.72-.86,3.65-1.21,6.66-1.21h16.73c5.77,0,7.86.46,8.59,5.65,1.31,9.21,3.01,25.45,3.37,29.22.23,2.38-.08,4.04-.91,4.96-.77.85-2.14,1.26-4.21,1.26h-15.36c-.5,0-.98.23-1.3.61-.32.39-.45.9-.36,1.39.01.08,1.37,7.34,2.46,15.35.27,1.97.16,3.25-.31,3.79-.41.47-1.41.71-2.96.71-1.74,0-2.32-.8-5.17-5.78-.58-1.02-1.24-2.18-2.01-3.49l-.51-.86c-2.99-5.05-4.79-8.11-7.25-11.98-1.51-2.38-3.14-3.91-5.1-4.8.07-.4.12-.81.12-1.23V10.47c0-3.68-2.95-6.67-6.58-6.67h-6.09c-3.63,0-6.58,2.99-6.58,6.67,0,.94.76,1.69,1.69,1.69s1.69-.75,1.69-1.69c0-1.82,1.44-3.29,3.2-3.29h6.09c1.76,0,3.2,1.48,3.2,3.29v30.62c0,1.81-1.44,3.29-3.2,3.29h-6.09c-1.77,0-3.2-1.48-3.2-3.29v-20.42c0-.93-.75-1.69-1.69-1.69s-1.69.75-1.69,1.69v20.42c0,3.67,2.95,6.67,6.58,6.67h6.09c2.02,0,3.82-.92,5.03-2.38,1.35.61,2.53,1.75,3.68,3.55,2.43,3.83,4.22,6.86,7.2,11.88l.51.87c.76,1.29,1.41,2.43,1.99,3.44,2.84,4.98,4.27,7.48,8.1,7.48,1.66,0,4.04-.19,5.51-1.87,1.53-1.75,1.4-4.37,1.11-6.46-.76-5.56-1.64-10.78-2.12-13.51h13.34c3.07,0,5.26-.78,6.71-2.37,1.52-1.67,2.1-4.15,1.78-7.55Z"/>
        <path class="cls-7" d="M13.65,35.32c0-.97-.78-1.75-1.75-1.75s-1.74.78-1.74,1.75.78,1.75,1.74,1.75,1.75-.78,1.75-1.75ZM67.76,40.21c-.37-3.79-2.07-20.1-3.39-29.37-1.22-8.56-6.91-8.56-11.94-8.56h-16.73c-2.49,0-5.41.19-8.17,1.57-.84.42-1.17,1.43-.75,2.27.42.83,1.43,1.17,2.27.75,1.72-.86,3.65-1.21,6.66-1.21h16.73c5.77,0,7.86.46,8.59,5.65,1.31,9.21,3.01,25.45,3.37,29.22.23,2.38-.08,4.04-.91,4.96-.77.85-2.14,1.26-4.21,1.26h-15.36c-.5,0-.98.23-1.3.61-.32.39-.45.9-.36,1.39.01.08,1.37,7.34,2.46,15.35.27,1.97.16,3.25-.31,3.79-.41.47-1.41.71-2.96.71-1.74,0-2.32-.8-5.17-5.78-.58-1.02-1.24-2.18-2.01-3.49l-.51-.86c-2.99-5.05-4.79-8.11-7.25-11.98-1.51-2.38-3.14-3.91-5.1-4.8.07-.4.12-.81.12-1.23V9.84c0-3.68-2.95-6.67-6.58-6.67h-6.09c-3.63,0-6.58,2.99-6.58,6.67,0,.94.76,1.69,1.69,1.69s1.69-.75,1.69-1.69c0-1.82,1.44-3.29,3.2-3.29h6.09c1.76,0,3.2,1.48,3.2,3.29v30.62c0,1.81-1.44,3.29-3.2,3.29h-6.09c-1.77,0-3.2-1.48-3.2-3.29v-20.42c0-.93-.75-1.69-1.69-1.69s-1.69.75-1.69,1.69v20.42c0,3.67,2.95,6.67,6.58,6.67h6.09c2.02,0,3.82-.92,5.03-2.38,1.35.61,2.53,1.75,3.68,3.55,2.43,3.83,4.22,6.86,7.2,11.88l.51.87c.76,1.29,1.41,2.43,1.99,3.44,2.84,4.98,4.27,7.48,8.1,7.48,1.66,0,4.04-.19,5.51-1.87,1.53-1.75,1.4-4.37,1.11-6.46-.76-5.56-1.64-10.78-2.12-13.51h13.34c3.07,0,5.26-.78,6.71-2.37,1.52-1.67,2.1-4.15,1.78-7.55Z"/>
        <path class="cls-4" d="M13.02,34.69c0-.97-.78-1.75-1.75-1.75s-1.74.78-1.74,1.75.78,1.75,1.74,1.75,1.75-.78,1.75-1.75ZM67.14,39.58c-.37-3.79-2.07-20.1-3.39-29.37-1.22-8.56-6.91-8.56-11.94-8.56h-16.73c-2.49,0-5.41.19-8.17,1.57-.84.42-1.17,1.43-.75,2.27.42.83,1.43,1.17,2.27.75,1.72-.86,3.65-1.21,6.66-1.21h16.73c5.77,0,7.86.46,8.59,5.65,1.31,9.21,3.01,25.45,3.37,29.22.23,2.38-.08,4.04-.91,4.96-.77.85-2.14,1.26-4.21,1.26h-15.36c-.5,0-.98.23-1.3.61-.32.39-.45.9-.36,1.39.01.08,1.37,7.34,2.46,15.35.27,1.97.16,3.25-.31,3.79-.41.47-1.41.71-2.96.71-1.74,0-2.32-.8-5.17-5.78-.58-1.02-1.24-2.18-2.01-3.49l-.51-.86c-2.99-5.05-4.79-8.11-7.25-11.98-1.51-2.38-3.14-3.91-5.1-4.8.07-.4.12-.81.12-1.23V9.22c0-3.68-2.95-6.67-6.58-6.67h-6.09c-3.63,0-6.58,2.99-6.58,6.67,0,.94.76,1.69,1.69,1.69s1.69-.75,1.69-1.69c0-1.82,1.44-3.29,3.2-3.29h6.09c1.76,0,3.2,1.48,3.2,3.29v30.62c0,1.81-1.44,3.29-3.2,3.29h-6.09c-1.77,0-3.2-1.48-3.2-3.29v-20.42c0-.93-.75-1.69-1.69-1.69s-1.69.75-1.69,1.69v20.42c0,3.67,2.95,6.67,6.58,6.67h6.09c2.02,0,3.82-.92,5.03-2.38,1.35.61,2.53,1.75,3.68,3.55,2.43,3.83,4.22,6.86,7.2,11.88l.51.87c.76,1.29,1.41,2.43,1.99,3.44,2.84,4.98,4.27,7.48,8.1,7.48,1.66,0,4.04-.19,5.51-1.87,1.53-1.75,1.4-4.37,1.11-6.46-.76-5.56-1.64-10.78-2.12-13.51h13.34c3.07,0,5.26-.78,6.71-2.37,1.52-1.67,2.1-4.15,1.78-7.55Z"/>
        <path class="cls-6" d="M12.4,34.07c0-.97-.78-1.75-1.75-1.75s-1.74.78-1.74,1.75.78,1.75,1.74,1.75,1.75-.78,1.75-1.75ZM66.51,38.96c-.37-3.79-2.07-20.1-3.39-29.37-1.22-8.56-6.91-8.56-11.94-8.56h-16.73c-2.49,0-5.41.19-8.17,1.57-.84.42-1.17,1.43-.75,2.27.42.83,1.43,1.17,2.27.75,1.72-.86,3.65-1.21,6.66-1.21h16.73c5.77,0,7.86.46,8.59,5.65,1.31,9.21,3.01,25.45,3.37,29.22.23,2.38-.08,4.04-.91,4.96-.77.85-2.14,1.26-4.21,1.26h-15.36c-.5,0-.98.23-1.3.61-.32.39-.45.9-.36,1.39.01.08,1.37,7.34,2.46,15.35.27,1.97.16,3.25-.31,3.79-.41.47-1.41.71-2.96.71-1.74,0-2.32-.8-5.17-5.78-.58-1.02-1.24-2.18-2.01-3.49l-.51-.86c-2.99-5.05-4.79-8.11-7.25-11.98-1.51-2.38-3.14-3.91-5.1-4.8.07-.4.12-.81.12-1.23V8.59c0-3.68-2.95-6.67-6.58-6.67h-6.09C3.98,1.92,1.03,4.91,1.03,8.59c0,.94.76,1.69,1.69,1.69s1.69-.75,1.69-1.69c0-1.82,1.44-3.29,3.2-3.29h6.09c1.76,0,3.2,1.48,3.2,3.29v30.62c0,1.81-1.44,3.29-3.2,3.29h-6.09c-1.77,0-3.2-1.48-3.2-3.29v-20.42c0-.93-.75-1.69-1.69-1.69s-1.69.75-1.69,1.69v20.42c0,3.67,2.95,6.67,6.58,6.67h6.09c2.02,0,3.82-.92,5.03-2.38,1.35.61,2.53,1.75,3.68,3.55,2.43,3.83,4.22,6.86,7.2,11.88l.51.87c.76,1.29,1.41,2.43,1.99,3.44,2.84,4.98,4.27,7.48,8.1,7.48,1.66,0,4.04-.19,5.51-1.87,1.53-1.75,1.4-4.37,1.11-6.46-.76-5.56-1.64-10.78-2.12-13.51h13.34c3.07,0,5.26-.78,6.71-2.37,1.52-1.67,2.1-4.15,1.78-7.55Z"/>
        <path class="cls-5" d="M11.77,33.44c0-.97-.78-1.75-1.75-1.75s-1.74.78-1.74,1.75.78,1.75,1.74,1.75,1.75-.78,1.75-1.75ZM65.89,38.33c-.37-3.79-2.07-20.1-3.39-29.37C61.28.41,55.58.41,50.56.41h-16.73c-2.49,0-5.41.19-8.17,1.57-.84.42-1.17,1.43-.75,2.27.42.83,1.43,1.17,2.27.75,1.72-.86,3.65-1.21,6.66-1.21h16.73c5.77,0,7.86.46,8.59,5.65,1.31,9.21,3.01,25.45,3.37,29.22.23,2.38-.08,4.04-.91,4.96-.77.85-2.14,1.26-4.21,1.26h-15.36c-.5,0-.98.23-1.3.61-.32.39-.45.9-.36,1.39.01.08,1.37,7.34,2.46,15.35.27,1.97.16,3.25-.31,3.79-.41.48-1.41.71-2.96.71-1.74,0-2.32-.8-5.17-5.78-.58-1.02-1.24-2.18-2.01-3.49l-.51-.86c-2.99-5.05-4.79-8.11-7.25-11.98-1.51-2.38-3.14-3.91-5.1-4.8.07-.4.12-.81.12-1.23V7.97c0-3.68-2.95-6.67-6.58-6.67h-6.09C3.36,1.3.41,4.29.41,7.97c0,.94.76,1.69,1.69,1.69s1.69-.75,1.69-1.69c0-1.82,1.44-3.29,3.2-3.29h6.09c1.76,0,3.2,1.48,3.2,3.29v30.62c0,1.81-1.44,3.29-3.2,3.29h-6.09c-1.77,0-3.2-1.48-3.2-3.29v-20.42c0-.93-.75-1.69-1.69-1.69s-1.69.75-1.69,1.69v20.42c0,3.67,2.95,6.67,6.58,6.67h6.09c2.02,0,3.82-.92,5.03-2.38,1.35.61,2.53,1.75,3.68,3.55,2.43,3.83,4.22,6.86,7.2,11.88l.51.87c.76,1.29,1.41,2.43,1.99,3.44,2.84,4.98,4.27,7.48,8.1,7.48,1.66,0,4.04-.19,5.51-1.87,1.53-1.75,1.4-4.37,1.11-6.46-.76-5.56-1.64-10.78-2.12-13.51h13.34c3.07,0,5.26-.78,6.71-2.37,1.52-1.67,2.1-4.15,1.78-7.55Z"/>
      </g>
      <path class="cls-8" d="M11.37,33.04c0-.97-.78-1.75-1.75-1.75s-1.74.78-1.74,1.75.78,1.75,1.74,1.75,1.75-.78,1.75-1.75ZM65.48,37.93c-.37-3.79-2.07-20.1-3.39-29.37C60.87,0,55.18,0,50.15,0h-16.73c-2.49,0-5.41.19-8.17,1.57-.83.42-1.17,1.43-.75,2.27.42.83,1.43,1.17,2.27.75,1.72-.86,3.65-1.21,6.66-1.21h16.73c5.77,0,7.86.46,8.59,5.65,1.31,9.21,3.01,25.45,3.37,29.22.23,2.38-.08,4.04-.91,4.96-.77.85-2.14,1.26-4.21,1.26h-15.36c-.5,0-.98.23-1.3.61-.32.39-.45.9-.36,1.39.01.08,1.37,7.34,2.46,15.35.27,1.97.16,3.25-.31,3.79-.41.48-1.41.71-2.96.71-1.74,0-2.32-.8-5.17-5.78-.58-1.02-1.24-2.18-2.01-3.49l-.51-.86c-2.99-5.05-4.79-8.11-7.25-11.98-1.51-2.38-3.14-3.91-5.1-4.8.07-.4.12-.81.12-1.23V7.56c0-3.68-2.95-6.67-6.58-6.67h-6.09C2.95.89,0,3.88,0,7.56c0,.94.76,1.69,1.69,1.69s1.69-.75,1.69-1.69c0-1.82,1.44-3.29,3.2-3.29h6.09c1.76,0,3.2,1.48,3.2,3.29v30.62c0,1.81-1.44,3.29-3.2,3.29h-6.09c-1.77,0-3.2-1.48-3.2-3.29v-20.42c0-.93-.75-1.69-1.69-1.69s-1.69.75-1.69,1.69v20.42c0,3.67,2.95,6.67,6.58,6.67h6.09c2.02,0,3.82-.92,5.03-2.38,1.35.61,2.53,1.75,3.68,3.55,2.43,3.83,4.22,6.86,7.2,11.88l.51.87c.76,1.29,1.41,2.43,1.99,3.44,2.84,4.98,4.27,7.48,8.1,7.48,1.66,0,4.04-.19,5.51-1.87,1.53-1.75,1.4-4.37,1.11-6.46-.76-5.56-1.64-10.78-2.12-13.51h13.34c3.07,0,5.26-.78,6.71-2.37,1.52-1.67,2.1-4.15,1.78-7.55Z"/>
    </g>
  </g>
</svg>