<?xml version="1.0" encoding="UTF-8"?>
<svg id="Layer_2" data-name="Layer 2" xmlns="http://www.w3.org/2000/svg" xmlns:xlink="http://www.w3.org/1999/xlink" viewBox="0 0 79.98 77.78">
  <defs>
    <style>
      .cls-1 {
        opacity: .14;
      }

      .cls-2 {
        fill: url(#linear-gradient-2);
      }

      .cls-3 {
        opacity: .21;
      }

      .cls-4 {
        opacity: .42;
      }

      .cls-5 {
        opacity: .55;
      }

      .cls-6 {
        opacity: .48;
      }

      .cls-7 {
        opacity: .35;
      }

      .cls-8 {
        opacity: .08;
      }

      .cls-9 {
        opacity: .28;
      }

      .cls-10 {
        opacity: 0;
      }

      .cls-11 {
        fill: url(#linear-gradient);
      }
    </style>
    <linearGradient id="linear-gradient" x1="11.04" y1="11" x2="60.68" y2="60.64" gradientUnits="userSpaceOnUse">
      <stop offset="0" stop-color="#787878"/>
      <stop offset="1" stop-color="#b4b4b4"/>
    </linearGradient>
    <linearGradient id="linear-gradient-2" x1="17.82" y1="5.39" x2="66.99" y2="54.56" gradientUnits="userSpaceOnUse">
      <stop offset="0" stop-color="#2c2e2c"/>
      <stop offset=".99" stop-color="#000"/>
    </linearGradient>
  </defs>
  <g id="Layer_1-2" data-name="Layer 1">
    <g>
      <path class="cls-11" d="M43.14,14.64s21.44,21.6,24.14,24.3c2.7,2.7,5.4,6.83-1.27,13.82-6.67,6.99-13.34,13.5-15.57,15.57-2.22,2.07-6.67,3.65-11.75-1.27-5.08-4.92-32.4-32.25-34.15-34.47-1.75-2.22-4.92-6.51.48-12.07,5.4-5.56,14.61-14.61,16.52-16.36,1.91-1.75,7.62-3.97,11.91.79,4.29,4.76,9.69,9.69,9.69,9.69Z"/>
      <g>
        <path class="cls-10" d="M56.3,49.49c.66.66,1.73.66,2.39,0l2.57-2.57c.66-.66.66-1.73,0-2.39-.66-.66-1.73-.66-2.39,0l-1.38,1.37-1.79-1.79c-.66-.66-1.73-.66-2.39,0s-.66,1.73,0,2.39l2.98,2.98ZM56.22,61.09c.66.66,1.73.66,2.39,0l2.57-2.57c.66-.66.66-1.73,0-2.39-.66-.66-1.73-.66-2.39,0l-1.38,1.37-1.79-1.79c-.66-.66-1.73-.66-2.39,0-.66.66-.66,1.73,0,2.39l2.98,2.98ZM49.49,44.45c-.66-.66-1.73-.66-2.39,0l-1.37,1.37-1.79-1.79c-.66-.66-1.73-.66-2.39,0-.66.66-.66,1.73,0,2.39l2.98,2.98c.66.66,1.73.66,2.39,0l2.57-2.57c.66-.66.66-1.73,0-2.39ZM47.1,56.3l-1.37,1.38-1.79-1.79c-.66-.66-1.73-.66-2.39,0-.66.66-.66,1.73,0,2.39l2.98,2.98c.66.66,1.73.66,2.39,0l2.57-2.57c.66-.66.66-1.73,0-2.39-.66-.66-1.73-.66-2.39,0ZM37.48,23.09c-.66-.66-1.73-.66-2.39,0l-4.8,4.8-4.8-4.8c-.66-.66-1.73-.66-2.39,0-.66.66-.66,1.73,0,2.39l4.8,4.8-4.8,4.8c-.66.66-.66,1.73,0,2.39.66.66,1.73.66,2.39,0l4.8-4.8,4.8,4.8c.66.66,1.73.66,2.39,0,.66-.66.66-1.73,0-2.39l-4.8-4.8,4.8-4.8c.66-.66.66-1.73,0-2.39ZM63.04,24.16c1.31.04,2.61.63,3.66,1.69,2.25,2.24,4.25,3.35,6.29,3.47.12,0,.25.01.37.01,2.04,0,4.05-1.01,6.12-3.08.66-.66.66-1.73,0-2.39-.66-.66-1.73-.66-2.39,0-2.92,2.91-4.78,2.82-8.01-.4-1.66-1.66-3.78-2.61-5.95-2.67-2.26-.06-4.46.85-6.18,2.57l-2.42,2.42c-.09.09-.16.18-.22.28-.6.66-.59,1.69.05,2.33l18.37,18.37c2.24,2.24,2.24,5.88,0,8.13l-17.87,17.86c-1.09,1.09-2.53,1.68-4.06,1.68s-2.98-.6-4.06-1.68L10.47,36.45c-1.28-1.27-1.87-3.03-1.63-4.82.17-1.26.73-2.4,1.63-3.3L28.34,10.47c1.08-1.08,2.53-1.68,4.06-1.68s2.98.6,4.06,1.68l11.2,11.2c.66.66,1.73.66,2.39,0,.66-.66.66-1.73,0-2.39l-11.2-11.2c-1.73-1.72-4.02-2.67-6.45-2.67s-4.73.95-6.45,2.67L8.08,25.94c-1.43,1.43-2.33,3.25-2.59,5.25-.38,2.84.57,5.63,2.59,7.66l36.27,36.27c1.72,1.72,4.01,2.67,6.45,2.67s4.73-.95,6.45-2.67l17.87-17.87c3.56-3.56,3.56-9.35,0-12.9l-17.19-17.19,1.42-1.42c1.07-1.07,2.36-1.62,3.7-1.58Z"/>
        <path class="cls-8" d="M55.68,48.87c.66.66,1.73.66,2.39,0l2.57-2.57c.66-.66.66-1.73,0-2.39-.66-.66-1.73-.66-2.39,0l-1.38,1.37-1.79-1.79c-.66-.66-1.73-.66-2.39,0s-.66,1.73,0,2.39l2.98,2.98ZM55.6,60.47c.66.66,1.73.66,2.39,0l2.57-2.57c.66-.66.66-1.73,0-2.39-.66-.66-1.73-.66-2.39,0l-1.38,1.37-1.79-1.79c-.66-.66-1.73-.66-2.39,0-.66.66-.66,1.73,0,2.39l2.98,2.98ZM48.87,43.82c-.66-.66-1.73-.66-2.39,0l-1.37,1.37-1.79-1.79c-.66-.66-1.73-.66-2.39,0-.66.66-.66,1.73,0,2.39l2.98,2.98c.66.66,1.73.66,2.39,0l2.57-2.57c.66-.66.66-1.73,0-2.39ZM46.48,55.68l-1.37,1.38-1.79-1.79c-.66-.66-1.73-.66-2.39,0-.66.66-.66,1.73,0,2.39l2.98,2.98c.66.66,1.73.66,2.39,0l2.57-2.57c.66-.66.66-1.73,0-2.39-.66-.66-1.73-.66-2.39,0ZM36.85,22.47c-.66-.66-1.73-.66-2.39,0l-4.8,4.8-4.8-4.8c-.66-.66-1.73-.66-2.39,0-.66.66-.66,1.73,0,2.39l4.8,4.8-4.8,4.8c-.66.66-.66,1.73,0,2.39.66.66,1.73.66,2.39,0l4.8-4.8,4.8,4.8c.66.66,1.73.66,2.39,0,.66-.66.66-1.73,0-2.39l-4.8-4.8,4.8-4.8c.66-.66.66-1.73,0-2.39ZM62.41,23.53c1.31.04,2.61.63,3.66,1.69,2.25,2.24,4.25,3.33,6.29,3.47.12,0,.25.01.37.01,2.04,0,4.05-1.01,6.12-3.08.66-.66.66-1.73,0-2.39-.66-.66-1.73-.66-2.39,0-2.92,2.91-4.78,2.82-8.01-.4-1.66-1.66-3.78-2.61-5.95-2.67-2.26-.06-4.46.85-6.18,2.57l-2.42,2.42c-.09.09-.16.18-.22.28-.6.66-.59,1.69.05,2.33l18.37,18.37c2.24,2.24,2.24,5.88,0,8.13l-17.87,17.86c-1.09,1.09-2.53,1.68-4.06,1.68s-2.98-.6-4.06-1.68L9.84,35.83c-1.28-1.27-1.87-3.03-1.63-4.82.17-1.26.73-2.4,1.63-3.3L27.71,9.84c1.08-1.08,2.53-1.68,4.06-1.68s2.98.6,4.06,1.68l11.2,11.2c.66.66,1.73.66,2.39,0,.66-.66.66-1.73,0-2.39l-11.2-11.2c-1.73-1.72-4.02-2.67-6.45-2.67s-4.73.95-6.45,2.67L7.46,25.32c-1.43,1.43-2.33,3.25-2.59,5.25-.38,2.84.57,5.63,2.59,7.66l36.27,36.27c1.72,1.72,4.01,2.67,6.45,2.67s4.73-.95,6.45-2.67l17.87-17.87c3.56-3.56,3.56-9.35,0-12.9l-17.19-17.19,1.42-1.42c1.07-1.07,2.36-1.62,3.7-1.58Z"/>
        <path class="cls-1" d="M55.05,48.24c.66.66,1.73.66,2.39,0l2.57-2.57c.66-.66.66-1.73,0-2.39-.66-.66-1.73-.66-2.39,0l-1.38,1.37-1.79-1.79c-.66-.66-1.73-.66-2.39,0s-.66,1.73,0,2.39l2.98,2.98ZM54.97,59.84c.66.66,1.73.66,2.39,0l2.57-2.57c.66-.66.66-1.73,0-2.39-.66-.66-1.73-.66-2.39,0l-1.38,1.37-1.79-1.79c-.66-.66-1.73-.66-2.39,0-.66.66-.66,1.73,0,2.39l2.98,2.98ZM48.24,43.2c-.66-.66-1.73-.66-2.39,0l-1.37,1.37-1.79-1.79c-.66-.66-1.73-.66-2.39,0-.66.66-.66,1.73,0,2.39l2.98,2.98c.66.66,1.73.66,2.39,0l2.57-2.57c.66-.66.66-1.73,0-2.39ZM45.85,55.05l-1.37,1.38-1.79-1.79c-.66-.66-1.73-.66-2.39,0-.66.66-.66,1.73,0,2.39l2.98,2.98c.66.66,1.73.66,2.39,0l2.57-2.57c.66-.66.66-1.73,0-2.39-.66-.66-1.73-.66-2.39,0ZM36.23,21.84c-.66-.66-1.73-.66-2.39,0l-4.8,4.8-4.8-4.8c-.66-.66-1.73-.66-2.39,0-.66.66-.66,1.73,0,2.39l4.8,4.8-4.8,4.8c-.66.66-.66,1.73,0,2.39.66.66,1.73.66,2.39,0l4.8-4.8,4.8,4.8c.66.66,1.73.66,2.39,0,.66-.66.66-1.73,0-2.39l-4.8-4.8,4.8-4.8c.66-.66.66-1.73,0-2.39ZM61.79,22.91c1.31.04,2.61.63,3.66,1.69,2.25,2.24,4.25,3.33,6.29,3.47.12,0,.25.01.37.01,2.04,0,4.05-1.01,6.12-3.08.66-.66.66-1.73,0-2.39-.66-.66-1.73-.66-2.39,0-2.92,2.91-4.78,2.82-8.01-.4-1.66-1.66-3.78-2.61-5.95-2.67-2.26-.06-4.46.85-6.18,2.57l-2.42,2.42c-.09.09-.16.18-.22.28-.6.66-.59,1.69.05,2.33l18.37,18.37c2.24,2.24,2.24,5.88,0,8.13l-17.87,17.86c-1.09,1.09-2.53,1.68-4.06,1.68s-2.98-.6-4.06-1.68L9.22,35.2c-1.28-1.27-1.87-3.03-1.63-4.82.17-1.26.73-2.4,1.63-3.3L27.09,9.22c1.08-1.08,2.53-1.68,4.06-1.68s2.98.6,4.06,1.68l11.2,11.2c.66.66,1.73.66,2.39,0,.66-.66.66-1.73,0-2.39l-11.2-11.2c-1.73-1.72-4.02-2.67-6.45-2.67s-4.73.95-6.45,2.67L6.83,24.69c-1.43,1.43-2.33,3.25-2.59,5.25-.38,2.84.57,5.63,2.59,7.66l36.27,36.27c1.72,1.72,4.01,2.67,6.45,2.67s4.73-.95,6.45-2.67l17.87-17.87c3.56-3.56,3.56-9.35,0-12.9l-17.19-17.19,1.42-1.42c1.07-1.07,2.36-1.62,3.7-1.58Z"/>
        <path class="cls-3" d="M54.43,47.62c.66.66,1.73.66,2.39,0l2.57-2.57c.66-.66.66-1.73,0-2.39-.66-.66-1.73-.66-2.39,0l-1.38,1.37-1.79-1.79c-.66-.66-1.73-.66-2.39,0s-.66,1.73,0,2.39l2.98,2.98ZM54.35,59.22c.66.66,1.73.66,2.39,0l2.57-2.57c.66-.66.66-1.73,0-2.39-.66-.66-1.73-.66-2.39,0l-1.38,1.37-1.79-1.79c-.66-.66-1.73-.66-2.39,0-.66.66-.66,1.73,0,2.39l2.98,2.98ZM47.62,42.57c-.66-.66-1.73-.66-2.39,0l-1.37,1.37-1.79-1.79c-.66-.66-1.73-.66-2.39,0-.66.66-.66,1.73,0,2.39l2.98,2.98c.66.66,1.73.66,2.39,0l2.57-2.57c.66-.66.66-1.73,0-2.39ZM45.23,54.43l-1.37,1.38-1.79-1.79c-.66-.66-1.73-.66-2.39,0-.66.66-.66,1.73,0,2.39l2.98,2.98c.66.66,1.73.66,2.39,0l2.57-2.57c.66-.66.66-1.73,0-2.39-.66-.66-1.73-.66-2.39,0ZM35.6,21.22c-.66-.66-1.73-.66-2.39,0l-4.8,4.8-4.8-4.8c-.66-.66-1.73-.66-2.39,0-.66.66-.66,1.73,0,2.39l4.8,4.8-4.8,4.8c-.66.66-.66,1.73,0,2.39.66.66,1.73.66,2.39,0l4.8-4.8,4.8,4.8c.66.66,1.73.66,2.39,0,.66-.66.66-1.73,0-2.39l-4.8-4.8,4.8-4.8c.66-.66.66-1.73,0-2.39ZM61.16,22.28c1.31.04,2.61.63,3.66,1.69,2.25,2.24,4.25,3.33,6.29,3.47.12,0,.25.01.37.01,2.04,0,4.05-1.01,6.12-3.08.66-.66.66-1.73,0-2.39-.66-.66-1.73-.66-2.39,0-2.92,2.91-4.78,2.82-8.01-.4-1.66-1.66-3.78-2.61-5.95-2.67-2.26-.06-4.46.85-6.18,2.57l-2.42,2.42c-.09.09-.16.18-.22.28-.6.66-.59,1.69.05,2.33l18.37,18.37c2.24,2.24,2.24,5.88,0,8.13l-17.87,17.86c-1.09,1.09-2.53,1.68-4.06,1.68s-2.98-.6-4.06-1.68L8.59,34.58c-1.28-1.27-1.87-3.03-1.63-4.82.17-1.26.73-2.4,1.63-3.3L26.46,8.59c1.08-1.08,2.53-1.68,4.06-1.68s2.98.6,4.06,1.68l11.2,11.2c.66.66,1.73.66,2.39,0,.66-.66.66-1.73,0-2.39l-11.2-11.2c-1.73-1.72-4.02-2.67-6.45-2.67s-4.73.95-6.45,2.67L6.21,24.07c-1.43,1.43-2.33,3.25-2.59,5.25-.38,2.84.57,5.63,2.59,7.66l36.27,36.27c1.72,1.72,4.01,2.67,6.45,2.67s4.73-.95,6.45-2.67l17.87-17.87c3.56-3.56,3.56-9.35,0-12.9l-17.19-17.19,1.42-1.42c1.07-1.07,2.36-1.62,3.7-1.58Z"/>
        <path class="cls-9" d="M53.8,46.99c.66.66,1.73.66,2.39,0l2.57-2.57c.66-.66.66-1.73,0-2.39-.66-.66-1.73-.66-2.39,0l-1.38,1.37-1.79-1.79c-.66-.66-1.73-.66-2.39,0s-.66,1.73,0,2.39l2.98,2.98ZM53.72,58.59c.66.66,1.73.66,2.39,0l2.57-2.57c.66-.66.66-1.73,0-2.39-.66-.66-1.73-.66-2.39,0l-1.38,1.37-1.79-1.79c-.66-.66-1.73-.66-2.39,0-.66.66-.66,1.73,0,2.39l2.98,2.98ZM46.99,41.95c-.66-.66-1.73-.66-2.39,0l-1.37,1.37-1.79-1.79c-.66-.66-1.73-.66-2.39,0-.66.66-.66,1.73,0,2.39l2.98,2.98c.66.66,1.73.66,2.39,0l2.57-2.57c.66-.66.66-1.73,0-2.39ZM44.6,53.8l-1.37,1.38-1.79-1.79c-.66-.66-1.73-.66-2.39,0-.66.66-.66,1.73,0,2.39l2.98,2.98c.66.66,1.73.66,2.39,0l2.57-2.57c.66-.66.66-1.73,0-2.39-.66-.66-1.73-.66-2.39,0ZM34.98,20.59c-.66-.66-1.73-.66-2.39,0l-4.8,4.8-4.8-4.8c-.66-.66-1.73-.66-2.39,0-.66.66-.66,1.73,0,2.39l4.8,4.8-4.8,4.8c-.66.66-.66,1.73,0,2.39.66.66,1.73.66,2.39,0l4.8-4.8,4.8,4.8c.66.66,1.73.66,2.39,0,.66-.66.66-1.73,0-2.39l-4.8-4.8,4.8-4.8c.66-.66.66-1.73,0-2.39ZM60.54,21.66c1.31.04,2.61.63,3.66,1.69,2.25,2.24,4.25,3.33,6.29,3.47.12,0,.25.01.37.01,2.04,0,4.05-1.01,6.12-3.08.66-.66.66-1.73,0-2.39-.66-.66-1.73-.66-2.39,0-2.92,2.91-4.78,2.82-8.01-.4-1.66-1.66-3.78-2.61-5.95-2.67-2.26-.06-4.46.85-6.18,2.57l-2.42,2.42c-.09.09-.16.18-.22.28-.6.66-.59,1.69.05,2.33l18.37,18.37c2.24,2.24,2.24,5.88,0,8.13l-17.87,17.86c-1.09,1.09-2.53,1.68-4.06,1.68s-2.98-.6-4.06-1.68L7.97,33.95c-1.28-1.27-1.87-3.03-1.63-4.82.17-1.26.73-2.4,1.63-3.3L25.84,7.97c1.08-1.08,2.53-1.68,4.06-1.68s2.98.6,4.06,1.68l11.2,11.2c.66.66,1.73.66,2.39,0,.66-.66.66-1.73,0-2.39l-11.2-11.2c-1.73-1.72-4.02-2.67-6.45-2.67s-4.73.95-6.45,2.67L5.58,23.44c-1.43,1.43-2.33,3.25-2.59,5.25-.38,2.84.57,5.63,2.59,7.66l36.27,36.27c1.72,1.72,4.01,2.67,6.45,2.67s4.73-.95,6.45-2.67l17.87-17.87c3.56-3.56,3.56-9.35,0-12.9l-17.19-17.19,1.42-1.42c1.07-1.07,2.36-1.62,3.7-1.58Z"/>
        <path class="cls-7" d="M53.18,46.37c.66.66,1.73.66,2.39,0l2.57-2.57c.66-.66.66-1.73,0-2.39-.66-.66-1.73-.66-2.39,0l-1.38,1.37-1.79-1.79c-.66-.66-1.73-.66-2.39,0s-.66,1.73,0,2.39l2.98,2.98ZM53.1,57.97c.66.66,1.73.66,2.39,0l2.57-2.57c.66-.66.66-1.73,0-2.39-.66-.66-1.73-.66-2.39,0l-1.38,1.37-1.79-1.79c-.66-.66-1.73-.66-2.39,0-.66.66-.66,1.73,0,2.39l2.98,2.98ZM46.37,41.32c-.66-.66-1.73-.66-2.39,0l-1.37,1.37-1.79-1.79c-.66-.66-1.73-.66-2.39,0-.66.66-.66,1.73,0,2.39l2.98,2.98c.66.66,1.73.66,2.39,0l2.57-2.57c.66-.66.66-1.73,0-2.39ZM43.98,53.18l-1.37,1.38-1.79-1.79c-.66-.66-1.73-.66-2.39,0-.66.66-.66,1.73,0,2.39l2.98,2.98c.66.66,1.73.66,2.39,0l2.57-2.57c.66-.66.66-1.73,0-2.39-.66-.66-1.73-.66-2.39,0ZM34.35,19.97c-.66-.66-1.73-.66-2.39,0l-4.8,4.8-4.8-4.8c-.66-.66-1.73-.66-2.39,0-.66.66-.66,1.73,0,2.39l4.8,4.8-4.8,4.8c-.66.66-.66,1.73,0,2.39.66.66,1.73.66,2.39,0l4.8-4.8,4.8,4.8c.66.66,1.73.66,2.39,0,.66-.66.66-1.73,0-2.39l-4.8-4.8,4.8-4.8c.66-.66.66-1.73,0-2.39ZM59.91,21.03c1.31.04,2.61.63,3.66,1.69,2.25,2.24,4.25,3.33,6.29,3.47.12,0,.25.01.37.01,2.04,0,4.05-1.01,6.12-3.08.66-.66.66-1.73,0-2.39-.66-.66-1.73-.66-2.39,0-2.92,2.91-4.78,2.82-8.01-.4-1.66-1.66-3.78-2.61-5.95-2.67-2.26-.06-4.46.85-6.18,2.57l-2.42,2.42c-.09.09-.16.18-.22.28-.6.66-.59,1.69.05,2.33l18.37,18.37c2.24,2.24,2.24,5.88,0,8.13l-17.87,17.86c-1.09,1.09-2.53,1.68-4.06,1.68s-2.98-.6-4.06-1.68L7.34,33.33c-1.28-1.27-1.87-3.03-1.63-4.82.17-1.26.73-2.4,1.63-3.3L25.21,7.34c1.08-1.08,2.53-1.68,4.06-1.68s2.98.6,4.06,1.68l11.2,11.2c.66.66,1.73.66,2.39,0,.66-.66.66-1.73,0-2.39l-11.2-11.2c-1.73-1.72-4.02-2.67-6.45-2.67s-4.73.95-6.45,2.67L4.96,22.82c-1.43,1.43-2.33,3.25-2.59,5.25-.38,2.84.57,5.63,2.59,7.66l36.27,36.27c1.72,1.72,4.01,2.67,6.45,2.67s4.73-.95,6.45-2.67l17.87-17.87c3.56-3.56,3.56-9.35,0-12.9l-17.19-17.19,1.42-1.42c1.07-1.07,2.36-1.62,3.7-1.58Z"/>
        <path class="cls-4" d="M52.55,45.74c.66.66,1.73.66,2.39,0l2.57-2.57c.66-.66.66-1.73,0-2.39-.66-.66-1.73-.66-2.39,0l-1.38,1.37-1.79-1.79c-.66-.66-1.73-.66-2.39,0s-.66,1.73,0,2.39l2.98,2.98ZM52.47,57.34c.66.66,1.73.66,2.39,0l2.57-2.57c.66-.66.66-1.73,0-2.39-.66-.66-1.73-.66-2.39,0l-1.38,1.37-1.79-1.79c-.66-.66-1.73-.66-2.39,0-.66.66-.66,1.73,0,2.39l2.98,2.98ZM45.74,40.7c-.66-.66-1.73-.66-2.39,0l-1.37,1.37-1.79-1.79c-.66-.66-1.73-.66-2.39,0-.66.66-.66,1.73,0,2.39l2.98,2.98c.66.66,1.73.66,2.39,0l2.57-2.57c.66-.66.66-1.73,0-2.39ZM43.35,52.55l-1.37,1.38-1.79-1.79c-.66-.66-1.73-.66-2.39,0-.66.66-.66,1.73,0,2.39l2.98,2.98c.66.66,1.73.66,2.39,0l2.57-2.57c.66-.66.66-1.73,0-2.39-.66-.66-1.73-.66-2.39,0ZM33.73,19.34c-.66-.66-1.73-.66-2.39,0l-4.8,4.8-4.8-4.8c-.66-.66-1.73-.66-2.39,0-.66.66-.66,1.73,0,2.39l4.8,4.8-4.8,4.8c-.66.66-.66,1.73,0,2.39.66.66,1.73.66,2.39,0l4.8-4.8,4.8,4.8c.66.66,1.73.66,2.39,0,.66-.66.66-1.73,0-2.39l-4.8-4.8,4.8-4.8c.66-.66.66-1.73,0-2.39ZM59.29,20.41c1.31.04,2.61.63,3.66,1.69,2.25,2.24,4.25,3.33,6.29,3.47.12,0,.25.01.37.01,2.04,0,4.05-1.01,6.12-3.08.66-.66.66-1.73,0-2.39-.66-.66-1.73-.66-2.39,0-2.92,2.91-4.78,2.82-8.01-.4-1.66-1.66-3.78-2.61-5.95-2.67-2.26-.06-4.46.85-6.18,2.57l-2.42,2.42c-.09.09-.16.18-.22.28-.6.66-.59,1.69.05,2.33l18.37,18.37c2.24,2.24,2.24,5.88,0,8.13l-17.87,17.86c-1.09,1.09-2.53,1.68-4.06,1.68s-2.98-.6-4.06-1.68L6.72,32.7c-1.28-1.27-1.87-3.03-1.63-4.82.17-1.26.73-2.4,1.63-3.3L24.59,6.72c1.08-1.08,2.53-1.68,4.06-1.68s2.98.6,4.06,1.68l11.2,11.2c.66.66,1.73.66,2.39,0,.66-.66.66-1.73,0-2.39l-11.2-11.2c-1.73-1.72-4.02-2.67-6.45-2.67s-4.73.95-6.45,2.67L4.33,22.19c-1.43,1.43-2.33,3.25-2.59,5.25-.38,2.84.57,5.63,2.59,7.66l36.27,36.27c1.72,1.72,4.01,2.67,6.45,2.67s4.73-.95,6.45-2.67l17.87-17.87c3.56-3.56,3.56-9.35,0-12.9l-17.19-17.19,1.42-1.42c1.07-1.07,2.36-1.62,3.7-1.58Z"/>
        <path class="cls-6" d="M51.93,45.12c.66.66,1.73.66,2.39,0l2.57-2.57c.66-.66.66-1.73,0-2.39-.66-.66-1.73-.66-2.39,0l-1.38,1.37-1.79-1.79c-.66-.66-1.73-.66-2.39,0s-.66,1.73,0,2.39l2.98,2.98ZM51.85,56.72c.66.66,1.73.66,2.39,0l2.57-2.57c.66-.66.66-1.73,0-2.39-.66-.66-1.73-.66-2.39,0l-1.38,1.37-1.79-1.79c-.66-.66-1.73-.66-2.39,0-.66.66-.66,1.73,0,2.39l2.98,2.98ZM45.12,40.07c-.66-.66-1.73-.66-2.39,0l-1.37,1.37-1.79-1.79c-.66-.66-1.73-.66-2.39,0-.66.66-.66,1.73,0,2.39l2.98,2.98c.66.66,1.73.66,2.39,0l2.57-2.57c.66-.66.66-1.73,0-2.39ZM42.73,51.93l-1.37,1.38-1.79-1.79c-.66-.66-1.73-.66-2.39,0-.66.66-.66,1.73,0,2.39l2.98,2.98c.66.66,1.73.66,2.39,0l2.57-2.57c.66-.66.66-1.73,0-2.39-.66-.66-1.73-.66-2.39,0ZM33.1,18.72c-.66-.66-1.73-.66-2.39,0l-4.8,4.8-4.8-4.8c-.66-.66-1.73-.66-2.39,0-.66.66-.66,1.73,0,2.39l4.8,4.8-4.8,4.8c-.66.66-.66,1.73,0,2.39.66.66,1.73.66,2.39,0l4.8-4.8,4.8,4.8c.66.66,1.73.66,2.39,0,.66-.66.66-1.73,0-2.39l-4.8-4.8,4.8-4.8c.66-.66.66-1.73,0-2.39ZM58.66,19.78c1.31.04,2.61.63,3.66,1.69,2.25,2.24,4.25,3.33,6.29,3.47.12,0,.25.01.37.01,2.04,0,4.05-1.01,6.12-3.08.66-.66.66-1.73,0-2.39-.66-.66-1.73-.66-2.39,0-2.92,2.91-4.78,2.82-8.01-.4-1.66-1.66-3.78-2.61-5.95-2.67-2.26-.06-4.46.85-6.18,2.57l-2.42,2.42c-.09.09-.16.18-.22.28-.6.66-.59,1.69.05,2.33l18.37,18.37c2.24,2.24,2.24,5.88,0,8.13l-17.87,17.86c-1.09,1.09-2.53,1.68-4.06,1.68s-2.98-.6-4.06-1.68L6.09,32.08c-1.28-1.27-1.87-3.03-1.63-4.82.17-1.26.73-2.4,1.63-3.3L23.96,6.09c1.08-1.08,2.53-1.68,4.06-1.68s2.98.6,4.06,1.68l11.2,11.2c.66.66,1.73.66,2.39,0,.66-.66.66-1.73,0-2.39l-11.2-11.2c-1.73-1.72-4.02-2.67-6.45-2.67s-4.73.95-6.45,2.67L3.71,21.57c-1.43,1.43-2.33,3.25-2.59,5.25-.38,2.84.57,5.63,2.59,7.66l36.27,36.27c1.72,1.72,4.01,2.67,6.45,2.67s4.73-.95,6.45-2.67l17.87-17.87c3.56-3.56,3.56-9.35,0-12.9l-17.19-17.19,1.42-1.42c1.07-1.07,2.36-1.62,3.7-1.58Z"/>
        <path class="cls-5" d="M51.3,44.49c.66.66,1.73.66,2.39,0l2.57-2.57c.66-.66.66-1.73,0-2.39-.66-.66-1.73-.66-2.39,0l-1.38,1.37-1.79-1.79c-.66-.66-1.73-.66-2.39,0s-.66,1.73,0,2.39l2.98,2.98ZM51.22,56.09c.66.66,1.73.66,2.39,0l2.57-2.57c.66-.66.66-1.73,0-2.39-.66-.66-1.73-.66-2.39,0l-1.38,1.37-1.79-1.79c-.66-.66-1.73-.66-2.39,0-.66.66-.66,1.73,0,2.39l2.98,2.98ZM44.49,39.45c-.66-.66-1.73-.66-2.39,0l-1.37,1.37-1.79-1.79c-.66-.66-1.73-.66-2.39,0-.66.66-.66,1.73,0,2.39l2.98,2.98c.66.66,1.73.66,2.39,0l2.57-2.57c.66-.66.66-1.73,0-2.39ZM42.1,51.3l-1.37,1.38-1.79-1.79c-.66-.66-1.73-.66-2.39,0-.66.66-.66,1.73,0,2.39l2.98,2.98c.66.66,1.73.66,2.39,0l2.57-2.57c.66-.66.66-1.73,0-2.39-.66-.66-1.73-.66-2.39,0ZM32.48,18.09c-.66-.66-1.73-.66-2.39,0l-4.8,4.8-4.8-4.8c-.66-.66-1.73-.66-2.39,0-.66.66-.66,1.73,0,2.39l4.8,4.8-4.8,4.8c-.66.66-.66,1.73,0,2.39.66.66,1.73.66,2.39,0l4.8-4.8,4.8,4.8c.66.66,1.73.66,2.39,0,.66-.66.66-1.73,0-2.39l-4.8-4.8,4.8-4.8c.66-.66.66-1.73,0-2.39ZM58.04,19.16c1.31.04,2.61.63,3.66,1.69,2.25,2.24,4.25,3.35,6.29,3.47.12,0,.25.01.37.01,2.04,0,4.05-1.01,6.12-3.08.66-.66.66-1.73,0-2.39-.66-.66-1.73-.66-2.39,0-2.92,2.91-4.78,2.82-8.01-.4-1.66-1.66-3.78-2.61-5.95-2.67-2.26-.06-4.46.85-6.18,2.57l-2.42,2.42c-.09.09-.16.18-.22.28-.6.66-.59,1.69.05,2.33l18.37,18.37c2.24,2.24,2.24,5.88,0,8.13l-17.87,17.86c-1.09,1.09-2.53,1.68-4.06,1.68s-2.98-.6-4.06-1.68L5.47,31.45c-1.28-1.27-1.87-3.03-1.63-4.82.17-1.26.73-2.4,1.63-3.3L23.34,5.47c1.08-1.08,2.53-1.68,4.06-1.68s2.98.6,4.06,1.68l11.2,11.2c.66.66,1.73.66,2.39,0,.66-.66.66-1.73,0-2.39l-11.2-11.2c-1.73-1.72-4.02-2.67-6.45-2.67s-4.73.95-6.45,2.67L3.08,20.94c-1.43,1.43-2.33,3.25-2.59,5.25-.38,2.84.57,5.63,2.59,7.66l36.27,36.27c1.72,1.72,4.01,2.67,6.45,2.67s4.73-.95,6.45-2.67l17.87-17.87c3.56-3.56,3.56-9.35,0-12.9l-17.19-17.19,1.42-1.42c1.07-1.07,2.36-1.62,3.7-1.58Z"/>
      </g>
      <path class="cls-2" d="M50.9,44.09c.66.66,1.73.66,2.39,0l2.57-2.57c.66-.66.66-1.73,0-2.39-.66-.66-1.73-.66-2.39,0l-1.38,1.37-1.79-1.79c-.66-.66-1.73-.66-2.39,0s-.66,1.73,0,2.39l2.98,2.98ZM50.82,55.69c.66.66,1.73.66,2.39,0l2.57-2.57c.66-.66.66-1.73,0-2.39-.66-.66-1.73-.66-2.39,0l-1.38,1.37-1.79-1.79c-.66-.66-1.73-.66-2.39,0-.66.66-.66,1.73,0,2.39l2.98,2.98ZM41.7,50.9l-1.37,1.38-1.79-1.79c-.66-.66-1.73-.66-2.39,0-.66.66-.66,1.73,0,2.39l2.98,2.98c.66.66,1.73.66,2.39,0l2.57-2.57c.66-.66.66-1.73,0-2.39-.66-.66-1.73-.66-2.39,0ZM44.08,39.04c-.66-.66-1.73-.66-2.39,0l-1.37,1.37-1.79-1.79c-.66-.66-1.73-.66-2.39,0-.66.66-.66,1.73,0,2.39l2.98,2.98c.66.66,1.73.66,2.39,0l2.57-2.57c.66-.66.66-1.73,0-2.39ZM32.07,17.69c-.66-.66-1.73-.66-2.39,0l-4.8,4.8-4.8-4.8c-.66-.66-1.73-.66-2.39,0-.66.66-.66,1.73,0,2.39l4.8,4.8-4.8,4.8c-.66.66-.66,1.73,0,2.39.66.66,1.73.66,2.39,0l4.8-4.8,4.8,4.8c.66.66,1.73.66,2.39,0,.66-.66.66-1.73,0-2.39l-4.8-4.8,4.8-4.8c.66-.66.66-1.73,0-2.39ZM57.63,18.75c1.31.04,2.61.63,3.66,1.69,2.25,2.24,4.25,3.35,6.29,3.47.12,0,.25.01.37.01,2.04,0,4.05-1.01,6.12-3.08.66-.66.66-1.73,0-2.39-.66-.66-1.73-.66-2.39,0-2.92,2.91-4.78,2.82-8.01-.4-1.66-1.66-3.78-2.61-5.95-2.67-2.26-.06-4.46.85-6.18,2.57l-2.42,2.42c-.09.09-.16.18-.22.28-.6.66-.59,1.69.05,2.33l18.37,18.37c2.24,2.24,2.24,5.88,0,8.13l-17.87,17.86c-1.08,1.09-2.53,1.68-4.06,1.68s-2.98-.6-4.06-1.68L5.06,31.05c-1.28-1.27-1.87-3.03-1.63-4.82.17-1.26.73-2.4,1.63-3.3L22.93,5.06c1.08-1.08,2.53-1.68,4.06-1.68s2.98.6,4.06,1.68l11.2,11.2c.66.66,1.73.66,2.39,0,.66-.66.66-1.73,0-2.39l-11.2-11.2c-1.73-1.72-4.02-2.67-6.45-2.67s-4.73.95-6.45,2.67L2.67,20.54c-1.43,1.43-2.33,3.25-2.59,5.25-.38,2.84.57,5.63,2.59,7.66l36.27,36.27c1.72,1.72,4.01,2.67,6.45,2.67s4.73-.95,6.45-2.67l17.87-17.87c3.56-3.56,3.56-9.35,0-12.9l-17.19-17.19,1.42-1.42c1.07-1.07,2.36-1.62,3.7-1.58Z"/>
    </g>
  </g>
</svg>