<?xml version="1.0" encoding="UTF-8"?>
<svg id="Layer_2" data-name="Layer 2" xmlns="http://www.w3.org/2000/svg" viewBox="0 0 27.35 27.36">
  <defs>
    <style>
      .cls-1 {
        fill-rule: evenodd;
      }
    </style>
  </defs>
  <g id="_1" data-name="1">
    <path class="cls-1" d="M26.27,8.73l-2.01-1.17-.02-2.31c0-1.19-.95-2.16-2.13-2.16h-2.32s-1.16-2.02-1.16-2.02c-.61-1.02-1.92-1.37-2.94-.79l-2.02,1.14-2.01-1.14c-1.03-.6-2.34-.24-2.94.79l-1.17,2.01h-2.31c-1.19.01-2.16.98-2.16,2.17v2.31s-2.02,1.17-2.02,1.17c-1.02.6-1.37,1.91-.78,2.94l1.14,2.01-1.14,2.02c-.58,1.02-.24,2.33.78,2.94l2.01,1.16v2.32c.01,1.18.98,2.14,2.17,2.15h2.31l1.17,2.01c.6,1.02,1.91,1.38,2.94.79l2.01-1.15,2.02,1.15c.33.19.71.29,1.06.29.75,0,1.48-.39,1.88-1.07l1.16-2.01h2.32c1.19-.01,2.13-.97,2.13-2.15l.02-2.32,2.01-1.16c1.02-.61,1.38-1.92.79-2.94l-1.15-2.02,1.15-2.01c.59-1.03.24-2.34-.79-2.94h0ZM12.57,14.12h0l-1.67-1.55c-.16-.18-.43-.28-.69-.28-.28,0-.51.1-.72.28l-.51.46c-.38.36-.38.96,0,1.32l2.91,2.7c.21.17.45.27.72.27s.54-.1.72-.3l5.06-4.99c.39-.34.36-.96-.04-1.28l-.53-.49c-.21-.15-.45-.25-.72-.25-.26.02-.53.11-.7.29l-3.84,3.8ZM13.67,6.27c4.09,0,7.41,3.31,7.41,7.41s-3.32,7.41-7.41,7.41-7.41-3.32-7.41-7.41,3.32-7.41,7.41-7.41h0Z"/>
  </g>
</svg>