<?xml version="1.0" encoding="UTF-8"?>
<svg id="Layer_2" data-name="Layer 2" xmlns="http://www.w3.org/2000/svg" viewBox="0 0 27.36 24.75">
  <defs>
    <style>
      .cls-1 {
        fill-rule: evenodd;
      }
    </style>
  </defs>
  <g id="_1" data-name="1">
    <path class="cls-1" d="M17.71,3.4c-.6-2.03-2.48-3.4-4.71-3.4s-4.04,1.44-4.68,3.42c.52.35.98.8,1.36,1.31.06-.09.13-.17.19-.25.5-1.94,1.77-3.35,1.85-3.44l.35.32.35.31s-.54.6-1.01,1.5c.29-.16.59-.31.92-.42.16-.05.32-.1.48-.14.26-.35.45-.56.48-.59l.34.31.14.12c.57-.06,1.15-.03,1.71.08.83.15,1.57.45,2.23.87h0ZM9.69,6.73c-.6-2.06-2.49-3.46-4.74-3.46C2.21,3.28,0,5.49,0,8.21c0,6.2,7.19,9.18,9.2,9.74.12.34,0,.66-.38.69l.81-.07c.07.47,0,.96.02,1.45.06.98.67,1.12.67,1.79-.43.24-.84.58-.8,1.08.04.62.51,1.07.4,1.73-.05.26.34.1.37-.1.08-.5-.08-.92-.27-1.37-.08-.18-.17-.37-.11-.57.18-.6,1.08-.73.78-1.19-.47-.45-.67-1.01-.68-1.71-.02-.39.03-.76,0-1.15l.52-.04c-.26-.18-.37-.36-.35-.54,2.07-.56,9.17-3.51,9.17-9.74,0-5.72-8.19-6.75-9.68-1.48h0ZM1.92,11.12c-1.29-3.43,1.61-6.67,1.74-6.8l.34.32.36.33s-2.64,2.93-1.54,5.83l-.89.33ZM3.5,12.09c-1.29-3.43,1.61-6.67,1.74-6.8l.35.32.34.32s-2.63,2.94-1.54,5.83l-.88.33ZM17.29,14.87c0,.22-.14.4-.43.43l.81-.08c.07.47,0,.96.03,1.44.05.98.68,1.13.68,1.79-.44.24-.84.58-.81,1.08.04.62.5,1.06.4,1.72-.05.27.33.09.36-.1.09-.49-.07-.91-.28-1.35-.07-.18-.16-.38-.11-.58.19-.59,1.08-.72.78-1.19-.48-.44-.66-1-.69-1.7,0-.39.03-.76,0-1.14l.52-.05c-.25-.18-.36-.35-.35-.54,2.06-.54,9.13-3.48,9.13-9.68,0-5.67-8.11-6.71-9.62-1.51,1.56,1.02,2.52,2.74,2.52,4.8,0,2.66-1.16,4.89-2.96,6.66h0Z"/>
  </g>
</svg>