<?xml version="1.0" encoding="UTF-8"?>
<svg id="Layer_2" data-name="Layer 2" xmlns="http://www.w3.org/2000/svg" viewBox="0 0 27.36 26.48">
  <defs>
    <style>
      .cls-1 {
        fill-rule: evenodd;
      }
    </style>
  </defs>
  <g id="_1" data-name="1">
    <path class="cls-1" d="M8.49,12.38c-.67,5.11-.26,8.14,1.94,12.19,1.79-.64,3.58-.69,4.74-.14,3.11.8,6.19,1.01,9.25.37,1.07-1.61.83-2.42.28-3.03,1.96-.77,2.67-1.95,1.26-3.84,2.03-1.84,1.69-3.12.1-4.11,1.58-1.92,1.17-3.32-.98-4.24-1.73.08-4.06-.1-5.79,0,2.23-2.55,4.52-4.95,2.06-8.93-1.19-1.01-2.24-.8-3.18.19.91,2.66-3.19,5.28-5.23,8.71-1.12,1.85-3.23,2.96-4.43,2.82h0ZM0,12.16c.26,5.75.9,9.14,2.92,14.32,2.28-1.17,4.98-.18,7.31-.68-2.24-.84-3.75-8.21-2.67-14.13-2.67.86-5.14.76-7.56.48h0ZM6.12,22.32c.78,0,1.4.63,1.4,1.41s-.62,1.4-1.4,1.4-1.4-.62-1.4-1.4.62-1.41,1.4-1.41h0Z"/>
  </g>
</svg>