<?xml version="1.0" encoding="UTF-8"?>
<svg id="Layer_2" data-name="Layer 2" xmlns="http://www.w3.org/2000/svg" xmlns:xlink="http://www.w3.org/1999/xlink" viewBox="0 0 70.95 70.95">
  <defs>
    <style>
      .cls-1 {
        opacity: .14;
      }

      .cls-2 {
        opacity: .21;
      }

      .cls-3 {
        opacity: .42;
      }

      .cls-4 {
        opacity: .55;
      }

      .cls-5 {
        opacity: .48;
      }

      .cls-6 {
        opacity: .35;
      }

      .cls-7 {
        opacity: .08;
      }

      .cls-8 {
        opacity: .28;
      }

      .cls-9 {
        opacity: 0;
      }

      .cls-10 {
        fill: url(#linear-gradient);
      }
    </style>
    <linearGradient id="linear-gradient" x1="13.46" y1="5.76" x2="59.79" y2="52.09" gradientUnits="userSpaceOnUse">
      <stop offset="0" stop-color="#2c2e2c"/>
      <stop offset=".99" stop-color="#000"/>
    </linearGradient>
  </defs>
  <g id="Layer_1-2" data-name="Layer 1">
    <g>
      <g>
        <path class="cls-9" d="M69.26,36.49c-.93,0-1.69.76-1.69,1.69,0,16.21-13.19,29.39-29.39,29.39s-29.39-13.19-29.39-29.39,13.18-29.4,29.39-29.4c9.66,0,18.71,4.81,24.17,12.68h-11.82c-.93,0-1.69.76-1.69,1.69s.76,1.69,1.69,1.69h15.98c.93,0,1.69-.76,1.69-1.69V7.18c0-.93-.76-1.69-1.69-1.69s-1.69.76-1.69,1.69v11.94c-6.12-8.52-16.05-13.71-26.64-13.71C20.11,5.41,5.41,20.1,5.41,38.18s14.7,32.77,32.77,32.77,32.77-14.7,32.77-32.77c0-.93-.75-1.69-1.69-1.69Z"/>
        <path class="cls-7" d="M68.64,35.86c-.93,0-1.69.76-1.69,1.69,0,16.21-13.19,29.39-29.39,29.39s-29.39-13.19-29.39-29.39,13.18-29.4,29.39-29.4c9.66,0,18.71,4.81,24.17,12.68h-11.82c-.93,0-1.69.76-1.69,1.69s.76,1.69,1.69,1.69h15.98c.93,0,1.69-.76,1.69-1.69V6.55c0-.93-.76-1.69-1.69-1.69s-1.69.76-1.69,1.69v11.94c-6.12-8.52-16.05-13.71-26.64-13.71C19.48,4.78,4.78,19.48,4.78,37.55s14.7,32.77,32.77,32.77,32.77-14.7,32.77-32.77c0-.93-.75-1.69-1.69-1.69Z"/>
        <path class="cls-1" d="M68.01,35.24c-.93,0-1.69.76-1.69,1.69,0,16.21-13.19,29.39-29.39,29.39S7.54,53.14,7.54,36.93,20.72,7.53,36.93,7.53c9.66,0,18.71,4.81,24.17,12.68h-11.82c-.93,0-1.69.76-1.69,1.69s.76,1.69,1.69,1.69h15.98c.93,0,1.69-.76,1.69-1.69V5.93c0-.93-.76-1.69-1.69-1.69s-1.69.76-1.69,1.69v11.94c-6.12-8.52-16.05-13.71-26.64-13.71C18.86,4.16,4.16,18.85,4.16,36.93s14.7,32.77,32.77,32.77,32.77-14.7,32.77-32.77c0-.93-.75-1.69-1.69-1.69Z"/>
        <path class="cls-2" d="M67.39,34.61c-.93,0-1.69.76-1.69,1.69,0,16.21-13.19,29.39-29.39,29.39S6.91,52.51,6.91,36.3,20.1,6.91,36.3,6.91c9.66,0,18.71,4.81,24.17,12.68h-11.82c-.93,0-1.69.76-1.69,1.69s.76,1.69,1.69,1.69h15.98c.93,0,1.69-.76,1.69-1.69V5.3c0-.93-.76-1.69-1.69-1.69s-1.69.76-1.69,1.69v11.94c-6.12-8.52-16.05-13.71-26.64-13.71C18.23,3.53,3.53,18.23,3.53,36.3s14.7,32.77,32.77,32.77,32.77-14.7,32.77-32.77c0-.93-.75-1.69-1.69-1.69Z"/>
        <path class="cls-8" d="M66.76,33.99c-.93,0-1.69.76-1.69,1.69,0,16.21-13.19,29.39-29.39,29.39S6.29,51.89,6.29,35.68,19.47,6.28,35.68,6.28c9.66,0,18.71,4.81,24.17,12.68h-11.82c-.93,0-1.69.76-1.69,1.69s.76,1.69,1.69,1.69h15.98c.93,0,1.69-.76,1.69-1.69V4.68c0-.93-.76-1.69-1.69-1.69s-1.69.76-1.69,1.69v11.94c-6.12-8.52-16.05-13.71-26.64-13.71C17.61,2.91,2.91,17.6,2.91,35.68s14.7,32.77,32.77,32.77,32.77-14.7,32.77-32.77c0-.93-.75-1.69-1.69-1.69Z"/>
        <path class="cls-6" d="M66.14,33.36c-.93,0-1.69.76-1.69,1.69,0,16.21-13.19,29.39-29.39,29.39S5.66,51.26,5.66,35.05,18.85,5.66,35.05,5.66c9.66,0,18.71,4.81,24.17,12.68h-11.82c-.93,0-1.69.76-1.69,1.69s.76,1.69,1.69,1.69h15.98c.93,0,1.69-.76,1.69-1.69V4.05c0-.93-.76-1.69-1.69-1.69s-1.69.76-1.69,1.69v11.94c-6.12-8.52-16.05-13.71-26.64-13.71C16.98,2.28,2.28,16.98,2.28,35.05s14.7,32.77,32.77,32.77,32.77-14.7,32.77-32.77c0-.93-.75-1.69-1.69-1.69Z"/>
        <path class="cls-3" d="M65.51,32.74c-.93,0-1.69.76-1.69,1.69,0,16.21-13.19,29.39-29.39,29.39S5.04,50.64,5.04,34.43,18.22,5.03,34.43,5.03c9.66,0,18.71,4.81,24.17,12.68h-11.82c-.93,0-1.69.76-1.69,1.69s.76,1.69,1.69,1.69h15.98c.93,0,1.69-.76,1.69-1.69V3.43c0-.93-.76-1.69-1.69-1.69s-1.69.76-1.69,1.69v11.94C54.95,6.85,45.02,1.66,34.43,1.66,16.36,1.66,1.66,16.35,1.66,34.43s14.7,32.77,32.77,32.77,32.77-14.7,32.77-32.77c0-.93-.75-1.69-1.69-1.69Z"/>
        <path class="cls-5" d="M64.89,32.11c-.93,0-1.69.76-1.69,1.69,0,16.21-13.19,29.39-29.39,29.39S4.41,50.01,4.41,33.8,17.6,4.41,33.8,4.41c9.66,0,18.71,4.81,24.17,12.68h-11.82c-.93,0-1.69.76-1.69,1.69s.76,1.69,1.69,1.69h15.98c.93,0,1.69-.76,1.69-1.69V2.8c0-.93-.76-1.69-1.69-1.69s-1.69.76-1.69,1.69v11.94C54.33,6.22,44.39,1.03,33.8,1.03,15.73,1.03,1.03,15.73,1.03,33.8s14.7,32.77,32.77,32.77,32.77-14.7,32.77-32.77c0-.93-.75-1.69-1.69-1.69Z"/>
        <path class="cls-4" d="M64.26,31.49c-.93,0-1.69.76-1.69,1.69,0,16.21-13.19,29.39-29.39,29.39S3.79,49.39,3.79,33.18,16.97,3.78,33.18,3.78c9.66,0,18.71,4.81,24.17,12.68h-11.82c-.93,0-1.69.76-1.69,1.69s.76,1.69,1.69,1.69h15.98c.93,0,1.69-.76,1.69-1.69V2.18c0-.93-.76-1.69-1.69-1.69s-1.69.76-1.69,1.69v11.94C53.7,5.6,43.77.41,33.18.41,15.11.41.41,15.1.41,33.18s14.7,32.77,32.77,32.77,32.77-14.7,32.77-32.77c0-.93-.75-1.69-1.69-1.69Z"/>
      </g>
      <path class="cls-10" d="M63.86,31.08c-.93,0-1.69.76-1.69,1.69,0,16.21-13.19,29.39-29.39,29.39S3.38,48.98,3.38,32.77,16.56,3.38,32.77,3.38c9.66,0,18.71,4.81,24.17,12.68h-11.82c-.93,0-1.69.76-1.69,1.69s.76,1.69,1.69,1.69h15.98c.93,0,1.69-.76,1.69-1.69V1.77c0-.93-.76-1.69-1.69-1.69s-1.69.76-1.69,1.69v11.94C53.29,5.19,43.36,0,32.77,0,14.7,0,0,14.7,0,32.77s14.7,32.77,32.77,32.77,32.77-14.7,32.77-32.77c0-.93-.75-1.69-1.69-1.69Z"/>
    </g>
  </g>
</svg>