<?xml version="1.0" encoding="UTF-8"?>
<svg id="Layer_2" data-name="Layer 2" xmlns="http://www.w3.org/2000/svg" xmlns:xlink="http://www.w3.org/1999/xlink" viewBox="0 0 76.94 66.3">
  <defs>
    <style>
      .cls-1 {
        opacity: .14;
      }

      .cls-2 {
        fill: url(#linear-gradient-2);
      }

      .cls-3 {
        opacity: .21;
      }

      .cls-4 {
        opacity: .42;
      }

      .cls-5 {
        opacity: .55;
      }

      .cls-6 {
        opacity: .48;
      }

      .cls-7 {
        opacity: .35;
      }

      .cls-8 {
        opacity: .08;
      }

      .cls-9 {
        opacity: .28;
      }

      .cls-10 {
        opacity: 0;
      }

      .cls-11 {
        fill: url(#linear-gradient);
      }
    </style>
    <linearGradient id="linear-gradient" x1="4.88" y1="2.91" x2="51" y2="49.03" gradientUnits="userSpaceOnUse">
      <stop offset="0" stop-color="#805436"/>
      <stop offset="1" stop-color="#cfa669"/>
    </linearGradient>
    <linearGradient id="linear-gradient-2" x1="5.06" y1="3.26" x2="51.34" y2="49.54" gradientUnits="userSpaceOnUse">
      <stop offset="0" stop-color="#2c2e2c"/>
      <stop offset=".99" stop-color="#000"/>
    </linearGradient>
  </defs>
  <g id="Layer_1-2" data-name="Layer 1">
    <g>
      <path class="cls-11" d="M1.7,12.13v27.22c0,4.4,1.92,8.25,7.42,8.25h38.5c2.48,0,3.71-1.1,7.7-5.09,3.99-3.99,10.86-10.86,12.3-12.3s3.44-4.95-.34-8.73c-3.78-3.78-12.99-12.99-14.57-14.57-1.58-1.58-3.16-2.06-7.01-2.06H9.95c-3.85,0-8.25,2.48-8.25,7.29Z"/>
      <g>
        <path class="cls-10" d="M36.06,19.92c.96,0,1.75-.78,1.75-1.75s-.78-1.74-1.75-1.74-1.75.78-1.75,1.74.78,1.75,1.75,1.75ZM36.06,47.12c.96,0,1.75-.78,1.75-1.74s-.78-1.75-1.75-1.75-1.75.78-1.75,1.75.78,1.74,1.75,1.74ZM74.8,26.93c-6.8-6.87-15.11-15.24-16.13-16.13-1.57-1.38-3.59-2.14-5.69-2.14h-15.24v-1.57c0-.93-.76-1.69-1.69-1.69s-1.69.76-1.69,1.69v1.57H14.04c-4.76,0-8.63,3.87-8.63,8.63,0,.94.76,1.69,1.69,1.69s1.69-.75,1.69-1.69c0-2.9,2.35-5.25,5.25-5.25h38.95c1.28,0,2.5.46,3.46,1.3.72.63,6.53,6.45,15.95,15.96,1.48,1.49,1.58,3.23.27,4.54-6.75,6.73-14.96,14.92-15.72,15.79-1,1.14-2.44,1.8-3.96,1.8H14.04c-2.9,0-5.25-2.36-5.25-5.25v-19.69l6-2.65c.85-.38,1.24-1.38.86-2.23-.38-.86-1.38-1.24-2.23-.87l-7.01,3.1c-.61.27-1.01.88-1.01,1.54v20.79c0,4.76,3.87,8.63,8.63,8.63h20.34v8.1h-6.94c-.93,0-1.69.76-1.69,1.69s.76,1.69,1.69,1.69h17.26c.93,0,1.69-.76,1.69-1.69s-.76-1.69-1.69-1.69h-6.94v-8.1h15.24c2.49,0,4.86-1.08,6.5-2.95.53-.6,6.35-6.44,15.56-15.62,2.62-2.61,2.51-6.52-.25-9.31Z"/>
        <path class="cls-8" d="M35.44,19.3c.96,0,1.75-.78,1.75-1.75s-.78-1.74-1.75-1.74-1.75.78-1.75,1.74.78,1.75,1.75,1.75ZM35.44,46.5c.96,0,1.75-.78,1.75-1.74s-.78-1.75-1.75-1.75-1.75.78-1.75,1.75.78,1.74,1.75,1.74ZM74.18,26.3c-6.8-6.87-15.11-15.24-16.13-16.13-1.57-1.38-3.59-2.14-5.69-2.14h-15.24v-1.57c0-.93-.76-1.69-1.69-1.69s-1.69.76-1.69,1.69v1.57H13.41c-4.76,0-8.63,3.87-8.63,8.63,0,.94.76,1.69,1.69,1.69s1.69-.75,1.69-1.69c0-2.9,2.35-5.25,5.25-5.25h38.95c1.28,0,2.5.46,3.46,1.3.72.63,6.53,6.45,15.95,15.96,1.48,1.49,1.58,3.23.27,4.54-6.75,6.73-14.96,14.92-15.72,15.79-1,1.14-2.44,1.8-3.96,1.8H13.41c-2.9,0-5.25-2.36-5.25-5.25v-19.69l6-2.65c.85-.38,1.24-1.38.86-2.23-.38-.86-1.38-1.24-2.23-.87l-7.01,3.1c-.61.27-1.01.88-1.01,1.54v20.79c0,4.76,3.87,8.63,8.63,8.63h20.34v8.1h-6.94c-.93,0-1.69.76-1.69,1.69s.76,1.69,1.69,1.69h17.26c.93,0,1.69-.76,1.69-1.69s-.76-1.69-1.69-1.69h-6.94v-8.1h15.24c2.49,0,4.86-1.08,6.5-2.95.53-.6,6.35-6.44,15.56-15.62,2.62-2.61,2.51-6.52-.25-9.31Z"/>
        <path class="cls-1" d="M34.81,18.67c.96,0,1.75-.78,1.75-1.75s-.78-1.74-1.75-1.74-1.75.78-1.75,1.74.78,1.75,1.75,1.75ZM34.81,45.87c.96,0,1.75-.78,1.75-1.74s-.78-1.75-1.75-1.75-1.75.78-1.75,1.75.78,1.74,1.75,1.74ZM73.55,25.68c-6.8-6.87-15.11-15.24-16.13-16.13-1.57-1.38-3.59-2.14-5.69-2.14h-15.24v-1.57c0-.93-.76-1.69-1.69-1.69s-1.69.76-1.69,1.69v1.57H12.79c-4.76,0-8.63,3.87-8.63,8.63,0,.94.76,1.69,1.69,1.69s1.69-.75,1.69-1.69c0-2.9,2.35-5.25,5.25-5.25h38.95c1.28,0,2.5.46,3.46,1.3.72.63,6.53,6.45,15.95,15.96,1.48,1.49,1.58,3.23.27,4.54-6.75,6.73-14.96,14.92-15.72,15.79-1,1.14-2.44,1.8-3.96,1.8H12.79c-2.9,0-5.25-2.36-5.25-5.25v-19.69l6-2.65c.85-.38,1.24-1.38.86-2.23-.38-.86-1.38-1.24-2.23-.87l-7.01,3.1c-.61.27-1.01.88-1.01,1.54v20.79c0,4.76,3.87,8.63,8.63,8.63h20.34v8.1h-6.94c-.93,0-1.69.76-1.69,1.69s.76,1.69,1.69,1.69h17.26c.93,0,1.69-.76,1.69-1.69s-.76-1.69-1.69-1.69h-6.94v-8.1h15.24c2.49,0,4.86-1.08,6.5-2.95.53-.6,6.35-6.44,15.56-15.62,2.62-2.61,2.51-6.52-.25-9.31Z"/>
        <path class="cls-3" d="M34.19,18.05c.96,0,1.75-.78,1.75-1.75s-.78-1.74-1.75-1.74-1.75.78-1.75,1.74.78,1.75,1.75,1.75ZM34.19,45.25c.96,0,1.75-.78,1.75-1.74s-.78-1.75-1.75-1.75-1.75.78-1.75,1.75.78,1.74,1.75,1.74ZM72.93,25.05c-6.8-6.87-15.11-15.24-16.13-16.13-1.57-1.38-3.59-2.14-5.69-2.14h-15.24v-1.57c0-.93-.76-1.69-1.69-1.69s-1.69.76-1.69,1.69v1.57H12.16c-4.76,0-8.63,3.87-8.63,8.63,0,.94.76,1.69,1.69,1.69s1.69-.75,1.69-1.69c0-2.9,2.35-5.25,5.25-5.25h38.95c1.28,0,2.5.46,3.46,1.3.72.63,6.53,6.45,15.95,15.96,1.48,1.49,1.58,3.23.27,4.54-6.75,6.73-14.96,14.92-15.72,15.79-1,1.14-2.44,1.8-3.96,1.8H12.16c-2.9,0-5.25-2.36-5.25-5.25v-19.69l6-2.65c.85-.38,1.24-1.38.86-2.23-.38-.86-1.38-1.24-2.23-.87l-7.01,3.1c-.61.27-1.01.88-1.01,1.54v20.79c0,4.76,3.87,8.63,8.63,8.63h20.34v8.1h-6.94c-.93,0-1.69.76-1.69,1.69s.76,1.69,1.69,1.69h17.26c.93,0,1.69-.76,1.69-1.69s-.76-1.69-1.69-1.69h-6.94v-8.1h15.24c2.49,0,4.86-1.08,6.5-2.95.53-.6,6.35-6.44,15.56-15.62,2.62-2.61,2.51-6.52-.25-9.31Z"/>
        <path class="cls-9" d="M33.56,17.42c.96,0,1.75-.78,1.75-1.75s-.78-1.74-1.75-1.74-1.75.78-1.75,1.74.78,1.75,1.75,1.75ZM33.56,44.62c.96,0,1.75-.78,1.75-1.74s-.78-1.75-1.75-1.75-1.75.78-1.75,1.75.78,1.74,1.75,1.74ZM72.3,24.43c-6.8-6.87-15.11-15.24-16.13-16.13-1.57-1.38-3.59-2.14-5.69-2.14h-15.24v-1.57c0-.93-.76-1.69-1.69-1.69s-1.69.76-1.69,1.69v1.57H11.54c-4.76,0-8.63,3.87-8.63,8.63,0,.94.76,1.69,1.69,1.69s1.69-.75,1.69-1.69c0-2.9,2.35-5.25,5.25-5.25h38.95c1.28,0,2.5.46,3.46,1.3.72.63,6.53,6.45,15.95,15.96,1.48,1.49,1.58,3.23.27,4.54-6.75,6.73-14.96,14.92-15.72,15.79-1,1.14-2.44,1.8-3.96,1.8H11.54c-2.9,0-5.25-2.36-5.25-5.25v-19.69l6-2.65c.85-.38,1.24-1.38.86-2.23-.38-.86-1.38-1.24-2.23-.87l-7.01,3.1c-.61.27-1.01.88-1.01,1.54v20.79c0,4.76,3.87,8.63,8.63,8.63h20.34v8.1h-6.94c-.93,0-1.69.76-1.69,1.69s.76,1.69,1.69,1.69h17.26c.93,0,1.69-.76,1.69-1.69s-.76-1.69-1.69-1.69h-6.94v-8.1h15.24c2.49,0,4.86-1.08,6.5-2.95.53-.6,6.35-6.44,15.56-15.62,2.62-2.61,2.51-6.52-.25-9.31Z"/>
        <path class="cls-7" d="M32.94,16.8c.96,0,1.75-.78,1.75-1.75s-.78-1.74-1.75-1.74-1.75.78-1.75,1.74.78,1.75,1.75,1.75ZM32.94,44c.96,0,1.75-.78,1.75-1.74s-.78-1.75-1.75-1.75-1.75.78-1.75,1.75.78,1.74,1.75,1.74ZM71.68,23.8c-6.8-6.87-15.11-15.24-16.13-16.13-1.57-1.38-3.59-2.14-5.69-2.14h-15.24v-1.57c0-.93-.76-1.69-1.69-1.69s-1.69.76-1.69,1.69v1.57H10.91c-4.76,0-8.63,3.87-8.63,8.63,0,.94.76,1.69,1.69,1.69s1.69-.75,1.69-1.69c0-2.9,2.35-5.25,5.25-5.25h38.95c1.28,0,2.5.46,3.46,1.3.72.63,6.53,6.45,15.95,15.96,1.48,1.49,1.58,3.23.27,4.54-6.75,6.73-14.96,14.92-15.72,15.79-1,1.14-2.44,1.8-3.96,1.8H10.91c-2.9,0-5.25-2.36-5.25-5.25v-19.69l6-2.65c.85-.38,1.24-1.38.86-2.23-.38-.86-1.38-1.24-2.23-.87l-7.01,3.1c-.61.27-1.01.88-1.01,1.54v20.79c0,4.76,3.87,8.63,8.63,8.63h20.34v8.1h-6.94c-.93,0-1.69.76-1.69,1.69s.76,1.69,1.69,1.69h17.26c.93,0,1.69-.76,1.69-1.69s-.76-1.69-1.69-1.69h-6.94v-8.1h15.24c2.49,0,4.86-1.08,6.5-2.95.53-.6,6.35-6.44,15.56-15.62,2.62-2.61,2.51-6.52-.25-9.31Z"/>
        <path class="cls-4" d="M32.31,16.17c.96,0,1.75-.78,1.75-1.75s-.78-1.74-1.75-1.74-1.75.78-1.75,1.74.78,1.75,1.75,1.75ZM32.31,43.37c.96,0,1.75-.78,1.75-1.74s-.78-1.75-1.75-1.75-1.75.78-1.75,1.75.78,1.74,1.75,1.74ZM71.05,23.18c-6.8-6.87-15.11-15.24-16.13-16.13-1.57-1.38-3.59-2.14-5.69-2.14h-15.24v-1.57c0-.93-.76-1.69-1.69-1.69s-1.69.76-1.69,1.69v1.57H10.29C5.53,4.91,1.66,8.78,1.66,13.54c0,.94.76,1.69,1.69,1.69s1.69-.75,1.69-1.69c0-2.9,2.35-5.25,5.25-5.25h38.95c1.28,0,2.5.46,3.46,1.3.72.63,6.53,6.45,15.95,15.96,1.48,1.49,1.58,3.23.27,4.54-6.75,6.73-14.96,14.92-15.72,15.79-1,1.14-2.44,1.8-3.96,1.8H10.29c-2.9,0-5.25-2.36-5.25-5.25v-19.69l6-2.65c.85-.38,1.24-1.38.86-2.23-.38-.86-1.38-1.24-2.23-.87l-7.01,3.1c-.61.27-1.01.88-1.01,1.54v20.79c0,4.76,3.87,8.63,8.63,8.63h20.34v8.1h-6.94c-.93,0-1.69.76-1.69,1.69s.76,1.69,1.69,1.69h17.26c.93,0,1.69-.76,1.69-1.69s-.76-1.69-1.69-1.69h-6.94v-8.1h15.24c2.49,0,4.86-1.08,6.5-2.95.53-.6,6.35-6.44,15.56-15.62,2.62-2.61,2.51-6.52-.25-9.31Z"/>
        <path class="cls-6" d="M31.69,15.55c.96,0,1.75-.78,1.75-1.75s-.78-1.74-1.75-1.74-1.75.78-1.75,1.74.78,1.75,1.75,1.75ZM31.69,42.75c.96,0,1.75-.78,1.75-1.74s-.78-1.75-1.75-1.75-1.75.78-1.75,1.75.78,1.74,1.75,1.74ZM70.43,22.55c-6.8-6.87-15.11-15.24-16.13-16.13-1.57-1.38-3.59-2.14-5.69-2.14h-15.24v-1.57c0-.93-.76-1.69-1.69-1.69s-1.69.76-1.69,1.69v1.57H9.66C4.9,4.29,1.03,8.16,1.03,12.92c0,.94.76,1.69,1.69,1.69s1.69-.75,1.69-1.69c0-2.9,2.35-5.25,5.25-5.25h38.95c1.28,0,2.5.46,3.46,1.3.72.63,6.53,6.45,15.95,15.96,1.48,1.49,1.58,3.23.27,4.54-6.75,6.73-14.96,14.92-15.72,15.79-1,1.14-2.44,1.8-3.96,1.8H9.66c-2.9,0-5.25-2.36-5.25-5.25v-19.69l6-2.65c.85-.38,1.24-1.38.86-2.23-.38-.86-1.38-1.24-2.23-.87l-7.01,3.1c-.61.27-1.01.88-1.01,1.54v20.79c0,4.76,3.87,8.63,8.63,8.63h20.34v8.1h-6.94c-.93,0-1.69.76-1.69,1.69s.76,1.69,1.69,1.69h17.26c.93,0,1.69-.76,1.69-1.69s-.76-1.69-1.69-1.69h-6.94v-8.1h15.24c2.49,0,4.86-1.08,6.5-2.95.53-.6,6.35-6.44,15.56-15.62,2.62-2.61,2.51-6.52-.25-9.31Z"/>
        <path class="cls-5" d="M31.06,14.92c.96,0,1.75-.78,1.75-1.75s-.78-1.74-1.75-1.74-1.75.78-1.75,1.74.78,1.75,1.75,1.75ZM31.06,42.12c.96,0,1.75-.78,1.75-1.74s-.78-1.75-1.75-1.75-1.75.78-1.75,1.75.78,1.74,1.75,1.74ZM69.8,21.93c-6.8-6.87-15.11-15.24-16.13-16.13-1.57-1.38-3.59-2.14-5.69-2.14h-15.24v-1.57c0-.93-.76-1.69-1.69-1.69s-1.69.76-1.69,1.69v1.57H9.04C4.28,3.66.41,7.53.41,12.29c0,.94.76,1.69,1.69,1.69s1.69-.75,1.69-1.69c0-2.9,2.35-5.25,5.25-5.25h38.95c1.28,0,2.5.46,3.46,1.3.72.63,6.53,6.45,15.95,15.96,1.48,1.49,1.58,3.23.27,4.54-6.75,6.73-14.96,14.92-15.72,15.79-1,1.14-2.44,1.8-3.96,1.8H9.04c-2.9,0-5.25-2.36-5.25-5.25v-19.69l6-2.65c.85-.38,1.24-1.38.86-2.23-.38-.86-1.38-1.24-2.23-.87l-7.01,3.1c-.61.27-1.01.88-1.01,1.54v20.79c0,4.76,3.87,8.63,8.63,8.63h20.34v8.1h-6.94c-.93,0-1.69.76-1.69,1.69s.76,1.69,1.69,1.69h17.26c.93,0,1.69-.76,1.69-1.69s-.76-1.69-1.69-1.69h-6.94v-8.1h15.24c2.49,0,4.86-1.08,6.5-2.95.53-.6,6.35-6.44,15.56-15.62,2.62-2.61,2.51-6.52-.25-9.31Z"/>
      </g>
      <path class="cls-2" d="M30.66,14.52c.96,0,1.75-.78,1.75-1.75s-.78-1.75-1.75-1.75-1.75.78-1.75,1.75.78,1.75,1.75,1.75ZM30.66,41.71c.96,0,1.75-.78,1.75-1.74s-.78-1.75-1.75-1.75-1.75.78-1.75,1.75.78,1.74,1.75,1.74ZM69.39,21.52c-6.8-6.87-15.11-15.24-16.13-16.13-1.57-1.38-3.59-2.14-5.69-2.14h-15.24v-1.57c0-.93-.76-1.69-1.69-1.69s-1.69.76-1.69,1.69v1.57H8.63C3.87,3.26,0,7.13,0,11.89c0,.93.76,1.69,1.69,1.69s1.69-.75,1.69-1.69c0-2.9,2.35-5.25,5.25-5.25h38.95c1.28,0,2.5.46,3.46,1.3.72.63,6.53,6.45,15.95,15.96,1.48,1.49,1.58,3.23.27,4.54-6.75,6.73-14.96,14.92-15.72,15.79-1,1.14-2.44,1.8-3.95,1.8H8.63c-2.9,0-5.25-2.36-5.25-5.25v-19.69l6-2.65c.85-.38,1.24-1.38.86-2.23-.38-.86-1.38-1.24-2.23-.87l-7.01,3.1c-.61.27-1.01.88-1.01,1.54v20.79c0,4.76,3.87,8.63,8.63,8.63h20.34v8.1h-6.94c-.93,0-1.69.76-1.69,1.69s.76,1.69,1.69,1.69h17.26c.93,0,1.69-.75,1.69-1.69s-.76-1.69-1.69-1.69h-6.94v-8.1h15.24c2.49,0,4.86-1.08,6.5-2.95.53-.6,6.35-6.44,15.56-15.62,2.62-2.61,2.51-6.52-.25-9.31Z"/>
    </g>
  </g>
</svg>