<?xml version="1.0" encoding="UTF-8"?>
<svg id="Layer_2" data-name="Layer 2" xmlns="http://www.w3.org/2000/svg" viewBox="0 0 27.36 25.65">
  <defs>
    <style>
      .cls-1 {
        fill-rule: evenodd;
      }
    </style>
  </defs>
  <g id="_1" data-name="1">
    <path class="cls-1" d="M13.67,15.78c3.41,0,6.26-1.14,6.43-2.67-.5-1.41-1.05-2.95-1.59-4.49-.39,1.09-2.46,1.85-4.84,1.85s-4.45-.76-4.82-1.85c-.54,1.53-1.09,3.08-1.6,4.49.18,1.52,3.02,2.67,6.42,2.67h0ZM13.67,7.78c1.6,0,3.1-.5,3.53-1.27-.6-1.69-1.12-4.67-1.44-5.58-.22-.61-1.2-.93-2.09-.93s-1.86.32-2.07.93c-.33.91-.84,3.89-1.45,5.58.44.78,1.92,1.27,3.52,1.27h0ZM26.18,17.19l-5.35-2.15.62,1.73c-.03,1.82-3.57,3.27-7.78,3.27s-7.74-1.44-7.77-3.27l.61-1.73-5.34,2.15c-1.51.61-1.56,1.73-.14,2.49l10.06,5.4c1.42.76,3.75.76,5.17,0l10.07-5.4c1.43-.76,1.35-1.88-.15-2.49h0Z"/>
  </g>
</svg>