<?xml version="1.0" encoding="UTF-8"?>
<svg xmlns="http://www.w3.org/2000/svg" xmlns:xlink="http://www.w3.org/1999/xlink" viewBox="0 0 44.13 67.22">
  <defs>
    <style>
      .cls-1 {
        fill: #4d4d4d;
      }

      .cls-2 {
        fill: #fff;
        mix-blend-mode: soft-light;
        opacity: .8;
        stroke: #fff;
      }

      .cls-2, .cls-3 {
        stroke-miterlimit: 10;
      }

      .cls-4 {
        isolation: isolate;
      }

      .cls-3 {
        fill: url(#linear-gradient);
        stroke: #ce0543;
      }
    </style>
    <linearGradient id="linear-gradient" x1=".5" y1="28.81" x2="43.63" y2="28.81" gradientUnits="userSpaceOnUse">
      <stop offset="0" stop-color="#f2b3c3"/>
      <stop offset=".51" stop-color="#e84f7b"/>
      <stop offset=".69" stop-color="#d13769"/>
      <stop offset=".86" stop-color="#c1275d"/>
      <stop offset="1" stop-color="#bc2259"/>
    </linearGradient>
  </defs>
  <g class="cls-4">
    <g id="Layer_2" data-name="Layer 2">
      <g id="Objects">
        <g>
          <g>
            <path class="cls-3" d="M43.63,23.35c0,9.4-11.81,23.8-13.01,30.12-.67,3.51-5.52,3.64-8.55,3.64s-7.64-.1-8.4-3.5C12.43,48.03.5,32.82.5,23.35.5,10.73,10.16.5,22.07.5s21.56,10.23,21.56,22.85Z"/>
            <g>
              <path class="cls-1" d="M26.05,55.4c0,2.47-2.01,2.66-4.48,2.66h0c-2.47,0-4.48-.18-4.48-2.66v-4.68c0-2.47,2-4.48,4.48-4.48h0c2.47,0,4.48,2,4.48,4.48v4.68Z"/>
              <g>
                <path class="cls-1" d="M18.27,33.57c0,.19.04.38.15.58.23-.28.33-.6.34-.93,0-.19-.04-.38-.11-.57-.23.29-.37.61-.38.92Z"/>
                <path class="cls-1" d="M14.71,32.83c-.12.21-.18.5-.18.79,0,.26.06.52.12.66.05-.07.1-.16.16-.3.08-.2.12-.4.12-.59,0-.24-.06-.47-.16-.67-.02.04-.04.07-.06.12Z"/>
                <path class="cls-1" d="M25.02,33.44c0,.1,0,.21.02.32.1-.24.16-.51.16-.77,0-.12-.01-.24-.04-.35-.07.19-.12.45-.14.8Z"/>
                <path class="cls-1" d="M21.63,33.49s0,.05,0,.09c.01.23.05.38.09.47.02-.02.04-.05.06-.09.09-.15.16-.39.16-.66,0-.19-.04-.39-.12-.59-.13.26-.21.53-.2.77Z"/>
                <path class="cls-1" d="M31.24,33.87c0-.56-.14-1.02-.43-1.35-.29-.33-.71-.48-1.11-.48-.38.01-.77.12-1.15.31-.59-.7-1.58-1.15-2.51-1.19-.18,0-.37.02-.56.07-.38-.44-.92-.75-1.59-.82-.06,0-.14-.01-.21-.01-.7.02-1.36.35-1.89.84-.42-.29-.91-.44-1.38-.43-.57,0-1.13.18-1.62.47-.27-.25-.6-.44-.97-.56-.26-.09-.53-.12-.79-.12-.79,0-1.6.3-2.24.78-.32-.2-.69-.32-1.1-.33-.12,0-.25.02-.37.04-1.17.38-2.17,1.89-2.31,2.77,0,.1.02.24.13.37.02.03.05.04.08.06l6.39,14.55.83-.37-6.33-14.43c.02-.08.04-.17,0-.25-.02-.05-.05-.11-.09-.14.1-.21.28-.52.51-.79.35-.47.86-.87.97-.86.07-.02.14-.02.2-.02.14,0,.28.03.41.09-.08.1-.14.21-.2.32-.22.39-.29.82-.29,1.23.06.71.13,1.52,1.03,1.67.54-.03.79-.43,1.03-.94.13-.32.2-.64.2-.96,0-.48-.15-.95-.41-1.34.48-.32,1.07-.53,1.57-.52.19,0,.35.02.5.07.2.07.38.16.53.28-.42.46-.69,1.04-.71,1.69,0,.54.22,1.1.66,1.58l.61.07c.72-.5,1.07-1.25,1.07-1.99,0-.41-.11-.82-.3-1.19.32-.19.68-.3,1.03-.3.29,0,.55.06.79.22-.3.46-.48,1-.5,1.54,0,.06,0,.11.01.16.04.72.29,1.34.96,1.39.83-.1,1.16-.88,1.2-1.73,0-.37-.09-.77-.3-1.16-.04-.08-.09-.16-.14-.24.4-.36.87-.59,1.24-.58.04,0,.07,0,.09,0,.37.04.67.18.89.39,0,0,0,0,0,0-.38.4-.57.99-.57,1.72,0,.3.03.63.09.99l.44.38s.14.05.16.07l.64-.05c.46-.53.68-1.19.68-1.84,0-.3-.04-.61-.14-.89.03,0,.05,0,.07,0,.45,0,1.02.21,1.44.53.12.09.22.18.31.27-.52.5-.91,1.19-.98,1.98l.62.47c1.04-.35,1.64-.98,1.64-1.74,0-.15-.04-.29-.07-.43.25-.14.5-.21.7-.2.37.05.56.08.61.9v.1l-5.9,14.37.84.35,5.91-14.4h-.02c.04-.08.09-.14.09-.22,0-.07,0-.13,0-.2ZM14.81,33.98c-.06.13-.11.23-.16.3-.06-.14-.13-.4-.12-.66,0-.28.06-.57.18-.79.02-.04.04-.08.06-.12.1.2.16.43.16.67,0,.2-.04.4-.12.59ZM18.42,34.15c-.11-.2-.14-.39-.15-.58,0-.31.15-.63.38-.92.07.19.11.38.11.57,0,.33-.1.64-.34.93ZM21.79,33.97s-.05.06-.06.09c-.04-.09-.07-.25-.09-.47,0-.04,0-.07,0-.09,0-.24.07-.51.2-.77.08.2.12.4.12.59,0,.26-.08.51-.16.66ZM25.03,33.76c0-.11-.02-.22-.02-.32.02-.35.07-.61.14-.8.02.11.03.23.04.35,0,.26-.05.53-.16.77Z"/>
              </g>
            </g>
          </g>
          <path class="cls-2" d="M13.67,53.61C12.43,48.03.5,32.82.5,23.35.5,10.73,10.16.5,22.07.5s-7.64,56.52-8.4,53.11Z"/>
          <path class="cls-1" d="M31.1,59.11c.02-.22.03-.44.03-.66,0-.11-.01-.2-.02-.3.93-.35,1.47-.75,1.47-1.19,0-.52-.77-.78-2.05-.92-.82-1.22-2.43-1.46-4.49-1.46-1.33,0-2.85.1-4.46.1s-3.13-.1-4.46-.1c-2.06,0-3.68.24-4.5,1.46-1.29.13-2.05.4-2.05.92,0,.43.54.84,1.47,1.19,0,.1-.02.19-.02.3,0,.22.02.44.04.66-.94.15-1.49.41-1.49.84,0,.51.74.98,1.99,1.36.12.31.25.6.4.9-.94.14-1.49.38-1.49.79,0,.64,1.29,1.22,3.32,1.62,1.73,1.6,4.13,2.6,6.78,2.6s5.05-.99,6.79-2.6c2.04-.4,3.32-.98,3.32-1.62,0-.42-.55-.66-1.48-.79.15-.29.29-.59.4-.89,1.25-.39,1.99-.86,1.99-1.37,0-.43-.55-.69-1.49-.84Z"/>
        </g>
      </g>
    </g>
  </g>
</svg>