<?xml version="1.0" encoding="UTF-8"?>
<svg id="Layer_2" data-name="Layer 2" xmlns="http://www.w3.org/2000/svg" xmlns:xlink="http://www.w3.org/1999/xlink" viewBox="0 0 77.89 77.91">
  <defs>
    <style>
      .cls-1 {
        opacity: .14;
      }

      .cls-2 {
        fill: url(#linear-gradient-2);
      }

      .cls-3 {
        opacity: .21;
      }

      .cls-4 {
        opacity: .42;
      }

      .cls-5 {
        opacity: .55;
      }

      .cls-6 {
        opacity: .48;
      }

      .cls-7 {
        opacity: .35;
      }

      .cls-8 {
        fill: url(#linear-gradient-3);
      }

      .cls-9 {
        opacity: .08;
      }

      .cls-10 {
        opacity: .28;
      }

      .cls-11 {
        opacity: 0;
      }

      .cls-12 {
        fill: url(#linear-gradient);
      }
    </style>
    <linearGradient id="linear-gradient" x1="7.13" y1="12.06" x2="30.68" y2="35.6" gradientUnits="userSpaceOnUse">
      <stop offset="0" stop-color="#a83dff"/>
      <stop offset="1" stop-color="#d4a1ff"/>
    </linearGradient>
    <linearGradient id="linear-gradient-2" x1="36.89" y1="41.82" x2="60.44" y2="65.36" xlink:href="#linear-gradient"/>
    <linearGradient id="linear-gradient-3" x1="5.22" y1="7.06" x2="65.42" y2="67.26" gradientUnits="userSpaceOnUse">
      <stop offset="0" stop-color="#2c2e2c"/>
      <stop offset=".99" stop-color="#000"/>
    </linearGradient>
  </defs>
  <g id="Layer_1-2" data-name="Layer 1">
    <g>
      <path class="cls-12" d="M40.58,24.5L18.1,2.02S6.1,15.56,4.31,17.86c-1.79,2.3-4.73,7.66.25,12.65,4.98,4.98,5.68,5.68,8.05,8.05,2.36,2.36,6.64,3.96,12.39,0,5.75-3.96,15.58-14.05,15.58-14.05Z"/>
      <path class="cls-2" d="M47.86,31.78s-12.01,13.54-13.79,15.84c-1.79,2.3-4.73,7.66.25,12.65s5.68,5.68,8.05,8.05c2.36,2.36,6.64,3.96,12.39,0,5.75-3.96,15.58-14.05,15.58-14.05l-22.48-22.48Z"/>
      <g>
        <path class="cls-11" d="M77.39,63.71l-1.62-1.62,1.45-1.29c.35-.31.55-.75.56-1.21.01-.47-.16-.91-.49-1.24l-21.78-21.78c1.01-2.53.5-5.4-1.44-7.34-1.95-1.95-4.84-2.42-7.34-1.44L24.95,6.01c-.33-.33-.78-.5-1.24-.49-.47.01-.91.21-1.21.56l-1.28,1.43-1.64-1.62c-.66-.66-1.73-.65-2.39.02-.65.66-.65,1.73.02,2.39l2.91,2.86c.33.32.77.5,1.24.49.46-.02.9-.22,1.2-.56l1.27-1.42,20.05,20.05-14.36,12.81c-3.11,2.8-7.74,2.97-10.33.39l-8.56-8.56c-1.33-1.33-1.99-3.29-1.81-5.36.16-1.8.94-3.56,2.2-4.96l6.2-6.9c.63-.69.57-1.76-.13-2.38-.7-.62-1.76-.56-2.39.13l-6.2,6.9c-1.75,1.93-2.83,4.39-3.05,6.92-.27,3.08.75,6.01,2.79,8.05l8.56,8.56c1.9,1.9,4.45,2.85,7.07,2.85,2.75,0,5.6-1.04,7.9-3.11l14.59-13.01c.1-.06.2-.14.29-.23,1.44-1.44,3.69-1.52,5.03-.18,1.13,1.13,1.28,2.93.36,4.37-.44.69-.32,1.58.25,2.13.01.01.02.03.03.04l21.31,21.31-14.37,12.81c-3.11,2.8-7.74,2.97-10.32.39l-8.56-8.56c-2.59-2.59-2.41-7.22.39-10.33l9.07-10.17c.62-.7.56-1.76-.13-2.38-.7-.62-1.77-.56-2.39.14l-9.07,10.16c-4.05,4.5-4.17,11.07-.27,14.97l8.56,8.56c1.9,1.9,4.45,2.85,7.07,2.85s5.6-1.04,7.89-3.11l11.72-10.45,1.76,1.76c.33.33.76.5,1.19.5s.87-.17,1.2-.5c.66-.66.66-1.73,0-2.39Z"/>
        <path class="cls-9" d="M76.77,63.09l-1.62-1.62,1.45-1.29c.35-.31.55-.75.56-1.21.01-.47-.16-.91-.49-1.24l-21.78-21.78c1.01-2.53.5-5.4-1.44-7.34-1.95-1.95-4.84-2.42-7.34-1.44L24.32,5.38c-.33-.33-.78-.5-1.24-.49-.47,0-.91.21-1.21.56l-1.28,1.43-1.64-1.62c-.66-.66-1.73-.65-2.39.02-.65.66-.65,1.73.02,2.39l2.91,2.86c.33.32.77.5,1.24.49.46-.02.9-.22,1.2-.56l1.27-1.42,20.05,20.05-14.36,12.81c-3.11,2.8-7.74,2.97-10.33.39l-8.56-8.56c-1.33-1.33-1.99-3.29-1.81-5.36.16-1.8.94-3.56,2.2-4.96l6.2-6.9c.63-.69.57-1.76-.13-2.38-.7-.62-1.76-.56-2.39.13l-6.2,6.9c-1.75,1.93-2.83,4.39-3.05,6.92-.27,3.08.75,6.01,2.79,8.05l8.56,8.56c1.9,1.9,4.45,2.85,7.07,2.85,2.75,0,5.6-1.04,7.9-3.11l14.59-13.01c.1-.06.2-.14.29-.23,1.44-1.43,3.69-1.52,5.03-.18,1.13,1.13,1.28,2.93.36,4.37-.44.69-.32,1.58.25,2.13.01.01.02.03.03.04l21.31,21.31-14.37,12.81c-3.11,2.8-7.74,2.97-10.32.39l-8.56-8.56c-2.59-2.59-2.41-7.22.39-10.33l9.07-10.17c.62-.7.56-1.76-.13-2.38-.7-.62-1.77-.56-2.39.14l-9.07,10.16c-4.05,4.5-4.17,11.07-.27,14.97l8.56,8.56c1.9,1.9,4.45,2.85,7.07,2.85s5.6-1.04,7.89-3.11l11.72-10.45,1.76,1.76c.33.33.76.5,1.19.5s.87-.17,1.2-.5c.66-.66.66-1.73,0-2.39Z"/>
        <path class="cls-1" d="M76.14,62.46l-1.62-1.62,1.45-1.29c.35-.31.55-.75.56-1.21.01-.47-.16-.91-.49-1.24l-21.78-21.78c1.01-2.53.5-5.4-1.44-7.34-1.95-1.95-4.84-2.42-7.34-1.44L23.7,4.76c-.33-.33-.78-.5-1.24-.49-.47,0-.91.21-1.21.56l-1.28,1.43-1.64-1.62c-.66-.66-1.73-.65-2.39.02-.65.66-.65,1.73.02,2.39l2.91,2.86c.33.32.77.5,1.24.49.46-.02.9-.22,1.2-.56l1.27-1.42,20.05,20.05-14.36,12.81c-3.11,2.8-7.74,2.97-10.33.39l-8.56-8.56c-1.33-1.33-1.99-3.29-1.81-5.36.16-1.8.94-3.56,2.2-4.96l6.2-6.9c.63-.69.57-1.76-.13-2.38-.7-.62-1.76-.56-2.39.13l-6.2,6.9c-1.75,1.93-2.83,4.39-3.05,6.92-.27,3.08.75,6.01,2.79,8.05l8.56,8.56c1.9,1.9,4.45,2.85,7.07,2.85,2.75,0,5.6-1.04,7.9-3.11l14.59-13.01c.1-.06.2-.14.29-.23,1.44-1.43,3.69-1.52,5.03-.18,1.13,1.13,1.28,2.93.36,4.37-.44.69-.32,1.58.25,2.13.01.01.02.03.03.04l21.31,21.31-14.37,12.81c-3.11,2.8-7.74,2.97-10.32.39l-8.56-8.56c-2.59-2.59-2.41-7.22.39-10.33l9.07-10.17c.62-.7.56-1.76-.13-2.38-.7-.62-1.77-.56-2.39.14l-9.07,10.16c-4.05,4.5-4.17,11.07-.27,14.97l8.56,8.56c1.9,1.9,4.45,2.85,7.07,2.85s5.6-1.04,7.89-3.11l11.72-10.45,1.76,1.76c.33.33.76.5,1.19.5s.87-.17,1.2-.5c.66-.66.66-1.73,0-2.39Z"/>
        <path class="cls-3" d="M75.52,61.84l-1.62-1.62,1.45-1.29c.35-.31.55-.75.56-1.21.01-.47-.16-.91-.49-1.24l-21.78-21.78c1.01-2.53.5-5.4-1.44-7.34-1.95-1.95-4.84-2.42-7.34-1.44L23.07,4.13c-.33-.33-.78-.5-1.24-.49-.47,0-.91.21-1.21.56l-1.28,1.43-1.64-1.62c-.66-.66-1.73-.65-2.39.02-.65.66-.65,1.73.02,2.39l2.91,2.86c.33.32.77.5,1.24.49.46-.02.9-.22,1.2-.56l1.27-1.42,20.05,20.05-14.36,12.81c-3.11,2.8-7.74,2.97-10.33.39l-8.56-8.56c-1.33-1.33-1.99-3.29-1.81-5.36.16-1.8.94-3.56,2.2-4.96l6.2-6.9c.63-.69.57-1.76-.13-2.38-.7-.62-1.76-.56-2.39.13l-6.2,6.9c-1.75,1.93-2.83,4.39-3.05,6.92-.27,3.08.75,6.01,2.79,8.05l8.56,8.56c1.9,1.9,4.45,2.85,7.07,2.85,2.75,0,5.6-1.04,7.9-3.11l14.59-13.01c.1-.06.2-.14.29-.23,1.44-1.43,3.69-1.52,5.03-.18,1.13,1.13,1.28,2.93.36,4.37-.44.69-.32,1.58.25,2.13.01.01.02.03.03.04l21.31,21.31-14.37,12.81c-3.11,2.8-7.74,2.97-10.32.39l-8.56-8.56c-2.59-2.59-2.41-7.22.39-10.33l9.07-10.17c.62-.7.56-1.76-.13-2.38-.7-.62-1.77-.56-2.39.14l-9.07,10.16c-4.05,4.5-4.17,11.07-.27,14.97l8.56,8.56c1.9,1.9,4.45,2.85,7.07,2.85s5.6-1.04,7.89-3.11l11.72-10.45,1.76,1.76c.33.33.76.5,1.19.5s.87-.17,1.2-.5c.66-.66.66-1.73,0-2.39Z"/>
        <path class="cls-10" d="M74.89,61.21l-1.62-1.62,1.45-1.29c.35-.31.55-.75.56-1.21.01-.47-.16-.91-.49-1.24l-21.78-21.78c1.01-2.53.5-5.4-1.44-7.34-1.95-1.95-4.84-2.42-7.34-1.44L22.45,3.51c-.33-.33-.78-.5-1.24-.49-.47,0-.91.21-1.21.56l-1.28,1.43-1.64-1.62c-.66-.66-1.73-.65-2.39.02-.65.66-.65,1.73.02,2.39l2.91,2.86c.33.32.77.5,1.24.49.46-.02.9-.22,1.2-.56l1.27-1.42,20.05,20.05-14.36,12.81c-3.11,2.8-7.74,2.97-10.33.39l-8.56-8.56c-1.33-1.33-1.99-3.29-1.81-5.36.16-1.8.94-3.56,2.2-4.96l6.2-6.9c.63-.69.57-1.76-.13-2.38-.7-.62-1.76-.56-2.39.13l-6.2,6.9c-1.75,1.93-2.83,4.39-3.05,6.92-.27,3.08.75,6.01,2.79,8.05l8.56,8.56c1.9,1.9,4.45,2.85,7.07,2.85,2.75,0,5.6-1.04,7.9-3.11l14.59-13.01c.1-.06.2-.14.29-.23,1.44-1.43,3.69-1.52,5.03-.18,1.13,1.13,1.28,2.93.36,4.37-.44.69-.32,1.58.25,2.13.01.01.02.03.03.04l21.31,21.31-14.37,12.81c-3.11,2.8-7.74,2.97-10.32.39l-8.56-8.56c-2.59-2.59-2.41-7.22.39-10.33l9.07-10.17c.62-.7.56-1.76-.13-2.38-.7-.62-1.77-.56-2.39.14l-9.07,10.16c-4.05,4.5-4.17,11.07-.27,14.97l8.56,8.56c1.9,1.9,4.45,2.85,7.07,2.85s5.6-1.04,7.89-3.11l11.72-10.45,1.76,1.76c.33.33.76.5,1.19.5s.87-.17,1.2-.5c.66-.66.66-1.73,0-2.39Z"/>
        <path class="cls-7" d="M74.27,60.59l-1.62-1.62,1.45-1.29c.35-.31.55-.75.56-1.21.01-.47-.16-.91-.49-1.24l-21.78-21.78c1.01-2.53.5-5.4-1.44-7.34-1.95-1.95-4.84-2.42-7.34-1.44L21.82,2.88c-.33-.33-.78-.5-1.24-.49-.47,0-.91.21-1.21.56l-1.28,1.43-1.64-1.62c-.66-.66-1.73-.65-2.39.02-.65.66-.65,1.73.02,2.39l2.91,2.86c.33.32.77.5,1.24.49.46-.02.9-.22,1.2-.56l1.27-1.42,20.05,20.05-14.36,12.81c-3.11,2.8-7.74,2.97-10.33.39l-8.56-8.56c-1.33-1.33-1.99-3.29-1.81-5.36.16-1.8.94-3.56,2.2-4.96l6.2-6.9c.63-.69.57-1.76-.13-2.38-.7-.62-1.76-.56-2.39.13l-6.2,6.9c-1.75,1.93-2.83,4.39-3.05,6.92-.27,3.08.75,6.01,2.79,8.05l8.56,8.56c1.9,1.9,4.45,2.85,7.07,2.85,2.75,0,5.6-1.04,7.9-3.11l14.59-13.01c.1-.06.2-.14.29-.23,1.44-1.43,3.69-1.52,5.03-.18,1.13,1.13,1.28,2.93.36,4.37-.44.69-.32,1.58.25,2.13.01.01.02.03.03.04l21.31,21.31-14.37,12.81c-3.11,2.8-7.74,2.97-10.32.39l-8.56-8.56c-2.59-2.59-2.41-7.22.39-10.33l9.07-10.17c.62-.7.56-1.76-.13-2.38-.7-.62-1.77-.56-2.39.14l-9.07,10.16c-4.05,4.5-4.17,11.07-.27,14.97l8.56,8.56c1.9,1.9,4.45,2.85,7.07,2.85s5.6-1.04,7.89-3.11l11.72-10.45,1.76,1.76c.33.33.76.5,1.19.5s.87-.17,1.2-.5c.66-.66.66-1.73,0-2.39Z"/>
        <path class="cls-4" d="M73.64,59.96l-1.62-1.62,1.45-1.29c.35-.31.55-.75.56-1.21.01-.47-.16-.91-.49-1.24l-21.78-21.78c1.01-2.53.5-5.4-1.44-7.34-1.95-1.95-4.84-2.42-7.34-1.44L21.2,2.26c-.33-.33-.78-.5-1.24-.49-.47,0-.91.21-1.21.56l-1.28,1.43-1.64-1.62c-.66-.66-1.73-.65-2.39.02-.65.66-.65,1.73.02,2.39l2.91,2.86c.33.32.77.5,1.24.49.46-.02.9-.22,1.2-.56l1.27-1.42,20.05,20.05-14.36,12.81c-3.11,2.8-7.74,2.97-10.33.39l-8.56-8.56c-1.33-1.33-1.99-3.29-1.81-5.36.16-1.8.94-3.56,2.2-4.96l6.2-6.9c.63-.69.57-1.76-.13-2.38-.7-.62-1.76-.56-2.39.13l-6.2,6.9c-1.75,1.93-2.83,4.39-3.05,6.92-.27,3.08.75,6.01,2.79,8.05l8.56,8.56c1.9,1.9,4.45,2.85,7.07,2.85,2.75,0,5.6-1.04,7.9-3.11l14.59-13.01c.1-.06.2-.14.29-.23,1.44-1.43,3.69-1.52,5.03-.18,1.13,1.13,1.28,2.93.36,4.37-.44.69-.32,1.58.25,2.13.01.01.02.03.03.04l21.31,21.31-14.37,12.81c-3.11,2.8-7.74,2.97-10.32.39l-8.56-8.56c-2.59-2.59-2.41-7.22.39-10.33l9.07-10.17c.62-.7.56-1.76-.13-2.38-.7-.62-1.77-.56-2.39.14l-9.07,10.16c-4.05,4.5-4.17,11.07-.27,14.97l8.56,8.56c1.9,1.9,4.45,2.85,7.07,2.85s5.6-1.04,7.89-3.11l11.72-10.45,1.76,1.76c.33.33.76.5,1.19.5s.87-.17,1.2-.5c.66-.66.66-1.73,0-2.39Z"/>
        <path class="cls-6" d="M73.02,59.34l-1.62-1.62,1.45-1.29c.35-.31.55-.75.56-1.21.01-.47-.16-.91-.49-1.24l-21.78-21.78c1.01-2.53.5-5.4-1.44-7.34-1.95-1.95-4.84-2.42-7.34-1.44L20.57,1.63c-.33-.33-.78-.5-1.24-.49-.47,0-.91.21-1.21.56l-1.28,1.43-1.64-1.62c-.66-.66-1.73-.65-2.39.02-.65.66-.65,1.73.02,2.39l2.91,2.86c.33.32.77.5,1.24.49.46-.02.9-.22,1.2-.56l1.27-1.42,20.05,20.05-14.36,12.81c-3.11,2.8-7.74,2.97-10.33.39l-8.56-8.56c-1.33-1.33-1.99-3.29-1.81-5.36.16-1.8.94-3.56,2.2-4.96l6.2-6.9c.63-.69.57-1.76-.13-2.38-.7-.62-1.76-.56-2.39.13l-6.2,6.9c-1.75,1.93-2.83,4.39-3.05,6.92-.27,3.08.75,6.01,2.79,8.05l8.56,8.56c1.9,1.9,4.45,2.85,7.07,2.85,2.75,0,5.6-1.04,7.9-3.11l14.59-13.01c.1-.06.2-.14.29-.23,1.44-1.43,3.69-1.52,5.03-.18,1.13,1.13,1.28,2.93.36,4.37-.44.69-.32,1.58.25,2.13.01.01.02.03.03.04l21.31,21.31-14.37,12.81c-3.11,2.8-7.74,2.97-10.32.39l-8.56-8.56c-2.59-2.59-2.41-7.22.39-10.33l9.07-10.17c.62-.7.56-1.76-.13-2.38-.7-.62-1.77-.56-2.39.14l-9.07,10.16c-4.05,4.5-4.17,11.07-.27,14.97l8.56,8.56c1.9,1.9,4.45,2.85,7.07,2.85s5.6-1.04,7.89-3.11l11.72-10.45,1.76,1.76c.33.33.76.5,1.19.5s.87-.17,1.2-.5c.66-.66.66-1.73,0-2.39Z"/>
        <path class="cls-5" d="M72.39,58.71l-1.62-1.62,1.45-1.29c.35-.31.55-.75.56-1.21.01-.47-.16-.91-.49-1.24l-21.78-21.78c1.01-2.53.5-5.4-1.44-7.34-1.95-1.95-4.84-2.42-7.34-1.44L19.95,1.01c-.33-.33-.78-.5-1.24-.49-.47.01-.91.21-1.21.56l-1.28,1.43-1.64-1.62c-.66-.66-1.73-.65-2.39.02-.65.66-.65,1.73.02,2.39l2.91,2.86c.33.32.77.5,1.24.49.46-.02.9-.22,1.2-.56l1.27-1.42,20.05,20.05-14.36,12.81c-3.11,2.8-7.74,2.97-10.33.39l-8.56-8.56c-1.33-1.33-1.99-3.29-1.81-5.36.16-1.8.94-3.56,2.2-4.96l6.2-6.9c.63-.69.57-1.76-.13-2.38-.7-.62-1.76-.56-2.39.13l-6.2,6.9c-1.75,1.93-2.83,4.39-3.05,6.92-.27,3.08.75,6.01,2.79,8.05l8.56,8.56c1.9,1.9,4.45,2.85,7.07,2.85,2.75,0,5.6-1.04,7.9-3.11l14.59-13.01c.1-.06.2-.14.29-.23,1.44-1.44,3.69-1.52,5.03-.18,1.13,1.13,1.28,2.93.36,4.37-.44.69-.32,1.58.25,2.13.01.01.02.03.03.04l21.31,21.31-14.37,12.81c-3.11,2.8-7.74,2.97-10.32.39l-8.56-8.56c-2.59-2.59-2.41-7.22.39-10.33l9.07-10.17c.62-.7.56-1.76-.13-2.38-.7-.62-1.77-.56-2.39.14l-9.07,10.16c-4.05,4.5-4.17,11.07-.27,14.97l8.56,8.56c1.9,1.9,4.45,2.85,7.07,2.85s5.6-1.04,7.89-3.11l11.72-10.45,1.76,1.76c.33.33.76.5,1.19.5s.87-.17,1.2-.5c.66-.66.66-1.73,0-2.39Z"/>
      </g>
      <path class="cls-8" d="M71.99,58.31l-1.62-1.62,1.45-1.29c.35-.31.55-.75.56-1.21.01-.47-.16-.91-.49-1.24l-21.78-21.78c1.01-2.53.5-5.4-1.44-7.34-1.95-1.95-4.84-2.42-7.34-1.44L19.54.6c-.33-.33-.78-.5-1.24-.49-.47.01-.91.21-1.21.56l-1.28,1.43-1.64-1.62c-.66-.66-1.73-.65-2.39.02-.65.66-.65,1.74.02,2.39l2.91,2.86c.33.32.77.5,1.24.49.46-.01.9-.22,1.2-.56l1.27-1.42,20.05,20.05-14.36,12.81c-3.11,2.8-7.74,2.97-10.33.39l-8.56-8.56c-1.33-1.33-1.99-3.29-1.81-5.36.16-1.8.94-3.56,2.2-4.96l6.2-6.91c.63-.69.57-1.76-.13-2.38-.7-.62-1.76-.56-2.39.13l-6.2,6.9C1.35,18.3.27,20.75.04,23.28c-.27,3.08.75,6.01,2.79,8.05l8.56,8.56c1.9,1.9,4.45,2.85,7.07,2.85,2.75,0,5.6-1.04,7.9-3.11l14.59-13.01c.1-.06.2-.14.29-.23,1.44-1.44,3.69-1.52,5.03-.18,1.13,1.13,1.28,2.93.36,4.37-.44.69-.32,1.58.25,2.13.01.01.02.03.03.04l21.31,21.31-14.37,12.81c-3.11,2.8-7.74,2.97-10.32.39l-8.56-8.56c-2.59-2.59-2.41-7.22.39-10.33l9.07-10.17c.62-.7.56-1.76-.13-2.38-.7-.62-1.77-.56-2.39.14l-9.07,10.16c-4.05,4.5-4.17,11.08-.27,14.98l8.56,8.56c1.9,1.9,4.45,2.85,7.07,2.85s5.6-1.04,7.89-3.11l11.72-10.45,1.76,1.76c.33.33.76.5,1.19.5s.87-.17,1.2-.5c.66-.66.66-1.73,0-2.39Z"/>
    </g>
  </g>
</svg>