<?xml version="1.0" encoding="UTF-8"?>
<svg id="Layer_2" data-name="Layer 2" xmlns="http://www.w3.org/2000/svg" viewBox="0 0 27.36 22.62">
  <defs>
    <style>
      .cls-1 {
        fill-rule: evenodd;
      }
    </style>
  </defs>
  <g id="_1" data-name="1">
    <path class="cls-1" d="M1.05,0h25.24c.59,0,1.07.48,1.07,1.07v.52s-.04-.02-.06-.04c-.25-.27-.61-.43-1.01-.43H1.05c-.39,0-.75.16-1.02.43H.03s-.03.04-.03.04v-.52C0,.48.46,0,1.05,0h0ZM23.41,11.59c.34,0,.61.29.61.61,0,.34-.27.61-.61.61s-.61-.27-.61-.61c0-.32.27-.61.61-.61h0ZM23.41,10.38c.5,0,.96.22,1.29.54.34.34.54.79.54,1.29s-.2.97-.54,1.29h0c-.33.34-.79.54-1.29.54s-.96-.2-1.29-.54c-.34-.32-.54-.78-.54-1.29s.2-.95.54-1.29h0c.32-.32.79-.54,1.29-.54h0ZM26.98,22.37c-.2.16-.42.25-.69.25H1.05c-.25,0-.5-.09-.68-.25V2.57c0-.19.07-.36.2-.48h0c.13-.13.3-.2.48-.2h25.24c.19,0,.35.07.48.2.13.13.21.29.21.48v6.17h-5.56c-.39,0-.77.16-1.02.43h0c-.27.27-.43.62-.43,1.02v4.04c0,.41.16.77.43,1.02.25.27.6.43,1.02.43h5.56v6.7ZM26.98,9.51v5.41h-5.56c-.2,0-.36-.09-.48-.21-.12-.13-.21-.29-.21-.48v-4.04c0-.17.09-.35.21-.48h0c.12-.13.29-.2.48-.2h5.56Z"/>
  </g>
</svg>