<?xml version="1.0" encoding="UTF-8"?>
<svg xmlns="http://www.w3.org/2000/svg" xmlns:xlink="http://www.w3.org/1999/xlink" viewBox="0 0 51.01 69.29">
  <defs>
    <style>
      .cls-1 {
        fill: #fff;
        mix-blend-mode: soft-light;
        opacity: .8;
        stroke: #fff;
      }

      .cls-1, .cls-2 {
        stroke-miterlimit: 10;
      }

      .cls-3 {
        isolation: isolate;
      }

      .cls-2 {
        fill: url(#linear-gradient);
        stroke: #ce0543;
      }
    </style>
    <linearGradient id="linear-gradient" x1=".89" y1="34.81" x2="50.51" y2="34.81" gradientUnits="userSpaceOnUse">
      <stop offset="0" stop-color="#f2b3c3"/>
      <stop offset=".51" stop-color="#e84f7b"/>
      <stop offset=".69" stop-color="#d13769"/>
      <stop offset=".86" stop-color="#c1275d"/>
      <stop offset="1" stop-color="#bc2259"/>
    </linearGradient>
  </defs>
  <g class="cls-3">
    <g id="Layer_2" data-name="Layer 2">
      <g id="Objects">
        <g>
          <path class="cls-2" d="M43.59,27.01h-3.43v-11.15c0-8.31-5.83-15.04-13.01-15.04h-2.89c-7.19,0-13,6.73-13,15.04v11.15h-3.44c-3.82,0-6.92,3.39-6.92,7.59v26.59c0,4.19,3.1,7.6,6.92,7.6h35.77c3.83,0,6.93-3.4,6.93-7.6v-26.59c0-4.2-3.1-7.59-6.93-7.59h0ZM28.47,54.26h-5.54l.72-6.82c-.94-.61-1.56-1.65-1.56-2.82,0-1.88,1.62-3.42,3.61-3.42s3.61,1.54,3.61,3.42c0,1.17-.62,2.2-1.56,2.82l.72,6.82h0ZM35.34,27.01h-19.27v-11.15c0-5.22,3.66-9.46,8.19-9.47h2.89c4.52.01,8.18,4.25,8.19,9.47v11.15h0Z"/>
          <path class="cls-1" d="M15.72,26.08v-10.89c0-5.1,3.67-9.24,8.21-9.25h2.9c4.53.01,8.2,4.15,8.21,9.25v10.89H15.72ZM26.84.5h-2.9c-7.21,0-13.04,6.58-13.04,14.69v10.89h-3.45c-3.83,0-6.94,3.31-6.94,7.42v2.47c7.85,1.89,16.21,2.91,24.88,2.91s17.04-1.02,24.89-2.91v-2.47c0-4.1-3.11-7.42-6.95-7.42h-3.44v-10.89c0-8.11-5.85-14.69-13.04-14.69h0Z"/>
        </g>
      </g>
    </g>
  </g>
</svg>