<?xml version="1.0" encoding="UTF-8"?>
<svg id="Layer_2" data-name="Layer 2" xmlns="http://www.w3.org/2000/svg" viewBox="0 0 15.5 27.36">
  <defs>
    <style>
      .cls-1 {
        fill-rule: evenodd;
      }
    </style>
  </defs>
  <g id="_1" data-name="1">
    <path class="cls-1" d="M14.41,0H1.08C.48,0,0,.49,0,1.09v25.14c0,.62.48,1.13,1.08,1.13h13.33c.62,0,1.09-.51,1.09-1.13V1.09c0-.6-.47-1.09-1.09-1.09h0ZM12.03,16.59h1.22c-.37.78-.97,1.38-1.75,1.83-.9.51-1.99.75-3.29.75s-2.34-.22-3.25-.63c-.91-.43-1.59-1.06-2.04-1.89-.45-.84-.67-1.73-.67-2.71,0-1.08.25-2.08.75-3,.51-.92,1.21-1.62,2.08-2.08.88-.46,1.88-.69,3.01-.69.96,0,1.81.19,2.56.56.75.37,1.31.9,1.71,1.59.39.68.59,1.43.59,2.24,0,.98-.31,1.85-.9,2.63-.75,1-1.71,1.49-2.89,1.49-.32,0-.55-.06-.71-.17-.15-.1-.26-.27-.32-.48-.45.43-.97.65-1.55.65-.63,0-1.16-.22-1.58-.66-.42-.44-.63-1.01-.63-1.73,0-.9.25-1.71.76-2.44.6-.9,1.39-1.35,2.34-1.35.68,0,1.18.25,1.5.78l.14-.63h1.5l-.87,4.08c-.04.26-.08.42-.08.5,0,.1.02.16.06.22.05.04.1.06.15.06.19,0,.43-.1.71-.33.38-.29.7-.68.94-1.16.24-.49.36-1,.36-1.51,0-.93-.34-1.73-1.02-2.34-.68-.64-1.62-.95-2.83-.95-1.03,0-1.91.21-2.63.63-.71.42-1.25,1.02-1.61,1.79-.36.76-.55,1.56-.55,2.38s.2,1.53.6,2.2c.41.66.98,1.14,1.71,1.44.74.3,1.57.46,2.51.46s1.69-.13,2.35-.38c.66-.26,1.18-.64,1.58-1.16h0ZM5.89,14.25c0,.49.1.85.28,1.08.2.22.44.34.73.34.21,0,.42-.05.6-.16.14-.08.29-.2.43-.36.2-.23.37-.56.53-1.01.14-.45.21-.85.21-1.25,0-.43-.1-.76-.3-.99-.2-.23-.45-.34-.76-.34s-.62.12-.9.38c-.27.25-.48.61-.62,1.08-.14.47-.2.88-.2,1.24h0ZM5.41,2.3h0s.13.03.13.12-.09.13-.13.13c-.09,0-.13-.04-.13-.13s.04-.12.13-.12h0ZM4.46,2.12h0c.13,0,.27.12.27.3,0,.13-.13.27-.27.27-.18,0-.31-.13-.31-.27,0-.18.13-.3.31-.3h0ZM3.26,1.99h0c.21,0,.38.17.38.38,0,.18-.18.35-.38.35-.22,0-.35-.17-.35-.35,0-.21.13-.38.35-.38h0ZM1.95,1.95h0c.22,0,.39.18.39.43,0,.22-.18.4-.39.4-.27,0-.44-.18-.44-.4,0-.25.18-.43.44-.43h0ZM7.75,23.38h0c.91,0,1.65.73,1.65,1.65s-.73,1.65-1.65,1.65-1.64-.74-1.64-1.65.73-1.65,1.64-1.65h0ZM6.28,2.3h2.77c.12,0,.21.08.21.16,0,.14-.09.22-.21.22h-2.77c-.13,0-.22-.09-.22-.22,0-.08.09-.16.22-.16h0ZM14.25,22.98H1.26V4.33h12.99v18.66Z"/>
  </g>
</svg>