<?xml version="1.0" encoding="UTF-8"?>
<svg id="Layer_2" data-name="Layer 2" xmlns="http://www.w3.org/2000/svg" xmlns:xlink="http://www.w3.org/1999/xlink" viewBox="0 0 77.56 81.09">
  <defs>
    <style>
      .cls-1 {
        opacity: .14;
      }

      .cls-2 {
        fill: url(#linear-gradient-2);
      }

      .cls-3 {
        opacity: .21;
      }

      .cls-4 {
        opacity: .42;
      }

      .cls-5 {
        opacity: .55;
      }

      .cls-6 {
        fill: url(#linear-gradient-4);
      }

      .cls-7 {
        opacity: .48;
      }

      .cls-8 {
        opacity: .35;
      }

      .cls-9 {
        fill: url(#linear-gradient-3);
      }

      .cls-10 {
        opacity: .08;
      }

      .cls-11 {
        opacity: .28;
      }

      .cls-12 {
        opacity: 0;
      }

      .cls-13 {
        fill: url(#linear-gradient);
      }
    </style>
    <linearGradient id="linear-gradient" x1="17.34" y1="19.61" x2="52.66" y2="54.93" gradientUnits="userSpaceOnUse">
      <stop offset="0" stop-color="#eb0a00"/>
      <stop offset="1" stop-color="#ff853b"/>
    </linearGradient>
    <linearGradient id="linear-gradient-2" x1=".73" y1="27.6" x2="19.76" y2="46.63" gradientUnits="userSpaceOnUse">
      <stop offset="0" stop-color="#a3b6bb"/>
      <stop offset="1" stop-color="#d2dddd"/>
    </linearGradient>
    <linearGradient id="linear-gradient-3" x1="24.99" y1="17.67" x2="63.77" y2="56.44" xlink:href="#linear-gradient-2"/>
    <linearGradient id="linear-gradient-4" x1="12.78" y1="13.85" x2="60.76" y2="61.83" gradientUnits="userSpaceOnUse">
      <stop offset="0" stop-color="#2c2e2c"/>
      <stop offset=".99" stop-color="#000"/>
    </linearGradient>
  </defs>
  <g id="Layer_1-2" data-name="Layer 1">
    <g>
      <path class="cls-13" d="M38.3,7.02l-22.67,15s-.27.01-.73.03v29.97h.23s20.33,13.67,23,15.83c.06.35.22.74.46,1.15V6.02c-.21.59-.29,1-.29,1Z"/>
      <path class="cls-2" d="M14.42,22.13h-5.02c-1.6,0-7.86,1.47-7.86,7.99v14.38c0,2.13,2.53,7.59,6.39,7.59h6.35l.13-29.97Z"/>
      <path class="cls-9" d="M44.53.95c-3.33,0-6.53,1.87-6.53,7.86v59.04c0,1.69,2.66,5.02,7.33,5.02s5.33-5.06,5.33-9.19V7.48c0-2.8-2.66-6.53-6.13-6.53Z"/>
      <g>
        <path class="cls-12" d="M62.13,23.41c-.91-.23-1.82.32-2.05,1.22s.32,1.82,1.22,2.05c7.58,1.92,12.88,8.73,12.88,16.56s-5.3,14.64-12.88,16.56c-.9.23-1.45,1.15-1.22,2.05.19.77.88,1.28,1.64,1.28.14,0,.28-.02.42-.05,9.09-2.29,15.43-10.45,15.43-19.83s-6.34-17.54-15.43-19.84ZM60.97,51.26c-.84.41-1.19,1.42-.78,2.26.29.6.89.95,1.52.95.25,0,.5-.06.74-.17,4.27-2.07,6.93-6.31,6.93-11.05s-2.66-8.97-6.93-11.04c-.84-.41-1.85-.06-2.26.78-.41.84-.06,1.85.78,2.26,3.1,1.51,5.03,4.58,5.03,8.01s-1.93,6.5-5.03,8.01ZM18.45,56.43h-3.93c-3.17,0-5.74-2.58-5.74-5.75v-14.87c0-3.17,2.58-5.75,5.74-5.75h3.93v26.36ZM49.2,5.41c-4.16,0-7.55,3.38-7.55,7.55v51.88c0,.93.76,1.69,1.69,1.69s1.69-.76,1.69-1.69V12.95c0-2.3,1.87-4.17,4.17-4.17s4.17,1.87,4.17,4.17v60.59c0,2.3-1.87,4.17-4.17,4.17s-4.17-1.87-4.17-4.17c0-.66-.37-1.21-.92-1.5l-22.15-14.48c-.03-.1-.07-.19-.12-.27v-28.08c.05-.09.09-.18.12-.28l15.29-10.02c.78-.51,1-1.56.48-2.34-.51-.78-1.56-1-2.34-.49l-16.18,10.61h-4.69c-5.03,0-9.12,4.09-9.12,9.12v14.87c0,5.03,4.09,9.12,9.12,9.12h4.69s22.51,14.72,22.51,14.72c.48,3.7,3.65,6.56,7.48,6.56,4.16,0,7.54-3.38,7.54-7.54V12.95c0-4.16-3.38-7.55-7.54-7.55Z"/>
        <path class="cls-10" d="M61.5,22.79c-.91-.23-1.82.32-2.05,1.22s.32,1.82,1.22,2.05c7.58,1.92,12.88,8.73,12.88,16.56s-5.3,14.64-12.88,16.56c-.9.23-1.45,1.15-1.22,2.05.19.77.88,1.28,1.64,1.28.14,0,.28-.02.42-.05,9.07-2.36,15.43-10.45,15.43-19.83s-6.34-17.54-15.43-19.84ZM60.35,50.63c-.84.41-1.19,1.42-.78,2.26.29.6.89.95,1.52.95.25,0,.5-.06.74-.17,4.27-2.07,6.93-6.31,6.93-11.05s-2.66-8.97-6.93-11.04c-.84-.41-1.85-.06-2.26.78-.41.84-.06,1.85.78,2.26,3.1,1.51,5.03,4.58,5.03,8.01s-1.93,6.5-5.03,8.01ZM17.83,55.8h-3.93c-3.17,0-5.74-2.58-5.74-5.75v-14.87c0-3.17,2.58-5.75,5.74-5.75h3.93v26.36ZM48.58,4.78c-4.16,0-7.55,3.38-7.55,7.55v51.88c0,.93.76,1.69,1.69,1.69s1.69-.76,1.69-1.69V12.33c0-2.3,1.87-4.17,4.17-4.17s4.17,1.87,4.17,4.17v60.59c0,2.3-1.87,4.17-4.17,4.17s-4.17-1.87-4.17-4.17c0-.66-.37-1.21-.92-1.5l-22.15-14.48c-.03-.1-.07-.19-.12-.27v-28.08c.05-.09.09-.18.12-.28l15.29-10.02c.78-.51,1-1.56.48-2.34-.51-.78-1.56-1-2.34-.49l-16.18,10.61h-4.69c-5.03,0-9.12,4.09-9.12,9.12v14.87c0,5.03,4.09,9.12,9.12,9.12h4.69s22.51,14.72,22.51,14.72c.48,3.7,3.65,6.56,7.48,6.56,4.16,0,7.54-3.38,7.54-7.54V12.33c0-4.16-3.38-7.55-7.54-7.55Z"/>
        <path class="cls-1" d="M60.88,22.16c-.91-.23-1.82.32-2.05,1.22s.32,1.82,1.22,2.05c7.58,1.92,12.88,8.73,12.88,16.56s-5.3,14.64-12.88,16.56c-.9.23-1.45,1.15-1.22,2.05.19.77.88,1.28,1.64,1.28.14,0,.28-.02.42-.05,9.07-2.36,15.43-10.45,15.43-19.83s-6.34-17.54-15.43-19.84ZM59.72,50.01c-.84.41-1.19,1.42-.78,2.26.29.6.89.95,1.52.95.25,0,.5-.06.74-.17,4.27-2.07,6.93-6.31,6.93-11.05s-2.66-8.97-6.93-11.04c-.84-.41-1.85-.06-2.26.78-.41.84-.06,1.85.78,2.26,3.1,1.51,5.03,4.58,5.03,8.01s-1.93,6.5-5.03,8.01ZM17.2,55.18h-3.93c-3.17,0-5.74-2.58-5.74-5.75v-14.87c0-3.17,2.58-5.75,5.74-5.75h3.93v26.36ZM47.95,4.16c-4.16,0-7.55,3.38-7.55,7.55v51.88c0,.93.76,1.69,1.69,1.69s1.69-.76,1.69-1.69V11.7c0-2.3,1.87-4.17,4.17-4.17s4.17,1.87,4.17,4.17v60.59c0,2.3-1.87,4.17-4.17,4.17s-4.17-1.87-4.17-4.17c0-.66-.37-1.21-.92-1.5l-22.15-14.48c-.03-.1-.07-.19-.12-.27v-28.08c.05-.09.09-.18.12-.28l15.29-10.02c.78-.51,1-1.56.48-2.34-.51-.78-1.56-1-2.34-.49l-16.18,10.61h-4.69c-5.03,0-9.12,4.09-9.12,9.12v14.87c0,5.03,4.09,9.12,9.12,9.12h4.69s22.51,14.72,22.51,14.72c.48,3.7,3.65,6.56,7.48,6.56,4.16,0,7.54-3.38,7.54-7.54V11.7c0-4.16-3.38-7.55-7.54-7.55Z"/>
        <path class="cls-3" d="M60.25,21.54c-.91-.23-1.82.32-2.05,1.22s.32,1.82,1.22,2.05c7.58,1.92,12.88,8.73,12.88,16.56s-5.3,14.64-12.88,16.56c-.9.23-1.45,1.15-1.22,2.05.19.77.88,1.28,1.64,1.28.14,0,.28-.02.42-.05,9.07-2.36,15.43-10.45,15.43-19.83s-6.34-17.54-15.43-19.84ZM59.1,49.38c-.84.41-1.19,1.42-.78,2.26.29.6.89.95,1.52.95.25,0,.5-.06.74-.17,4.27-2.07,6.93-6.31,6.93-11.05s-2.66-8.97-6.93-11.04c-.84-.41-1.85-.06-2.26.78-.41.84-.06,1.85.78,2.26,3.1,1.51,5.03,4.58,5.03,8.01s-1.93,6.5-5.03,8.01ZM16.58,54.55h-3.93c-3.17,0-5.74-2.58-5.74-5.75v-14.87c0-3.17,2.58-5.75,5.74-5.75h3.93v26.36ZM47.33,3.53c-4.16,0-7.55,3.38-7.55,7.55v51.88c0,.93.76,1.69,1.69,1.69s1.69-.76,1.69-1.69V11.08c0-2.3,1.87-4.17,4.17-4.17s4.17,1.87,4.17,4.17v60.59c0,2.3-1.87,4.17-4.17,4.17s-4.17-1.87-4.17-4.17c0-.66-.37-1.21-.92-1.5l-22.15-14.48c-.03-.1-.07-.19-.12-.27v-28.08c.05-.09.09-.18.12-.28l15.29-10.02c.78-.51,1-1.56.48-2.34-.51-.78-1.56-1-2.34-.49l-16.18,10.61h-4.69c-5.03,0-9.12,4.09-9.12,9.12v14.87c0,5.03,4.09,9.12,9.12,9.12h4.69s22.51,14.72,22.51,14.72c.48,3.7,3.65,6.56,7.48,6.56,4.16,0,7.54-3.38,7.54-7.54V11.08c0-4.16-3.38-7.55-7.54-7.55Z"/>
        <path class="cls-11" d="M59.63,20.91c-.91-.23-1.82.32-2.05,1.22s.32,1.82,1.22,2.05c7.58,1.92,12.88,8.73,12.88,16.56s-5.3,14.64-12.88,16.56c-.9.23-1.45,1.15-1.22,2.05.19.77.88,1.28,1.64,1.28.14,0,.28-.02.42-.05,9.07-2.36,15.43-10.45,15.43-19.83s-6.34-17.54-15.43-19.84ZM58.47,48.76c-.84.41-1.19,1.42-.78,2.26.29.6.89.95,1.52.95.25,0,.5-.06.74-.17,4.27-2.07,6.93-6.31,6.93-11.05s-2.66-8.97-6.93-11.04c-.84-.41-1.85-.06-2.26.78-.41.84-.06,1.85.78,2.26,3.1,1.51,5.03,4.58,5.03,8.01s-1.93,6.5-5.03,8.01ZM15.95,53.93h-3.93c-3.17,0-5.74-2.58-5.74-5.75v-14.87c0-3.17,2.58-5.75,5.74-5.75h3.93v26.36ZM46.7,2.91c-4.16,0-7.55,3.38-7.55,7.55v51.88c0,.93.76,1.69,1.69,1.69s1.69-.76,1.69-1.69V10.45c0-2.3,1.87-4.17,4.17-4.17s4.17,1.87,4.17,4.17v60.59c0,2.3-1.87,4.17-4.17,4.17s-4.17-1.87-4.17-4.17c0-.66-.37-1.21-.92-1.5l-22.15-14.48c-.03-.1-.07-.19-.12-.27v-28.08c.05-.09.09-.18.12-.28l15.29-10.02c.78-.51,1-1.56.48-2.34-.51-.78-1.56-1-2.34-.49l-16.18,10.61h-4.69c-5.03,0-9.12,4.09-9.12,9.12v14.87c0,5.03,4.09,9.12,9.12,9.12h4.69s22.51,14.72,22.51,14.72c.48,3.7,3.65,6.56,7.48,6.56,4.16,0,7.54-3.38,7.54-7.54V10.45c0-4.16-3.38-7.55-7.54-7.55Z"/>
        <path class="cls-8" d="M59,20.29c-.91-.23-1.82.32-2.05,1.22s.32,1.82,1.22,2.05c7.58,1.92,12.88,8.73,12.88,16.56s-5.3,14.64-12.88,16.56c-.9.23-1.45,1.15-1.22,2.05.19.77.88,1.28,1.64,1.28.14,0,.28-.02.42-.05,9.07-2.36,15.43-10.45,15.43-19.83s-6.34-17.54-15.43-19.84ZM57.85,48.13c-.84.41-1.19,1.42-.78,2.26.29.6.89.95,1.52.95.25,0,.5-.06.74-.17,4.27-2.07,6.93-6.31,6.93-11.05s-2.66-8.97-6.93-11.04c-.84-.41-1.85-.06-2.26.78-.41.84-.06,1.85.78,2.26,3.1,1.51,5.03,4.58,5.03,8.01s-1.93,6.5-5.03,8.01ZM15.33,53.3h-3.93c-3.17,0-5.74-2.58-5.74-5.75v-14.87c0-3.17,2.58-5.75,5.74-5.75h3.93v26.36ZM46.08,2.28c-4.16,0-7.55,3.38-7.55,7.55v51.88c0,.93.76,1.69,1.69,1.69s1.69-.76,1.69-1.69V9.83c0-2.3,1.87-4.17,4.17-4.17s4.17,1.87,4.17,4.17v60.59c0,2.3-1.87,4.17-4.17,4.17s-4.17-1.87-4.17-4.17c0-.66-.37-1.21-.92-1.5l-22.15-14.48c-.03-.1-.07-.19-.12-.27v-28.08c.05-.09.09-.18.12-.28l15.29-10.02c.78-.51,1-1.56.48-2.34-.51-.78-1.56-1-2.34-.49l-16.18,10.61h-4.69c-5.03,0-9.12,4.09-9.12,9.12v14.87c0,5.03,4.09,9.12,9.12,9.12h4.69s22.51,14.72,22.51,14.72c.48,3.7,3.65,6.56,7.48,6.56,4.16,0,7.54-3.38,7.54-7.54V9.83c0-4.16-3.38-7.55-7.54-7.55Z"/>
        <path class="cls-4" d="M58.38,19.66c-.91-.23-1.82.32-2.05,1.22s.32,1.82,1.22,2.05c7.58,1.92,12.88,8.73,12.88,16.56s-5.3,14.64-12.88,16.56c-.9.23-1.45,1.15-1.22,2.05.19.77.88,1.28,1.64,1.28.14,0,.28-.02.42-.05,9.07-2.36,15.43-10.45,15.43-19.83s-6.34-17.54-15.43-19.84ZM57.22,47.51c-.84.41-1.19,1.42-.78,2.26.29.6.89.95,1.52.95.25,0,.5-.06.74-.17,4.27-2.07,6.93-6.31,6.93-11.05s-2.66-8.97-6.93-11.04c-.84-.41-1.85-.06-2.26.78-.41.84-.06,1.85.78,2.26,3.1,1.51,5.03,4.58,5.03,8.01s-1.93,6.5-5.03,8.01ZM14.7,52.68h-3.93c-3.17,0-5.74-2.58-5.74-5.75v-14.87c0-3.17,2.58-5.75,5.74-5.75h3.93v26.36ZM45.45,1.66c-4.16,0-7.55,3.38-7.55,7.55v51.88c0,.93.76,1.69,1.69,1.69s1.69-.76,1.69-1.69V9.2c0-2.3,1.87-4.17,4.17-4.17s4.17,1.87,4.17,4.17v60.59c0,2.3-1.87,4.17-4.17,4.17s-4.17-1.87-4.17-4.17c0-.66-.37-1.21-.92-1.5l-22.15-14.48c-.03-.1-.07-.19-.12-.27v-28.08c.05-.09.09-.18.12-.28l15.29-10.02c.78-.51,1-1.56.48-2.34-.51-.78-1.56-1-2.34-.49l-16.18,10.61h-4.69c-5.03,0-9.12,4.09-9.12,9.12v14.87c0,5.03,4.09,9.12,9.12,9.12h4.69s22.51,14.72,22.51,14.72c.48,3.7,3.65,6.56,7.48,6.56,4.16,0,7.54-3.38,7.54-7.54V9.2c0-4.16-3.38-7.55-7.54-7.55Z"/>
        <path class="cls-7" d="M57.75,19.04c-.91-.23-1.82.32-2.05,1.22s.32,1.82,1.22,2.05c7.58,1.92,12.88,8.73,12.88,16.56s-5.3,14.64-12.88,16.56c-.9.23-1.45,1.15-1.22,2.05.19.77.88,1.28,1.64,1.28.14,0,.28-.02.42-.05,9.07-2.36,15.43-10.45,15.43-19.83s-6.34-17.54-15.43-19.84ZM56.6,46.88c-.84.41-1.19,1.42-.78,2.26.29.6.89.95,1.52.95.25,0,.5-.06.74-.17,4.27-2.07,6.93-6.31,6.93-11.05s-2.66-8.97-6.93-11.04c-.84-.41-1.85-.06-2.26.78-.41.84-.06,1.85.78,2.26,3.1,1.51,5.03,4.58,5.03,8.01s-1.93,6.5-5.03,8.01ZM14.08,52.05h-3.93c-3.17,0-5.74-2.58-5.74-5.75v-14.87c0-3.17,2.58-5.75,5.74-5.75h3.93v26.36ZM44.83,1.03c-4.16,0-7.55,3.38-7.55,7.55v51.88c0,.93.76,1.69,1.69,1.69s1.69-.76,1.69-1.69V8.58c0-2.3,1.87-4.17,4.17-4.17s4.17,1.87,4.17,4.17v60.59c0,2.3-1.87,4.17-4.17,4.17s-4.17-1.87-4.17-4.17c0-.66-.37-1.21-.92-1.5l-22.15-14.48c-.03-.1-.07-.19-.12-.27v-28.08c.05-.09.09-.18.12-.28l15.29-10.02c.78-.51,1-1.56.48-2.34-.51-.78-1.56-1-2.34-.49l-16.18,10.61h-4.69c-5.03,0-9.12,4.09-9.12,9.12v14.87c0,5.03,4.09,9.12,9.12,9.12h4.69s22.51,14.72,22.51,14.72c.48,3.7,3.65,6.56,7.48,6.56,4.16,0,7.54-3.38,7.54-7.54V8.58c0-4.16-3.38-7.55-7.54-7.55Z"/>
        <path class="cls-5" d="M57.13,18.41c-.91-.23-1.82.32-2.05,1.22s.32,1.82,1.22,2.05c7.58,1.92,12.88,8.73,12.88,16.56s-5.3,14.64-12.88,16.56c-.9.23-1.45,1.15-1.22,2.05.19.77.88,1.28,1.64,1.28.14,0,.28-.02.42-.05,9.09-2.29,15.43-10.45,15.43-19.83s-6.34-17.54-15.43-19.84ZM55.97,46.26c-.84.41-1.19,1.42-.78,2.26.29.6.89.95,1.52.95.25,0,.5-.06.74-.17,4.27-2.07,6.93-6.31,6.93-11.05s-2.66-8.97-6.93-11.04c-.84-.41-1.85-.06-2.26.78-.41.84-.06,1.85.78,2.26,3.1,1.51,5.03,4.58,5.03,8.01s-1.93,6.5-5.03,8.01ZM13.45,51.43h-3.93c-3.17,0-5.74-2.58-5.74-5.75v-14.87c0-3.17,2.58-5.75,5.74-5.75h3.93v26.36ZM44.2.41c-4.16,0-7.55,3.38-7.55,7.55v51.88c0,.93.76,1.69,1.69,1.69s1.69-.76,1.69-1.69V7.95c0-2.3,1.87-4.17,4.17-4.17s4.17,1.87,4.17,4.17v60.59c0,2.3-1.87,4.17-4.17,4.17s-4.17-1.87-4.17-4.17c0-.66-.37-1.21-.92-1.5l-22.15-14.48c-.03-.1-.07-.19-.12-.27v-28.08c.05-.09.09-.18.12-.28l15.29-10.02c.78-.51,1-1.56.48-2.34-.51-.78-1.56-1-2.34-.49l-16.18,10.61h-4.69C4.5,21.69.41,25.78.41,30.81v14.87c0,5.03,4.09,9.12,9.12,9.12h4.69s22.51,14.72,22.51,14.72c.48,3.7,3.65,6.56,7.48,6.56,4.16,0,7.54-3.38,7.54-7.54V7.95c0-4.16-3.38-7.55-7.54-7.55Z"/>
      </g>
      <path class="cls-6" d="M43.8,0c-4.16,0-7.55,3.38-7.55,7.54v51.88c0,.93.76,1.69,1.69,1.69s1.69-.76,1.69-1.69V7.54c0-2.3,1.87-4.17,4.17-4.17s4.17,1.87,4.17,4.17v60.59c0,2.3-1.87,4.17-4.17,4.17s-4.17-1.87-4.17-4.17c0-.66-.37-1.21-.92-1.5l-22.15-14.48c-.03-.1-.07-.19-.12-.27v-28.08c.05-.09.09-.18.12-.28l15.29-10.02c.78-.51,1-1.56.48-2.34-.51-.78-1.56-1-2.34-.49l-16.18,10.61h-4.69c-5.03,0-9.12,4.09-9.12,9.12v14.87c0,5.03,4.09,9.12,9.12,9.12h4.69s22.51,14.72,22.51,14.72c.48,3.7,3.65,6.56,7.48,6.56,4.16,0,7.54-3.38,7.54-7.54V7.54c0-4.16-3.38-7.54-7.54-7.54ZM13.05,51.02h-3.93c-3.17,0-5.74-2.58-5.74-5.75v-14.87c0-3.17,2.58-5.75,5.74-5.75h3.93v26.36ZM56.72,18.01c-.91-.23-1.82.32-2.05,1.22-.23.9.32,1.82,1.22,2.05,7.58,1.92,12.88,8.73,12.88,16.56s-5.3,14.64-12.88,16.56c-.9.23-1.45,1.15-1.22,2.05.19.77.88,1.28,1.64,1.28.14,0,.28-.02.42-.05,9.09-2.3,15.43-10.45,15.43-19.83s-6.34-17.54-15.43-19.84ZM55.57,45.85c-.84.41-1.19,1.42-.78,2.26.29.6.89.95,1.52.95.25,0,.5-.06.74-.17,4.27-2.07,6.93-6.31,6.93-11.04s-2.66-8.97-6.93-11.04c-.84-.41-1.85-.06-2.26.78-.41.84-.06,1.85.78,2.26,3.1,1.51,5.03,4.58,5.03,8.01s-1.93,6.5-5.03,8.01Z"/>
    </g>
  </g>
</svg>