<?xml version="1.0" encoding="UTF-8"?>
<svg id="Layer_2" data-name="Layer 2" xmlns="http://www.w3.org/2000/svg" viewBox="0 0 26.62 27.36">
  <defs>
    <style>
      .cls-1 {
        fill-rule: evenodd;
      }
    </style>
  </defs>
  <g id="_1" data-name="1">
    <path class="cls-1" d="M25.6,0h-12.6c-.58,0-1.02.46-1.02,1.02v4.15c.39-.13.78-.22,1.18-.29v-.78h12.28v17.62h-12.28v-.86c-.4-.07-.79-.18-1.18-.3v4.24c0,.56.44,1.06,1.02,1.06h12.6c.57,0,1.02-.5,1.02-1.06V1.02c0-.57-.46-1.02-1.02-1.02h0ZM15.51,12.64h1.05v.54h-1.59v-.54h.54ZM16.03,12.64v1.6h.53v-1.06h1.06v-.54h-1.06v-1.06h-.53v1.06ZM15.51,13.18v-1.6h-.54v1.06h-.52v-1.06h-.54v1.06h-.53v-1.06h-.54v1.06h-1.06v.54h1.06v1.06h.54v-1.06h.53v1.06h.54v-1.06h.52v1.06h.54v-1.06ZM11.78,11.06h6.9l-1.06,3.71-6.23-.02c-.05-1.41-.14-2.82-.14-4.23h-1.06v-.53h1.59v1.06ZM14.97,13.71h2.13v-1.59h.52v-.54h-.52v.54h-4.77v-.54h-.54v.54h.54v1.59h2.65ZM12.84,12.64h.54v.54h-.54v-.54ZM14.45,13.18h-.54v-.54h.54v.54ZM15.51,15.83c0-.3.23-.52.52-.52s.53.23.53.52-.23.54-.53.54-.52-.24-.52-.54h0ZM12.84,15.83c0-.3.24-.52.54-.52s.53.23.53.52-.24.54-.53.54-.54-.24-.54-.54h0ZM6.5,17.77l.85.53,1.29-1.25c-2-2.81-1.78-6.73.75-9.25,2.81-2.81,7.37-2.81,10.17,0,2.81,2.81,2.81,7.37,0,10.18-2.51,2.53-6.44,2.76-9.25.75l-1.21,1.16.48.97-6.51,6.51s-1.41.02-2.26-.95C-.06,25.43,0,24.28,0,24.28l6.49-6.51ZM18.39,16.8h0c2.17-2.17,2.17-5.68,0-7.84-2.15-2.16-5.66-2.16-7.84,0-2.15,2.16-2.15,5.68.02,7.84,2.15,2.16,5.66,2.16,7.83,0h0ZM17.08,2.18h0s.12.04.12.12-.08.12-.12.12c-.08,0-.12-.04-.12-.12s.04-.12.12-.12h0ZM16.18,2.01h0c.12,0,.26.12.26.3,0,.12-.14.24-.26.24-.16,0-.28-.12-.28-.24,0-.18.12-.3.28-.3h0ZM15.04,1.89h0c.2,0,.38.16.38.38,0,.16-.17.32-.38.32s-.32-.16-.32-.32c0-.22.12-.38.32-.38h0ZM13.81,1.85h0c.21,0,.37.16.37.42,0,.2-.16.36-.37.36-.24,0-.42-.16-.42-.36,0-.25.17-.42.42-.42h0ZM19.3,22.1h0c.85,0,1.55.7,1.55,1.55s-.7,1.56-1.55,1.56-1.56-.7-1.56-1.56.7-1.55,1.56-1.55h0ZM17.9,2.18h2.62c.12,0,.21.08.21.16,0,.12-.08.2-.21.2h-2.62c-.12,0-.2-.08-.2-.2,0-.08.08-.16.2-.16h0Z"/>
  </g>
</svg>