<?xml version="1.0" encoding="UTF-8"?>
<svg id="Layer_2" data-name="Layer 2" xmlns="http://www.w3.org/2000/svg" xmlns:xlink="http://www.w3.org/1999/xlink" viewBox="0 0 71.58 71.58">
  <defs>
    <style>
      .cls-1 {
        opacity: .14;
      }

      .cls-2 {
        fill: url(#linear-gradient-2);
      }

      .cls-3 {
        opacity: .21;
      }

      .cls-4 {
        opacity: .42;
      }

      .cls-5 {
        opacity: .55;
      }

      .cls-6 {
        opacity: .48;
      }

      .cls-7 {
        opacity: .35;
      }

      .cls-8 {
        opacity: .08;
      }

      .cls-9 {
        opacity: .28;
      }

      .cls-10 {
        opacity: 0;
      }

      .cls-11 {
        fill: url(#linear-gradient);
      }
    </style>
    <linearGradient id="linear-gradient" x1="8.84" y1="9.64" x2="57.27" y2="58.07" gradientUnits="userSpaceOnUse">
      <stop offset="0" stop-color="#c0c1c0"/>
      <stop offset=".2" stop-color="#d4d4d4"/>
      <stop offset=".49" stop-color="#ebeceb"/>
      <stop offset=".77" stop-color="#fafafa"/>
      <stop offset="1" stop-color="#fff"/>
    </linearGradient>
    <linearGradient id="linear-gradient-2" x1="12.36" y1="7.47" x2="58.69" y2="53.81" gradientUnits="userSpaceOnUse">
      <stop offset="0" stop-color="#2c2e2c"/>
      <stop offset=".99" stop-color="#000"/>
    </linearGradient>
  </defs>
  <g id="Layer_1-2" data-name="Layer 1">
    <g>
      <path class="cls-11" d="M64.02,33.65c0,17.21-13.95,31.16-31.16,31.16S1.69,50.86,1.69,33.65,15.64,2.49,32.85,2.49s31.16,13.95,31.16,31.16Z"/>
      <g>
        <path class="cls-10" d="M63.54,38.8v-.05c0-.93-.75-1.66-1.69-1.66s-1.69.78-1.69,1.71.76,1.69,1.69,1.69,1.69-.76,1.69-1.69ZM38.32,61.41c-.93,0-1.69.78-1.69,1.71s.75,1.69,1.69,1.69,1.69-.76,1.69-1.69v-.05c0-.93-.76-1.66-1.69-1.66ZM38.13,11.7c-.93,0-1.69.76-1.69,1.69v25.42c0,.93.76,1.69,1.69,1.69s1.69-.76,1.69-1.69c0,0,0-.01,0-.02,0,0,0-.01,0-.02V13.39c0-.93-.75-1.69-1.69-1.69ZM16.19,38.8v-.05c0-.93-.76-1.66-1.69-1.66s-1.69.78-1.69,1.71.76,1.69,1.69,1.69,1.69-.76,1.69-1.69ZM68.7,16.75c.33.33.76.49,1.19.49s.87-.17,1.19-.49c.66-.66.66-1.73,0-2.39l-8.45-8.45c-.66-.66-1.73-.66-2.39,0-.66.66-.66,1.73,0,2.39l3.03,3.03-3.16,3.16c-5.81-5.25-13.51-8.45-21.94-8.45-11.65,0-22.53,6.27-28.38,16.37-1.06,1.84-1.95,3.78-2.64,5.79-.3.88.17,1.84,1.05,2.14.88.3,1.84-.17,2.14-1.05.62-1.79,1.41-3.54,2.36-5.19,5.25-9.06,15-14.68,25.45-14.68,16.21,0,29.4,13.19,29.4,29.4s-13.19,29.39-29.4,29.39-29.39-13.19-29.39-29.39c0-.94-.76-1.69-1.69-1.69s-1.69.76-1.69,1.69c0,18.07,14.7,32.77,32.77,32.77s32.78-14.7,32.78-32.77c0-8.43-3.2-16.12-8.45-21.94l3.16-3.16,3.03,3.04Z"/>
        <path class="cls-8" d="M62.92,38.18v-.05c0-.93-.75-1.66-1.69-1.66s-1.69.78-1.69,1.71.76,1.69,1.69,1.69,1.69-.76,1.69-1.69ZM37.7,60.79c-.93,0-1.69.78-1.69,1.71s.75,1.69,1.69,1.69,1.69-.76,1.69-1.69v-.05c0-.93-.76-1.66-1.69-1.66ZM37.5,11.08c-.93,0-1.69.76-1.69,1.69v25.42c0,.93.76,1.69,1.69,1.69s1.69-.76,1.69-1.69c0,0,0-.01,0-.02,0,0,0-.01,0-.02V12.77c0-.93-.75-1.69-1.69-1.69ZM15.57,38.18v-.05c0-.93-.76-1.66-1.69-1.66s-1.69.78-1.69,1.71.76,1.69,1.69,1.69,1.69-.76,1.69-1.69ZM68.07,16.12c.33.33.76.49,1.19.49s.87-.17,1.19-.49c.66-.66.66-1.73,0-2.39l-8.45-8.45c-.66-.66-1.73-.66-2.39,0-.66.66-.66,1.73,0,2.39l3.03,3.03-3.16,3.16c-5.81-5.25-13.51-8.45-21.94-8.45-11.65,0-22.53,6.27-28.38,16.37-1.06,1.84-1.95,3.78-2.64,5.79-.3.88.17,1.84,1.05,2.14.88.3,1.84-.17,2.14-1.05.62-1.79,1.41-3.54,2.36-5.19,5.25-9.06,15-14.68,25.45-14.68,16.21,0,29.4,13.19,29.4,29.4s-13.19,29.39-29.4,29.39-29.39-13.19-29.39-29.39c0-.94-.76-1.69-1.69-1.69s-1.69.76-1.69,1.69c0,18.07,14.7,32.77,32.77,32.77s32.78-14.7,32.78-32.77c0-8.43-3.2-16.12-8.45-21.94l3.16-3.16,3.03,3.04Z"/>
        <path class="cls-1" d="M62.29,37.55v-.05c0-.93-.75-1.66-1.69-1.66s-1.69.78-1.69,1.71.76,1.69,1.69,1.69,1.69-.76,1.69-1.69ZM37.07,60.16c-.93,0-1.69.78-1.69,1.71s.75,1.69,1.69,1.69,1.69-.76,1.69-1.69v-.05c0-.93-.76-1.66-1.69-1.66ZM36.88,10.45c-.93,0-1.69.76-1.69,1.69v25.42c0,.93.76,1.69,1.69,1.69s1.69-.76,1.69-1.69c0,0,0-.01,0-.02,0,0,0-.01,0-.02V12.14c0-.93-.75-1.69-1.69-1.69ZM14.94,37.55v-.05c0-.93-.76-1.66-1.69-1.66s-1.69.78-1.69,1.71.76,1.69,1.69,1.69,1.69-.76,1.69-1.69ZM67.45,15.5c.33.33.76.49,1.19.49s.87-.17,1.19-.49c.66-.66.66-1.73,0-2.39l-8.45-8.45c-.66-.66-1.73-.66-2.39,0-.66.66-.66,1.73,0,2.39l3.03,3.03-3.16,3.16c-5.81-5.25-13.51-8.45-21.94-8.45-11.65,0-22.53,6.27-28.38,16.37-1.06,1.84-1.95,3.78-2.64,5.79-.3.88.17,1.84,1.05,2.14.88.3,1.84-.17,2.14-1.05.62-1.79,1.41-3.54,2.36-5.19,5.25-9.06,15-14.68,25.45-14.68,16.21,0,29.4,13.19,29.4,29.4s-13.19,29.39-29.4,29.39S7.53,53.77,7.53,37.56c0-.94-.76-1.69-1.69-1.69s-1.69.76-1.69,1.69c0,18.07,14.7,32.77,32.77,32.77s32.78-14.7,32.78-32.77c0-8.43-3.2-16.12-8.45-21.94l3.16-3.16,3.03,3.04Z"/>
        <path class="cls-3" d="M61.67,36.93v-.05c0-.93-.75-1.66-1.69-1.66s-1.69.78-1.69,1.71.76,1.69,1.69,1.69,1.69-.76,1.69-1.69ZM36.45,59.54c-.93,0-1.69.78-1.69,1.71s.75,1.69,1.69,1.69,1.69-.76,1.69-1.69v-.05c0-.93-.76-1.66-1.69-1.66ZM36.25,9.83c-.93,0-1.69.76-1.69,1.69v25.42c0,.93.76,1.69,1.69,1.69s1.69-.76,1.69-1.69c0,0,0-.01,0-.02,0,0,0-.01,0-.02V11.52c0-.93-.75-1.69-1.69-1.69ZM14.32,36.93v-.05c0-.93-.76-1.66-1.69-1.66s-1.69.78-1.69,1.71.76,1.69,1.69,1.69,1.69-.76,1.69-1.69ZM66.82,14.87c.33.33.76.49,1.19.49s.87-.17,1.19-.49c.66-.66.66-1.73,0-2.39l-8.45-8.45c-.66-.66-1.73-.66-2.39,0-.66.66-.66,1.73,0,2.39l3.03,3.03-3.16,3.16c-5.81-5.25-13.51-8.45-21.94-8.45-11.65,0-22.53,6.27-28.38,16.37-1.06,1.84-1.95,3.78-2.64,5.79-.3.88.17,1.84,1.05,2.14.88.3,1.84-.17,2.14-1.05.62-1.79,1.41-3.54,2.36-5.19,5.25-9.06,15-14.68,25.45-14.68,16.21,0,29.4,13.19,29.4,29.4s-13.19,29.39-29.4,29.39S6.91,53.14,6.91,36.93c0-.94-.76-1.69-1.69-1.69s-1.69.76-1.69,1.69c0,18.07,14.7,32.77,32.77,32.77s32.78-14.7,32.78-32.77c0-8.43-3.2-16.12-8.45-21.94l3.16-3.16,3.03,3.04Z"/>
        <path class="cls-9" d="M61.04,36.3v-.05c0-.93-.75-1.66-1.69-1.66s-1.69.78-1.69,1.71.76,1.69,1.69,1.69,1.69-.76,1.69-1.69ZM35.82,58.91c-.93,0-1.69.78-1.69,1.71s.75,1.69,1.69,1.69,1.69-.76,1.69-1.69v-.05c0-.93-.76-1.66-1.69-1.66ZM35.63,9.2c-.93,0-1.69.76-1.69,1.69v25.42c0,.93.76,1.69,1.69,1.69s1.69-.76,1.69-1.69c0,0,0-.01,0-.02,0,0,0-.01,0-.02V10.89c0-.93-.75-1.69-1.69-1.69ZM13.69,36.3v-.05c0-.93-.76-1.66-1.69-1.66s-1.69.78-1.69,1.71.76,1.69,1.69,1.69,1.69-.76,1.69-1.69ZM66.2,14.25c.33.33.76.49,1.19.49s.87-.17,1.19-.49c.66-.66.66-1.73,0-2.39l-8.45-8.45c-.66-.66-1.73-.66-2.39,0-.66.66-.66,1.73,0,2.39l3.03,3.03-3.16,3.16c-5.81-5.25-13.51-8.45-21.94-8.45-11.65,0-22.53,6.27-28.38,16.37-1.06,1.84-1.95,3.78-2.64,5.79-.3.88.17,1.84,1.05,2.14.88.3,1.84-.17,2.14-1.05.62-1.79,1.41-3.54,2.36-5.19,5.25-9.06,15-14.68,25.45-14.68,16.21,0,29.4,13.19,29.4,29.4s-13.19,29.39-29.4,29.39S6.28,52.52,6.28,36.31c0-.94-.76-1.69-1.69-1.69s-1.69.76-1.69,1.69c0,18.07,14.7,32.77,32.77,32.77s32.78-14.7,32.78-32.77c0-8.43-3.2-16.12-8.45-21.94l3.16-3.16,3.03,3.04Z"/>
        <path class="cls-7" d="M60.42,35.68v-.05c0-.93-.75-1.66-1.69-1.66s-1.69.78-1.69,1.71.76,1.69,1.69,1.69,1.69-.76,1.69-1.69ZM35.2,58.29c-.93,0-1.69.78-1.69,1.71s.75,1.69,1.69,1.69,1.69-.76,1.69-1.69v-.05c0-.93-.76-1.66-1.69-1.66ZM35,8.58c-.93,0-1.69.76-1.69,1.69v25.42c0,.93.76,1.69,1.69,1.69s1.69-.76,1.69-1.69c0,0,0-.01,0-.02,0,0,0-.01,0-.02V10.27c0-.93-.75-1.69-1.69-1.69ZM13.07,35.68v-.05c0-.93-.76-1.66-1.69-1.66s-1.69.78-1.69,1.71.76,1.69,1.69,1.69,1.69-.76,1.69-1.69ZM65.57,13.62c.33.33.76.49,1.19.49s.87-.17,1.19-.49c.66-.66.66-1.73,0-2.39l-8.45-8.45c-.66-.66-1.73-.66-2.39,0-.66.66-.66,1.73,0,2.39l3.03,3.03-3.16,3.16c-5.81-5.25-13.51-8.45-21.94-8.45-11.65,0-22.53,6.27-28.38,16.37-1.06,1.84-1.95,3.78-2.64,5.79-.3.88.17,1.84,1.05,2.14.88.3,1.84-.17,2.14-1.05.62-1.79,1.41-3.54,2.36-5.19,5.25-9.06,15-14.68,25.45-14.68,16.21,0,29.4,13.19,29.4,29.4s-13.19,29.39-29.4,29.39S5.66,51.89,5.66,35.68c0-.94-.76-1.69-1.69-1.69s-1.69.76-1.69,1.69c0,18.07,14.7,32.77,32.77,32.77s32.78-14.7,32.78-32.77c0-8.43-3.2-16.12-8.45-21.94l3.16-3.16,3.03,3.04Z"/>
        <path class="cls-4" d="M59.79,35.05v-.05c0-.93-.75-1.66-1.69-1.66s-1.69.78-1.69,1.71.76,1.69,1.69,1.69,1.69-.76,1.69-1.69ZM34.57,57.66c-.93,0-1.69.78-1.69,1.71s.75,1.69,1.69,1.69,1.69-.76,1.69-1.69v-.05c0-.93-.76-1.66-1.69-1.66ZM34.38,7.95c-.93,0-1.69.76-1.69,1.69v25.42c0,.93.76,1.69,1.69,1.69s1.69-.76,1.69-1.69c0,0,0-.01,0-.02,0,0,0-.01,0-.02V9.64c0-.93-.75-1.69-1.69-1.69ZM12.44,35.05v-.05c0-.93-.76-1.66-1.69-1.66s-1.69.78-1.69,1.71.76,1.69,1.69,1.69,1.69-.76,1.69-1.69ZM64.95,13c.33.33.76.49,1.19.49s.87-.17,1.19-.49c.66-.66.66-1.73,0-2.39l-8.45-8.45c-.66-.66-1.73-.66-2.39,0-.66.66-.66,1.73,0,2.39l3.03,3.03-3.16,3.16c-5.81-5.25-13.51-8.45-21.94-8.45-11.65,0-22.53,6.27-28.38,16.37-1.06,1.84-1.95,3.78-2.64,5.79-.3.88.17,1.84,1.05,2.14.88.3,1.84-.17,2.14-1.05.62-1.79,1.41-3.54,2.36-5.19,5.25-9.06,15-14.68,25.45-14.68,16.21,0,29.4,13.19,29.4,29.4s-13.19,29.39-29.4,29.39S5.03,51.27,5.03,35.06c0-.94-.76-1.69-1.69-1.69s-1.69.76-1.69,1.69c0,18.07,14.7,32.77,32.77,32.77s32.78-14.7,32.78-32.77c0-8.43-3.2-16.12-8.45-21.94l3.16-3.16,3.03,3.04Z"/>
        <path class="cls-6" d="M59.17,34.43v-.05c0-.93-.75-1.66-1.69-1.66s-1.69.78-1.69,1.71.76,1.69,1.69,1.69,1.69-.76,1.69-1.69ZM33.95,57.04c-.93,0-1.69.78-1.69,1.71s.75,1.69,1.69,1.69,1.69-.76,1.69-1.69v-.05c0-.93-.76-1.66-1.69-1.66ZM33.75,7.33c-.93,0-1.69.76-1.69,1.69v25.42c0,.93.76,1.69,1.69,1.69s1.69-.76,1.69-1.69c0,0,0-.01,0-.02,0,0,0-.01,0-.02V9.02c0-.93-.75-1.69-1.69-1.69ZM11.82,34.43v-.05c0-.93-.76-1.66-1.69-1.66s-1.69.78-1.69,1.71.76,1.69,1.69,1.69,1.69-.76,1.69-1.69ZM64.32,12.37c.33.33.76.49,1.19.49s.87-.17,1.19-.49c.66-.66.66-1.73,0-2.39L58.26,1.53c-.66-.66-1.73-.66-2.39,0-.66.66-.66,1.73,0,2.39l3.03,3.03-3.16,3.16c-5.81-5.25-13.51-8.45-21.94-8.45C22.15,1.66,11.28,7.93,5.43,18.02c-1.06,1.84-1.95,3.78-2.64,5.79-.3.88.17,1.84,1.05,2.14.88.3,1.84-.17,2.14-1.05.62-1.79,1.41-3.54,2.36-5.19,5.25-9.06,15-14.68,25.45-14.68,16.21,0,29.4,13.19,29.4,29.4s-13.19,29.39-29.4,29.39S4.41,50.64,4.41,34.43c0-.94-.76-1.69-1.69-1.69s-1.69.76-1.69,1.69c0,18.07,14.7,32.77,32.77,32.77s32.78-14.7,32.78-32.77c0-8.43-3.2-16.12-8.45-21.94l3.16-3.16,3.03,3.04Z"/>
        <path class="cls-5" d="M58.54,33.8v-.05c0-.93-.75-1.66-1.69-1.66s-1.69.78-1.69,1.71.76,1.69,1.69,1.69,1.69-.76,1.69-1.69ZM33.32,56.41c-.93,0-1.69.78-1.69,1.71s.75,1.69,1.69,1.69,1.69-.76,1.69-1.69v-.05c0-.93-.76-1.66-1.69-1.66ZM33.13,6.7c-.93,0-1.69.76-1.69,1.69v25.42c0,.93.76,1.69,1.69,1.69s1.69-.76,1.69-1.69c0,0,0-.01,0-.02,0,0,0-.01,0-.02V8.39c0-.93-.75-1.69-1.69-1.69ZM11.19,33.8v-.05c0-.93-.76-1.66-1.69-1.66s-1.69.78-1.69,1.71.76,1.69,1.69,1.69,1.69-.76,1.69-1.69ZM63.7,11.75c.33.33.76.49,1.19.49s.87-.17,1.19-.49c.66-.66.66-1.73,0-2.39L57.63.9c-.66-.66-1.73-.66-2.39,0-.66.66-.66,1.73,0,2.39l3.03,3.03-3.16,3.16c-5.81-5.25-13.51-8.45-21.94-8.45C21.52,1.03,10.65,7.31,4.8,17.4c-1.06,1.84-1.95,3.78-2.64,5.79-.3.88.17,1.84,1.05,2.14.88.3,1.84-.17,2.14-1.05.62-1.79,1.41-3.54,2.36-5.19,5.25-9.06,15-14.68,25.45-14.68,16.21,0,29.4,13.19,29.4,29.4s-13.19,29.39-29.4,29.39S3.78,50.02,3.78,33.81c0-.94-.76-1.69-1.69-1.69s-1.69.76-1.69,1.69c0,18.07,14.7,32.77,32.77,32.77s32.78-14.7,32.78-32.77c0-8.43-3.2-16.12-8.45-21.94l3.16-3.16,3.03,3.04Z"/>
      </g>
      <path class="cls-2" d="M32.72,6.3c-.93,0-1.69.76-1.69,1.69v25.42c0,.93.76,1.69,1.69,1.69s1.69-.76,1.69-1.69c0,0,0-.01,0-.02,0,0,0-.01,0-.02V7.99c0-.93-.75-1.69-1.69-1.69ZM10.79,33.4v-.05c0-.93-.76-1.66-1.69-1.66s-1.69.78-1.69,1.71.76,1.69,1.69,1.69,1.69-.76,1.69-1.69ZM32.92,56.01c-.93,0-1.69.78-1.69,1.71s.75,1.69,1.69,1.69,1.69-.76,1.69-1.69v-.05c0-.93-.76-1.66-1.69-1.66ZM58.14,33.4v-.05c0-.93-.75-1.66-1.69-1.66s-1.69.78-1.69,1.71.76,1.69,1.69,1.69,1.69-.76,1.69-1.69ZM63.29,11.34c.33.33.76.49,1.19.49s.87-.17,1.19-.49c.66-.66.66-1.73,0-2.39L57.22.5c-.66-.66-1.73-.66-2.39,0-.66.66-.66,1.73,0,2.39l3.03,3.03-3.16,3.16C48.9,3.83,41.2.63,32.77.63,21.12.63,10.24,6.9,4.39,16.99c-1.06,1.84-1.95,3.78-2.64,5.79-.3.88.17,1.84,1.05,2.14.88.3,1.84-.17,2.14-1.05.62-1.79,1.41-3.54,2.36-5.19,5.25-9.06,15-14.68,25.45-14.68,16.21,0,29.4,13.19,29.4,29.4s-13.19,29.39-29.4,29.39S3.38,49.61,3.38,33.4c0-.94-.76-1.69-1.69-1.69s-1.69.76-1.69,1.69c0,18.07,14.7,32.77,32.77,32.77s32.78-14.7,32.78-32.77c0-8.43-3.2-16.12-8.45-21.94l3.16-3.16,3.03,3.04Z"/>
    </g>
  </g>
</svg>