<?xml version="1.0" encoding="UTF-8"?>
<svg id="Layer_2" data-name="Layer 2" xmlns="http://www.w3.org/2000/svg" xmlns:xlink="http://www.w3.org/1999/xlink" viewBox="0 0 76.44 76.41">
  <defs>
    <style>
      .cls-1 {
        opacity: .14;
      }

      .cls-2 {
        opacity: .21;
      }

      .cls-3 {
        opacity: .42;
      }

      .cls-4 {
        opacity: .55;
      }

      .cls-5 {
        opacity: .48;
      }

      .cls-6 {
        opacity: .35;
      }

      .cls-7 {
        opacity: .08;
      }

      .cls-8 {
        opacity: .28;
      }

      .cls-9 {
        opacity: 0;
      }

      .cls-10 {
        fill: url(#linear-gradient);
      }
    </style>
    <linearGradient id="linear-gradient" x1="19.85" y1="-4.25" x2="75.25" y2="51.15" gradientUnits="userSpaceOnUse">
      <stop offset="0" stop-color="#2c2e2c"/>
      <stop offset=".99" stop-color="#000"/>
    </linearGradient>
  </defs>
  <g id="Layer_1-2" data-name="Layer 1">
    <g>
      <g>
        <path class="cls-9" d="M59.93,76.41c-.43,0-.86-.17-1.19-.5L5.9,23.07c-.62-.62-.66-1.62-.09-2.29.04-.05,1.04-1.22,2.53-2.71,2.03-2.03,5.21-3.1,8.95-3.01,3.92.09,32.18,2.56,34.35,2.79.93.1,1.6.94,1.49,1.86-.1.93-.93,1.6-1.86,1.5-2.33-.26-30.42-2.69-34.06-2.78-2.8-.06-5.11.65-6.48,2.02-.5.5-.95.96-1.31,1.36l50.57,50.57c.39-.36.85-.81,1.36-1.31,1.37-1.37,2.09-3.67,2.02-6.48-.09-3.67-2.52-31.73-2.78-34.05-.15-1.32-1.03-2.82-2.87-4.83-.02-.02-.03-.04-.05-.06-.1-.11-.34-.35-.68-.69-.16-.16-.29-.35-.37-.55-.26-.63-.14-1.42.34-1.9,0-.01.98-.97,1.16-1.14,2.64-2.33,5-1.67,7.07-1.09.25.07.52.14.79.21,1.99.52,4.02-.03,5.45-1.46,2.26-2.26,2.16-6.02-.21-8.39-1.16-1.16-2.68-1.81-4.28-1.85-1.57-.03-3.04.55-4.12,1.63-.66.66-1.73.66-2.39,0-.66-.66-.66-1.73,0-2.39,1.74-1.74,4.05-2.66,6.58-2.62,2.47.05,4.82,1.05,6.6,2.83,3.69,3.69,3.79,9.6.21,13.17-2.25,2.25-5.58,3.15-8.68,2.34-.29-.07-.57-.15-.85-.23-1.94-.54-2.66-.68-3.77.24,1.51,1.7,3.16,3.91,3.43,6.41.24,2.15,2.7,30.38,2.8,34.34.09,3.74-.98,6.92-3.01,8.95-1.49,1.49-2.66,2.49-2.71,2.53-.32.27-.71.41-1.1.41Z"/>
        <path class="cls-7" d="M59.31,75.78c-.43,0-.86-.17-1.19-.5L5.28,22.45c-.62-.62-.67-1.62-.09-2.29.04-.05,1.04-1.22,2.53-2.71,2.03-2.03,5.21-3.1,8.95-3.01,3.92.09,32.18,2.56,34.35,2.79.93.1,1.6.94,1.49,1.86-.1.93-.93,1.6-1.86,1.5-2.33-.25-30.42-2.69-34.06-2.78-2.8-.06-5.11.65-6.48,2.02-.5.5-.95.96-1.31,1.36l50.57,50.57c.39-.36.85-.81,1.36-1.31,1.37-1.37,2.09-3.67,2.02-6.48-.09-3.67-2.52-31.73-2.78-34.05-.15-1.32-1.08-2.78-2.87-4.83-.02-.02-.03-.04-.05-.06-.1-.11-.34-.35-.68-.69-.16-.16-.28-.35-.37-.55-.26-.63-.08-1.36.34-1.9,0-.01.98-.97,1.16-1.14,2.62-2.35,4.99-1.66,7.07-1.09.25.07.52.14.79.21,1.99.52,4.02-.03,5.45-1.46,2.26-2.26,2.16-6.02-.21-8.39-1.16-1.16-2.68-1.81-4.28-1.85-1.57-.03-3.04.55-4.12,1.63-.66.66-1.73.66-2.39,0-.66-.66-.66-1.73,0-2.39,1.74-1.74,4.05-2.66,6.58-2.62,2.47.05,4.82,1.05,6.6,2.83,3.69,3.69,3.79,9.6.21,13.17-2.25,2.25-5.57,3.14-8.68,2.34-.29-.08-.57-.15-.85-.23-1.94-.54-2.66-.68-3.77.24,1.51,1.7,3.16,3.91,3.43,6.41.24,2.15,2.7,30.38,2.8,34.34.09,3.74-.98,6.92-3.01,8.95-1.49,1.49-2.66,2.49-2.71,2.53-.32.27-.71.41-1.1.41Z"/>
        <path class="cls-1" d="M58.68,75.16c-.43,0-.86-.17-1.19-.5L4.65,21.82c-.62-.62-.67-1.62-.09-2.29.04-.05,1.04-1.22,2.53-2.71,2.03-2.03,5.21-3.1,8.95-3.01,3.92.09,32.18,2.56,34.35,2.79.93.1,1.6.94,1.49,1.86-.1.93-.93,1.6-1.86,1.5-2.33-.25-30.42-2.69-34.06-2.78-2.8-.06-5.11.65-6.48,2.02-.5.5-.95.96-1.31,1.36l50.57,50.57c.39-.36.85-.81,1.36-1.31,1.37-1.37,2.09-3.67,2.02-6.48-.09-3.67-2.52-31.73-2.78-34.05-.15-1.32-1.08-2.78-2.87-4.83-.02-.02-.03-.04-.05-.06-.1-.11-.34-.35-.68-.69-.16-.16-.28-.35-.37-.55-.26-.63-.08-1.36.34-1.9,0-.01.98-.97,1.16-1.14,2.62-2.35,4.99-1.66,7.07-1.09.25.07.52.14.79.21,1.99.52,4.02-.03,5.45-1.46,2.26-2.26,2.16-6.02-.21-8.39-1.16-1.16-2.68-1.81-4.28-1.85-1.57-.03-3.04.55-4.12,1.63-.66.66-1.73.66-2.39,0-.66-.66-.66-1.73,0-2.39,1.74-1.74,4.05-2.66,6.58-2.62,2.47.05,4.82,1.05,6.6,2.83,3.69,3.69,3.79,9.6.21,13.17-2.25,2.25-5.57,3.14-8.68,2.34-.29-.08-.57-.15-.85-.23-1.94-.54-2.66-.68-3.77.24,1.51,1.7,3.16,3.91,3.43,6.41.24,2.15,2.7,30.38,2.8,34.34.09,3.74-.98,6.92-3.01,8.95-1.49,1.49-2.66,2.49-2.71,2.53-.32.27-.71.41-1.1.41Z"/>
        <path class="cls-2" d="M58.06,74.53c-.43,0-.86-.17-1.19-.5L4.03,21.2c-.62-.62-.67-1.62-.09-2.29.04-.05,1.04-1.22,2.53-2.71,2.03-2.03,5.21-3.1,8.95-3.01,3.92.09,32.18,2.56,34.35,2.79.93.1,1.6.94,1.49,1.86-.1.93-.93,1.6-1.86,1.5-2.33-.25-30.42-2.69-34.06-2.78-2.8-.06-5.11.65-6.48,2.02-.5.5-.95.96-1.31,1.36l50.57,50.57c.39-.36.85-.81,1.36-1.31,1.37-1.37,2.09-3.67,2.02-6.48-.09-3.67-2.52-31.73-2.78-34.05-.15-1.32-1.08-2.78-2.87-4.83-.02-.02-.03-.04-.05-.06-.1-.11-.34-.35-.68-.69-.16-.16-.28-.35-.37-.55-.26-.63-.08-1.36.34-1.9,0-.01.98-.97,1.16-1.14,2.62-2.35,4.99-1.66,7.07-1.09.25.07.52.14.79.21,1.99.52,4.02-.03,5.45-1.46,2.26-2.26,2.16-6.02-.21-8.39-1.16-1.16-2.68-1.81-4.28-1.85-1.57-.03-3.04.55-4.12,1.63-.66.66-1.73.66-2.39,0-.66-.66-.66-1.73,0-2.39,1.74-1.74,4.05-2.66,6.58-2.62,2.47.05,4.82,1.05,6.6,2.83,3.69,3.69,3.79,9.6.21,13.17-2.25,2.25-5.57,3.14-8.68,2.34-.29-.08-.57-.15-.85-.23-1.94-.54-2.66-.68-3.77.24,1.51,1.7,3.16,3.91,3.43,6.41.24,2.15,2.7,30.38,2.8,34.34.09,3.74-.98,6.92-3.01,8.95-1.49,1.49-2.66,2.49-2.71,2.53-.32.27-.71.41-1.1.41Z"/>
        <path class="cls-8" d="M57.43,73.91c-.43,0-.86-.17-1.19-.5L3.4,20.57c-.62-.62-.67-1.62-.09-2.29.04-.05,1.04-1.22,2.53-2.71,2.03-2.03,5.21-3.1,8.95-3.01,3.92.09,32.18,2.56,34.35,2.79.93.1,1.6.94,1.49,1.86-.1.93-.93,1.6-1.86,1.5-2.33-.25-30.42-2.69-34.06-2.78-2.8-.06-5.11.65-6.48,2.02-.5.5-.95.96-1.31,1.36l50.57,50.57c.39-.36.85-.81,1.36-1.31,1.37-1.37,2.09-3.67,2.02-6.48-.09-3.67-2.52-31.73-2.78-34.05-.15-1.32-1.08-2.78-2.87-4.83-.02-.02-.03-.04-.05-.06-.1-.11-.34-.35-.68-.69-.16-.16-.28-.35-.37-.55-.26-.63-.08-1.36.34-1.9,0-.01.98-.97,1.16-1.14,2.62-2.35,4.99-1.66,7.07-1.09.25.07.52.14.79.21,1.99.52,4.02-.03,5.45-1.46,2.26-2.26,2.16-6.02-.21-8.39-1.16-1.16-2.68-1.81-4.28-1.85-1.57-.03-3.04.55-4.12,1.63-.66.66-1.73.66-2.39,0-.66-.66-.66-1.73,0-2.39,1.74-1.74,4.05-2.66,6.58-2.62,2.47.05,4.82,1.05,6.6,2.83,3.69,3.69,3.79,9.6.21,13.17-2.25,2.25-5.57,3.14-8.68,2.34-.29-.08-.57-.15-.85-.23-1.94-.54-2.66-.68-3.77.24,1.51,1.7,3.16,3.91,3.43,6.41.24,2.15,2.7,30.38,2.8,34.34.09,3.74-.98,6.92-3.01,8.95-1.49,1.49-2.66,2.49-2.71,2.53-.32.27-.71.41-1.1.41Z"/>
        <path class="cls-6" d="M56.81,73.28c-.43,0-.86-.17-1.19-.5L2.78,19.95c-.62-.62-.67-1.62-.09-2.29.04-.05,1.04-1.22,2.53-2.71,2.03-2.03,5.21-3.1,8.95-3.01,3.92.09,32.18,2.56,34.35,2.79.93.1,1.6.94,1.49,1.86-.1.93-.93,1.6-1.86,1.5-2.33-.25-30.42-2.69-34.06-2.78-2.8-.06-5.11.65-6.48,2.02-.5.5-.95.96-1.31,1.36l50.57,50.57c.39-.36.85-.81,1.36-1.31,1.37-1.37,2.09-3.67,2.02-6.48-.09-3.67-2.52-31.73-2.78-34.05-.15-1.32-1.08-2.78-2.87-4.83-.02-.02-.03-.04-.05-.06-.1-.11-.34-.35-.68-.69-.16-.16-.28-.35-.37-.55-.26-.63-.08-1.36.34-1.9,0-.01.98-.97,1.16-1.14,2.62-2.35,4.99-1.66,7.07-1.09.25.07.52.14.79.21,1.99.52,4.02-.03,5.45-1.46,2.26-2.26,2.16-6.02-.21-8.39-1.16-1.16-2.68-1.81-4.28-1.85-1.57-.03-3.04.55-4.12,1.63-.66.66-1.73.66-2.39,0-.66-.66-.66-1.73,0-2.39,1.74-1.74,4.05-2.66,6.58-2.62,2.47.05,4.82,1.05,6.6,2.83,3.69,3.69,3.79,9.6.21,13.17-2.25,2.25-5.57,3.14-8.68,2.34-.29-.08-.57-.15-.85-.23-1.94-.54-2.66-.68-3.77.24,1.51,1.7,3.16,3.91,3.43,6.41.24,2.15,2.7,30.38,2.8,34.34.09,3.74-.98,6.92-3.01,8.95-1.49,1.49-2.66,2.49-2.71,2.53-.32.27-.71.41-1.1.41Z"/>
        <path class="cls-3" d="M56.18,72.66c-.43,0-.86-.17-1.19-.5L2.15,19.32c-.62-.62-.67-1.62-.09-2.29.04-.05,1.04-1.22,2.53-2.71,2.03-2.03,5.21-3.1,8.95-3.01,3.92.09,32.18,2.56,34.35,2.79.93.1,1.6.94,1.49,1.86-.1.93-.93,1.6-1.86,1.5-2.33-.25-30.42-2.69-34.06-2.78-2.8-.06-5.11.65-6.48,2.02-.5.5-.95.96-1.31,1.36l50.57,50.57c.39-.36.85-.81,1.36-1.31,1.37-1.37,2.09-3.67,2.02-6.48-.09-3.67-2.52-31.73-2.78-34.05-.15-1.32-1.08-2.78-2.87-4.83-.02-.02-.03-.04-.05-.06-.1-.11-.34-.35-.68-.69-.16-.16-.28-.35-.37-.55-.26-.63-.08-1.36.34-1.9,0-.01.98-.97,1.16-1.14,2.62-2.35,4.99-1.66,7.07-1.09.25.07.52.14.79.21,1.99.52,4.02-.03,5.45-1.46,2.26-2.26,2.16-6.02-.21-8.39-1.16-1.16-2.68-1.81-4.28-1.85-1.57-.03-3.04.55-4.12,1.63-.66.66-1.73.66-2.39,0-.66-.66-.66-1.73,0-2.39,1.74-1.74,4.05-2.66,6.58-2.62,2.47.05,4.82,1.05,6.6,2.83,3.69,3.69,3.79,9.6.21,13.17-2.25,2.25-5.57,3.14-8.68,2.34-.29-.08-.57-.15-.85-.23-1.94-.54-2.66-.68-3.77.24,1.51,1.7,3.16,3.91,3.43,6.41.24,2.15,2.7,30.38,2.8,34.34.09,3.74-.98,6.92-3.01,8.95-1.49,1.49-2.66,2.49-2.71,2.53-.32.27-.71.41-1.1.41Z"/>
        <path class="cls-5" d="M55.56,72.03c-.43,0-.86-.17-1.19-.5L1.53,18.7c-.62-.62-.67-1.62-.09-2.29.04-.05,1.04-1.22,2.53-2.71,2.03-2.03,5.21-3.1,8.95-3.01,3.92.09,32.18,2.56,34.35,2.79.93.1,1.6.94,1.49,1.86-.1.93-.93,1.6-1.86,1.5-2.33-.25-30.42-2.69-34.06-2.78-2.8-.06-5.11.65-6.48,2.02-.5.5-.95.96-1.31,1.36l50.57,50.57c.39-.36.85-.81,1.36-1.31,1.37-1.37,2.09-3.67,2.02-6.48-.09-3.67-2.52-31.73-2.78-34.05-.15-1.32-1.08-2.78-2.87-4.83-.02-.02-.03-.04-.05-.06-.1-.11-.34-.35-.68-.69-.16-.16-.28-.35-.37-.55-.26-.63-.08-1.36.34-1.9,0-.01.98-.97,1.16-1.14,2.62-2.35,4.99-1.66,7.07-1.09.25.07.52.14.79.21,1.99.52,4.02-.03,5.45-1.46,2.26-2.26,2.16-6.02-.21-8.39-1.16-1.16-2.68-1.81-4.28-1.85-1.57-.03-3.04.55-4.12,1.63-.66.66-1.73.66-2.39,0-.66-.66-.66-1.73,0-2.39,1.74-1.74,4.05-2.66,6.58-2.62,2.47.05,4.82,1.05,6.6,2.83,3.69,3.69,3.79,9.6.21,13.17-2.25,2.25-5.57,3.14-8.68,2.34-.29-.08-.57-.15-.85-.23-1.94-.54-2.66-.68-3.77.24,1.51,1.7,3.16,3.91,3.43,6.41.24,2.15,2.7,30.38,2.8,34.34.09,3.74-.98,6.92-3.01,8.95-1.49,1.49-2.66,2.49-2.71,2.53-.32.27-.71.41-1.1.41Z"/>
        <path class="cls-4" d="M54.93,71.41c-.43,0-.86-.17-1.19-.5L.9,18.07c-.62-.62-.66-1.62-.09-2.29.04-.05,1.04-1.22,2.53-2.71,2.03-2.03,5.21-3.1,8.95-3.01,3.92.09,32.18,2.56,34.35,2.79.93.1,1.6.94,1.49,1.86-.1.93-.93,1.6-1.86,1.5-2.33-.26-30.42-2.69-34.06-2.78-2.8-.06-5.11.65-6.48,2.02-.5.5-.95.96-1.31,1.36l50.57,50.57c.39-.36.85-.81,1.36-1.31,1.37-1.37,2.09-3.67,2.02-6.48-.09-3.67-2.52-31.73-2.78-34.05-.15-1.32-1.03-2.82-2.87-4.83-.02-.02-.03-.04-.05-.06-.1-.11-.34-.35-.68-.69-.16-.16-.29-.35-.37-.55-.26-.63-.14-1.42.34-1.9,0-.01.98-.97,1.16-1.14,2.64-2.33,5-1.67,7.07-1.09.25.07.52.14.79.21,1.99.52,4.02-.03,5.45-1.46,2.26-2.26,2.16-6.02-.21-8.39-1.16-1.16-2.68-1.81-4.28-1.85-1.57-.03-3.04.55-4.12,1.63-.66.66-1.73.66-2.39,0-.66-.66-.66-1.73,0-2.39,1.74-1.74,4.05-2.66,6.58-2.62,2.47.05,4.82,1.05,6.6,2.83,3.69,3.69,3.79,9.6.21,13.17-2.25,2.25-5.58,3.15-8.68,2.34-.29-.07-.57-.15-.85-.23-1.94-.54-2.66-.68-3.77.24,1.51,1.7,3.16,3.91,3.43,6.41.24,2.15,2.7,30.38,2.8,34.34.09,3.74-.98,6.92-3.01,8.95-1.49,1.49-2.66,2.49-2.71,2.53-.32.27-.71.41-1.1.41Z"/>
      </g>
      <path class="cls-10" d="M54.53,71c-.43,0-.86-.17-1.19-.5L.5,17.67c-.62-.62-.66-1.62-.09-2.29.04-.05,1.04-1.22,2.53-2.71,2.03-2.03,5.21-3.1,8.95-3.01,3.92.09,32.18,2.56,34.35,2.79.93.1,1.6.94,1.49,1.86-.1.93-.93,1.6-1.86,1.5-2.33-.26-30.42-2.69-34.06-2.78-2.8-.06-5.11.65-6.48,2.02-.5.5-.95.96-1.31,1.36l50.57,50.57c.39-.36.85-.81,1.36-1.31,1.37-1.37,2.09-3.67,2.02-6.48-.09-3.67-2.52-31.73-2.78-34.05-.15-1.32-1.03-2.82-2.87-4.83-.02-.02-.03-.04-.05-.06-.1-.11-.34-.35-.68-.69-.16-.16-.29-.35-.37-.55-.26-.63-.14-1.42.34-1.9,0-.01.98-.97,1.16-1.14,2.64-2.33,5-1.67,7.07-1.09.25.07.52.14.79.21,1.99.52,4.02-.03,5.45-1.46,2.26-2.26,2.16-6.02-.21-8.39-1.16-1.16-2.68-1.81-4.28-1.85-1.57-.03-3.04.55-4.12,1.63-.66.66-1.73.66-2.39,0-.66-.66-.66-1.73,0-2.39C56.77.88,59.08-.04,61.61,0c2.47.05,4.82,1.05,6.6,2.83,3.69,3.69,3.79,9.6.21,13.17-2.25,2.25-5.58,3.15-8.68,2.34-.29-.07-.57-.15-.85-.23-1.94-.54-2.66-.68-3.77.24,1.51,1.7,3.16,3.91,3.43,6.41.24,2.15,2.7,30.38,2.8,34.34.09,3.74-.98,6.92-3.01,8.95-1.49,1.49-2.66,2.49-2.71,2.53-.32.27-.71.41-1.1.41Z"/>
    </g>
  </g>
</svg>