<?xml version="1.0" encoding="UTF-8"?>
<svg id="Layer_2" data-name="Layer 2" xmlns="http://www.w3.org/2000/svg" xmlns:xlink="http://www.w3.org/1999/xlink" viewBox="0 0 74.1 64.72">
  <defs>
    <style>
      .cls-1 {
        opacity: .14;
      }

      .cls-2 {
        fill: url(#linear-gradient-2);
      }

      .cls-3 {
        opacity: .21;
      }

      .cls-4 {
        opacity: .42;
      }

      .cls-5 {
        opacity: .55;
      }

      .cls-6 {
        fill: url(#linear-gradient-4);
      }

      .cls-7 {
        opacity: .48;
      }

      .cls-8 {
        opacity: .35;
      }

      .cls-9 {
        fill: url(#linear-gradient-3);
      }

      .cls-10 {
        fill: url(#linear-gradient-5);
      }

      .cls-11 {
        opacity: .08;
      }

      .cls-12 {
        opacity: .28;
      }

      .cls-13 {
        opacity: 0;
      }

      .cls-14 {
        fill: url(#linear-gradient);
      }
    </style>
    <linearGradient id="linear-gradient" x1="10.4" y1="16.9" x2="60.44" y2="16.9" gradientUnits="userSpaceOnUse">
      <stop offset="0" stop-color="#6eb5fa"/>
      <stop offset="1" stop-color="#d9f0ff"/>
    </linearGradient>
    <linearGradient id="linear-gradient-2" x1="56.23" y1="55.47" x2="45.26" y2="44.5" gradientUnits="userSpaceOnUse">
      <stop offset="0" stop-color="#818181"/>
      <stop offset="1" stop-color="#3a3a3a"/>
    </linearGradient>
    <linearGradient id="linear-gradient-3" x1="22.2" y1="55.47" x2="11.24" y2="44.5" xlink:href="#linear-gradient-2"/>
    <linearGradient id="linear-gradient-4" x1="4.46" y1=".95" x2="61.54" y2="58.03" gradientUnits="userSpaceOnUse">
      <stop offset="0" stop-color="#f2a300"/>
      <stop offset="1" stop-color="#ffff36"/>
    </linearGradient>
    <linearGradient id="linear-gradient-5" x1="4.31" y1="1.04" x2="59.81" y2="56.55" gradientUnits="userSpaceOnUse">
      <stop offset="0" stop-color="#2c2e2c"/>
      <stop offset=".99" stop-color="#000"/>
    </linearGradient>
  </defs>
  <g id="Layer_1-2" data-name="Layer 1">
    <g>
      <polygon class="cls-14" points="56.66 8.21 10.4 8.21 10.4 25.58 60.44 25.58 56.66 8.21"/>
      <path class="cls-2" d="M58.37,49.96c0,4.22-3.42,7.65-7.65,7.65s-7.65-3.42-7.65-7.65,3.42-7.65,7.65-7.65,7.65,3.42,7.65,7.65Z"/>
      <path class="cls-9" d="M24.34,49.96c0,4.22-3.42,7.65-7.65,7.65s-7.65-3.42-7.65-7.65,3.42-7.65,7.65-7.65,7.65,3.42,7.65,7.65Z"/>
      <path class="cls-6" d="M10.65,8.86l-.41,16.72s50.54,0,51.15.12c1.83.33,5.49,1.55,5.49,6.08v13.01c0,2.01-1.55,5.27-8.21,5.27-.54-4.19-3.48-7.16-8.13-7.16s-6.99,3.08-7.36,7.78h-18.75s-.05-8.01-7.8-8.01-7.85,7.24-7.85,7.24c0,0-6.82.16-6.82-7.28V9.16C1.97,6.53,4.45,1.88,10.18,1.88h41.11c2.32,0,4.87,2.34,5.95,6.99-11.57.07-46.59,0-46.59,0Z"/>
      <g>
        <path class="cls-13" d="M56.08,61.34c-3.28,0-5.95-2.67-5.95-5.94s2.67-5.95,5.95-5.95,5.94,2.67,5.94,5.95-2.66,5.94-5.94,5.94ZM47.55,29.64h-13.33v-13.7h13.33v13.7ZM30.85,15.94v13.7h-13.33v-13.7h13.33ZM66.91,29.65s-.04,0-.06,0h-15.92v-13.7h4.04c.93,0,1.69-.75,1.69-1.69s-.76-1.69-1.69-1.69H15.83c-.93,0-1.69.76-1.69,1.69v17.07c0,.35.11.68.3.95.31.45.82.75,1.4.75h50.97c2.07.07,3.72,1.66,3.89,3.69h-3.71c-.93,0-1.69.76-1.69,1.69s.76,1.69,1.69,1.69h3.72v9.91c0,2.23-1.82,4.05-4.05,4.05h-1.37c-.65-4.51-4.53-7.98-9.21-7.98s-8.57,3.48-9.22,7.98h-15.74c-.65-4.51-4.53-7.98-9.21-7.98s-8.4,3.33-9.17,7.7c-2.31-.76-3.95-2.96-3.95-5.46V14.53c0-3.17,2.58-5.74,5.74-5.74h40.54c1.86,0,4.49.64,5.79,6.13.29,1.23.62,2.96.99,4.95.34,1.83.74,3.91,1.16,5.91.19.91,1.09,1.49,2,1.3.91-.2,1.49-1.09,1.3-2-.42-1.96-.8-4.01-1.14-5.83-.38-2.04-.71-3.8-1.02-5.11-1.71-7.22-5.88-8.74-9.08-8.74H14.53c-5.03,0-9.12,4.09-9.12,9.12v33.79c0,4.35,3.14,8.12,7.37,8.95.87,4.25,4.63,7.46,9.14,7.46s8.16-3.12,9.09-7.29h15.98c.94,4.16,4.65,7.29,9.09,7.29s8.16-3.12,9.09-7.29h1.5c4.1,0,7.43-3.33,7.43-7.43v-12.94c0-4.03-3.16-7.29-7.19-7.42ZM21.91,61.34c-3.28,0-5.94-2.67-5.94-5.94s2.67-5.95,5.94-5.95,5.94,2.67,5.94,5.95-2.67,5.94-5.94,5.94Z"/>
        <path class="cls-11" d="M55.45,60.72c-3.28,0-5.95-2.67-5.95-5.94s2.67-5.95,5.95-5.95,5.94,2.67,5.94,5.95-2.66,5.94-5.94,5.94ZM46.93,29.02h-13.33v-13.7h13.33v13.7ZM30.22,15.32v13.7h-13.33v-13.7h13.33ZM66.28,29.02s-.04,0-.06,0h-15.92v-13.7h4.04c.93,0,1.69-.75,1.69-1.69s-.76-1.69-1.69-1.69H15.2c-.93,0-1.69.76-1.69,1.69v17.07c0,.35.11.68.3.95.31.45.82.75,1.4.75h50.97c2.07.07,3.72,1.66,3.89,3.69h-3.71c-.93,0-1.69.76-1.69,1.69s.76,1.69,1.69,1.69h3.72v9.91c0,2.23-1.82,4.05-4.05,4.05h-1.37c-.65-4.51-4.53-7.98-9.21-7.98s-8.57,3.48-9.22,7.98h-15.74c-.65-4.51-4.53-7.98-9.21-7.98s-8.4,3.33-9.17,7.7c-2.31-.76-3.95-2.96-3.95-5.46V13.9c0-3.17,2.58-5.74,5.74-5.74h40.54c1.86,0,4.49.64,5.79,6.13.29,1.23.62,2.96.99,4.95.34,1.83.74,3.91,1.16,5.91.19.91,1.09,1.49,2,1.3.91-.2,1.49-1.09,1.3-2-.42-1.96-.8-4.01-1.14-5.83-.38-2.04-.71-3.8-1.02-5.11-1.71-7.22-5.88-8.74-9.08-8.74H13.9c-5.03,0-9.12,4.09-9.12,9.12v33.79c0,4.35,3.14,8.12,7.37,8.95.87,4.25,4.63,7.46,9.14,7.46s8.16-3.12,9.09-7.29h15.98c.94,4.16,4.65,7.29,9.09,7.29s8.16-3.12,9.09-7.29h1.5c4.1,0,7.43-3.33,7.43-7.43v-12.94c0-4.03-3.17-7.15-7.19-7.42ZM21.28,60.72c-3.28,0-5.94-2.67-5.94-5.94s2.67-5.95,5.94-5.95,5.94,2.67,5.94,5.95-2.67,5.94-5.94,5.94Z"/>
        <path class="cls-1" d="M54.83,60.09c-3.28,0-5.95-2.67-5.95-5.94s2.67-5.95,5.95-5.95,5.94,2.67,5.94,5.95-2.66,5.94-5.94,5.94ZM46.3,28.39h-13.33v-13.7h13.33v13.7ZM29.6,14.69v13.7h-13.33v-13.7h13.33ZM65.66,28.4s-.04,0-.06,0h-15.92v-13.7h4.04c.93,0,1.69-.75,1.69-1.69s-.76-1.69-1.69-1.69H14.58c-.93,0-1.69.76-1.69,1.69v17.07c0,.35.11.68.3.95.31.45.82.75,1.4.75h50.97c2.07.07,3.72,1.66,3.89,3.69h-3.71c-.93,0-1.69.76-1.69,1.69s.76,1.69,1.69,1.69h3.72v9.91c0,2.23-1.82,4.05-4.05,4.05h-1.37c-.65-4.51-4.53-7.98-9.21-7.98s-8.57,3.48-9.22,7.98h-15.74c-.65-4.51-4.53-7.98-9.21-7.98s-8.4,3.33-9.17,7.7c-2.31-.76-3.95-2.96-3.95-5.46V13.28c0-3.17,2.58-5.74,5.74-5.74h40.54c1.86,0,4.49.64,5.79,6.13.29,1.23.62,2.96.99,4.95.34,1.83.74,3.91,1.16,5.91.19.91,1.09,1.49,2,1.3.91-.2,1.49-1.09,1.3-2-.42-1.96-.8-4.01-1.14-5.83-.38-2.04-.71-3.8-1.02-5.11-1.71-7.22-5.88-8.74-9.08-8.74H13.28c-5.03,0-9.12,4.09-9.12,9.12v33.79c0,4.35,3.14,8.12,7.37,8.95.87,4.25,4.63,7.46,9.14,7.46s8.16-3.12,9.09-7.29h15.98c.94,4.16,4.65,7.29,9.09,7.29s8.16-3.12,9.09-7.29h1.5c4.1,0,7.43-3.33,7.43-7.43v-12.94c0-4.03-3.17-7.15-7.19-7.42ZM20.66,60.09c-3.28,0-5.94-2.67-5.94-5.94s2.67-5.95,5.94-5.95,5.94,2.67,5.94,5.95-2.67,5.94-5.94,5.94Z"/>
        <path class="cls-3" d="M54.2,59.47c-3.28,0-5.95-2.67-5.95-5.94s2.67-5.95,5.95-5.95,5.94,2.67,5.94,5.95-2.66,5.94-5.94,5.94ZM45.68,27.77h-13.33v-13.7h13.33v13.7ZM28.97,14.07v13.7h-13.33v-13.7h13.33ZM65.03,27.77s-.04,0-.06,0h-15.92v-13.7h4.04c.93,0,1.69-.75,1.69-1.69s-.76-1.69-1.69-1.69H13.95c-.93,0-1.69.76-1.69,1.69v17.07c0,.35.11.68.3.95.31.45.82.75,1.4.75h50.97c2.07.07,3.72,1.66,3.89,3.69h-3.71c-.93,0-1.69.76-1.69,1.69s.76,1.69,1.69,1.69h3.72v9.91c0,2.23-1.82,4.05-4.05,4.05h-1.37c-.65-4.51-4.53-7.98-9.21-7.98s-8.57,3.48-9.22,7.98h-15.74c-.65-4.51-4.53-7.98-9.21-7.98s-8.4,3.33-9.17,7.7c-2.31-.76-3.95-2.96-3.95-5.46V12.65c0-3.17,2.58-5.74,5.74-5.74h40.54c1.86,0,4.49.64,5.79,6.13.29,1.23.62,2.96.99,4.95.34,1.83.74,3.91,1.16,5.91.19.91,1.09,1.49,2,1.3.91-.2,1.49-1.09,1.3-2-.42-1.96-.8-4.01-1.14-5.83-.38-2.04-.71-3.8-1.02-5.11-1.71-7.22-5.88-8.74-9.08-8.74H12.65C7.62,3.53,3.53,7.62,3.53,12.65v33.79c0,4.35,3.14,8.12,7.37,8.95.87,4.25,4.63,7.46,9.14,7.46s8.16-3.12,9.09-7.29h15.98c.94,4.16,4.65,7.29,9.09,7.29s8.16-3.12,9.09-7.29h1.5c4.1,0,7.43-3.33,7.43-7.43v-12.94c0-4.03-3.17-7.15-7.19-7.42ZM20.03,59.47c-3.28,0-5.94-2.67-5.94-5.94s2.67-5.95,5.94-5.95,5.94,2.67,5.94,5.95-2.67,5.94-5.94,5.94Z"/>
        <path class="cls-12" d="M53.58,58.84c-3.28,0-5.95-2.67-5.95-5.94s2.67-5.95,5.95-5.95,5.94,2.67,5.94,5.95-2.66,5.94-5.94,5.94ZM45.05,27.14h-13.33v-13.7h13.33v13.7ZM28.35,13.44v13.7h-13.33v-13.7h13.33ZM64.41,27.15s-.04,0-.06,0h-15.92v-13.7h4.04c.93,0,1.69-.75,1.69-1.69s-.76-1.69-1.69-1.69H13.33c-.93,0-1.69.76-1.69,1.69v17.07c0,.35.11.68.3.95.31.45.82.75,1.4.75h50.97c2.07.07,3.72,1.66,3.89,3.69h-3.71c-.93,0-1.69.76-1.69,1.69s.76,1.69,1.69,1.69h3.72v9.91c0,2.23-1.82,4.05-4.05,4.05h-1.37c-.65-4.51-4.53-7.98-9.21-7.98s-8.57,3.48-9.22,7.98h-15.74c-.65-4.51-4.53-7.98-9.21-7.98s-8.4,3.33-9.17,7.7c-2.31-.76-3.95-2.96-3.95-5.46V12.03c0-3.17,2.58-5.74,5.74-5.74h40.54c1.86,0,4.49.64,5.79,6.13.29,1.23.62,2.96.99,4.95.34,1.83.74,3.91,1.16,5.91.19.91,1.09,1.49,2,1.3.91-.2,1.49-1.09,1.3-2-.42-1.96-.8-4.01-1.14-5.83-.38-2.04-.71-3.8-1.02-5.11-1.71-7.22-5.88-8.74-9.08-8.74H12.03C7,2.91,2.91,7,2.91,12.03v33.79c0,4.35,3.14,8.12,7.37,8.95.87,4.25,4.63,7.46,9.14,7.46s8.16-3.12,9.09-7.29h15.98c.94,4.16,4.65,7.29,9.09,7.29s8.16-3.12,9.09-7.29h1.5c4.1,0,7.43-3.33,7.43-7.43v-12.94c0-4.03-3.17-7.15-7.19-7.42ZM19.41,58.84c-3.28,0-5.94-2.67-5.94-5.94s2.67-5.95,5.94-5.95,5.94,2.67,5.94,5.95-2.67,5.94-5.94,5.94Z"/>
        <path class="cls-8" d="M52.95,58.22c-3.28,0-5.95-2.67-5.95-5.94s2.67-5.95,5.95-5.95,5.94,2.67,5.94,5.95-2.66,5.94-5.94,5.94ZM44.43,26.52h-13.33v-13.7h13.33v13.7ZM27.72,12.82v13.7h-13.33v-13.7h13.33ZM63.78,26.52s-.04,0-.06,0h-15.92v-13.7h4.04c.93,0,1.69-.75,1.69-1.69s-.76-1.69-1.69-1.69H12.7c-.93,0-1.69.76-1.69,1.69v17.07c0,.35.11.68.3.95.31.45.82.75,1.4.75h50.97c2.07.07,3.72,1.66,3.89,3.69h-3.71c-.93,0-1.69.76-1.69,1.69s.76,1.69,1.69,1.69h3.72v9.91c0,2.23-1.82,4.05-4.05,4.05h-1.37c-.65-4.51-4.53-7.98-9.21-7.98s-8.57,3.48-9.22,7.98h-15.74c-.65-4.51-4.53-7.98-9.21-7.98s-8.4,3.33-9.17,7.7c-2.31-.76-3.95-2.96-3.95-5.46V11.4c0-3.17,2.58-5.74,5.74-5.74h40.54c1.86,0,4.49.64,5.79,6.13.29,1.23.62,2.96.99,4.95.34,1.83.74,3.91,1.16,5.91.19.91,1.09,1.49,2,1.3.91-.2,1.49-1.09,1.3-2-.42-1.96-.8-4.01-1.14-5.83-.38-2.04-.71-3.8-1.02-5.11-1.71-7.22-5.88-8.74-9.08-8.74H11.4C6.37,2.28,2.28,6.37,2.28,11.4v33.79c0,4.35,3.14,8.12,7.37,8.95.87,4.25,4.63,7.46,9.14,7.46s8.16-3.12,9.09-7.29h15.98c.94,4.16,4.65,7.29,9.09,7.29s8.16-3.12,9.09-7.29h1.5c4.1,0,7.43-3.33,7.43-7.43v-12.94c0-4.03-3.17-7.15-7.19-7.42ZM18.78,58.22c-3.28,0-5.94-2.67-5.94-5.94s2.67-5.95,5.94-5.95,5.94,2.67,5.94,5.95-2.67,5.94-5.94,5.94Z"/>
        <path class="cls-4" d="M52.33,57.59c-3.28,0-5.95-2.67-5.95-5.94s2.67-5.95,5.95-5.95,5.94,2.67,5.94,5.95-2.66,5.94-5.94,5.94ZM43.8,25.89h-13.33v-13.7h13.33v13.7ZM27.1,12.19v13.7h-13.33v-13.7h13.33ZM63.16,25.9s-.04,0-.06,0h-15.92v-13.7h4.04c.93,0,1.69-.75,1.69-1.69s-.76-1.69-1.69-1.69H12.08c-.93,0-1.69.76-1.69,1.69v17.07c0,.35.11.68.3.95.31.45.82.75,1.4.75h50.97c2.07.07,3.72,1.66,3.89,3.69h-3.71c-.93,0-1.69.76-1.69,1.69s.76,1.69,1.69,1.69h3.72v9.91c0,2.23-1.82,4.05-4.05,4.05h-1.37c-.65-4.51-4.53-7.98-9.21-7.98s-8.57,3.48-9.22,7.98h-15.74c-.65-4.51-4.53-7.98-9.21-7.98s-8.4,3.33-9.17,7.7c-2.31-.76-3.95-2.96-3.95-5.46V10.78c0-3.17,2.58-5.74,5.74-5.74h40.54c1.86,0,4.49.64,5.79,6.13.29,1.23.62,2.96.99,4.95.34,1.83.74,3.91,1.16,5.91.19.91,1.09,1.49,2,1.3.91-.2,1.49-1.09,1.3-2-.42-1.96-.8-4.01-1.14-5.83-.38-2.04-.71-3.8-1.02-5.11-1.71-7.22-5.88-8.74-9.08-8.74H10.78C5.75,1.66,1.66,5.75,1.66,10.78v33.79c0,4.35,3.14,8.12,7.37,8.95.87,4.25,4.63,7.46,9.14,7.46s8.16-3.12,9.09-7.29h15.98c.94,4.16,4.65,7.29,9.09,7.29s8.16-3.12,9.09-7.29h1.5c4.1,0,7.43-3.33,7.43-7.43v-12.94c0-4.03-3.17-7.15-7.19-7.42ZM18.16,57.59c-3.28,0-5.94-2.67-5.94-5.94s2.67-5.95,5.94-5.95,5.94,2.67,5.94,5.95-2.67,5.94-5.94,5.94Z"/>
        <path class="cls-7" d="M51.7,56.97c-3.28,0-5.95-2.67-5.95-5.94s2.67-5.95,5.95-5.95,5.94,2.67,5.94,5.95-2.66,5.94-5.94,5.94ZM43.18,25.27h-13.33v-13.7h13.33v13.7ZM26.47,11.57v13.7h-13.33v-13.7h13.33ZM62.53,25.27s-.04,0-.06,0h-15.92v-13.7h4.04c.93,0,1.69-.75,1.69-1.69s-.76-1.69-1.69-1.69H11.45c-.93,0-1.69.76-1.69,1.69v17.07c0,.35.11.68.3.95.31.45.82.75,1.4.75h50.97c2.07.07,3.72,1.66,3.89,3.69h-3.71c-.93,0-1.69.76-1.69,1.69s.76,1.69,1.69,1.69h3.72v9.91c0,2.23-1.82,4.05-4.05,4.05h-1.37c-.65-4.51-4.53-7.98-9.21-7.98s-8.57,3.48-9.22,7.98h-15.74c-.65-4.51-4.53-7.98-9.21-7.98s-8.4,3.33-9.17,7.7c-2.31-.76-3.95-2.96-3.95-5.46V10.15c0-3.17,2.58-5.74,5.74-5.74h40.54c1.86,0,4.49.64,5.79,6.13.29,1.23.62,2.96.99,4.95.34,1.83.74,3.91,1.16,5.91.19.91,1.09,1.49,2,1.3.91-.2,1.49-1.09,1.3-2-.42-1.96-.8-4.01-1.14-5.83-.38-2.04-.71-3.8-1.02-5.11-1.71-7.22-5.88-8.74-9.08-8.74H10.15C5.12,1.03,1.03,5.12,1.03,10.15v33.79c0,4.35,3.14,8.12,7.37,8.95.87,4.25,4.63,7.46,9.14,7.46s8.16-3.12,9.09-7.29h15.98c.94,4.16,4.65,7.29,9.09,7.29s8.16-3.12,9.09-7.29h1.5c4.1,0,7.43-3.33,7.43-7.43v-12.94c0-4.03-3.17-7.15-7.19-7.42ZM17.53,56.97c-3.28,0-5.94-2.67-5.94-5.94s2.67-5.95,5.94-5.95,5.94,2.67,5.94,5.95-2.67,5.94-5.94,5.94Z"/>
        <path class="cls-5" d="M51.08,56.34c-3.28,0-5.95-2.67-5.95-5.94s2.67-5.95,5.95-5.95,5.94,2.67,5.94,5.95-2.66,5.94-5.94,5.94ZM42.55,24.64h-13.33v-13.7h13.33v13.7ZM25.85,10.94v13.7h-13.33v-13.7h13.33ZM61.91,24.65s-.04,0-.06,0h-15.92v-13.7h4.04c.93,0,1.69-.75,1.69-1.69s-.76-1.69-1.69-1.69H10.83c-.93,0-1.69.76-1.69,1.69v17.07c0,.35.11.68.3.95.31.45.82.75,1.4.75h50.97c2.07.07,3.72,1.66,3.89,3.69h-3.71c-.93,0-1.69.76-1.69,1.69s.76,1.69,1.69,1.69h3.72v9.91c0,2.23-1.82,4.05-4.05,4.05h-1.37c-.65-4.51-4.53-7.98-9.21-7.98s-8.57,3.48-9.22,7.98h-15.74c-.65-4.51-4.53-7.98-9.21-7.98s-8.4,3.33-9.17,7.7c-2.31-.76-3.95-2.96-3.95-5.46V9.53c0-3.17,2.58-5.74,5.74-5.74h40.54c1.86,0,4.49.64,5.79,6.13.29,1.23.62,2.96.99,4.95.34,1.83.74,3.91,1.16,5.91.19.91,1.09,1.49,2,1.3.91-.2,1.49-1.09,1.3-2-.42-1.96-.8-4.01-1.14-5.83-.38-2.04-.71-3.8-1.02-5.11C57.45,1.92,53.28.41,50.07.41H9.53C4.5.41.41,4.5.41,9.53v33.79c0,4.35,3.14,8.12,7.37,8.95.87,4.25,4.63,7.46,9.14,7.46s8.16-3.12,9.09-7.29h15.98c.94,4.16,4.65,7.29,9.09,7.29s8.16-3.12,9.09-7.29h1.5c4.1,0,7.43-3.33,7.43-7.43v-12.94c0-4.03-3.16-7.29-7.19-7.42ZM16.91,56.34c-3.28,0-5.94-2.67-5.94-5.94s2.67-5.95,5.94-5.95,5.94,2.67,5.94,5.95-2.67,5.94-5.94,5.94Z"/>
      </g>
      <path class="cls-10" d="M61.5,24.24s-.04,0-.06,0h-15.92v-13.7h4.04c.93,0,1.69-.75,1.69-1.69s-.76-1.69-1.69-1.69H10.42c-.93,0-1.69.76-1.69,1.69v17.07c0,.35.11.68.3.95.31.45.82.75,1.4.75h50.97c2.07.07,3.72,1.66,3.89,3.69h-3.71c-.93,0-1.69.76-1.69,1.69s.76,1.69,1.69,1.69h3.72v9.91c0,2.24-1.82,4.05-4.05,4.05h-1.37c-.65-4.51-4.53-7.98-9.21-7.98s-8.57,3.48-9.22,7.98h-15.74c-.65-4.51-4.53-7.98-9.21-7.98s-8.4,3.33-9.17,7.7c-2.31-.76-3.95-2.96-3.95-5.45V9.12c0-3.17,2.58-5.74,5.74-5.74h40.54c1.86,0,4.49.64,5.79,6.13.29,1.24.62,2.96.99,4.95.34,1.83.74,3.91,1.16,5.91.19.91,1.09,1.49,2,1.3.91-.2,1.49-1.09,1.3-2-.42-1.96-.8-4.01-1.14-5.83-.38-2.04-.71-3.8-1.02-5.1-1.71-7.22-5.87-8.74-9.08-8.74H9.12C4.09,0,0,4.09,0,9.12v33.79c0,4.35,3.14,8.12,7.37,8.95.87,4.25,4.63,7.46,9.14,7.46s8.16-3.12,9.09-7.28h15.98c.94,4.16,4.65,7.28,9.09,7.28s8.16-3.12,9.09-7.28h1.5c4.1,0,7.43-3.33,7.43-7.43v-12.94c0-4.03-3.16-7.29-7.19-7.42ZM42.15,24.24h-13.33v-13.7h13.33v13.7ZM25.44,10.54v13.7h-13.33v-13.7h13.33ZM16.5,55.94c-3.28,0-5.94-2.67-5.94-5.94s2.67-5.94,5.94-5.94,5.94,2.67,5.94,5.94-2.67,5.94-5.94,5.94ZM50.67,55.94c-3.28,0-5.95-2.67-5.95-5.94s2.67-5.94,5.95-5.94,5.94,2.67,5.94,5.94-2.66,5.94-5.94,5.94Z"/>
    </g>
  </g>
</svg>