<?xml version="1.0" encoding="UTF-8"?>
<svg id="Layer_2" data-name="Layer 2" xmlns="http://www.w3.org/2000/svg" xmlns:xlink="http://www.w3.org/1999/xlink" viewBox="0 0 62.58 72.55">
  <defs>
    <style>
      .cls-1 {
        opacity: .14;
      }

      .cls-2 {
        fill: url(#linear-gradient-2);
      }

      .cls-3 {
        opacity: .21;
      }

      .cls-4 {
        opacity: .42;
      }

      .cls-5 {
        opacity: .55;
      }

      .cls-6 {
        opacity: .48;
      }

      .cls-7 {
        opacity: .35;
      }

      .cls-8 {
        opacity: .08;
      }

      .cls-9 {
        opacity: .28;
      }

      .cls-10 {
        opacity: 0;
      }

      .cls-11 {
        fill: url(#linear-gradient);
      }
    </style>
    <linearGradient id="linear-gradient" x1="-.77" y1="6.52" x2="58.07" y2="65.37" gradientUnits="userSpaceOnUse">
      <stop offset="0" stop-color="#eb0a00"/>
      <stop offset="1" stop-color="#ff853b"/>
    </linearGradient>
    <linearGradient id="linear-gradient-2" x1="-.91" y1="6.26" x2="58.08" y2="65.25" gradientUnits="userSpaceOnUse">
      <stop offset="0" stop-color="#2c2e2c"/>
      <stop offset=".99" stop-color="#000"/>
    </linearGradient>
  </defs>
  <g id="Layer_1-2" data-name="Layer 1">
    <g>
      <path class="cls-11" d="M1.6,9.41v55.99l26.8-18.77,26.91,18.55V10.39s0-8.79-7.59-8.79H10.28C7.46,1.6,1.6,3.87,1.6,9.41Z"/>
      <g>
        <path class="cls-10" d="M7.09,72.55c-.27,0-.53-.06-.78-.19-.56-.29-.91-.87-.91-1.5V26.17c0-.93.76-1.69,1.69-1.69s1.69.76,1.69,1.69v41.44l24.24-17.03c.58-.41,1.36-.41,1.94,0l24.24,17.03V14.53c0-3.17-2.58-5.75-5.75-5.75H14.53c-3.17,0-5.74,2.57-5.74,5.75,0,.93-.76,1.69-1.69,1.69s-1.69-.76-1.69-1.69c0-5.04,4.09-9.12,9.12-9.12h38.93c5.03,0,9.12,4.09,9.12,9.12v56.33c0,.63-.35,1.21-.91,1.5-.56.29-1.23.25-1.75-.12l-25.92-18.21-25.93,18.22c-.29.2-.63.31-.97.31Z"/>
        <path class="cls-8" d="M6.47,71.93c-.27,0-.53-.06-.78-.19-.56-.29-.91-.87-.91-1.5V25.55c0-.93.76-1.69,1.69-1.69s1.69.76,1.69,1.69v41.44l24.24-17.03c.58-.41,1.36-.41,1.94,0l24.24,17.03V13.91c0-3.17-2.58-5.75-5.75-5.75H13.9c-3.17,0-5.74,2.57-5.74,5.75,0,.93-.76,1.69-1.69,1.69s-1.69-.76-1.69-1.69c0-5.04,4.09-9.12,9.12-9.12h38.93c5.03,0,9.12,4.09,9.12,9.12v56.33c0,.63-.35,1.21-.91,1.5-.56.29-1.23.25-1.75-.12l-25.92-18.21-25.93,18.22c-.29.2-.63.31-.97.31Z"/>
        <path class="cls-1" d="M5.84,71.3c-.27,0-.53-.06-.78-.19-.56-.29-.91-.87-.91-1.5V24.92c0-.93.76-1.69,1.69-1.69s1.69.76,1.69,1.69v41.44l24.24-17.03c.58-.41,1.36-.41,1.94,0l24.24,17.03V13.28c0-3.17-2.58-5.75-5.75-5.75H13.28c-3.17,0-5.74,2.57-5.74,5.75,0,.93-.76,1.69-1.69,1.69s-1.69-.76-1.69-1.69c0-5.04,4.09-9.12,9.12-9.12h38.93c5.03,0,9.12,4.09,9.12,9.12v56.33c0,.63-.35,1.21-.91,1.5-.56.29-1.23.25-1.75-.12l-25.92-18.21-25.93,18.22c-.29.2-.63.31-.97.31Z"/>
        <path class="cls-3" d="M5.22,70.68c-.27,0-.53-.06-.78-.19-.56-.29-.91-.87-.91-1.5V24.3c0-.93.76-1.69,1.69-1.69s1.69.76,1.69,1.69v41.44l24.24-17.03c.58-.41,1.36-.41,1.94,0l24.24,17.03V12.66c0-3.17-2.58-5.75-5.75-5.75H12.65c-3.17,0-5.74,2.57-5.74,5.75,0,.93-.76,1.69-1.69,1.69s-1.69-.76-1.69-1.69C3.53,7.62,7.62,3.53,12.65,3.53h38.93c5.03,0,9.12,4.09,9.12,9.12v56.33c0,.63-.35,1.21-.91,1.5-.56.29-1.23.25-1.75-.12l-25.92-18.21-25.93,18.22c-.29.2-.63.31-.97.31Z"/>
        <path class="cls-9" d="M4.59,70.05c-.27,0-.53-.06-.78-.19-.56-.29-.91-.87-.91-1.5V23.67c0-.93.76-1.69,1.69-1.69s1.69.76,1.69,1.69v41.44l24.24-17.03c.58-.41,1.36-.41,1.94,0l24.24,17.03V12.03c0-3.17-2.58-5.75-5.75-5.75H12.03c-3.17,0-5.74,2.57-5.74,5.75,0,.93-.76,1.69-1.69,1.69s-1.69-.76-1.69-1.69C2.91,7,7,2.91,12.03,2.91h38.93c5.03,0,9.12,4.09,9.12,9.12v56.33c0,.63-.35,1.21-.91,1.5-.56.29-1.23.25-1.75-.12l-25.92-18.21-25.93,18.22c-.29.2-.63.31-.97.31Z"/>
        <path class="cls-7" d="M3.97,69.43c-.27,0-.53-.06-.78-.19-.56-.29-.91-.87-.91-1.5V23.05c0-.93.76-1.69,1.69-1.69s1.69.76,1.69,1.69v41.44l24.24-17.03c.58-.41,1.36-.41,1.94,0l24.24,17.03V11.41c0-3.17-2.58-5.75-5.75-5.75H11.4c-3.17,0-5.74,2.57-5.74,5.75,0,.93-.76,1.69-1.69,1.69s-1.69-.76-1.69-1.69C2.28,6.37,6.37,2.28,11.4,2.28h38.93c5.03,0,9.12,4.09,9.12,9.12v56.33c0,.63-.35,1.21-.91,1.5-.56.29-1.23.25-1.75-.12l-25.92-18.21-25.93,18.22c-.29.2-.63.31-.97.31Z"/>
        <path class="cls-4" d="M3.34,68.8c-.27,0-.53-.06-.78-.19-.56-.29-.91-.87-.91-1.5V22.42c0-.93.76-1.69,1.69-1.69s1.69.76,1.69,1.69v41.44l24.24-17.03c.58-.41,1.36-.41,1.94,0l24.24,17.03V10.78c0-3.17-2.58-5.75-5.75-5.75H10.78c-3.17,0-5.74,2.57-5.74,5.75,0,.93-.76,1.69-1.69,1.69s-1.69-.76-1.69-1.69C1.66,5.75,5.75,1.66,10.78,1.66h38.93c5.03,0,9.12,4.09,9.12,9.12v56.33c0,.63-.35,1.21-.91,1.5-.56.29-1.23.25-1.75-.12l-25.92-18.21-25.93,18.22c-.29.2-.63.31-.97.31Z"/>
        <path class="cls-6" d="M2.72,68.18c-.27,0-.53-.06-.78-.19-.56-.29-.91-.87-.91-1.5V21.8c0-.93.76-1.69,1.69-1.69s1.69.76,1.69,1.69v41.44l24.24-17.03c.58-.41,1.36-.41,1.94,0l24.24,17.03V10.16c0-3.17-2.58-5.75-5.75-5.75H10.15c-3.17,0-5.74,2.57-5.74,5.75,0,.93-.76,1.69-1.69,1.69s-1.69-.76-1.69-1.69C1.03,5.12,5.12,1.03,10.15,1.03h38.93c5.03,0,9.12,4.09,9.12,9.12v56.33c0,.63-.35,1.21-.91,1.5-.56.29-1.23.25-1.75-.12l-25.92-18.21L3.69,67.87c-.29.2-.63.31-.97.31Z"/>
        <path class="cls-5" d="M2.09,67.55c-.27,0-.53-.06-.78-.19-.56-.29-.91-.87-.91-1.5V21.17c0-.93.76-1.69,1.69-1.69s1.69.76,1.69,1.69v41.44l24.24-17.03c.58-.41,1.36-.41,1.94,0l24.24,17.03V9.53c0-3.17-2.58-5.75-5.75-5.75H9.53c-3.17,0-5.74,2.57-5.74,5.75,0,.93-.76,1.69-1.69,1.69s-1.69-.76-1.69-1.69C.41,4.5,4.5.41,9.53.41h38.93c5.03,0,9.12,4.09,9.12,9.12v56.33c0,.63-.35,1.21-.91,1.5-.56.29-1.23.25-1.75-.12l-25.92-18.21L3.07,67.25c-.29.2-.63.31-.97.31Z"/>
      </g>
      <path class="cls-2" d="M1.69,67.15c-.27,0-.53-.06-.78-.19-.56-.29-.91-.87-.91-1.5V20.77c0-.93.76-1.69,1.69-1.69s1.69.76,1.69,1.69v41.44l24.24-17.03c.58-.41,1.36-.41,1.94,0l24.24,17.03V9.12c0-3.17-2.58-5.75-5.75-5.75H9.12c-3.17,0-5.74,2.57-5.74,5.75,0,.93-.76,1.69-1.69,1.69s-1.69-.75-1.69-1.69C0,4.09,4.09,0,9.12,0h38.93c5.03,0,9.12,4.09,9.12,9.12v56.33c0,.63-.35,1.21-.91,1.5-.56.29-1.23.25-1.75-.12l-25.92-18.21L2.66,66.84c-.29.2-.63.31-.97.31Z"/>
    </g>
  </g>
</svg>