<?xml version="1.0" encoding="UTF-8"?>
<svg id="Layer_2" data-name="Layer 2" xmlns="http://www.w3.org/2000/svg" xmlns:xlink="http://www.w3.org/1999/xlink" viewBox="0 0 74.24 80.8">
  <defs>
    <style>
      .cls-1 {
        opacity: .14;
      }

      .cls-2 {
        fill: url(#linear-gradient-2);
      }

      .cls-3 {
        opacity: .21;
      }

      .cls-4 {
        opacity: .42;
      }

      .cls-5 {
        opacity: .55;
      }

      .cls-6 {
        opacity: .48;
      }

      .cls-7 {
        opacity: .35;
      }

      .cls-8 {
        opacity: .08;
      }

      .cls-9 {
        opacity: .28;
      }

      .cls-10 {
        opacity: 0;
      }

      .cls-11 {
        fill: url(#linear-gradient);
      }
    </style>
    <linearGradient id="linear-gradient" x1="7.37" y1="15.95" x2="63.47" y2="72.05" gradientUnits="userSpaceOnUse">
      <stop offset="0" stop-color="#d79d81"/>
      <stop offset="1" stop-color="#f8d6b3"/>
    </linearGradient>
    <linearGradient id="linear-gradient-2" x1="8.1" y1="16.64" x2="63.41" y2="71.94" gradientUnits="userSpaceOnUse">
      <stop offset="0" stop-color="#2c2e2c"/>
      <stop offset=".99" stop-color="#000"/>
    </linearGradient>
  </defs>
  <g id="Layer_1-2" data-name="Layer 1">
    <g>
      <path class="cls-11" d="M22.58,69.5c1.75,1.38,5.26,4.28,10.22,4.28h24.57c1.73,0,9.77-5.71,9.77-13.75v-22.09c0-2.71-2.56-6.39-7.59-6.91-5.03-.53-25.7-3.31-25.7-3.31V8.93c0-3.46-2.03-7.29-6.16-7.29s-5.86,4.28-5.86,7.59v39.22s-7.06-3.68-10.82-4.88c-3.76-1.2-6.69-.53-8.42,2.71-1.73,3.23.15,5.56,3.61,8.49,3.46,2.93,14.27,13.07,16.38,14.73Z"/>
      <g>
        <path class="cls-10" d="M65.32,35.05l-24.65-3.21V13.55c0-4.72-3.14-8.14-7.46-8.14s-7.46,3.42-7.46,8.14v38.05c-3.86-2.12-8.19-3.79-10.85-4.43-4.03-.96-7.04.35-8.7,3.79-2.06,4.26-.02,6.85,5.02,10.71,4.79,3.68,9.31,8.18,12.94,11.8.96.95,1.85,1.84,2.66,2.62.67.65,1.74.64,2.39-.03.65-.67.63-1.74-.04-2.39-.8-.78-1.67-1.65-2.62-2.6-3.7-3.69-8.3-8.28-13.26-12.08-5.26-4.04-4.82-4.94-4.03-6.57.7-1.46,1.79-2.71,4.88-1.97,3.05.73,8.52,2.99,12.39,5.53.52.34,1.18.37,1.73.07.55-.3.89-.87.89-1.49V13.55c0-2.37,1.26-4.77,4.09-4.77s4.08,2.39,4.08,4.77l.03,25.23c0,.93.76,1.69,1.69,1.69s1.69-.76,1.69-1.69v-3.52l8.01,1.04v4.23c0,.93.76,1.69,1.69,1.69s1.69-.76,1.69-1.69v-3.79l7.39.96v4.15c0,.94.76,1.69,1.69,1.69s1.69-.76,1.69-1.69v-3.71l2.04.27c4.06.45,5.95,2.5,5.95,6.45v20.21c0,3.73-1.08,6.64-3.2,8.65-3.47,3.29-4.57,3.67-4.78,3.71h-24.92c-.93,0-1.69.75-1.69,1.69s.76,1.69,1.69,1.69h24.92c1.6,0,3.59-1.3,7.11-4.63,2.82-2.67,4.25-6.41,4.25-11.1v-20.21c0-5.68-3.18-9.17-8.92-9.81Z"/>
        <path class="cls-8" d="M64.7,34.43l-24.65-3.21V12.92c0-4.72-3.14-8.14-7.46-8.14s-7.46,3.42-7.46,8.14v38.05c-3.86-2.12-8.19-3.79-10.85-4.43-4.03-.96-7.04.35-8.7,3.79-2.06,4.26-.02,6.85,5.02,10.71,4.79,3.68,9.31,8.18,12.94,11.8.96.95,1.85,1.84,2.66,2.62.67.65,1.74.64,2.39-.03.65-.67.63-1.74-.04-2.39-.8-.78-1.67-1.65-2.62-2.6-3.7-3.69-8.3-8.28-13.26-12.08-5.26-4.04-4.82-4.94-4.03-6.57.7-1.46,1.79-2.71,4.88-1.97,3.05.73,8.51,3,12.39,5.53.52.34,1.18.37,1.73.07.55-.3.89-.87.89-1.49V12.92c0-2.37,1.26-4.77,4.09-4.77s4.08,2.39,4.08,4.77l.03,25.23c0,.93.76,1.69,1.69,1.69s1.69-.76,1.69-1.69v-3.52l8.01,1.04v4.23c0,.93.76,1.69,1.69,1.69s1.69-.76,1.69-1.69v-3.79l7.39.96v4.15c0,.94.76,1.69,1.69,1.69s1.69-.76,1.69-1.69v-3.71l2.04.27c4.06.45,5.95,2.5,5.95,6.45v20.21c0,3.73-1.08,6.64-3.2,8.65-3.47,3.29-4.57,3.67-4.78,3.71h-24.92c-.93,0-1.69.75-1.69,1.69s.76,1.69,1.69,1.69h24.92c1.6,0,3.59-1.3,7.11-4.63,2.82-2.67,4.25-6.41,4.25-11.1v-20.21c0-5.68-3.18-9.17-8.92-9.81Z"/>
        <path class="cls-1" d="M64.07,33.8l-24.65-3.21V12.3c0-4.72-3.14-8.14-7.46-8.14s-7.46,3.42-7.46,8.14v38.05c-3.86-2.12-8.19-3.79-10.85-4.43-4.03-.96-7.04.35-8.7,3.79-2.06,4.26-.02,6.85,5.02,10.71,4.79,3.68,9.31,8.18,12.94,11.8.96.95,1.85,1.84,2.66,2.62.67.65,1.74.64,2.39-.03.65-.67.63-1.74-.04-2.39-.8-.78-1.67-1.65-2.62-2.6-3.7-3.69-8.3-8.28-13.26-12.08-5.26-4.04-4.82-4.94-4.03-6.57.7-1.46,1.79-2.71,4.88-1.97,3.05.73,8.51,3,12.39,5.53.52.34,1.18.37,1.73.07.55-.3.89-.87.89-1.49V12.3c0-2.37,1.26-4.77,4.09-4.77s4.08,2.39,4.08,4.77l.03,25.23c0,.93.76,1.69,1.69,1.69s1.69-.76,1.69-1.69v-3.52l8.01,1.04v4.23c0,.93.76,1.69,1.69,1.69s1.69-.76,1.69-1.69v-3.79l7.39.96v4.15c0,.94.76,1.69,1.69,1.69s1.69-.76,1.69-1.69v-3.71l2.04.27c4.06.45,5.95,2.5,5.95,6.45v20.21c0,3.73-1.08,6.64-3.2,8.65-3.47,3.29-4.57,3.67-4.78,3.71h-24.92c-.93,0-1.69.75-1.69,1.69s.76,1.69,1.69,1.69h24.92c1.6,0,3.59-1.3,7.11-4.63,2.82-2.67,4.25-6.41,4.25-11.1v-20.21c0-5.68-3.18-9.17-8.92-9.81Z"/>
        <path class="cls-3" d="M63.45,33.18l-24.65-3.21V11.67c0-4.72-3.14-8.14-7.46-8.14s-7.46,3.42-7.46,8.14v38.05c-3.86-2.12-8.19-3.79-10.85-4.43-4.03-.96-7.04.35-8.7,3.79-2.06,4.26-.02,6.85,5.02,10.71,4.79,3.68,9.31,8.18,12.94,11.8.96.95,1.85,1.84,2.66,2.62.67.65,1.74.64,2.39-.03.65-.67.63-1.74-.04-2.39-.8-.78-1.67-1.65-2.62-2.6-3.7-3.69-8.3-8.28-13.26-12.08-5.26-4.04-4.82-4.94-4.03-6.57.7-1.46,1.79-2.71,4.88-1.97,3.05.73,8.51,3,12.39,5.53.52.34,1.18.37,1.73.07.55-.3.89-.87.89-1.49V11.67c0-2.37,1.26-4.77,4.09-4.77s4.08,2.39,4.08,4.77l.03,25.23c0,.93.76,1.69,1.69,1.69s1.69-.76,1.69-1.69v-3.52l8.01,1.04v4.23c0,.93.76,1.69,1.69,1.69s1.69-.76,1.69-1.69v-3.79l7.39.96v4.15c0,.94.76,1.69,1.69,1.69s1.69-.76,1.69-1.69v-3.71l2.04.27c4.06.45,5.95,2.5,5.95,6.45v20.21c0,3.73-1.08,6.64-3.2,8.65-3.47,3.29-4.57,3.67-4.78,3.71h-24.92c-.93,0-1.69.75-1.69,1.69s.76,1.69,1.69,1.69h24.92c1.6,0,3.59-1.3,7.11-4.63,2.82-2.67,4.25-6.41,4.25-11.1v-20.21c0-5.68-3.18-9.17-8.92-9.81Z"/>
        <path class="cls-9" d="M62.82,32.55l-24.65-3.21V11.05c0-4.72-3.14-8.14-7.46-8.14s-7.46,3.42-7.46,8.14v38.05c-3.86-2.12-8.19-3.79-10.85-4.43-4.03-.96-7.04.35-8.7,3.79-2.06,4.26-.02,6.85,5.02,10.71,4.79,3.68,9.31,8.18,12.94,11.8.96.95,1.85,1.84,2.66,2.62.67.65,1.74.64,2.39-.03.65-.67.63-1.74-.04-2.39-.8-.78-1.67-1.65-2.62-2.6-3.7-3.69-8.3-8.28-13.26-12.08-5.26-4.04-4.82-4.94-4.03-6.57.7-1.46,1.79-2.71,4.88-1.97,3.05.73,8.51,3,12.39,5.53.52.34,1.18.37,1.73.07.55-.3.89-.87.89-1.49V11.05c0-2.37,1.26-4.77,4.09-4.77s4.08,2.39,4.08,4.77l.03,25.23c0,.93.76,1.69,1.69,1.69s1.69-.76,1.69-1.69v-3.52l8.01,1.04v4.23c0,.93.76,1.69,1.69,1.69s1.69-.76,1.69-1.69v-3.79l7.39.96v4.15c0,.94.76,1.69,1.69,1.69s1.69-.76,1.69-1.69v-3.71l2.04.27c4.06.45,5.95,2.5,5.95,6.45v20.21c0,3.73-1.08,6.64-3.2,8.65-3.47,3.29-4.57,3.67-4.78,3.71h-24.92c-.93,0-1.69.75-1.69,1.69s.76,1.69,1.69,1.69h24.92c1.6,0,3.59-1.3,7.11-4.63,2.82-2.67,4.25-6.41,4.25-11.1v-20.21c0-5.68-3.18-9.17-8.92-9.81Z"/>
        <path class="cls-7" d="M62.2,31.93l-24.65-3.21V10.42c0-4.72-3.14-8.14-7.46-8.14s-7.46,3.42-7.46,8.14v38.05c-3.86-2.12-8.19-3.79-10.85-4.43-4.03-.96-7.04.35-8.7,3.79-2.06,4.26-.02,6.85,5.02,10.71,4.79,3.68,9.31,8.18,12.94,11.8.96.95,1.85,1.84,2.66,2.62.67.65,1.74.64,2.39-.03.65-.67.63-1.74-.04-2.39-.8-.78-1.67-1.65-2.62-2.6-3.7-3.69-8.3-8.28-13.26-12.08-5.26-4.04-4.82-4.94-4.03-6.57.7-1.46,1.79-2.71,4.88-1.97,3.05.73,8.51,3,12.39,5.53.52.34,1.18.37,1.73.07.55-.3.89-.87.89-1.49V10.42c0-2.37,1.26-4.77,4.09-4.77s4.08,2.39,4.08,4.77l.03,25.23c0,.93.76,1.69,1.69,1.69s1.69-.76,1.69-1.69v-3.52l8.01,1.04v4.23c0,.93.76,1.69,1.69,1.69s1.69-.76,1.69-1.69v-3.79l7.39.96v4.15c0,.94.76,1.69,1.69,1.69s1.69-.76,1.69-1.69v-3.71l2.04.27c4.06.45,5.95,2.5,5.95,6.45v20.21c0,3.73-1.08,6.64-3.2,8.65-3.47,3.29-4.57,3.67-4.78,3.71h-24.92c-.93,0-1.69.75-1.69,1.69s.76,1.69,1.69,1.69h24.92c1.6,0,3.59-1.3,7.11-4.63,2.82-2.67,4.25-6.41,4.25-11.1v-20.21c0-5.68-3.18-9.17-8.92-9.81Z"/>
        <path class="cls-4" d="M61.57,31.3l-24.65-3.21V9.8c0-4.72-3.14-8.14-7.46-8.14s-7.46,3.42-7.46,8.14v38.05c-3.86-2.12-8.19-3.79-10.85-4.43-4.03-.96-7.04.35-8.7,3.79-2.06,4.26-.02,6.85,5.02,10.71,4.79,3.68,9.31,8.18,12.94,11.8.96.95,1.85,1.84,2.66,2.62.67.65,1.74.64,2.39-.03.65-.67.63-1.74-.04-2.39-.8-.78-1.67-1.65-2.62-2.6-3.7-3.69-8.3-8.28-13.26-12.08-5.26-4.04-4.82-4.94-4.03-6.57.7-1.46,1.79-2.71,4.88-1.97,3.05.73,8.51,3,12.39,5.53.52.34,1.18.37,1.73.07.55-.3.89-.87.89-1.49V9.8c0-2.37,1.26-4.77,4.09-4.77s4.08,2.39,4.08,4.77l.03,25.23c0,.93.76,1.69,1.69,1.69s1.69-.76,1.69-1.69v-3.52l8.01,1.04v4.23c0,.93.76,1.69,1.69,1.69s1.69-.76,1.69-1.69v-3.79l7.39.96v4.15c0,.94.76,1.69,1.69,1.69s1.69-.76,1.69-1.69v-3.71l2.04.27c4.06.45,5.95,2.5,5.95,6.45v20.21c0,3.73-1.08,6.64-3.2,8.65-3.47,3.29-4.57,3.67-4.78,3.71h-24.92c-.93,0-1.69.75-1.69,1.69s.76,1.69,1.69,1.69h24.92c1.6,0,3.59-1.3,7.11-4.63,2.82-2.67,4.25-6.41,4.25-11.1v-20.21c0-5.68-3.18-9.17-8.92-9.81Z"/>
        <path class="cls-6" d="M60.95,30.68l-24.65-3.21V9.17c0-4.72-3.14-8.14-7.46-8.14s-7.46,3.42-7.46,8.14v38.05c-3.86-2.12-8.19-3.79-10.85-4.43-4.03-.96-7.04.35-8.7,3.79-2.06,4.26-.02,6.85,5.02,10.71,4.79,3.68,9.31,8.18,12.94,11.8.96.95,1.85,1.84,2.66,2.62.67.65,1.74.64,2.39-.03.65-.67.63-1.74-.04-2.39-.8-.78-1.67-1.65-2.62-2.6-3.7-3.69-8.3-8.28-13.26-12.08-5.26-4.04-4.82-4.94-4.03-6.57.7-1.46,1.79-2.71,4.88-1.97,3.05.73,8.51,3,12.39,5.53.52.34,1.18.37,1.73.07.55-.3.89-.87.89-1.49V9.17c0-2.37,1.26-4.77,4.09-4.77s4.08,2.39,4.08,4.77l.03,25.23c0,.93.76,1.69,1.69,1.69s1.69-.76,1.69-1.69v-3.52l8.01,1.04v4.23c0,.93.76,1.69,1.69,1.69s1.69-.76,1.69-1.69v-3.79l7.39.96v4.15c0,.94.76,1.69,1.69,1.69s1.69-.76,1.69-1.69v-3.71l2.04.27c4.06.45,5.95,2.5,5.95,6.45v20.21c0,3.73-1.08,6.64-3.2,8.65-3.47,3.29-4.57,3.67-4.78,3.71h-24.92c-.93,0-1.69.75-1.69,1.69s.76,1.69,1.69,1.69h24.92c1.6,0,3.59-1.3,7.11-4.63,2.82-2.67,4.25-6.41,4.25-11.1v-20.21c0-5.68-3.18-9.17-8.92-9.81Z"/>
        <path class="cls-5" d="M60.32,30.05l-24.65-3.21V8.55c0-4.72-3.14-8.14-7.46-8.14s-7.46,3.42-7.46,8.14v38.05c-3.86-2.12-8.19-3.79-10.85-4.43-4.03-.96-7.04.35-8.7,3.79-2.06,4.26-.02,6.85,5.02,10.71,4.79,3.68,9.31,8.18,12.94,11.8.96.95,1.85,1.84,2.66,2.62.67.65,1.74.64,2.39-.03.65-.67.63-1.74-.04-2.39-.8-.78-1.67-1.65-2.62-2.6-3.7-3.69-8.3-8.28-13.26-12.08-5.26-4.04-4.82-4.94-4.03-6.57.7-1.46,1.79-2.71,4.88-1.97,3.05.73,8.52,2.99,12.39,5.53.52.34,1.18.37,1.73.07.55-.3.89-.87.89-1.49V8.55c0-2.37,1.26-4.77,4.09-4.77s4.08,2.39,4.08,4.77l.03,25.23c0,.93.76,1.69,1.69,1.69s1.69-.76,1.69-1.69v-3.52l8.01,1.04v4.23c0,.93.76,1.69,1.69,1.69s1.69-.76,1.69-1.69v-3.79l7.39.96v4.15c0,.94.76,1.69,1.69,1.69s1.69-.76,1.69-1.69v-3.71l2.04.27c4.06.45,5.95,2.5,5.95,6.45v20.21c0,3.73-1.08,6.64-3.2,8.65-3.47,3.29-4.57,3.67-4.78,3.71h-24.92c-.93,0-1.69.75-1.69,1.69s.76,1.69,1.69,1.69h24.92c1.6,0,3.59-1.3,7.11-4.63,2.82-2.67,4.25-6.41,4.25-11.1v-20.21c0-5.68-3.18-9.17-8.92-9.81Z"/>
      </g>
      <path class="cls-2" d="M59.91,29.65l-24.65-3.21V8.14c0-4.72-3.14-8.14-7.46-8.14s-7.46,3.42-7.46,8.14v38.05c-3.86-2.12-8.19-3.79-10.85-4.43-4.03-.96-7.04.35-8.7,3.79-2.06,4.26-.02,6.85,5.02,10.71,4.79,3.68,9.31,8.18,12.94,11.8.96.96,1.85,1.84,2.66,2.62.67.65,1.74.64,2.39-.03.65-.67.63-1.74-.04-2.39-.8-.78-1.67-1.65-2.62-2.6-3.7-3.69-8.3-8.28-13.26-12.08-5.26-4.04-4.82-4.94-4.03-6.57.7-1.46,1.79-2.71,4.88-1.97,3.05.73,8.52,2.99,12.39,5.53.52.34,1.18.37,1.73.07.55-.29.89-.87.89-1.49V8.14c0-2.37,1.26-4.77,4.09-4.77s4.08,2.39,4.08,4.77l.03,25.23c0,.93.76,1.69,1.69,1.69s1.69-.76,1.69-1.69v-3.52l8.01,1.04v4.23c0,.93.76,1.69,1.69,1.69s1.69-.76,1.69-1.69v-3.79l7.39.96v4.15c0,.94.76,1.69,1.69,1.69s1.69-.76,1.69-1.69v-3.71l2.04.27c4.06.45,5.95,2.5,5.95,6.45v20.21c0,3.73-1.08,6.64-3.2,8.65-3.47,3.29-4.57,3.67-4.78,3.71h-24.91c-.93,0-1.69.75-1.69,1.69s.76,1.69,1.69,1.69h24.91c1.6,0,3.59-1.3,7.11-4.63,2.82-2.67,4.25-6.41,4.25-11.1v-20.21c0-5.68-3.18-9.17-8.92-9.81Z"/>
    </g>
  </g>
</svg>