<?xml version="1.0" encoding="UTF-8"?>
<svg id="Layer_2" data-name="Layer 2" xmlns="http://www.w3.org/2000/svg" viewBox="0 0 27.36 26.7">
  <defs>
    <style>
      .cls-1 {
        fill-rule: evenodd;
      }
    </style>
  </defs>
  <g id="_1" data-name="1">
    <path class="cls-1" d="M17.07,8.05l3.03,3.04-8.09-2.18,1.75-1.74,3.31.88ZM27.36,0l-1.45,6.92-1.48,6.92-5.45-5.44-5.46-5.46,6.92-1.46,6.92-1.48ZM20.87,12.88c-.06.1-.1.18-.19.25l-1.52,1.52-10.17-2.71,1.75-1.77,10.13,2.71ZM17.91,15.92l-1.77,1.74-10.16-2.73,1.74-1.74,10.19,2.73ZM14.89,18.91l-1.75,1.77-10.16-2.73,1.74-1.75,10.17,2.71ZM11.87,21.94l-1.74,1.75L0,20.97c.06-.09.12-.17.19-.25l1.52-1.52,10.16,2.73ZM8.87,24.96l-1.77,1.74-3.31-.88-3.04-3.04,8.11,2.18Z"/>
  </g>
</svg>