<?xml version="1.0" encoding="UTF-8"?>
<svg id="Layer_2" data-name="Layer 2" xmlns="http://www.w3.org/2000/svg" viewBox="0 0 27.36 24.65">
  <defs>
    <style>
      .cls-1 {
        fill-rule: evenodd;
      }
    </style>
  </defs>
  <g id="_1" data-name="1">
    <path class="cls-1" d="M24.93,0c-1.35,0-2.45,1.09-2.45,2.43,0,.32.07.64.18.93l-3.99,4c-1.02-.75-2.28-1.2-3.64-1.2-1.09,0-2.14.29-3.08.84l-2.51-2.89c.16-.35.26-.72.26-1.09,0-1.34-1.09-2.43-2.43-2.43s-2.45,1.09-2.45,2.43,1.09,2.43,2.45,2.43c.25,0,.5-.04.73-.11l2.49,2.85c-1.01,1.13-1.56,2.56-1.56,4.08,0,.59.1,1.2.27,1.78l-5.47,3.9c-.39-.25-.83-.37-1.28-.37-1.34,0-2.44,1.09-2.44,2.45s1.1,2.43,2.44,2.43,2.43-1.09,2.43-2.43c0-.18-.01-.36-.05-.54l5.22-3.72c.66.95,1.6,1.7,2.68,2.14l-.58,1.64c-1.23.11-2.21,1.16-2.21,2.44,0,1.34,1.09,2.43,2.43,2.43s2.45-1.09,2.45-2.43c0-.72-.32-1.39-.86-1.85l.62-1.78c.15.01.31.01.46.01.77,0,1.53-.14,2.27-.43l2.61,3.15c-.18.34-.28.73-.28,1.12,0,1.36,1.09,2.45,2.43,2.45s2.45-1.09,2.45-2.45-1.09-2.43-2.45-2.43c-.23,0-.47.04-.71.11l-2.43-2.93c1.41-1.17,2.2-2.86,2.2-4.68,0-1.33-.41-2.56-1.14-3.55l4.01-4.02c.28.12.6.18.92.18,1.34,0,2.43-1.09,2.43-2.43s-1.09-2.43-2.43-2.43h0ZM14.96,8.35c2.22,0,4.02,1.81,4.02,4.04s-1.8,4.02-4.02,4.02-4.02-1.81-4.02-4.02,1.8-4.04,4.02-4.04h0Z"/>
  </g>
</svg>