<?xml version="1.0" encoding="UTF-8"?>
<svg id="Layer_2" data-name="Layer 2" xmlns="http://www.w3.org/2000/svg" xmlns:xlink="http://www.w3.org/1999/xlink" viewBox="0 0 77.37 77.37">
  <defs>
    <style>
      .cls-1 {
        opacity: .14;
      }

      .cls-2 {
        opacity: .21;
      }

      .cls-3 {
        opacity: .42;
      }

      .cls-4 {
        opacity: .55;
      }

      .cls-5 {
        opacity: .48;
      }

      .cls-6 {
        opacity: .35;
      }

      .cls-7 {
        opacity: .08;
      }

      .cls-8 {
        opacity: .28;
      }

      .cls-9 {
        opacity: 0;
      }

      .cls-10 {
        fill: url(#linear-gradient);
      }
    </style>
    <linearGradient id="linear-gradient" x1="6.98" y1="6.98" x2="64.98" y2="64.99" gradientUnits="userSpaceOnUse">
      <stop offset="0" stop-color="#2c2e2c"/>
      <stop offset=".99" stop-color="#000"/>
    </linearGradient>
  </defs>
  <g id="Layer_1-2" data-name="Layer 1">
    <g>
      <g>
        <path class="cls-9" d="M72.6,45.16l-4.24-4.24c-5-5-12.6-6.2-18.91-2.98-.83.43-1.16,1.45-.74,2.28.43.83,1.44,1.16,2.27.74,5-2.55,11.02-1.6,14.98,2.36l4.24,4.24c2.44,2.44,3.78,5.68,3.78,9.12s-1.34,6.68-3.78,9.12l-4.42,4.41c-2.44,2.44-5.68,3.78-9.12,3.78s-6.68-1.34-9.12-3.78l-4.24-4.24c-3.96-3.96-4.91-9.98-2.36-14.98.42-.83.09-1.85-.74-2.27-.83-.42-1.85-.09-2.27.74-3.22,6.3-2.02,13.91,2.98,18.91l4.24,4.24c3.07,3.08,7.16,4.77,11.51,4.77h0c4.35,0,8.44-1.69,11.51-4.77l4.41-4.41c3.07-3.08,4.77-7.16,4.77-11.51s-1.69-8.44-4.77-11.51ZM28.32,28.32c-.66.66-.66,1.73,0,2.39l23.75,23.75c.33.33.76.49,1.2.49s.86-.16,1.19-.49c.66-.66.66-1.73,0-2.39l-23.75-23.75c-.66-.66-1.73-.66-2.39,0ZM31.79,41.82c-5,2.55-11.02,1.6-14.98-2.36l-4.24-4.24c-2.43-2.44-3.78-5.68-3.78-9.12s1.34-6.68,3.78-9.12l4.42-4.42c2.44-2.44,5.67-3.78,9.12-3.78s6.68,1.34,9.12,3.78l4.24,4.24c3.96,3.96,4.91,9.99,2.36,14.98-.42.83-.1,1.85.74,2.27.83.43,1.85.1,2.27-.74,3.22-6.31,2.02-13.9-2.98-18.91l-4.24-4.24c-3.08-3.07-7.16-4.77-11.51-4.77s-8.44,1.7-11.51,4.77l-4.41,4.41c-3.08,3.08-4.77,7.16-4.77,11.51s1.69,8.44,4.77,11.51l4.24,4.24c3.13,3.13,7.28,4.77,11.49,4.77,2.52,0,5.06-.59,7.42-1.79.83-.42,1.16-1.44.74-2.27-.43-.83-1.44-1.16-2.27-.74Z"/>
        <path class="cls-7" d="M71.97,44.54l-4.24-4.24c-5-5-12.6-6.2-18.91-2.98-.83.43-1.16,1.45-.74,2.28.43.83,1.44,1.16,2.27.74,5-2.55,11.02-1.6,14.98,2.36l4.24,4.24c2.44,2.44,3.78,5.68,3.78,9.12s-1.34,6.68-3.78,9.12l-4.42,4.41c-2.44,2.44-5.68,3.78-9.12,3.78s-6.68-1.34-9.12-3.78l-4.24-4.24c-3.96-3.96-4.91-9.98-2.36-14.98.42-.83.09-1.85-.74-2.27-.83-.42-1.85-.09-2.27.74-3.22,6.3-2.02,13.91,2.98,18.91l4.24,4.24c3.07,3.08,7.16,4.77,11.51,4.77h0c4.35,0,8.44-1.69,11.51-4.77l4.41-4.41c3.07-3.08,4.77-7.16,4.77-11.51s-1.69-8.44-4.77-11.51ZM27.69,27.69c-.66.66-.66,1.73,0,2.39l23.75,23.75c.33.33.76.49,1.2.49s.86-.16,1.19-.49c.66-.66.66-1.73,0-2.39l-23.75-23.75c-.66-.66-1.73-.66-2.39,0ZM31.16,41.2c-5,2.55-11.02,1.6-14.98-2.36l-4.24-4.24c-2.43-2.44-3.78-5.68-3.78-9.12s1.34-6.68,3.78-9.12l4.42-4.42c2.44-2.44,5.67-3.78,9.12-3.78s6.68,1.34,9.12,3.78l4.24,4.24c3.96,3.96,4.91,9.99,2.36,14.98-.42.83-.09,1.85.74,2.27.83.42,1.85.1,2.27-.74,3.22-6.31,2.02-13.9-2.98-18.91l-4.24-4.24c-3.08-3.07-7.16-4.77-11.51-4.77s-8.44,1.7-11.51,4.77l-4.41,4.41c-3.08,3.08-4.77,7.16-4.77,11.51s1.69,8.44,4.77,11.51l4.24,4.24c3.13,3.13,7.28,4.77,11.49,4.77,2.52,0,5.06-.59,7.42-1.79.83-.42,1.16-1.44.74-2.27-.43-.83-1.44-1.16-2.27-.74Z"/>
        <path class="cls-1" d="M71.35,43.91l-4.24-4.24c-5-5-12.6-6.2-18.91-2.98-.83.43-1.16,1.45-.74,2.28.43.83,1.44,1.16,2.27.74,5-2.55,11.02-1.6,14.98,2.36l4.24,4.24c2.44,2.44,3.78,5.68,3.78,9.12s-1.34,6.68-3.78,9.12l-4.42,4.41c-2.44,2.44-5.68,3.78-9.12,3.78s-6.68-1.34-9.12-3.78l-4.24-4.24c-3.96-3.96-4.91-9.98-2.36-14.98.42-.83.09-1.85-.74-2.27-.83-.42-1.85-.09-2.27.74-3.22,6.3-2.02,13.91,2.98,18.91l4.24,4.24c3.07,3.08,7.16,4.77,11.51,4.77h0c4.35,0,8.44-1.69,11.51-4.77l4.41-4.41c3.07-3.08,4.77-7.16,4.77-11.51s-1.69-8.44-4.77-11.51ZM27.07,27.07c-.66.66-.66,1.73,0,2.39l23.75,23.75c.33.33.76.49,1.2.49s.86-.16,1.19-.49c.66-.66.66-1.73,0-2.39l-23.75-23.75c-.66-.66-1.73-.66-2.39,0ZM30.54,40.57c-5,2.55-11.02,1.6-14.98-2.36l-4.24-4.24c-2.43-2.44-3.78-5.68-3.78-9.12s1.34-6.68,3.78-9.12l4.42-4.42c2.44-2.44,5.67-3.78,9.12-3.78s6.68,1.34,9.12,3.78l4.24,4.24c3.96,3.96,4.91,9.99,2.36,14.98-.42.83-.09,1.85.74,2.27.83.42,1.85.1,2.27-.74,3.22-6.31,2.02-13.9-2.98-18.91l-4.24-4.24c-3.08-3.07-7.16-4.77-11.51-4.77s-8.44,1.7-11.51,4.77l-4.41,4.41c-3.08,3.08-4.77,7.16-4.77,11.51s1.69,8.44,4.77,11.51l4.24,4.24c3.13,3.13,7.28,4.77,11.49,4.77,2.52,0,5.06-.59,7.42-1.79.83-.42,1.16-1.44.74-2.27-.43-.83-1.44-1.16-2.27-.74Z"/>
        <path class="cls-2" d="M70.72,43.29l-4.24-4.24c-5-5-12.6-6.2-18.91-2.98-.83.43-1.16,1.45-.74,2.28.43.83,1.44,1.16,2.27.74,5-2.55,11.02-1.6,14.98,2.36l4.24,4.24c2.44,2.44,3.78,5.68,3.78,9.12s-1.34,6.68-3.78,9.12l-4.42,4.41c-2.44,2.44-5.68,3.78-9.12,3.78s-6.68-1.34-9.12-3.78l-4.24-4.24c-3.96-3.96-4.91-9.98-2.36-14.98.42-.83.09-1.85-.74-2.27-.83-.42-1.85-.09-2.27.74-3.22,6.3-2.02,13.91,2.98,18.91l4.24,4.24c3.07,3.08,7.16,4.77,11.51,4.77h0c4.35,0,8.44-1.69,11.51-4.77l4.41-4.41c3.07-3.08,4.77-7.16,4.77-11.51s-1.69-8.44-4.77-11.51ZM26.44,26.44c-.66.66-.66,1.73,0,2.39l23.75,23.75c.33.33.76.49,1.2.49s.86-.16,1.19-.49c.66-.66.66-1.73,0-2.39l-23.75-23.75c-.66-.66-1.73-.66-2.39,0ZM29.91,39.95c-5,2.55-11.02,1.6-14.98-2.36l-4.24-4.24c-2.43-2.44-3.78-5.68-3.78-9.12s1.34-6.68,3.78-9.12l4.42-4.42c2.44-2.44,5.67-3.78,9.12-3.78s6.68,1.34,9.12,3.78l4.24,4.24c3.96,3.96,4.91,9.99,2.36,14.98-.42.83-.09,1.85.74,2.27.83.42,1.85.1,2.27-.74,3.22-6.31,2.02-13.9-2.98-18.91l-4.24-4.24c-3.08-3.07-7.16-4.77-11.51-4.77s-8.44,1.7-11.51,4.77l-4.41,4.41c-3.08,3.08-4.77,7.16-4.77,11.51s1.69,8.44,4.77,11.51l4.24,4.24c3.13,3.13,7.28,4.77,11.49,4.77,2.52,0,5.06-.59,7.42-1.79.83-.42,1.16-1.44.74-2.27-.43-.83-1.44-1.16-2.27-.74Z"/>
        <path class="cls-8" d="M70.1,42.66l-4.24-4.24c-5-5-12.6-6.2-18.91-2.98-.83.43-1.16,1.45-.74,2.28.43.83,1.44,1.16,2.27.74,5-2.55,11.02-1.6,14.98,2.36l4.24,4.24c2.44,2.44,3.78,5.68,3.78,9.12s-1.34,6.68-3.78,9.12l-4.42,4.41c-2.44,2.44-5.68,3.78-9.12,3.78s-6.68-1.34-9.12-3.78l-4.24-4.24c-3.96-3.96-4.91-9.98-2.36-14.98.42-.83.09-1.85-.74-2.27-.83-.42-1.85-.09-2.27.74-3.22,6.3-2.02,13.91,2.98,18.91l4.24,4.24c3.07,3.08,7.16,4.77,11.51,4.77h0c4.35,0,8.44-1.69,11.51-4.77l4.41-4.41c3.07-3.08,4.77-7.16,4.77-11.51s-1.69-8.44-4.77-11.51ZM25.82,25.82c-.66.66-.66,1.73,0,2.39l23.75,23.75c.33.33.76.49,1.2.49s.86-.16,1.19-.49c.66-.66.66-1.73,0-2.39l-23.75-23.75c-.66-.66-1.73-.66-2.39,0ZM29.29,39.32c-5,2.55-11.02,1.6-14.98-2.36l-4.24-4.24c-2.43-2.44-3.78-5.68-3.78-9.12s1.34-6.68,3.78-9.12l4.42-4.42c2.44-2.44,5.67-3.78,9.12-3.78s6.68,1.34,9.12,3.78l4.24,4.24c3.96,3.96,4.91,9.99,2.36,14.98-.42.83-.09,1.85.74,2.27.83.42,1.85.1,2.27-.74,3.22-6.31,2.02-13.9-2.98-18.91l-4.24-4.24c-3.08-3.07-7.16-4.77-11.51-4.77s-8.44,1.7-11.51,4.77l-4.41,4.41c-3.08,3.08-4.77,7.16-4.77,11.51s1.69,8.44,4.77,11.51l4.24,4.24c3.13,3.13,7.28,4.77,11.49,4.77,2.52,0,5.06-.59,7.42-1.79.83-.42,1.16-1.44.74-2.27-.43-.83-1.44-1.16-2.27-.74Z"/>
        <path class="cls-6" d="M69.47,42.04l-4.24-4.24c-5-5-12.6-6.2-18.91-2.98-.83.43-1.16,1.45-.74,2.28.43.83,1.44,1.16,2.27.74,5-2.55,11.02-1.6,14.98,2.36l4.24,4.24c2.44,2.44,3.78,5.68,3.78,9.12s-1.34,6.68-3.78,9.12l-4.42,4.41c-2.44,2.44-5.68,3.78-9.12,3.78s-6.68-1.34-9.12-3.78l-4.24-4.24c-3.96-3.96-4.91-9.98-2.36-14.98.42-.83.09-1.85-.74-2.27-.83-.42-1.85-.09-2.27.74-3.22,6.3-2.02,13.91,2.98,18.91l4.24,4.24c3.07,3.08,7.16,4.77,11.51,4.77h0c4.35,0,8.44-1.69,11.51-4.77l4.41-4.41c3.07-3.08,4.77-7.16,4.77-11.51s-1.69-8.44-4.77-11.51ZM25.19,25.19c-.66.66-.66,1.73,0,2.39l23.75,23.75c.33.33.76.49,1.2.49s.86-.16,1.19-.49c.66-.66.66-1.73,0-2.39l-23.75-23.75c-.66-.66-1.73-.66-2.39,0ZM28.66,38.7c-5,2.55-11.02,1.6-14.98-2.36l-4.24-4.24c-2.43-2.44-3.78-5.68-3.78-9.12s1.34-6.68,3.78-9.12l4.42-4.42c2.44-2.44,5.67-3.78,9.12-3.78s6.68,1.34,9.12,3.78l4.24,4.24c3.96,3.96,4.91,9.99,2.36,14.98-.42.83-.09,1.85.74,2.27.83.42,1.85.1,2.27-.74,3.22-6.31,2.02-13.9-2.98-18.91l-4.24-4.24c-3.08-3.07-7.16-4.77-11.51-4.77s-8.44,1.7-11.51,4.77l-4.41,4.41c-3.08,3.08-4.77,7.16-4.77,11.51s1.69,8.44,4.77,11.51l4.24,4.24c3.13,3.13,7.28,4.77,11.49,4.77,2.52,0,5.06-.59,7.42-1.79.83-.42,1.16-1.44.74-2.27-.43-.83-1.44-1.16-2.27-.74Z"/>
        <path class="cls-3" d="M68.85,41.41l-4.24-4.24c-5-5-12.6-6.2-18.91-2.98-.83.43-1.16,1.45-.74,2.28.43.83,1.44,1.16,2.27.74,5-2.55,11.02-1.6,14.98,2.36l4.24,4.24c2.44,2.44,3.78,5.68,3.78,9.12s-1.34,6.68-3.78,9.12l-4.42,4.41c-2.44,2.44-5.68,3.78-9.12,3.78s-6.68-1.34-9.12-3.78l-4.24-4.24c-3.96-3.96-4.91-9.98-2.36-14.98.42-.83.09-1.85-.74-2.27-.83-.42-1.85-.09-2.27.74-3.22,6.3-2.02,13.91,2.98,18.91l4.24,4.24c3.07,3.08,7.16,4.77,11.51,4.77h0c4.35,0,8.44-1.69,11.51-4.77l4.41-4.41c3.07-3.08,4.77-7.16,4.77-11.51s-1.69-8.44-4.77-11.51ZM24.57,24.57c-.66.66-.66,1.73,0,2.39l23.75,23.75c.33.33.76.49,1.2.49s.86-.16,1.19-.49c.66-.66.66-1.73,0-2.39l-23.75-23.75c-.66-.66-1.73-.66-2.39,0ZM28.04,38.07c-5,2.55-11.02,1.6-14.98-2.36l-4.24-4.24c-2.43-2.44-3.78-5.68-3.78-9.12s1.34-6.68,3.78-9.12l4.42-4.42c2.44-2.44,5.67-3.78,9.12-3.78s6.68,1.34,9.12,3.78l4.24,4.24c3.96,3.96,4.91,9.99,2.36,14.98-.42.83-.09,1.85.74,2.27.83.42,1.85.1,2.27-.74,3.22-6.31,2.02-13.9-2.98-18.91l-4.24-4.24c-3.08-3.07-7.16-4.77-11.51-4.77s-8.44,1.7-11.51,4.77l-4.41,4.41c-3.08,3.08-4.77,7.16-4.77,11.51s1.69,8.44,4.77,11.51l4.24,4.24c3.13,3.13,7.28,4.77,11.49,4.77,2.52,0,5.06-.59,7.42-1.79.83-.42,1.16-1.44.74-2.27-.43-.83-1.44-1.16-2.27-.74Z"/>
        <path class="cls-5" d="M68.22,40.79l-4.24-4.24c-5-5-12.6-6.2-18.91-2.98-.83.43-1.16,1.45-.74,2.28.43.83,1.44,1.16,2.27.74,5-2.55,11.02-1.6,14.98,2.36l4.24,4.24c2.44,2.44,3.78,5.68,3.78,9.12s-1.34,6.68-3.78,9.12l-4.42,4.41c-2.44,2.44-5.68,3.78-9.12,3.78s-6.68-1.34-9.12-3.78l-4.24-4.24c-3.96-3.96-4.91-9.98-2.36-14.98.42-.83.09-1.85-.74-2.27-.83-.42-1.85-.09-2.27.74-3.22,6.3-2.02,13.91,2.98,18.91l4.24,4.24c3.07,3.08,7.16,4.77,11.51,4.77h0c4.35,0,8.44-1.69,11.51-4.77l4.41-4.41c3.07-3.08,4.77-7.16,4.77-11.51s-1.69-8.44-4.77-11.51ZM23.94,23.94c-.66.66-.66,1.73,0,2.39l23.75,23.75c.33.33.76.49,1.2.49s.86-.16,1.19-.49c.66-.66.66-1.73,0-2.39l-23.75-23.75c-.66-.66-1.73-.66-2.39,0ZM27.41,37.45c-5,2.55-11.02,1.6-14.98-2.36l-4.24-4.24c-2.43-2.44-3.78-5.68-3.78-9.12s1.34-6.68,3.78-9.12l4.42-4.42c2.44-2.44,5.67-3.78,9.12-3.78s6.68,1.34,9.12,3.78l4.24,4.24c3.96,3.96,4.91,9.99,2.36,14.98-.42.83-.09,1.85.74,2.27.83.42,1.85.1,2.27-.74,3.22-6.31,2.02-13.9-2.98-18.91l-4.24-4.24c-3.08-3.07-7.16-4.77-11.51-4.77s-8.44,1.7-11.51,4.77l-4.41,4.41c-3.08,3.08-4.77,7.16-4.77,11.51s1.69,8.44,4.77,11.51l4.24,4.24c3.13,3.13,7.28,4.77,11.49,4.77,2.52,0,5.06-.59,7.42-1.79.83-.42,1.16-1.44.74-2.27-.43-.83-1.44-1.16-2.27-.74Z"/>
        <path class="cls-4" d="M67.6,40.16l-4.24-4.24c-5-5-12.6-6.2-18.91-2.98-.83.43-1.16,1.45-.74,2.28.43.83,1.44,1.16,2.27.74,5-2.55,11.02-1.6,14.98,2.36l4.24,4.24c2.44,2.44,3.78,5.68,3.78,9.12s-1.34,6.68-3.78,9.12l-4.42,4.41c-2.44,2.44-5.68,3.78-9.12,3.78s-6.68-1.34-9.12-3.78l-4.24-4.24c-3.96-3.96-4.91-9.98-2.36-14.98.42-.83.09-1.85-.74-2.27-.83-.42-1.85-.09-2.27.74-3.22,6.3-2.02,13.91,2.98,18.91l4.24,4.24c3.07,3.08,7.16,4.77,11.51,4.77h0c4.35,0,8.44-1.69,11.51-4.77l4.41-4.41c3.07-3.08,4.77-7.16,4.77-11.51s-1.69-8.44-4.77-11.51ZM23.32,23.32c-.66.66-.66,1.73,0,2.39l23.75,23.75c.33.33.76.49,1.2.49s.86-.16,1.19-.49c.66-.66.66-1.73,0-2.39l-23.75-23.75c-.66-.66-1.73-.66-2.39,0ZM26.79,36.82c-5,2.55-11.02,1.6-14.98-2.36l-4.24-4.24c-2.43-2.44-3.78-5.68-3.78-9.12s1.34-6.68,3.78-9.12l4.42-4.42c2.44-2.44,5.67-3.78,9.12-3.78s6.68,1.34,9.12,3.78l4.24,4.24c3.96,3.96,4.91,9.99,2.36,14.98-.42.83-.1,1.85.74,2.27.83.43,1.85.1,2.27-.74,3.22-6.31,2.02-13.9-2.98-18.91l-4.24-4.24C29.54,2.1,25.45.41,21.1.41s-8.44,1.7-11.51,4.77l-4.41,4.41C2.1,12.67.41,16.75.41,21.1s1.69,8.44,4.77,11.51l4.24,4.24c3.13,3.13,7.28,4.77,11.49,4.77,2.52,0,5.06-.59,7.42-1.79.83-.42,1.16-1.44.74-2.27-.43-.83-1.44-1.16-2.27-.74Z"/>
      </g>
      <path class="cls-10" d="M22.91,22.91c-.66.66-.66,1.73,0,2.39l23.75,23.75c.33.33.76.49,1.2.49s.86-.16,1.19-.49c.66-.66.66-1.73,0-2.39l-23.75-23.75c-.66-.66-1.73-.66-2.39,0ZM26.38,36.42c-5,2.55-11.02,1.6-14.98-2.36l-4.24-4.24c-2.43-2.44-3.78-5.68-3.78-9.12s1.34-6.68,3.78-9.12l4.42-4.42c2.44-2.44,5.67-3.78,9.12-3.78s6.68,1.34,9.12,3.78l4.24,4.24c3.96,3.96,4.91,9.99,2.36,14.98-.42.83-.1,1.85.74,2.27.83.43,1.85.1,2.27-.74,3.22-6.31,2.02-13.9-2.98-18.91l-4.24-4.24C29.13,1.69,25.04,0,20.7,0s-8.44,1.7-11.51,4.77l-4.41,4.41C1.69,12.26,0,16.35,0,20.7s1.69,8.44,4.77,11.51l4.24,4.24c3.13,3.13,7.28,4.77,11.49,4.77,2.52,0,5.06-.59,7.42-1.79.83-.42,1.16-1.44.74-2.27-.43-.83-1.44-1.16-2.27-.74ZM67.19,39.76l-4.24-4.24c-5-5-12.6-6.2-18.91-2.98-.83.43-1.16,1.45-.74,2.28.43.83,1.44,1.16,2.27.74,5-2.55,11.02-1.6,14.98,2.36l4.24,4.24c2.44,2.44,3.78,5.68,3.78,9.12s-1.34,6.68-3.78,9.12l-4.41,4.42c-2.44,2.44-5.68,3.78-9.12,3.78s-6.68-1.34-9.12-3.78l-4.24-4.24c-3.96-3.96-4.91-9.98-2.36-14.98.42-.83.09-1.85-.74-2.27-.83-.42-1.85-.09-2.27.74-3.22,6.3-2.02,13.91,2.98,18.91l4.24,4.24c3.07,3.08,7.16,4.77,11.51,4.77h0c4.35,0,8.44-1.69,11.51-4.77l4.41-4.41c3.07-3.08,4.77-7.16,4.77-11.51s-1.69-8.44-4.77-11.51Z"/>
    </g>
  </g>
</svg>