<?xml version="1.0" encoding="UTF-8"?>
<svg id="Layer_2" data-name="Layer 2" xmlns="http://www.w3.org/2000/svg" viewBox="0 0 21.42 27.36">
  <defs>
    <style>
      .cls-1 {
        fill-rule: evenodd;
      }
    </style>
  </defs>
  <g id="_1" data-name="1">
    <path class="cls-1" d="M1.17,26.69c1.26.21,5.07.41,6.57-.26,3.37.87,7.19,1.26,10.48.57,1.17-1.74.9-2.62.3-3.28,2.13-.84,2.9-2.11,1.38-4.15,2.19-2.01,1.83-3.4.09-4.46,1.72-2.08,1.29-3.6-1.05-4.6-1.87.1-4.4-.11-6.27,0,2.4-2.75,4.9-5.36,2.22-9.67-.57-1.28-2.77-1.02-3.44.21.99,2.89-3.46,5.72-5.66,9.44-.62,1.04-3.89,2.6-4.82,3.13-1.51,4.91-1.06,8.74.21,13.07h0Z"/>
  </g>
</svg>