<?xml version="1.0" encoding="UTF-8"?>
<svg id="Layer_2" data-name="Layer 2" xmlns="http://www.w3.org/2000/svg" viewBox="0 0 27.36 24.16">
  <g id="_1" data-name="1">
    <path d="M11.16,0h14.28c.52,0,1.01.21,1.35.54.35.33.57.79.57,1.3v8.73c0,.5-.22.97-.57,1.3-.35.33-.83.54-1.35.54h-14.28c-.53,0-1.01-.21-1.35-.54-.35-.33-.57-.8-.57-1.3v-1.55l1.21.46.13.04v1.05c0,.15.07.29.16.38.11.11.26.17.41.17h14.28c.17,0,.31-.06.42-.17.1-.1.16-.23.16-.38V1.84c0-.15-.07-.29-.16-.4-.11-.1-.25-.15-.42-.15h-14.28c-.15,0-.3.06-.41.15-.1.11-.16.25-.16.4v4.88l-1.34-.43V1.84c0-.51.22-.97.57-1.3.35-.33.83-.54,1.35-.54h0ZM5.52,5.62l-.18.43h-.02l.54,4.74c-.22.43-.32.64-.54,1.06l-.73-1.06.54-4.74h-.01l-.2-.43c-1.46.08-3.07.73-3.14.76-.03.01-.04.04-.07.06-.05.03-.09.05-.14.1-.04.04-.07.07-.11.11-.03.04-.06.1-.08.14-.03.06-.05.11-.07.17-.01.04-.03.05-.03.1L.02,13.56c-.1.5.18.98.59,1.08.07.03.12.03.18.03.36,0,.69-.29.78-.7l1.16-6.01c.08-.03.18-.07.28-.1v6.18l-.62,8.96c-.04.61.35,1.12.87,1.17h.07c.5,0,.91-.43.95-1l.57-8.1c.12.06.25.1.39.1s.26-.04.37-.1l.58,8.1c.04.57.46,1,.94,1h.08c.53-.05.91-.58.87-1.17l-.64-8.96v-6.18c.24.08.49.15.71.25.1.03.21.07.3.1l2.32.9c.18.07.35.14.53.21.08.03.16.04.25.04.33,0,.63-.23.75-.61.02-.07.02-.14.02-.19,2.34-1.24,3.84-2.09,4.51-2.5h-.36c-.77.36-2.17,1.05-4.19,2.12-.07-.25-.23-.47-.49-.57l-1.02-.36-2.32-.77c-1.3-.43-2.56-.81-2.93-.83h0ZM5.26,5c.84,0,1.52-1.12,1.52-2.09s-.68-1.74-1.52-1.74-1.54.79-1.54,1.74.68,2.09,1.54,2.09h0Z"/>
  </g>
</svg>