<?xml version="1.0" encoding="UTF-8"?>
<svg id="Layer_2" data-name="Layer 2" xmlns="http://www.w3.org/2000/svg" viewBox="0 0 27.36 24.48">
  <defs>
    <style>
      .cls-1 {
        fill-rule: evenodd;
      }
    </style>
  </defs>
  <g id="_1" data-name="1">
    <path class="cls-1" d="M16.69,9.63l1.38,1.86,1-.78-1.29-1.6.72-.57,1.29,1.61.78-.61-1.37-1.81.72-.57,1.36,1.83,1.08-.85-1.12-1.45.74-.56,1.12,1.47.78-.61-1.52-1.94.73-.55,1.52,1.92.97-.74-2.93-3.78-8.25,6.4-.76-1.02L22.88.11l4.48,5.78-9.22,7.17-2.18-2.89.74-.55ZM11.45,5.31l9.58,13.23c.06.1.12.21.14.32l.79,4.76c.02.07.02.15,0,.22v.02c-.03.18-.14.36-.3.48-.15.12-.36.16-.55.13-.08-.01-.15-.04-.23-.07l-4.26-2.24c-.11-.06-.19-.12-.27-.22L6.76,8.71l4.69-3.4ZM9.91,3.46l-4.7,3.4-.49-.68,4.7-3.4.48.68ZM6.32.04c-1.61-.25-3.11.84-3.37,2.44-.1.65.03,1.29.3,1.82l.98,1.36,4.71-3.42-.99-1.35c-.41-.45-.99-.75-1.64-.85h0ZM10.84,4.75l-4.68,3.4-.5-.67,4.7-3.4.49.67ZM9.12,8.25l7.93,10.93,1.34-.98-7.92-10.94-1.35.99ZM1.78,18.08l2.92,3.77,1.21-.95-1.6-2.22.73-.57,1.6,2.22.79-.61-.98-1.4.72-.57.98,1.41,1.08-.84-1.86-2.66.72-.57,1.87,2.68.79-.6-.57-.78.72-.56,1.32,1.8-7.74,6.01L0,17.85l7.82-6.07.78,1.01-6.82,5.29ZM20.3,19.8l-2.67,1.9,3.14,1.61-.47-3.5Z"/>
  </g>
</svg>