<?xml version="1.0" encoding="UTF-8"?>
<svg id="Layer_2" data-name="Layer 2" xmlns="http://www.w3.org/2000/svg" viewBox="0 0 27.35 22.78">
  <defs>
    <style>
      .cls-1 {
        fill-rule: evenodd;
      }
    </style>
  </defs>
  <g id="_1" data-name="1">
    <path class="cls-1" d="M10.34,16.57h6.72c-.61-.9-.95-1.95-.95-3.12,0-.35.03-.68.08-1H5.8c-.23,0-.43-.13-.43-.29v-.99c0-.15.19-.29.43-.29h10.92c.22-.41.48-.78.8-1.14H5.8c-.23,0-.43-.12-.43-.28v-1c0-.17.19-.29.43-.29h13.9c.8-.34,1.67-.54,2.58-.54s1.77.19,2.56.54v-4.03c0-2.07-2.07-4.14-4.15-4.14H4.13C2.06,0,0,2.07,0,4.14v8.28c0,2.07,2.06,4.15,4.13,4.15v6.21l6.21-6.21ZM22.28,18.18h0c-2.81,0-5.09-2.12-5.09-4.73s2.28-4.72,5.09-4.72,5.07,2.12,5.07,4.72-2.29,4.73-5.07,4.73h0ZM21.43,13.79h0l-1.3-1.2c-.14-.14-.33-.22-.54-.22s-.4.08-.55.22l-.4.37c-.29.28-.29.73,0,1.01l2.27,2.09c.15.15.35.22.55.22.22,0,.42-.07.55-.24l3.93-3.86c.29-.28.27-.73-.03-1l-.42-.37c-.17-.12-.35-.19-.57-.19-.2.01-.4.08-.54.22l-2.96,2.94ZM3.9,2.02h17.04c.11,0,.21.08.21.21v.75c0,.12-.1.21-.21.21H3.9c-.12,0-.21-.08-.21-.21v-.75c0-.12.08-.21.21-.21h0ZM2.05,10.88h1.97s.06.14.06.29v.99c0,.17-.03.29-.06.29h-1.97s-.06-.13-.06-.29v-.99c0-.15.03-.29.06-.29h0ZM2.05,8.17h1.97s.06.12.06.29v1c0,.15-.03.28-.06.28h-1.97s-.06-.12-.06-.28v-1c0-.17.03-.29.06-.29h0ZM2.05,5.46h1.97s.06.13.06.28v1.01c0,.16-.03.28-.06.28h-1.97s-.06-.12-.06-.28v-1.01c0-.15.03-.28.06-.28h0ZM5.8,5.46h16.62c.23,0,.41.13.41.28v1.01c0,.16-.18.28-.41.28H5.8c-.23,0-.43-.12-.43-.28v-1.01c0-.15.19-.28.43-.28h0Z"/>
  </g>
</svg>