<?xml version="1.0" encoding="UTF-8"?>
<svg id="Layer_2" data-name="Layer 2" xmlns="http://www.w3.org/2000/svg" xmlns:xlink="http://www.w3.org/1999/xlink" viewBox="0 0 70.95 70.95">
  <defs>
    <style>
      .cls-1 {
        opacity: .14;
      }

      .cls-2 {
        fill: url(#linear-gradient-2);
      }

      .cls-3 {
        opacity: .21;
      }

      .cls-4 {
        opacity: .42;
      }

      .cls-5 {
        opacity: .55;
      }

      .cls-6 {
        opacity: .48;
      }

      .cls-7 {
        opacity: .35;
      }

      .cls-8 {
        opacity: .08;
      }

      .cls-9 {
        opacity: .28;
      }

      .cls-10 {
        opacity: 0;
      }

      .cls-11 {
        fill: url(#linear-gradient);
      }
    </style>
    <linearGradient id="linear-gradient" x1="8.67" y1="8.76" x2="57.1" y2="57.19" gradientUnits="userSpaceOnUse">
      <stop offset=".01" stop-color="#ff870a"/>
      <stop offset="1" stop-color="#ffdb4a"/>
    </linearGradient>
    <linearGradient id="linear-gradient-2" x1="9.6" y1="9.61" x2="55.94" y2="55.94" gradientUnits="userSpaceOnUse">
      <stop offset="0" stop-color="#2c2e2c"/>
      <stop offset=".99" stop-color="#000"/>
    </linearGradient>
  </defs>
  <g id="Layer_1-2" data-name="Layer 1">
    <g>
      <path class="cls-11" d="M63.85,32.77c0,17.21-13.95,31.16-31.16,31.16S1.52,49.98,1.52,32.77,15.47,1.61,32.68,1.61s31.16,13.95,31.16,31.16Z"/>
      <g>
        <path class="cls-10" d="M21.97,39.06c0,.93.76,1.69,1.69,1.69h5.85c.06.12.11.23.17.35.78,1.66,1.4,2.97,1.4,4.88,0,2.5-1.39,4.59-4.26,6.38-.64.4-.94,1.17-.73,1.9.21.72.87,1.22,1.62,1.22h19.74c.93,0,1.69-.76,1.69-1.69s-.76-1.69-1.69-1.69h-15.2c1.46-1.8,2.2-3.85,2.2-6.12,0-2.13-.56-3.75-1.22-5.23h6c.93,0,1.69-.76,1.69-1.69s-.76-1.69-1.69-1.69h-7.49c-.49-1.34-.86-2.9-.86-5,0-4.17,2.7-8.66,8.62-8.66,5.26,0,7.07,3.78,7.15,3.96.38.85,1.37,1.23,2.22.86.86-.37,1.25-1.37.87-2.22-.11-.25-2.7-5.98-10.25-5.98s-12,6.05-12,12.04c0,2.02.28,3.63.67,5h-4.52c-.93,0-1.69.76-1.69,1.69ZM38.18,5.41c-11.65,0-22.53,6.27-28.38,16.37-1.06,1.83-1.95,3.78-2.64,5.79-.3.88.17,1.84,1.05,2.15.88.3,1.84-.17,2.14-1.05.62-1.8,1.41-3.55,2.37-5.19,5.24-9.05,15-14.68,25.45-14.68,16.21,0,29.4,13.19,29.4,29.39s-13.19,29.39-29.4,29.39-29.39-13.19-29.39-29.39c0-.93-.76-1.69-1.69-1.69s-1.69.76-1.69,1.69c0,18.07,14.7,32.77,32.77,32.77s32.77-14.7,32.77-32.77S56.25,5.41,38.18,5.41Z"/>
        <path class="cls-8" d="M21.34,38.44c0,.93.76,1.69,1.69,1.69h5.85c.06.12.11.23.17.35.8,1.65,1.4,2.97,1.4,4.88,0,2.5-1.39,4.59-4.26,6.38-.64.4-.94,1.17-.73,1.9.21.72.87,1.22,1.62,1.22h19.74c.93,0,1.69-.76,1.69-1.69s-.76-1.69-1.69-1.69h-15.2c1.46-1.8,2.2-3.85,2.2-6.12,0-2.13-.56-3.75-1.22-5.23h6c.93,0,1.69-.76,1.69-1.69s-.76-1.69-1.69-1.69h-7.49c-.49-1.34-.86-2.9-.86-5,0-4.17,2.7-8.66,8.62-8.66,5.26,0,7.07,3.78,7.15,3.96.38.85,1.37,1.23,2.22.86.86-.37,1.25-1.37.87-2.22-.11-.25-2.7-5.98-10.25-5.98s-12,6.05-12,12.04c0,2.02.28,3.63.67,5h-4.52c-.93,0-1.69.76-1.69,1.69ZM37.55,4.78c-11.65,0-22.53,6.27-28.38,16.37-1.06,1.83-1.95,3.78-2.64,5.79-.3.88.17,1.84,1.05,2.15.88.3,1.84-.17,2.14-1.05.62-1.8,1.41-3.55,2.37-5.19,5.24-9.05,15-14.68,25.45-14.68,16.21,0,29.4,13.19,29.4,29.39s-13.19,29.39-29.4,29.39-29.39-13.19-29.39-29.39c0-.93-.76-1.69-1.69-1.69s-1.69.76-1.69,1.69c0,18.07,14.7,32.77,32.77,32.77s32.77-14.7,32.77-32.77S55.63,4.78,37.55,4.78Z"/>
        <path class="cls-1" d="M20.72,37.81c0,.93.76,1.69,1.69,1.69h5.85c.06.12.11.23.17.35.8,1.65,1.4,2.97,1.4,4.88,0,2.5-1.39,4.59-4.26,6.38-.64.4-.94,1.17-.73,1.9.21.72.87,1.22,1.62,1.22h19.74c.93,0,1.69-.76,1.69-1.69s-.76-1.69-1.69-1.69h-15.2c1.46-1.8,2.2-3.85,2.2-6.12,0-2.13-.56-3.75-1.22-5.23h6c.93,0,1.69-.76,1.69-1.69s-.76-1.69-1.69-1.69h-7.49c-.49-1.34-.86-2.9-.86-5,0-4.17,2.7-8.66,8.62-8.66,5.26,0,7.07,3.78,7.15,3.96.38.85,1.37,1.23,2.22.86.86-.37,1.25-1.37.87-2.22-.11-.25-2.7-5.98-10.25-5.98s-12,6.05-12,12.04c0,2.02.28,3.63.67,5h-4.52c-.93,0-1.69.76-1.69,1.69ZM36.93,4.16c-11.65,0-22.53,6.27-28.38,16.37-1.06,1.83-1.95,3.78-2.64,5.79-.3.88.17,1.84,1.05,2.15.88.3,1.84-.17,2.14-1.05.62-1.8,1.41-3.55,2.37-5.19,5.24-9.05,15-14.68,25.45-14.68,16.21,0,29.4,13.19,29.4,29.39s-13.19,29.39-29.4,29.39S7.54,53.14,7.54,36.93c0-.93-.76-1.69-1.69-1.69s-1.69.76-1.69,1.69c0,18.07,14.7,32.77,32.77,32.77s32.77-14.7,32.77-32.77S55,4.16,36.93,4.16Z"/>
        <path class="cls-3" d="M20.09,37.19c0,.93.76,1.69,1.69,1.69h5.85c.06.12.11.23.17.35.8,1.65,1.4,2.97,1.4,4.88,0,2.5-1.39,4.59-4.26,6.38-.64.4-.94,1.17-.73,1.9.21.72.87,1.22,1.62,1.22h19.74c.93,0,1.69-.76,1.69-1.69s-.76-1.69-1.69-1.69h-15.2c1.46-1.8,2.2-3.85,2.2-6.12,0-2.13-.56-3.75-1.22-5.23h6c.93,0,1.69-.76,1.69-1.69s-.76-1.69-1.69-1.69h-7.49c-.49-1.34-.86-2.9-.86-5,0-4.17,2.7-8.66,8.62-8.66,5.26,0,7.07,3.78,7.15,3.96.38.85,1.37,1.23,2.22.86.86-.37,1.25-1.37.87-2.22-.11-.25-2.7-5.98-10.25-5.98s-12,6.05-12,12.04c0,2.02.28,3.63.67,5h-4.52c-.93,0-1.69.76-1.69,1.69ZM36.3,3.53c-11.65,0-22.53,6.27-28.38,16.37-1.06,1.83-1.95,3.78-2.64,5.79-.3.88.17,1.84,1.05,2.15.88.3,1.84-.17,2.14-1.05.62-1.8,1.41-3.55,2.37-5.19,5.24-9.05,15-14.68,25.45-14.68,16.21,0,29.4,13.19,29.4,29.39s-13.19,29.39-29.4,29.39S6.91,52.51,6.91,36.31c0-.93-.76-1.69-1.69-1.69s-1.69.76-1.69,1.69c0,18.07,14.7,32.77,32.77,32.77s32.77-14.7,32.77-32.77S54.38,3.53,36.3,3.53Z"/>
        <path class="cls-9" d="M19.47,36.56c0,.93.76,1.69,1.69,1.69h5.85c.06.12.11.23.17.35.8,1.65,1.4,2.97,1.4,4.88,0,2.5-1.39,4.59-4.26,6.38-.64.4-.94,1.17-.73,1.9.21.72.87,1.22,1.62,1.22h19.74c.93,0,1.69-.76,1.69-1.69s-.76-1.69-1.69-1.69h-15.2c1.46-1.8,2.2-3.85,2.2-6.12,0-2.13-.56-3.75-1.22-5.23h6c.93,0,1.69-.76,1.69-1.69s-.76-1.69-1.69-1.69h-7.49c-.49-1.34-.86-2.9-.86-5,0-4.17,2.7-8.66,8.62-8.66,5.26,0,7.07,3.78,7.15,3.96.38.85,1.37,1.23,2.22.86.86-.37,1.25-1.37.87-2.22-.11-.25-2.7-5.98-10.25-5.98s-12,6.05-12,12.04c0,2.02.28,3.63.67,5h-4.52c-.93,0-1.69.76-1.69,1.69ZM35.68,2.91c-11.65,0-22.53,6.27-28.38,16.37-1.06,1.83-1.95,3.78-2.64,5.79-.3.88.17,1.84,1.05,2.15.88.3,1.84-.17,2.14-1.05.62-1.8,1.41-3.55,2.37-5.19,5.24-9.05,15-14.68,25.45-14.68,16.21,0,29.4,13.19,29.4,29.39s-13.19,29.39-29.4,29.39S6.29,51.89,6.29,35.68c0-.93-.76-1.69-1.69-1.69s-1.69.76-1.69,1.69c0,18.07,14.7,32.77,32.77,32.77s32.77-14.7,32.77-32.77S53.75,2.91,35.68,2.91Z"/>
        <path class="cls-7" d="M18.84,35.94c0,.93.76,1.69,1.69,1.69h5.85c.06.12.11.23.17.35.8,1.65,1.4,2.97,1.4,4.88,0,2.5-1.39,4.59-4.26,6.38-.64.4-.94,1.17-.73,1.9.21.72.87,1.22,1.62,1.22h19.74c.93,0,1.69-.76,1.69-1.69s-.76-1.69-1.69-1.69h-15.2c1.46-1.8,2.2-3.85,2.2-6.12,0-2.13-.56-3.75-1.22-5.23h6c.93,0,1.69-.76,1.69-1.69s-.76-1.69-1.69-1.69h-7.49c-.49-1.34-.86-2.9-.86-5,0-4.17,2.7-8.66,8.62-8.66,5.26,0,7.07,3.78,7.15,3.96.38.85,1.37,1.23,2.22.86.86-.37,1.25-1.37.87-2.22-.11-.25-2.7-5.98-10.25-5.98s-12,6.05-12,12.04c0,2.02.28,3.63.67,5h-4.52c-.93,0-1.69.76-1.69,1.69ZM35.05,2.28c-11.65,0-22.53,6.27-28.38,16.37-1.06,1.83-1.95,3.78-2.64,5.79-.3.88.17,1.84,1.05,2.15.88.3,1.84-.17,2.14-1.05.62-1.8,1.41-3.55,2.37-5.19,5.24-9.05,15-14.68,25.45-14.68,16.21,0,29.4,13.19,29.4,29.4s-13.19,29.39-29.4,29.39S5.66,51.26,5.66,35.06c0-.93-.76-1.69-1.69-1.69s-1.69.76-1.69,1.69c0,18.07,14.7,32.77,32.77,32.77s32.77-14.7,32.77-32.77S53.13,2.28,35.05,2.28Z"/>
        <path class="cls-4" d="M18.22,35.31c0,.93.76,1.69,1.69,1.69h5.85c.06.12.11.23.17.35.8,1.65,1.4,2.97,1.4,4.88,0,2.5-1.39,4.59-4.26,6.38-.64.4-.94,1.17-.73,1.9.21.72.87,1.22,1.62,1.22h19.74c.93,0,1.69-.76,1.69-1.69s-.76-1.69-1.69-1.69h-15.2c1.46-1.8,2.2-3.85,2.2-6.12,0-2.13-.56-3.75-1.22-5.23h6c.93,0,1.69-.76,1.69-1.69s-.76-1.69-1.69-1.69h-7.49c-.49-1.34-.86-2.9-.86-5,0-4.17,2.7-8.66,8.62-8.66,5.26,0,7.07,3.78,7.15,3.96.38.85,1.37,1.23,2.22.86.86-.37,1.25-1.37.87-2.22-.11-.25-2.7-5.98-10.25-5.98s-12,6.05-12,12.04c0,2.02.28,3.63.67,5h-4.52c-.93,0-1.69.76-1.69,1.69ZM34.43,1.66C22.78,1.66,11.9,7.93,6.05,18.02c-1.06,1.83-1.95,3.78-2.64,5.79-.3.88.17,1.84,1.05,2.15.88.3,1.84-.17,2.14-1.05.62-1.8,1.41-3.55,2.37-5.19,5.24-9.05,15-14.68,25.45-14.68,16.21,0,29.4,13.19,29.4,29.4s-13.19,29.39-29.4,29.39S5.04,50.64,5.04,34.43c0-.93-.76-1.69-1.69-1.69s-1.69.76-1.69,1.69c0,18.07,14.7,32.77,32.77,32.77s32.77-14.7,32.77-32.77S52.5,1.66,34.43,1.66Z"/>
        <path class="cls-6" d="M17.59,34.69c0,.93.76,1.69,1.69,1.69h5.85c.06.12.11.23.17.35.8,1.65,1.4,2.97,1.4,4.88,0,2.5-1.39,4.59-4.26,6.38-.64.4-.94,1.17-.73,1.9.21.72.87,1.22,1.62,1.22h19.74c.93,0,1.69-.76,1.69-1.69s-.76-1.69-1.69-1.69h-15.2c1.46-1.8,2.2-3.85,2.2-6.12,0-2.13-.56-3.75-1.22-5.23h6c.93,0,1.69-.76,1.69-1.69s-.76-1.69-1.69-1.69h-7.49c-.49-1.34-.86-2.9-.86-5,0-4.17,2.7-8.66,8.62-8.66,5.26,0,7.07,3.78,7.15,3.96.38.85,1.37,1.23,2.22.86.86-.37,1.25-1.37.87-2.22-.11-.25-2.7-5.98-10.25-5.98s-12,6.05-12,12.04c0,2.02.28,3.63.67,5h-4.52c-.93,0-1.69.76-1.69,1.69ZM33.8,1.03C22.15,1.03,11.28,7.3,5.43,17.4c-1.06,1.83-1.95,3.78-2.64,5.79-.3.88.17,1.84,1.05,2.15.88.3,1.84-.17,2.14-1.05.62-1.8,1.41-3.55,2.37-5.19,5.24-9.05,15-14.68,25.45-14.68,16.21,0,29.4,13.19,29.4,29.4s-13.19,29.39-29.4,29.39S4.41,50.01,4.41,33.81c0-.93-.76-1.69-1.69-1.69s-1.69.76-1.69,1.69c0,18.07,14.7,32.77,32.77,32.77s32.77-14.7,32.77-32.77S51.88,1.03,33.8,1.03Z"/>
        <path class="cls-5" d="M16.97,34.06c0,.93.76,1.69,1.69,1.69h5.85c.06.12.11.23.17.35.78,1.66,1.4,2.97,1.4,4.88,0,2.5-1.39,4.59-4.26,6.38-.64.4-.94,1.17-.73,1.9.21.72.87,1.22,1.62,1.22h19.74c.93,0,1.69-.76,1.69-1.69s-.76-1.69-1.69-1.69h-15.2c1.46-1.8,2.2-3.85,2.2-6.12,0-2.13-.56-3.75-1.22-5.23h6c.93,0,1.69-.76,1.69-1.69s-.76-1.69-1.69-1.69h-7.49c-.49-1.34-.86-2.9-.86-5,0-4.17,2.7-8.66,8.62-8.66,5.26,0,7.07,3.78,7.15,3.96.38.85,1.37,1.23,2.22.86.86-.37,1.25-1.37.87-2.22-.11-.25-2.7-5.98-10.25-5.98s-12,6.05-12,12.04c0,2.02.28,3.63.67,5h-4.52c-.93,0-1.69.76-1.69,1.69ZM33.18.41C21.53.41,10.65,6.68,4.8,16.77c-1.06,1.83-1.95,3.78-2.64,5.79-.3.88.17,1.84,1.05,2.15.88.3,1.84-.17,2.14-1.05.62-1.8,1.41-3.55,2.37-5.19C12.97,9.41,22.73,3.79,33.18,3.79c16.21,0,29.4,13.19,29.4,29.4s-13.19,29.39-29.4,29.39S3.79,49.39,3.79,33.18c0-.93-.76-1.69-1.69-1.69s-1.69.76-1.69,1.69c0,18.07,14.7,32.77,32.77,32.77s32.77-14.7,32.77-32.77S51.25.41,33.18.41Z"/>
      </g>
      <path class="cls-2" d="M32.77,0C21.12,0,10.25,6.27,4.4,16.37c-1.06,1.83-1.95,3.78-2.64,5.79-.3.88.17,1.84,1.05,2.15.88.3,1.84-.17,2.14-1.05.62-1.8,1.42-3.54,2.37-5.19C12.57,9.01,22.32,3.38,32.77,3.38c16.21,0,29.4,13.19,29.4,29.39s-13.19,29.39-29.4,29.39S3.38,48.98,3.38,32.78c0-.93-.76-1.69-1.69-1.69s-1.69.76-1.69,1.69c0,18.07,14.7,32.77,32.77,32.77s32.77-14.7,32.77-32.77S50.85,0,32.77,0ZM16.56,33.66c0,.93.76,1.69,1.69,1.69h5.85c.06.12.11.23.17.35.78,1.66,1.4,2.97,1.4,4.88,0,2.5-1.39,4.59-4.26,6.38-.64.4-.94,1.17-.73,1.9.21.72.87,1.22,1.62,1.22h19.74c.93,0,1.69-.76,1.69-1.69s-.76-1.69-1.69-1.69h-15.2c1.46-1.8,2.2-3.85,2.2-6.12,0-2.13-.56-3.75-1.22-5.23h6c.93,0,1.69-.76,1.69-1.69s-.76-1.69-1.69-1.69h-7.49c-.49-1.34-.86-2.9-.86-5,0-4.17,2.7-8.66,8.62-8.66,5.26,0,7.07,3.78,7.15,3.96.38.85,1.37,1.23,2.22.86.86-.37,1.25-1.37.87-2.22-.11-.25-2.7-5.98-10.25-5.98s-12,6.05-12,12.04c0,2.02.28,3.63.67,5h-4.52c-.93,0-1.69.76-1.69,1.69Z"/>
    </g>
  </g>
</svg>