<?xml version="1.0" encoding="UTF-8"?>
<svg id="Layer_2" data-name="Layer 2" xmlns="http://www.w3.org/2000/svg" viewBox="0 0 25.08 27.36">
  <defs>
    <style>
      .cls-1 {
        fill-rule: evenodd;
      }
    </style>
  </defs>
  <g id="_1" data-name="1">
    <path class="cls-1" d="M25.08,7.93l-.28.23v.03l-3.38,1.94v-1.52h0l-1.09-.43c.06-.15.1-.32.09-.48v-3.46l-.23-.17c-.27-.21-.55-.36-.84-.48l.24-.17-1.2-.5,6.69,2.77v2.23ZM11.08,7.69v-2.13c-.39-.45-2.65-2.8-5-1.04v3.22s-.03.27.23.48c.24.21.64.32,1.2.32.85,0,2.03-.37,3.58-.84h0ZM11.09,8.04l-2.04,2.81,1.56-.05.43,1.5,1.97-2.73,1.97,2.73.43-1.5,1.56.05-2.08-2.88c-.02.26-.25.47-.51.47h-2.81c-.25,0-.44-.18-.5-.4h0ZM13.01,8.07h1.39c.08,0,.14-.06.14-.14v-2.8c0-.09-.07-.15-.14-.15h-2.81c-.08,0-.15.06-.15.15v2.8c0,.08.06.14.15.14h1.42ZM19.86,4.52c-2.28-1.69-4.46.43-4.96.97v2.22c1.52.45,2.68.82,3.52.82.56,0,.96-.11,1.2-.32.26-.21.24-.45.24-.48v-3.22h0ZM24.8,8.99v9.82l-10.33,8.54-6.1-2.96.02-11.22,5.48,1.89.13.04.13-.06,4.82-2.74v11.35l2.47-2.04v-10.71l3.38-1.92ZM8.39,12.5v-1.07l1.81-.07.57,1.96-2.38-.82ZM16.79,9.66l2.16.9v.97l-5,2.88-3.01-1.04,2.08-2.87,2.19,3.02.63-2.17,2.25.09-1.29-1.79ZM5.91,23.2l-5.34-2.6v-10.11l5.35,1.84v10.87ZM.57,9.81h0s-.57-.27-.57-.27v-1.96L6.02,3.54l-1.48.99.99.41v2.76c-.03.36.15.7.42.93.42.36,1.03.44,1.56.44h.09l-1.61,1.14-.05-.02v.06h0v1.39l-5.35-1.84ZM6.97,2.92L11.31,0l5.74,2.37-2.89,2.05h-2.58c-.16,0-.3.05-.42.15l-.58-.24c-.76-.59-1.65-.96-2.54-1l-1.06-.42Z"/>
  </g>
</svg>