<?xml version="1.0" encoding="UTF-8"?>
<svg xmlns="http://www.w3.org/2000/svg" xmlns:xlink="http://www.w3.org/1999/xlink" viewBox="0 0 86 64">
  <defs>
    <style>
      .cls-1 {
        fill: #4d4d4d;
      }

      .cls-1, .cls-2, .cls-3, .cls-4 {
        stroke-miterlimit: 10;
      }

      .cls-1, .cls-3, .cls-4 {
        stroke: #999;
      }

      .cls-2 {
        fill: #fff;
        mix-blend-mode: soft-light;
        opacity: .8;
        stroke: #fff;
      }

      .cls-3 {
        fill: url(#linear-gradient);
      }

      .cls-5 {
        isolation: isolate;
      }

      .cls-4 {
        fill: url(#linear-gradient-2);
      }
    </style>
    <linearGradient id="linear-gradient" x1="48.5" y1="52.09" x2="38.85" y2="68.8" gradientUnits="userSpaceOnUse">
      <stop offset="0" stop-color="#e5e2df"/>
      <stop offset="0" stop-color="#f1efed"/>
      <stop offset="0" stop-color="#fff"/>
      <stop offset=".13" stop-color="#f0f0f0"/>
      <stop offset=".37" stop-color="#c9cacb"/>
      <stop offset=".52" stop-color="#adaeb0"/>
      <stop offset=".67" stop-color="#a3a4a6"/>
      <stop offset=".91" stop-color="#8b8b8c"/>
      <stop offset="1" stop-color="gray"/>
    </linearGradient>
    <linearGradient id="linear-gradient-2" x1="64.02" y1="-9.4" x2="21.98" y2="63.4" xlink:href="#linear-gradient"/>
  </defs>
  <g class="cls-5">
    <g id="Layer_2" data-name="Layer 2">
      <g id="Objects">
        <g>
          <g>
            <polygon class="cls-3" points="35.52 52.5 29.67 63.5 54.64 63.5 49.2 52.5 35.52 52.5"/>
            <path class="cls-4" d="M6.42.5h73.17c3.27,0,5.92,2.65,5.92,5.92v41.17c0,3.26-2.65,5.92-5.92,5.92H6.42c-3.27,0-5.92-2.65-5.92-5.92V6.42C.5,3.15,3.15.5,6.42.5Z"/>
            <rect class="cls-1" x="6.5" y="6.5" width="72" height="36"/>
          </g>
          <path class="cls-2" d="M.5,47.08V5.92C.5,2.65,2.54.5,5.81.5h73.17C82.24.5.5,50.35.5,47.08Z"/>
        </g>
      </g>
    </g>
  </g>
</svg>