<?xml version="1.0" encoding="UTF-8"?>
<svg xmlns="http://www.w3.org/2000/svg" xmlns:xlink="http://www.w3.org/1999/xlink" viewBox="0 0 49 69">
  <defs>
    <style>
      .cls-1 {
        fill: #666;
      }

      .cls-1, .cls-2, .cls-3, .cls-4 {
        stroke-miterlimit: 10;
      }

      .cls-1, .cls-2, .cls-4 {
        stroke: #ce0543;
      }

      .cls-2 {
        fill: url(#linear-gradient-2);
      }

      .cls-3 {
        fill: #fff;
        mix-blend-mode: soft-light;
        opacity: .8;
        stroke: #fff;
      }

      .cls-5 {
        isolation: isolate;
      }

      .cls-4 {
        fill: url(#linear-gradient);
      }
    </style>
    <linearGradient id="linear-gradient" x1=".5" y1="34.5" x2="48.5" y2="34.5" gradientUnits="userSpaceOnUse">
      <stop offset="0" stop-color="#f2b3c3"/>
      <stop offset=".51" stop-color="#e84f7b"/>
      <stop offset=".69" stop-color="#d13769"/>
      <stop offset=".86" stop-color="#c1275d"/>
      <stop offset="1" stop-color="#bc2259"/>
    </linearGradient>
    <linearGradient id="linear-gradient-2" x1="19.5" y1="60.5" x2="30.5" y2="60.5" xlink:href="#linear-gradient"/>
  </defs>
  <g class="cls-5">
    <g id="Layer_2" data-name="Layer 2">
      <g id="Objects">
        <g>
          <rect class="cls-4" x=".5" y=".5" width="48" height="68" rx="6.45" ry="6.45"/>
          <rect class="cls-1" x="5.5" y="4.5" width="40" height="47" rx="5.36" ry="5.36"/>
          <path class="cls-2" d="M30.5,60.5c0,1.1-.9,2-2,2h-7c-1.1,0-2-.9-2-2h0c0-1.1.9-2,2-2h7c1.1,0,2,.9,2,2h0Z"/>
          <path class="cls-3" d="M.5,61.73V6.49C.5,2.93,3.05.5,6.61.5h34.99C45.16.5.5,65.29.5,61.73Z"/>
        </g>
      </g>
    </g>
  </g>
</svg>