<?xml version="1.0" encoding="UTF-8"?>
<svg id="Layer_2" data-name="Layer 2" xmlns="http://www.w3.org/2000/svg" xmlns:xlink="http://www.w3.org/1999/xlink" viewBox="0 0 78.79 78.37">
  <defs>
    <style>
      .cls-1 {
        opacity: .14;
      }

      .cls-2 {
        fill: url(#linear-gradient-2);
      }

      .cls-3 {
        opacity: .21;
      }

      .cls-4 {
        opacity: .42;
      }

      .cls-5 {
        opacity: .55;
      }

      .cls-6 {
        opacity: .48;
      }

      .cls-7 {
        opacity: .35;
      }

      .cls-8 {
        opacity: .08;
      }

      .cls-9 {
        opacity: .28;
      }

      .cls-10 {
        opacity: 0;
      }

      .cls-11 {
        fill: url(#linear-gradient);
      }
    </style>
    <linearGradient id="linear-gradient" x1="9.68" y1="9.83" x2="67.71" y2="67.86" gradientUnits="userSpaceOnUse">
      <stop offset="0" stop-color="#79949c"/>
      <stop offset="1" stop-color="#b6c7c8"/>
    </linearGradient>
    <linearGradient id="linear-gradient-2" x1="9.69" y1="9.7" x2="67.81" y2="67.81" gradientUnits="userSpaceOnUse">
      <stop offset="0" stop-color="#2c2e2c"/>
      <stop offset=".99" stop-color="#000"/>
    </linearGradient>
  </defs>
  <g id="Layer_1-2" data-name="Layer 1">
    <g>
      <path class="cls-11" d="M10.38,25.51l-7.03-7.03s-4.67,14.12,2.78,23.81c7.44,9.69,17.49,13.71,32.14,9.45,4.31,4.31,14.47,14.47,16.72,16.72,2.25,2.25,5.61,3.6,8.57.65l6.68-6.68c1.3-1.3,2.25-4.96-1.24-8.45-3.49-3.49-17.01-17.01-17.01-17.01,0,0,3.78-12.52-.47-20.08-4.25-7.56-15.36-19.14-32.37-13.47,1.18,1.18,8.39,9.22,9.81,11.34,1.42,2.13.71,4.14-2.01,6.85-2.72,2.72-4.14,4.14-6.68,6.68-2.54,2.54-5.55,1.53-9.87-2.78Z"/>
      <g>
        <path class="cls-10" d="M67.64,65.47c0-.96-.78-1.74-1.75-1.74s-1.75.78-1.75,1.74.78,1.75,1.75,1.75,1.75-.78,1.75-1.75ZM76.69,59.56l-17.43-17.43c.03-.1.07-.21.11-.32,3.31-10.01.74-20.85-6.71-28.3-5.42-5.42-12.62-8.3-20.29-8.1-2.17.05-4.34.37-6.44.92-.9.24-1.82.54-2.75.89-.53.2-.93.66-1.05,1.22-.12.56.05,1.14.46,1.55l9.66,9.66c1.49,1.49,1.49,3.91,0,5.4l-7.2,7.2c-1.49,1.49-3.91,1.49-5.4,0l-2.88-2.88c-.66-.66-1.73-.66-2.39,0-.66.66-.66,1.73,0,2.39l2.88,2.88c2.8,2.8,7.37,2.8,10.17,0l7.2-7.2c2.8-2.8,2.81-7.37,0-10.17l-7.71-7.71c1.8-.47,3.66-.73,5.52-.78,6.72-.16,13.05,2.35,17.81,7.11,6.54,6.54,8.79,16.06,5.88,24.86-.29.89-.38,1.1-.38,1.1-.04.09-.08.21-.1.3-.14.57.03,1.18.44,1.6l18.19,18.19c.72.72,1.12,1.68,1.12,2.7s-.4,1.98-1.12,2.7l-6.53,6.52c-.72.72-1.68,1.12-2.7,1.12s-1.98-.4-2.7-1.12l-16.32-16.32c2.4-1.28,4.63-2.92,6.6-4.89.66-.66.66-1.73,0-2.39-.66-.66-1.73-.66-2.39,0-4.59,4.59-10.7,7.12-17.19,7.12s-12.6-2.53-17.19-7.12c-6.77-6.77-8.93-16.92-5.51-25.87.33-.87-.1-1.85-.98-2.18-.87-.34-1.85.1-2.18.97-3.9,10.19-1.43,21.76,6.28,29.47,5.23,5.23,12.18,8.11,19.58,8.11,3.36,0,6.62-.6,9.68-1.73l17.23,17.22c1.36,1.36,3.16,2.11,5.09,2.11h0c1.92,0,3.73-.75,5.09-2.11l6.52-6.52c1.36-1.36,2.11-3.17,2.11-5.09s-.75-3.73-2.11-5.09Z"/>
        <path class="cls-8" d="M67.01,64.84c0-.96-.78-1.74-1.75-1.74s-1.75.78-1.75,1.74.78,1.75,1.75,1.75,1.75-.78,1.75-1.75ZM76.06,58.94l-17.43-17.43c.03-.1.07-.21.11-.32,3.35-10,.74-20.85-6.71-28.3-5.42-5.42-12.62-8.3-20.29-8.1-2.17.05-4.34.37-6.44.92-.9.24-1.82.54-2.75.89-.53.2-.93.66-1.05,1.22-.12.56.05,1.14.46,1.55l9.66,9.66c1.49,1.49,1.49,3.91,0,5.4l-7.2,7.2c-1.49,1.49-3.91,1.49-5.4,0l-2.88-2.88c-.66-.66-1.73-.66-2.39,0-.66.66-.66,1.73,0,2.39l2.88,2.88c2.8,2.8,7.37,2.8,10.17,0l7.2-7.2c2.8-2.8,2.81-7.37,0-10.17l-7.71-7.71c1.8-.47,3.66-.73,5.52-.78,6.72-.16,13.05,2.35,17.81,7.11,6.54,6.54,8.79,16.06,5.88,24.86-.29.89-.38,1.1-.38,1.1-.05.09-.08.21-.1.3-.14.57.03,1.18.44,1.6l18.19,18.19c.72.72,1.12,1.68,1.12,2.7s-.4,1.98-1.12,2.7l-6.53,6.52c-.72.72-1.68,1.12-2.7,1.12s-1.98-.4-2.7-1.12l-16.32-16.32c2.4-1.28,4.63-2.92,6.6-4.89.66-.66.66-1.73,0-2.39-.66-.66-1.73-.66-2.39,0-4.59,4.59-10.7,7.12-17.19,7.12s-12.6-2.53-17.19-7.12c-6.77-6.77-8.93-16.92-5.51-25.87.33-.87-.1-1.85-.98-2.18-.87-.34-1.85.1-2.18.97-3.9,10.19-1.43,21.76,6.28,29.47,5.23,5.23,12.18,8.11,19.58,8.11,3.36,0,6.62-.6,9.68-1.73l17.23,17.22c1.36,1.36,3.16,2.11,5.09,2.11h0c1.92,0,3.73-.75,5.09-2.11l6.52-6.52c1.36-1.36,2.11-3.17,2.11-5.09s-.75-3.73-2.11-5.09Z"/>
        <path class="cls-1" d="M66.39,64.22c0-.96-.78-1.74-1.75-1.74s-1.75.78-1.75,1.74.78,1.75,1.75,1.75,1.75-.78,1.75-1.75ZM75.44,58.31l-17.43-17.43c.03-.1.07-.21.11-.32,3.35-10,.74-20.85-6.71-28.3-5.42-5.42-12.62-8.3-20.29-8.1-2.17.05-4.34.37-6.44.92-.9.24-1.82.54-2.75.89-.53.2-.93.66-1.05,1.22-.12.56.05,1.14.46,1.55l9.66,9.66c1.49,1.49,1.49,3.91,0,5.4l-7.2,7.2c-1.49,1.49-3.91,1.49-5.4,0l-2.88-2.88c-.66-.66-1.73-.66-2.39,0-.66.66-.66,1.73,0,2.39l2.88,2.88c2.8,2.8,7.37,2.8,10.17,0l7.2-7.2c2.8-2.8,2.81-7.37,0-10.17l-7.71-7.71c1.8-.47,3.66-.73,5.52-.78,6.72-.16,13.05,2.35,17.81,7.11,6.54,6.54,8.79,16.06,5.88,24.86-.29.89-.38,1.1-.38,1.1-.05.09-.08.21-.1.3-.14.57.03,1.18.44,1.6l18.19,18.19c.72.72,1.12,1.68,1.12,2.7s-.4,1.98-1.12,2.7l-6.53,6.52c-.72.72-1.68,1.12-2.7,1.12s-1.98-.4-2.7-1.12l-16.32-16.32c2.4-1.28,4.63-2.92,6.6-4.89.66-.66.66-1.73,0-2.39-.66-.66-1.73-.66-2.39,0-4.59,4.59-10.7,7.12-17.19,7.12s-12.6-2.53-17.19-7.12c-6.77-6.77-8.93-16.92-5.51-25.87.33-.87-.1-1.85-.98-2.18-.87-.34-1.85.1-2.18.97-3.9,10.19-1.43,21.76,6.28,29.47,5.23,5.23,12.18,8.11,19.58,8.11,3.36,0,6.62-.6,9.68-1.73l17.23,17.22c1.36,1.36,3.16,2.11,5.09,2.11h0c1.92,0,3.73-.75,5.09-2.11l6.52-6.52c1.36-1.36,2.11-3.17,2.11-5.09s-.75-3.73-2.11-5.09Z"/>
        <path class="cls-3" d="M65.76,63.59c0-.96-.78-1.74-1.75-1.74s-1.75.78-1.75,1.74.78,1.75,1.75,1.75,1.75-.78,1.75-1.75ZM74.81,57.69l-17.43-17.43c.03-.1.07-.21.11-.32,3.35-10,.74-20.85-6.71-28.3-5.42-5.42-12.62-8.3-20.29-8.1-2.17.05-4.34.37-6.44.92-.9.24-1.82.54-2.75.89-.53.2-.93.66-1.05,1.22-.12.56.05,1.14.46,1.55l9.66,9.66c1.49,1.49,1.49,3.91,0,5.4l-7.2,7.2c-1.49,1.49-3.91,1.49-5.4,0l-2.88-2.88c-.66-.66-1.73-.66-2.39,0-.66.66-.66,1.73,0,2.39l2.88,2.88c2.8,2.8,7.37,2.8,10.17,0l7.2-7.2c2.8-2.8,2.81-7.37,0-10.17l-7.71-7.71c1.8-.47,3.66-.73,5.52-.78,6.72-.16,13.05,2.35,17.81,7.11,6.54,6.54,8.79,16.06,5.88,24.86-.29.89-.38,1.1-.38,1.1-.05.09-.08.21-.1.3-.14.57.03,1.18.44,1.6l18.19,18.19c.72.72,1.12,1.68,1.12,2.7s-.4,1.98-1.12,2.7l-6.53,6.52c-.72.72-1.68,1.12-2.7,1.12s-1.98-.4-2.7-1.12l-16.32-16.32c2.4-1.28,4.63-2.92,6.6-4.89.66-.66.66-1.73,0-2.39-.66-.66-1.73-.66-2.39,0-4.59,4.59-10.7,7.12-17.19,7.12s-12.6-2.53-17.19-7.12c-6.77-6.77-8.93-16.92-5.51-25.87.33-.87-.1-1.85-.98-2.18-.87-.34-1.85.1-2.18.97-3.9,10.19-1.43,21.76,6.28,29.47,5.23,5.23,12.18,8.11,19.58,8.11,3.36,0,6.62-.6,9.68-1.73l17.23,17.22c1.36,1.36,3.16,2.11,5.09,2.11h0c1.92,0,3.73-.75,5.09-2.11l6.52-6.52c1.36-1.36,2.11-3.17,2.11-5.09s-.75-3.73-2.11-5.09Z"/>
        <path class="cls-9" d="M65.14,62.97c0-.96-.78-1.74-1.75-1.74s-1.75.78-1.75,1.74.78,1.75,1.75,1.75,1.75-.78,1.75-1.75ZM74.19,57.06l-17.43-17.43c.03-.1.07-.21.11-.32,3.35-10,.74-20.85-6.71-28.3-5.42-5.42-12.62-8.3-20.29-8.1-2.17.05-4.34.37-6.44.92-.9.24-1.82.54-2.75.89-.53.2-.93.66-1.05,1.22-.12.56.05,1.14.46,1.55l9.66,9.66c1.49,1.49,1.49,3.91,0,5.4l-7.2,7.2c-1.49,1.49-3.91,1.49-5.4,0l-2.88-2.88c-.66-.66-1.73-.66-2.39,0-.66.66-.66,1.73,0,2.39l2.88,2.88c2.8,2.8,7.37,2.8,10.17,0l7.2-7.2c2.8-2.8,2.81-7.37,0-10.17l-7.71-7.71c1.8-.47,3.66-.73,5.52-.78,6.72-.16,13.05,2.35,17.81,7.11,6.54,6.54,8.79,16.06,5.88,24.86-.29.89-.38,1.1-.38,1.1-.05.09-.08.21-.1.3-.14.57.03,1.18.44,1.6l18.19,18.19c.72.72,1.12,1.68,1.12,2.7s-.4,1.98-1.12,2.7l-6.53,6.52c-.72.72-1.68,1.12-2.7,1.12s-1.98-.4-2.7-1.12l-16.32-16.32c2.4-1.28,4.63-2.92,6.6-4.89.66-.66.66-1.73,0-2.39-.66-.66-1.73-.66-2.39,0-4.59,4.59-10.7,7.12-17.19,7.12s-12.6-2.53-17.19-7.12c-6.77-6.77-8.93-16.92-5.51-25.87.33-.87-.1-1.85-.98-2.18-.87-.34-1.85.1-2.18.97-3.9,10.19-1.43,21.76,6.28,29.47,5.23,5.23,12.18,8.11,19.58,8.11,3.36,0,6.62-.6,9.68-1.73l17.23,17.22c1.36,1.36,3.16,2.11,5.09,2.11h0c1.92,0,3.73-.75,5.09-2.11l6.52-6.52c1.36-1.36,2.11-3.17,2.11-5.09s-.75-3.73-2.11-5.09Z"/>
        <path class="cls-7" d="M64.51,62.34c0-.96-.78-1.74-1.75-1.74s-1.75.78-1.75,1.74.78,1.75,1.75,1.75,1.75-.78,1.75-1.75ZM73.56,56.44l-17.43-17.43c.03-.1.07-.21.11-.32,3.35-10,.74-20.85-6.71-28.3-5.42-5.42-12.62-8.3-20.29-8.1-2.17.05-4.34.37-6.44.92-.9.24-1.82.54-2.75.89-.53.2-.93.66-1.05,1.22-.12.56.05,1.14.46,1.55l9.66,9.66c1.49,1.49,1.49,3.91,0,5.4l-7.2,7.2c-1.49,1.49-3.91,1.49-5.4,0l-2.88-2.88c-.66-.66-1.73-.66-2.39,0-.66.66-.66,1.73,0,2.39l2.88,2.88c2.8,2.8,7.37,2.8,10.17,0l7.2-7.2c2.8-2.8,2.81-7.37,0-10.17l-7.71-7.71c1.8-.47,3.66-.73,5.52-.78,6.72-.16,13.05,2.35,17.81,7.11,6.54,6.54,8.79,16.06,5.88,24.86-.29.89-.38,1.1-.38,1.1-.05.09-.08.21-.1.3-.14.57.03,1.18.44,1.6l18.19,18.19c.72.72,1.12,1.68,1.12,2.7s-.4,1.98-1.12,2.7l-6.53,6.52c-.72.72-1.68,1.12-2.7,1.12s-1.98-.4-2.7-1.12l-16.32-16.32c2.4-1.28,4.63-2.92,6.6-4.89.66-.66.66-1.73,0-2.39-.66-.66-1.73-.66-2.39,0-4.59,4.59-10.7,7.12-17.19,7.12s-12.6-2.53-17.19-7.12c-6.77-6.77-8.93-16.92-5.51-25.87.33-.87-.1-1.85-.98-2.18-.87-.34-1.85.1-2.18.97-3.9,10.19-1.43,21.76,6.28,29.47,5.23,5.23,12.18,8.11,19.58,8.11,3.36,0,6.62-.6,9.68-1.73l17.23,17.22c1.36,1.36,3.16,2.11,5.09,2.11h0c1.92,0,3.73-.75,5.09-2.11l6.52-6.52c1.36-1.36,2.11-3.17,2.11-5.09s-.75-3.73-2.11-5.09Z"/>
        <path class="cls-4" d="M63.89,61.72c0-.96-.78-1.74-1.75-1.74s-1.75.78-1.75,1.74.78,1.75,1.75,1.75,1.75-.78,1.75-1.75ZM72.94,55.81l-17.43-17.43c.03-.1.07-.21.11-.32,3.35-10,.74-20.85-6.71-28.3C43.49,4.34,36.29,1.47,28.62,1.67c-2.17.05-4.34.37-6.44.92-.9.24-1.82.54-2.75.89-.53.2-.93.66-1.05,1.22-.12.56.05,1.14.46,1.55l9.66,9.66c1.49,1.49,1.49,3.91,0,5.4l-7.2,7.2c-1.49,1.49-3.91,1.49-5.4,0l-2.88-2.88c-.66-.66-1.73-.66-2.39,0-.66.66-.66,1.73,0,2.39l2.88,2.88c2.8,2.8,7.37,2.8,10.17,0l7.2-7.2c2.8-2.8,2.81-7.37,0-10.17l-7.71-7.71c1.8-.47,3.66-.73,5.52-.78,6.72-.16,13.05,2.35,17.81,7.11,6.54,6.54,8.79,16.06,5.88,24.86-.29.89-.38,1.1-.38,1.1-.05.09-.08.21-.1.3-.14.57.03,1.18.44,1.6l18.19,18.19c.72.72,1.12,1.68,1.12,2.7s-.4,1.98-1.12,2.7l-6.53,6.52c-.72.72-1.68,1.12-2.7,1.12s-1.98-.4-2.7-1.12l-16.32-16.32c2.4-1.28,4.63-2.92,6.6-4.89.66-.66.66-1.73,0-2.39-.66-.66-1.73-.66-2.39,0-4.59,4.59-10.7,7.12-17.19,7.12s-12.6-2.53-17.19-7.12c-6.77-6.77-8.93-16.92-5.51-25.87.33-.87-.1-1.85-.98-2.18-.87-.34-1.85.1-2.18.97-3.9,10.19-1.43,21.76,6.28,29.47,5.23,5.23,12.18,8.11,19.58,8.11,3.36,0,6.62-.6,9.68-1.73l17.23,17.22c1.36,1.36,3.16,2.11,5.09,2.11h0c1.92,0,3.73-.75,5.09-2.11l6.52-6.52c1.36-1.36,2.11-3.17,2.11-5.09s-.75-3.73-2.11-5.09Z"/>
        <path class="cls-6" d="M63.26,61.09c0-.96-.78-1.74-1.75-1.74s-1.75.78-1.75,1.74.78,1.75,1.75,1.75,1.75-.78,1.75-1.75ZM72.31,55.19l-17.43-17.43c.03-.1.07-.21.11-.32,3.35-10,.74-20.85-6.71-28.3C42.87,3.72,35.66.84,28,1.04c-2.17.05-4.34.37-6.44.92-.9.24-1.82.54-2.75.89-.53.2-.93.66-1.05,1.22-.12.56.05,1.14.46,1.55l9.66,9.66c1.49,1.49,1.49,3.91,0,5.4l-7.2,7.2c-1.49,1.49-3.91,1.49-5.4,0l-2.88-2.88c-.66-.66-1.73-.66-2.39,0-.66.66-.66,1.73,0,2.39l2.88,2.88c2.8,2.8,7.37,2.8,10.17,0l7.2-7.2c2.8-2.8,2.81-7.37,0-10.17l-7.71-7.71c1.8-.47,3.66-.73,5.52-.78,6.72-.16,13.05,2.35,17.81,7.11,6.54,6.54,8.79,16.06,5.88,24.86-.29.89-.38,1.1-.38,1.1-.05.09-.08.21-.1.3-.14.57.03,1.18.44,1.6l18.19,18.19c.72.72,1.12,1.68,1.12,2.7s-.4,1.98-1.12,2.7l-6.53,6.52c-.72.72-1.68,1.12-2.7,1.12s-1.98-.4-2.7-1.12l-16.32-16.32c2.4-1.28,4.63-2.92,6.6-4.89.66-.66.66-1.73,0-2.39-.66-.66-1.73-.66-2.39,0-4.59,4.59-10.7,7.12-17.19,7.12s-12.6-2.53-17.19-7.12c-6.77-6.77-8.93-16.92-5.51-25.87.33-.87-.1-1.85-.98-2.18-.87-.34-1.85.1-2.18.97-3.9,10.19-1.43,21.76,6.28,29.47,5.23,5.23,12.18,8.11,19.58,8.11,3.36,0,6.62-.6,9.68-1.73l17.23,17.22c1.36,1.36,3.16,2.11,5.09,2.11h0c1.92,0,3.73-.75,5.09-2.11l6.52-6.52c1.36-1.36,2.11-3.17,2.11-5.09s-.75-3.73-2.11-5.09Z"/>
        <path class="cls-5" d="M62.64,60.47c0-.96-.78-1.74-1.75-1.74s-1.75.78-1.75,1.74.78,1.75,1.75,1.75,1.75-.78,1.75-1.75ZM71.69,54.56l-17.43-17.43c.03-.1.07-.21.11-.32,3.31-10.01.74-20.85-6.71-28.3C42.24,3.09,35.04.22,27.37.42c-2.17.05-4.34.37-6.44.92-.9.24-1.82.54-2.75.89-.53.2-.93.66-1.05,1.22-.12.56.05,1.14.46,1.55l9.66,9.66c1.49,1.49,1.49,3.91,0,5.4l-7.2,7.2c-1.49,1.49-3.91,1.49-5.4,0l-2.88-2.88c-.66-.66-1.73-.66-2.39,0-.66.66-.66,1.73,0,2.39l2.88,2.88c2.8,2.8,7.37,2.8,10.17,0l7.2-7.2c2.8-2.8,2.81-7.37,0-10.17l-7.71-7.71c1.8-.47,3.66-.73,5.52-.78,6.72-.16,13.05,2.35,17.81,7.11,6.54,6.54,8.79,16.06,5.88,24.86-.29.89-.38,1.1-.38,1.1-.04.09-.08.21-.1.3-.14.57.03,1.18.44,1.6l18.19,18.19c.72.72,1.12,1.68,1.12,2.7s-.4,1.98-1.12,2.7l-6.53,6.52c-.72.72-1.68,1.12-2.7,1.12s-1.98-.4-2.7-1.12l-16.32-16.32c2.4-1.28,4.63-2.92,6.6-4.89.66-.66.66-1.73,0-2.39-.66-.66-1.73-.66-2.39,0-4.59,4.59-10.7,7.12-17.19,7.12s-12.6-2.53-17.19-7.12c-6.77-6.77-8.93-16.92-5.51-25.87.33-.87-.1-1.85-.98-2.18-.87-.34-1.85.1-2.18.97-3.9,10.19-1.43,21.76,6.28,29.47,5.23,5.23,12.18,8.11,19.58,8.11,3.36,0,6.62-.6,9.68-1.73l17.23,17.22c1.36,1.36,3.16,2.11,5.09,2.11h0c1.92,0,3.73-.75,5.09-2.11l6.52-6.52c1.36-1.36,2.11-3.17,2.11-5.09s-.75-3.73-2.11-5.09Z"/>
      </g>
      <path class="cls-2" d="M71.28,54.16l-17.43-17.43c.03-.1.07-.21.11-.32,3.31-10.01.74-20.85-6.71-28.3C41.83,2.69,34.63-.19,26.96,0c-2.17.05-4.34.37-6.44.92-.9.24-1.82.54-2.75.89-.53.2-.93.66-1.05,1.22-.12.56.05,1.14.46,1.55l9.66,9.66c1.49,1.49,1.49,3.91,0,5.4l-7.2,7.2c-1.49,1.49-3.91,1.49-5.4,0l-2.88-2.88c-.66-.66-1.73-.66-2.39,0-.66.66-.66,1.73,0,2.39l2.88,2.88c2.8,2.8,7.37,2.8,10.17,0l7.2-7.2c2.8-2.8,2.81-7.37,0-10.17l-7.71-7.71c1.8-.47,3.66-.73,5.52-.78,6.72-.16,13.05,2.35,17.81,7.11,6.54,6.54,8.79,16.06,5.88,24.86-.29.89-.38,1.1-.38,1.1-.04.09-.08.21-.1.3-.14.57.03,1.18.44,1.6l18.19,18.19c.72.72,1.12,1.68,1.12,2.7s-.4,1.98-1.12,2.7l-6.53,6.52c-.72.72-1.68,1.12-2.7,1.12s-1.98-.4-2.7-1.12l-16.32-16.32c2.4-1.28,4.63-2.92,6.6-4.89.66-.66.66-1.73,0-2.39-.66-.66-1.73-.66-2.39,0-4.59,4.59-10.7,7.12-17.19,7.12s-12.6-2.53-17.19-7.12C3.72,38.11,1.56,27.95,4.98,19c.33-.87-.1-1.85-.98-2.18-.87-.34-1.85.1-2.18.97-3.9,10.19-1.43,21.76,6.28,29.47,5.23,5.23,12.18,8.11,19.58,8.11,3.36,0,6.62-.6,9.68-1.73l17.23,17.23c1.36,1.36,3.16,2.11,5.09,2.11h0c1.92,0,3.73-.75,5.09-2.11l6.52-6.52c1.36-1.36,2.11-3.17,2.11-5.09s-.75-3.73-2.11-5.09ZM62.23,60.06c0-.96-.78-1.74-1.75-1.74s-1.75.78-1.75,1.74.78,1.75,1.75,1.75,1.75-.78,1.75-1.75Z"/>
    </g>
  </g>
</svg>