<?xml version="1.0" encoding="UTF-8"?>
<svg id="Layer_2" data-name="Layer 2" xmlns="http://www.w3.org/2000/svg" xmlns:xlink="http://www.w3.org/1999/xlink" viewBox="0 0 72.6 71.15">
  <defs>
    <style>
      .cls-1 {
        opacity: .14;
      }

      .cls-2 {
        fill: url(#linear-gradient-2);
      }

      .cls-3 {
        opacity: .21;
      }

      .cls-4 {
        opacity: .42;
      }

      .cls-5 {
        opacity: .55;
      }

      .cls-6 {
        opacity: .48;
      }

      .cls-7 {
        opacity: .35;
      }

      .cls-8 {
        opacity: .08;
      }

      .cls-9 {
        opacity: .28;
      }

      .cls-10 {
        opacity: 0;
      }

      .cls-11 {
        fill: url(#linear-gradient);
      }
    </style>
    <linearGradient id="linear-gradient" x1="3.13" y1="13.68" x2="52.52" y2="63.07" gradientUnits="userSpaceOnUse">
      <stop offset="0" stop-color="#ed5d2b"/>
      <stop offset="1" stop-color="#ffb466"/>
    </linearGradient>
    <linearGradient id="linear-gradient-2" x1="2.63" y1="13.37" x2="52.36" y2="63.11" gradientUnits="userSpaceOnUse">
      <stop offset="0" stop-color="#2c2e2c"/>
      <stop offset=".99" stop-color="#000"/>
    </linearGradient>
  </defs>
  <g id="Layer_1-2" data-name="Layer 1">
    <g>
      <path class="cls-11" d="M1.71,21.84v8.52s12.4-1.49,12.4,7.54-12,7.94-12,7.94v9.89c0,2.91,2.17,8.51,7.09,8.51h10.46s-.34-11.03,8-11.03,7.83,11.2,7.83,11.2h10.23c3.03,0,7.49-2.57,7.49-7.71v-10.46s12.17,1.03,12.17-8.86-12.23-6.69-12.23-6.69v-11.03c0-3.03-2.29-7.31-8-7.31h-9.77s1.43-10.63-7.88-10.63-8,11.14-8,11.14c0,0-4.97-.23-9.66-.23S1.71,15.27,1.71,21.84Z"/>
      <g>
        <path class="cls-10" d="M40.53,71.15c-.12,0-.25-.02-.37-.04-.77-.17-1.32-.85-1.32-1.64v-3.13c0-3.28-2.67-5.94-5.94-5.94s-5.94,2.66-5.94,5.94v3.04c.01.34-.07.68-.26.97-.31.49-.85.8-1.42.8h-10.91c-4.95,0-8.97-4.03-8.97-8.97v-10.91c0-.47.19-.91.53-1.23.34-.32.8-.48,1.26-.45h.07s4.5,0,4.5,0c3.28,0,5.94-2.67,5.94-5.94s-2.67-5.94-5.94-5.94c-.14,0-4.4,0-4.55,0h-.19c-.93-.04-1.66-.82-1.63-1.75.03-.93.82-1.66,1.75-1.63h.13c.07,0,4.36,0,4.5,0,5.14,0,9.32,4.18,9.32,9.32s-4.18,9.32-9.32,9.32h-2.99v9.21c0,3.08,2.51,5.59,5.59,5.59h9.21v-1.42c0-5.14,4.18-9.32,9.32-9.32s9.32,4.18,9.32,9.32v1.42h9.21c3.08,0,5.59-2.51,5.59-5.59v-10.89c0-.55.27-1.06.72-1.38.28-.2.64-.32.99-.32h4.56c3.27,0,5.94-2.67,5.94-5.94s-2.67-5.94-5.94-5.94c-.13,0-3.85,0-4.47,0-.3.02-.61-.05-.89-.19-.55-.29-.91-.86-.91-1.49v-10.91c0-3.08-2.51-5.59-5.59-5.59h-10.75c-.26.03-.52-.01-.77-.11-.64-.26-1.07-.87-1.07-1.56v-3.13c0-3.28-2.67-5.94-5.94-5.94s-5.94,2.66-5.94,5.94v3.03c.02.32-.06.64-.22.93-.3.52-.85.85-1.46.85h-10.91c-3.08,0-5.59,2.51-5.59,5.59v1.81c0,.93-.76,1.69-1.69,1.69s-1.69-.76-1.69-1.69v-1.81c0-4.95,4.02-8.97,8.97-8.97h9.21v-1.43c0-5.14,4.18-9.32,9.32-9.32s9.32,4.18,9.32,9.32v1.43h9.21c4.94,0,8.97,4.02,8.97,8.97v9.21h2.88c5.14,0,9.32,4.18,9.32,9.32s-4.18,9.32-9.32,9.32h-2.88v9.21c0,4.94-4.02,8.97-8.97,8.97h-10.74c-.05,0-.11,0-.16,0Z"/>
        <path class="cls-8" d="M39.91,70.53c-.12,0-.25-.02-.37-.04-.77-.17-1.32-.85-1.32-1.64v-3.13c0-3.28-2.67-5.94-5.94-5.94s-5.94,2.66-5.94,5.94c0,.13,0,2.62,0,3.04,0,.34-.07.68-.26.97-.31.49-.85.8-1.42.8h-10.91c-4.95,0-8.97-4.03-8.97-8.97v-10.91c0-.47.19-.91.53-1.23.34-.32.8-.48,1.26-.45h.07s4.5,0,4.5,0c3.28,0,5.94-2.67,5.94-5.94s-2.67-5.96-5.94-5.94c-.14,0-4.4,0-4.55,0h-.19c-.93-.04-1.66-.82-1.63-1.75.03-.93.82-1.66,1.75-1.63h.13c.07,0,4.36,0,4.5,0,5.14,0,9.32,4.18,9.32,9.32s-4.18,9.32-9.32,9.32h-2.99v9.21c0,3.08,2.51,5.59,5.59,5.59h9.21v-1.42c0-5.14,4.18-9.32,9.32-9.32s9.32,4.18,9.32,9.32v1.42h9.21c3.08,0,5.59-2.51,5.59-5.59v-10.89c0-.55.27-1.06.72-1.38.28-.2.64-.32.99-.32h4.56c3.27,0,5.94-2.67,5.94-5.94s-2.67-5.96-5.94-5.94c-.13,0-3.85-.02-4.47,0-.3,0-.61-.05-.89-.19-.55-.29-.91-.86-.91-1.49v-10.91c0-3.08-2.51-5.59-5.59-5.59h-10.75c-.26.03-.52-.01-.77-.11-.64-.26-1.07-.87-1.07-1.56v-3.13c0-3.28-2.67-5.94-5.94-5.94s-5.94,2.66-5.94,5.94c0,.13-.01,2.57,0,3.03,0,.32-.06.64-.22.93-.3.52-.85.85-1.46.85h-10.91c-3.08,0-5.59,2.51-5.59,5.59v1.81c0,.93-.76,1.69-1.69,1.69s-1.69-.76-1.69-1.69v-1.81c0-4.95,4.02-8.97,8.97-8.97h9.21v-1.43c0-5.14,4.18-9.32,9.32-9.32s9.32,4.18,9.32,9.32v1.43h9.21c4.94,0,8.97,4.02,8.97,8.97v9.21h2.88c5.14,0,9.32,4.18,9.32,9.32s-4.18,9.32-9.32,9.32h-2.88v9.21c0,4.94-4.02,8.97-8.97,8.97h-10.74c-.05,0-.11,0-.16,0Z"/>
        <path class="cls-1" d="M39.28,69.9c-.12,0-.25-.02-.37-.04-.77-.17-1.32-.85-1.32-1.64v-3.13c0-3.28-2.67-5.94-5.94-5.94s-5.94,2.66-5.94,5.94c0,.13,0,2.62,0,3.04,0,.34-.07.68-.26.97-.31.49-.85.8-1.42.8h-10.91c-4.95,0-8.97-4.03-8.97-8.97v-10.91c0-.47.19-.91.53-1.23.34-.32.8-.48,1.26-.45h.07s4.5,0,4.5,0c3.28,0,5.94-2.67,5.94-5.94s-2.67-5.96-5.94-5.94c-.14,0-4.4,0-4.55,0h-.19c-.93-.04-1.66-.82-1.63-1.75.03-.93.82-1.66,1.75-1.63h.13c.07,0,4.36,0,4.5,0,5.14,0,9.32,4.18,9.32,9.32s-4.18,9.32-9.32,9.32h-2.99v9.21c0,3.08,2.51,5.59,5.59,5.59h9.21v-1.42c0-5.14,4.18-9.32,9.32-9.32s9.32,4.18,9.32,9.32v1.42h9.21c3.08,0,5.59-2.51,5.59-5.59v-10.89c0-.55.27-1.06.72-1.38.28-.2.64-.32.99-.32h4.56c3.27,0,5.94-2.67,5.94-5.94s-2.67-5.96-5.94-5.94c-.13,0-3.85-.02-4.47,0-.3,0-.61-.05-.89-.19-.55-.29-.91-.86-.91-1.49v-10.91c0-3.08-2.51-5.59-5.59-5.59h-10.75c-.26.03-.52-.01-.77-.11-.64-.26-1.07-.87-1.07-1.56v-3.13c0-3.28-2.67-5.94-5.94-5.94s-5.94,2.66-5.94,5.94c0,.13-.01,2.57,0,3.03,0,.32-.06.64-.22.93-.3.52-.85.85-1.46.85h-10.91c-3.08,0-5.59,2.51-5.59,5.59v1.81c0,.93-.76,1.69-1.69,1.69s-1.69-.76-1.69-1.69v-1.81c0-4.95,4.02-8.97,8.97-8.97h9.21v-1.43c0-5.14,4.18-9.32,9.32-9.32s9.32,4.18,9.32,9.32v1.43h9.21c4.94,0,8.97,4.02,8.97,8.97v9.21h2.88c5.14,0,9.32,4.18,9.32,9.32s-4.18,9.32-9.32,9.32h-2.88v9.21c0,4.94-4.02,8.97-8.97,8.97h-10.74c-.05,0-.11,0-.16,0Z"/>
        <path class="cls-3" d="M38.66,69.28c-.12,0-.25-.02-.37-.04-.77-.17-1.32-.85-1.32-1.64v-3.13c0-3.28-2.67-5.94-5.94-5.94s-5.94,2.66-5.94,5.94c0,.13,0,2.62,0,3.04,0,.34-.07.68-.26.97-.31.49-.85.8-1.42.8h-10.91c-4.95,0-8.97-4.03-8.97-8.97v-10.91c0-.47.19-.91.53-1.23.34-.32.8-.48,1.26-.45h.07s4.5,0,4.5,0c3.28,0,5.94-2.67,5.94-5.94s-2.67-5.96-5.94-5.94c-.14,0-4.4,0-4.55,0h-.19c-.93-.04-1.66-.82-1.63-1.75.03-.93.82-1.66,1.75-1.63h.13c.07,0,4.36,0,4.5,0,5.14,0,9.32,4.18,9.32,9.32s-4.18,9.32-9.32,9.32h-2.99v9.21c0,3.08,2.51,5.59,5.59,5.59h9.21v-1.42c0-5.14,4.18-9.32,9.32-9.32s9.32,4.18,9.32,9.32v1.42h9.21c3.08,0,5.59-2.51,5.59-5.59v-10.89c0-.55.27-1.06.72-1.38.28-.2.64-.32.99-.32h4.56c3.27,0,5.94-2.67,5.94-5.94s-2.67-5.96-5.94-5.94c-.13,0-3.85-.02-4.47,0-.3,0-.61-.05-.89-.19-.55-.29-.91-.86-.91-1.49v-10.91c0-3.08-2.51-5.59-5.59-5.59h-10.75c-.26.03-.52-.01-.77-.11-.64-.26-1.07-.87-1.07-1.56v-3.13c0-3.28-2.67-5.94-5.94-5.94s-5.94,2.66-5.94,5.94c0,.13-.01,2.57,0,3.03,0,.32-.06.64-.22.93-.3.52-.85.85-1.46.85h-10.91c-3.08,0-5.59,2.51-5.59,5.59v1.81c0,.93-.76,1.69-1.69,1.69s-1.69-.76-1.69-1.69v-1.81c0-4.95,4.02-8.97,8.97-8.97h9.21v-1.43c0-5.14,4.18-9.32,9.32-9.32s9.32,4.18,9.32,9.32v1.43h9.21c4.94,0,8.97,4.02,8.97,8.97v9.21h2.88c5.14,0,9.32,4.18,9.32,9.32s-4.18,9.32-9.32,9.32h-2.88v9.21c0,4.94-4.02,8.97-8.97,8.97h-10.74c-.05,0-.11,0-.16,0Z"/>
        <path class="cls-9" d="M38.03,68.65c-.12,0-.25-.02-.37-.04-.77-.17-1.32-.85-1.32-1.64v-3.13c0-3.28-2.67-5.94-5.94-5.94s-5.94,2.66-5.94,5.94c0,.13,0,2.62,0,3.04,0,.34-.07.68-.26.97-.31.49-.85.8-1.42.8h-10.91c-4.95,0-8.97-4.03-8.97-8.97v-10.91c0-.47.19-.91.53-1.23.34-.32.8-.48,1.26-.45h.07s4.5,0,4.5,0c3.28,0,5.94-2.67,5.94-5.94s-2.67-5.96-5.94-5.94c-.14,0-4.4,0-4.55,0h-.19c-.93-.04-1.66-.82-1.63-1.75.03-.93.82-1.66,1.75-1.63h.13c.07,0,4.36,0,4.5,0,5.14,0,9.32,4.18,9.32,9.32s-4.18,9.32-9.32,9.32h-2.99v9.21c0,3.08,2.51,5.59,5.59,5.59h9.21v-1.42c0-5.14,4.18-9.32,9.32-9.32s9.32,4.18,9.32,9.32v1.42h9.21c3.08,0,5.59-2.51,5.59-5.59v-10.89c0-.55.27-1.06.72-1.38.28-.2.64-.32.99-.32h4.56c3.27,0,5.94-2.67,5.94-5.94s-2.67-5.96-5.94-5.94c-.13,0-3.85-.02-4.47,0-.3,0-.61-.05-.89-.19-.55-.29-.91-.86-.91-1.49v-10.91c0-3.08-2.51-5.59-5.59-5.59h-10.75c-.26.03-.52-.01-.77-.11-.64-.26-1.07-.87-1.07-1.56v-3.13c0-3.28-2.67-5.94-5.94-5.94s-5.94,2.66-5.94,5.94c0,.13-.01,2.57,0,3.03,0,.32-.06.64-.22.93-.3.52-.85.85-1.46.85h-10.91c-3.08,0-5.59,2.51-5.59,5.59v1.81c0,.93-.76,1.69-1.69,1.69s-1.69-.76-1.69-1.69v-1.81c0-4.95,4.02-8.97,8.97-8.97h9.21v-1.43c0-5.14,4.18-9.32,9.32-9.32s9.32,4.18,9.32,9.32v1.43h9.21c4.94,0,8.97,4.02,8.97,8.97v9.21h2.88c5.14,0,9.32,4.18,9.32,9.32s-4.18,9.32-9.32,9.32h-2.88v9.21c0,4.94-4.02,8.97-8.97,8.97h-10.74c-.05,0-.11,0-.16,0Z"/>
        <path class="cls-7" d="M37.41,68.03c-.12,0-.25-.02-.37-.04-.77-.17-1.32-.85-1.32-1.64v-3.13c0-3.28-2.67-5.94-5.94-5.94s-5.94,2.66-5.94,5.94c0,.13,0,2.62,0,3.04,0,.34-.07.68-.26.97-.31.49-.85.8-1.42.8h-10.91c-4.95,0-8.97-4.03-8.97-8.97v-10.91c0-.47.19-.91.53-1.23.34-.32.8-.48,1.26-.45h.07s4.5,0,4.5,0c3.28,0,5.94-2.67,5.94-5.94s-2.67-5.96-5.94-5.94c-.14,0-4.4,0-4.55,0h-.19c-.93-.04-1.66-.82-1.63-1.75.03-.93.82-1.66,1.75-1.63h.13c.07,0,4.36,0,4.5,0,5.14,0,9.32,4.18,9.32,9.32s-4.18,9.32-9.32,9.32h-2.99v9.21c0,3.08,2.51,5.59,5.59,5.59h9.21v-1.42c0-5.14,4.18-9.32,9.32-9.32s9.32,4.18,9.32,9.32v1.42h9.21c3.08,0,5.59-2.51,5.59-5.59v-10.89c0-.55.27-1.06.72-1.38.28-.2.64-.32.99-.32h4.56c3.27,0,5.94-2.67,5.94-5.94s-2.67-5.96-5.94-5.94c-.13,0-3.85-.02-4.47,0-.3,0-.61-.05-.89-.19-.55-.29-.91-.86-.91-1.49v-10.91c0-3.08-2.51-5.59-5.59-5.59h-10.75c-.26.03-.52-.01-.77-.11-.64-.26-1.07-.87-1.07-1.56v-3.13c0-3.28-2.67-5.94-5.94-5.94s-5.94,2.66-5.94,5.94c0,.13-.01,2.57,0,3.03,0,.32-.06.64-.22.93-.3.52-.85.85-1.46.85h-10.91c-3.08,0-5.59,2.51-5.59,5.59v1.81c0,.93-.76,1.69-1.69,1.69s-1.69-.76-1.69-1.69v-1.81c0-4.95,4.02-8.97,8.97-8.97h9.21v-1.43c0-5.14,4.18-9.32,9.32-9.32s9.32,4.18,9.32,9.32v1.43h9.21c4.94,0,8.97,4.02,8.97,8.97v9.21h2.88c5.14,0,9.32,4.18,9.32,9.32s-4.18,9.32-9.32,9.32h-2.88v9.21c0,4.94-4.02,8.97-8.97,8.97h-10.74c-.05,0-.11,0-.16,0Z"/>
        <path class="cls-4" d="M36.78,67.4c-.12,0-.25-.02-.37-.04-.77-.17-1.32-.85-1.32-1.64v-3.13c0-3.28-2.67-5.94-5.94-5.94s-5.94,2.66-5.94,5.94c0,.13,0,2.62,0,3.04,0,.34-.07.68-.26.97-.31.49-.85.8-1.42.8h-10.91c-4.95,0-8.97-4.03-8.97-8.97v-10.91c0-.47.19-.91.53-1.23.34-.32.8-.48,1.26-.45h.07s4.5,0,4.5,0c3.28,0,5.94-2.67,5.94-5.94s-2.67-5.96-5.94-5.94c-.14,0-4.4,0-4.55,0h-.19c-.93-.04-1.66-.82-1.63-1.75.03-.93.82-1.66,1.75-1.63h.13c.07,0,4.36,0,4.5,0,5.14,0,9.32,4.18,9.32,9.32s-4.18,9.32-9.32,9.32h-2.99v9.21c0,3.08,2.51,5.59,5.59,5.59h9.21v-1.42c0-5.14,4.18-9.32,9.32-9.32s9.32,4.18,9.32,9.32v1.42h9.21c3.08,0,5.59-2.51,5.59-5.59v-10.89c0-.55.27-1.06.72-1.38.28-.2.64-.32.99-.32h4.56c3.27,0,5.94-2.67,5.94-5.94s-2.67-5.96-5.94-5.94c-.13,0-3.85-.02-4.47,0-.3,0-.61-.05-.89-.19-.55-.29-.91-.86-.91-1.49v-10.91c0-3.08-2.51-5.59-5.59-5.59h-10.75c-.26.03-.52-.01-.77-.11-.64-.26-1.07-.87-1.07-1.56v-3.13c0-3.28-2.67-5.94-5.94-5.94s-5.94,2.66-5.94,5.94c0,.13-.01,2.57,0,3.03,0,.32-.06.64-.22.93-.3.52-.85.85-1.46.85h-10.91c-3.08,0-5.59,2.51-5.59,5.59v1.81c0,.93-.76,1.69-1.69,1.69s-1.69-.76-1.69-1.69v-1.81c0-4.95,4.02-8.97,8.97-8.97h9.21v-1.43c0-5.14,4.18-9.32,9.32-9.32s9.32,4.18,9.32,9.32v1.43h9.21c4.94,0,8.97,4.02,8.97,8.97v9.21h2.88c5.14,0,9.32,4.18,9.32,9.32s-4.18,9.32-9.32,9.32h-2.88v9.21c0,4.94-4.02,8.97-8.97,8.97h-10.74c-.05,0-.11,0-.16,0Z"/>
        <path class="cls-6" d="M36.16,66.78c-.12,0-.25-.02-.37-.04-.77-.17-1.32-.85-1.32-1.64v-3.13c0-3.28-2.67-5.94-5.94-5.94s-5.94,2.66-5.94,5.94c0,.13,0,2.62,0,3.04,0,.34-.07.68-.26.97-.31.49-.85.8-1.42.8h-10.91c-4.95,0-8.97-4.03-8.97-8.97v-10.91c0-.47.19-.91.53-1.23.34-.32.8-.48,1.26-.45h.07s4.5,0,4.5,0c3.28,0,5.94-2.67,5.94-5.94s-2.67-5.96-5.94-5.94c-.14,0-4.4,0-4.55,0h-.19c-.93-.04-1.66-.82-1.63-1.75.03-.93.82-1.66,1.75-1.63h.13c.07,0,4.36,0,4.5,0,5.14,0,9.32,4.18,9.32,9.32s-4.18,9.32-9.32,9.32h-2.99v9.21c0,3.08,2.51,5.59,5.59,5.59h9.21v-1.42c0-5.14,4.18-9.32,9.32-9.32s9.32,4.18,9.32,9.32v1.42h9.21c3.08,0,5.59-2.51,5.59-5.59v-10.89c0-.55.27-1.06.72-1.38.28-.2.64-.32.99-.32h4.56c3.27,0,5.94-2.67,5.94-5.94s-2.67-5.96-5.94-5.94c-.13,0-3.85-.02-4.47,0-.3,0-.61-.05-.89-.19-.55-.29-.91-.86-.91-1.49v-10.91c0-3.08-2.51-5.59-5.59-5.59h-10.75c-.26.03-.52-.01-.77-.11-.64-.26-1.07-.87-1.07-1.56v-3.13c0-3.28-2.67-5.94-5.94-5.94s-5.94,2.66-5.94,5.94c0,.13-.01,2.57,0,3.03,0,.32-.06.64-.22.93-.3.52-.85.85-1.46.85h-10.91c-3.08,0-5.59,2.51-5.59,5.59v1.81c0,.93-.76,1.69-1.69,1.69s-1.69-.76-1.69-1.69v-1.81c0-4.95,4.02-8.97,8.97-8.97h9.21v-1.43c0-5.14,4.18-9.32,9.32-9.32s9.32,4.18,9.32,9.32v1.43h9.21c4.94,0,8.97,4.02,8.97,8.97v9.21h2.88c5.14,0,9.32,4.18,9.32,9.32s-4.18,9.32-9.32,9.32h-2.88v9.21c0,4.94-4.02,8.97-8.97,8.97h-10.74c-.05,0-.11,0-.16,0Z"/>
        <path class="cls-5" d="M35.53,66.15c-.12,0-.25-.02-.37-.04-.77-.17-1.32-.85-1.32-1.64v-3.13c0-3.28-2.67-5.94-5.94-5.94s-5.94,2.66-5.94,5.94v3.04c.01.34-.07.68-.26.97-.31.49-.85.8-1.42.8h-10.91c-4.95,0-8.97-4.03-8.97-8.97v-10.91c0-.47.19-.91.53-1.23.34-.32.8-.48,1.26-.45h.07s4.5,0,4.5,0c3.28,0,5.94-2.67,5.94-5.94s-2.67-5.94-5.94-5.94c-.14,0-4.4,0-4.55,0h-.19c-.93-.04-1.66-.82-1.63-1.75.03-.93.82-1.66,1.75-1.63h.13c.07,0,4.36,0,4.5,0,5.14,0,9.32,4.18,9.32,9.32s-4.18,9.32-9.32,9.32h-2.99v9.21c0,3.08,2.51,5.59,5.59,5.59h9.21v-1.42c0-5.14,4.18-9.32,9.32-9.32s9.32,4.18,9.32,9.32v1.42h9.21c3.08,0,5.59-2.51,5.59-5.59v-10.89c0-.55.27-1.06.72-1.38.28-.2.64-.32.99-.32h4.56c3.27,0,5.94-2.67,5.94-5.94s-2.67-5.94-5.94-5.94c-.13,0-3.85,0-4.47,0-.3.02-.61-.05-.89-.19-.55-.29-.91-.86-.91-1.49v-10.91c0-3.08-2.51-5.59-5.59-5.59h-10.75c-.26.03-.52-.01-.77-.11-.64-.26-1.07-.87-1.07-1.56v-3.13c0-3.28-2.67-5.94-5.94-5.94s-5.94,2.66-5.94,5.94v3.03c.02.32-.06.64-.22.93-.3.52-.85.85-1.46.85h-10.91c-3.08,0-5.59,2.51-5.59,5.59v1.81c0,.93-.76,1.69-1.69,1.69s-1.69-.76-1.69-1.69v-1.81c0-4.95,4.02-8.97,8.97-8.97h9.21v-1.43C18.58,4.59,22.77.41,27.9.41s9.32,4.18,9.32,9.32v1.43h9.21c4.94,0,8.97,4.02,8.97,8.97v9.21h2.88c5.14,0,9.32,4.18,9.32,9.32s-4.18,9.32-9.32,9.32h-2.88v9.21c0,4.94-4.02,8.97-8.97,8.97h-10.74c-.05,0-.11,0-.16,0Z"/>
      </g>
      <path class="cls-2" d="M35.13,65.74c-.12,0-.25-.02-.37-.04-.77-.17-1.32-.85-1.32-1.64v-3.13c0-3.28-2.66-5.94-5.94-5.94s-5.94,2.66-5.94,5.94v3.04c.01.34-.07.68-.26.97-.31.49-.85.8-1.42.8h-10.91c-4.95,0-8.97-4.03-8.97-8.97v-10.91c0-.47.19-.91.53-1.23.34-.32.8-.48,1.26-.45h.07s4.5,0,4.5,0c3.28,0,5.94-2.67,5.94-5.94s-2.67-5.94-5.94-5.94c-.14,0-4.4,0-4.55,0h-.19c-.93-.04-1.66-.82-1.63-1.75.03-.93.82-1.66,1.75-1.63h.13c.07,0,4.36,0,4.5,0,5.14,0,9.32,4.18,9.32,9.32s-4.18,9.32-9.32,9.32h-2.99v9.21c0,3.08,2.51,5.59,5.59,5.59h9.21v-1.42c0-5.14,4.18-9.32,9.32-9.32s9.32,4.18,9.32,9.32v1.42h9.21c3.08,0,5.59-2.51,5.59-5.59v-10.89c0-.55.27-1.06.72-1.38.28-.2.64-.32.99-.32h4.56c3.27,0,5.94-2.67,5.94-5.94s-2.67-5.94-5.94-5.94c-.13,0-3.85,0-4.47,0-.3.02-.61-.04-.89-.19-.55-.29-.91-.86-.91-1.49v-10.91c0-3.08-2.51-5.59-5.59-5.59h-10.75c-.26.03-.52-.01-.77-.11-.64-.26-1.07-.87-1.07-1.56v-3.13c0-3.28-2.66-5.94-5.94-5.94s-5.94,2.66-5.94,5.94v3.03c.02.32-.06.64-.22.93-.3.52-.85.85-1.46.85h-10.91c-3.08,0-5.59,2.51-5.59,5.59v1.81c0,.93-.76,1.69-1.69,1.69s-1.69-.76-1.69-1.69v-1.81c0-4.95,4.02-8.97,8.97-8.97h9.21v-1.43c0-5.14,4.18-9.32,9.32-9.32s9.32,4.18,9.32,9.32v1.43h9.21c4.94,0,8.97,4.02,8.97,8.97v9.21h2.88c5.14,0,9.32,4.18,9.32,9.32s-4.18,9.32-9.32,9.32h-2.88v9.21c0,4.94-4.02,8.97-8.97,8.97h-10.74c-.05,0-.11,0-.16,0Z"/>
    </g>
  </g>
</svg>