<?xml version="1.0" encoding="UTF-8"?>
<svg id="Layer_2" data-name="Layer 2" xmlns="http://www.w3.org/2000/svg" xmlns:xlink="http://www.w3.org/1999/xlink" viewBox="0 0 76.17 68.98">
  <defs>
    <style>
      .cls-1 {
        opacity: .14;
      }

      .cls-2 {
        fill: url(#linear-gradient-2);
      }

      .cls-3 {
        opacity: .21;
      }

      .cls-4 {
        opacity: .42;
      }

      .cls-5 {
        opacity: .55;
      }

      .cls-6 {
        opacity: .48;
      }

      .cls-7 {
        opacity: .35;
      }

      .cls-8 {
        opacity: .08;
      }

      .cls-9 {
        opacity: .28;
      }

      .cls-10 {
        opacity: 0;
      }

      .cls-11 {
        fill: url(#linear-gradient);
      }
    </style>
    <linearGradient id="linear-gradient" x1="10.72" y1="20.4" x2="59.58" y2="69.27" gradientUnits="userSpaceOnUse">
      <stop offset=".01" stop-color="#ff870a"/>
      <stop offset="1" stop-color="#ffdb4a"/>
    </linearGradient>
    <linearGradient id="linear-gradient-2" x1="11.01" y1="20.85" x2="59.76" y2="69.6" gradientUnits="userSpaceOnUse">
      <stop offset="0" stop-color="#2c2e2c"/>
      <stop offset=".99" stop-color="#000"/>
    </linearGradient>
  </defs>
  <g id="Layer_1-2" data-name="Layer 1">
    <g>
      <path class="cls-11" d="M29.21,5.48L2.42,52.08s-1.43,10.12,6.84,10.12h52.58c3.28,0,9.12-4.28,5.99-11.26-3.13-6.98-25.37-43.89-26.79-46.31-1.42-2.42-7.84-4.7-11.83.85Z"/>
      <g>
        <path class="cls-10" d="M40.79,49.67c.93,0,1.69-.76,1.69-1.69v-23c0-.93-.76-1.69-1.69-1.69s-1.69.75-1.69,1.69v23c0,.93.76,1.69,1.69,1.69ZM40.79,57.59c.96,0,1.75-.78,1.75-1.75s-.78-1.75-1.75-1.75-1.74.78-1.74,1.75.78,1.75,1.74,1.75ZM74.88,55.97s-.04-.07-.06-.11L48.33,9.97c-1.48-2.81-4.36-4.56-7.54-4.56s-6.08,1.76-7.55,4.6c-.43.83-.11,1.85.72,2.28.83.43,1.85.11,2.28-.72.89-1.71,2.64-2.78,4.56-2.78s3.67,1.06,4.56,2.78c.01.02.02.05.04.07l26.41,45.75c.04.09.09.18.14.26.55.84.85,1.81.85,2.82,0,2.78-2.18,5.03-4.96,5.12-.04,0-.09,0-.14.01H13.87s-.1,0-.15-.01c-2.77-.11-4.93-2.36-4.93-5.12,0-.95.27-1.88.8-2.75L30.75,21.06c.47-.81.19-1.84-.62-2.31-.81-.47-1.84-.19-2.31.62L6.69,55.99c-.84,1.35-1.28,2.9-1.28,4.48,0,4.51,3.47,8.19,7.95,8.49.1.02.2.03.3.03h54.23c.09,0,.19,0,.28-.02,4.5-.27,8-3.95,8-8.49,0-1.59-.44-3.14-1.29-4.5Z"/>
        <path class="cls-8" d="M40.16,49.04c.93,0,1.69-.76,1.69-1.69v-23c0-.93-.76-1.69-1.69-1.69s-1.69.75-1.69,1.69v23c0,.93.76,1.69,1.69,1.69ZM40.16,56.97c.96,0,1.75-.78,1.75-1.75s-.78-1.75-1.75-1.75-1.74.78-1.74,1.75.78,1.75,1.74,1.75ZM74.26,55.35s-.04-.07-.06-.11L47.71,9.34c-1.48-2.81-4.36-4.56-7.54-4.56s-6.08,1.76-7.55,4.6c-.43.83-.11,1.85.72,2.28.83.43,1.85.11,2.28-.72.89-1.71,2.64-2.78,4.56-2.78s3.67,1.06,4.56,2.78c.01.02.02.05.04.07l26.41,45.75c.04.09.09.18.14.26.55.85.85,1.81.85,2.82,0,2.78-2.18,5.01-4.96,5.12-.04,0-.09,0-.14.01H13.25s-.1-.01-.15-.01c-2.76-.16-4.93-2.36-4.93-5.12,0-.95.27-1.88.8-2.75L30.13,20.44c.47-.81.19-1.84-.62-2.31-.81-.47-1.84-.19-2.31.62L6.06,55.36c-.84,1.35-1.28,2.9-1.28,4.48,0,4.51,3.47,8.19,7.95,8.49.1.02.2.03.3.03h54.23c.09,0,.19,0,.28-.02,4.5-.27,8-3.95,8-8.49,0-1.59-.44-3.14-1.29-4.5Z"/>
        <path class="cls-1" d="M39.54,48.42c.93,0,1.69-.76,1.69-1.69v-23c0-.93-.76-1.69-1.69-1.69s-1.69.75-1.69,1.69v23c0,.93.76,1.69,1.69,1.69ZM39.54,56.34c.96,0,1.75-.78,1.75-1.75s-.78-1.75-1.75-1.75-1.74.78-1.74,1.75.78,1.75,1.74,1.75ZM73.63,54.72s-.04-.07-.06-.11L47.08,8.72c-1.48-2.81-4.36-4.56-7.54-4.56s-6.08,1.76-7.55,4.6c-.43.83-.11,1.85.72,2.28.83.43,1.85.11,2.28-.72.89-1.71,2.64-2.78,4.56-2.78s3.67,1.06,4.56,2.78c.01.02.02.05.04.07l26.41,45.75c.04.09.09.18.14.26.55.85.85,1.81.85,2.82,0,2.78-2.18,5.01-4.96,5.12-.04,0-.09,0-.14.01H12.62s-.1-.01-.15-.01c-2.76-.16-4.93-2.36-4.93-5.12,0-.95.27-1.88.8-2.75L29.5,19.81c.47-.81.19-1.84-.62-2.31-.81-.47-1.84-.19-2.31.62L5.44,54.74c-.84,1.35-1.28,2.9-1.28,4.48,0,4.51,3.47,8.19,7.95,8.49.1.02.2.03.3.03h54.23c.09,0,.19,0,.28-.02,4.5-.27,8-3.95,8-8.49,0-1.59-.44-3.14-1.29-4.5Z"/>
        <path class="cls-3" d="M38.91,47.79c.93,0,1.69-.76,1.69-1.69v-23c0-.93-.76-1.69-1.69-1.69s-1.69.75-1.69,1.69v23c0,.93.76,1.69,1.69,1.69ZM38.91,55.72c.96,0,1.75-.78,1.75-1.75s-.78-1.75-1.75-1.75-1.74.78-1.74,1.75.78,1.75,1.74,1.75ZM73.01,54.1s-.04-.07-.06-.11L46.46,8.09c-1.48-2.81-4.36-4.56-7.54-4.56s-6.08,1.76-7.55,4.6c-.43.83-.11,1.85.72,2.28.83.43,1.85.11,2.28-.72.89-1.71,2.64-2.78,4.56-2.78s3.67,1.06,4.56,2.78c.01.02.02.05.04.07l26.41,45.75c.04.09.09.18.14.26.55.85.85,1.81.85,2.82,0,2.78-2.18,5.01-4.96,5.12-.04,0-.09,0-.14.01H12s-.1-.01-.15-.01c-2.76-.16-4.93-2.36-4.93-5.12,0-.95.27-1.88.8-2.75L28.88,19.19c.47-.81.19-1.84-.62-2.31-.81-.47-1.84-.19-2.31.62L4.81,54.11c-.84,1.35-1.28,2.9-1.28,4.48,0,4.51,3.47,8.19,7.95,8.49.1.02.2.03.3.03h54.23c.09,0,.19,0,.28-.02,4.5-.27,8-3.95,8-8.49,0-1.59-.44-3.14-1.29-4.5Z"/>
        <path class="cls-9" d="M38.29,47.17c.93,0,1.69-.76,1.69-1.69v-23c0-.93-.76-1.69-1.69-1.69s-1.69.75-1.69,1.69v23c0,.93.76,1.69,1.69,1.69ZM38.29,55.09c.96,0,1.75-.78,1.75-1.75s-.78-1.75-1.75-1.75-1.74.78-1.74,1.75.78,1.75,1.74,1.75ZM72.38,53.47s-.04-.07-.06-.11L45.83,7.47c-1.48-2.81-4.36-4.56-7.54-4.56s-6.08,1.76-7.55,4.6c-.43.83-.11,1.85.72,2.28.83.43,1.85.11,2.28-.72.89-1.71,2.64-2.78,4.56-2.78s3.67,1.06,4.56,2.78c.01.02.02.05.04.07l26.41,45.75c.04.09.09.18.14.26.55.85.85,1.81.85,2.82,0,2.78-2.18,5.01-4.96,5.12-.04,0-.09,0-.14.01H11.37s-.1-.01-.15-.01c-2.76-.16-4.93-2.36-4.93-5.12,0-.95.27-1.88.8-2.75L28.25,18.56c.47-.81.19-1.84-.62-2.31-.81-.47-1.84-.19-2.31.62L4.19,53.49c-.84,1.35-1.28,2.9-1.28,4.48,0,4.51,3.47,8.19,7.95,8.49.1.02.2.03.3.03h54.23c.09,0,.19,0,.28-.02,4.5-.27,8-3.95,8-8.49,0-1.59-.44-3.14-1.29-4.5Z"/>
        <path class="cls-7" d="M37.66,46.54c.93,0,1.69-.76,1.69-1.69v-23c0-.93-.76-1.69-1.69-1.69s-1.69.75-1.69,1.69v23c0,.93.76,1.69,1.69,1.69ZM37.66,54.47c.96,0,1.75-.78,1.75-1.75s-.78-1.75-1.75-1.75-1.74.78-1.74,1.75.78,1.75,1.74,1.75ZM71.76,52.85s-.04-.07-.06-.11L45.21,6.84c-1.48-2.81-4.36-4.56-7.54-4.56s-6.08,1.76-7.55,4.6c-.43.83-.11,1.85.72,2.28.83.43,1.85.11,2.28-.72.89-1.71,2.64-2.78,4.56-2.78s3.67,1.06,4.56,2.78c.01.02.02.05.04.07l26.41,45.75c.04.09.09.18.14.26.55.85.85,1.81.85,2.82,0,2.78-2.18,5.01-4.96,5.12-.04,0-.09,0-.14.01H10.75s-.1-.01-.15-.01c-2.76-.16-4.93-2.36-4.93-5.12,0-.95.27-1.88.8-2.75L27.63,17.94c.47-.81.19-1.84-.62-2.31-.81-.47-1.84-.19-2.31.62L3.56,52.86c-.84,1.35-1.28,2.9-1.28,4.48,0,4.51,3.47,8.19,7.95,8.49.1.02.2.03.3.03h54.23c.09,0,.19,0,.28-.02,4.5-.27,8-3.95,8-8.49,0-1.59-.44-3.14-1.29-4.5Z"/>
        <path class="cls-4" d="M37.04,45.92c.93,0,1.69-.76,1.69-1.69v-23c0-.93-.76-1.69-1.69-1.69s-1.69.75-1.69,1.69v23c0,.93.76,1.69,1.69,1.69ZM37.04,53.84c.96,0,1.75-.78,1.75-1.75s-.78-1.75-1.75-1.75-1.74.78-1.74,1.75.78,1.75,1.74,1.75ZM71.13,52.22s-.04-.07-.06-.11L44.58,6.22c-1.48-2.81-4.36-4.56-7.54-4.56s-6.08,1.76-7.55,4.6c-.43.83-.11,1.85.72,2.28.83.43,1.85.11,2.28-.72.89-1.71,2.64-2.78,4.56-2.78s3.67,1.06,4.56,2.78c.01.02.02.05.04.07l26.41,45.75c.04.09.09.18.14.26.55.85.85,1.81.85,2.82,0,2.78-2.18,5.01-4.96,5.12-.04,0-.09,0-.14.01H10.12s-.1-.01-.15-.01c-2.76-.16-4.93-2.36-4.93-5.12,0-.95.27-1.88.8-2.75L27,17.31c.47-.81.19-1.84-.62-2.31-.81-.47-1.84-.19-2.31.62L2.94,52.24c-.84,1.35-1.28,2.9-1.28,4.48,0,4.51,3.47,8.19,7.95,8.49.1.02.2.03.3.03h54.23c.09,0,.19,0,.28-.02,4.5-.27,8-3.95,8-8.49,0-1.59-.44-3.14-1.29-4.5Z"/>
        <path class="cls-6" d="M36.41,45.29c.93,0,1.69-.76,1.69-1.69v-23c0-.93-.76-1.69-1.69-1.69s-1.69.75-1.69,1.69v23c0,.93.76,1.69,1.69,1.69ZM36.41,53.22c.96,0,1.75-.78,1.75-1.75s-.78-1.75-1.75-1.75-1.74.78-1.74,1.75.78,1.75,1.74,1.75ZM70.51,51.6s-.04-.07-.06-.11L43.96,5.59c-1.48-2.81-4.36-4.56-7.54-4.56s-6.08,1.76-7.55,4.6c-.43.83-.11,1.85.72,2.28.83.43,1.85.11,2.28-.72.89-1.71,2.64-2.78,4.56-2.78s3.67,1.06,4.56,2.78c.01.02.02.05.04.07l26.41,45.75c.04.09.09.18.14.26.55.85.85,1.81.85,2.82,0,2.78-2.18,5.01-4.96,5.12-.04,0-.09,0-.14.01H9.5s-.1-.01-.15-.01c-2.76-.16-4.93-2.36-4.93-5.12,0-.95.27-1.88.8-2.75L26.38,16.69c.47-.81.19-1.84-.62-2.31-.81-.47-1.84-.19-2.31.62L2.31,51.61c-.84,1.35-1.28,2.9-1.28,4.48,0,4.51,3.47,8.19,7.95,8.49.1.02.2.03.3.03h54.23c.09,0,.19,0,.28-.02,4.5-.27,8-3.95,8-8.49,0-1.59-.44-3.14-1.29-4.5Z"/>
        <path class="cls-5" d="M35.79,44.67c.93,0,1.69-.76,1.69-1.69v-23c0-.93-.76-1.69-1.69-1.69s-1.69.75-1.69,1.69v23c0,.93.76,1.69,1.69,1.69ZM35.79,52.59c.96,0,1.75-.78,1.75-1.75s-.78-1.75-1.75-1.75-1.74.78-1.74,1.75.78,1.75,1.74,1.75ZM69.88,50.97s-.04-.07-.06-.11L43.33,4.97c-1.48-2.81-4.36-4.56-7.54-4.56s-6.08,1.76-7.55,4.6c-.43.83-.11,1.85.72,2.28.83.43,1.85.11,2.28-.72.89-1.71,2.64-2.78,4.56-2.78s3.67,1.06,4.56,2.78c.01.02.02.05.04.07l26.41,45.75c.04.09.09.18.14.26.55.84.85,1.81.85,2.82,0,2.78-2.18,5.03-4.96,5.12-.04,0-.09,0-.14.01H8.87s-.1,0-.15-.01c-2.77-.11-4.93-2.36-4.93-5.12,0-.95.27-1.88.8-2.75L25.75,16.06c.47-.81.19-1.84-.62-2.31-.81-.47-1.84-.19-2.31.62L1.69,50.99c-.84,1.35-1.28,2.9-1.28,4.48,0,4.51,3.47,8.19,7.95,8.49.1.02.2.03.3.03h54.23c.09,0,.19,0,.28-.02,4.5-.27,8-3.95,8-8.49,0-1.59-.44-3.14-1.29-4.5Z"/>
      </g>
      <path class="cls-2" d="M69.48,50.56s-.04-.07-.06-.11L42.92,4.56c-1.48-2.81-4.36-4.56-7.54-4.56s-6.08,1.76-7.55,4.6c-.43.83-.11,1.85.72,2.28.83.43,1.85.11,2.28-.72.89-1.71,2.64-2.78,4.56-2.78s3.67,1.06,4.56,2.78c.01.02.02.05.04.07l26.41,45.75c.04.09.09.18.14.26.55.84.85,1.81.85,2.82,0,2.78-2.18,5.03-4.96,5.12-.04,0-.09,0-.14.01H8.46s-.1,0-.15-.01c-2.77-.11-4.93-2.36-4.93-5.12,0-.95.27-1.88.8-2.75L25.35,15.66c.47-.81.19-1.84-.62-2.31-.81-.47-1.84-.19-2.31.62L1.28,50.58c-.84,1.35-1.28,2.9-1.28,4.48,0,4.51,3.47,8.19,7.95,8.49.1.02.2.03.3.03h54.23c.09,0,.19,0,.28-.02,4.5-.27,8-3.95,8-8.49,0-1.59-.44-3.14-1.29-4.5ZM35.38,44.26c.93,0,1.69-.76,1.69-1.69v-23c0-.93-.76-1.69-1.69-1.69s-1.69.75-1.69,1.69v23c0,.93.76,1.69,1.69,1.69ZM35.38,52.19c.96,0,1.75-.78,1.75-1.75s-.78-1.75-1.75-1.75-1.74.78-1.74,1.75.78,1.75,1.74,1.75Z"/>
    </g>
  </g>
</svg>