<?xml version="1.0" encoding="UTF-8"?>
<svg id="Layer_2" data-name="Layer 2" xmlns="http://www.w3.org/2000/svg" xmlns:xlink="http://www.w3.org/1999/xlink" viewBox="0 0 62.58 73.51">
  <defs>
    <style>
      .cls-1 {
        opacity: .14;
      }

      .cls-2 {
        fill: url(#linear-gradient-2);
      }

      .cls-3 {
        opacity: .21;
      }

      .cls-4 {
        opacity: .42;
      }

      .cls-5 {
        opacity: .55;
      }

      .cls-6 {
        opacity: .48;
      }

      .cls-7 {
        opacity: .35;
      }

      .cls-8 {
        fill: url(#linear-gradient-3);
      }

      .cls-9 {
        opacity: .08;
      }

      .cls-10 {
        opacity: .28;
      }

      .cls-11 {
        opacity: 0;
      }

      .cls-12 {
        fill: url(#linear-gradient);
      }
    </style>
    <linearGradient id="linear-gradient" x1="1.04" y1="9.73" x2="56" y2="64.69" gradientUnits="userSpaceOnUse">
      <stop offset="0" stop-color="#056696"/>
      <stop offset="1" stop-color="#80dbff"/>
    </linearGradient>
    <linearGradient id="linear-gradient-2" x1="22.41" y1="-.55" x2="34.54" y2="11.57" gradientUnits="userSpaceOnUse">
      <stop offset="0" stop-color="#79949c"/>
      <stop offset="1" stop-color="#b6c7c8"/>
    </linearGradient>
    <linearGradient id="linear-gradient-3" x1="1.81" y1="11.02" x2="55.36" y2="64.57" gradientUnits="userSpaceOnUse">
      <stop offset="0" stop-color="#2c2e2c"/>
      <stop offset=".99" stop-color="#000"/>
    </linearGradient>
  </defs>
  <g id="Layer_1-2" data-name="Layer 1">
    <g>
      <path class="cls-12" d="M55.86,59.28c0,3.92-3.18,7.1-7.1,7.1H8.87c-3.92,0-7.1-3.18-7.1-7.1V15.74c0-3.92,3.18-7.1,7.1-7.1h39.89c3.92,0,7.1,3.18,7.1,7.1v43.54Z"/>
      <rect class="cls-2" x="20.37" y="2.33" width="16.34" height="6.5"/>
      <g>
        <path class="cls-11" d="M30.96,25.47c-.89-.27-1.84.24-2.1,1.13l-4.59,15.24c-.15.51-.06,1.07.26,1.5.32.43.82.68,1.36.68h12.72l-4.32,11.29-1.73-3.58c-.41-.84-1.41-1.19-2.26-.79-.84.41-1.19,1.42-.79,2.26l3.42,7.11s0,0,0,.01c0,0,0,.01,0,.02.04.07.09.12.13.19.04.06.08.13.13.18.06.07.14.12.21.18.05.04.09.09.15.12.08.05.17.08.26.12.05.02.11.05.16.07.15.04.31.07.46.07h0s.04,0,.06,0c.03,0,.05-.02.08-.02.11,0,.22-.03.33-.06.05-.01.1-.03.15-.05.04-.02.09-.03.13-.05l7.23-3.68c.83-.42,1.16-1.44.74-2.27-.42-.83-1.44-1.16-2.27-.74l-3.32,1.69,5.03-13.14c.2-.52.13-1.1-.19-1.56-.31-.46-.83-.73-1.39-.73h-12.91l3.94-13.06c.27-.89-.24-1.84-1.13-2.11ZM41.1,12.89h-14.22v-1.76c0-1.29,1.05-2.35,2.35-2.35h9.53c1.3,0,2.35,1.05,2.35,2.35v1.76ZM53.45,12.89h-8.97v-1.76c0-3.16-2.57-5.72-5.73-5.72h-9.53c-3.16,0-5.72,2.57-5.72,5.72v1.76h-8.97c-5.03,0-9.12,4.09-9.12,9.12,0,.93.75,1.69,1.69,1.69s1.69-.76,1.69-1.69c0-3.17,2.58-5.74,5.74-5.74h38.93c3.17,0,5.74,2.58,5.74,5.74v42.37c0,3.17-2.58,5.74-5.74,5.74H14.53c-3.17,0-5.74-2.58-5.74-5.74v-30.75c0-.93-.76-1.69-1.69-1.69s-1.69.76-1.69,1.69v30.75c0,5.03,4.09,9.12,9.12,9.12h38.93c5.03,0,9.12-4.09,9.12-9.12V22.02c0-5.03-4.09-9.12-9.12-9.12Z"/>
        <path class="cls-9" d="M30.33,24.84c-.89-.27-1.84.24-2.1,1.13l-4.59,15.24c-.15.51-.06,1.07.26,1.5.32.43.82.68,1.36.68h12.72l-4.32,11.29-1.73-3.58c-.41-.84-1.41-1.19-2.26-.79-.84.41-1.19,1.42-.79,2.26l3.42,7.11s0,0,0,.01c0,0,0,.01,0,.02.03.07.09.12.13.19.04.06.08.13.13.18.06.07.14.12.21.18.05.04.09.09.15.12.08.05.17.08.26.12.05.02.1.05.16.07.15.05.31.07.46.07h0s.04,0,.06,0c.03,0,.05-.02.08-.02.11,0,.22-.03.33-.06.05-.02.1-.03.15-.05.04-.02.09-.03.13-.05l7.23-3.68c.83-.42,1.16-1.44.74-2.27-.42-.83-1.44-1.16-2.27-.74l-3.32,1.69,5.03-13.14c.2-.52.13-1.1-.19-1.56-.32-.46-.83-.73-1.39-.73h-12.91l3.94-13.06c.27-.89-.24-1.84-1.13-2.11ZM40.48,12.27h-14.22v-1.76c0-1.29,1.05-2.35,2.35-2.35h9.53c1.3,0,2.35,1.05,2.35,2.35v1.76ZM52.83,12.27h-8.97v-1.76c0-3.16-2.57-5.72-5.73-5.72h-9.53c-3.16,0-5.72,2.57-5.72,5.72v1.76h-8.97c-5.03,0-9.12,4.09-9.12,9.12,0,.93.75,1.69,1.69,1.69s1.69-.76,1.69-1.69c0-3.17,2.58-5.74,5.74-5.74h38.93c3.17,0,5.74,2.58,5.74,5.74v42.37c0,3.17-2.58,5.74-5.74,5.74H13.9c-3.17,0-5.74-2.58-5.74-5.74v-30.75c0-.93-.76-1.69-1.69-1.69s-1.69.76-1.69,1.69v30.75c0,5.03,4.09,9.12,9.12,9.12h38.93c5.03,0,9.12-4.09,9.12-9.12V21.39c0-5.03-4.09-9.12-9.12-9.12Z"/>
        <path class="cls-1" d="M29.71,24.22c-.89-.27-1.84.24-2.1,1.13l-4.59,15.24c-.15.51-.06,1.07.26,1.5.32.43.82.68,1.36.68h12.72l-4.32,11.29-1.73-3.58c-.41-.84-1.41-1.19-2.26-.79-.84.41-1.19,1.42-.79,2.26l3.42,7.11s0,0,0,.01c0,0,0,.01,0,.02.03.07.09.12.13.19.04.06.08.13.13.18.06.07.14.12.21.18.05.04.09.09.15.12.08.05.17.08.26.12.05.02.1.05.16.07.15.05.31.07.46.07h0s.04,0,.06,0c.03,0,.05-.02.08-.02.11,0,.22-.03.33-.06.05-.02.1-.03.15-.05.04-.02.09-.03.13-.05l7.23-3.68c.83-.42,1.16-1.44.74-2.27-.42-.83-1.44-1.16-2.27-.74l-3.32,1.69,5.03-13.14c.2-.52.13-1.1-.19-1.56-.32-.46-.83-.73-1.39-.73h-12.91l3.94-13.06c.27-.89-.24-1.84-1.13-2.11ZM39.85,11.64h-14.22v-1.76c0-1.29,1.05-2.35,2.35-2.35h9.53c1.3,0,2.35,1.05,2.35,2.35v1.76ZM52.2,11.64h-8.97v-1.76c0-3.16-2.57-5.72-5.73-5.72h-9.53c-3.16,0-5.72,2.57-5.72,5.72v1.76h-8.97c-5.03,0-9.12,4.09-9.12,9.12,0,.93.75,1.69,1.69,1.69s1.69-.76,1.69-1.69c0-3.17,2.58-5.74,5.74-5.74h38.93c3.17,0,5.74,2.58,5.74,5.74v42.37c0,3.17-2.58,5.74-5.74,5.74H13.28c-3.17,0-5.74-2.58-5.74-5.74v-30.75c0-.93-.76-1.69-1.69-1.69s-1.69.76-1.69,1.69v30.75c0,5.03,4.09,9.12,9.12,9.12h38.93c5.03,0,9.12-4.09,9.12-9.12V20.77c0-5.03-4.09-9.12-9.12-9.12Z"/>
        <path class="cls-3" d="M29.08,23.59c-.89-.27-1.84.24-2.1,1.13l-4.59,15.24c-.15.51-.06,1.07.26,1.5.32.43.82.68,1.36.68h12.72l-4.32,11.29-1.73-3.58c-.41-.84-1.41-1.19-2.26-.79-.84.41-1.19,1.42-.79,2.26l3.42,7.11s0,0,0,.01c0,0,0,.01,0,.02.03.07.09.12.13.19.04.06.08.13.13.18.06.07.14.12.21.18.05.04.09.09.15.12.08.05.17.08.26.12.05.02.1.05.16.07.15.05.31.07.46.07h0s.04,0,.06,0c.03,0,.05-.02.08-.02.11,0,.22-.03.33-.06.05-.02.1-.03.15-.05.04-.02.09-.03.13-.05l7.23-3.68c.83-.42,1.16-1.44.74-2.27-.42-.83-1.44-1.16-2.27-.74l-3.32,1.69,5.03-13.14c.2-.52.13-1.1-.19-1.56-.32-.46-.83-.73-1.39-.73h-12.91l3.94-13.06c.27-.89-.24-1.84-1.13-2.11ZM39.23,11.02h-14.22v-1.76c0-1.29,1.05-2.35,2.35-2.35h9.53c1.3,0,2.35,1.05,2.35,2.35v1.76ZM51.58,11.02h-8.97v-1.76c0-3.16-2.57-5.72-5.73-5.72h-9.53c-3.16,0-5.72,2.57-5.72,5.72v1.76h-8.97c-5.03,0-9.12,4.09-9.12,9.12,0,.93.75,1.69,1.69,1.69s1.69-.76,1.69-1.69c0-3.17,2.58-5.74,5.74-5.74h38.93c3.17,0,5.74,2.58,5.74,5.74v42.37c0,3.17-2.58,5.74-5.74,5.74H12.65c-3.17,0-5.74-2.58-5.74-5.74v-30.75c0-.93-.76-1.69-1.69-1.69s-1.69.76-1.69,1.69v30.75c0,5.03,4.09,9.12,9.12,9.12h38.93c5.03,0,9.12-4.09,9.12-9.12V20.14c0-5.03-4.09-9.12-9.12-9.12Z"/>
        <path class="cls-10" d="M28.46,22.97c-.89-.27-1.84.24-2.1,1.13l-4.59,15.24c-.15.51-.06,1.07.26,1.5.32.43.82.68,1.36.68h12.72l-4.32,11.29-1.73-3.58c-.41-.84-1.41-1.19-2.26-.79-.84.41-1.19,1.42-.79,2.26l3.42,7.11s0,0,0,.01c0,0,0,.01,0,.02.03.07.09.12.13.19.04.06.08.13.13.18.06.07.14.12.21.18.05.04.09.09.15.12.08.05.17.08.26.12.05.02.1.05.16.07.15.05.31.07.46.07h0s.04,0,.06,0c.03,0,.05-.02.08-.02.11,0,.22-.03.33-.06.05-.02.1-.03.15-.05.04-.02.09-.03.13-.05l7.23-3.68c.83-.42,1.16-1.44.74-2.27-.42-.83-1.44-1.16-2.27-.74l-3.32,1.69,5.03-13.14c.2-.52.13-1.1-.19-1.56-.32-.46-.83-.73-1.39-.73h-12.91l3.94-13.06c.27-.89-.24-1.84-1.13-2.11ZM38.6,10.39h-14.22v-1.76c0-1.29,1.05-2.35,2.35-2.35h9.53c1.3,0,2.35,1.05,2.35,2.35v1.76ZM50.95,10.39h-8.97v-1.76c0-3.16-2.57-5.72-5.73-5.72h-9.53c-3.16,0-5.72,2.57-5.72,5.72v1.76h-8.97c-5.03,0-9.12,4.09-9.12,9.12,0,.93.75,1.69,1.69,1.69s1.69-.76,1.69-1.69c0-3.17,2.58-5.74,5.74-5.74h38.93c3.17,0,5.74,2.58,5.74,5.74v42.37c0,3.17-2.58,5.74-5.74,5.74H12.03c-3.17,0-5.74-2.58-5.74-5.74v-30.75c0-.93-.76-1.69-1.69-1.69s-1.69.76-1.69,1.69v30.75c0,5.03,4.09,9.12,9.12,9.12h38.93c5.03,0,9.12-4.09,9.12-9.12V19.52c0-5.03-4.09-9.12-9.12-9.12Z"/>
        <path class="cls-7" d="M27.83,22.34c-.89-.27-1.84.24-2.1,1.13l-4.59,15.24c-.15.51-.06,1.07.26,1.5.32.43.82.68,1.36.68h12.72l-4.32,11.29-1.73-3.58c-.41-.84-1.41-1.19-2.26-.79-.84.41-1.19,1.42-.79,2.26l3.42,7.11s0,0,0,.01c0,0,0,.01,0,.02.03.07.09.12.13.19.04.06.08.13.13.18.06.07.14.12.21.18.05.04.09.09.15.12.08.05.17.08.26.12.05.02.1.05.16.07.15.05.31.07.46.07h0s.04,0,.06,0c.03,0,.05-.02.08-.02.11,0,.22-.03.33-.06.05-.02.1-.03.15-.05.04-.02.09-.03.13-.05l7.23-3.68c.83-.42,1.16-1.44.74-2.27-.42-.83-1.44-1.16-2.27-.74l-3.32,1.69,5.03-13.14c.2-.52.13-1.1-.19-1.56-.32-.46-.83-.73-1.39-.73h-12.91l3.94-13.06c.27-.89-.24-1.84-1.13-2.11ZM37.98,9.77h-14.22v-1.76c0-1.29,1.05-2.35,2.35-2.35h9.53c1.3,0,2.35,1.05,2.35,2.35v1.76ZM50.33,9.77h-8.97v-1.76c0-3.16-2.57-5.72-5.73-5.72h-9.53c-3.16,0-5.72,2.57-5.72,5.72v1.76h-8.97c-5.03,0-9.12,4.09-9.12,9.12,0,.93.75,1.69,1.69,1.69s1.69-.76,1.69-1.69c0-3.17,2.58-5.74,5.74-5.74h38.93c3.17,0,5.74,2.58,5.74,5.74v42.37c0,3.17-2.58,5.74-5.74,5.74H11.4c-3.17,0-5.74-2.58-5.74-5.74v-30.75c0-.93-.76-1.69-1.69-1.69s-1.69.76-1.69,1.69v30.75c0,5.03,4.09,9.12,9.12,9.12h38.93c5.03,0,9.12-4.09,9.12-9.12V18.89c0-5.03-4.09-9.12-9.12-9.12Z"/>
        <path class="cls-4" d="M27.21,21.72c-.89-.27-1.84.24-2.1,1.13l-4.59,15.24c-.15.51-.06,1.07.26,1.5.32.43.82.68,1.36.68h12.72l-4.32,11.29-1.73-3.58c-.41-.84-1.41-1.19-2.26-.79-.84.41-1.19,1.42-.79,2.26l3.42,7.11s0,0,0,.01c0,0,0,.01,0,.02.03.07.09.12.13.19.04.06.08.13.13.18.06.07.14.12.21.18.05.04.09.09.15.12.08.05.17.08.26.12.05.02.1.05.16.07.15.05.31.07.46.07h0s.04,0,.06,0c.03,0,.05-.02.08-.02.11,0,.22-.03.33-.06.05-.02.1-.03.15-.05.04-.02.09-.03.13-.05l7.23-3.68c.83-.42,1.16-1.44.74-2.27-.42-.83-1.44-1.16-2.27-.74l-3.32,1.69,5.03-13.14c.2-.52.13-1.1-.19-1.56-.32-.46-.83-.73-1.39-.73h-12.91l3.94-13.06c.27-.89-.24-1.84-1.13-2.11ZM37.35,9.14h-14.22v-1.76c0-1.29,1.05-2.35,2.35-2.35h9.53c1.3,0,2.35,1.05,2.35,2.35v1.76ZM49.7,9.14h-8.97v-1.76c0-3.16-2.57-5.72-5.73-5.72h-9.53c-3.16,0-5.72,2.57-5.72,5.72v1.76h-8.97c-5.03,0-9.12,4.09-9.12,9.12,0,.93.75,1.69,1.69,1.69s1.69-.76,1.69-1.69c0-3.17,2.58-5.74,5.74-5.74h38.93c3.17,0,5.74,2.58,5.74,5.74v42.37c0,3.17-2.58,5.74-5.74,5.74H10.78c-3.17,0-5.74-2.58-5.74-5.74v-30.75c0-.93-.76-1.69-1.69-1.69s-1.69.76-1.69,1.69v30.75c0,5.03,4.09,9.12,9.12,9.12h38.93c5.03,0,9.12-4.09,9.12-9.12V18.27c0-5.03-4.09-9.12-9.12-9.12Z"/>
        <path class="cls-6" d="M26.58,21.09c-.89-.27-1.84.24-2.1,1.13l-4.59,15.24c-.15.51-.06,1.07.26,1.5.32.43.82.68,1.36.68h12.72l-4.32,11.29-1.73-3.58c-.41-.84-1.41-1.19-2.26-.79-.84.41-1.19,1.42-.79,2.26l3.42,7.11s0,0,0,.01c0,0,0,.01,0,.02.03.07.09.12.13.19.04.06.08.13.13.18.06.07.14.12.21.18.05.04.09.09.15.12.08.05.17.08.26.12.05.02.1.05.16.07.15.05.31.07.46.07h0s.04,0,.06,0c.03,0,.05-.02.08-.02.11,0,.22-.03.33-.06.05-.02.1-.03.15-.05.04-.02.09-.03.13-.05l7.23-3.68c.83-.42,1.16-1.44.74-2.27-.42-.83-1.44-1.16-2.27-.74l-3.32,1.69,5.03-13.14c.2-.52.13-1.1-.19-1.56-.32-.46-.83-.73-1.39-.73h-12.91l3.94-13.06c.27-.89-.24-1.84-1.13-2.11ZM36.73,8.52h-14.22v-1.76c0-1.29,1.05-2.35,2.35-2.35h9.53c1.3,0,2.35,1.05,2.35,2.35v1.76ZM49.08,8.52h-8.97v-1.76c0-3.16-2.57-5.72-5.73-5.72h-9.53c-3.16,0-5.72,2.57-5.72,5.72v1.76h-8.97c-5.03,0-9.12,4.09-9.12,9.12,0,.93.75,1.69,1.69,1.69s1.69-.76,1.69-1.69c0-3.17,2.58-5.74,5.74-5.74h38.93c3.17,0,5.74,2.58,5.74,5.74v42.37c0,3.17-2.58,5.74-5.74,5.74H10.15c-3.17,0-5.74-2.58-5.74-5.74v-30.75c0-.93-.76-1.69-1.69-1.69s-1.69.76-1.69,1.69v30.75c0,5.03,4.09,9.12,9.12,9.12h38.93c5.03,0,9.12-4.09,9.12-9.12V17.64c0-5.03-4.09-9.12-9.12-9.12Z"/>
        <path class="cls-5" d="M25.96,20.47c-.89-.27-1.84.24-2.1,1.13l-4.59,15.24c-.15.51-.06,1.07.26,1.5.32.43.82.68,1.36.68h12.72l-4.32,11.29-1.73-3.58c-.41-.84-1.41-1.19-2.26-.79-.84.41-1.19,1.42-.79,2.26l3.42,7.11s0,0,0,.01c0,0,0,.01,0,.02.04.07.09.12.13.19.04.06.08.13.13.18.06.07.14.12.21.18.05.04.09.09.15.12.08.05.17.08.26.12.05.02.11.05.16.07.15.04.31.07.46.07h0s.04,0,.06,0c.03,0,.05-.02.08-.02.11,0,.22-.03.33-.06.05-.01.1-.03.15-.05.04-.02.09-.03.13-.05l7.23-3.68c.83-.42,1.16-1.44.74-2.27-.42-.83-1.44-1.16-2.27-.74l-3.32,1.69,5.03-13.14c.2-.52.13-1.1-.19-1.56-.31-.46-.83-.73-1.39-.73h-12.91l3.94-13.06c.27-.89-.24-1.84-1.13-2.11ZM36.1,7.89h-14.22v-1.76c0-1.29,1.05-2.35,2.35-2.35h9.53c1.3,0,2.35,1.05,2.35,2.35v1.76ZM48.45,7.89h-8.97v-1.76c0-3.16-2.57-5.72-5.73-5.72h-9.53c-3.16,0-5.72,2.57-5.72,5.72v1.76h-8.97C4.5,7.89.41,11.99.41,17.02c0,.93.75,1.69,1.69,1.69s1.69-.76,1.69-1.69c0-3.17,2.58-5.74,5.74-5.74h38.93c3.17,0,5.74,2.58,5.74,5.74v42.37c0,3.17-2.58,5.74-5.74,5.74H9.53c-3.17,0-5.74-2.58-5.74-5.74v-30.75c0-.93-.76-1.69-1.69-1.69s-1.69.76-1.69,1.69v30.75c0,5.03,4.09,9.12,9.12,9.12h38.93c5.03,0,9.12-4.09,9.12-9.12V17.02c0-5.03-4.09-9.12-9.12-9.12Z"/>
      </g>
      <path class="cls-8" d="M48.05,7.49h-8.97v-1.76c0-3.16-2.57-5.72-5.73-5.72h-9.53c-3.16,0-5.72,2.57-5.72,5.72v1.76h-8.97C4.09,7.49,0,11.58,0,16.61c0,.93.75,1.69,1.69,1.69s1.69-.76,1.69-1.69c0-3.17,2.58-5.74,5.74-5.74h38.93c3.17,0,5.74,2.58,5.74,5.74v42.37c0,3.17-2.58,5.74-5.74,5.74H9.12c-3.17,0-5.74-2.58-5.74-5.74v-30.75c0-.93-.76-1.69-1.69-1.69s-1.69.76-1.69,1.69v30.75c0,5.03,4.09,9.12,9.12,9.12h38.93c5.03,0,9.12-4.09,9.12-9.12V16.61c0-5.03-4.09-9.12-9.12-9.12ZM35.7,7.49h-14.22v-1.76c0-1.29,1.05-2.35,2.35-2.35h9.53c1.29,0,2.35,1.05,2.35,2.35v1.76ZM25.55,20.06c-.89-.27-1.84.24-2.1,1.13l-4.59,15.24c-.15.51-.06,1.07.26,1.5.32.43.82.68,1.36.68h12.72l-4.32,11.29-1.73-3.58c-.41-.84-1.41-1.19-2.26-.79-.84.41-1.19,1.42-.79,2.26l3.42,7.11s0,0,0,.01c0,0,0,.01,0,.02.04.07.09.13.13.19.04.06.08.13.13.18.06.07.14.12.21.18.05.04.09.09.15.12.08.05.17.08.26.12.05.02.11.05.16.07.15.04.31.07.46.07h0s.04,0,.06,0c.03,0,.05-.02.08-.02.11-.01.22-.03.33-.06.05-.01.1-.03.15-.06.04-.02.09-.02.13-.05l7.23-3.68c.83-.42,1.16-1.44.74-2.27-.42-.83-1.44-1.16-2.27-.74l-3.32,1.69,5.03-13.14c.2-.52.13-1.1-.19-1.56-.31-.46-.83-.73-1.39-.73h-12.91l3.94-13.06c.27-.9-.24-1.84-1.13-2.11Z"/>
    </g>
  </g>
</svg>