<?xml version="1.0" encoding="UTF-8"?>
<svg id="Layer_2" data-name="Layer 2" xmlns="http://www.w3.org/2000/svg" viewBox="0 0 27.35 25.49">
  <defs>
    <style>
      .cls-1 {
        fill-rule: evenodd;
      }
    </style>
  </defs>
  <g id="_1" data-name="1">
    <path class="cls-1" d="M2.28,13.86h1.95L12.77,1.52c-.07-.14-.11-.29-.11-.46,0-.58.48-1.06,1.07-1.06s1.06.48,1.06,1.06c0,.22-.07.42-.18.58l8.51,12.22h1.96c.62,0,1.19.25,1.6.66.42.42.68,1,.68,1.62v7.06c0,.62-.26,1.2-.68,1.62-.41.4-.98.67-1.6.67H2.28c-.64,0-1.2-.26-1.62-.67-.42-.41-.66-1-.66-1.62v-7.06c0-.62.25-1.21.66-1.62.42-.41.98-.66,1.62-.66h0ZM14.07,2.06c-.11.04-.23.07-.35.07-.16,0-.33-.04-.47-.11L5.06,13.86h17.22L14.07,2.06ZM24.56,14.75c-.18-.18-.43-.29-.7-.29s-.51.11-.69.29c-.18.18-.29.43-.29.69s.11.53.29.71c.18.18.41.29.69.29s.52-.11.7-.29h0c.18-.18.29-.43.29-.71s-.11-.51-.29-.69h0ZM4.04,14.73c-.18-.18-.43-.29-.69-.29-.28,0-.53.11-.71.29-.18.18-.29.43-.29.71s.11.53.29.71c.18.18.43.29.71.29.26,0,.51-.11.69-.29h0c.18-.18.29-.43.29-.71s-.11-.53-.29-.71h0ZM5.53,21.39h.01c0,.55-.15.97-.43,1.25-.28.29-.68.43-1.19.43s-.94-.18-1.24-.53c-.32-.34-.47-.84-.47-1.47v-1.48c0-.62.15-1.12.46-1.47.32-.36.72-.54,1.24-.54s.91.15,1.2.43c.28.29.42.7.43,1.26v.02h-.72c0-.39-.08-.68-.22-.86-.15-.18-.39-.27-.69-.27s-.55.12-.72.37c-.17.23-.25.59-.25,1.05v1.49c0,.46.08.82.26,1.07.17.25.42.37.72.37s.54-.1.68-.28c.14-.18.22-.47.22-.85h.71ZM7.09,22.43h2.08v.57h-2.82v-5.32h.75v4.76ZM13.21,21.07c0,.64-.17,1.13-.5,1.48-.32.35-.76.53-1.31.53s-.97-.18-1.29-.53c-.32-.34-.48-.84-.48-1.48v-1.46c0-.63.16-1.13.48-1.48.32-.36.74-.54,1.29-.54s.98.18,1.31.54c.33.35.5.84.5,1.48v1.46ZM12.47,19.6c0-.47-.08-.82-.28-1.06-.18-.24-.45-.36-.79-.36s-.58.12-.76.36c-.18.25-.27.59-.27,1.06v1.46c0,.47.1.83.27,1.06.18.25.43.36.76.36s.61-.11.79-.36c.19-.23.28-.59.28-1.06v-1.46ZM16.49,21.66c0-.26-.07-.46-.21-.62-.14-.16-.39-.3-.75-.43-.5-.15-.88-.34-1.16-.6-.27-.25-.4-.58-.4-.98s.14-.76.44-1.04c.31-.26.69-.4,1.16-.4.5,0,.9.15,1.19.47.31.31.46.68.44,1.12v.03h-.72c0-.32-.08-.57-.23-.76-.17-.19-.39-.29-.68-.29s-.5.08-.64.23c-.15.16-.23.37-.23.62,0,.22.08.42.25.57.15.16.43.3.79.43.5.15.86.36,1.12.62.25.27.37.6.37,1.01,0,.45-.15.79-.44,1.04-.3.26-.7.39-1.19.39s-.88-.14-1.25-.41c-.36-.29-.52-.68-.51-1.19v-.03h.72c0,.36.1.64.29.81.2.17.44.27.75.27.28,0,.5-.09.65-.24.16-.15.23-.37.23-.62h0ZM20.75,20.51h-1.97v1.92h2.29v.57h-3.03v-5.32h3v.56h-2.27v1.73h1.97v.55ZM21.76,23v-5.32h1.46c.57,0,1.02.21,1.38.64.36.43.54.97.54,1.64v.76c0,.67-.18,1.22-.54,1.65-.36.41-.81.64-1.38.64h-1.46ZM22.5,18.23v4.2h.69c.37,0,.66-.15.88-.48.21-.32.32-.73.32-1.23v-.77c0-.5-.11-.92-.32-1.23-.22-.32-.51-.48-.88-.48h-.69Z"/>
  </g>
</svg>