<?xml version="1.0" encoding="UTF-8"?>
<svg id="Layer_2" data-name="Layer 2" xmlns="http://www.w3.org/2000/svg" viewBox="0 0 21.68 27.36">
  <defs>
    <style>
      .cls-1 {
        fill-rule: evenodd;
      }
    </style>
  </defs>
  <g id="_1" data-name="1">
    <path class="cls-1" d="M6.01,25.38l.04-5.94c1.85-.51,3.43-2.52,3.36-5.95,1.16,2.04,2.83,2.92,4.34,2.85l1.74,5.63-3.33,2.68c-.1.08-.13.2-.07.29.06.1.19.13.32.09l9.06-2.83c.13-.03.22-.14.21-.25,0-.1-.1-.19-.22-.2l-4.17-.3-1.74-5.68c2.37-1.54,3.26-5.99-1.6-11.84-2.01.67-4.01,1.36-6.02,2.03-.01.59,0,1.16.02,1.69-2.09.06-4.17.1-6.26.16-2.4,7.11-.19,10.93,2.47,11.64v5.89s-4,1.56-4,1.56c-.12.05-.18.16-.15.26.03.11.15.18.28.18h9.49c.13,0,.25-.07.28-.18.03-.11-.03-.22-.15-.26l-3.9-1.53ZM8.13,1.95c.28,0,.53.11.72.29.17.18.29.43.29.72s-.12.53-.29.71c-.18.18-.44.29-.72.29s-.53-.11-.71-.29c-.18-.18-.29-.43-.29-.71s.11-.53.29-.72c.18-.18.43-.29.71-.29h0ZM4.8,3.73c.28,0,.53.11.71.29.18.18.29.44.29.72s-.11.53-.29.71c-.18.18-.43.29-.71.29s-.53-.11-.71-.29c-.18-.18-.29-.43-.29-.71s.11-.53.29-.72c.18-.18.43-.29.71-.29h0ZM3.89,0c.28,0,.53.12.71.29.18.18.3.43.3.71s-.12.53-.3.71c-.18.18-.43.29-.71.29s-.53-.11-.71-.29c-.18-.18-.3-.43-.3-.71s.11-.53.3-.71c.18-.18.43-.29.71-.29h0Z"/>
  </g>
</svg>