<?xml version="1.0" encoding="UTF-8"?>
<svg id="Layer_2" data-name="Layer 2" xmlns="http://www.w3.org/2000/svg" xmlns:xlink="http://www.w3.org/1999/xlink" viewBox="0 0 76.79 71.58">
  <defs>
    <style>
      .cls-1 {
        opacity: .14;
      }

      .cls-2 {
        fill: url(#linear-gradient-2);
      }

      .cls-3 {
        opacity: .21;
      }

      .cls-4 {
        opacity: .42;
      }

      .cls-5 {
        opacity: .55;
      }

      .cls-6 {
        fill: url(#linear-gradient-4);
      }

      .cls-7 {
        opacity: .48;
      }

      .cls-8 {
        opacity: .35;
      }

      .cls-9 {
        fill: url(#linear-gradient-3);
      }

      .cls-10 {
        opacity: .08;
      }

      .cls-11 {
        opacity: .28;
      }

      .cls-12 {
        opacity: 0;
      }

      .cls-13 {
        fill: url(#linear-gradient);
      }
    </style>
    <linearGradient id="linear-gradient" x1="4.79" y1="4.66" x2="24.02" y2="23.89" gradientUnits="userSpaceOnUse">
      <stop offset="0" stop-color="#eb0a00"/>
      <stop offset="1" stop-color="#ff853b"/>
    </linearGradient>
    <linearGradient id="linear-gradient-2" x1="47.13" y1="4.66" x2="66.36" y2="23.89" xlink:href="#linear-gradient"/>
    <linearGradient id="linear-gradient-3" x1="13.63" y1="12.56" x2="58" y2="56.93" gradientUnits="userSpaceOnUse">
      <stop offset="0" stop-color="#c0c1c0"/>
      <stop offset=".2" stop-color="#d4d4d4"/>
      <stop offset=".49" stop-color="#ebeceb"/>
      <stop offset=".77" stop-color="#fafafa"/>
      <stop offset="1" stop-color="#fff"/>
    </linearGradient>
    <linearGradient id="linear-gradient-4" x1="7.07" y1="1.37" x2="64.3" y2="58.6" gradientUnits="userSpaceOnUse">
      <stop offset="0" stop-color="#2c2e2c"/>
      <stop offset=".99" stop-color="#000"/>
    </linearGradient>
  </defs>
  <g id="Layer_1-2" data-name="Layer 1">
    <g>
      <circle class="cls-13" cx="14.44" cy="14.3" r="12.86"/>
      <circle class="cls-2" cx="56.78" cy="14.3" r="12.86"/>
      <path class="cls-9" d="M35.75,4.7C17.91,6.8,10.57,17.36,7.39,25.12c-1,2.98-1.55,6.17-1.55,9.5,0,16.52,13.39,29.91,29.91,29.91s29.91-13.39,29.91-29.91c0-1.77-1.72-14-9.1-21.35-6.68-6.65-18.98-8.77-20.81-8.56Z"/>
      <g>
        <path class="cls-12" d="M65.84,40.2c0-.96-.78-1.74-1.75-1.74s-1.74.78-1.74,1.74.78,1.74,1.74,1.74,1.75-.78,1.75-1.74ZM41.1,15.66c-.93,0-1.69.76-1.69,1.69v22.91c0,.45.18.88.49,1.2l13.37,13.38c.33.33.76.49,1.19.49s.87-.17,1.2-.49c.66-.66.66-1.73,0-2.39l-12.88-12.88v-22.21c0-.93-.76-1.69-1.69-1.69ZM41.1,64.94c.96,0,1.74-.78,1.74-1.75s-.78-1.75-1.74-1.75-1.75.78-1.75,1.75.78,1.75,1.75,1.75ZM19.84,40.2c0-.96-.78-1.74-1.75-1.74s-1.74.78-1.74,1.74.78,1.74,1.74,1.74,1.75-.78,1.75-1.74ZM72.57,9.63c-5.42-5.42-14.12-5.64-19.8-.52-.15.14-.96.94-1.45,1.41-3.21-1.11-6.65-1.72-10.23-1.72s-6.99.6-10.25,1.73l-.09-.09c-.4-.41-1.13-1.14-1.24-1.24-5.69-5.23-14.43-5.05-19.9.42-2.72,2.71-4.21,6.33-4.21,10.17s1.5,7.45,4.21,10.17c.04.04.08.07.12.11l2.17,1.79c.43.36,1,.47,1.54.32.53-.15.96-.55,1.14-1.08.58-1.7,1.34-3.37,2.25-4.94,5-8.63,14.29-13.99,24.26-13.99,15.45,0,28.01,12.57,28.01,28.01s-12.56,28.01-28.01,28.01-28.01-12.56-28.01-28.01c0-.93-.76-1.69-1.69-1.69s-1.69.76-1.69,1.69c0,8.86,3.69,16.86,9.61,22.57l-2.7,3.19c-.6.71-.51,1.78.2,2.38.32.27.71.4,1.09.4.48,0,.96-.2,1.29-.6l2.67-3.15c5.32,4.14,11.99,6.61,19.23,6.61s13.91-2.47,19.23-6.61l2.67,3.16c.33.39.81.6,1.29.6.39,0,.78-.13,1.09-.4.71-.6.8-1.67.2-2.38l-2.7-3.19c5.91-5.71,9.61-13.71,9.61-22.57,0-3.12-.46-6.13-1.31-8.97.13-.12.28-.26.45-.42,1.1-1.01,1.34-1.24,1.46-1.37,5.14-5.68,4.91-14.38-.51-19.81ZM13.92,24.48c-.62,1.07-1.17,2.17-1.66,3.3l-.3-.25c-2.04-2.07-3.17-4.81-3.17-7.73s1.14-5.7,3.22-7.78c4.18-4.18,10.87-4.33,15.21-.33.04.04.13.13.25.24-5.58,2.7-10.36,7.03-13.55,12.55ZM70.6,27.14c-.09.09-.37.35-.68.64-3-6.93-8.42-12.58-15.19-15.86.16-.15.27-.26.31-.29,4.35-3.93,11-3.75,15.15.39,4.15,4.15,4.32,10.81.42,15.12Z"/>
        <path class="cls-10" d="M65.21,39.58c0-.96-.78-1.74-1.75-1.74s-1.74.78-1.74,1.74.78,1.74,1.74,1.74,1.75-.78,1.75-1.74ZM40.47,15.03c-.93,0-1.69.76-1.69,1.69v22.91c0,.45.18.88.49,1.2l13.37,13.38c.33.33.76.49,1.19.49s.87-.17,1.2-.49c.66-.66.66-1.73,0-2.39l-12.88-12.88v-22.21c0-.93-.76-1.69-1.69-1.69ZM40.47,64.32c.96,0,1.74-.78,1.74-1.75s-.78-1.75-1.74-1.75-1.75.78-1.75,1.75.78,1.75,1.75,1.75ZM19.22,39.58c0-.96-.78-1.74-1.75-1.74s-1.74.78-1.74,1.74.78,1.74,1.74,1.74,1.75-.78,1.75-1.74ZM71.94,9.01c-5.42-5.42-14.15-5.68-19.8-.52-.16.14-.96.94-1.45,1.41-3.21-1.11-6.65-1.72-10.23-1.72s-6.99.6-10.25,1.73l-.09-.09c-.4-.41-1.13-1.14-1.24-1.24-5.74-5.18-14.43-5.05-19.9.42-2.72,2.71-4.21,6.33-4.21,10.17s1.5,7.45,4.21,10.17c.04.04.08.07.12.11l2.17,1.79c.43.36,1,.47,1.54.32.53-.15.96-.55,1.14-1.08.58-1.7,1.34-3.37,2.25-4.94,5-8.63,14.29-13.99,24.26-13.99,15.45,0,28.01,12.57,28.01,28.01s-12.56,28.01-28.01,28.01-28.01-12.56-28.01-28.01c0-.93-.76-1.69-1.69-1.69s-1.69.76-1.69,1.69c0,8.86,3.69,16.86,9.61,22.57l-2.7,3.19c-.6.71-.51,1.78.2,2.38.32.27.71.4,1.09.4.48,0,.96-.2,1.29-.6l2.67-3.15c5.32,4.14,11.99,6.61,19.23,6.61s13.91-2.47,19.23-6.61l2.67,3.16c.33.39.81.6,1.29.6.39,0,.77-.13,1.09-.4.71-.6.8-1.67.2-2.38l-2.7-3.19c5.91-5.71,9.61-13.71,9.61-22.57,0-3.12-.46-6.13-1.31-8.97.13-.12.28-.26.45-.42,1.09-1.01,1.34-1.24,1.46-1.37,5.11-5.71,4.91-14.38-.51-19.81ZM13.29,23.86c-.62,1.07-1.17,2.17-1.66,3.3l-.3-.25c-2.04-2.07-3.17-4.81-3.17-7.73s1.14-5.7,3.22-7.78c4.18-4.18,10.86-4.31,15.21-.33.04.04.13.13.25.24-5.58,2.7-10.36,7.03-13.55,12.55ZM69.98,26.52c-.09.09-.37.35-.68.64-3-6.93-8.42-12.58-15.19-15.86.16-.15.27-.26.31-.29,4.35-3.93,11-3.75,15.15.39,4.15,4.15,4.32,10.81.42,15.12Z"/>
        <path class="cls-1" d="M64.59,38.95c0-.96-.78-1.74-1.75-1.74s-1.74.78-1.74,1.74.78,1.74,1.74,1.74,1.75-.78,1.75-1.74ZM39.85,14.41c-.93,0-1.69.76-1.69,1.69v22.91c0,.45.18.88.49,1.2l13.37,13.38c.33.33.76.49,1.19.49s.87-.17,1.2-.49c.66-.66.66-1.73,0-2.39l-12.88-12.88v-22.21c0-.93-.76-1.69-1.69-1.69ZM39.85,63.69c.96,0,1.74-.78,1.74-1.75s-.78-1.75-1.74-1.75-1.75.78-1.75,1.75.78,1.75,1.75,1.75ZM18.59,38.95c0-.96-.78-1.74-1.75-1.74s-1.74.78-1.74,1.74.78,1.74,1.74,1.74,1.75-.78,1.75-1.74ZM71.32,8.38c-5.42-5.42-14.15-5.68-19.8-.52-.16.14-.96.94-1.45,1.41-3.21-1.11-6.65-1.72-10.23-1.72s-6.99.6-10.25,1.73l-.09-.09c-.4-.41-1.13-1.14-1.24-1.24-5.74-5.18-14.43-5.05-19.9.42-2.72,2.71-4.21,6.33-4.21,10.17s1.5,7.45,4.21,10.17c.04.04.08.07.12.11l2.17,1.79c.43.36,1,.47,1.54.32.53-.15.96-.55,1.14-1.08.58-1.7,1.34-3.37,2.25-4.94,5-8.63,14.29-13.99,24.26-13.99,15.45,0,28.01,12.57,28.01,28.01s-12.56,28.01-28.01,28.01-28.01-12.56-28.01-28.01c0-.93-.76-1.69-1.69-1.69s-1.69.76-1.69,1.69c0,8.86,3.69,16.86,9.61,22.57l-2.7,3.19c-.6.71-.51,1.78.2,2.38.32.27.71.4,1.09.4.48,0,.96-.2,1.29-.6l2.67-3.15c5.32,4.14,11.99,6.61,19.23,6.61s13.91-2.47,19.23-6.61l2.67,3.16c.33.39.81.6,1.29.6.39,0,.77-.13,1.09-.4.71-.6.8-1.67.2-2.38l-2.7-3.19c5.91-5.71,9.61-13.71,9.61-22.57,0-3.12-.46-6.13-1.31-8.97.13-.12.28-.26.45-.42,1.09-1.01,1.34-1.24,1.46-1.37,5.11-5.71,4.91-14.38-.51-19.81ZM12.67,23.23c-.62,1.07-1.17,2.17-1.66,3.3l-.3-.25c-2.04-2.07-3.17-4.81-3.17-7.73s1.14-5.7,3.22-7.78c4.18-4.18,10.86-4.31,15.21-.33.04.04.13.13.25.24-5.58,2.7-10.36,7.03-13.55,12.55ZM69.35,25.89c-.09.09-.37.35-.68.64-3-6.93-8.42-12.58-15.19-15.86.16-.15.27-.26.31-.29,4.35-3.93,11-3.75,15.15.39,4.15,4.15,4.32,10.81.42,15.12Z"/>
        <path class="cls-3" d="M63.96,38.33c0-.96-.78-1.74-1.75-1.74s-1.74.78-1.74,1.74.78,1.74,1.74,1.74,1.75-.78,1.75-1.74ZM39.22,13.78c-.93,0-1.69.76-1.69,1.69v22.91c0,.45.18.88.49,1.2l13.37,13.38c.33.33.76.49,1.19.49s.87-.17,1.2-.49c.66-.66.66-1.73,0-2.39l-12.88-12.88V15.47c0-.93-.76-1.69-1.69-1.69ZM39.22,63.07c.96,0,1.74-.78,1.74-1.75s-.78-1.75-1.74-1.75-1.75.78-1.75,1.75.78,1.75,1.75,1.75ZM17.97,38.33c0-.96-.78-1.74-1.75-1.74s-1.74.78-1.74,1.74.78,1.74,1.74,1.74,1.75-.78,1.75-1.74ZM70.69,7.76c-5.42-5.42-14.15-5.68-19.8-.52-.16.14-.96.94-1.45,1.41-3.21-1.11-6.65-1.72-10.23-1.72s-6.99.6-10.25,1.73l-.09-.09c-.4-.41-1.13-1.14-1.24-1.24-5.74-5.18-14.43-5.05-19.9.42-2.72,2.71-4.21,6.33-4.21,10.17s1.5,7.45,4.21,10.17c.04.04.08.07.12.11l2.17,1.79c.43.36,1,.47,1.54.32.53-.15.96-.55,1.14-1.08.58-1.7,1.34-3.37,2.25-4.94,5-8.63,14.29-13.99,24.26-13.99,15.45,0,28.01,12.57,28.01,28.01s-12.56,28.01-28.01,28.01-28.01-12.56-28.01-28.01c0-.93-.76-1.69-1.69-1.69s-1.69.76-1.69,1.69c0,8.86,3.69,16.86,9.61,22.57l-2.7,3.19c-.6.71-.51,1.78.2,2.38.32.27.71.4,1.09.4.48,0,.96-.2,1.29-.6l2.67-3.15c5.32,4.14,11.99,6.61,19.23,6.61s13.91-2.47,19.23-6.61l2.67,3.16c.33.39.81.6,1.29.6.39,0,.77-.13,1.09-.4.71-.6.8-1.67.2-2.38l-2.7-3.19c5.91-5.71,9.61-13.71,9.61-22.57,0-3.12-.46-6.13-1.31-8.97.13-.12.28-.26.45-.42,1.09-1.01,1.34-1.24,1.46-1.37,5.11-5.71,4.91-14.38-.51-19.81ZM12.04,22.61c-.62,1.07-1.17,2.17-1.66,3.3l-.3-.25c-2.04-2.07-3.17-4.81-3.17-7.73s1.14-5.7,3.22-7.78c4.18-4.18,10.86-4.31,15.21-.33.04.04.13.13.25.24-5.58,2.7-10.36,7.03-13.55,12.55ZM68.73,25.27c-.09.09-.37.35-.68.64-3-6.93-8.42-12.58-15.19-15.86.16-.15.27-.26.31-.29,4.35-3.93,11-3.75,15.15.39,4.15,4.15,4.32,10.81.42,15.12Z"/>
        <path class="cls-11" d="M63.34,37.7c0-.96-.78-1.74-1.75-1.74s-1.74.78-1.74,1.74.78,1.74,1.74,1.74,1.75-.78,1.75-1.74ZM38.6,13.16c-.93,0-1.69.76-1.69,1.69v22.91c0,.45.18.88.49,1.2l13.37,13.38c.33.33.76.49,1.19.49s.87-.17,1.2-.49c.66-.66.66-1.73,0-2.39l-12.88-12.88V14.85c0-.93-.76-1.69-1.69-1.69ZM38.6,62.44c.96,0,1.74-.78,1.74-1.75s-.78-1.75-1.74-1.75-1.75.78-1.75,1.75.78,1.75,1.75,1.75ZM17.34,37.7c0-.96-.78-1.74-1.75-1.74s-1.74.78-1.74,1.74.78,1.74,1.74,1.74,1.75-.78,1.75-1.74ZM70.07,7.13c-5.42-5.42-14.15-5.68-19.8-.52-.16.14-.96.94-1.45,1.41-3.21-1.11-6.65-1.72-10.23-1.72s-6.99.6-10.25,1.73l-.09-.09c-.4-.41-1.13-1.14-1.24-1.24-5.74-5.18-14.43-5.05-19.9.42-2.72,2.71-4.21,6.33-4.21,10.17s1.5,7.45,4.21,10.17c.04.04.08.07.12.11l2.17,1.79c.43.36,1,.47,1.54.32.53-.15.96-.55,1.14-1.08.58-1.7,1.34-3.37,2.25-4.94,5-8.63,14.29-13.99,24.26-13.99,15.45,0,28.01,12.57,28.01,28.01s-12.56,28.01-28.01,28.01-28.01-12.56-28.01-28.01c0-.93-.76-1.69-1.69-1.69s-1.69.76-1.69,1.69c0,8.86,3.69,16.86,9.61,22.57l-2.7,3.19c-.6.71-.51,1.78.2,2.38.32.27.71.4,1.09.4.48,0,.96-.2,1.29-.6l2.67-3.15c5.32,4.14,11.99,6.61,19.23,6.61s13.91-2.47,19.23-6.61l2.67,3.16c.33.39.81.6,1.29.6.39,0,.77-.13,1.09-.4.71-.6.8-1.67.2-2.38l-2.7-3.19c5.91-5.71,9.61-13.71,9.61-22.57,0-3.12-.46-6.13-1.31-8.97.13-.12.28-.26.45-.42,1.09-1.01,1.34-1.24,1.46-1.37,5.11-5.71,4.91-14.38-.51-19.81ZM11.42,21.98c-.62,1.07-1.17,2.17-1.66,3.3l-.3-.25c-2.04-2.07-3.17-4.81-3.17-7.73s1.14-5.7,3.22-7.78c4.18-4.18,10.86-4.31,15.21-.33.04.04.13.13.25.24-5.58,2.7-10.36,7.03-13.55,12.55ZM68.1,24.64c-.09.09-.37.35-.68.64-3-6.93-8.42-12.58-15.19-15.86.16-.15.27-.26.31-.29,4.35-3.93,11-3.75,15.15.39,4.15,4.15,4.32,10.81.42,15.12Z"/>
        <path class="cls-8" d="M62.71,37.08c0-.96-.78-1.74-1.75-1.74s-1.74.78-1.74,1.74.78,1.74,1.74,1.74,1.75-.78,1.75-1.74ZM37.97,12.53c-.93,0-1.69.76-1.69,1.69v22.91c0,.45.18.88.49,1.2l13.37,13.38c.33.33.76.49,1.19.49s.87-.17,1.2-.49c.66-.66.66-1.73,0-2.39l-12.88-12.88V14.22c0-.93-.76-1.69-1.69-1.69ZM37.97,61.82c.96,0,1.74-.78,1.74-1.75s-.78-1.75-1.74-1.75-1.75.78-1.75,1.75.78,1.75,1.75,1.75ZM16.72,37.08c0-.96-.78-1.74-1.75-1.74s-1.74.78-1.74,1.74.78,1.74,1.74,1.74,1.75-.78,1.75-1.74ZM69.44,6.51c-5.42-5.42-14.15-5.68-19.8-.52-.16.14-.96.94-1.45,1.41-3.21-1.11-6.65-1.72-10.23-1.72s-6.99.6-10.25,1.73l-.09-.09c-.4-.41-1.13-1.14-1.24-1.24C20.66.91,11.96,1.04,6.5,6.51c-2.72,2.71-4.21,6.33-4.21,10.17s1.5,7.45,4.21,10.17c.04.04.08.07.12.11l2.17,1.79c.43.36,1,.47,1.54.32.53-.15.96-.55,1.14-1.08.58-1.7,1.34-3.37,2.25-4.94,5-8.63,14.29-13.99,24.26-13.99,15.45,0,28.01,12.57,28.01,28.01s-12.56,28.01-28.01,28.01-28.01-12.56-28.01-28.01c0-.93-.76-1.69-1.69-1.69s-1.69.76-1.69,1.69c0,8.86,3.69,16.86,9.61,22.57l-2.7,3.19c-.6.71-.51,1.78.2,2.38.32.27.71.4,1.09.4.48,0,.96-.2,1.29-.6l2.67-3.15c5.32,4.14,11.99,6.61,19.23,6.61s13.91-2.47,19.23-6.61l2.67,3.16c.33.39.81.6,1.29.6.39,0,.77-.13,1.09-.4.71-.6.8-1.67.2-2.38l-2.7-3.19c5.91-5.71,9.61-13.71,9.61-22.57,0-3.12-.46-6.13-1.31-8.97.13-.12.28-.26.45-.42,1.09-1.01,1.34-1.24,1.46-1.37,5.11-5.71,4.91-14.38-.51-19.81ZM10.79,21.36c-.62,1.07-1.17,2.17-1.66,3.3l-.3-.25c-2.04-2.07-3.17-4.81-3.17-7.73s1.14-5.7,3.22-7.78c4.18-4.18,10.85-4.31,15.21-.33.04.04.13.13.25.24-5.58,2.7-10.36,7.03-13.55,12.55ZM67.48,24.02c-.09.09-.37.35-.68.64-3-6.93-8.42-12.58-15.19-15.86.16-.15.27-.26.31-.29,4.35-3.93,11-3.75,15.15.39,4.15,4.15,4.32,10.81.42,15.12Z"/>
        <path class="cls-4" d="M62.09,36.45c0-.96-.78-1.74-1.75-1.74s-1.74.78-1.74,1.74.78,1.74,1.74,1.74,1.75-.78,1.75-1.74ZM37.35,11.91c-.93,0-1.69.76-1.69,1.69v22.91c0,.45.18.88.49,1.2l13.37,13.38c.33.33.76.49,1.19.49s.87-.17,1.2-.49c.66-.66.66-1.73,0-2.39l-12.88-12.88V13.6c0-.93-.76-1.69-1.69-1.69ZM37.35,61.19c.96,0,1.74-.78,1.74-1.75s-.78-1.75-1.74-1.75-1.75.78-1.75,1.75.78,1.75,1.75,1.75ZM16.09,36.45c0-.96-.78-1.74-1.75-1.74s-1.74.78-1.74,1.74.78,1.74,1.74,1.74,1.75-.78,1.75-1.74ZM68.82,5.88c-5.42-5.42-14.15-5.68-19.8-.52-.16.14-.96.94-1.45,1.41-3.21-1.11-6.65-1.72-10.23-1.72s-6.99.6-10.25,1.73l-.09-.09c-.4-.41-1.13-1.14-1.24-1.24C20.03.28,11.34.41,5.87,5.88c-2.72,2.72-4.21,6.33-4.21,10.17s1.5,7.45,4.21,10.17c.04.04.08.07.12.11l2.17,1.79c.43.36,1,.47,1.54.32.53-.15.96-.55,1.14-1.08.58-1.7,1.34-3.37,2.25-4.94,5-8.63,14.29-13.99,24.26-13.99,15.45,0,28.01,12.57,28.01,28.01s-12.56,28.01-28.01,28.01-28.01-12.56-28.01-28.01c0-.93-.76-1.69-1.69-1.69s-1.69.76-1.69,1.69c0,8.86,3.69,16.86,9.61,22.57l-2.7,3.19c-.6.71-.51,1.78.2,2.38.32.27.71.4,1.09.4.48,0,.96-.2,1.29-.6l2.67-3.15c5.32,4.14,11.99,6.61,19.23,6.61s13.91-2.47,19.23-6.61l2.67,3.16c.33.39.81.6,1.29.6.39,0,.77-.13,1.09-.4.71-.6.8-1.67.2-2.38l-2.7-3.19c5.91-5.71,9.61-13.71,9.61-22.57,0-3.12-.46-6.13-1.31-8.97.13-.12.28-.26.45-.42,1.09-1.01,1.34-1.24,1.46-1.37,5.11-5.71,4.91-14.38-.51-19.81ZM10.17,20.73c-.62,1.07-1.17,2.17-1.66,3.3l-.3-.25c-2.04-2.07-3.17-4.81-3.17-7.73s1.14-5.7,3.22-7.78c4.18-4.18,10.85-4.31,15.21-.33.04.04.13.13.25.24-5.58,2.7-10.36,7.03-13.55,12.55ZM66.85,23.39c-.09.09-.37.35-.68.64-3-6.93-8.42-12.58-15.19-15.86.16-.15.27-.26.31-.29,4.35-3.93,11-3.75,15.15.39,4.15,4.15,4.32,10.81.42,15.12Z"/>
        <path class="cls-7" d="M61.46,35.83c0-.96-.78-1.74-1.75-1.74s-1.74.78-1.74,1.74.78,1.74,1.74,1.74,1.75-.78,1.75-1.74ZM36.72,11.28c-.93,0-1.69.76-1.69,1.69v22.91c0,.45.18.88.49,1.2l13.37,13.38c.33.33.76.49,1.19.49s.87-.17,1.2-.49c.66-.66.66-1.73,0-2.39l-12.88-12.88V12.97c0-.93-.76-1.69-1.69-1.69ZM36.72,60.57c.96,0,1.74-.78,1.74-1.75s-.78-1.75-1.74-1.75-1.75.78-1.75,1.75.78,1.75,1.75,1.75ZM15.47,35.83c0-.96-.78-1.74-1.75-1.74s-1.74.78-1.74,1.74.78,1.74,1.74,1.74,1.75-.78,1.75-1.74ZM68.19,5.26c-5.42-5.42-14.15-5.68-19.8-.52-.16.14-.96.94-1.45,1.41-3.21-1.11-6.65-1.72-10.23-1.72s-6.99.6-10.25,1.73l-.09-.09c-.4-.41-1.13-1.14-1.24-1.24C19.41-.34,10.71-.21,5.25,5.26,2.53,7.97,1.03,11.59,1.03,15.43s1.5,7.45,4.21,10.17c.04.04.08.07.12.11l2.17,1.79c.43.36,1,.47,1.54.32.53-.15.96-.55,1.14-1.08.58-1.7,1.34-3.37,2.25-4.94,5-8.63,14.29-13.99,24.26-13.99,15.45,0,28.01,12.57,28.01,28.01s-12.56,28.01-28.01,28.01-28.01-12.56-28.01-28.01c0-.93-.76-1.69-1.69-1.69s-1.69.76-1.69,1.69c0,8.86,3.69,16.86,9.61,22.57l-2.7,3.19c-.6.71-.51,1.78.2,2.38.32.27.71.4,1.09.4.48,0,.96-.2,1.29-.6l2.67-3.15c5.32,4.14,11.99,6.61,19.23,6.61s13.91-2.47,19.23-6.61l2.67,3.16c.33.39.81.6,1.29.6.39,0,.77-.13,1.09-.4.71-.6.8-1.67.2-2.38l-2.7-3.19c5.91-5.71,9.61-13.71,9.61-22.57,0-3.12-.46-6.13-1.31-8.97.13-.12.28-.26.45-.42,1.09-1.01,1.34-1.24,1.46-1.37,5.11-5.71,4.91-14.38-.51-19.81ZM9.54,20.11c-.62,1.07-1.17,2.17-1.66,3.3l-.3-.25c-2.04-2.07-3.17-4.81-3.17-7.73s1.14-5.7,3.22-7.78c4.18-4.18,10.85-4.31,15.21-.33.04.04.13.13.25.24-5.58,2.7-10.36,7.03-13.55,12.55ZM66.23,22.77c-.09.09-.37.35-.68.64-3-6.93-8.42-12.58-15.19-15.86.16-.15.27-.26.31-.29,4.35-3.93,11-3.75,15.15.39,4.15,4.15,4.32,10.81.42,15.12Z"/>
        <path class="cls-5" d="M60.84,35.2c0-.96-.78-1.74-1.75-1.74s-1.74.78-1.74,1.74.78,1.74,1.74,1.74,1.75-.78,1.75-1.74ZM36.1,10.66c-.93,0-1.69.76-1.69,1.69v22.91c0,.45.18.88.49,1.2l13.37,13.38c.33.33.76.49,1.19.49s.87-.17,1.2-.49c.66-.66.66-1.73,0-2.39l-12.88-12.88V12.35c0-.93-.76-1.69-1.69-1.69ZM36.1,59.94c.96,0,1.74-.78,1.74-1.75s-.78-1.75-1.74-1.75-1.75.78-1.75,1.75.78,1.75,1.75,1.75ZM14.84,35.2c0-.96-.78-1.74-1.75-1.74s-1.74.78-1.74,1.74.78,1.74,1.74,1.74,1.75-.78,1.75-1.74ZM67.57,4.63c-5.42-5.42-14.12-5.64-19.8-.52-.15.14-.96.94-1.45,1.41-3.21-1.11-6.65-1.72-10.23-1.72s-6.99.6-10.25,1.73l-.09-.09c-.4-.41-1.13-1.14-1.24-1.24C18.83-1.02,10.09-.84,4.62,4.63,1.9,7.35.41,10.96.41,14.8s1.5,7.45,4.21,10.17c.04.04.08.07.12.11l2.17,1.79c.43.36,1,.47,1.54.32.53-.15.96-.55,1.14-1.08.58-1.7,1.34-3.37,2.25-4.94,5-8.63,14.29-13.99,24.26-13.99,15.45,0,28.01,12.57,28.01,28.01s-12.56,28.01-28.01,28.01-28.01-12.56-28.01-28.01c0-.93-.76-1.69-1.69-1.69s-1.69.76-1.69,1.69c0,8.86,3.69,16.86,9.61,22.57l-2.7,3.19c-.6.71-.51,1.78.2,2.38.32.27.71.4,1.09.4.48,0,.96-.2,1.29-.6l2.67-3.15c5.32,4.14,11.99,6.61,19.23,6.61s13.91-2.47,19.23-6.61l2.67,3.16c.33.39.81.6,1.29.6.39,0,.78-.13,1.09-.4.71-.6.8-1.67.2-2.38l-2.7-3.19c5.91-5.71,9.61-13.71,9.61-22.57,0-3.12-.46-6.13-1.31-8.97.13-.12.28-.26.45-.42,1.1-1.01,1.34-1.24,1.46-1.37,5.14-5.68,4.91-14.38-.51-19.81ZM8.92,19.48c-.62,1.07-1.17,2.17-1.66,3.3l-.3-.25c-2.04-2.07-3.17-4.81-3.17-7.73s1.14-5.7,3.22-7.78c4.18-4.18,10.87-4.33,15.21-.33.04.04.13.13.25.24-5.58,2.7-10.36,7.03-13.55,12.55ZM65.6,22.14c-.09.09-.37.35-.68.64-3-6.93-8.42-12.58-15.19-15.86.16-.15.27-.26.31-.29,4.35-3.93,11-3.75,15.15.39,4.15,4.15,4.32,10.81.42,15.12Z"/>
      </g>
      <path class="cls-6" d="M67.16,4.23c-5.42-5.42-14.12-5.64-19.8-.52-.15.14-.96.94-1.45,1.41-3.21-1.11-6.65-1.72-10.23-1.72s-6.99.6-10.25,1.73l-.09-.09c-.4-.41-1.13-1.14-1.24-1.24-5.69-5.23-14.43-5.04-19.9.42C1.5,6.94,0,10.56,0,14.4s1.5,7.45,4.21,10.17c.04.04.08.07.12.11l2.17,1.79c.43.36,1,.47,1.54.32.53-.15.96-.55,1.14-1.08.58-1.7,1.34-3.37,2.25-4.94,5-8.63,14.29-13.99,24.26-13.99,15.45,0,28.01,12.57,28.01,28.01s-12.56,28.01-28.01,28.01S7.68,50.24,7.68,34.79c0-.93-.76-1.69-1.69-1.69s-1.69.76-1.69,1.69c0,8.86,3.69,16.86,9.61,22.57l-2.7,3.19c-.6.71-.51,1.78.2,2.38.32.27.7.4,1.09.4.48,0,.95-.2,1.29-.6l2.67-3.15c5.32,4.14,11.99,6.61,19.23,6.61s13.91-2.47,19.23-6.61l2.67,3.16c.33.39.81.6,1.29.6.39,0,.78-.13,1.09-.4.71-.6.8-1.67.2-2.38l-2.7-3.19c5.91-5.71,9.61-13.71,9.61-22.57,0-3.12-.46-6.13-1.31-8.97.13-.12.28-.26.45-.42,1.1-1.01,1.34-1.24,1.46-1.37,5.14-5.68,4.91-14.38-.51-19.81ZM8.51,19.08c-.62,1.07-1.17,2.17-1.66,3.3l-.3-.25c-2.04-2.07-3.17-4.81-3.17-7.73s1.14-5.7,3.22-7.78c4.18-4.18,10.87-4.33,15.21-.33.04.04.13.13.25.24-5.58,2.7-10.36,7.03-13.55,12.55ZM65.2,21.74c-.09.09-.37.35-.68.64-3-6.93-8.42-12.58-15.19-15.86.16-.15.27-.26.31-.29,4.35-3.93,11-3.75,15.15.39,4.15,4.15,4.32,10.81.42,15.12ZM35.69,10.25c-.93,0-1.69.76-1.69,1.69v22.91c0,.45.18.88.49,1.2l13.38,13.38c.33.33.76.49,1.19.49s.87-.17,1.2-.49c.66-.66.66-1.73,0-2.39l-12.88-12.88V11.94c0-.93-.76-1.69-1.69-1.69ZM60.43,34.79c0-.96-.78-1.74-1.75-1.74s-1.74.78-1.74,1.74.78,1.74,1.74,1.74,1.75-.78,1.75-1.74ZM14.44,34.79c0-.96-.78-1.74-1.75-1.74s-1.74.78-1.74,1.74.78,1.74,1.74,1.74,1.75-.78,1.75-1.74ZM35.69,59.54c.96,0,1.74-.78,1.74-1.75s-.78-1.75-1.74-1.75-1.75.78-1.75,1.75.78,1.75,1.75,1.75Z"/>
    </g>
  </g>
</svg>