<?xml version="1.0" encoding="UTF-8"?>
<svg id="Layer_2" data-name="Layer 2" xmlns="http://www.w3.org/2000/svg" xmlns:xlink="http://www.w3.org/1999/xlink" viewBox="0 0 79.8 79.64">
  <defs>
    <style>
      .cls-1 {
        opacity: .14;
      }

      .cls-2 {
        fill: url(#linear-gradient-2);
      }

      .cls-3 {
        opacity: .21;
      }

      .cls-4 {
        opacity: .42;
      }

      .cls-5 {
        opacity: .55;
      }

      .cls-6 {
        opacity: .48;
      }

      .cls-7 {
        opacity: .35;
      }

      .cls-8 {
        opacity: .08;
      }

      .cls-9 {
        opacity: .28;
      }

      .cls-10 {
        opacity: 0;
      }

      .cls-11 {
        fill: url(#linear-gradient);
      }
    </style>
    <linearGradient id="linear-gradient" x1="16.41" y1="15.95" x2="52.91" y2="52.45" gradientUnits="userSpaceOnUse">
      <stop offset="0" stop-color="#eb0a00"/>
      <stop offset="1" stop-color="#ff853b"/>
    </linearGradient>
    <linearGradient id="linear-gradient-2" x1="15.88" y1="15.72" x2="72.99" y2="72.82" gradientUnits="userSpaceOnUse">
      <stop offset="0" stop-color="#2c2e2c"/>
      <stop offset=".99" stop-color="#000"/>
    </linearGradient>
  </defs>
  <g id="Layer_1-2" data-name="Layer 1">
    <g>
      <polygon class="cls-11" points="31.82 2.01 2.23 31.91 12.15 33.95 29.93 52.05 31.03 71.88 44.72 58.82 72.65 30.88 52.59 29.55 34.18 11.45 31.82 2.01"/>
      <g>
        <path class="cls-10" d="M79.69,35.65c-.24-.62-.82-1.05-1.49-1.08l-19.7-.95-16.92-16.92-2.22-9.97c-.13-.6-.58-1.08-1.17-1.25-.59-.17-1.23,0-1.67.43L5.9,36.52c-.44.44-.6,1.08-.43,1.67.17.59.65,1.04,1.25,1.17l9.97,2.22,17.12,17.12.91,19.33c.03.67.45,1.26,1.08,1.5.2.08.4.11.61.11.44,0,.87-.17,1.2-.49l13.73-13.73c.66-.66.66-1.73,0-2.39-.66-.66-1.73-.66-2.39,0l-11.03,11.03-.73-15.56c.15-.56,0-1.19-.44-1.63l-18.02-18.02c-.23-.23-.52-.38-.83-.45l-7.45-1.66,26.26-26.26,1.66,7.45c.07.31.23.6.45.83l17.73,17.73c.3.3.7.47,1.11.49l16.55.8-18,18c-.65.64-.66,1.69-.03,2.35.08.27.21.53.42.74l19.38,19.39c.33.33.76.49,1.2.49s.87-.16,1.19-.49c.66-.66.66-1.73,0-2.39l-18.73-18.73,19.65-19.65c.47-.47.62-1.18.38-1.8Z"/>
        <path class="cls-8" d="M79.06,35.03c-.24-.62-.82-1.05-1.49-1.08l-19.7-.95-16.92-16.92-2.22-9.97c-.13-.6-.58-1.08-1.17-1.25-.59-.17-1.23,0-1.67.43L5.28,35.89c-.44.44-.6,1.08-.43,1.67.17.59.65,1.04,1.25,1.17l9.97,2.22,17.12,17.12.91,19.33c.03.67.45,1.26,1.08,1.5.2.08.4.11.61.11.44,0,.87-.17,1.2-.49l13.73-13.73c.66-.66.66-1.73,0-2.39-.66-.66-1.73-.66-2.39,0l-11.03,11.03-.73-15.56c.15-.56,0-1.19-.44-1.63l-18.02-18.02c-.23-.23-.52-.38-.83-.45l-7.45-1.66,26.26-26.26,1.66,7.45c.07.31.23.6.45.83l17.73,17.73c.3.3.7.47,1.11.49l16.55.8-18,18c-.65.64-.66,1.69-.03,2.35.08.27.21.53.42.74l19.38,19.39c.33.33.76.49,1.2.49s.87-.16,1.19-.49c.66-.66.66-1.73,0-2.39l-18.73-18.73,19.65-19.65c.47-.47.62-1.17.38-1.8Z"/>
        <path class="cls-1" d="M78.44,34.4c-.24-.62-.82-1.05-1.49-1.08l-19.7-.95-16.92-16.92-2.22-9.97c-.13-.6-.58-1.08-1.17-1.25-.59-.17-1.23,0-1.67.43L4.65,35.27c-.44.44-.6,1.08-.43,1.67.17.59.65,1.04,1.25,1.17l9.97,2.22,17.12,17.12.91,19.33c.03.67.45,1.26,1.08,1.5.2.08.4.11.61.11.44,0,.87-.17,1.2-.49l13.73-13.73c.66-.66.66-1.73,0-2.39-.66-.66-1.73-.66-2.39,0l-11.03,11.03-.73-15.56c.15-.56,0-1.19-.44-1.63l-18.02-18.02c-.23-.23-.52-.38-.83-.45l-7.45-1.66,26.26-26.26,1.66,7.45c.07.31.23.6.45.83l17.73,17.73c.3.3.7.47,1.11.49l16.55.8-18,18c-.65.64-.66,1.69-.03,2.35.08.27.21.53.42.74l19.38,19.39c.33.33.76.49,1.2.49s.87-.16,1.19-.49c.66-.66.66-1.73,0-2.39l-18.73-18.73,19.65-19.65c.47-.47.62-1.17.38-1.8Z"/>
        <path class="cls-3" d="M77.81,33.78c-.24-.62-.82-1.05-1.49-1.08l-19.7-.95-16.92-16.92-2.22-9.97c-.13-.6-.58-1.08-1.17-1.25-.59-.17-1.23,0-1.67.43L4.03,34.64c-.44.44-.6,1.08-.43,1.67.17.59.65,1.04,1.25,1.17l9.97,2.22,17.12,17.12.91,19.33c.03.67.45,1.26,1.08,1.5.2.08.4.11.61.11.44,0,.87-.17,1.2-.49l13.73-13.73c.66-.66.66-1.73,0-2.39-.66-.66-1.73-.66-2.39,0l-11.03,11.03-.73-15.56c.15-.56,0-1.19-.44-1.63l-18.02-18.02c-.23-.23-.52-.38-.83-.45l-7.45-1.66,26.26-26.26,1.66,7.45c.07.31.23.6.45.83l17.73,17.73c.3.3.7.47,1.11.49l16.55.8-18,18c-.65.64-.66,1.69-.03,2.35.08.27.21.53.42.74l19.38,19.39c.33.33.76.49,1.2.49s.87-.16,1.19-.49c.66-.66.66-1.73,0-2.39l-18.73-18.73,19.65-19.65c.47-.47.62-1.17.38-1.8Z"/>
        <path class="cls-9" d="M77.19,33.15c-.24-.62-.82-1.05-1.49-1.08l-19.7-.95-16.92-16.92-2.22-9.97c-.13-.6-.58-1.08-1.17-1.25-.59-.17-1.23,0-1.67.43L3.4,34.02c-.44.44-.6,1.08-.43,1.67.17.59.65,1.04,1.25,1.17l9.97,2.22,17.12,17.12.91,19.33c.03.67.45,1.26,1.08,1.5.2.08.4.11.61.11.44,0,.87-.17,1.2-.49l13.73-13.73c.66-.66.66-1.73,0-2.39-.66-.66-1.73-.66-2.39,0l-11.03,11.03-.73-15.56c.15-.56,0-1.19-.44-1.63l-18.02-18.02c-.23-.23-.52-.38-.83-.45l-7.45-1.66L34.23,7.97l1.66,7.45c.07.31.23.6.45.83l17.73,17.73c.3.3.7.47,1.11.49l16.55.8-18,18c-.65.64-.66,1.69-.03,2.35.08.27.21.53.42.74l19.38,19.39c.33.33.76.49,1.2.49s.87-.16,1.19-.49c.66-.66.66-1.73,0-2.39l-18.73-18.73,19.65-19.65c.47-.47.62-1.17.38-1.8Z"/>
        <path class="cls-7" d="M76.56,32.53c-.24-.62-.82-1.05-1.49-1.08l-19.7-.95-16.92-16.92-2.22-9.97c-.13-.6-.58-1.08-1.17-1.25-.59-.17-1.23,0-1.67.43L2.78,33.39c-.44.44-.6,1.08-.43,1.67.17.59.65,1.04,1.25,1.17l9.97,2.22,17.12,17.12.91,19.33c.03.67.45,1.26,1.08,1.5.2.08.4.11.61.11.44,0,.87-.17,1.2-.49l13.73-13.73c.66-.66.66-1.73,0-2.39-.66-.66-1.73-.66-2.39,0l-11.03,11.03-.73-15.56c.15-.56,0-1.19-.44-1.63l-18.02-18.02c-.23-.23-.52-.38-.83-.45l-7.45-1.66L33.6,7.34l1.66,7.45c.07.31.23.6.45.83l17.73,17.73c.3.3.7.47,1.11.49l16.55.8-18,18c-.65.64-.66,1.69-.03,2.35.08.27.21.53.42.74l19.38,19.39c.33.33.76.49,1.2.49s.87-.16,1.19-.49c.66-.66.66-1.73,0-2.39l-18.73-18.73,19.65-19.65c.47-.47.62-1.17.38-1.8Z"/>
        <path class="cls-4" d="M75.94,31.9c-.24-.62-.82-1.05-1.49-1.08l-19.7-.95-16.92-16.92-2.22-9.97c-.13-.6-.58-1.08-1.17-1.25-.59-.17-1.23,0-1.67.43L2.15,32.77c-.44.44-.6,1.08-.43,1.67.17.59.65,1.04,1.25,1.17l9.97,2.22,17.12,17.12.91,19.33c.03.67.45,1.26,1.08,1.5.2.08.4.11.61.11.44,0,.87-.17,1.2-.49l13.73-13.73c.66-.66.66-1.73,0-2.39-.66-.66-1.73-.66-2.39,0l-11.03,11.03-.73-15.56c.15-.56,0-1.19-.44-1.63l-18.02-18.02c-.23-.23-.52-.38-.83-.45l-7.45-1.66L32.98,6.72l1.66,7.45c.07.31.23.6.45.83l17.73,17.73c.3.3.7.47,1.11.49l16.55.8-18,18c-.65.64-.66,1.69-.03,2.35.08.27.21.53.42.74l19.38,19.39c.33.33.76.49,1.2.49s.87-.16,1.19-.49c.66-.66.66-1.73,0-2.39l-18.73-18.73,19.65-19.65c.47-.47.62-1.17.38-1.8Z"/>
        <path class="cls-6" d="M75.31,31.28c-.24-.62-.82-1.05-1.49-1.08l-19.7-.95-16.92-16.92-2.22-9.97c-.13-.6-.58-1.08-1.17-1.25-.59-.17-1.23,0-1.67.43L1.53,32.14c-.44.44-.6,1.08-.43,1.67.17.59.65,1.04,1.25,1.17l9.97,2.22,17.12,17.12.91,19.33c.03.67.45,1.26,1.08,1.5.2.08.4.11.61.11.44,0,.87-.17,1.2-.49l13.73-13.73c.66-.66.66-1.73,0-2.39-.66-.66-1.73-.66-2.39,0l-11.03,11.03-.73-15.56c.15-.56,0-1.19-.44-1.63l-18.02-18.02c-.23-.23-.52-.38-.83-.45l-7.45-1.66L32.35,6.09l1.66,7.45c.07.31.23.6.45.83l17.73,17.73c.3.3.7.47,1.11.49l16.55.8-18,18c-.65.64-.66,1.69-.03,2.35.08.27.21.53.42.74l19.38,19.39c.33.33.76.49,1.2.49s.87-.16,1.19-.49c.66-.66.66-1.73,0-2.39l-18.73-18.73,19.65-19.65c.47-.47.62-1.17.38-1.8Z"/>
        <path class="cls-5" d="M74.69,30.65c-.24-.62-.82-1.05-1.49-1.08l-19.7-.95-16.92-16.92-2.22-9.97c-.13-.6-.58-1.08-1.17-1.25-.59-.17-1.23,0-1.67.43L.9,31.52c-.44.44-.6,1.08-.43,1.67.17.59.65,1.04,1.25,1.17l9.97,2.22,17.12,17.12.91,19.33c.03.67.45,1.26,1.08,1.5.2.08.4.11.61.11.44,0,.87-.17,1.2-.49l13.73-13.73c.66-.66.66-1.73,0-2.39-.66-.66-1.73-.66-2.39,0l-11.03,11.03-.73-15.56c.15-.56,0-1.19-.44-1.63l-18.02-18.02c-.23-.23-.52-.38-.83-.45l-7.45-1.66L31.73,5.47l1.66,7.45c.07.31.23.6.45.83l17.73,17.73c.3.3.7.47,1.11.49l16.55.8-18,18c-.65.64-.66,1.69-.03,2.35.08.27.21.53.42.74l19.38,19.39c.33.33.76.49,1.2.49s.87-.16,1.19-.49c.66-.66.66-1.73,0-2.39l-18.73-18.73,19.65-19.65c.47-.47.62-1.18.38-1.8Z"/>
      </g>
      <path class="cls-2" d="M74.28,30.25c-.24-.62-.82-1.05-1.49-1.08l-19.7-.95-16.92-16.92-2.22-9.97c-.13-.6-.58-1.08-1.17-1.25-.59-.17-1.23,0-1.67.43L.49,31.11c-.44.44-.6,1.08-.43,1.67.17.59.65,1.04,1.25,1.17l9.97,2.22,17.12,17.12.91,19.33c.03.67.45,1.26,1.08,1.5.2.08.4.11.61.11.44,0,.87-.17,1.2-.49l13.73-13.73c.66-.66.66-1.73,0-2.39-.66-.66-1.73-.66-2.39,0l-11.03,11.03-.73-15.56c.15-.56,0-1.19-.44-1.63l-18.02-18.02c-.23-.23-.52-.38-.83-.45l-7.45-1.66L31.32,5.06l1.66,7.45c.07.31.23.6.46.83l17.73,17.73c.3.3.7.47,1.11.49l16.55.8-18,18c-.65.64-.66,1.69-.03,2.35.08.27.21.53.42.74l19.38,19.39c.33.33.76.49,1.2.49s.87-.17,1.19-.49c.66-.66.66-1.73,0-2.39l-18.73-18.73,19.65-19.65c.47-.47.62-1.18.38-1.8Z"/>
    </g>
  </g>
</svg>