<?xml version="1.0" encoding="UTF-8"?>
<svg id="Layer_2" data-name="Layer 2" xmlns="http://www.w3.org/2000/svg" xmlns:xlink="http://www.w3.org/1999/xlink" viewBox="0 0 81.4 68.95">
  <defs>
    <style>
      .cls-1 {
        opacity: .14;
      }

      .cls-2 {
        fill: url(#linear-gradient-2);
      }

      .cls-3 {
        opacity: .21;
      }

      .cls-4 {
        opacity: .42;
      }

      .cls-5 {
        opacity: .55;
      }

      .cls-6 {
        opacity: .48;
      }

      .cls-7 {
        opacity: .35;
      }

      .cls-8 {
        opacity: .08;
      }

      .cls-9 {
        opacity: .28;
      }

      .cls-10 {
        opacity: 0;
      }

      .cls-11 {
        fill: url(#linear-gradient);
      }
    </style>
    <linearGradient id="linear-gradient" x1="17.06" y1="-1.59" x2="58.82" y2="40.17" gradientUnits="userSpaceOnUse">
      <stop offset=".01" stop-color="#ff870a"/>
      <stop offset="1" stop-color="#ffdb4a"/>
    </linearGradient>
    <linearGradient id="linear-gradient-2" x1="11.61" y1=".41" x2="64.38" y2="53.18" gradientUnits="userSpaceOnUse">
      <stop offset="0" stop-color="#2c2e2c"/>
      <stop offset=".99" stop-color="#000"/>
    </linearGradient>
  </defs>
  <g id="Layer_1-2" data-name="Layer 1">
    <g>
      <path class="cls-11" d="M16.1,1.77s-.4,17.52-.4,22.36,2.62,19.13,12.08,23.56c9.46,4.43,20.34,1.41,25.78-4.43,5.44-5.84,6.85-17.52,6.85-21.75V1.97l-44.31-.2Z"/>
      <g>
        <path class="cls-10" d="M43.47,54h-.13c-18.59-.03-20.6-19.32-20.6-27.62V8.79s41.33,0,41.33,0v17.6c0,8.3-2.01,27.59-20.6,27.62ZM75.82,14.42h-2.95c-.93,0-1.69.76-1.69,1.69s.76,1.69,1.69,1.69h2.95c1.46,0,2.2.39,2.2,2.56,0,.13,0,3.04,0,3.24-.05,3.24-.22,12.75-12.37,16.05,1.55-5.33,1.8-10.5,1.8-13.27V7.09c0-.45-.17-.88-.49-1.2-.32-.32-.74-.49-1.19-.49H21.04c-.45,0-.88.18-1.2.49-.32.32-.49.75-.49,1.2v19.29c0,2.77.26,7.94,1.81,13.27-12.15-3.3-12.32-12.81-12.37-16.05,0-.2,0-3.11,0-3.24,0-2.16.74-2.56,2.2-2.56h3.04c.93,0,1.69-.76,1.69-1.69s-.76-1.69-1.69-1.69h-3.04c-3.54,0-5.58,2.16-5.58,5.94,0,.13,0,3.16,0,3.3.19,10.95,5.94,17.59,17.08,19.77,2.93,6.98,8.57,13.33,19.31,13.9-.05.16-.09.33-.09.51v7.74h-13.63c-.94,0-1.69.76-1.69,1.69s.75,1.69,1.69,1.69h30.64c.93,0,1.69-.76,1.69-1.69s-.76-1.69-1.69-1.69h-13.63v-7.74c0-.18-.04-.35-.09-.51,10.74-.57,16.38-6.91,19.31-13.9,11.14-2.18,16.89-8.82,17.08-19.77,0-.14,0-3.17,0-3.3,0-3.77-2.04-5.94-5.58-5.94Z"/>
        <path class="cls-8" d="M42.84,53.38h-.13c-18.59-.03-20.6-19.32-20.6-27.62V8.16s41.33,0,41.33,0v17.6c0,8.3-2.01,27.59-20.6,27.62ZM75.19,13.8h-2.95c-.93,0-1.69.76-1.69,1.69s.76,1.69,1.69,1.69h2.95c1.46,0,2.2.39,2.2,2.56,0,.13,0,3.04,0,3.24-.04,3.24-.22,12.75-12.37,16.05,1.55-5.33,1.8-10.5,1.8-13.27V6.47c0-.45-.17-.88-.49-1.2-.32-.32-.74-.49-1.19-.49H20.42c-.45,0-.88.18-1.2.49-.32.32-.49.75-.49,1.2v19.29c0,2.77.26,7.94,1.81,13.27-12.15-3.3-12.32-12.81-12.37-16.05,0-.2,0-3.11,0-3.24,0-2.16.74-2.56,2.2-2.56h3.04c.93,0,1.69-.76,1.69-1.69s-.76-1.69-1.69-1.69h-3.04c-3.54,0-5.58,2.16-5.58,5.94,0,.13,0,3.16,0,3.3.19,10.95,5.94,17.59,17.08,19.77,2.93,6.98,8.57,13.33,19.31,13.9-.05.16-.09.33-.09.51v7.74h-13.63c-.94,0-1.69.76-1.69,1.69s.75,1.69,1.69,1.69h30.64c.93,0,1.69-.76,1.69-1.69s-.76-1.69-1.69-1.69h-13.63v-7.74c0-.18-.04-.35-.09-.51,10.74-.57,16.38-6.91,19.31-13.9,11.14-2.18,16.89-8.82,17.08-19.77,0-.14,0-3.17,0-3.3,0-3.77-2.04-5.94-5.58-5.94Z"/>
        <path class="cls-1" d="M42.22,52.75h-.13c-18.59-.03-20.6-19.32-20.6-27.62V7.54s41.33,0,41.33,0v17.6c0,8.3-2.01,27.59-20.6,27.62ZM74.57,13.17h-2.95c-.93,0-1.69.76-1.69,1.69s.76,1.69,1.69,1.69h2.95c1.46,0,2.2.39,2.2,2.56,0,.13,0,3.04,0,3.24-.04,3.24-.22,12.75-12.37,16.05,1.55-5.33,1.8-10.5,1.8-13.27V5.84c0-.45-.17-.88-.49-1.2-.32-.32-.74-.49-1.19-.49H19.79c-.45,0-.88.18-1.2.49-.32.32-.49.75-.49,1.2v19.29c0,2.77.26,7.94,1.81,13.27-12.15-3.3-12.32-12.81-12.37-16.05,0-.2,0-3.11,0-3.24,0-2.16.74-2.56,2.2-2.56h3.04c.93,0,1.69-.76,1.69-1.69s-.76-1.69-1.69-1.69h-3.04c-3.54,0-5.58,2.16-5.58,5.94,0,.13,0,3.16,0,3.3.19,10.95,5.94,17.59,17.08,19.77,2.93,6.98,8.57,13.33,19.31,13.9-.05.16-.09.33-.09.51v7.74h-13.63c-.94,0-1.69.76-1.69,1.69s.75,1.69,1.69,1.69h30.64c.93,0,1.69-.76,1.69-1.69s-.76-1.69-1.69-1.69h-13.63v-7.74c0-.18-.04-.35-.09-.51,10.74-.57,16.38-6.91,19.31-13.9,11.14-2.18,16.89-8.82,17.08-19.77,0-.14,0-3.17,0-3.3,0-3.77-2.04-5.94-5.58-5.94Z"/>
        <path class="cls-3" d="M41.59,52.12h-.13c-18.59-.03-20.6-19.32-20.6-27.62V6.91s41.33,0,41.33,0v17.6c0,8.3-2.01,27.59-20.6,27.62ZM73.94,12.55h-2.95c-.93,0-1.69.76-1.69,1.69s.76,1.69,1.69,1.69h2.95c1.46,0,2.2.39,2.2,2.56,0,.13,0,3.04,0,3.24-.04,3.24-.22,12.75-12.37,16.05,1.55-5.33,1.8-10.5,1.8-13.27V5.22c0-.45-.17-.88-.49-1.2-.32-.32-.74-.49-1.19-.49H19.17c-.45,0-.88.18-1.2.49-.32.32-.49.75-.49,1.2v19.29c0,2.77.26,7.94,1.81,13.27-12.15-3.3-12.32-12.81-12.37-16.05,0-.2,0-3.11,0-3.24,0-2.16.74-2.56,2.2-2.56h3.04c.93,0,1.69-.76,1.69-1.69s-.76-1.69-1.69-1.69h-3.04c-3.54,0-5.58,2.16-5.58,5.94,0,.13,0,3.16,0,3.3.19,10.95,5.94,17.59,17.08,19.77,2.93,6.98,8.57,13.33,19.31,13.9-.05.16-.09.33-.09.51v7.74h-13.63c-.94,0-1.69.76-1.69,1.69s.75,1.69,1.69,1.69h30.64c.93,0,1.69-.76,1.69-1.69s-.76-1.69-1.69-1.69h-13.63v-7.74c0-.18-.04-.35-.09-.51,10.74-.57,16.38-6.91,19.31-13.9,11.14-2.18,16.89-8.82,17.08-19.77,0-.14,0-3.17,0-3.3,0-3.77-2.04-5.94-5.58-5.94Z"/>
        <path class="cls-9" d="M40.97,51.5h-.13c-18.59-.03-20.6-19.32-20.6-27.62V6.29s41.33,0,41.33,0v17.6c0,8.3-2.01,27.59-20.6,27.62ZM73.32,11.92h-2.95c-.93,0-1.69.76-1.69,1.69s.76,1.69,1.69,1.69h2.95c1.46,0,2.2.39,2.2,2.56,0,.13,0,3.04,0,3.24-.04,3.24-.22,12.75-12.37,16.05,1.55-5.33,1.8-10.5,1.8-13.27V4.59c0-.45-.17-.88-.49-1.2-.32-.32-.74-.49-1.19-.49H18.54c-.45,0-.88.18-1.2.49-.32.32-.49.75-.49,1.2v19.29c0,2.77.26,7.94,1.81,13.27-12.15-3.3-12.32-12.81-12.37-16.05,0-.2,0-3.11,0-3.24,0-2.16.74-2.56,2.2-2.56h3.04c.93,0,1.69-.76,1.69-1.69s-.76-1.69-1.69-1.69h-3.04c-3.54,0-5.58,2.16-5.58,5.94,0,.13,0,3.16,0,3.3.19,10.95,5.94,17.59,17.08,19.77,2.93,6.98,8.57,13.33,19.31,13.9-.05.16-.09.33-.09.51v7.74h-13.63c-.94,0-1.69.76-1.69,1.69s.75,1.69,1.69,1.69h30.64c.93,0,1.69-.76,1.69-1.69s-.76-1.69-1.69-1.69h-13.63v-7.74c0-.18-.04-.35-.09-.51,10.74-.57,16.38-6.91,19.31-13.9,11.14-2.18,16.89-8.82,17.08-19.77,0-.14,0-3.17,0-3.3,0-3.77-2.04-5.94-5.58-5.94Z"/>
        <path class="cls-7" d="M40.34,50.88h-.13c-18.59-.03-20.6-19.32-20.6-27.62V5.66s41.33,0,41.33,0v17.6c0,8.3-2.01,27.59-20.6,27.62ZM72.69,11.3h-2.95c-.93,0-1.69.76-1.69,1.69s.76,1.69,1.69,1.69h2.95c1.46,0,2.2.39,2.2,2.56,0,.13,0,3.04,0,3.24-.04,3.24-.22,12.75-12.37,16.05,1.55-5.33,1.8-10.5,1.8-13.27V3.97c0-.45-.17-.88-.49-1.2-.32-.32-.74-.49-1.19-.49H17.92c-.45,0-.88.18-1.2.49-.32.32-.49.75-.49,1.2v19.29c0,2.77.26,7.94,1.81,13.27-12.15-3.3-12.32-12.81-12.37-16.05,0-.2,0-3.11,0-3.24,0-2.16.74-2.56,2.2-2.56h3.04c.93,0,1.69-.76,1.69-1.69s-.76-1.69-1.69-1.69h-3.04c-3.54,0-5.58,2.16-5.58,5.94,0,.13,0,3.16,0,3.3.19,10.95,5.94,17.59,17.08,19.77,2.93,6.98,8.57,13.33,19.31,13.9-.05.16-.09.33-.09.51v7.74h-13.63c-.94,0-1.69.76-1.69,1.69s.75,1.69,1.69,1.69h30.64c.93,0,1.69-.76,1.69-1.69s-.76-1.69-1.69-1.69h-13.63v-7.74c0-.18-.04-.35-.09-.51,10.74-.57,16.38-6.91,19.31-13.9,11.14-2.18,16.89-8.82,17.08-19.77,0-.14,0-3.17,0-3.3,0-3.77-2.04-5.94-5.58-5.94Z"/>
        <path class="cls-4" d="M39.72,50.25h-.13c-18.59-.03-20.6-19.32-20.6-27.62V5.03s41.33,0,41.33,0v17.6c0,8.3-2.01,27.59-20.6,27.62ZM72.07,10.67h-2.95c-.93,0-1.69.76-1.69,1.69s.76,1.69,1.69,1.69h2.95c1.46,0,2.2.39,2.2,2.56,0,.13,0,3.04,0,3.24-.04,3.24-.22,12.75-12.37,16.05,1.55-5.33,1.8-10.5,1.8-13.27V3.34c0-.45-.17-.88-.49-1.2-.32-.32-.74-.49-1.19-.49H17.29c-.45,0-.88.18-1.2.49-.32.32-.49.75-.49,1.2v19.29c0,2.77.26,7.94,1.81,13.27-12.15-3.3-12.32-12.81-12.37-16.05,0-.2,0-3.11,0-3.24,0-2.16.74-2.56,2.2-2.56h3.04c.93,0,1.69-.76,1.69-1.69s-.76-1.69-1.69-1.69h-3.04c-3.54,0-5.58,2.16-5.58,5.94,0,.13,0,3.16,0,3.3.19,10.95,5.94,17.59,17.08,19.77,2.93,6.98,8.57,13.33,19.31,13.9-.05.16-.09.33-.09.51v7.74h-13.63c-.94,0-1.69.76-1.69,1.69s.75,1.69,1.69,1.69h30.64c.93,0,1.69-.76,1.69-1.69s-.76-1.69-1.69-1.69h-13.63v-7.74c0-.18-.04-.35-.09-.51,10.74-.57,16.38-6.91,19.31-13.9,11.14-2.18,16.89-8.82,17.08-19.77,0-.14,0-3.17,0-3.3,0-3.77-2.04-5.94-5.58-5.94Z"/>
        <path class="cls-6" d="M39.09,49.62h-.13c-18.59-.03-20.6-19.32-20.6-27.62V4.41s41.33,0,41.33,0v17.6c0,8.3-2.01,27.59-20.6,27.62ZM71.44,10.05h-2.95c-.93,0-1.69.76-1.69,1.69s.76,1.69,1.69,1.69h2.95c1.46,0,2.2.39,2.2,2.56,0,.13,0,3.04,0,3.24-.04,3.24-.22,12.75-12.37,16.05,1.55-5.33,1.8-10.5,1.8-13.27V2.72c0-.45-.17-.88-.49-1.2-.32-.32-.74-.49-1.19-.49H16.67c-.45,0-.88.18-1.2.49-.32.32-.49.75-.49,1.2v19.29c0,2.77.26,7.94,1.81,13.27-12.15-3.3-12.32-12.81-12.37-16.05,0-.2,0-3.11,0-3.24,0-2.16.74-2.56,2.2-2.56h3.04c.93,0,1.69-.76,1.69-1.69s-.76-1.69-1.69-1.69h-3.04c-3.54,0-5.58,2.16-5.58,5.94,0,.13,0,3.16,0,3.3.19,10.95,5.94,17.59,17.08,19.77,2.93,6.98,8.57,13.33,19.31,13.9-.05.16-.09.33-.09.51v7.74h-13.63c-.94,0-1.69.76-1.69,1.69s.75,1.69,1.69,1.69h30.64c.93,0,1.69-.76,1.69-1.69s-.76-1.69-1.69-1.69h-13.63v-7.74c0-.18-.04-.35-.09-.51,10.74-.57,16.38-6.91,19.31-13.9,11.14-2.18,16.89-8.82,17.08-19.77,0-.14,0-3.17,0-3.3,0-3.77-2.04-5.94-5.58-5.94Z"/>
        <path class="cls-5" d="M38.47,49h-.13c-18.59-.03-20.6-19.32-20.6-27.62V3.78s41.33,0,41.33,0v17.6c0,8.3-2.01,27.59-20.6,27.62ZM70.82,9.42h-2.95c-.93,0-1.69.76-1.69,1.69s.76,1.69,1.69,1.69h2.95c1.46,0,2.2.39,2.2,2.56,0,.13,0,3.04,0,3.24-.05,3.24-.22,12.75-12.37,16.05,1.55-5.33,1.8-10.5,1.8-13.27V2.09c0-.45-.17-.88-.49-1.2-.32-.32-.74-.49-1.19-.49H16.04c-.45,0-.88.18-1.2.49-.32.32-.49.75-.49,1.2v19.29c0,2.77.26,7.94,1.81,13.27C4.01,31.35,3.84,21.84,3.79,18.6c0-.2,0-3.11,0-3.24,0-2.16.74-2.56,2.2-2.56h3.04c.93,0,1.69-.76,1.69-1.69s-.76-1.69-1.69-1.69h-3.04C2.44,9.42.41,11.59.41,15.36c0,.13,0,3.16,0,3.3.19,10.95,5.94,17.59,17.08,19.77,2.93,6.98,8.57,13.33,19.31,13.9-.05.16-.09.33-.09.51v7.74h-13.63c-.94,0-1.69.76-1.69,1.69s.75,1.69,1.69,1.69h30.64c.93,0,1.69-.76,1.69-1.69s-.76-1.69-1.69-1.69h-13.63v-7.74c0-.18-.04-.35-.09-.51,10.74-.57,16.38-6.91,19.31-13.9,11.14-2.18,16.89-8.82,17.08-19.77,0-.14,0-3.17,0-3.3,0-3.77-2.04-5.94-5.58-5.94Z"/>
      </g>
      <path class="cls-2" d="M70.41,9.02h-2.95c-.93,0-1.69.76-1.69,1.69s.76,1.69,1.69,1.69h2.95c1.46,0,2.2.39,2.2,2.56,0,.13,0,3.04,0,3.24-.05,3.24-.22,12.75-12.37,16.05,1.55-5.33,1.8-10.5,1.8-13.27V1.69c0-.45-.17-.88-.49-1.2-.32-.32-.74-.49-1.19-.49H15.64c-.45,0-.88.18-1.2.49-.32.32-.49.75-.49,1.2v19.29c0,2.77.26,7.94,1.81,13.27C3.61,30.95,3.44,21.44,3.38,18.19c0-.2,0-3.11,0-3.24,0-2.16.74-2.56,2.2-2.56h3.04c.93,0,1.69-.76,1.69-1.69s-.76-1.69-1.69-1.69h-3.04c-3.54,0-5.58,2.16-5.58,5.94,0,.13,0,3.16,0,3.3.19,10.95,5.94,17.59,17.08,19.77,2.93,6.98,8.57,13.33,19.31,13.9-.05.16-.09.33-.09.51v7.74h-13.63c-.94,0-1.69.76-1.69,1.69s.75,1.69,1.69,1.69h30.64c.93,0,1.69-.76,1.69-1.69s-.76-1.69-1.69-1.69h-13.63v-7.74c0-.18-.04-.35-.09-.51,10.74-.57,16.38-6.91,19.31-13.9,11.14-2.18,16.89-8.82,17.08-19.77,0-.14,0-3.17,0-3.3,0-3.77-2.04-5.94-5.58-5.94ZM38.06,48.59h-.13c-18.59-.03-20.6-19.32-20.6-27.62V3.38s41.33,0,41.33,0v17.6c0,8.3-2.01,27.59-20.6,27.62Z"/>
    </g>
  </g>
</svg>