<?xml version="1.0" encoding="UTF-8"?>
<svg id="Layer_2" data-name="Layer 2" xmlns="http://www.w3.org/2000/svg" viewBox="0 0 27.36 19.97">
  <g id="_1" data-name="1">
    <path d="M26.16,0H1.2C.6,0,0,.43,0,1.02v15.73c0,.61.6.73,1.2.73h24.96c.59,0,1.2-.12,1.2-.73V1.02c0-.6-.61-1.02-1.2-1.02h0ZM10.09,11.89c-.66,0-1.19.54-1.19,1.19h9.55c0-.65-.54-1.19-1.21-1.19h0v-5.34l.03.11c.06.26.3.44.58.44.04,0,.09,0,.13-.02.32-.08.51-.4.43-.72l-1.18-2.85h-7.16l-1.18,2.85c-.08.32.11.64.43.72.06.02.1.02.16.02.26,0,.51-.18.58-.44l.02-.11v5.34h-.01ZM14.07,10.36h2.14s.07.04.07.08v.25s-.02.07-.07.07h-2.14s-.07-.02-.07-.07v-.25s.03-.08.07-.08h0ZM14.07,9.66h2.14s.07.03.07.07v.25s-.02.08-.07.08h-2.14s-.07-.04-.07-.08v-.25s.03-.07.07-.07h0ZM14.07,8.96h2.14s.07.02.07.06v.25s-.02.07-.07.07h-2.14s-.07-.03-.07-.07v-.25s.03-.06.07-.06h0ZM14.07,8.25h2.14s.07.02.07.06v.25s-.02.07-.07.07h-2.14s-.07-.03-.07-.07v-.25s.03-.06.07-.06h0ZM11.36,8.21h2.1c.09,0,.18.02.23.1h0c.07.05.1.14.1.23v1.94c0,.08-.02.17-.1.23h0c-.05.06-.14.1-.23.1h-2.1c-.1,0-.18-.04-.24-.1h0c-.06-.07-.1-.15-.1-.23v-1.94c0-.09.03-.18.1-.23.06-.07.14-.1.24-.1h0ZM10.69,7.11c.34,0,.59-.27.59-.6,0,.33.28.6.61.6s.59-.27.59-.6c0,.33.26.6.59.6s.59-.27.59-.6c0,.33.28.6.59.6.33,0,.61-.27.61-.6,0,.33.26.6.59.6s.59-.27.59-.6c0,.33.26.6.59.6v4.78h-5.97v-4.78ZM25.63,14.72H1.73V1.73h23.9v12.99ZM17.19,19.27c-.47-.36-.53-.98-.53-.98l-.18-1.25h-5.62l-.18,1.25s-.04.57-.51.91c-.47.35-.84.68-.47.72.36.06,3.72.02,3.97.02s3.62.06,3.99,0c.37-.05,0-.33-.47-.67h0Z"/>
  </g>
</svg>