<?xml version="1.0" encoding="UTF-8"?>
<svg id="Layer_2" data-name="Layer 2" xmlns="http://www.w3.org/2000/svg" viewBox="0 0 27.36 20.38">
  <g id="_1" data-name="1">
    <path d="M24.11,0H1.09C.54,0,0,.46,0,1.02v14.5c0,.55.54.75,1.09.75h19.13v-2.65H1.66V1.66h21.9v6.66h1.66V1.02c0-.55-.55-1.02-1.11-1.02h0ZM26.9,9.05h-5.52c-.25,0-.44.19-.44.44v10.41c0,.24.19.47.44.47h5.52c.26,0,.45-.22.45-.47v-10.41c0-.25-.19-.44-.45-.44h0ZM21.99,15.2h4.32c.11,0,.2.09.2.21v1.3c0,.11-.1.2-.2.2h-4.32c-.12,0-.22-.09-.22-.2v-1.3c0-.11.1-.21.22-.21h0ZM21.93,13.5h4.44c.08,0,.15.06.15.14v.9c0,.07-.06.14-.15.14h-4.44c-.08,0-.16-.07-.16-.14v-.9c0-.08.07-.14.16-.14h0ZM21.88,12.13h4.53c.05,0,.1.05.1.11v.64c0,.06-.05.1-.1.1h-4.53c-.07,0-.11-.04-.11-.1v-.64c0-.06.04-.11.11-.11h0ZM23.19,9.99h0s.06.03.06.06c0,.04-.05.05-.06.05-.04,0-.05-.01-.05-.05,0-.03.01-.06.05-.06h0ZM22.79,9.92h0c.05,0,.11.06.11.13,0,.05-.05.11-.11.11-.07,0-.13-.06-.13-.11,0-.07.06-.13.13-.13h0ZM22.29,9.87h0c.1,0,.16.07.16.17,0,.07-.07.14-.16.14-.08,0-.14-.07-.14-.14,0-.1.06-.17.14-.17h0ZM21.75,9.85h0c.1,0,.16.07.16.18,0,.08-.07.16-.16.16-.11,0-.18-.08-.18-.16,0-.11.07-.18.18-.18h0ZM24.15,18.73h0c.37,0,.68.3.68.67s-.31.68-.68.68-.68-.3-.68-.68.3-.67.68-.67h0ZM23.54,9.99h1.15c.05,0,.08.04.08.07,0,.06-.03.1-.08.1h-1.15c-.06,0-.1-.04-.1-.1,0-.02.04-.07.1-.07h0ZM26.83,18.56h-5.37v-7.72h5.37v7.72ZM3.17,9.84h17.06v3.15H3.17c-.14,0-.26-.27-.26-.62v-1.91c0-.35.11-.62.26-.62h0ZM3.4,5.55h4.82c.16,0,.26.28.26.62v1.91c0,.33-.11.6-.26.6H3.4c-.15,0-.26-.28-.26-.6v-1.91c0-.34.11-.62.26-.62h0ZM17.21,5.55h4.84c.14,0,.25.28.25.62v1.91c0,.08,0,.16-.01.24h-.9c-.33,0-.64.15-.86.37h-3.32c-.14,0-.25-.28-.25-.6v-1.91c0-.34.11-.62.25-.62h0ZM10.3,5.55h4.84c.14,0,.26.28.26.62v1.91c0,.33-.12.6-.26.6h-4.84c-.14,0-.25-.28-.25-.6v-1.91c0-.34.11-.62.25-.62h0ZM3.28,2.6h4.84c.14,0,.26.11.26.26v.79c0,.15-.13.26-.26.26H3.28c-.14,0-.25-.11-.25-.26v-.79c0-.15.11-.26.25-.26h0ZM17.1,2.6h4.83c.15,0,.26.11.26.26v.79c0,.15-.11.26-.26.26h-4.83c-.15,0-.26-.11-.26-.26v-.79c0-.15.11-.26.26-.26h0ZM10.19,2.6h4.84c.14,0,.25.11.25.26v.79c0,.15-.11.26-.25.26h-4.84c-.14,0-.27-.11-.27-.26v-.79c0-.15.13-.26.27-.26h0ZM15.84,19.36c-.44-.32-.48-.92-.48-.92l-.21-2.2h-5.17l-.12,2.2s-.06.54-.49.85c-.43.32-.77.64-.43.68.32.04,3.43.02,3.66.02s3.33.05,3.66.01c.35-.05,0-.32-.43-.64h0ZM12.61,13.92c.53,0,.97.43.97.97,0,1.26-1.94,1.26-1.94,0,0-.54.43-.97.97-.97h0Z"/>
  </g>
</svg>