<?xml version="1.0" encoding="UTF-8"?>
<svg id="Layer_2" data-name="Layer 2" xmlns="http://www.w3.org/2000/svg" viewBox="0 0 27.36 18.13">
  <defs>
    <style>
      .cls-1 {
        fill-rule: evenodd;
      }
    </style>
  </defs>
  <g id="_1" data-name="1">
    <path class="cls-1" d="M27.34,5.55c-.08-.39-.26-.77-.57-1.07l-3.88-3.88c-.33-.31-.73-.52-1.13-.58h-.02s-.03-.02-.03-.02h-5.86c-1.15,0-2.07.94-2.07,2.09v4.48h1.38V2.09c0-.4.31-.71.7-.71h5.1v2.89c0,1.16.94,2.11,2.1,2.11h2.94v9.67h0c0,.39-.33.7-.71.7h-9.43c-.39,0-.7-.31-.7-.7v-4.16h-1.38v4.26c.07,1.09.97,1.98,2.07,1.98h9.43c1.15,0,2.09-.93,2.09-2.08V5.6l-.02-.05ZM19.7,9.64c.17-.08.27-.24.27-.43s-.11-.35-.27-.43l-3.73-1.79.02,4.48,3.72-1.82ZM15.38,11.46h0l-.02-4.47-10.57.04.02,4.48,10.57-.05ZM3.11,11.51h0l-.02-4.47h1.22l.02,4.47h-1.22ZM0,8.03H0v2.53c.01.54.44.98.98.96h1.68l-.02-4.47H.97c-.26,0-.5.11-.69.29C.1,7.52-.01,7.77,0,8.03H0ZM17.44,15.28h6.34c.24,0,.42.19.42.42h0c0,.23-.19.41-.42.41h-6.34c-.23,0-.41-.19-.41-.41h0c0-.24.18-.42.41-.42h0ZM17.44,13.38h6.34c.24,0,.42.19.42.41h0c0,.24-.19.42-.42.42h-6.34c-.23,0-.41-.19-.41-.42h0c0-.22.18-.41.41-.41h0ZM20.56,6.48c.77,0,1.46.32,1.97.82h0c.5.51.82,1.2.82,1.97s-.32,1.47-.82,1.97h0c-.51.51-1.2.82-1.97.82s-1.47-.31-1.97-.82h0c-.13-.13-.25-.26-.34-.41l.38-.19c.08.11.17.2.25.3.43.42,1.02.69,1.68.69s1.24-.26,1.66-.69c.43-.43.69-1.01.69-1.67s-.26-1.24-.69-1.66c-.42-.43-1.01-.69-1.66-.69s-1.24.26-1.68.69c-.07.07-.13.13-.18.22l-.4-.19c.09-.12.18-.23.29-.34h0c.5-.5,1.2-.82,1.97-.82h0ZM20.56,8.1c.31,0,.61.13.82.35.21.21.34.5.34.82s-.14.61-.34.83c-.21.21-.5.34-.82.34s-.61-.13-.82-.34l.14-.06c.09-.04.17-.1.24-.17.13.1.27.15.44.15.2,0,.38-.08.52-.22.13-.13.22-.31.22-.52,0-.2-.09-.38-.22-.52-.14-.13-.33-.22-.52-.22-.14,0-.27.04-.37.1-.08-.09-.18-.18-.3-.24l-.06-.03c.2-.16.46-.26.73-.26h0ZM20.56,7.26c.55,0,1.05.22,1.42.59.37.37.59.87.59,1.42s-.23,1.06-.59,1.43c-.37.36-.87.59-1.42.59s-1.07-.23-1.43-.59c-.07-.07-.13-.14-.19-.21l.39-.2s.06.07.1.1c.28.29.68.47,1.12.47s.84-.18,1.12-.47c.28-.29.46-.68.46-1.12s-.18-.84-.46-1.12c-.29-.28-.69-.46-1.12-.46s-.84.18-1.12.46l-.02.02-.4-.19s.08-.09.12-.13c.37-.37.87-.59,1.43-.59h0ZM22.32,1.99h0l3.01,3.01h-2.28c-.39,0-.72-.33-.72-.73V1.99Z"/>
  </g>
</svg>