<?xml version="1.0" encoding="UTF-8"?>
<svg id="Layer_2" data-name="Layer 2" xmlns="http://www.w3.org/2000/svg" viewBox="0 0 25.86 27.72">
  <defs>
    <style>
      .cls-1 {
        fill-rule: evenodd;
      }
    </style>
  </defs>
  <g id="_1" data-name="1">
    <path class="cls-1" d="M21.72,21.28c0-.77.54-1.31,1.3-1.31s1.43.55,1.43,1.31-.66,1.42-1.43,1.42-1.3-.65-1.3-1.42h0ZM16.59,24.23c.87,0,1.74.76,1.74,1.75s-.87,1.74-1.74,1.74c-.98,0-1.75-.76-1.75-1.74s.77-1.75,1.75-1.75h0ZM8.08,23.24c1.2,0,2.07.98,2.07,2.07,0,1.2-.87,2.18-2.07,2.18s-2.18-.98-2.18-2.18c0-1.09.98-2.07,2.18-2.07h0ZM2.51,15.61c1.42,0,2.62,1.09,2.62,2.51s-1.2,2.51-2.62,2.51c-1.31,0-2.51-1.09-2.51-2.51s1.2-2.51,2.51-2.51h0ZM3.93,10.69c-1.64,0-2.95-1.31-2.95-2.84,0-1.64,1.31-2.94,2.95-2.94s2.94,1.31,2.94,2.94c0,1.53-1.31,2.84-2.94,2.84h0ZM13.31,6.44c-1.74,0-3.27-1.42-3.27-3.16,0-1.86,1.53-3.27,3.27-3.27s3.28,1.42,3.28,3.27c0,1.75-1.53,3.16-3.28,3.16h0ZM24.34,14.73c0-.44.33-.76.77-.76s.76.33.76.76-.33.76-.76.76-.77-.33-.77-.76h0Z"/>
  </g>
</svg>