<?xml version="1.0" encoding="UTF-8"?>
<svg id="Layer_2" data-name="Layer 2" xmlns="http://www.w3.org/2000/svg" xmlns:xlink="http://www.w3.org/1999/xlink" viewBox="0 0 70.95 70.95">
  <defs>
    <style>
      .cls-1 {
        opacity: .14;
      }

      .cls-2 {
        fill: url(#linear-gradient-2);
      }

      .cls-3 {
        opacity: .21;
      }

      .cls-4 {
        opacity: .42;
      }

      .cls-5 {
        opacity: .55;
      }

      .cls-6 {
        opacity: .48;
      }

      .cls-7 {
        opacity: .35;
      }

      .cls-8 {
        fill: url(#linear-gradient-3);
      }

      .cls-9 {
        opacity: .08;
      }

      .cls-10 {
        opacity: .28;
      }

      .cls-11 {
        opacity: 0;
      }

      .cls-12 {
        fill: url(#linear-gradient);
      }
    </style>
    <linearGradient id="linear-gradient" x1="8.74" y1="9.18" x2="57.18" y2="57.61" gradientUnits="userSpaceOnUse">
      <stop offset="0" stop-color="#056696"/>
      <stop offset="1" stop-color="#80dbff"/>
    </linearGradient>
    <linearGradient id="linear-gradient-2" x1="20.33" y1="26.12" x2="45.77" y2="51.55" gradientUnits="userSpaceOnUse">
      <stop offset="0" stop-color="#c0c1c0"/>
      <stop offset=".2" stop-color="#d4d4d4"/>
      <stop offset=".49" stop-color="#ebeceb"/>
      <stop offset=".77" stop-color="#fafafa"/>
      <stop offset="1" stop-color="#fff"/>
    </linearGradient>
    <linearGradient id="linear-gradient-3" x1="9.6" y1="9.61" x2="55.94" y2="55.94" gradientUnits="userSpaceOnUse">
      <stop offset="0" stop-color="#2c2e2c"/>
      <stop offset=".99" stop-color="#000"/>
    </linearGradient>
  </defs>
  <g id="Layer_1-2" data-name="Layer 1">
    <g>
      <path class="cls-12" d="M63.92,33.19c0,17.21-13.95,31.16-31.16,31.16S1.6,50.4,1.6,33.19,15.55,2.03,32.76,2.03s31.16,13.95,31.16,31.16Z"/>
      <polygon class="cls-2" points="32.69 15.84 17.68 46.1 32.69 40.75 48.5 46.32 32.69 15.84"/>
      <g>
        <path class="cls-11" d="M35.41,26.66c-.83-.42-1.85-.08-2.27.75l-11.82,23.62c-.31.62-.21,1.38.26,1.89.47.51,1.21.69,1.86.44l14.75-5.67,14.75,5.67c.2.07.4.11.61.11.47,0,.92-.19,1.25-.56.47-.52.57-1.27.26-1.89l-15.35-30.5c-.42-.83-1.44-1.17-2.27-.75-.83.42-1.17,1.44-.75,2.27l13.38,26.59-11.28-4.33c-.39-.15-.82-.15-1.21,0l-11.29,4.34,9.87-19.72c.42-.83.08-1.85-.75-2.27ZM38.18,5.41c-11.65,0-22.53,6.27-28.38,16.37-1.06,1.84-1.95,3.78-2.64,5.79-.3.88.17,1.84,1.05,2.15.88.3,1.84-.17,2.15-1.05.61-1.79,1.41-3.54,2.36-5.19,5.25-9.06,15-14.68,25.45-14.68,16.21,0,29.39,13.19,29.39,29.39s-13.19,29.4-29.39,29.4-29.39-13.19-29.39-29.4c0-.93-.76-1.69-1.69-1.69s-1.69.75-1.69,1.69c0,18.08,14.7,32.78,32.77,32.78s32.77-14.7,32.77-32.78S56.25,5.41,38.18,5.41Z"/>
        <path class="cls-9" d="M34.78,26.03c-.83-.42-1.85-.08-2.27.75l-11.82,23.62c-.31.62-.21,1.38.26,1.89.47.52,1.21.69,1.86.44l14.75-5.67,14.75,5.67c.2.07.4.11.61.11.47,0,.92-.19,1.25-.56.47-.52.57-1.27.26-1.89l-15.35-30.5c-.42-.83-1.44-1.17-2.27-.75-.83.42-1.17,1.44-.75,2.27l13.38,26.59-11.28-4.33c-.39-.15-.82-.15-1.21,0l-11.29,4.34,9.87-19.72c.42-.83.08-1.85-.75-2.27ZM37.56,4.78c-11.65,0-22.53,6.27-28.38,16.37-1.06,1.84-1.95,3.78-2.64,5.79-.3.88.17,1.84,1.05,2.15.88.3,1.84-.17,2.15-1.05.61-1.79,1.41-3.54,2.36-5.19,5.25-9.06,15-14.68,25.45-14.68,16.21,0,29.39,13.19,29.39,29.39s-13.19,29.4-29.39,29.4-29.39-13.19-29.39-29.4c0-.93-.76-1.69-1.69-1.69s-1.69.75-1.69,1.69c0,18.08,14.7,32.78,32.77,32.78s32.77-14.7,32.77-32.78S55.63,4.78,37.56,4.78Z"/>
        <path class="cls-1" d="M34.16,25.41c-.83-.42-1.85-.08-2.27.75l-11.82,23.62c-.31.62-.21,1.38.26,1.89.47.52,1.21.69,1.86.44l14.75-5.67,14.75,5.67c.2.07.4.11.61.11.47,0,.92-.19,1.25-.56.47-.52.57-1.27.26-1.89l-15.35-30.5c-.42-.83-1.44-1.17-2.27-.75-.83.42-1.17,1.44-.75,2.27l13.38,26.59-11.28-4.33c-.39-.15-.82-.15-1.21,0l-11.29,4.34,9.87-19.72c.42-.83.08-1.85-.75-2.27ZM36.93,4.16c-11.65,0-22.53,6.27-28.38,16.37-1.06,1.84-1.95,3.78-2.64,5.79-.3.88.17,1.84,1.05,2.15.88.3,1.84-.17,2.15-1.05.61-1.79,1.41-3.54,2.36-5.19,5.25-9.06,15-14.68,25.45-14.68,16.21,0,29.39,13.19,29.39,29.39s-13.19,29.4-29.39,29.4S7.54,53.14,7.54,36.93c0-.93-.76-1.69-1.69-1.69s-1.69.75-1.69,1.69c0,18.08,14.7,32.78,32.77,32.78s32.77-14.7,32.77-32.78S55,4.16,36.93,4.16Z"/>
        <path class="cls-3" d="M33.53,24.78c-.83-.42-1.85-.08-2.27.75l-11.82,23.62c-.31.62-.21,1.38.26,1.89.47.52,1.21.69,1.86.44l14.75-5.67,14.75,5.67c.2.07.4.11.61.11.47,0,.92-.19,1.25-.56.47-.52.57-1.27.26-1.89l-15.35-30.5c-.42-.83-1.44-1.17-2.27-.75-.83.42-1.17,1.44-.75,2.27l13.38,26.59-11.28-4.33c-.39-.15-.82-.15-1.21,0l-11.29,4.34,9.87-19.72c.42-.83.08-1.85-.75-2.27ZM36.31,3.53c-11.65,0-22.53,6.27-28.38,16.37-1.06,1.84-1.95,3.78-2.64,5.79-.3.88.17,1.84,1.05,2.15.88.3,1.84-.17,2.15-1.05.61-1.79,1.41-3.54,2.36-5.19,5.25-9.06,15-14.68,25.45-14.68,16.21,0,29.39,13.19,29.39,29.39s-13.19,29.4-29.39,29.4S6.91,52.51,6.91,36.3c0-.93-.76-1.69-1.69-1.69s-1.69.75-1.69,1.69c0,18.08,14.7,32.78,32.77,32.78s32.77-14.7,32.77-32.78S54.38,3.53,36.31,3.53Z"/>
        <path class="cls-10" d="M32.91,24.16c-.83-.42-1.85-.08-2.27.75l-11.82,23.62c-.31.62-.21,1.38.26,1.89.47.52,1.21.69,1.86.44l14.75-5.67,14.75,5.67c.2.07.4.11.61.11.47,0,.92-.19,1.25-.56.47-.52.57-1.27.26-1.89l-15.35-30.5c-.42-.83-1.44-1.17-2.27-.75-.83.42-1.17,1.44-.75,2.27l13.38,26.59-11.28-4.33c-.39-.15-.82-.15-1.21,0l-11.29,4.34,9.87-19.72c.42-.83.08-1.85-.75-2.27ZM35.68,2.91c-11.65,0-22.53,6.27-28.38,16.37-1.06,1.84-1.95,3.78-2.64,5.79-.3.88.17,1.84,1.05,2.15.88.3,1.84-.17,2.15-1.05.61-1.79,1.41-3.54,2.36-5.19,5.25-9.06,15-14.68,25.45-14.68,16.21,0,29.39,13.19,29.39,29.39s-13.19,29.4-29.39,29.4S6.29,51.89,6.29,35.68c0-.93-.76-1.69-1.69-1.69s-1.69.75-1.69,1.69c0,18.08,14.7,32.78,32.77,32.78s32.77-14.7,32.77-32.78S53.75,2.91,35.68,2.91Z"/>
        <path class="cls-7" d="M32.28,23.53c-.83-.42-1.85-.08-2.27.75l-11.82,23.62c-.31.62-.21,1.38.26,1.89.47.52,1.21.69,1.86.44l14.75-5.67,14.75,5.67c.2.07.4.11.61.11.47,0,.92-.19,1.25-.56.47-.52.57-1.27.26-1.89l-15.35-30.5c-.42-.83-1.44-1.17-2.27-.75-.83.42-1.17,1.44-.75,2.27l13.38,26.59-11.28-4.33c-.39-.15-.82-.15-1.21,0l-11.29,4.34,9.87-19.72c.42-.83.08-1.85-.75-2.27ZM35.06,2.28c-11.65,0-22.53,6.27-28.38,16.37-1.06,1.84-1.95,3.78-2.64,5.79-.3.88.17,1.84,1.05,2.15.88.3,1.84-.17,2.15-1.05.61-1.79,1.41-3.54,2.36-5.19,5.25-9.06,15-14.68,25.45-14.68,16.21,0,29.39,13.19,29.39,29.39s-13.19,29.4-29.39,29.4S5.66,51.26,5.66,35.05c0-.93-.76-1.69-1.69-1.69s-1.69.75-1.69,1.69c0,18.08,14.7,32.78,32.77,32.78s32.77-14.7,32.77-32.78S53.13,2.28,35.06,2.28Z"/>
        <path class="cls-4" d="M31.66,22.91c-.83-.42-1.85-.08-2.27.75l-11.82,23.62c-.31.62-.21,1.38.26,1.89.47.52,1.21.69,1.86.44l14.75-5.67,14.75,5.67c.2.07.4.11.61.11.47,0,.92-.19,1.25-.56.47-.52.57-1.27.26-1.89l-15.35-30.5c-.42-.83-1.44-1.17-2.27-.75-.83.42-1.17,1.44-.75,2.27l13.38,26.59-11.28-4.33c-.39-.15-.82-.15-1.21,0l-11.29,4.34,9.87-19.72c.42-.83.08-1.85-.75-2.27ZM34.43,1.66C22.78,1.66,11.9,7.93,6.05,18.02c-1.06,1.84-1.95,3.78-2.64,5.79-.3.88.17,1.84,1.05,2.15.88.3,1.84-.17,2.15-1.05.61-1.79,1.41-3.54,2.36-5.19,5.25-9.06,15-14.68,25.45-14.68,16.21,0,29.39,13.19,29.39,29.39s-13.19,29.4-29.39,29.4S5.04,50.64,5.04,34.43c0-.93-.76-1.69-1.69-1.69s-1.69.75-1.69,1.69c0,18.08,14.7,32.78,32.77,32.78s32.77-14.7,32.77-32.78S52.5,1.66,34.43,1.66Z"/>
        <path class="cls-6" d="M31.03,22.28c-.83-.42-1.85-.08-2.27.75l-11.82,23.62c-.31.62-.21,1.38.26,1.89.47.52,1.21.69,1.86.44l14.75-5.67,14.75,5.67c.2.07.4.11.61.11.47,0,.92-.19,1.25-.56.47-.52.57-1.27.26-1.89l-15.35-30.5c-.42-.83-1.44-1.17-2.27-.75-.83.42-1.17,1.44-.75,2.27l13.38,26.59-11.28-4.33c-.39-.15-.82-.15-1.21,0l-11.29,4.34,9.87-19.72c.42-.83.08-1.85-.75-2.27ZM33.81,1.03C22.15,1.03,11.28,7.3,5.43,17.4c-1.06,1.84-1.95,3.78-2.64,5.79-.3.88.17,1.84,1.05,2.15.88.3,1.84-.17,2.15-1.05.61-1.79,1.41-3.54,2.36-5.19,5.25-9.06,15-14.68,25.45-14.68,16.21,0,29.39,13.19,29.39,29.39s-13.19,29.4-29.39,29.4S4.41,50.01,4.41,33.8c0-.93-.76-1.69-1.69-1.69s-1.69.75-1.69,1.69c0,18.08,14.7,32.78,32.77,32.78s32.77-14.7,32.77-32.78S51.88,1.03,33.81,1.03Z"/>
        <path class="cls-5" d="M30.41,21.66c-.83-.42-1.85-.08-2.27.75l-11.82,23.62c-.31.62-.21,1.38.26,1.89.47.51,1.21.69,1.86.44l14.75-5.67,14.75,5.67c.2.07.4.11.61.11.47,0,.92-.19,1.25-.56.47-.52.57-1.27.26-1.89l-15.35-30.5c-.42-.83-1.44-1.17-2.27-.75-.83.42-1.17,1.44-.75,2.27l13.38,26.59-11.28-4.33c-.39-.15-.82-.15-1.21,0l-11.29,4.34,9.87-19.72c.42-.83.08-1.85-.75-2.27ZM33.18.41C21.53.41,10.65,6.68,4.8,16.77c-1.06,1.84-1.95,3.78-2.64,5.79-.3.88.17,1.84,1.05,2.15.88.3,1.84-.17,2.15-1.05.61-1.79,1.41-3.54,2.36-5.19C12.98,9.41,22.73,3.79,33.18,3.79c16.21,0,29.39,13.19,29.39,29.39s-13.19,29.4-29.39,29.4S3.79,49.39,3.79,33.18c0-.93-.76-1.69-1.69-1.69s-1.69.75-1.69,1.69c0,18.08,14.7,32.78,32.77,32.78s32.77-14.7,32.77-32.78S51.25.41,33.18.41Z"/>
      </g>
      <path class="cls-8" d="M32.77,0C21.12,0,10.25,6.27,4.4,16.37c-1.06,1.84-1.95,3.78-2.64,5.79-.3.88.17,1.84,1.05,2.15.88.3,1.84-.17,2.15-1.05.61-1.79,1.41-3.54,2.36-5.19C12.57,9,22.32,3.38,32.77,3.38c16.21,0,29.39,13.19,29.39,29.39s-13.19,29.4-29.39,29.4S3.38,48.98,3.38,32.77c0-.93-.76-1.69-1.69-1.69s-1.69.75-1.69,1.69c0,18.08,14.7,32.78,32.77,32.78s32.77-14.7,32.77-32.78S50.84,0,32.77,0ZM30,21.25c-.83-.42-1.85-.08-2.27.75l-11.82,23.62c-.31.62-.21,1.38.26,1.89.47.51,1.21.69,1.86.44l14.75-5.67,14.75,5.67c.2.07.4.11.61.11.47,0,.92-.19,1.25-.56.47-.52.57-1.27.26-1.89l-15.35-30.5c-.42-.83-1.44-1.17-2.27-.75-.83.42-1.17,1.44-.75,2.27l13.38,26.59-11.28-4.33c-.39-.15-.82-.15-1.21,0l-11.29,4.34,9.87-19.72c.42-.83.08-1.85-.75-2.27Z"/>
    </g>
  </g>
</svg>