<?xml version="1.0" encoding="UTF-8"?>
<svg id="Layer_2" data-name="Layer 2" xmlns="http://www.w3.org/2000/svg" xmlns:xlink="http://www.w3.org/1999/xlink" viewBox="0 0 91.98 66.02">
  <defs>
    <style>
      .cls-1 {
        opacity: .14;
      }

      .cls-2 {
        fill: url(#linear-gradient-2);
      }

      .cls-3 {
        opacity: .21;
      }

      .cls-4 {
        opacity: .42;
      }

      .cls-5 {
        opacity: .55;
      }

      .cls-6 {
        opacity: .48;
      }

      .cls-7 {
        opacity: .35;
      }

      .cls-8 {
        opacity: .08;
      }

      .cls-9 {
        opacity: .28;
      }

      .cls-10 {
        opacity: 0;
      }

      .cls-11 {
        fill: url(#linear-gradient);
      }
    </style>
    <linearGradient id="linear-gradient" x1="17.17" y1="1.53" x2="70.5" y2="54.86" gradientUnits="userSpaceOnUse">
      <stop offset="0" stop-color="#8684c9"/>
      <stop offset="1" stop-color="#bfd4ff"/>
    </linearGradient>
    <linearGradient id="linear-gradient-2" x1="17.51" y1="1.84" x2="69.08" y2="53.41" gradientUnits="userSpaceOnUse">
      <stop offset="0" stop-color="#2c2e2c"/>
      <stop offset=".99" stop-color="#000"/>
    </linearGradient>
  </defs>
  <g id="Layer_1-2" data-name="Layer 1">
    <g>
      <path class="cls-11" d="M44.73,1.6h-21.53c-1.7,0-4.42,1.16-7.59,4.34-3.18,3.18-13.79,13.79-13.79,13.79l11.23,11.23,7.21-6.58v26.03c0,3.25,1.39,8.52,7.13,8.52h30.06c3.25,0,8.21-3.1,8.21-7.44v-26.18l7.13,5.58,11.93-11.93s-11.93-10.84-14.72-13.48c-2.79-2.63-4.49-3.87-9.92-3.87h-15.34Z"/>
      <g>
        <path class="cls-10" d="M25.83,27.69c.22,0,.44.04.65.13.63.26,1.04.88,1.04,1.56v27.61c0,3.12,2.54,5.66,5.66,5.66h30.37c3.12,0,5.66-2.54,5.66-5.66v-27.61c0-.68.41-1.3,1.04-1.56.63-.26,1.36-.12,1.84.37l6.19,6.19,9.57-9.56-15.55-14.31s-.04-.04-.06-.05c-1.07-1.08-2.5-1.68-4.02-1.68h-6.67c-.83,7.09-6.88,12.61-14.2,12.61s-13.36-5.52-14.2-12.61h-4.66c-1.52,0-2.95.6-4.01,1.68l-15,15,8.96,8.92,6.19-6.19c.32-.32.75-.5,1.19-.5ZM63.54,66.02h-30.37c-4.98,0-9.04-4.05-9.04-9.04v-23.52l-4.5,4.5c-.66.66-1.73.66-2.39,0l-11.35-11.3c-.32-.32-.5-.75-.5-1.2,0-.45.18-.88.49-1.2L22.09,8.07c1.7-1.72,3.98-2.67,6.41-2.67h21.89c.93,0,1.69.75,1.69,1.69s-.76,1.69-1.69,1.69h-13.82c.81,5.22,5.34,9.24,10.79,9.24,6.02,0,10.92-4.9,10.92-10.92,0-.59.3-1.13.81-1.44.26-.16.58-.25.89-.25h8.24c2.41,0,4.68.94,6.38,2.64l16.83,15.47c.34.31.54.75.54,1.21,0,.46-.17.9-.5,1.23l-12.01,11.99c-.66.66-1.73.66-2.39,0l-4.5-4.5v23.53c0,4.98-4.05,9.04-9.04,9.04Z"/>
        <path class="cls-8" d="M25.2,27.06c.22,0,.44.04.65.13.63.26,1.04.88,1.04,1.56v27.61c0,3.12,2.54,5.66,5.66,5.66h30.37c3.12,0,5.66-2.54,5.66-5.66v-27.61c0-.68.41-1.3,1.04-1.56.63-.26,1.36-.12,1.84.37l6.19,6.19,9.57-9.56-15.55-14.31s-.04-.03-.06-.05c-1.13-1.02-2.5-1.68-4.02-1.68h-6.67c-.83,7.09-6.88,12.61-14.2,12.61s-13.36-5.52-14.2-12.61h-4.66c-1.52,0-2.95.6-4.01,1.68l-15,15,8.96,8.92,6.19-6.19c.32-.32.75-.5,1.19-.5ZM62.92,65.39h-30.37c-4.98,0-9.04-4.05-9.04-9.04v-23.52l-4.5,4.5c-.66.66-1.73.66-2.39,0l-11.35-11.3c-.32-.32-.5-.75-.5-1.2,0-.45.18-.88.49-1.2L21.47,7.45c1.7-1.72,3.98-2.67,6.41-2.67h21.89c.93,0,1.69.75,1.69,1.69s-.76,1.69-1.69,1.69h-13.82c.81,5.22,5.34,9.24,10.79,9.24,6.02,0,10.92-4.9,10.92-10.92,0-.59.31-1.13.81-1.44.26-.16.58-.25.89-.25h8.24c2.41,0,4.68.94,6.38,2.64l16.83,15.47c.34.31.54.75.54,1.21,0,.46-.17.9-.5,1.23l-12.01,11.99c-.66.66-1.73.66-2.39,0l-4.5-4.5v23.53c0,4.98-4.05,9.04-9.04,9.04Z"/>
        <path class="cls-1" d="M24.58,26.44c.22,0,.44.04.65.13.63.26,1.04.88,1.04,1.56v27.61c0,3.12,2.54,5.66,5.66,5.66h30.37c3.12,0,5.66-2.54,5.66-5.66v-27.61c0-.68.41-1.3,1.04-1.56.63-.26,1.36-.12,1.84.37l6.19,6.19,9.57-9.56-15.55-14.31s-.04-.03-.06-.05c-1.13-1.02-2.5-1.68-4.02-1.68h-6.67c-.83,7.09-6.88,12.61-14.2,12.61s-13.36-5.52-14.2-12.61h-4.66c-1.52,0-2.95.6-4.01,1.68l-15,15,8.96,8.92,6.19-6.19c.32-.32.75-.5,1.19-.5ZM62.29,64.77h-30.37c-4.98,0-9.04-4.05-9.04-9.04v-23.52l-4.5,4.5c-.66.66-1.73.66-2.39,0l-11.35-11.3c-.32-.32-.5-.75-.5-1.2,0-.45.18-.88.49-1.2L20.84,6.82c1.7-1.72,3.98-2.67,6.41-2.67h21.89c.93,0,1.69.75,1.69,1.69s-.76,1.69-1.69,1.69h-13.82c.81,5.22,5.34,9.24,10.79,9.24,6.02,0,10.92-4.9,10.92-10.92,0-.59.31-1.13.81-1.44.26-.16.58-.25.89-.25h8.24c2.41,0,4.68.94,6.38,2.64l16.83,15.47c.34.31.54.75.54,1.21,0,.46-.17.9-.5,1.23l-12.01,11.99c-.66.66-1.73.66-2.39,0l-4.5-4.5v23.53c0,4.98-4.05,9.04-9.04,9.04Z"/>
        <path class="cls-3" d="M23.95,25.81c.22,0,.44.04.65.13.63.26,1.04.88,1.04,1.56v27.61c0,3.12,2.54,5.66,5.66,5.66h30.37c3.12,0,5.66-2.54,5.66-5.66v-27.61c0-.68.41-1.3,1.04-1.56.63-.26,1.36-.12,1.84.37l6.19,6.19,9.57-9.56-15.55-14.31s-.04-.03-.06-.05c-1.13-1.02-2.5-1.68-4.02-1.68h-6.67c-.83,7.09-6.88,12.61-14.2,12.61s-13.36-5.52-14.2-12.61h-4.66c-1.52,0-2.95.6-4.01,1.68l-15,15,8.96,8.92,6.19-6.19c.32-.32.75-.5,1.19-.5ZM61.67,64.14h-30.37c-4.98,0-9.04-4.05-9.04-9.04v-23.52l-4.5,4.5c-.66.66-1.73.66-2.39,0l-11.35-11.3c-.32-.32-.5-.75-.5-1.2,0-.45.18-.88.49-1.2L20.22,6.2c1.7-1.72,3.98-2.67,6.41-2.67h21.89c.93,0,1.69.75,1.69,1.69s-.76,1.69-1.69,1.69h-13.82c.81,5.22,5.34,9.24,10.79,9.24,6.02,0,10.92-4.9,10.92-10.92,0-.59.31-1.13.81-1.44.26-.16.58-.25.89-.25h8.24c2.41,0,4.68.94,6.38,2.64l16.83,15.47c.34.31.54.75.54,1.21,0,.46-.17.9-.5,1.23l-12.01,11.99c-.66.66-1.73.66-2.39,0l-4.5-4.5v23.53c0,4.98-4.05,9.04-9.04,9.04Z"/>
        <path class="cls-9" d="M23.33,25.19c.22,0,.44.04.65.13.63.26,1.04.88,1.04,1.56v27.61c0,3.12,2.54,5.66,5.66,5.66h30.37c3.12,0,5.66-2.54,5.66-5.66v-27.61c0-.68.41-1.3,1.04-1.56.63-.26,1.36-.12,1.84.37l6.19,6.19,9.57-9.56-15.55-14.31s-.04-.03-.06-.05c-1.13-1.02-2.5-1.68-4.02-1.68h-6.67c-.83,7.09-6.88,12.61-14.2,12.61s-13.36-5.52-14.2-12.61h-4.66c-1.52,0-2.95.6-4.01,1.68l-15,15,8.96,8.92,6.19-6.19c.32-.32.75-.5,1.19-.5ZM61.04,63.52h-30.37c-4.98,0-9.04-4.05-9.04-9.04v-23.52l-4.5,4.5c-.66.66-1.73.66-2.39,0L3.4,24.16c-.32-.32-.5-.75-.5-1.2,0-.45.18-.88.49-1.2L19.59,5.57c1.7-1.72,3.98-2.67,6.41-2.67h21.89c.93,0,1.69.75,1.69,1.69s-.76,1.69-1.69,1.69h-13.82c.81,5.22,5.34,9.24,10.79,9.24,6.02,0,10.92-4.9,10.92-10.92,0-.59.31-1.13.81-1.44.26-.16.58-.25.89-.25h8.24c2.41,0,4.68.94,6.38,2.64l16.83,15.47c.34.31.54.75.54,1.21,0,.46-.17.9-.5,1.23l-12.01,11.99c-.66.66-1.73.66-2.39,0l-4.5-4.5v23.53c0,4.98-4.05,9.04-9.04,9.04Z"/>
        <path class="cls-7" d="M22.7,24.56c.22,0,.44.04.65.13.63.26,1.04.88,1.04,1.56v27.61c0,3.12,2.54,5.66,5.66,5.66h30.37c3.12,0,5.66-2.54,5.66-5.66v-27.61c0-.68.41-1.3,1.04-1.56.63-.26,1.36-.12,1.84.37l6.19,6.19,9.57-9.56-15.55-14.31s-.04-.03-.06-.05c-1.13-1.02-2.5-1.68-4.02-1.68h-6.67c-.83,7.09-6.88,12.61-14.2,12.61s-13.36-5.52-14.2-12.61h-4.66c-1.52,0-2.95.6-4.01,1.68l-15,15,8.96,8.92,6.19-6.19c.32-.32.75-.5,1.19-.5ZM60.42,62.89h-30.37c-4.98,0-9.04-4.05-9.04-9.04v-23.52l-4.5,4.5c-.66.66-1.73.66-2.39,0L2.78,23.53c-.32-.32-.5-.75-.5-1.2,0-.45.18-.88.49-1.2L18.97,4.95c1.7-1.72,3.98-2.67,6.41-2.67h21.89c.93,0,1.69.75,1.69,1.69s-.76,1.69-1.69,1.69h-13.82c.81,5.22,5.34,9.24,10.79,9.24,6.02,0,10.92-4.9,10.92-10.92,0-.59.31-1.13.81-1.44.26-.16.58-.25.89-.25h8.24c2.41,0,4.68.94,6.38,2.64l16.83,15.47c.34.31.54.75.54,1.21,0,.46-.17.9-.5,1.23l-12.01,11.99c-.66.66-1.73.66-2.39,0l-4.5-4.5v23.53c0,4.98-4.05,9.04-9.04,9.04Z"/>
        <path class="cls-4" d="M22.08,23.94c.22,0,.44.04.65.13.63.26,1.04.88,1.04,1.56v27.61c0,3.12,2.54,5.66,5.66,5.66h30.37c3.12,0,5.66-2.54,5.66-5.66v-27.61c0-.68.41-1.3,1.04-1.56.63-.26,1.36-.12,1.84.37l6.19,6.19,9.57-9.56-15.55-14.31s-.04-.03-.06-.05c-1.13-1.02-2.5-1.68-4.02-1.68h-6.67c-.83,7.09-6.88,12.61-14.2,12.61s-13.36-5.52-14.2-12.61h-4.66c-1.52,0-2.95.6-4.01,1.68l-15,15,8.96,8.92,6.19-6.19c.32-.32.75-.5,1.19-.5ZM59.79,62.27h-30.37c-4.98,0-9.04-4.05-9.04-9.04v-23.52l-4.5,4.5c-.66.66-1.73.66-2.39,0L2.15,22.91c-.32-.32-.5-.75-.5-1.2,0-.45.18-.88.49-1.2L18.34,4.32c1.7-1.72,3.98-2.67,6.41-2.67h21.89c.93,0,1.69.75,1.69,1.69s-.76,1.69-1.69,1.69h-13.82c.81,5.22,5.34,9.24,10.79,9.24,6.02,0,10.92-4.9,10.92-10.92,0-.59.31-1.13.81-1.44.26-.16.58-.25.89-.25h8.24c2.41,0,4.68.94,6.38,2.64l16.83,15.47c.34.31.54.75.54,1.21,0,.46-.17.9-.5,1.23l-12.01,11.99c-.66.66-1.73.66-2.39,0l-4.5-4.5v23.53c0,4.98-4.05,9.04-9.04,9.04Z"/>
        <path class="cls-6" d="M21.45,23.31c.22,0,.44.04.65.13.63.26,1.04.88,1.04,1.56v27.61c0,3.12,2.54,5.66,5.66,5.66h30.37c3.12,0,5.66-2.54,5.66-5.66v-27.61c0-.68.41-1.3,1.04-1.56.63-.26,1.36-.12,1.84.37l6.19,6.19,9.57-9.56-15.55-14.31s-.04-.03-.06-.05c-1.13-1.02-2.5-1.68-4.02-1.68h-6.67c-.83,7.09-6.88,12.61-14.2,12.61s-13.36-5.52-14.2-12.61h-4.66c-1.52,0-2.95.6-4.01,1.68l-15,15,8.96,8.92,6.19-6.19c.32-.32.75-.5,1.19-.5ZM59.17,61.64h-30.37c-4.98,0-9.04-4.05-9.04-9.04v-23.52l-4.5,4.5c-.66.66-1.73.66-2.39,0L1.53,22.28c-.32-.32-.5-.75-.5-1.2,0-.45.18-.88.49-1.2L17.72,3.7c1.7-1.72,3.98-2.67,6.41-2.67h21.89c.93,0,1.69.75,1.69,1.69s-.76,1.69-1.69,1.69h-13.82c.81,5.22,5.34,9.24,10.79,9.24,6.02,0,10.92-4.9,10.92-10.92,0-.59.31-1.13.81-1.44.26-.16.58-.25.89-.25h8.24c2.41,0,4.68.94,6.38,2.64l16.83,15.47c.34.31.54.75.54,1.21,0,.46-.17.9-.5,1.23l-12.01,11.99c-.66.66-1.73.66-2.39,0l-4.5-4.5v23.53c0,4.98-4.05,9.04-9.04,9.04Z"/>
        <path class="cls-5" d="M20.83,22.69c.22,0,.44.04.65.13.63.26,1.04.88,1.04,1.56v27.61c0,3.12,2.54,5.66,5.66,5.66h30.37c3.12,0,5.66-2.54,5.66-5.66v-27.61c0-.68.41-1.3,1.04-1.56.63-.26,1.36-.12,1.84.37l6.19,6.19,9.57-9.56-15.55-14.31s-.04-.04-.06-.05c-1.07-1.08-2.5-1.68-4.02-1.68h-6.67c-.83,7.09-6.88,12.61-14.2,12.61s-13.36-5.52-14.2-12.61h-4.66c-1.52,0-2.95.6-4.01,1.68l-15,15,8.96,8.92,6.19-6.19c.32-.32.75-.5,1.19-.5ZM58.54,61.02h-30.37c-4.98,0-9.04-4.05-9.04-9.04v-23.52l-4.5,4.5c-.66.66-1.73.66-2.39,0L.9,21.66c-.32-.32-.5-.75-.5-1.2,0-.45.18-.88.49-1.2L17.09,3.07c1.7-1.72,3.98-2.67,6.41-2.67h21.89c.93,0,1.69.75,1.69,1.69s-.76,1.69-1.69,1.69h-13.82c.81,5.22,5.34,9.24,10.79,9.24,6.02,0,10.92-4.9,10.92-10.92,0-.59.3-1.13.81-1.44.26-.16.58-.25.89-.25h8.24c2.41,0,4.68.94,6.38,2.64l16.83,15.47c.34.31.54.75.54,1.21,0,.46-.17.9-.5,1.23l-12.01,11.99c-.66.66-1.73.66-2.39,0l-4.5-4.5v23.53c0,4.98-4.05,9.04-9.04,9.04Z"/>
      </g>
      <path class="cls-2" d="M58.14,60.61h-30.37c-4.98,0-9.04-4.05-9.04-9.04v-23.52l-4.5,4.5c-.66.66-1.73.66-2.39,0L.5,21.25C.18,20.93,0,20.5,0,20.05c0-.45.18-.88.49-1.2L16.69,2.67c1.7-1.72,3.98-2.67,6.41-2.67h21.89c.93,0,1.69.75,1.69,1.69s-.76,1.69-1.69,1.69h-13.82c.81,5.22,5.34,9.24,10.79,9.24,6.02,0,10.92-4.9,10.92-10.92,0-.59.3-1.14.81-1.44.26-.16.58-.25.89-.25h8.24c2.41,0,4.68.94,6.38,2.64l16.83,15.47c.34.31.54.75.54,1.21,0,.46-.17.9-.5,1.23l-12.01,12c-.66.66-1.73.66-2.39,0l-4.5-4.5v23.53c0,4.98-4.05,9.04-9.04,9.04ZM20.42,22.28c.22,0,.44.04.65.13.63.26,1.04.88,1.04,1.56v27.6c0,3.12,2.54,5.66,5.66,5.66h30.37c3.12,0,5.66-2.54,5.66-5.66v-27.6c0-.68.41-1.3,1.04-1.56.63-.26,1.36-.12,1.84.37l6.19,6.19,9.57-9.56-15.55-14.31s-.04-.04-.06-.05c-1.07-1.08-2.5-1.68-4.02-1.68h-6.67c-.83,7.09-6.88,12.61-14.2,12.61s-13.36-5.52-14.2-12.61h-4.66c-1.52,0-2.95.6-4.01,1.68l-15,15,8.96,8.92,6.19-6.19c.32-.32.75-.5,1.19-.5Z"/>
    </g>
  </g>
</svg>