<?xml version="1.0" encoding="UTF-8"?>
<svg xmlns="http://www.w3.org/2000/svg" xmlns:xlink="http://www.w3.org/1999/xlink" viewBox="0 0 67.04 67.33">
  <defs>
    <style>
      .cls-1 {
        fill: #fff;
        stroke: #fff;
      }

      .cls-1, .cls-2 {
        stroke-miterlimit: 10;
      }

      .cls-3 {
        mix-blend-mode: soft-light;
        opacity: .8;
      }

      .cls-4 {
        isolation: isolate;
      }

      .cls-2 {
        fill: url(#linear-gradient);
        stroke: #ce0543;
      }
    </style>
    <linearGradient id="linear-gradient" x1="-2127.46" y1="-86.02" x2="-2127.46" y2="66.19" gradientTransform="translate(-2093.94) rotate(-180) scale(1 -1)" gradientUnits="userSpaceOnUse">
      <stop offset="0" stop-color="#f2b3c3"/>
      <stop offset=".51" stop-color="#e84f7b"/>
      <stop offset=".69" stop-color="#d13769"/>
      <stop offset=".86" stop-color="#c1275d"/>
      <stop offset="1" stop-color="#bc2259"/>
    </linearGradient>
  </defs>
  <g class="cls-4">
    <g id="Layer_2" data-name="Layer 2">
      <g id="Objects">
        <g>
          <path class="cls-2" d="M.5,38.88v-9.89l5.12.2c.29-1.76.74-3.47,1.34-5.1l-4.57-2.41,4.94-8.56,4.34,2.74c1.12-1.36,2.36-2.62,3.71-3.74l-2.76-4.38,8.55-4.94,2.39,4.53c1.63-.61,3.33-1.09,5.09-1.39l-.2-5.16h9.88l-.2,5.12c1.76.28,3.47.74,5.1,1.33l2.41-4.57,8.56,4.94-2.73,4.34c1.36,1.12,2.61,2.36,3.74,3.71l4.38-2.76,4.94,8.55-4.53,2.39c.61,1.63,1.08,3.33,1.38,5.09l5.16-.2v9.88l-5.12-.2c-.29,1.76-.74,3.47-1.33,5.1l4.57,2.41-4.94,8.56-4.34-2.74c-1.12,1.36-2.36,2.62-3.71,3.75l2.76,4.38-8.56,4.94-2.39-4.53c-1.63.61-3.33,1.08-5.09,1.38l.2,5.17h-9.88l.2-5.12c-1.76-.29-3.47-.74-5.1-1.33l-2.41,4.57-8.56-4.94,2.74-4.34c-1.36-1.12-2.61-2.36-3.74-3.71l-4.38,2.76-4.94-8.56,4.53-2.39c-.61-1.63-1.08-3.33-1.38-5.09l-5.16.2ZM20.07,33.81c0,7.43,6.02,13.46,13.46,13.46s13.46-6.02,13.46-13.46-6.03-13.46-13.46-13.46-13.46,6.03-13.46,13.46Z"/>
          <g class="cls-3">
            <path class="cls-1" d="M16.47,11.45l-2.68-4.25,8.39-4.85,2.36,4.48c1.6-.59,3.28-1.03,5-1.31l-.19-5.02h9.69l-.2,5.06c1.73.3,3.39.76,4.99,1.36l2.34-4.44,8.39,4.85-2.71,4.29c1.32,1.11,2.54,2.34,3.64,3.67l4.26-2.68,4.84,8.39-4.48,2.36c.59,1.6,1.03,3.28,1.31,5l5.02-.19v9.69l-5.06-.2c-.3,1.72-.76,3.39-1.36,4.99l4.45,2.34-4.85,8.39-4.29-2.7c-1.1,1.33-40.2-38.13-38.86-39.23ZM47.26,32.88c0-7.29-5.91-13.19-13.2-13.19s-13.2,5.91-13.2,13.19,5.91,13.2,13.2,13.2,13.2-5.91,13.2-13.2Z"/>
          </g>
        </g>
      </g>
    </g>
  </g>
</svg>