<?xml version="1.0" encoding="UTF-8"?>
<svg id="Layer_2" data-name="Layer 2" xmlns="http://www.w3.org/2000/svg" xmlns:xlink="http://www.w3.org/1999/xlink" viewBox="0 0 83.04 67.16">
  <defs>
    <style>
      .cls-1 {
        fill: #fff;
      }

      .cls-2 {
        fill: url(#linear-gradient);
      }

      .cls-2, .cls-3, .cls-4 {
        stroke: #999;
        stroke-miterlimit: 10;
      }

      .cls-3 {
        fill: url(#linear-gradient-3);
      }

      .cls-4 {
        fill: url(#linear-gradient-2);
      }
    </style>
    <linearGradient id="linear-gradient" x1="69.56" y1="40.16" x2="59.62" y2="55.36" gradientUnits="userSpaceOnUse">
      <stop offset="0" stop-color="#e5e2df"/>
      <stop offset="0" stop-color="#f1efed"/>
      <stop offset="0" stop-color="#fff"/>
      <stop offset=".13" stop-color="#f0f0f0"/>
      <stop offset=".37" stop-color="#c9cacb"/>
      <stop offset=".52" stop-color="#adaeb0"/>
      <stop offset=".67" stop-color="#a3a4a6"/>
      <stop offset=".91" stop-color="#8b8b8c"/>
      <stop offset="1" stop-color="gray"/>
    </linearGradient>
    <linearGradient id="linear-gradient-2" x1=".5" y1="24.55" x2="48.6" y2="24.55" xlink:href="#linear-gradient"/>
    <linearGradient id="linear-gradient-3" x1="31.38" y1="31.37" x2="-15.69" y2="-15.7" gradientUnits="userSpaceOnUse">
      <stop offset="0" stop-color="#e5e2df"/>
      <stop offset="0" stop-color="#f1efed"/>
      <stop offset="0" stop-color="#fff"/>
      <stop offset=".17" stop-color="#f0f0f0"/>
      <stop offset=".49" stop-color="#c9c9c9"/>
      <stop offset=".93" stop-color="#8a8a8a"/>
      <stop offset="1" stop-color="gray"/>
    </linearGradient>
  </defs>
  <g id="Objects">
    <g>
      <g>
        <path class="cls-2" d="M79.69,54.59l-27.19-18.82c-1.94-1.32-4.33-1.49-6.34-.65,0-.03.02-.06.04-.09-1.48,2.52-3.75,4.18-4.58,6.46.17-.17.34-.32.5-.49-.06,2.18.93,4.34,2.85,5.67l27.19,18.82c3,2.08,7.12,1.33,9.21-1.68,2.07-3,1.32-7.12-1.68-9.21Z"/>
        <path class="cls-4" d="M38.25,4.76C27.34-2.78,12.32-.04,4.78,10.86,1.11,16.14-.26,22.53.9,28.87c1.14,6.31,4.69,11.81,9.97,15.46,5.28,3.64,11.66,5.03,17.99,3.87,4.92-.89,9.33-3.24,12.75-6.72,1.97-2.38,3.1-3.94,4.58-6.46,5.09-10.47,1.91-23.43-7.96-30.27ZM38.35,34.1c-5.27,7.61-15.73,9.5-23.34,4.24-7.61-5.26-9.52-15.72-4.24-23.33,5.26-7.61,15.74-9.52,23.33-4.25,3.69,2.54,6.16,6.37,6.95,10.79.81,4.41-.15,8.86-2.7,12.55Z"/>
        <path class="cls-3" d="M41.05,21.55c-.79-4.42-3.26-8.25-6.95-10.79-7.6-5.26-18.07-3.36-23.33,4.25-5.27,7.61-3.37,18.07,4.24,23.33,7.61,5.26,18.07,3.37,23.34-4.24,2.55-3.69,3.51-8.14,2.7-12.55Z"/>
      </g>
      <path class="cls-1" d="M36.49,23.05c-1.52,3.68-4.24-2.24-9.69-4.5-5.45-2.26-11.56.01-10.04-3.67,1.52-3.68,7.18-4.84,12.63-2.58,5.45,2.25,8.63,7.07,7.1,10.75Z"/>
    </g>
  </g>
</svg>