<?xml version="1.0" encoding="UTF-8"?>
<svg id="Layer_2" data-name="Layer 2" xmlns="http://www.w3.org/2000/svg" viewBox="0 0 13.84 27.36">
  <defs>
    <style>
      .cls-1 {
        fill-rule: evenodd;
      }
    </style>
  </defs>
  <g id="_1" data-name="1">
    <path class="cls-1" d="M4.95,12.21c.15,0,.27.12.27.27,0,.14-.12.26-.27.26-.14,0-.26-.12-.26-.26,0-.15.12-.27.26-.27h0ZM2.11,13.2c-.76,3.73-1.28,8.16-2.11,11.72,4.92-2.45,3.96,6.17,13.84.41l-2.74-12.13h-3.19v-1.43h3.06s1.12-7.09,1.12-7.09V0h-2l-.12,4.34c-2.12.72-4.22.84-6.54.03.01-1.41-.09-2.87-.08-4.28l-2.11-.02v4.3l1.02,7.36,3.85.02v-.42c0-.08.08-.15.16-.15h1.27c.09,0,.15.07.15.15v.04h0v2.14h0v.07c0,.08-.06.15-.15.15h-1.27c-.09,0-.16-.07-.16-.15v-.38H2.11ZM6.47,13.16h.85s.05.03.05.07v.03s-.02.05-.05.05h-.85s-.05-.02-.05-.05v-.03s.02-.07.05-.07h0ZM6.47,11.61h.85s.05.02.05.05v.04s-.02.05-.05.05h-.85s-.05-.02-.05-.05v-.04s.02-.05.05-.05h0ZM6.9,12.21c.14,0,.26.12.26.27,0,.14-.12.26-.26.26-.15,0-.27-.12-.27-.26,0-.15.12-.27.27-.27h0ZM5.93,12.21c.15,0,.27.12.27.27,0,.14-.12.26-.27.26-.14,0-.26-.12-.26-.26,0-.15.12-.27.26-.27h0Z"/>
  </g>
</svg>