<?xml version="1.0" encoding="UTF-8"?>
<svg id="Layer_2" data-name="Layer 2" xmlns="http://www.w3.org/2000/svg" xmlns:xlink="http://www.w3.org/1999/xlink" viewBox="0 0 88.71 59.72">
  <defs>
    <style>
      .cls-1 {
        opacity: .14;
      }

      .cls-2 {
        fill: url(#linear-gradient-2);
      }

      .cls-3 {
        opacity: .21;
      }

      .cls-4 {
        opacity: .42;
      }

      .cls-5 {
        opacity: .55;
      }

      .cls-6 {
        opacity: .48;
      }

      .cls-7 {
        opacity: .35;
      }

      .cls-8 {
        fill: url(#linear-gradient-3);
      }

      .cls-9 {
        opacity: .08;
      }

      .cls-10 {
        opacity: .28;
      }

      .cls-11 {
        opacity: 0;
      }

      .cls-12 {
        fill: url(#linear-gradient);
      }
    </style>
    <linearGradient id="linear-gradient" x1="16.13" y1=".72" x2="63.66" y2="48.26" gradientUnits="userSpaceOnUse">
      <stop offset="0" stop-color="#3a3a3a"/>
      <stop offset="1" stop-color="#818181"/>
    </linearGradient>
    <linearGradient id="linear-gradient-2" x1="74.09" y1="42.03" x2="80.59" y2="48.52" gradientUnits="userSpaceOnUse">
      <stop offset=".01" stop-color="#ff870a"/>
      <stop offset="1" stop-color="#ffdb4a"/>
    </linearGradient>
    <linearGradient id="linear-gradient-3" x1="15.29" y1=".07" x2="73.18" y2="57.96" gradientUnits="userSpaceOnUse">
      <stop offset="0" stop-color="#2c2e2c"/>
      <stop offset=".99" stop-color="#000"/>
    </linearGradient>
  </defs>
  <g id="Layer_1-2" data-name="Layer 1">
    <g>
      <path class="cls-12" d="M39.47,1.6L2.8,15.94l12.75,5.69v23.57s2.16,7.4,24.93,7.4,22.66-7.4,22.66-7.4v-23.91l13.55-5.58L39.47,1.6Z"/>
      <path class="cls-2" d="M77.32,40.88c-2.42,0-4.38,1.96-4.38,4.38s1.96,4.38,4.38,4.38,4.38-1.96,4.38-4.38-1.96-4.38-4.38-4.38Z"/>
      <g>
        <path class="cls-11" d="M82.58,53.46c-1.52,0-2.75-1.23-2.75-2.76,0-.25.03-.49.1-.73.07-.22.15-.45.27-.65.49-.85,1.41-1.38,2.39-1.38,1.52,0,2.75,1.23,2.75,2.75s-1.23,2.76-2.75,2.76ZM82.58,44.57c-2.18,0-4.22,1.18-5.31,3.07-.26.46-.47.95-.61,1.45-.14.52-.21,1.07-.21,1.61,0,3.38,2.75,6.13,6.13,6.13s6.13-2.75,6.13-6.13-2.75-6.13-6.13-6.13ZM44.82,34.04L11.84,21.47l32.98-12.57,28.53,10.87h-28.55c-.93,0-1.69.76-1.69,1.69s.76,1.69,1.69,1.69h28.58l-28.56,10.88ZM80.88,23.92v16.5c0,.93.76,1.69,1.69,1.69s1.69-.76,1.69-1.69v-18.95c0-.76-.51-1.4-1.2-1.61L45.42,5.52c-.39-.15-.81-.15-1.2,0L6.5,19.89c-.66.25-1.09.88-1.09,1.58s.43,1.33,1.09,1.58l37.73,14.38c.19.08.4.11.6.11s.41-.04.6-.11l21.67-8.26v21.14c0,2.4-8.88,6.03-22.27,6.03s-22.27-3.63-22.27-6.03v-14.77c0-.93-.76-1.69-1.69-1.69s-1.69.76-1.69,1.69v14.77c0,6.18,12.9,9.41,25.65,9.41s25.65-3.23,25.65-9.41v-22.35s0-.05,0-.07l10.41-3.97Z"/>
        <path class="cls-9" d="M81.96,52.83c-1.52,0-2.75-1.23-2.75-2.76,0-.25.03-.49.1-.73.06-.22.15-.45.27-.65.5-.85,1.41-1.38,2.39-1.38,1.52,0,2.75,1.23,2.75,2.75s-1.23,2.76-2.75,2.76ZM81.96,43.94c-2.18,0-4.22,1.18-5.31,3.07-.26.46-.47.95-.61,1.45-.14.52-.21,1.07-.21,1.61,0,3.38,2.75,6.13,6.13,6.13s6.13-2.75,6.13-6.13-2.75-6.13-6.13-6.13ZM44.2,33.41L11.21,20.85l32.98-12.57,28.53,10.87h-28.55c-.93,0-1.69.76-1.69,1.69s.76,1.69,1.69,1.69h28.58l-28.56,10.88ZM80.25,23.29v16.5c0,.93.76,1.69,1.69,1.69s1.69-.76,1.69-1.69v-18.95c0-.76-.51-1.4-1.2-1.61L44.8,4.89c-.39-.15-.81-.15-1.2,0L5.87,19.27c-.66.25-1.09.88-1.09,1.58s.43,1.33,1.09,1.58l37.73,14.38c.19.08.4.11.6.11s.41-.04.6-.11l21.67-8.26v21.14c0,2.4-8.88,6.03-22.27,6.03s-22.27-3.63-22.27-6.03v-14.77c0-.93-.76-1.69-1.69-1.69s-1.69.76-1.69,1.69v14.77c0,6.18,12.9,9.41,25.65,9.41s25.65-3.23,25.65-9.41v-22.35s0-.05,0-.07l10.41-3.97Z"/>
        <path class="cls-1" d="M81.33,52.21c-1.52,0-2.75-1.23-2.75-2.76,0-.25.03-.49.1-.73.06-.22.15-.45.27-.65.5-.85,1.41-1.38,2.39-1.38,1.52,0,2.75,1.23,2.75,2.75s-1.23,2.76-2.75,2.76ZM81.33,43.32c-2.18,0-4.22,1.18-5.31,3.07-.26.46-.47.95-.61,1.45-.14.52-.21,1.07-.21,1.61,0,3.38,2.75,6.13,6.13,6.13s6.13-2.75,6.13-6.13-2.75-6.13-6.13-6.13ZM43.57,32.79L10.59,20.22,43.57,7.65l28.53,10.87h-28.55c-.93,0-1.69.76-1.69,1.69s.76,1.69,1.69,1.69h28.58l-28.56,10.88ZM79.63,22.67v16.5c0,.93.76,1.69,1.69,1.69s1.69-.76,1.69-1.69v-18.95c0-.76-.51-1.4-1.2-1.61L44.17,4.27c-.39-.15-.81-.15-1.2,0L5.25,18.64c-.66.25-1.09.88-1.09,1.58s.43,1.33,1.09,1.58l37.73,14.38c.19.08.4.11.6.11s.41-.04.6-.11l21.67-8.26v21.14c0,2.4-8.88,6.03-22.27,6.03s-22.27-3.63-22.27-6.03v-14.77c0-.93-.76-1.69-1.69-1.69s-1.69.76-1.69,1.69v14.77c0,6.18,12.9,9.41,25.65,9.41s25.65-3.23,25.65-9.41v-22.35s0-.05,0-.07l10.41-3.97Z"/>
        <path class="cls-3" d="M80.71,51.58c-1.52,0-2.75-1.23-2.75-2.76,0-.25.03-.49.1-.73.06-.22.15-.45.27-.65.5-.85,1.41-1.38,2.39-1.38,1.52,0,2.75,1.23,2.75,2.75s-1.23,2.76-2.75,2.76ZM80.71,42.69c-2.18,0-4.22,1.18-5.31,3.07-.26.46-.47.95-.61,1.45-.14.52-.21,1.07-.21,1.61,0,3.38,2.75,6.13,6.13,6.13s6.13-2.75,6.13-6.13-2.75-6.13-6.13-6.13ZM42.95,32.16L9.96,19.6,42.95,7.03l28.53,10.87h-28.55c-.93,0-1.69.76-1.69,1.69s.76,1.69,1.69,1.69h28.58l-28.56,10.88ZM79,22.04v16.5c0,.93.76,1.69,1.69,1.69s1.69-.76,1.69-1.69v-18.95c0-.76-.51-1.4-1.2-1.61L43.55,3.64c-.39-.15-.81-.15-1.2,0L4.62,18.02c-.66.25-1.09.88-1.09,1.58s.43,1.33,1.09,1.58l37.73,14.38c.19.08.4.11.6.11s.41-.04.6-.11l21.67-8.26v21.14c0,2.4-8.88,6.03-22.27,6.03s-22.27-3.63-22.27-6.03v-14.77c0-.93-.76-1.69-1.69-1.69s-1.69.76-1.69,1.69v14.77c0,6.18,12.9,9.41,25.65,9.41s25.65-3.23,25.65-9.41v-22.35s0-.05,0-.07l10.41-3.97Z"/>
        <path class="cls-10" d="M80.08,50.96c-1.52,0-2.75-1.23-2.75-2.76,0-.25.03-.49.1-.73.06-.22.15-.45.27-.65.5-.85,1.41-1.38,2.39-1.38,1.52,0,2.75,1.23,2.75,2.75s-1.23,2.76-2.75,2.76ZM80.08,42.07c-2.18,0-4.22,1.18-5.31,3.07-.26.46-.47.95-.61,1.45-.14.52-.21,1.07-.21,1.61,0,3.38,2.75,6.13,6.13,6.13s6.13-2.75,6.13-6.13-2.75-6.13-6.13-6.13ZM42.32,31.54L9.34,18.97,42.32,6.4l28.53,10.87h-28.55c-.93,0-1.69.76-1.69,1.69s.76,1.69,1.69,1.69h28.58l-28.56,10.88ZM78.38,21.42v16.5c0,.93.76,1.69,1.69,1.69s1.69-.76,1.69-1.69v-18.95c0-.76-.51-1.4-1.2-1.61L42.92,3.02c-.39-.15-.81-.15-1.2,0L4,17.39c-.66.25-1.09.88-1.09,1.58s.43,1.33,1.09,1.58l37.73,14.38c.19.08.4.11.6.11s.41-.04.6-.11l21.67-8.26v21.14c0,2.4-8.88,6.03-22.27,6.03s-22.27-3.63-22.27-6.03v-14.77c0-.93-.76-1.69-1.69-1.69s-1.69.76-1.69,1.69v14.77c0,6.18,12.9,9.41,25.65,9.41s25.65-3.23,25.65-9.41v-22.35s0-.05,0-.07l10.41-3.97Z"/>
        <path class="cls-7" d="M79.46,50.33c-1.52,0-2.75-1.23-2.75-2.76,0-.25.03-.49.1-.73.06-.22.15-.45.27-.65.5-.85,1.41-1.38,2.39-1.38,1.52,0,2.75,1.23,2.75,2.75s-1.23,2.76-2.75,2.76ZM79.46,41.44c-2.18,0-4.22,1.18-5.31,3.07-.26.46-.47.95-.61,1.45-.14.52-.21,1.07-.21,1.61,0,3.38,2.75,6.13,6.13,6.13s6.13-2.75,6.13-6.13-2.75-6.13-6.13-6.13ZM41.7,30.91L8.71,18.35,41.7,5.78l28.53,10.87h-28.55c-.93,0-1.69.76-1.69,1.69s.76,1.69,1.69,1.69h28.58l-28.56,10.88ZM77.75,20.79v16.5c0,.93.76,1.69,1.69,1.69s1.69-.76,1.69-1.69v-18.95c0-.76-.51-1.4-1.2-1.61L42.3,2.39c-.39-.15-.81-.15-1.2,0L3.37,16.77c-.66.25-1.09.88-1.09,1.58s.43,1.33,1.09,1.58l37.73,14.38c.19.08.4.11.6.11s.41-.04.6-.11l21.67-8.26v21.14c0,2.4-8.88,6.03-22.27,6.03s-22.27-3.63-22.27-6.03v-14.77c0-.93-.76-1.69-1.69-1.69s-1.69.76-1.69,1.69v14.77c0,6.18,12.9,9.41,25.65,9.41s25.65-3.23,25.65-9.41v-22.35s0-.05,0-.07l10.41-3.97Z"/>
        <path class="cls-4" d="M78.83,49.71c-1.52,0-2.75-1.23-2.75-2.76,0-.25.03-.49.1-.73.06-.22.15-.45.27-.65.5-.85,1.41-1.38,2.39-1.38,1.52,0,2.75,1.23,2.75,2.75s-1.23,2.76-2.75,2.76ZM78.83,40.82c-2.18,0-4.22,1.18-5.31,3.07-.26.46-.47.95-.61,1.45-.14.52-.21,1.07-.21,1.61,0,3.38,2.75,6.13,6.13,6.13s6.13-2.75,6.13-6.13-2.75-6.13-6.13-6.13ZM41.07,30.29L8.09,17.72,41.07,5.15l28.53,10.87h-28.55c-.93,0-1.69.76-1.69,1.69s.76,1.69,1.69,1.69h28.58l-28.56,10.88ZM77.13,20.17v16.5c0,.93.76,1.69,1.69,1.69s1.69-.76,1.69-1.69v-18.95c0-.76-.51-1.4-1.2-1.61L41.67,1.77c-.39-.15-.81-.15-1.2,0L2.75,16.14c-.66.25-1.09.88-1.09,1.58s.43,1.33,1.09,1.58l37.73,14.38c.19.08.4.11.6.11s.41-.04.6-.11l21.67-8.26v21.14c0,2.4-8.88,6.03-22.27,6.03s-22.27-3.63-22.27-6.03v-14.77c0-.93-.76-1.69-1.69-1.69s-1.69.76-1.69,1.69v14.77c0,6.18,12.9,9.41,25.65,9.41s25.65-3.23,25.65-9.41v-22.35s0-.05,0-.07l10.41-3.97Z"/>
        <path class="cls-6" d="M78.21,49.08c-1.52,0-2.75-1.23-2.75-2.76,0-.25.03-.49.1-.73.06-.22.15-.45.27-.65.5-.85,1.41-1.38,2.39-1.38,1.52,0,2.75,1.23,2.75,2.75s-1.23,2.76-2.75,2.76ZM78.21,40.19c-2.18,0-4.22,1.18-5.31,3.07-.26.46-.47.95-.61,1.45-.14.52-.21,1.07-.21,1.61,0,3.38,2.75,6.13,6.13,6.13s6.13-2.75,6.13-6.13-2.75-6.13-6.13-6.13ZM40.45,29.66L7.46,17.1,40.45,4.53l28.53,10.87h-28.55c-.93,0-1.69.76-1.69,1.69s.76,1.69,1.69,1.69h28.58l-28.56,10.88ZM76.5,19.54v16.5c0,.93.76,1.69,1.69,1.69s1.69-.76,1.69-1.69v-18.95c0-.76-.51-1.4-1.2-1.61L41.05,1.14c-.39-.15-.81-.15-1.2,0L2.12,15.52c-.66.25-1.09.88-1.09,1.58s.43,1.33,1.09,1.58l37.73,14.38c.19.08.4.11.6.11s.41-.04.6-.11l21.67-8.26v21.14c0,2.4-8.88,6.03-22.27,6.03s-22.27-3.63-22.27-6.03v-14.77c0-.93-.76-1.69-1.69-1.69s-1.69.76-1.69,1.69v14.77c0,6.18,12.9,9.41,25.65,9.41s25.65-3.23,25.65-9.41v-22.35s0-.05,0-.07l10.41-3.97Z"/>
        <path class="cls-5" d="M77.58,48.46c-1.52,0-2.75-1.23-2.75-2.76,0-.25.03-.49.1-.73.07-.22.15-.45.27-.65.49-.85,1.41-1.38,2.39-1.38,1.52,0,2.75,1.23,2.75,2.75s-1.23,2.76-2.75,2.76ZM77.58,39.57c-2.18,0-4.22,1.18-5.31,3.07-.26.46-.47.95-.61,1.45-.14.52-.21,1.07-.21,1.61,0,3.38,2.75,6.13,6.13,6.13s6.13-2.75,6.13-6.13-2.75-6.13-6.13-6.13ZM39.82,29.04L6.84,16.47,39.82,3.9l28.53,10.87h-28.55c-.93,0-1.69.76-1.69,1.69s.76,1.69,1.69,1.69h28.58l-28.56,10.88ZM75.88,18.92v16.5c0,.93.76,1.69,1.69,1.69s1.69-.76,1.69-1.69v-18.95c0-.76-.51-1.4-1.2-1.61L40.42.52c-.39-.15-.81-.15-1.2,0L1.5,14.89c-.66.25-1.09.88-1.09,1.58s.43,1.33,1.09,1.58l37.73,14.38c.19.08.4.11.6.11s.41-.04.6-.11l21.67-8.26v21.14c0,2.4-8.88,6.03-22.27,6.03s-22.27-3.63-22.27-6.03v-14.77c0-.93-.76-1.69-1.69-1.69s-1.69.76-1.69,1.69v14.77c0,6.18,12.9,9.41,25.65,9.41s25.65-3.23,25.65-9.41v-22.35s0-.05,0-.07l10.41-3.97Z"/>
      </g>
      <path class="cls-8" d="M75.47,18.51v16.5c0,.93.76,1.69,1.69,1.69s1.69-.76,1.69-1.69v-18.95c0-.76-.51-1.4-1.2-1.61L40.02.11c-.39-.15-.81-.15-1.2,0L1.09,14.49c-.66.25-1.09.88-1.09,1.58s.43,1.33,1.09,1.58l37.73,14.38c.19.08.4.11.6.11s.41-.04.6-.11l21.67-8.26v21.14c0,2.4-8.88,6.03-22.27,6.03s-22.27-3.63-22.27-6.03v-14.77c0-.93-.76-1.69-1.69-1.69s-1.69.76-1.69,1.69v14.77c0,6.18,12.9,9.41,25.65,9.41s25.65-3.23,25.65-9.41v-22.35s0-.05,0-.07l10.41-3.97ZM39.42,28.63L6.43,16.07,39.42,3.5l28.53,10.87h-28.55c-.93,0-1.69.76-1.69,1.69s.76,1.69,1.69,1.69h28.58l-28.56,10.88ZM77.17,39.16c-2.18,0-4.22,1.18-5.31,3.07-.26.46-.47.95-.61,1.45-.14.52-.21,1.07-.21,1.61,0,3.38,2.75,6.13,6.13,6.13s6.13-2.75,6.13-6.13-2.75-6.13-6.13-6.13ZM77.17,48.05c-1.52,0-2.75-1.23-2.75-2.76,0-.25.03-.49.1-.73.07-.22.15-.45.27-.65.49-.85,1.41-1.38,2.39-1.38,1.52,0,2.75,1.23,2.75,2.75s-1.23,2.76-2.75,2.76Z"/>
    </g>
  </g>
</svg>