<?xml version="1.0" encoding="UTF-8"?>
<svg id="Layer_2" data-name="Layer 2" xmlns="http://www.w3.org/2000/svg" xmlns:xlink="http://www.w3.org/1999/xlink" viewBox="0 0 70.96 70.95">
  <defs>
    <style>
      .cls-1 {
        opacity: .14;
      }

      .cls-2 {
        fill: url(#linear-gradient-2);
      }

      .cls-3 {
        opacity: .21;
      }

      .cls-4 {
        opacity: .42;
      }

      .cls-5 {
        opacity: .55;
      }

      .cls-6 {
        opacity: .48;
      }

      .cls-7 {
        opacity: .35;
      }

      .cls-8 {
        opacity: .08;
      }

      .cls-9 {
        opacity: .28;
      }

      .cls-10 {
        opacity: 0;
      }

      .cls-11 {
        fill: url(#linear-gradient);
      }
    </style>
    <linearGradient id="linear-gradient" x1="8.81" y1="8.76" x2="57.24" y2="57.19" gradientUnits="userSpaceOnUse">
      <stop offset="0" stop-color="#a83dff"/>
      <stop offset="1" stop-color="#d4a1ff"/>
    </linearGradient>
    <linearGradient id="linear-gradient-2" x1="9.6" y1="9.61" x2="55.94" y2="55.94" gradientUnits="userSpaceOnUse">
      <stop offset="0" stop-color="#2c2e2c"/>
      <stop offset=".99" stop-color="#000"/>
    </linearGradient>
  </defs>
  <g id="Layer_1-2" data-name="Layer 1">
    <g>
      <path class="cls-11" d="M63.98,32.77c0,17.21-13.95,31.16-31.16,31.16S1.66,49.98,1.66,32.77,15.61,1.61,32.82,1.61s31.16,13.95,31.16,31.16Z"/>
      <g>
        <path class="cls-10" d="M18.5,41.79c0,.93.76,1.69,1.69,1.69h2.69c2.29,7.69,9.42,13.32,17.85,13.32,2.83,0,5.54-.62,8.08-1.84.84-.41,1.19-1.42.79-2.25-.4-.84-1.41-1.2-2.25-.79-2.07,1-4.29,1.5-6.61,1.5-6.54,0-12.13-4.14-14.29-9.94h15.04c.93,0,1.69-.76,1.69-1.69s-.76-1.69-1.69-1.69h-15.87c-.08-.63-.12-1.27-.12-1.92s.05-1.29.12-1.92h15.87c.93,0,1.69-.75,1.69-1.69s-.76-1.69-1.69-1.69h-15.04c2.16-5.8,7.75-9.94,14.29-9.94,2.32,0,4.54.5,6.61,1.5.84.41,1.85.05,2.25-.79.41-.84.05-1.85-.79-2.26-2.53-1.22-5.25-1.84-8.08-1.84-8.43,0-15.56,5.63-17.85,13.32h-2.69c-.93,0-1.69.76-1.69,1.69s.76,1.69,1.69,1.69h2.02c-.07.63-.1,1.27-.1,1.92s.03,1.29.1,1.92h-2.02c-.93,0-1.69.76-1.69,1.69ZM38.18,5.41c-11.66,0-22.53,6.27-28.38,16.37-1.06,1.83-1.95,3.78-2.63,5.79-.3.88.17,1.84,1.05,2.15.89.3,1.85-.17,2.15-1.05.62-1.8,1.41-3.55,2.36-5.19,5.25-9.06,15-14.68,25.45-14.68,16.21,0,29.4,13.19,29.4,29.4s-13.19,29.4-29.4,29.4-29.39-13.19-29.39-29.4c0-.93-.76-1.69-1.69-1.69s-1.69.76-1.69,1.69c0,18.07,14.7,32.78,32.77,32.78s32.78-14.7,32.78-32.78S56.25,5.41,38.18,5.41Z"/>
        <path class="cls-8" d="M17.87,41.17c0,.93.76,1.69,1.69,1.69h2.69c2.29,7.69,9.42,13.32,17.85,13.32,2.83,0,5.54-.62,8.08-1.84.84-.41,1.19-1.42.79-2.25-.4-.84-1.41-1.2-2.25-.79-2.07,1-4.29,1.5-6.61,1.5-6.54,0-12.13-4.14-14.29-9.94h15.04c.93,0,1.69-.76,1.69-1.69s-.76-1.69-1.69-1.69h-15.87c-.08-.63-.12-1.27-.12-1.92s.05-1.29.12-1.92h15.87c.93,0,1.69-.75,1.69-1.69s-.76-1.69-1.69-1.69h-15.04c2.16-5.8,7.75-9.94,14.29-9.94,2.32,0,4.54.5,6.61,1.5.84.41,1.85.05,2.25-.79.41-.84.05-1.85-.79-2.26-2.53-1.22-5.25-1.84-8.08-1.84-8.43,0-15.56,5.63-17.85,13.32h-2.69c-.93,0-1.69.76-1.69,1.69s.76,1.69,1.69,1.69h2.02c-.07.63-.1,1.27-.1,1.92s.03,1.29.1,1.92h-2.02c-.93,0-1.69.76-1.69,1.69ZM37.55,4.78c-11.66,0-22.53,6.27-28.38,16.37-1.06,1.83-1.95,3.78-2.63,5.79-.3.88.17,1.85,1.05,2.15.89.3,1.85-.17,2.15-1.05.62-1.8,1.41-3.55,2.36-5.19,5.25-9.06,15-14.68,25.45-14.68,16.21,0,29.4,13.19,29.4,29.4s-13.19,29.4-29.4,29.4-29.39-13.19-29.39-29.4c0-.93-.76-1.69-1.69-1.69s-1.69.76-1.69,1.69c0,18.07,14.7,32.78,32.77,32.78s32.78-14.7,32.78-32.78S55.63,4.78,37.55,4.78Z"/>
        <path class="cls-1" d="M17.25,40.54c0,.93.76,1.69,1.69,1.69h2.69c2.29,7.69,9.42,13.32,17.85,13.32,2.83,0,5.54-.62,8.08-1.84.84-.41,1.19-1.42.79-2.25-.4-.84-1.41-1.2-2.25-.79-2.07,1-4.29,1.5-6.61,1.5-6.54,0-12.13-4.14-14.29-9.94h15.04c.93,0,1.69-.76,1.69-1.69s-.76-1.69-1.69-1.69h-15.87c-.08-.63-.12-1.27-.12-1.92s.05-1.29.12-1.92h15.87c.93,0,1.69-.75,1.69-1.69s-.76-1.69-1.69-1.69h-15.04c2.16-5.8,7.75-9.94,14.29-9.94,2.32,0,4.54.5,6.61,1.5.84.41,1.85.05,2.25-.79.41-.84.05-1.85-.79-2.26-2.53-1.22-5.25-1.84-8.08-1.84-8.43,0-15.56,5.63-17.85,13.32h-2.69c-.93,0-1.69.76-1.69,1.69s.76,1.69,1.69,1.69h2.02c-.07.63-.1,1.27-.1,1.92s.03,1.29.1,1.92h-2.02c-.93,0-1.69.76-1.69,1.69ZM36.93,4.16c-11.66,0-22.53,6.27-28.38,16.37-1.06,1.83-1.95,3.78-2.63,5.79-.3.88.17,1.85,1.05,2.15.89.3,1.85-.17,2.15-1.05.62-1.8,1.41-3.55,2.36-5.19,5.25-9.06,15-14.68,25.45-14.68,16.21,0,29.4,13.19,29.4,29.4s-13.19,29.4-29.4,29.4S7.54,53.14,7.54,36.93c0-.93-.76-1.69-1.69-1.69s-1.69.76-1.69,1.69c0,18.07,14.7,32.78,32.77,32.78s32.78-14.7,32.78-32.78S55,4.16,36.93,4.16Z"/>
        <path class="cls-3" d="M16.62,39.92c0,.93.76,1.69,1.69,1.69h2.69c2.29,7.69,9.42,13.32,17.85,13.32,2.83,0,5.54-.62,8.08-1.84.84-.41,1.19-1.42.79-2.25-.4-.84-1.41-1.2-2.25-.79-2.07,1-4.29,1.5-6.61,1.5-6.54,0-12.13-4.14-14.29-9.94h15.04c.93,0,1.69-.76,1.69-1.69s-.76-1.69-1.69-1.69h-15.87c-.08-.63-.12-1.27-.12-1.92s.05-1.29.12-1.92h15.87c.93,0,1.69-.75,1.69-1.69s-.76-1.69-1.69-1.69h-15.04c2.16-5.8,7.75-9.94,14.29-9.94,2.32,0,4.54.5,6.61,1.5.84.41,1.85.05,2.25-.79.41-.84.05-1.85-.79-2.26-2.53-1.22-5.25-1.84-8.08-1.84-8.43,0-15.56,5.63-17.85,13.32h-2.69c-.93,0-1.69.76-1.69,1.69s.76,1.69,1.69,1.69h2.02c-.07.63-.1,1.27-.1,1.92s.03,1.29.1,1.92h-2.02c-.93,0-1.69.76-1.69,1.69ZM36.3,3.53c-11.66,0-22.53,6.27-28.38,16.37-1.06,1.83-1.95,3.78-2.63,5.79-.3.88.17,1.85,1.05,2.15.89.3,1.85-.17,2.15-1.05.62-1.8,1.41-3.55,2.36-5.19,5.25-9.06,15-14.68,25.45-14.68,16.21,0,29.4,13.19,29.4,29.4s-13.19,29.4-29.4,29.4S6.91,52.51,6.91,36.3c0-.93-.76-1.69-1.69-1.69s-1.69.76-1.69,1.69c0,18.07,14.7,32.78,32.77,32.78s32.78-14.7,32.78-32.78S54.38,3.53,36.3,3.53Z"/>
        <path class="cls-9" d="M16,39.29c0,.93.76,1.69,1.69,1.69h2.69c2.29,7.69,9.42,13.32,17.85,13.32,2.83,0,5.54-.62,8.08-1.84.84-.41,1.19-1.42.79-2.25-.4-.84-1.41-1.2-2.25-.79-2.07,1-4.29,1.5-6.61,1.5-6.54,0-12.13-4.14-14.29-9.94h15.04c.93,0,1.69-.76,1.69-1.69s-.76-1.69-1.69-1.69h-15.87c-.08-.63-.12-1.27-.12-1.92s.05-1.29.12-1.92h15.87c.93,0,1.69-.75,1.69-1.69s-.76-1.69-1.69-1.69h-15.04c2.16-5.8,7.75-9.94,14.29-9.94,2.32,0,4.54.5,6.61,1.5.84.41,1.85.05,2.25-.79.41-.84.05-1.85-.79-2.26-2.53-1.22-5.25-1.84-8.08-1.84-8.43,0-15.56,5.63-17.85,13.32h-2.69c-.93,0-1.69.76-1.69,1.69s.76,1.69,1.69,1.69h2.02c-.07.63-.1,1.27-.1,1.92s.03,1.29.1,1.92h-2.02c-.93,0-1.69.76-1.69,1.69ZM35.68,2.91c-11.66,0-22.53,6.27-28.38,16.37-1.06,1.83-1.95,3.78-2.63,5.79-.3.88.17,1.85,1.05,2.15.89.3,1.85-.17,2.15-1.05.62-1.8,1.41-3.55,2.36-5.19,5.25-9.06,15-14.68,25.45-14.68,16.21,0,29.4,13.19,29.4,29.4s-13.19,29.4-29.4,29.4S6.29,51.89,6.29,35.68c0-.93-.76-1.69-1.69-1.69s-1.69.76-1.69,1.69c0,18.07,14.7,32.78,32.77,32.78s32.78-14.7,32.78-32.78S53.75,2.91,35.68,2.91Z"/>
        <path class="cls-7" d="M15.37,38.67c0,.93.76,1.69,1.69,1.69h2.69c2.29,7.69,9.42,13.32,17.85,13.32,2.83,0,5.54-.62,8.08-1.84.84-.41,1.19-1.42.79-2.25-.4-.84-1.41-1.2-2.25-.79-2.07,1-4.29,1.5-6.61,1.5-6.54,0-12.13-4.14-14.29-9.94h15.04c.93,0,1.69-.76,1.69-1.69s-.76-1.69-1.69-1.69h-15.87c-.08-.63-.12-1.27-.12-1.92s.05-1.29.12-1.92h15.87c.93,0,1.69-.75,1.69-1.69s-.76-1.69-1.69-1.69h-15.04c2.16-5.8,7.75-9.94,14.29-9.94,2.32,0,4.54.5,6.61,1.5.84.41,1.85.05,2.25-.79.41-.84.05-1.85-.79-2.26-2.53-1.22-5.25-1.84-8.08-1.84-8.43,0-15.56,5.63-17.85,13.32h-2.69c-.93,0-1.69.76-1.69,1.69s.76,1.69,1.69,1.69h2.02c-.07.63-.1,1.27-.1,1.92s.03,1.29.1,1.92h-2.02c-.93,0-1.69.76-1.69,1.69ZM35.05,2.28c-11.66,0-22.53,6.27-28.38,16.37-1.06,1.83-1.95,3.78-2.63,5.79-.3.88.17,1.85,1.05,2.15.89.3,1.85-.17,2.15-1.05.62-1.8,1.41-3.55,2.36-5.19,5.25-9.06,15-14.68,25.45-14.68,16.21,0,29.4,13.19,29.4,29.4s-13.19,29.4-29.4,29.4S5.66,51.26,5.66,35.05c0-.93-.76-1.69-1.69-1.69s-1.69.76-1.69,1.69c0,18.07,14.7,32.78,32.77,32.78s32.78-14.7,32.78-32.78S53.13,2.28,35.05,2.28Z"/>
        <path class="cls-4" d="M14.75,38.04c0,.93.76,1.69,1.69,1.69h2.69c2.29,7.69,9.42,13.32,17.85,13.32,2.83,0,5.54-.62,8.08-1.84.84-.41,1.19-1.42.79-2.25-.4-.84-1.41-1.2-2.25-.79-2.07,1-4.29,1.5-6.61,1.5-6.54,0-12.13-4.14-14.29-9.94h15.04c.93,0,1.69-.76,1.69-1.69s-.76-1.69-1.69-1.69h-15.87c-.08-.63-.12-1.27-.12-1.92s.05-1.29.12-1.92h15.87c.93,0,1.69-.75,1.69-1.69s-.76-1.69-1.69-1.69h-15.04c2.16-5.8,7.75-9.94,14.29-9.94,2.32,0,4.54.5,6.61,1.5.84.41,1.85.05,2.25-.79.41-.84.05-1.85-.79-2.26-2.53-1.22-5.25-1.84-8.08-1.84-8.43,0-15.56,5.63-17.85,13.32h-2.69c-.93,0-1.69.76-1.69,1.69s.76,1.69,1.69,1.69h2.02c-.07.63-.1,1.27-.1,1.92s.03,1.29.1,1.92h-2.02c-.93,0-1.69.76-1.69,1.69ZM34.43,1.66C22.77,1.66,11.9,7.93,6.05,18.02c-1.06,1.83-1.95,3.78-2.63,5.79-.3.88.17,1.85,1.05,2.15.89.3,1.85-.17,2.15-1.05.62-1.8,1.41-3.55,2.36-5.19,5.25-9.06,15-14.68,25.45-14.68,16.21,0,29.4,13.19,29.4,29.4s-13.19,29.4-29.4,29.4S5.04,50.64,5.04,34.43c0-.93-.76-1.69-1.69-1.69s-1.69.76-1.69,1.69c0,18.07,14.7,32.78,32.77,32.78s32.78-14.7,32.78-32.78S52.5,1.66,34.43,1.66Z"/>
        <path class="cls-6" d="M14.12,37.42c0,.93.76,1.69,1.69,1.69h2.69c2.29,7.69,9.42,13.32,17.85,13.32,2.83,0,5.54-.62,8.08-1.84.84-.41,1.19-1.42.79-2.25-.4-.84-1.41-1.2-2.25-.79-2.07,1-4.29,1.5-6.61,1.5-6.54,0-12.13-4.14-14.29-9.94h15.04c.93,0,1.69-.76,1.69-1.69s-.76-1.69-1.69-1.69h-15.87c-.08-.63-.12-1.27-.12-1.92s.05-1.29.12-1.92h15.87c.93,0,1.69-.75,1.69-1.69s-.76-1.69-1.69-1.69h-15.04c2.16-5.8,7.75-9.94,14.29-9.94,2.32,0,4.54.5,6.61,1.5.84.41,1.85.05,2.25-.79.41-.84.05-1.85-.79-2.26-2.53-1.22-5.25-1.84-8.08-1.84-8.43,0-15.56,5.63-17.85,13.32h-2.69c-.93,0-1.69.76-1.69,1.69s.76,1.69,1.69,1.69h2.02c-.07.63-.1,1.27-.1,1.92s.03,1.29.1,1.92h-2.02c-.93,0-1.69.76-1.69,1.69ZM33.8,1.03C22.15,1.03,11.28,7.3,5.43,17.4c-1.06,1.83-1.95,3.78-2.63,5.79-.3.88.17,1.85,1.05,2.15.89.3,1.85-.17,2.15-1.05.62-1.8,1.41-3.55,2.36-5.19,5.25-9.06,15-14.68,25.45-14.68,16.21,0,29.4,13.19,29.4,29.4s-13.19,29.4-29.4,29.4S4.41,50.01,4.41,33.8c0-.93-.76-1.69-1.69-1.69s-1.69.76-1.69,1.69c0,18.07,14.7,32.78,32.77,32.78s32.78-14.7,32.78-32.78S51.88,1.03,33.8,1.03Z"/>
        <path class="cls-5" d="M13.5,36.79c0,.93.76,1.69,1.69,1.69h2.69c2.29,7.69,9.42,13.32,17.85,13.32,2.83,0,5.54-.62,8.08-1.84.84-.41,1.19-1.42.79-2.25-.4-.84-1.41-1.2-2.25-.79-2.07,1-4.29,1.5-6.61,1.5-6.54,0-12.13-4.14-14.29-9.94h15.04c.93,0,1.69-.76,1.69-1.69s-.76-1.69-1.69-1.69h-15.87c-.08-.63-.12-1.27-.12-1.92s.05-1.29.12-1.92h15.87c.93,0,1.69-.75,1.69-1.69s-.76-1.69-1.69-1.69h-15.04c2.16-5.8,7.75-9.94,14.29-9.94,2.32,0,4.54.5,6.61,1.5.84.41,1.85.05,2.25-.79.41-.84.05-1.85-.79-2.26-2.53-1.22-5.25-1.84-8.08-1.84-8.43,0-15.56,5.63-17.85,13.32h-2.69c-.93,0-1.69.76-1.69,1.69s.76,1.69,1.69,1.69h2.02c-.07.63-.1,1.27-.1,1.92s.03,1.29.1,1.92h-2.02c-.93,0-1.69.76-1.69,1.69ZM33.18.41C21.52.41,10.65,6.68,4.8,16.77c-1.06,1.83-1.95,3.78-2.63,5.79-.3.88.17,1.84,1.05,2.15.89.3,1.85-.17,2.15-1.05.62-1.8,1.41-3.55,2.36-5.19C12.97,9.41,22.72,3.78,33.18,3.78c16.21,0,29.4,13.19,29.4,29.4s-13.19,29.4-29.4,29.4S3.79,49.39,3.79,33.18c0-.93-.76-1.69-1.69-1.69s-1.69.76-1.69,1.69c0,18.07,14.7,32.78,32.77,32.78s32.78-14.7,32.78-32.78S51.25.41,33.18.41Z"/>
      </g>
      <path class="cls-2" d="M32.77,0C21.12,0,10.25,6.27,4.39,16.37c-1.06,1.83-1.95,3.78-2.63,5.79-.3.88.17,1.84,1.05,2.15.89.3,1.85-.17,2.15-1.05.62-1.8,1.41-3.54,2.36-5.19C12.57,9,22.32,3.38,32.77,3.38c16.21,0,29.4,13.19,29.4,29.4s-13.19,29.4-29.4,29.4S3.38,48.98,3.38,32.77c0-.93-.76-1.69-1.69-1.69s-1.69.76-1.69,1.69c0,18.07,14.7,32.78,32.77,32.78s32.78-14.7,32.78-32.78S50.84,0,32.77,0ZM13.09,36.38c0,.93.76,1.69,1.69,1.69h2.69c2.29,7.69,9.42,13.32,17.85,13.32,2.83,0,5.54-.62,8.08-1.84.84-.41,1.19-1.41.79-2.25-.4-.84-1.41-1.2-2.25-.79-2.07,1-4.29,1.5-6.61,1.5-6.54,0-12.13-4.14-14.29-9.94h15.04c.93,0,1.69-.76,1.69-1.69s-.76-1.69-1.69-1.69h-15.87c-.08-.63-.12-1.27-.12-1.92s.05-1.29.12-1.92h15.87c.93,0,1.69-.75,1.69-1.69s-.76-1.69-1.69-1.69h-15.04c2.16-5.8,7.75-9.94,14.29-9.94,2.32,0,4.54.5,6.61,1.5.84.41,1.85.05,2.25-.79.41-.84.05-1.85-.79-2.26-2.53-1.22-5.25-1.84-8.08-1.84-8.43,0-15.56,5.63-17.85,13.32h-2.69c-.93,0-1.69.76-1.69,1.69s.76,1.69,1.69,1.69h2.02c-.07.63-.1,1.27-.1,1.92s.03,1.29.1,1.92h-2.02c-.93,0-1.69.76-1.69,1.69Z"/>
    </g>
  </g>
</svg>