<?xml version="1.0" encoding="UTF-8"?>
<svg id="Layer_2" data-name="Layer 2" xmlns="http://www.w3.org/2000/svg" xmlns:xlink="http://www.w3.org/1999/xlink" viewBox="0 0 66.36 74.84">
  <defs>
    <style>
      .cls-1 {
        opacity: .14;
      }

      .cls-2 {
        fill: url(#linear-gradient-2);
      }

      .cls-3 {
        opacity: .21;
      }

      .cls-4 {
        opacity: .42;
      }

      .cls-5 {
        opacity: .55;
      }

      .cls-6 {
        opacity: .48;
      }

      .cls-7 {
        opacity: .35;
      }

      .cls-8 {
        fill: url(#linear-gradient-3);
      }

      .cls-9 {
        opacity: .08;
      }

      .cls-10 {
        opacity: .28;
      }

      .cls-11 {
        opacity: 0;
      }

      .cls-12 {
        fill: url(#linear-gradient);
      }
    </style>
    <linearGradient id="linear-gradient" x1="5.59" y1=".92" x2="54.81" y2="50.13" gradientUnits="userSpaceOnUse">
      <stop offset="0" stop-color="#0594d6"/>
      <stop offset="1" stop-color="#7af5ff"/>
    </linearGradient>
    <linearGradient id="linear-gradient-2" x1="29.43" y1="25.57" x2="40.07" y2="36.21" gradientUnits="userSpaceOnUse">
      <stop offset="0" stop-color="#b7b7b7"/>
      <stop offset="1" stop-color="#fff"/>
    </linearGradient>
    <linearGradient id="linear-gradient-3" x1="6.02" y1="1.48" x2="54.93" y2="50.38" gradientUnits="userSpaceOnUse">
      <stop offset="0" stop-color="#2c2e2c"/>
      <stop offset=".99" stop-color="#000"/>
    </linearGradient>
  </defs>
  <g id="Layer_1-2" data-name="Layer 1">
    <g>
      <path class="cls-12" d="M1.63,8.29v27.14c0,1.77,1.03,8.26,6.93,14.75s21.83,17.7,21.83,17.7c0,0,15.34-9.59,21.98-18,6.64-8.41,6.93-13.13,6.93-21.54V8.29s-18.73,3.39-28.62-6.34c-5.02,3.54-14.16,8.85-29.06,6.34Z"/>
      <polygon class="cls-2" points="48.57 9.25 7.1 50.07 16 58.1 58.99 15.33 58.99 8.29 48.57 9.25"/>
      <g>
        <path class="cls-11" d="M35.88,71.18c-1.9-1.15-6.76-4.2-11.85-8.27L62.98,23.96v17.43c0,12.75-22.44,26.97-27.1,29.79ZM15.69,55.19L54.53,16.36c.05-.05.09-.11.13-.16,3.46.12,6.44-.23,8.32-.53v3.52L21.42,60.74c-2-1.73-3.96-3.6-5.73-5.55ZM65.71,12.28c-.41-.32-.95-.43-1.45-.31-.16.04-16.78,4.03-26.68-5.78-1.04-1.04-2.34-1.04-3.39,0C24.29,16,7.67,12.01,7.51,11.97c-.91-.23-1.82.32-2.05,1.23-.22.91.32,1.82,1.23,2.05.74.19,17.89,4.33,29.2-6.01,4.36,4,9.6,5.83,14.43,6.56L13.52,52.6c-2.82-3.65-4.73-7.49-4.73-11.2v-17.44c0-.93-.75-1.69-1.69-1.69s-1.69.75-1.69,1.69v17.44c0,16.1,28.42,32.53,29.64,33.22.26.15.55.22.84.22s.58-.07.84-.22c1.21-.69,29.64-17.12,29.64-33.22V13.61c0-.52-.24-1.01-.65-1.33Z"/>
        <path class="cls-9" d="M35.26,70.56c-1.9-1.15-6.76-4.2-11.85-8.27L62.35,23.34v17.43c0,12.75-22.44,26.97-27.1,29.79ZM15.07,54.57L53.9,15.74c.05-.05.09-.11.13-.16,3.46.12,6.44-.23,8.32-.53v3.52L20.8,60.12c-2-1.73-3.96-3.6-5.73-5.55ZM65.08,11.65c-.41-.32-.95-.44-1.45-.31-.16.04-16.78,4.03-26.68-5.78-1.04-1.04-2.34-1.04-3.39,0C23.67,15.37,7.05,11.39,6.88,11.35c-.91-.22-1.82.32-2.05,1.23-.22.91.32,1.82,1.23,2.05.74.19,17.89,4.33,29.2-6.01,4.36,4,9.6,5.83,14.43,6.56L12.89,51.97c-2.82-3.65-4.73-7.49-4.73-11.2v-17.44c0-.93-.75-1.69-1.69-1.69s-1.69.75-1.69,1.69v17.44c0,16.1,28.43,32.53,29.64,33.22.26.15.55.22.84.22s.58-.07.84-.22c1.21-.69,29.64-17.12,29.64-33.22V12.98c0-.52-.24-1.01-.65-1.33Z"/>
        <path class="cls-1" d="M34.63,69.93c-1.9-1.15-6.76-4.2-11.85-8.27L61.73,22.71v17.43c0,12.75-22.44,26.97-27.1,29.79ZM14.44,53.94L53.28,15.11c.05-.05.09-.11.13-.16,3.46.12,6.44-.23,8.32-.53v3.52L20.17,59.49c-2-1.73-3.96-3.6-5.73-5.55ZM64.46,11.03c-.41-.32-.95-.44-1.45-.31-.16.04-16.78,4.03-26.68-5.78-1.04-1.04-2.34-1.04-3.39,0C23.04,14.75,6.42,10.76,6.26,10.72c-.91-.22-1.82.32-2.05,1.23-.22.91.32,1.82,1.23,2.05.74.19,17.89,4.33,29.2-6.01,4.36,4,9.6,5.83,14.43,6.56L12.27,51.35c-2.82-3.65-4.73-7.49-4.73-11.2v-17.44c0-.93-.75-1.69-1.69-1.69s-1.69.75-1.69,1.69v17.44c0,16.1,28.43,32.53,29.64,33.22.26.15.55.22.84.22s.58-.07.84-.22c1.21-.69,29.64-17.12,29.64-33.22V12.36c0-.52-.24-1.01-.65-1.33Z"/>
        <path class="cls-3" d="M34.01,69.31c-1.9-1.15-6.76-4.2-11.85-8.27L61.1,22.09v17.43c0,12.75-22.44,26.97-27.1,29.79ZM13.82,53.32L52.65,14.49c.05-.05.09-.11.13-.16,3.46.12,6.44-.23,8.32-.53v3.52L19.55,58.87c-2-1.73-3.96-3.6-5.73-5.55ZM63.83,10.4c-.41-.32-.95-.44-1.45-.31-.16.04-16.78,4.03-26.68-5.78-1.04-1.04-2.34-1.04-3.39,0C22.42,14.12,5.8,10.14,5.63,10.1c-.91-.22-1.82.32-2.05,1.23-.22.91.32,1.82,1.23,2.05.74.19,17.89,4.33,29.2-6.01,4.36,4,9.6,5.83,14.43,6.56L11.64,50.72c-2.82-3.65-4.73-7.49-4.73-11.2v-17.44c0-.93-.75-1.69-1.69-1.69s-1.69.75-1.69,1.69v17.44c0,16.1,28.43,32.53,29.64,33.22.26.15.55.22.84.22s.58-.07.84-.22c1.21-.69,29.64-17.12,29.64-33.22V11.73c0-.52-.24-1.01-.65-1.33Z"/>
        <path class="cls-10" d="M33.38,68.68c-1.9-1.15-6.76-4.2-11.85-8.27L60.48,21.46v17.43c0,12.75-22.44,26.97-27.1,29.79ZM13.19,52.69L52.03,13.86c.05-.05.09-.11.13-.16,3.46.12,6.44-.23,8.32-.53v3.52L18.92,58.24c-2-1.73-3.96-3.6-5.73-5.55ZM63.21,9.78c-.41-.32-.95-.44-1.45-.31-.16.04-16.78,4.03-26.68-5.78-1.04-1.04-2.34-1.04-3.39,0C21.79,13.5,5.17,9.51,5.01,9.47c-.91-.22-1.82.32-2.05,1.23-.22.91.32,1.82,1.23,2.05.74.19,17.89,4.33,29.2-6.01,4.36,4,9.6,5.83,14.43,6.56L11.02,50.1c-2.82-3.65-4.73-7.49-4.73-11.2v-17.44c0-.93-.75-1.69-1.69-1.69s-1.69.75-1.69,1.69v17.44c0,16.1,28.43,32.53,29.64,33.22.26.15.55.22.84.22s.58-.07.84-.22c1.21-.69,29.64-17.12,29.64-33.22V11.11c0-.52-.24-1.01-.65-1.33Z"/>
        <path class="cls-7" d="M32.76,68.06c-1.9-1.15-6.76-4.2-11.85-8.27L59.85,20.84v17.43c0,12.75-22.44,26.97-27.1,29.79ZM12.57,52.07L51.4,13.24c.05-.05.09-.11.13-.16,3.46.12,6.44-.23,8.32-.53v3.52L18.3,57.62c-2-1.73-3.96-3.6-5.73-5.55ZM62.58,9.15c-.41-.32-.95-.44-1.45-.31-.16.04-16.78,4.03-26.68-5.78-1.04-1.04-2.34-1.04-3.39,0C21.17,12.87,4.55,8.89,4.38,8.85c-.91-.22-1.82.32-2.05,1.23-.22.91.32,1.82,1.23,2.05.74.19,17.89,4.33,29.2-6.01,4.36,4,9.6,5.83,14.43,6.56L10.39,49.47c-2.82-3.65-4.73-7.49-4.73-11.2v-17.44c0-.93-.75-1.69-1.69-1.69s-1.69.75-1.69,1.69v17.44c0,16.1,28.43,32.53,29.64,33.22.26.15.55.22.84.22s.58-.07.84-.22c1.21-.69,29.64-17.12,29.64-33.22V10.48c0-.52-.24-1.01-.65-1.33Z"/>
        <path class="cls-4" d="M32.13,67.43c-1.9-1.15-6.76-4.2-11.85-8.27L59.23,20.21v17.43c0,12.75-22.44,26.97-27.1,29.79ZM11.94,51.44L50.78,12.61c.05-.05.09-.11.13-.16,3.46.12,6.44-.23,8.32-.53v3.52L17.67,56.99c-2-1.73-3.96-3.6-5.73-5.55ZM61.96,8.53c-.41-.32-.95-.44-1.45-.31-.16.04-16.78,4.03-26.68-5.78-1.04-1.04-2.34-1.04-3.39,0C20.54,12.25,3.92,8.26,3.76,8.22c-.91-.22-1.82.32-2.05,1.23-.22.91.32,1.82,1.23,2.05.74.19,17.89,4.33,29.2-6.01,4.36,4,9.6,5.83,14.43,6.56L9.77,48.85c-2.82-3.65-4.73-7.49-4.73-11.2v-17.44c0-.93-.75-1.69-1.69-1.69s-1.69.75-1.69,1.69v17.44c0,16.1,28.43,32.53,29.64,33.22.26.15.55.22.84.22s.58-.07.84-.22c1.21-.69,29.64-17.12,29.64-33.22V9.86c0-.52-.24-1.01-.65-1.33Z"/>
        <path class="cls-6" d="M31.51,66.81c-1.9-1.15-6.76-4.2-11.85-8.27L58.6,19.59v17.43c0,12.75-22.44,26.97-27.1,29.79ZM11.32,50.82L50.15,11.99c.05-.05.09-.11.13-.16,3.46.12,6.44-.23,8.32-.53v3.52L17.05,56.37c-2-1.73-3.96-3.6-5.73-5.55ZM61.33,7.9c-.41-.32-.95-.44-1.45-.31-.16.04-16.78,4.03-26.68-5.78-1.04-1.04-2.34-1.04-3.39,0C19.92,11.62,3.3,7.64,3.13,7.6c-.91-.22-1.82.32-2.05,1.23-.22.91.32,1.82,1.23,2.05.74.19,17.89,4.33,29.2-6.01,4.36,4,9.6,5.83,14.43,6.56L9.14,48.22c-2.82-3.65-4.73-7.49-4.73-11.2v-17.44c0-.93-.75-1.69-1.69-1.69s-1.69.75-1.69,1.69v17.44c0,16.1,28.43,32.53,29.64,33.22.26.15.55.22.84.22s.58-.07.84-.22c1.21-.69,29.64-17.12,29.64-33.22V9.23c0-.52-.24-1.01-.65-1.33Z"/>
        <path class="cls-5" d="M30.88,66.18c-1.9-1.15-6.76-4.2-11.85-8.27L57.98,18.96v17.43c0,12.75-22.44,26.97-27.1,29.79ZM10.69,50.19L49.53,11.36c.05-.05.09-.11.13-.16,3.46.12,6.44-.23,8.32-.53v3.52L16.42,55.74c-2-1.73-3.96-3.6-5.73-5.55ZM60.71,7.28c-.41-.32-.95-.43-1.45-.31-.16.04-16.78,4.03-26.68-5.78-1.04-1.04-2.34-1.04-3.39,0C19.29,11,2.67,7.01,2.51,6.97c-.91-.23-1.82.32-2.05,1.23-.22.91.32,1.82,1.23,2.05.74.19,17.89,4.33,29.2-6.01,4.36,4,9.6,5.83,14.43,6.56L8.52,47.6c-2.82-3.65-4.73-7.49-4.73-11.2v-17.44c0-.93-.75-1.69-1.69-1.69s-1.69.75-1.69,1.69v17.44c0,16.1,28.42,32.53,29.64,33.22.26.15.55.22.84.22s.58-.07.84-.22c1.21-.69,29.64-17.12,29.64-33.22V8.61c0-.52-.24-1.01-.65-1.33Z"/>
      </g>
      <path class="cls-8" d="M60.3,6.87c-.41-.32-.95-.43-1.45-.31-.16.04-16.78,4.03-26.68-5.78-1.04-1.04-2.34-1.04-3.39,0C18.89,10.59,2.27,6.6,2.1,6.56c-.91-.23-1.82.32-2.05,1.23-.22.91.32,1.82,1.23,2.05.74.19,17.89,4.33,29.2-6.01,4.36,4,9.6,5.83,14.43,6.56L8.11,47.19c-2.82-3.65-4.73-7.49-4.73-11.2v-17.44c0-.93-.75-1.69-1.69-1.69S0,17.61,0,18.55v17.44C0,52.09,28.43,68.52,29.64,69.21c.26.15.55.22.84.22s.58-.07.84-.22c1.21-.69,29.64-17.12,29.64-33.22V8.2c0-.52-.24-1.01-.65-1.33ZM10.29,49.79L49.12,10.96c.05-.05.09-.11.13-.16,3.46.12,6.44-.23,8.32-.53v3.52L16.01,55.34c-2-1.73-3.96-3.6-5.73-5.55ZM30.47,65.78c-1.9-1.15-6.76-4.2-11.85-8.27L57.57,18.56v17.43c0,12.75-22.44,26.97-27.1,29.79Z"/>
    </g>
  </g>
</svg>