<?xml version="1.0" encoding="UTF-8"?>
<svg id="Layer_2" data-name="Layer 2" xmlns="http://www.w3.org/2000/svg" xmlns:xlink="http://www.w3.org/1999/xlink" viewBox="0 0 64.31 80.34">
  <defs>
    <style>
      .cls-1 {
        opacity: .14;
      }

      .cls-2 {
        fill: url(#linear-gradient-2);
      }

      .cls-3 {
        opacity: .21;
      }

      .cls-4 {
        opacity: .42;
      }

      .cls-5 {
        opacity: .55;
      }

      .cls-6 {
        opacity: .48;
      }

      .cls-7 {
        opacity: .35;
      }

      .cls-8 {
        fill: url(#linear-gradient-3);
      }

      .cls-9 {
        opacity: .08;
      }

      .cls-10 {
        opacity: .28;
      }

      .cls-11 {
        opacity: 0;
      }

      .cls-12 {
        fill: url(#linear-gradient);
      }
    </style>
    <linearGradient id="linear-gradient" x1="8.76" y1="20.53" x2="52.14" y2="63.91" gradientUnits="userSpaceOnUse">
      <stop offset="0" stop-color="#ed5d2b"/>
      <stop offset="1" stop-color="#ffb466"/>
    </linearGradient>
    <linearGradient id="linear-gradient-2" x1="19.57" y1="43.52" x2="39.62" y2="63.57" gradientUnits="userSpaceOnUse">
      <stop offset="0" stop-color="#f2a300"/>
      <stop offset="1" stop-color="#ffff36"/>
    </linearGradient>
    <linearGradient id="linear-gradient-3" x1="9.47" y1="20.66" x2="52.69" y2="63.88" gradientUnits="userSpaceOnUse">
      <stop offset="0" stop-color="#2c2e2c"/>
      <stop offset=".99" stop-color="#000"/>
    </linearGradient>
  </defs>
  <g id="Layer_1-2" data-name="Layer 1">
    <g>
      <path class="cls-12" d="M1.67,45.77c0,3.21.3,8.82,3.91,13.92s11.32,13.52,24.74,13.52,23.84-10.82,26.04-22.24c2.2-11.42-2.5-19.83-8.91-26.35-6.41-6.51-12.97-16.31-13.47-22.02C27.67,5.12,1.67,23.74,1.67,45.77Z"/>
      <path class="cls-2" d="M29.59,34.87s-10.83,12.32-10.96,18.95c-.14,6.63,4.33,11.23,4.33,11.23,0,0,3.92,5.01,7.04,7.17,2.3-3.38,8.53-7.58,10.29-12.18,1.76-4.6-.68-10.83-4.33-14.48s-6.09-8.93-6.36-10.69Z"/>
      <g>
        <path class="cls-11" d="M57.83,33c-2.01-2.48-3.9-4.6-5.56-6.47-2.6-2.93-4.65-5.24-6.01-7.53-4.36-7.38-4.58-11.91-4.58-11.94-.02-.59-.34-1.14-.86-1.43-.52-.29-1.15-.29-1.67,0-.68.39-16.86,9.71-27.54,25.74-3.88,5.82-6.2,13.12-6.2,19.52,0,.93.76,1.69,1.69,1.69s1.69-.76,1.69-1.69c0-5.76,2.11-12.36,5.63-17.65,8.03-12.04,19.62-20.33,24.31-23.38.55,2.33,1.79,6.07,4.62,10.84,1.52,2.58,3.78,5.12,6.39,8.06,1.64,1.85,3.5,3.94,5.47,6.36,3.85,4.74,5.72,9.89,5.72,15.76,0,13.14-9.77,24.03-22.42,25.81.6-.98,1.66-1.99,2.84-3.1,2.96-2.78,7.02-6.6,6.51-13.39-.36-4.83-3.37-8.31-5.35-10.6l-.12-.13c-3.3-3.82-4.99-8.04-5.17-10.36-.05-.69-.53-1.28-1.19-1.49-.66-.2-1.39.03-1.82.57-.3.38-.66.84-1.06,1.34-2.54,3.2-6.37,8.03-7.92,10.78-4.53,8.05-3.92,15.12,1.79,21.02.65.67,1.72.69,2.39.04.67-.65.69-1.72.04-2.39-4.68-4.83-5.09-10.24-1.28-17.01,1.21-2.15,4.23-6.05,6.53-8.96.93,2.64,2.63,5.76,5.13,8.66l.12.13c1.8,2.08,4.26,4.93,4.54,8.65.39,5.17-2.58,7.97-5.46,10.67-1.92,1.81-3.75,3.53-4.27,5.82-8.14-.03-15.69-3.8-20.72-10.37-2.34-3.06-3.41-5.4-3.88-6.83-.3-.88-1.25-1.37-2.14-1.07-.89.3-1.36,1.25-1.07,2.14.8,2.4,2.32,5.1,4.4,7.82,5.7,7.43,14.26,11.69,23.5,11.69,16.24,0,29.45-13.21,29.45-29.45,0-6.67-2.12-12.53-6.48-17.89Z"/>
        <path class="cls-9" d="M57.2,32.37c-2.01-2.48-3.9-4.6-5.56-6.47-2.6-2.93-4.65-5.24-6.01-7.53-4.36-7.38-4.58-11.91-4.58-11.94,0-.59-.34-1.14-.86-1.43-.52-.29-1.15-.29-1.67,0-.68.39-16.86,9.71-27.54,25.74-3.88,5.82-6.2,13.12-6.2,19.52,0,.93.76,1.69,1.69,1.69s1.69-.76,1.69-1.69c0-5.76,2.11-12.36,5.63-17.65,8.03-12.04,19.62-20.33,24.31-23.38.55,2.33,1.79,6.07,4.62,10.84,1.52,2.58,3.78,5.12,6.39,8.06,1.64,1.85,3.5,3.94,5.47,6.36,3.85,4.74,5.72,9.89,5.72,15.76,0,13.14-9.77,24.03-22.42,25.81.6-.98,1.66-1.99,2.84-3.1,2.96-2.78,7.02-6.6,6.51-13.39-.36-4.83-3.37-8.31-5.35-10.6l-.12-.13c-3.3-3.82-4.99-8.04-5.17-10.36-.05-.69-.53-1.28-1.19-1.49-.66-.2-1.39.03-1.82.57-.3.38-.66.84-1.06,1.34-2.54,3.2-6.37,8.03-7.92,10.78-4.53,8.05-3.92,15.12,1.79,21.02.65.67,1.72.69,2.39.04.67-.65.69-1.72.04-2.39-4.68-4.83-5.09-10.24-1.28-17.01,1.21-2.15,4.23-6.05,6.53-8.96.93,2.64,2.63,5.76,5.13,8.66l.12.13c1.8,2.08,4.26,4.93,4.54,8.65.39,5.17-2.58,7.97-5.46,10.67-1.92,1.81-3.75,3.53-4.27,5.82-8.14-.03-15.69-3.8-20.72-10.37-2.34-3.06-3.41-5.4-3.88-6.83-.3-.88-1.25-1.37-2.14-1.07-.89.3-1.36,1.25-1.07,2.14.8,2.4,2.32,5.1,4.4,7.82,5.7,7.43,14.26,11.69,23.5,11.69,16.24,0,29.45-13.21,29.45-29.45,0-6.67-2.12-12.53-6.48-17.89Z"/>
        <path class="cls-1" d="M56.58,31.75c-2.01-2.48-3.9-4.6-5.56-6.47-2.6-2.93-4.65-5.24-6.01-7.53-4.36-7.38-4.58-11.91-4.58-11.94,0-.59-.34-1.14-.86-1.43-.52-.29-1.15-.29-1.67,0-.68.39-16.86,9.71-27.54,25.74-3.88,5.82-6.2,13.12-6.2,19.52,0,.93.76,1.69,1.69,1.69s1.69-.76,1.69-1.69c0-5.76,2.11-12.36,5.63-17.65,8.03-12.04,19.62-20.33,24.31-23.38.55,2.33,1.79,6.07,4.62,10.84,1.52,2.58,3.78,5.12,6.39,8.06,1.64,1.85,3.5,3.94,5.47,6.36,3.85,4.74,5.72,9.89,5.72,15.76,0,13.14-9.77,24.03-22.42,25.81.6-.98,1.66-1.99,2.84-3.1,2.96-2.78,7.02-6.6,6.51-13.39-.36-4.83-3.37-8.31-5.35-10.6l-.12-.13c-3.3-3.82-4.99-8.04-5.17-10.36-.05-.69-.53-1.28-1.19-1.49-.66-.2-1.39.03-1.82.57-.3.38-.66.84-1.06,1.34-2.54,3.2-6.37,8.03-7.92,10.78-4.53,8.05-3.92,15.12,1.79,21.02.65.67,1.72.69,2.39.04.67-.65.69-1.72.04-2.39-4.68-4.83-5.09-10.24-1.28-17.01,1.21-2.15,4.23-6.05,6.53-8.96.93,2.64,2.63,5.76,5.13,8.66l.12.13c1.8,2.08,4.26,4.93,4.54,8.65.39,5.17-2.58,7.97-5.46,10.67-1.92,1.81-3.75,3.53-4.27,5.82-8.14-.03-15.69-3.8-20.72-10.37-2.34-3.06-3.41-5.4-3.88-6.83-.3-.88-1.25-1.37-2.14-1.07-.89.3-1.36,1.25-1.07,2.14.8,2.4,2.32,5.1,4.4,7.82,5.7,7.43,14.26,11.69,23.5,11.69,16.24,0,29.45-13.21,29.45-29.45,0-6.67-2.12-12.53-6.48-17.89Z"/>
        <path class="cls-3" d="M55.95,31.12c-2.01-2.48-3.9-4.6-5.56-6.47-2.6-2.93-4.65-5.24-6.01-7.53-4.36-7.38-4.58-11.91-4.58-11.94,0-.59-.34-1.14-.86-1.43-.52-.29-1.15-.29-1.67,0-.68.39-16.86,9.71-27.54,25.74-3.88,5.82-6.2,13.12-6.2,19.52,0,.93.76,1.69,1.69,1.69s1.69-.76,1.69-1.69c0-5.76,2.11-12.36,5.63-17.65,8.03-12.04,19.62-20.33,24.31-23.38.55,2.33,1.79,6.07,4.62,10.84,1.52,2.58,3.78,5.12,6.39,8.06,1.64,1.85,3.5,3.94,5.47,6.36,3.85,4.74,5.72,9.89,5.72,15.76,0,13.14-9.77,24.03-22.42,25.81.6-.98,1.66-1.99,2.84-3.1,2.96-2.78,7.02-6.6,6.51-13.39-.36-4.83-3.37-8.31-5.35-10.6l-.12-.13c-3.3-3.82-4.99-8.04-5.17-10.36-.05-.69-.53-1.28-1.19-1.49-.66-.2-1.39.03-1.82.57-.3.38-.66.84-1.06,1.34-2.54,3.2-6.37,8.03-7.92,10.78-4.53,8.05-3.92,15.12,1.79,21.02.65.67,1.72.69,2.39.04.67-.65.69-1.72.04-2.39-4.68-4.83-5.09-10.24-1.28-17.01,1.21-2.15,4.23-6.05,6.53-8.96.93,2.64,2.63,5.76,5.13,8.66l.12.13c1.8,2.08,4.26,4.93,4.54,8.65.39,5.17-2.58,7.97-5.46,10.67-1.92,1.81-3.75,3.53-4.27,5.82-8.14-.03-15.69-3.8-20.72-10.37-2.34-3.06-3.41-5.4-3.88-6.83-.3-.88-1.25-1.37-2.14-1.07-.89.3-1.36,1.25-1.07,2.14.8,2.4,2.32,5.1,4.4,7.82,5.7,7.43,14.26,11.69,23.5,11.69,16.24,0,29.45-13.21,29.45-29.45,0-6.67-2.12-12.53-6.48-17.89Z"/>
        <path class="cls-10" d="M55.33,30.5c-2.01-2.48-3.9-4.6-5.56-6.47-2.6-2.93-4.65-5.24-6.01-7.53-4.36-7.38-4.58-11.91-4.58-11.94,0-.59-.34-1.14-.86-1.43-.52-.29-1.15-.29-1.67,0-.68.39-16.86,9.71-27.54,25.74-3.88,5.82-6.2,13.12-6.2,19.52,0,.93.76,1.69,1.69,1.69s1.69-.76,1.69-1.69c0-5.76,2.11-12.36,5.63-17.65,8.03-12.04,19.62-20.33,24.31-23.38.55,2.33,1.79,6.07,4.62,10.84,1.52,2.58,3.78,5.12,6.39,8.06,1.64,1.85,3.5,3.94,5.47,6.36,3.85,4.74,5.72,9.89,5.72,15.76,0,13.14-9.77,24.03-22.42,25.81.6-.98,1.66-1.99,2.84-3.1,2.96-2.78,7.02-6.6,6.51-13.39-.36-4.83-3.37-8.31-5.35-10.6l-.12-.13c-3.3-3.82-4.99-8.04-5.17-10.36-.05-.69-.53-1.28-1.19-1.49-.66-.2-1.39.03-1.82.57-.3.38-.66.84-1.06,1.34-2.54,3.2-6.37,8.03-7.92,10.78-4.53,8.05-3.92,15.12,1.79,21.02.65.67,1.72.69,2.39.04.67-.65.69-1.72.04-2.39-4.68-4.83-5.09-10.24-1.28-17.01,1.21-2.15,4.23-6.05,6.53-8.96.93,2.64,2.63,5.76,5.13,8.66l.12.13c1.8,2.08,4.26,4.93,4.54,8.65.39,5.17-2.58,7.97-5.46,10.67-1.92,1.81-3.75,3.53-4.27,5.82-8.14-.03-15.69-3.8-20.72-10.37-2.34-3.06-3.41-5.4-3.88-6.83-.3-.88-1.25-1.37-2.14-1.07-.89.3-1.36,1.25-1.07,2.14.8,2.4,2.32,5.1,4.4,7.82,5.7,7.43,14.26,11.69,23.5,11.69,16.24,0,29.45-13.21,29.45-29.45,0-6.67-2.12-12.53-6.48-17.89Z"/>
        <path class="cls-7" d="M54.7,29.87c-2.01-2.48-3.9-4.6-5.56-6.47-2.6-2.93-4.65-5.24-6.01-7.53-4.36-7.38-4.58-11.91-4.58-11.94,0-.59-.34-1.14-.86-1.43-.52-.29-1.15-.29-1.67,0-.68.39-16.86,9.71-27.54,25.74-3.88,5.82-6.2,13.12-6.2,19.52,0,.93.76,1.69,1.69,1.69s1.69-.76,1.69-1.69c0-5.76,2.11-12.36,5.63-17.65,8.03-12.04,19.62-20.33,24.31-23.38.55,2.33,1.79,6.07,4.62,10.84,1.52,2.58,3.78,5.12,6.39,8.06,1.64,1.85,3.5,3.94,5.47,6.36,3.85,4.74,5.72,9.89,5.72,15.76,0,13.14-9.77,24.03-22.42,25.81.6-.98,1.66-1.99,2.84-3.1,2.96-2.78,7.02-6.6,6.51-13.39-.36-4.83-3.37-8.31-5.35-10.6l-.12-.13c-3.3-3.82-4.99-8.04-5.17-10.36-.05-.69-.53-1.28-1.19-1.49-.66-.2-1.39.03-1.82.57-.3.38-.66.84-1.06,1.34-2.54,3.2-6.37,8.03-7.92,10.78-4.53,8.05-3.92,15.12,1.79,21.02.65.67,1.72.69,2.39.04.67-.65.69-1.72.04-2.39-4.68-4.83-5.09-10.24-1.28-17.01,1.21-2.15,4.23-6.05,6.53-8.96.93,2.64,2.63,5.76,5.13,8.66l.12.13c1.8,2.08,4.26,4.93,4.54,8.65.39,5.17-2.58,7.97-5.46,10.67-1.92,1.81-3.75,3.53-4.27,5.82-8.14-.03-15.69-3.8-20.72-10.37-2.34-3.06-3.41-5.4-3.88-6.83-.3-.88-1.25-1.37-2.14-1.07-.89.3-1.36,1.25-1.07,2.14.8,2.4,2.32,5.1,4.4,7.82,5.7,7.43,14.26,11.69,23.5,11.69,16.24,0,29.45-13.21,29.45-29.45,0-6.67-2.12-12.53-6.48-17.89Z"/>
        <path class="cls-4" d="M54.08,29.25c-2.01-2.48-3.9-4.6-5.56-6.47-2.6-2.93-4.65-5.24-6.01-7.53-4.36-7.38-4.58-11.91-4.58-11.94,0-.59-.34-1.14-.86-1.43-.52-.29-1.15-.29-1.67,0-.68.39-16.86,9.71-27.54,25.74-3.88,5.82-6.2,13.12-6.2,19.52,0,.93.76,1.69,1.69,1.69s1.69-.76,1.69-1.69c0-5.76,2.11-12.36,5.63-17.65,8.03-12.04,19.62-20.33,24.31-23.38.55,2.33,1.79,6.07,4.62,10.84,1.52,2.58,3.78,5.12,6.39,8.06,1.64,1.85,3.5,3.94,5.47,6.36,3.85,4.74,5.72,9.89,5.72,15.76,0,13.14-9.77,24.03-22.42,25.81.6-.98,1.66-1.99,2.84-3.1,2.96-2.78,7.02-6.6,6.51-13.39-.36-4.83-3.37-8.31-5.35-10.6l-.12-.13c-3.3-3.82-4.99-8.04-5.17-10.36-.05-.69-.53-1.28-1.19-1.49-.66-.2-1.39.03-1.82.57-.3.38-.66.84-1.06,1.34-2.54,3.2-6.37,8.03-7.92,10.78-4.53,8.05-3.92,15.12,1.79,21.02.65.67,1.72.69,2.39.04.67-.65.69-1.72.04-2.39-4.68-4.83-5.09-10.24-1.28-17.01,1.21-2.15,4.23-6.05,6.53-8.96.93,2.64,2.63,5.76,5.13,8.66l.12.13c1.8,2.08,4.26,4.93,4.54,8.65.39,5.17-2.58,7.97-5.46,10.67-1.92,1.81-3.75,3.53-4.27,5.82-8.14-.03-15.69-3.8-20.72-10.37-2.34-3.06-3.41-5.4-3.88-6.83-.3-.88-1.25-1.37-2.14-1.07-.89.3-1.36,1.25-1.07,2.14.8,2.4,2.32,5.1,4.4,7.82,5.7,7.43,14.26,11.69,23.5,11.69,16.24,0,29.45-13.21,29.45-29.45,0-6.67-2.12-12.53-6.48-17.89Z"/>
        <path class="cls-6" d="M53.45,28.62c-2.01-2.48-3.9-4.6-5.56-6.47-2.6-2.93-4.65-5.24-6.01-7.53-4.36-7.38-4.58-11.91-4.58-11.94,0-.59-.34-1.14-.86-1.43-.52-.29-1.15-.29-1.67,0-.68.39-16.86,9.71-27.54,25.74-3.88,5.82-6.2,13.12-6.2,19.52,0,.93.76,1.69,1.69,1.69s1.69-.76,1.69-1.69c0-5.76,2.11-12.36,5.63-17.65,8.03-12.04,19.62-20.33,24.31-23.38.55,2.33,1.79,6.07,4.62,10.84,1.52,2.58,3.78,5.12,6.39,8.06,1.64,1.85,3.5,3.94,5.47,6.36,3.85,4.74,5.72,9.89,5.72,15.76,0,13.14-9.77,24.03-22.42,25.81.6-.98,1.66-1.99,2.84-3.1,2.96-2.78,7.02-6.6,6.51-13.39-.36-4.83-3.37-8.31-5.35-10.6l-.12-.13c-3.3-3.82-4.99-8.04-5.17-10.36-.05-.69-.53-1.28-1.19-1.49-.66-.2-1.39.03-1.82.57-.3.38-.66.84-1.06,1.34-2.54,3.2-6.37,8.03-7.92,10.78-4.53,8.05-3.92,15.12,1.79,21.02.65.67,1.72.69,2.39.04.67-.65.69-1.72.04-2.39-4.68-4.83-5.09-10.24-1.28-17.01,1.21-2.15,4.23-6.05,6.53-8.96.93,2.64,2.63,5.76,5.13,8.66l.12.13c1.8,2.08,4.26,4.93,4.54,8.65.39,5.17-2.58,7.97-5.46,10.67-1.92,1.81-3.75,3.53-4.27,5.82-8.14-.03-15.69-3.8-20.72-10.37-2.34-3.06-3.41-5.4-3.88-6.83-.3-.88-1.25-1.37-2.14-1.07-.89.3-1.36,1.25-1.07,2.14.8,2.4,2.32,5.1,4.4,7.82,5.7,7.43,14.26,11.69,23.5,11.69,16.24,0,29.45-13.21,29.45-29.45,0-6.67-2.12-12.53-6.48-17.89Z"/>
        <path class="cls-5" d="M52.83,28c-2.01-2.48-3.9-4.6-5.56-6.47-2.6-2.93-4.65-5.24-6.01-7.53-4.36-7.38-4.58-11.91-4.58-11.94-.02-.59-.34-1.14-.86-1.43-.52-.29-1.15-.29-1.67,0-.68.39-16.86,9.71-27.54,25.74C2.72,32.19.41,39.49.41,45.89c0,.93.76,1.69,1.69,1.69s1.69-.76,1.69-1.69c0-5.76,2.11-12.36,5.63-17.65C17.44,16.2,29.04,7.92,33.73,4.87c.55,2.33,1.79,6.07,4.62,10.84,1.52,2.58,3.78,5.12,6.39,8.06,1.64,1.85,3.5,3.94,5.47,6.36,3.85,4.74,5.72,9.89,5.72,15.76,0,13.14-9.77,24.03-22.42,25.81.6-.98,1.66-1.99,2.84-3.1,2.96-2.78,7.02-6.6,6.51-13.39-.36-4.83-3.37-8.31-5.35-10.6l-.12-.13c-3.3-3.82-4.99-8.04-5.17-10.36-.05-.69-.53-1.28-1.19-1.49-.66-.2-1.39.03-1.82.57-.3.38-.66.84-1.06,1.34-2.54,3.2-6.37,8.03-7.92,10.78-4.53,8.05-3.92,15.12,1.79,21.02.65.67,1.72.69,2.39.04.67-.65.69-1.72.04-2.39-4.68-4.83-5.09-10.24-1.28-17.01,1.21-2.15,4.23-6.05,6.53-8.96.93,2.64,2.63,5.76,5.13,8.66l.12.13c1.8,2.08,4.26,4.93,4.54,8.65.39,5.17-2.58,7.97-5.46,10.67-1.92,1.81-3.75,3.53-4.27,5.82-8.14-.03-15.69-3.8-20.72-10.37-2.34-3.06-3.41-5.4-3.88-6.83-.3-.88-1.25-1.37-2.14-1.07-.89.3-1.36,1.25-1.07,2.14.8,2.4,2.32,5.1,4.4,7.82,5.7,7.43,14.26,11.69,23.5,11.69,16.24,0,29.45-13.21,29.45-29.45,0-6.67-2.12-12.53-6.48-17.89Z"/>
      </g>
      <path class="cls-8" d="M52.42,27.59c-2.01-2.48-3.9-4.6-5.56-6.47-2.6-2.93-4.65-5.24-6.01-7.53-4.36-7.38-4.58-11.91-4.58-11.94-.02-.59-.34-1.14-.86-1.43-.52-.29-1.15-.29-1.66,0-.68.39-16.86,9.71-27.54,25.74C2.32,31.78,0,39.08,0,45.48c0,.93.76,1.69,1.69,1.69s1.69-.76,1.69-1.69c0-5.76,2.11-12.36,5.63-17.65C17.04,15.79,28.63,7.51,33.32,4.46c.55,2.33,1.8,6.07,4.62,10.84,1.52,2.58,3.78,5.12,6.39,8.06,1.64,1.85,3.5,3.94,5.47,6.36,3.85,4.74,5.72,9.89,5.72,15.76,0,13.14-9.77,24.03-22.42,25.81.6-.98,1.66-1.99,2.84-3.1,2.96-2.78,7.02-6.6,6.51-13.39-.36-4.83-3.37-8.31-5.35-10.6l-.12-.13c-3.29-3.82-4.99-8.04-5.17-10.36-.05-.69-.53-1.28-1.19-1.49-.66-.2-1.39.03-1.82.57-.3.38-.66.83-1.06,1.34-2.54,3.2-6.37,8.03-7.92,10.78-4.53,8.05-3.92,15.12,1.79,21.02.65.67,1.72.69,2.39.04.67-.65.69-1.72.04-2.39-4.68-4.83-5.09-10.24-1.28-17.01,1.21-2.15,4.23-6.05,6.53-8.96.93,2.64,2.63,5.76,5.13,8.66l.12.13c1.8,2.08,4.26,4.93,4.54,8.65.39,5.17-2.58,7.97-5.46,10.67-1.92,1.81-3.75,3.53-4.27,5.82-8.14-.03-15.69-3.8-20.72-10.37-2.34-3.06-3.41-5.4-3.88-6.83-.3-.88-1.25-1.37-2.14-1.07-.89.3-1.36,1.25-1.07,2.14.8,2.4,2.32,5.1,4.4,7.82,5.7,7.43,14.26,11.69,23.5,11.69,16.24,0,29.45-13.21,29.45-29.45,0-6.67-2.12-12.53-6.48-17.89Z"/>
    </g>
  </g>
</svg>