<?xml version="1.0" encoding="UTF-8"?>
<svg id="Layer_2" data-name="Layer 2" xmlns="http://www.w3.org/2000/svg" viewBox="0 0 27.35 21.98">
  <defs>
    <style>
      .cls-1 {
        fill-rule: evenodd;
      }
    </style>
  </defs>
  <g id="_1" data-name="1">
    <path class="cls-1" d="M20.75,3.16l3,2.64c.98.87,1.08,2.38.2,3.35h0c-.86.98-2.36,1.08-3.33.22l-3.01-2.65c-.97-.86-1.06-2.36-.21-3.33h0c.86-.98,2.36-1.08,3.35-.22h0ZM4.18,1.67c1.95-.46,4.08.18,5.44,1.84,1.56,1.89,1.62,4.55.29,6.48l2.52,2.56,4.71-5.33,3.05,2.68-4.89,5.57,3.11,3.16c1.05,1.96-.95,3.97-2.89,2.51l-2.5-3.1-3.22,3.66c-.3.33-.81.36-1.16.07l-1.88-1.67c-.3-.27-.34-.73-.07-1.04l3.73-4.25-2.49-3.07c-2.22,1.17-5.04.66-6.7-1.37C-.22,8.64-.37,6.23.67,4.34l2.96,3.6,3.41-2.79-2.86-3.48ZM25.3,7.71c.69.61,1.37,1.21,2.06,1.81-.41,1.72-2,2.71-2.64,3-.69-.59-1.37-1.2-2.06-1.81,1.5-.3,2.31-1.4,2.64-3h0ZM18.6,1.81c-.69-.61-1.37-1.2-2.06-1.81-1.65.63-2.43,2.33-2.64,3,.69.6,1.36,1.2,2.06,1.81.13-1.53,1.09-2.46,2.64-3h0Z"/>
  </g>
</svg>