<?xml version="1.0" encoding="UTF-8"?>
<svg id="Layer_2" data-name="Layer 2" xmlns="http://www.w3.org/2000/svg" xmlns:xlink="http://www.w3.org/1999/xlink" viewBox="0 0 68.93 64.52">
  <defs>
    <style>
      .cls-1 {
        opacity: .14;
      }

      .cls-2 {
        fill: url(#linear-gradient-2);
      }

      .cls-3 {
        opacity: .21;
      }

      .cls-4 {
        opacity: .42;
      }

      .cls-5 {
        opacity: .55;
      }

      .cls-6 {
        fill: url(#linear-gradient-4);
      }

      .cls-7 {
        opacity: .48;
      }

      .cls-8 {
        opacity: .35;
      }

      .cls-9 {
        fill: url(#linear-gradient-3);
      }

      .cls-10 {
        opacity: .08;
      }

      .cls-11 {
        opacity: .28;
      }

      .cls-12 {
        opacity: 0;
      }

      .cls-13 {
        fill: url(#linear-gradient);
      }
    </style>
    <linearGradient id="linear-gradient" x1="4.93" y1="6.59" x2="58.12" y2="59.78" gradientUnits="userSpaceOnUse">
      <stop offset="0" stop-color="#c0c1c0"/>
      <stop offset=".2" stop-color="#d4d4d4"/>
      <stop offset=".49" stop-color="#ebeceb"/>
      <stop offset=".77" stop-color="#fafafa"/>
      <stop offset="1" stop-color="#fff"/>
    </linearGradient>
    <linearGradient id="linear-gradient-2" x1="25.91" y1="1.97" x2="37.58" y2="13.63" gradientUnits="userSpaceOnUse">
      <stop offset="0" stop-color="#79949c"/>
      <stop offset="1" stop-color="#b6c7c8"/>
    </linearGradient>
    <linearGradient id="linear-gradient-3" x1="11.35" y1="27.74" x2="31.15" y2="47.55" gradientUnits="userSpaceOnUse">
      <stop offset="0" stop-color="#0594d6"/>
      <stop offset="1" stop-color="#7af5ff"/>
    </linearGradient>
    <linearGradient id="linear-gradient-4" x1="5.76" y1="7.53" x2="57.76" y2="59.53" gradientUnits="userSpaceOnUse">
      <stop offset="0" stop-color="#2c2e2c"/>
      <stop offset=".99" stop-color="#000"/>
    </linearGradient>
  </defs>
  <g id="Layer_1-2" data-name="Layer 1">
    <g>
      <path class="cls-13" d="M62.01,50.42c0,3.92-3.18,7.1-7.1,7.1H8.71c-3.92,0-7.1-3.18-7.1-7.1V16.52c0-3.92,3.18-7.1,7.1-7.1h17.57s-1,5.55,5.62,5.55c6.12,0,5.87-5.55,5.87-5.55h17.14c3.92,0,7.1,3.18,7.1,7.1v33.9Z"/>
      <rect class="cls-2" x="26.75" y="1.93" width="10.11" height="11.86"/>
      <path class="cls-9" d="M10.2,40.13s-2.3,3.79.41,5.55c2.71,1.76,21.18.94,21.86-.41.68-1.35-1.28-10.82-7.92-10.82,2.16-2.57,5.14-8.25,1.08-11.1-4.06-2.84-9.88-.27-10.83,3.11s2.57,7.44,2.57,7.44c0,0-5.82,1.89-7.17,6.23Z"/>
      <g>
        <path class="cls-12" d="M45.86,34.59h11.58c.93,0,1.69-.76,1.69-1.69s-.75-1.69-1.69-1.69h-11.58c-.93,0-1.69.76-1.69,1.69s.76,1.69,1.69,1.69ZM45.86,41.63h11.58c.93,0,1.69-.76,1.69-1.69s-.75-1.69-1.69-1.69h-11.58c-.93,0-1.69.76-1.69,1.69s.76,1.69,1.69,1.69ZM45.86,48.68h11.58c.93,0,1.69-.76,1.69-1.69s-.75-1.69-1.69-1.69h-11.58c-.93,0-1.69.76-1.69,1.69s.76,1.69,1.69,1.69ZM16.28,49.31c-.8-.48-1.84-.22-2.32.58-.48.8-.22,1.84.58,2.32,2.08,1.25,6.31,1.25,11.67,1.25,8.41,0,13.27-.64,13.27-3.9,0-4.75-2.61-8.6-6.96-10.47,1.35-1.46,2.12-3.37,2.12-5.43,0-4.41-3.59-8.01-8-8.01s-8.01,3.59-8.01,8.01c0,1.94.69,3.76,1.91,5.19-2.97,1.09-5.24,3.06-6.5,5.69-.4.84-.05,1.85.79,2.25.84.4,1.85.05,2.25-.79,1.1-2.3,3.39-3.89,6.45-4.49.86-.17,1.52-.81,1.68-1.64.17-.88-.25-1.79-1.06-2.31-1.34-.86-2.14-2.31-2.14-3.9,0-2.55,2.08-4.63,4.63-4.63s4.63,2.07,4.63,4.63c0,1.63-.83,3.11-2.23,3.96-.82.5-1.26,1.39-1.13,2.28.13.86.75,1.52,1.62,1.74,4.05,1.01,6.43,3.75,6.58,7.54-.62.32-2.75.91-9.88.91-4.06,0-8.66,0-9.93-.77ZM40.92,16.48c0,.83,0,1.98-3.75,1.98s-3.75-1.14-3.75-1.98v-5.71c0-.84,0-1.98,3.75-1.98s3.75,1.15,3.75,1.98v5.71ZM59.81,13.35h-15.51v-2.59c0-3.56-2.4-5.36-7.13-5.36s-7.13,1.8-7.13,5.36v2.59h-15.51c-5.03,0-9.12,4.09-9.12,9.12,0,.93.76,1.69,1.69,1.69s1.69-.76,1.69-1.69c0-3.17,2.58-5.74,5.74-5.74h15.52c.12,3.39,2.5,5.11,7.12,5.11s7-1.72,7.12-5.11h15.52c3.17,0,5.74,2.58,5.74,5.74v32.93c0,3.17-2.58,5.75-5.74,5.75H14.53c-3.17,0-5.74-2.58-5.74-5.75v-23.33c0-.93-.76-1.69-1.69-1.69s-1.69.76-1.69,1.69v23.33c0,5.03,4.09,9.12,9.12,9.12h45.28c5.03,0,9.12-4.09,9.12-9.12V22.47c0-5.03-4.09-9.12-9.12-9.12Z"/>
        <path class="cls-10" d="M45.24,33.96h11.58c.93,0,1.69-.76,1.69-1.69s-.75-1.69-1.69-1.69h-11.58c-.93,0-1.69.76-1.69,1.69s.76,1.69,1.69,1.69ZM45.24,41.01h11.58c.93,0,1.69-.76,1.69-1.69s-.75-1.69-1.69-1.69h-11.58c-.93,0-1.69.76-1.69,1.69s.76,1.69,1.69,1.69ZM45.24,48.05h11.58c.93,0,1.69-.76,1.69-1.69s-.75-1.69-1.69-1.69h-11.58c-.93,0-1.69.76-1.69,1.69s.76,1.69,1.69,1.69ZM15.65,48.69c-.8-.48-1.84-.22-2.32.58-.48.8-.22,1.84.58,2.32,2.08,1.25,6.31,1.25,11.67,1.25,8.41,0,13.27-.64,13.27-3.9,0-4.75-2.61-8.6-6.96-10.47,1.35-1.46,2.12-3.37,2.12-5.43,0-4.41-3.59-8.01-8-8.01s-8.01,3.59-8.01,8.01c0,1.94.69,3.76,1.91,5.19-2.97,1.09-5.24,3.06-6.5,5.69-.4.84-.05,1.85.79,2.25.84.4,1.85.05,2.25-.79,1.1-2.3,3.39-3.89,6.45-4.49.86-.17,1.52-.81,1.68-1.64.17-.88-.25-1.79-1.06-2.31-1.34-.86-2.14-2.31-2.14-3.9,0-2.55,2.08-4.63,4.63-4.63s4.63,2.07,4.63,4.63c0,1.63-.83,3.11-2.23,3.96-.82.5-1.26,1.39-1.13,2.28.13.86.75,1.52,1.62,1.74,4.05,1.01,6.43,3.75,6.58,7.54-.62.32-2.75.91-9.88.91-4.06,0-8.66,0-9.93-.77ZM40.29,15.85c0,.83,0,1.98-3.75,1.98s-3.75-1.14-3.75-1.98v-5.71c0-.84,0-1.98,3.75-1.98s3.75,1.15,3.75,1.98v5.71ZM59.18,12.73h-15.51v-2.59c0-3.56-2.4-5.36-7.13-5.36s-7.13,1.8-7.13,5.36v2.59h-15.51c-5.03,0-9.12,4.09-9.12,9.12,0,.93.76,1.69,1.69,1.69s1.69-.76,1.69-1.69c0-3.17,2.58-5.74,5.74-5.74h15.52c.12,3.39,2.5,5.11,7.12,5.11s7-1.72,7.12-5.11h15.52c3.17,0,5.74,2.58,5.74,5.74v32.93c0,3.17-2.58,5.75-5.74,5.75H13.9c-3.17,0-5.74-2.58-5.74-5.75v-23.33c0-.93-.76-1.69-1.69-1.69s-1.69.76-1.69,1.69v23.33c0,5.03,4.09,9.12,9.12,9.12h45.28c5.03,0,9.12-4.09,9.12-9.12V21.85c0-5.03-4.09-9.12-9.12-9.12Z"/>
        <path class="cls-1" d="M44.61,33.34h11.58c.93,0,1.69-.76,1.69-1.69s-.75-1.69-1.69-1.69h-11.58c-.93,0-1.69.76-1.69,1.69s.76,1.69,1.69,1.69ZM44.61,40.38h11.58c.93,0,1.69-.76,1.69-1.69s-.75-1.69-1.69-1.69h-11.58c-.93,0-1.69.76-1.69,1.69s.76,1.69,1.69,1.69ZM44.61,47.43h11.58c.93,0,1.69-.76,1.69-1.69s-.75-1.69-1.69-1.69h-11.58c-.93,0-1.69.76-1.69,1.69s.76,1.69,1.69,1.69ZM15.03,48.06c-.8-.48-1.84-.22-2.32.58-.48.8-.22,1.84.58,2.32,2.08,1.25,6.31,1.25,11.67,1.25,8.41,0,13.27-.64,13.27-3.9,0-4.75-2.61-8.6-6.96-10.47,1.35-1.46,2.12-3.37,2.12-5.43,0-4.41-3.59-8.01-8-8.01s-8.01,3.59-8.01,8.01c0,1.94.69,3.76,1.91,5.19-2.97,1.09-5.24,3.06-6.5,5.69-.4.84-.05,1.85.79,2.25.84.4,1.85.05,2.25-.79,1.1-2.3,3.39-3.89,6.45-4.49.86-.17,1.52-.81,1.68-1.64.17-.88-.25-1.79-1.06-2.31-1.34-.86-2.14-2.31-2.14-3.9,0-2.55,2.08-4.63,4.63-4.63s4.63,2.07,4.63,4.63c0,1.63-.83,3.11-2.23,3.96-.82.5-1.26,1.39-1.13,2.28.13.86.75,1.52,1.62,1.74,4.05,1.01,6.43,3.75,6.58,7.54-.62.32-2.75.91-9.88.91-4.06,0-8.66,0-9.93-.77ZM39.67,15.23c0,.83,0,1.98-3.75,1.98s-3.75-1.14-3.75-1.98v-5.71c0-.84,0-1.98,3.75-1.98s3.75,1.15,3.75,1.98v5.71ZM58.56,12.1h-15.51v-2.59c0-3.56-2.4-5.36-7.13-5.36s-7.13,1.8-7.13,5.36v2.59h-15.51c-5.03,0-9.12,4.09-9.12,9.12,0,.93.76,1.69,1.69,1.69s1.69-.76,1.69-1.69c0-3.17,2.58-5.74,5.74-5.74h15.52c.12,3.39,2.5,5.11,7.12,5.11s7-1.72,7.12-5.11h15.52c3.17,0,5.74,2.58,5.74,5.74v32.93c0,3.17-2.58,5.75-5.74,5.75H13.28c-3.17,0-5.74-2.58-5.74-5.75v-23.33c0-.93-.76-1.69-1.69-1.69s-1.69.76-1.69,1.69v23.33c0,5.03,4.09,9.12,9.12,9.12h45.28c5.03,0,9.12-4.09,9.12-9.12V21.22c0-5.03-4.09-9.12-9.12-9.12Z"/>
        <path class="cls-3" d="M43.99,32.71h11.58c.93,0,1.69-.76,1.69-1.69s-.75-1.69-1.69-1.69h-11.58c-.93,0-1.69.76-1.69,1.69s.76,1.69,1.69,1.69ZM43.99,39.76h11.58c.93,0,1.69-.76,1.69-1.69s-.75-1.69-1.69-1.69h-11.58c-.93,0-1.69.76-1.69,1.69s.76,1.69,1.69,1.69ZM43.99,46.8h11.58c.93,0,1.69-.76,1.69-1.69s-.75-1.69-1.69-1.69h-11.58c-.93,0-1.69.76-1.69,1.69s.76,1.69,1.69,1.69ZM14.4,47.44c-.8-.48-1.84-.22-2.32.58-.48.8-.22,1.84.58,2.32,2.08,1.25,6.31,1.25,11.67,1.25,8.41,0,13.27-.64,13.27-3.9,0-4.75-2.61-8.6-6.96-10.47,1.35-1.46,2.12-3.37,2.12-5.43,0-4.41-3.59-8.01-8-8.01s-8.01,3.59-8.01,8.01c0,1.94.69,3.76,1.91,5.19-2.97,1.09-5.24,3.06-6.5,5.69-.4.84-.05,1.85.79,2.25.84.4,1.85.05,2.25-.79,1.1-2.3,3.39-3.89,6.45-4.49.86-.17,1.52-.81,1.68-1.64.17-.88-.25-1.79-1.06-2.31-1.34-.86-2.14-2.31-2.14-3.9,0-2.55,2.08-4.63,4.63-4.63s4.63,2.07,4.63,4.63c0,1.63-.83,3.11-2.23,3.96-.82.5-1.26,1.39-1.13,2.28.13.86.75,1.52,1.62,1.74,4.05,1.01,6.43,3.75,6.58,7.54-.62.32-2.75.91-9.88.91-4.06,0-8.66,0-9.93-.77ZM39.04,14.6c0,.83,0,1.98-3.75,1.98s-3.75-1.14-3.75-1.98v-5.71c0-.84,0-1.98,3.75-1.98s3.75,1.15,3.75,1.98v5.71ZM57.93,11.48h-15.51v-2.59c0-3.56-2.4-5.36-7.13-5.36s-7.13,1.8-7.13,5.36v2.59h-15.51c-5.03,0-9.12,4.09-9.12,9.12,0,.93.76,1.69,1.69,1.69s1.69-.76,1.69-1.69c0-3.17,2.58-5.74,5.74-5.74h15.52c.12,3.39,2.5,5.11,7.12,5.11s7-1.72,7.12-5.11h15.52c3.17,0,5.74,2.58,5.74,5.74v32.93c0,3.17-2.58,5.75-5.74,5.75H12.65c-3.17,0-5.74-2.58-5.74-5.75v-23.33c0-.93-.76-1.69-1.69-1.69s-1.69.76-1.69,1.69v23.33c0,5.03,4.09,9.12,9.12,9.12h45.28c5.03,0,9.12-4.09,9.12-9.12V20.6c0-5.03-4.09-9.12-9.12-9.12Z"/>
        <path class="cls-11" d="M43.36,32.09h11.58c.93,0,1.69-.76,1.69-1.69s-.75-1.69-1.69-1.69h-11.58c-.93,0-1.69.76-1.69,1.69s.76,1.69,1.69,1.69ZM43.36,39.13h11.58c.93,0,1.69-.76,1.69-1.69s-.75-1.69-1.69-1.69h-11.58c-.93,0-1.69.76-1.69,1.69s.76,1.69,1.69,1.69ZM43.36,46.18h11.58c.93,0,1.69-.76,1.69-1.69s-.75-1.69-1.69-1.69h-11.58c-.93,0-1.69.76-1.69,1.69s.76,1.69,1.69,1.69ZM13.78,46.81c-.8-.48-1.84-.22-2.32.58-.48.8-.22,1.84.58,2.32,2.08,1.25,6.31,1.25,11.67,1.25,8.41,0,13.27-.64,13.27-3.9,0-4.75-2.61-8.6-6.96-10.47,1.35-1.46,2.12-3.37,2.12-5.43,0-4.41-3.59-8.01-8-8.01s-8.01,3.59-8.01,8.01c0,1.94.69,3.76,1.91,5.19-2.97,1.09-5.24,3.06-6.5,5.69-.4.84-.05,1.85.79,2.25.84.4,1.85.05,2.25-.79,1.1-2.3,3.39-3.89,6.45-4.49.86-.17,1.52-.81,1.68-1.64.17-.88-.25-1.79-1.06-2.31-1.34-.86-2.14-2.31-2.14-3.9,0-2.55,2.08-4.63,4.63-4.63s4.63,2.07,4.63,4.63c0,1.63-.83,3.11-2.23,3.96-.82.5-1.26,1.39-1.13,2.28.13.86.75,1.52,1.62,1.74,4.05,1.01,6.43,3.75,6.58,7.54-.62.32-2.75.91-9.88.91-4.06,0-8.66,0-9.93-.77ZM38.42,13.98c0,.83,0,1.98-3.75,1.98s-3.75-1.14-3.75-1.98v-5.71c0-.84,0-1.98,3.75-1.98s3.75,1.15,3.75,1.98v5.71ZM57.31,10.85h-15.51v-2.59c0-3.56-2.4-5.36-7.13-5.36s-7.13,1.8-7.13,5.36v2.59h-15.51c-5.03,0-9.12,4.09-9.12,9.12,0,.93.76,1.69,1.69,1.69s1.69-.76,1.69-1.69c0-3.17,2.58-5.74,5.74-5.74h15.52c.12,3.39,2.5,5.11,7.12,5.11s7-1.72,7.12-5.11h15.52c3.17,0,5.74,2.58,5.74,5.74v32.93c0,3.17-2.58,5.75-5.74,5.75H12.03c-3.17,0-5.74-2.58-5.74-5.75v-23.33c0-.93-.76-1.69-1.69-1.69s-1.69.76-1.69,1.69v23.33c0,5.03,4.09,9.12,9.12,9.12h45.28c5.03,0,9.12-4.09,9.12-9.12V19.97c0-5.03-4.09-9.12-9.12-9.12Z"/>
        <path class="cls-8" d="M42.74,31.46h11.58c.93,0,1.69-.76,1.69-1.69s-.75-1.69-1.69-1.69h-11.58c-.93,0-1.69.76-1.69,1.69s.76,1.69,1.69,1.69ZM42.74,38.51h11.58c.93,0,1.69-.76,1.69-1.69s-.75-1.69-1.69-1.69h-11.58c-.93,0-1.69.76-1.69,1.69s.76,1.69,1.69,1.69ZM42.74,45.55h11.58c.93,0,1.69-.76,1.69-1.69s-.75-1.69-1.69-1.69h-11.58c-.93,0-1.69.76-1.69,1.69s.76,1.69,1.69,1.69ZM13.15,46.19c-.8-.48-1.84-.22-2.32.58-.48.8-.22,1.84.58,2.32,2.08,1.25,6.31,1.25,11.67,1.25,8.41,0,13.27-.64,13.27-3.9,0-4.75-2.61-8.6-6.96-10.47,1.35-1.46,2.12-3.37,2.12-5.43,0-4.41-3.59-8.01-8-8.01s-8.01,3.59-8.01,8.01c0,1.94.69,3.76,1.91,5.19-2.97,1.09-5.24,3.06-6.5,5.69-.4.84-.05,1.85.79,2.25.84.4,1.85.05,2.25-.79,1.1-2.3,3.39-3.89,6.45-4.49.86-.17,1.52-.81,1.68-1.64.17-.88-.25-1.79-1.06-2.31-1.34-.86-2.14-2.31-2.14-3.9,0-2.55,2.08-4.63,4.63-4.63s4.63,2.07,4.63,4.63c0,1.63-.83,3.11-2.23,3.96-.82.5-1.26,1.39-1.13,2.28.13.86.75,1.52,1.62,1.74,4.05,1.01,6.43,3.75,6.58,7.54-.62.32-2.75.91-9.88.91-4.06,0-8.66,0-9.93-.77ZM37.79,13.35c0,.83,0,1.98-3.75,1.98s-3.75-1.14-3.75-1.98v-5.71c0-.84,0-1.98,3.75-1.98s3.75,1.15,3.75,1.98v5.71ZM56.68,10.23h-15.51v-2.59c0-3.56-2.4-5.36-7.13-5.36s-7.13,1.8-7.13,5.36v2.59h-15.51c-5.03,0-9.12,4.09-9.12,9.12,0,.93.76,1.69,1.69,1.69s1.69-.76,1.69-1.69c0-3.17,2.58-5.74,5.74-5.74h15.52c.12,3.39,2.5,5.11,7.12,5.11s7-1.72,7.12-5.11h15.52c3.17,0,5.74,2.58,5.74,5.74v32.93c0,3.17-2.58,5.75-5.74,5.75H11.4c-3.17,0-5.74-2.58-5.74-5.75v-23.33c0-.93-.76-1.69-1.69-1.69s-1.69.76-1.69,1.69v23.33c0,5.03,4.09,9.12,9.12,9.12h45.28c5.03,0,9.12-4.09,9.12-9.12V19.35c0-5.03-4.09-9.12-9.12-9.12Z"/>
        <path class="cls-4" d="M42.11,30.84h11.58c.93,0,1.69-.76,1.69-1.69s-.75-1.69-1.69-1.69h-11.58c-.93,0-1.69.76-1.69,1.69s.76,1.69,1.69,1.69ZM42.11,37.88h11.58c.93,0,1.69-.76,1.69-1.69s-.75-1.69-1.69-1.69h-11.58c-.93,0-1.69.76-1.69,1.69s.76,1.69,1.69,1.69ZM42.11,44.93h11.58c.93,0,1.69-.76,1.69-1.69s-.75-1.69-1.69-1.69h-11.58c-.93,0-1.69.76-1.69,1.69s.76,1.69,1.69,1.69ZM12.53,45.56c-.8-.48-1.84-.22-2.32.58-.48.8-.22,1.84.58,2.32,2.08,1.25,6.31,1.25,11.67,1.25,8.41,0,13.27-.64,13.27-3.9,0-4.75-2.61-8.6-6.96-10.47,1.35-1.46,2.12-3.37,2.12-5.43,0-4.41-3.59-8.01-8-8.01s-8.01,3.59-8.01,8.01c0,1.94.69,3.76,1.91,5.19-2.97,1.09-5.24,3.06-6.5,5.69-.4.84-.05,1.85.79,2.25.84.4,1.85.05,2.25-.79,1.1-2.3,3.39-3.89,6.45-4.49.86-.17,1.52-.81,1.68-1.64.17-.88-.25-1.79-1.06-2.31-1.34-.86-2.14-2.31-2.14-3.9,0-2.55,2.08-4.63,4.63-4.63s4.63,2.07,4.63,4.63c0,1.63-.83,3.11-2.23,3.96-.82.5-1.26,1.39-1.13,2.28.13.86.75,1.52,1.62,1.74,4.05,1.01,6.43,3.75,6.58,7.54-.62.32-2.75.91-9.88.91-4.06,0-8.66,0-9.93-.77ZM37.17,12.73c0,.83,0,1.98-3.75,1.98s-3.75-1.14-3.75-1.98v-5.71c0-.84,0-1.98,3.75-1.98s3.75,1.15,3.75,1.98v5.71ZM56.06,9.6h-15.51v-2.59c0-3.56-2.4-5.36-7.13-5.36s-7.13,1.8-7.13,5.36v2.59h-15.51c-5.03,0-9.12,4.09-9.12,9.12,0,.93.76,1.69,1.69,1.69s1.69-.76,1.69-1.69c0-3.17,2.58-5.74,5.74-5.74h15.52c.12,3.39,2.5,5.11,7.12,5.11s7-1.72,7.12-5.11h15.52c3.17,0,5.74,2.58,5.74,5.74v32.93c0,3.17-2.58,5.75-5.74,5.75H10.78c-3.17,0-5.74-2.58-5.74-5.75v-23.33c0-.93-.76-1.69-1.69-1.69s-1.69.76-1.69,1.69v23.33c0,5.03,4.09,9.12,9.12,9.12h45.28c5.03,0,9.12-4.09,9.12-9.12V18.72c0-5.03-4.09-9.12-9.12-9.12Z"/>
        <path class="cls-7" d="M41.49,30.21h11.58c.93,0,1.69-.76,1.69-1.69s-.75-1.69-1.69-1.69h-11.58c-.93,0-1.69.76-1.69,1.69s.76,1.69,1.69,1.69ZM41.49,37.26h11.58c.93,0,1.69-.76,1.69-1.69s-.75-1.69-1.69-1.69h-11.58c-.93,0-1.69.76-1.69,1.69s.76,1.69,1.69,1.69ZM41.49,44.3h11.58c.93,0,1.69-.76,1.69-1.69s-.75-1.69-1.69-1.69h-11.58c-.93,0-1.69.76-1.69,1.69s.76,1.69,1.69,1.69ZM11.9,44.94c-.8-.48-1.84-.22-2.32.58-.48.8-.22,1.84.58,2.32,2.08,1.25,6.31,1.25,11.67,1.25,8.41,0,13.27-.64,13.27-3.9,0-4.75-2.61-8.6-6.96-10.47,1.35-1.46,2.12-3.37,2.12-5.43,0-4.41-3.59-8.01-8-8.01s-8.01,3.59-8.01,8.01c0,1.94.69,3.76,1.91,5.19-2.97,1.09-5.24,3.06-6.5,5.69-.4.84-.05,1.85.79,2.25.84.4,1.85.05,2.25-.79,1.1-2.3,3.39-3.89,6.45-4.49.86-.17,1.52-.81,1.68-1.64.17-.88-.25-1.79-1.06-2.31-1.34-.86-2.14-2.31-2.14-3.9,0-2.55,2.08-4.63,4.63-4.63s4.63,2.07,4.63,4.63c0,1.63-.83,3.11-2.23,3.96-.82.5-1.26,1.39-1.13,2.28.13.86.75,1.52,1.62,1.74,4.05,1.01,6.43,3.75,6.58,7.54-.62.32-2.75.91-9.88.91-4.06,0-8.66,0-9.93-.77ZM36.54,12.1c0,.83,0,1.98-3.75,1.98s-3.75-1.14-3.75-1.98v-5.71c0-.84,0-1.98,3.75-1.98s3.75,1.15,3.75,1.98v5.71ZM55.43,8.98h-15.51v-2.59c0-3.56-2.4-5.36-7.13-5.36s-7.13,1.8-7.13,5.36v2.59h-15.51c-5.03,0-9.12,4.09-9.12,9.12,0,.93.76,1.69,1.69,1.69s1.69-.76,1.69-1.69c0-3.17,2.58-5.74,5.74-5.74h15.52c.12,3.39,2.5,5.11,7.12,5.11s7-1.72,7.12-5.11h15.52c3.17,0,5.74,2.58,5.74,5.74v32.93c0,3.17-2.58,5.75-5.74,5.75H10.15c-3.17,0-5.74-2.58-5.74-5.75v-23.33c0-.93-.76-1.69-1.69-1.69s-1.69.76-1.69,1.69v23.33c0,5.03,4.09,9.12,9.12,9.12h45.28c5.03,0,9.12-4.09,9.12-9.12V18.1c0-5.03-4.09-9.12-9.12-9.12Z"/>
        <path class="cls-5" d="M40.86,29.59h11.58c.93,0,1.69-.76,1.69-1.69s-.75-1.69-1.69-1.69h-11.58c-.93,0-1.69.76-1.69,1.69s.76,1.69,1.69,1.69ZM40.86,36.63h11.58c.93,0,1.69-.76,1.69-1.69s-.75-1.69-1.69-1.69h-11.58c-.93,0-1.69.76-1.69,1.69s.76,1.69,1.69,1.69ZM40.86,43.68h11.58c.93,0,1.69-.76,1.69-1.69s-.75-1.69-1.69-1.69h-11.58c-.93,0-1.69.76-1.69,1.69s.76,1.69,1.69,1.69ZM11.28,44.31c-.8-.48-1.84-.22-2.32.58-.48.8-.22,1.84.58,2.32,2.08,1.25,6.31,1.25,11.67,1.25,8.41,0,13.27-.64,13.27-3.9,0-4.75-2.61-8.6-6.96-10.47,1.35-1.46,2.12-3.37,2.12-5.43,0-4.41-3.59-8.01-8-8.01s-8.01,3.59-8.01,8.01c0,1.94.69,3.76,1.91,5.19-2.97,1.09-5.24,3.06-6.5,5.69-.4.84-.05,1.85.79,2.25.84.4,1.85.05,2.25-.79,1.1-2.3,3.39-3.89,6.45-4.49.86-.17,1.52-.81,1.68-1.64.17-.88-.25-1.79-1.06-2.31-1.34-.86-2.14-2.31-2.14-3.9,0-2.55,2.08-4.63,4.63-4.63s4.63,2.07,4.63,4.63c0,1.63-.83,3.11-2.23,3.96-.82.5-1.26,1.39-1.13,2.28.13.86.75,1.52,1.62,1.74,4.05,1.01,6.43,3.75,6.58,7.54-.62.32-2.75.91-9.88.91-4.06,0-8.66,0-9.93-.77ZM35.92,11.48c0,.83,0,1.98-3.75,1.98s-3.75-1.14-3.75-1.98v-5.71c0-.84,0-1.98,3.75-1.98s3.75,1.15,3.75,1.98v5.71ZM54.81,8.35h-15.51v-2.59c0-3.56-2.4-5.36-7.13-5.36s-7.13,1.8-7.13,5.36v2.59h-15.51C4.5,8.35.41,12.44.41,17.47c0,.93.76,1.69,1.69,1.69s1.69-.76,1.69-1.69c0-3.17,2.58-5.74,5.74-5.74h15.52c.12,3.39,2.5,5.11,7.12,5.11s7-1.72,7.12-5.11h15.52c3.17,0,5.74,2.58,5.74,5.74v32.93c0,3.17-2.58,5.75-5.74,5.75H9.53c-3.17,0-5.74-2.58-5.74-5.75v-23.33c0-.93-.76-1.69-1.69-1.69s-1.69.76-1.69,1.69v23.33c0,5.03,4.09,9.12,9.12,9.12h45.28c5.03,0,9.12-4.09,9.12-9.12V17.47c0-5.03-4.09-9.12-9.12-9.12Z"/>
      </g>
      <path class="cls-6" d="M10.87,43.91c-.8-.48-1.84-.22-2.32.58-.48.8-.22,1.84.58,2.32,2.08,1.25,6.31,1.25,11.67,1.25,8.41,0,13.27-.64,13.27-3.9,0-4.75-2.61-8.6-6.96-10.47,1.35-1.46,2.12-3.37,2.12-5.43,0-4.41-3.59-8.01-8-8.01s-8.01,3.59-8.01,8.01c0,1.94.69,3.76,1.91,5.18-2.97,1.09-5.24,3.06-6.5,5.69-.4.84-.05,1.85.79,2.25.84.41,1.85.05,2.25-.79,1.1-2.3,3.39-3.89,6.45-4.49.86-.17,1.52-.81,1.68-1.64.17-.88-.25-1.79-1.06-2.31-1.34-.85-2.14-2.31-2.14-3.9,0-2.55,2.08-4.63,4.63-4.63s4.63,2.08,4.63,4.63c0,1.63-.83,3.11-2.23,3.96-.82.5-1.26,1.39-1.13,2.28.13.86.75,1.52,1.62,1.74,4.05,1.01,6.43,3.75,6.58,7.54-.62.32-2.75.91-9.88.91-4.06,0-8.66,0-9.93-.77ZM54.4,7.95h-15.51v-2.59c0-3.56-2.4-5.36-7.13-5.36s-7.13,1.8-7.13,5.36v2.59h-15.51C4.09,7.95,0,12.04,0,17.07c0,.93.76,1.69,1.69,1.69s1.69-.76,1.69-1.69c0-3.17,2.58-5.74,5.74-5.74h15.52c.12,3.39,2.5,5.11,7.12,5.11s7-1.72,7.12-5.11h15.52c3.17,0,5.74,2.58,5.74,5.74v32.93c0,3.17-2.58,5.75-5.74,5.75H9.12c-3.17,0-5.74-2.58-5.74-5.75v-23.33c0-.93-.76-1.69-1.69-1.69s-1.69.76-1.69,1.69v23.33c0,5.03,4.09,9.12,9.12,9.12h45.28c5.03,0,9.12-4.09,9.12-9.12V17.07c0-5.03-4.09-9.12-9.12-9.12ZM35.51,11.07c0,.83,0,1.98-3.75,1.98s-3.75-1.14-3.75-1.98v-5.71c0-.84,0-1.98,3.75-1.98s3.75,1.15,3.75,1.98v5.71ZM40.46,29.18h11.58c.93,0,1.69-.76,1.69-1.69s-.75-1.69-1.69-1.69h-11.58c-.93,0-1.69.76-1.69,1.69s.76,1.69,1.69,1.69ZM40.46,36.23h11.58c.93,0,1.69-.76,1.69-1.69s-.75-1.69-1.69-1.69h-11.58c-.93,0-1.69.76-1.69,1.69s.76,1.69,1.69,1.69ZM40.46,43.27h11.58c.93,0,1.69-.76,1.69-1.69s-.75-1.69-1.69-1.69h-11.58c-.93,0-1.69.76-1.69,1.69s.76,1.69,1.69,1.69Z"/>
    </g>
  </g>
</svg>