<?xml version="1.0" encoding="UTF-8"?>
<svg id="Layer_2" data-name="Layer 2" xmlns="http://www.w3.org/2000/svg" viewBox="0 0 27.36 14.37">
  <g id="_1" data-name="1">
    <path d="M2.43,4.88h.03L7.26.56c.74-.67,1.99-.75,2.78-.19h0c.79.58.82,1.57.1,2.24l-2.53,2.26h12.16l-2.53-2.26c-.73-.67-.69-1.67.1-2.24h0c.79-.56,2.04-.48,2.77.19l4.79,4.32h.02c.67,0,1.28.27,1.72.71.44.44.72,1.05.72,1.72v4.61c0,.67-.28,1.28-.72,1.72h0c-.44.45-1.05.72-1.72.72h-9.23l-2.1-2.11-2.32,2.11H2.43c-.68,0-1.29-.28-1.73-.71-.44-.44-.7-1.05-.7-1.73v-4.61c0-.67.26-1.28.7-1.72h.01c.44-.44,1.05-.71,1.72-.71h0ZM16.68,6.68h7.07c.57,0,1.04.46,1.04,1.04v3.8c0,.57-.47,1.04-1.04,1.04h-7.07c-.56,0-1.03-.47-1.03-1.04v-3.8c0-.58.46-1.04,1.03-1.04h0ZM4.4,6.7h5.47c.41,0,.77.17,1.03.43h0c.25.26.42.62.42,1.01v2.95c0,.39-.17.75-.42,1.01h0v.02c-.27.25-.63.41-1.03.41h-5.47c-.39,0-.75-.16-1.02-.43v.02c-.26-.26-.42-.62-.42-1.02v-2.95c0-.4.15-.75.42-1.01.26-.27.62-.43,1.02-.43h0ZM9.87,7.99h-5.47s-.09.01-.11.05c-.02.03-.05.06-.05.11v2.95s.02.08.05.12h0s.07.04.11.04h5.47c.05,0,.08-.02.12-.04h0s.05-.08.05-.12v-2.95s-.02-.08-.05-.11h0s-.07-.05-.12-.05h0ZM24.92,6.15H2.43c-.32,0-.61.13-.82.35h0c-.2.2-.33.49-.33.81v4.61c0,.32.13.61.33.82.21.2.5.33.82.33h8.84l2.28-2.08,2.1,2.08h9.27c.31,0,.61-.13.81-.33.21-.22.33-.5.33-.82v-4.61c0-.33-.12-.61-.33-.81-.21-.22-.5-.35-.81-.35h0Z"/>
  </g>
</svg>