<?xml version="1.0" encoding="UTF-8"?>
<svg xmlns="http://www.w3.org/2000/svg" xmlns:xlink="http://www.w3.org/1999/xlink" viewBox="0 0 70.49 68.21">
  <defs>
    <style>
      .cls-1, .cls-2 {
        fill: #4d4d4d;
      }

      .cls-2, .cls-3, .cls-4, .cls-5 {
        fill-rule: evenodd;
      }

      .cls-3, .cls-5 {
        fill: #fff;
      }

      .cls-4 {
        fill: url(#linear-gradient);
        stroke: #999;
      }

      .cls-4, .cls-5 {
        stroke-miterlimit: 10;
      }

      .cls-6 {
        isolation: isolate;
      }

      .cls-5 {
        mix-blend-mode: soft-light;
        opacity: .8;
        stroke: #fff;
      }
    </style>
    <linearGradient id="linear-gradient" x1="35.24" y1="77.73" x2="35.24" y2=".03" gradientUnits="userSpaceOnUse">
      <stop offset="0" stop-color="#e5e2df"/>
      <stop offset="0" stop-color="#f1efed"/>
      <stop offset="0" stop-color="#fff"/>
      <stop offset=".13" stop-color="#f0f0f0"/>
      <stop offset=".37" stop-color="#c9cacb"/>
      <stop offset=".52" stop-color="#adaeb0"/>
      <stop offset=".67" stop-color="#a3a4a6"/>
      <stop offset=".91" stop-color="#8b8b8c"/>
      <stop offset="1" stop-color="gray"/>
    </linearGradient>
  </defs>
  <g class="cls-6">
    <g id="Layer_2" data-name="Layer 2">
      <g id="Objects">
        <g>
          <g>
            <path class="cls-4" d="M2.69.5h65.12c1.2,0,2.19.98,2.19,2.19v62.84c0,1.2-.99,2.18-2.19,2.18H2.69c-1.2,0-2.19-.98-2.19-2.18V2.69C.5,1.48,1.48.5,2.69.5h0Z"/>
            <path class="cls-2" d="M14.17,54.43h42.15c.99,0,1.8.81,1.8,1.8l.11,10.1H12.48l-.11-10.1c0-.99.81-1.8,1.8-1.8Z"/>
            <path class="cls-1" d="M14.17,16.41h42.15c.99,0,1.8.81,1.8,1.8v31.79c0,.99-.81,1.8-1.8,1.8H14.17c-.99,0-1.8-.81-1.8-1.8v-31.79c0-.99.81-1.8,1.8-1.8Z"/>
            <path class="cls-2" d="M58.12,1.71v10.27c0,.99-.81,1.8-1.8,1.8H14.17c-.99,0-1.8-.81-1.8-1.8V1.71h45.75Z"/>
          </g>
          <path class="cls-5" d="M2.69.5h65.12c1.2,0,2.19.98,2.19,2.19L2.69,67.71c-1.2,0-2.19-.98-2.19-2.18V2.69C.5,1.48,1.48.5,2.69.5h0Z"/>
          <path class="cls-3" d="M4.51,2.73c-.38,0-.69.3-.69.67v6.35c0,.37.31.67.69.67h4.49c.38,0,.69-.3.69-.67V3.4c0-.37-.31-.67-.69-.67h-4.49Z"/>
          <path class="cls-3" d="M61.49,2.73c-.38,0-.69.3-.69.67v6.35c0,.37.31.67.69.67h4.49c.38,0,.69-.3.69-.67V3.4c0-.37-.31-.67-.69-.67h-4.49Z"/>
          <path class="cls-3" d="M61.49,13.59c-.38,0-.69.3-.69.67v6.35c0,.37.31.67.69.67h4.49c.38,0,.69-.3.69-.67v-6.35c0-.37-.31-.67-.69-.67h-4.49Z"/>
          <path class="cls-3" d="M61.49,24.45c-.38,0-.69.3-.69.67v6.35c0,.37.31.67.69.67h4.49c.38,0,.69-.3.69-.67v-6.35c0-.37-.31-.67-.69-.67h-4.49Z"/>
          <path class="cls-3" d="M61.49,35.31c-.38,0-.69.3-.69.67v6.35c0,.37.31.67.69.67h4.49c.38,0,.69-.3.69-.67v-6.35c0-.37-.31-.67-.69-.67h-4.49Z"/>
          <path class="cls-3" d="M61.49,46.17c-.38,0-.69.3-.69.67v6.35c0,.37.31.67.69.67h4.49c.38,0,.69-.3.69-.67v-6.35c0-.37-.31-.67-.69-.67h-4.49Z"/>
          <path class="cls-3" d="M61.49,57.03c-.38,0-.69.3-.69.67v6.35c0,.37.31.67.69.67h4.49c.38,0,.69-.3.69-.67v-6.35c0-.37-.31-.67-.69-.67h-4.49Z"/>
          <path class="cls-3" d="M4.51,13.59c-.38,0-.69.3-.69.67v6.35c0,.37.31.67.69.67h4.49c.38,0,.69-.3.69-.67v-6.35c0-.37-.31-.67-.69-.67h-4.49Z"/>
          <path class="cls-3" d="M4.51,24.45c-.38,0-.69.3-.69.67v6.35c0,.37.31.67.69.67h4.49c.38,0,.69-.3.69-.67v-6.35c0-.37-.31-.67-.69-.67h-4.49Z"/>
          <path class="cls-3" d="M4.51,35.31c-.38,0-.69.3-.69.67v6.35c0,.37.31.67.69.67h4.49c.38,0,.69-.3.69-.67v-6.35c0-.37-.31-.67-.69-.67h-4.49Z"/>
          <path class="cls-3" d="M4.51,46.17c-.38,0-.69.3-.69.67v6.35c0,.37.31.67.69.67h4.49c.38,0,.69-.3.69-.67v-6.35c0-.37-.31-.67-.69-.67h-4.49Z"/>
          <path class="cls-3" d="M4.51,57.03c-.38,0-.69.3-.69.67v6.35c0,.37.31.67.69.67h4.49c.38,0,.69-.3.69-.67v-6.35c0-.37-.31-.67-.69-.67h-4.49Z"/>
        </g>
      </g>
    </g>
  </g>
</svg>