<?xml version="1.0" encoding="UTF-8"?>
<svg id="Layer_2" data-name="Layer 2" xmlns="http://www.w3.org/2000/svg" viewBox="0 0 27.36 25.8">
  <defs>
    <style>
      .cls-1 {
        fill-rule: evenodd;
      }
    </style>
  </defs>
  <g id="_1" data-name="1">
    <path class="cls-1" d="M1.65,6.8h22.85c.46,0,.87.19,1.18.48.29.3.48.72.48,1.17v3.5h-7.16c-.58,0-1.12.23-1.51.62-.38.38-.62.93-.62,1.51v4.44c0,.58.24,1.12.62,1.5.39.39.93.62,1.51.62h7.16v3.5c0,.46-.19.87-.48,1.16-.31.3-.72.49-1.18.49H1.65c-.46,0-.87-.18-1.16-.49-.31-.29-.48-.7-.48-1.16v-15.69c0-.45.18-.87.48-1.17.29-.29.7-.48,1.16-.48h0ZM18.99,13.15h7.42c.51,0,.94.43.94.94v4.44c0,.51-.43.92-.94.92h-7.42c-.51,0-.94-.41-.94-.92v-4.44c0-.51.43-.94.94-.94h0ZM20.71,14.64c.91,0,1.66.75,1.66,1.66s-.75,1.67-1.66,1.67-1.67-.75-1.67-1.67.75-1.66,1.67-1.66h0ZM3.24,5.63C6.51,3.76,9.79,1.89,13.06.03c.3-.07.55,0,.75.22.4.69.82,1.39,1.22,2.09-3.93,1.1-7.87,2.2-11.79,3.29h0ZM5.51,5.83c5.1-1.28,10.2-2.57,15.32-3.85.43,0,.75.2.93.56.27,1.09.57,2.19.85,3.27-5.71.02-11.4.02-17.1.02h0Z"/>
  </g>
</svg>