<?xml version="1.0" encoding="UTF-8"?>
<svg id="Layer_2" data-name="Layer 2" xmlns="http://www.w3.org/2000/svg" xmlns:xlink="http://www.w3.org/1999/xlink" viewBox="0 0 72.07 76.26">
  <defs>
    <style>
      .cls-1 {
        opacity: .14;
      }

      .cls-2 {
        fill: url(#linear-gradient-2);
      }

      .cls-3 {
        opacity: .21;
      }

      .cls-4 {
        opacity: .42;
      }

      .cls-5 {
        opacity: .55;
      }

      .cls-6 {
        opacity: .48;
      }

      .cls-7 {
        opacity: .35;
      }

      .cls-8 {
        opacity: .08;
      }

      .cls-9 {
        opacity: .28;
      }

      .cls-10 {
        opacity: 0;
      }

      .cls-11 {
        fill: url(#linear-gradient);
      }
    </style>
    <linearGradient id="linear-gradient" x1="8.38" y1="21.63" x2="58.88" y2="72.14" gradientUnits="userSpaceOnUse">
      <stop offset="0" stop-color="#f2a300"/>
      <stop offset="1" stop-color="#ffff36"/>
    </linearGradient>
    <linearGradient id="linear-gradient-2" x1="8.89" y1="22.31" x2="57.78" y2="71.19" gradientUnits="userSpaceOnUse">
      <stop offset="0" stop-color="#2c2e2c"/>
      <stop offset=".99" stop-color="#000"/>
    </linearGradient>
  </defs>
  <g id="Layer_1-2" data-name="Layer 1">
    <g>
      <path class="cls-11" d="M6.98,54.12l-4.97,7.46h31.76s.18,7.41,7.75,7.41c5.86,0,7.94-7.41,7.94-7.41h15.02s-7.61-8.39-7.61-20.51-2.95-30.92-23.77-30.92-23.15,22.84-23.46,30.15-2.64,13.83-2.64,13.83Z"/>
      <g>
        <path class="cls-10" d="M46.6,72.89c-2.6,0-4.79-1.78-5.42-4.19h10.83c-.63,2.4-2.82,4.19-5.42,4.19ZM38.77,13.73h-.06c-.6,0-1.19.03-1.76.06v-3.21c0-.99.8-1.79,1.79-1.79s1.79.8,1.79,1.79v3.21c-.58-.03-1.16-.06-1.76-.06ZM71.63,65.87c-3.46-3.81-7.44-9.44-7.44-19.3,0-7.1-1.57-29-20.28-32.39v-3.61c0-2.85-2.32-5.17-5.17-5.17s-5.17,2.32-5.17,5.17v3.61c-18.71,3.39-20.29,25.29-20.29,32.39,0,4.44-.84,8.51-2.51,12.09-.39.85-.03,1.85.82,2.25.85.39,1.85.02,2.24-.82,1.87-4.03,2.82-8.58,2.82-13.52,0-8.85,2.15-29.44,22.01-29.47h.13c19.87.02,22.01,20.62,22.01,29.47s2.97,14.72,5.97,18.75H7.1c-.93,0-1.69.76-1.69,1.69s.76,1.69,1.69,1.69h30.64c.69,4.28,4.39,7.56,8.86,7.56s8.18-3.28,8.86-7.56h14.92c.67,0,1.27-.39,1.55-1,.27-.61.15-1.32-.3-1.82Z"/>
        <path class="cls-8" d="M45.97,72.26c-2.6,0-4.79-1.78-5.42-4.19h10.83c-.63,2.4-2.82,4.19-5.42,4.19ZM38.14,13.1h-.06c-.6,0-1.19.03-1.76.06v-3.21c0-.99.8-1.79,1.79-1.79s1.79.8,1.79,1.79v3.21c-.58-.03-1.16-.06-1.76-.06ZM71.01,65.25c-3.46-3.81-7.44-9.44-7.44-19.3,0-7.1-1.57-29-20.28-32.39v-3.61c0-2.85-2.32-5.17-5.17-5.17s-5.17,2.32-5.17,5.17v3.61c-18.71,3.39-20.29,25.29-20.29,32.39,0,4.44-.84,8.51-2.51,12.09-.39.85-.03,1.85.82,2.25.85.39,1.85.02,2.24-.82,1.87-4.03,2.82-8.58,2.82-13.52,0-8.85,2.15-29.44,22.01-29.47h.13c19.87.02,22.01,20.62,22.01,29.47s2.97,14.72,5.97,18.75H6.47c-.93,0-1.69.76-1.69,1.69s.76,1.69,1.69,1.69h30.64c.69,4.28,4.39,7.56,8.86,7.56s8.18-3.28,8.86-7.56h14.92c.67,0,1.27-.39,1.55-1,.27-.61.15-1.32-.3-1.82Z"/>
        <path class="cls-1" d="M45.35,71.64c-2.6,0-4.79-1.78-5.42-4.19h10.83c-.63,2.4-2.82,4.19-5.42,4.19ZM37.52,12.48h-.06c-.6,0-1.19.03-1.76.06v-3.21c0-.99.8-1.79,1.79-1.79s1.79.8,1.79,1.79v3.21c-.58-.03-1.16-.06-1.76-.06ZM70.38,64.62c-3.46-3.81-7.44-9.44-7.44-19.3,0-7.1-1.57-29-20.28-32.39v-3.61c0-2.85-2.32-5.17-5.17-5.17s-5.17,2.32-5.17,5.17v3.61c-18.71,3.39-20.29,25.29-20.29,32.39,0,4.44-.84,8.51-2.51,12.09-.39.85-.03,1.85.82,2.25.85.39,1.85.02,2.24-.82,1.87-4.03,2.82-8.58,2.82-13.52,0-8.85,2.15-29.44,22.01-29.47h.13c19.87.02,22.01,20.62,22.01,29.47s2.97,14.72,5.97,18.75H5.85c-.93,0-1.69.76-1.69,1.69s.76,1.69,1.69,1.69h30.64c.69,4.28,4.39,7.56,8.86,7.56s8.18-3.28,8.86-7.56h14.92c.67,0,1.27-.39,1.55-1,.27-.61.15-1.32-.3-1.82Z"/>
        <path class="cls-3" d="M44.72,71.01c-2.6,0-4.79-1.78-5.42-4.19h10.83c-.63,2.4-2.82,4.19-5.42,4.19ZM36.89,11.85h-.06c-.6,0-1.19.03-1.76.06v-3.21c0-.99.8-1.79,1.79-1.79s1.79.8,1.79,1.79v3.21c-.58-.03-1.16-.06-1.76-.06ZM69.76,64c-3.46-3.81-7.44-9.44-7.44-19.3,0-7.1-1.57-29-20.28-32.39v-3.61c0-2.85-2.32-5.17-5.17-5.17s-5.17,2.32-5.17,5.17v3.61c-18.71,3.39-20.29,25.29-20.29,32.39,0,4.44-.84,8.51-2.51,12.09-.39.85-.03,1.85.82,2.25.85.39,1.85.02,2.24-.82,1.87-4.03,2.82-8.58,2.82-13.52,0-8.85,2.15-29.44,22.01-29.47h.13c19.87.02,22.01,20.62,22.01,29.47s2.97,14.72,5.97,18.75H5.22c-.93,0-1.69.76-1.69,1.69s.76,1.69,1.69,1.69h30.64c.69,4.28,4.39,7.56,8.86,7.56s8.18-3.28,8.86-7.56h14.92c.67,0,1.27-.39,1.55-1,.27-.61.15-1.32-.3-1.82Z"/>
        <path class="cls-9" d="M44.1,70.39c-2.6,0-4.79-1.78-5.42-4.19h10.83c-.63,2.4-2.82,4.19-5.42,4.19ZM36.27,11.23h-.06c-.6,0-1.19.03-1.76.06v-3.21c0-.99.8-1.79,1.79-1.79s1.79.8,1.79,1.79v3.21c-.58-.03-1.16-.06-1.76-.06ZM69.13,63.37c-3.46-3.81-7.44-9.44-7.44-19.3,0-7.1-1.57-29-20.28-32.39v-3.61c0-2.85-2.32-5.17-5.17-5.17s-5.17,2.32-5.17,5.17v3.61c-18.71,3.39-20.29,25.29-20.29,32.39,0,4.44-.84,8.51-2.51,12.09-.39.85-.03,1.85.82,2.25.85.39,1.85.02,2.24-.82,1.87-4.03,2.82-8.58,2.82-13.52,0-8.85,2.15-29.44,22.01-29.47h.13c19.87.02,22.01,20.62,22.01,29.47s2.97,14.72,5.97,18.75H4.6c-.93,0-1.69.76-1.69,1.69s.76,1.69,1.69,1.69h30.64c.69,4.28,4.39,7.56,8.86,7.56s8.18-3.28,8.86-7.56h14.92c.67,0,1.27-.39,1.55-1,.27-.61.15-1.32-.3-1.82Z"/>
        <path class="cls-7" d="M43.47,69.76c-2.6,0-4.79-1.78-5.42-4.19h10.83c-.63,2.4-2.82,4.19-5.42,4.19ZM35.64,10.6h-.06c-.6,0-1.19.03-1.76.06v-3.21c0-.99.8-1.79,1.79-1.79s1.79.8,1.79,1.79v3.21c-.58-.03-1.16-.06-1.76-.06ZM68.51,62.75c-3.46-3.81-7.44-9.44-7.44-19.3,0-7.1-1.57-29-20.28-32.39v-3.61c0-2.85-2.32-5.17-5.17-5.17s-5.17,2.32-5.17,5.17v3.61c-18.71,3.39-20.29,25.29-20.29,32.39,0,4.44-.84,8.51-2.51,12.09-.39.85-.03,1.85.82,2.25.85.39,1.85.02,2.24-.82,1.87-4.03,2.82-8.58,2.82-13.52,0-8.85,2.15-29.44,22.01-29.47h.13c19.87.02,22.01,20.62,22.01,29.47s2.97,14.72,5.97,18.75H3.97c-.93,0-1.69.76-1.69,1.69s.76,1.69,1.69,1.69h30.64c.69,4.28,4.39,7.56,8.86,7.56s8.18-3.28,8.86-7.56h14.92c.67,0,1.27-.39,1.55-1,.27-.61.15-1.32-.3-1.82Z"/>
        <path class="cls-4" d="M42.85,69.14c-2.6,0-4.79-1.78-5.42-4.19h10.83c-.63,2.4-2.82,4.19-5.42,4.19ZM35.02,9.98h-.06c-.6,0-1.19.03-1.76.06v-3.21c0-.99.8-1.79,1.79-1.79s1.79.8,1.79,1.79v3.21c-.58-.03-1.16-.06-1.76-.06ZM67.88,62.12c-3.46-3.81-7.44-9.44-7.44-19.3,0-7.1-1.57-29-20.28-32.39v-3.61c0-2.85-2.32-5.17-5.17-5.17s-5.17,2.32-5.17,5.17v3.61c-18.71,3.39-20.29,25.29-20.29,32.39,0,4.44-.84,8.51-2.51,12.09-.39.85-.03,1.85.82,2.25.85.39,1.85.02,2.24-.82,1.87-4.03,2.82-8.58,2.82-13.52,0-8.85,2.15-29.44,22.01-29.47h.13c19.87.02,22.01,20.62,22.01,29.47s2.97,14.72,5.97,18.75H3.35c-.93,0-1.69.76-1.69,1.69s.76,1.69,1.69,1.69h30.64c.69,4.28,4.39,7.56,8.86,7.56s8.18-3.28,8.86-7.56h14.92c.67,0,1.27-.39,1.55-1,.27-.61.15-1.32-.3-1.82Z"/>
        <path class="cls-6" d="M42.22,68.51c-2.6,0-4.79-1.78-5.42-4.19h10.83c-.63,2.4-2.82,4.19-5.42,4.19ZM34.39,9.35h-.06c-.6,0-1.19.03-1.76.06v-3.21c0-.99.8-1.79,1.79-1.79s1.79.8,1.79,1.79v3.21c-.58-.03-1.16-.06-1.76-.06ZM67.26,61.5c-3.46-3.81-7.44-9.44-7.44-19.3,0-7.1-1.57-29-20.28-32.39v-3.61c0-2.85-2.32-5.17-5.17-5.17s-5.17,2.32-5.17,5.17v3.61c-18.71,3.39-20.29,25.29-20.29,32.39,0,4.44-.84,8.51-2.51,12.09-.39.85-.03,1.85.82,2.25.85.39,1.85.02,2.24-.82,1.87-4.03,2.82-8.58,2.82-13.52,0-8.85,2.15-29.44,22.01-29.47h.13c19.87.02,22.01,20.62,22.01,29.47s2.97,14.72,5.97,18.75H2.72c-.93,0-1.69.76-1.69,1.69s.76,1.69,1.69,1.69h30.64c.69,4.28,4.39,7.56,8.86,7.56s8.18-3.28,8.86-7.56h14.92c.67,0,1.27-.39,1.55-1,.27-.61.15-1.32-.3-1.82Z"/>
        <path class="cls-5" d="M41.6,67.89c-2.6,0-4.79-1.78-5.42-4.19h10.83c-.63,2.4-2.82,4.19-5.42,4.19ZM33.77,8.73h-.06c-.6,0-1.19.03-1.76.06v-3.21c0-.99.8-1.79,1.79-1.79s1.79.8,1.79,1.79v3.21c-.58-.03-1.16-.06-1.76-.06ZM66.63,60.87c-3.46-3.81-7.44-9.44-7.44-19.3,0-7.1-1.57-29-20.28-32.39v-3.61c0-2.85-2.32-5.17-5.17-5.17s-5.17,2.32-5.17,5.17v3.61c-18.71,3.39-20.29,25.29-20.29,32.39,0,4.44-.84,8.51-2.51,12.09-.39.85-.03,1.85.82,2.25.85.39,1.85.02,2.24-.82,1.87-4.03,2.82-8.58,2.82-13.52,0-8.85,2.15-29.44,22.01-29.47h.13c19.87.02,22.01,20.62,22.01,29.47s2.97,14.72,5.97,18.75H2.1c-.93,0-1.69.76-1.69,1.69s.76,1.69,1.69,1.69h30.64c.69,4.28,4.39,7.56,8.86,7.56s8.18-3.28,8.86-7.56h14.92c.67,0,1.27-.39,1.55-1,.27-.61.15-1.32-.3-1.82Z"/>
      </g>
      <path class="cls-2" d="M66.23,60.47c-3.46-3.81-7.44-9.44-7.44-19.3,0-7.1-1.57-29-20.28-32.39v-3.61c0-2.85-2.32-5.17-5.17-5.17s-5.17,2.32-5.17,5.17v3.61C9.45,12.17,7.88,34.07,7.88,41.17c0,4.44-.84,8.51-2.51,12.09-.39.85-.03,1.85.82,2.25.85.39,1.85.02,2.24-.82,1.87-4.03,2.82-8.58,2.82-13.52,0-8.85,2.15-29.44,22.01-29.47h.13c19.87.02,22.01,20.62,22.01,29.47s2.97,14.72,5.97,18.75H1.69c-.93,0-1.69.76-1.69,1.69s.76,1.69,1.69,1.69h30.64c.69,4.28,4.39,7.56,8.86,7.56s8.18-3.28,8.86-7.56h14.92c.67,0,1.27-.39,1.54-1,.27-.61.15-1.32-.29-1.82ZM33.36,8.32h-.06c-.6,0-1.19.03-1.76.06v-3.21c0-.99.8-1.79,1.79-1.79s1.79.8,1.79,1.79v3.21c-.58-.03-1.16-.06-1.76-.06ZM41.19,67.48c-2.6,0-4.79-1.78-5.42-4.19h10.83c-.63,2.4-2.82,4.19-5.42,4.19Z"/>
    </g>
  </g>
</svg>