<?xml version="1.0" encoding="UTF-8"?>
<svg id="Layer_2" data-name="Layer 2" xmlns="http://www.w3.org/2000/svg" xmlns:xlink="http://www.w3.org/1999/xlink" viewBox="0 0 73.54 73.54">
  <defs>
    <style>
      .cls-1 {
        opacity: .14;
      }

      .cls-2 {
        fill: url(#linear-gradient-2);
      }

      .cls-3 {
        opacity: .21;
      }

      .cls-4 {
        opacity: .42;
      }

      .cls-5 {
        opacity: .55;
      }

      .cls-6 {
        opacity: .48;
      }

      .cls-7 {
        opacity: .35;
      }

      .cls-8 {
        opacity: .08;
      }

      .cls-9 {
        opacity: .28;
      }

      .cls-10 {
        opacity: 0;
      }

      .cls-11 {
        fill: url(#linear-gradient);
      }
    </style>
    <linearGradient id="linear-gradient" x1="29.1" y1="28.61" x2="58.91" y2="58.42" gradientUnits="userSpaceOnUse">
      <stop offset="0" stop-color="#3a3a3a"/>
      <stop offset="1" stop-color="#818181"/>
    </linearGradient>
    <linearGradient id="linear-gradient-2" x1="11.26" y1="11.26" x2="67.64" y2="67.64" gradientUnits="userSpaceOnUse">
      <stop offset="0" stop-color="#2c2e2c"/>
      <stop offset=".99" stop-color="#000"/>
    </linearGradient>
  </defs>
  <g id="Layer_1-2" data-name="Layer 1">
    <g>
      <path class="cls-11" d="M49.45,10.32L10.36,49.42s8.62,8.62,10.38,10.38c1.75,1.75,6.27,3.36,9.37,3.36h22.66l10.33-10.33s-.1-21.96-.1-24.86-1.2-6.22-4.01-9.02c-2.81-2.81-9.52-8.62-9.52-8.62Z"/>
      <g>
        <path class="cls-10" d="M42.96,58.35c.43,0,.87-.16,1.19-.49l13.7-13.71c.66-.66.66-1.73,0-2.39-.66-.66-1.73-.66-2.39,0l-13.71,13.7c-.66.66-.66,1.73,0,2.39.33.33.76.49,1.2.49ZM51.68,35.58c-.66-.66-1.73-.66-2.39,0l-13.71,13.71c-.66.66-.66,1.73,0,2.39.33.33.76.5,1.19.5s.87-.17,1.2-.5l13.7-13.71c.66-.66.66-1.73,0-2.39ZM39.58,20.43c.33.33.76.5,1.19.5s.87-.17,1.19-.5c.66-.66.66-1.72,0-2.38l-12.15-12.15c-.66-.66-1.73-.66-2.39,0-.66.66-.66,1.73,0,2.39l12.15,12.14ZM19.24,42.47c.43,0,.86-.16,1.19-.49.66-.66.66-1.73,0-2.39l-12.15-12.14c-.66-.66-1.73-.66-2.39,0-.66.66-.66,1.73,0,2.39l12.15,12.15c.33.33.76.49,1.2.49ZM73.04,70.66l-7.44-7.44,3.99-4c.32-.32.5-.75.5-1.19v-24.12c0-.05,0-.11,0-.16-.09-3.98-1.68-7.7-4.5-10.52l-9.34-9.34c-.66-.66-1.73-.66-2.39,0L13.89,53.86c-.32.32-.5.75-.5,1.2s.18.88.5,1.19l9.34,9.34c2.79,2.79,6.48,4.38,10.43,4.49.08.01.16.02.25.02h24.11c.93,0,1.69-.76,1.69-1.69s-.76-1.69-1.69-1.69h-23.9c-.06,0-.13,0-.19,0-3.14-.04-6.09-1.29-8.31-3.51l-8.15-8.15L55.05,17.48l8.15,8.15c2.22,2.22,3.47,5.17,3.51,8.31,0,.04,0,.07,0,.11v23.28l-4.73,4.73c-.66.66-.66,1.73,0,2.39.1.1.2.17.31.24l8.35,8.36c.33.33.76.49,1.2.49s.86-.17,1.19-.49c.66-.66.66-1.73,0-2.39Z"/>
        <path class="cls-8" d="M42.33,57.73c.43,0,.87-.16,1.19-.49l13.7-13.71c.66-.66.66-1.73,0-2.39-.66-.66-1.73-.66-2.39,0l-13.71,13.7c-.66.66-.66,1.73,0,2.39.33.33.76.49,1.2.49ZM51.05,34.96c-.66-.66-1.73-.66-2.39,0l-13.71,13.71c-.66.66-.66,1.73,0,2.39.33.33.76.5,1.19.5s.87-.17,1.2-.5l13.7-13.71c.66-.66.66-1.73,0-2.39ZM38.96,19.81c.33.33.76.5,1.19.5s.86-.17,1.19-.5c.66-.66.66-1.72,0-2.38l-12.15-12.15c-.66-.66-1.73-.66-2.39,0-.66.66-.66,1.73,0,2.39l12.15,12.14ZM18.62,41.84c.43,0,.86-.16,1.19-.49.66-.66.66-1.73,0-2.39l-12.15-12.14c-.66-.66-1.73-.66-2.39,0-.66.66-.66,1.73,0,2.39l12.15,12.15c.33.33.76.49,1.2.49ZM72.42,70.03l-7.44-7.44,3.99-4c.32-.32.5-.75.5-1.19v-24.12c0-.05,0-.11,0-.16-.09-3.98-1.68-7.7-4.5-10.52l-9.34-9.34c-.66-.66-1.73-.66-2.39,0L13.27,53.24c-.32.32-.5.75-.5,1.2s.18.88.5,1.19l9.34,9.34c2.79,2.79,6.48,4.38,10.43,4.49.08.01.16.02.25.02h24.11c.93,0,1.69-.76,1.69-1.69s-.76-1.69-1.69-1.69h-23.9c-.06,0-.13,0-.19,0-3.14-.02-6.09-1.29-8.31-3.51l-8.15-8.15L54.43,16.85l8.15,8.15c2.22,2.22,3.4,5.17,3.51,8.31,0,.04,0,.07,0,.11v23.28l-4.73,4.73c-.66.66-.66,1.74,0,2.39.1.1.2.17.31.24l8.35,8.36c.33.33.76.49,1.2.49s.86-.17,1.19-.49c.66-.66.66-1.73,0-2.39Z"/>
        <path class="cls-1" d="M41.71,57.1c.43,0,.87-.16,1.19-.49l13.7-13.71c.66-.66.66-1.73,0-2.39-.66-.66-1.73-.66-2.39,0l-13.71,13.7c-.66.66-.66,1.73,0,2.39.33.33.76.49,1.2.49ZM50.43,34.33c-.66-.66-1.73-.66-2.39,0l-13.71,13.71c-.66.66-.66,1.73,0,2.39.33.33.76.5,1.19.5s.87-.17,1.2-.5l13.7-13.71c.66-.66.66-1.73,0-2.39ZM38.33,19.18c.33.33.76.5,1.19.5s.86-.17,1.19-.5c.66-.66.66-1.72,0-2.38l-12.15-12.15c-.66-.66-1.73-.66-2.39,0-.66.66-.66,1.73,0,2.39l12.15,12.14ZM17.99,41.22c.43,0,.86-.16,1.19-.49.66-.66.66-1.73,0-2.39l-12.15-12.14c-.66-.66-1.73-.66-2.39,0-.66.66-.66,1.73,0,2.39l12.15,12.15c.33.33.76.49,1.2.49ZM71.79,69.41l-7.44-7.44,3.99-4c.32-.32.5-.75.5-1.19v-24.12c0-.05,0-.11,0-.16-.09-3.98-1.68-7.7-4.5-10.52l-9.34-9.34c-.66-.66-1.73-.66-2.39,0L12.64,52.61c-.32.32-.5.75-.5,1.2s.18.88.5,1.19l9.34,9.34c2.79,2.79,6.48,4.38,10.43,4.49.08.01.16.02.25.02h24.11c.93,0,1.69-.76,1.69-1.69s-.76-1.69-1.69-1.69h-23.9c-.06,0-.13,0-.19,0-3.14-.02-6.09-1.29-8.31-3.51l-8.15-8.15L53.8,16.23l8.15,8.15c2.22,2.22,3.4,5.17,3.51,8.31,0,.04,0,.07,0,.11v23.28l-4.73,4.73c-.66.66-.66,1.74,0,2.39.1.1.2.17.31.24l8.35,8.36c.33.33.76.49,1.2.49s.86-.17,1.19-.49c.66-.66.66-1.73,0-2.39Z"/>
        <path class="cls-3" d="M41.08,56.48c.43,0,.87-.16,1.19-.49l13.7-13.71c.66-.66.66-1.73,0-2.39-.66-.66-1.73-.66-2.39,0l-13.71,13.7c-.66.66-.66,1.73,0,2.39.33.33.76.49,1.2.49ZM49.8,33.71c-.66-.66-1.73-.66-2.39,0l-13.71,13.71c-.66.66-.66,1.73,0,2.39.33.33.76.5,1.19.5s.87-.17,1.2-.5l13.7-13.71c.66-.66.66-1.73,0-2.39ZM37.71,18.56c.33.33.76.5,1.19.5s.86-.17,1.19-.5c.66-.66.66-1.72,0-2.38l-12.15-12.15c-.66-.66-1.73-.66-2.39,0-.66.66-.66,1.73,0,2.39l12.15,12.14ZM17.37,40.59c.43,0,.86-.16,1.19-.49.66-.66.66-1.73,0-2.39l-12.15-12.14c-.66-.66-1.73-.66-2.39,0-.66.66-.66,1.73,0,2.39l12.15,12.15c.33.33.76.49,1.2.49ZM71.17,68.78l-7.44-7.44,3.99-4c.32-.32.5-.75.5-1.19v-24.12c0-.05,0-.11,0-.16-.09-3.98-1.68-7.7-4.5-10.52l-9.34-9.34c-.66-.66-1.73-.66-2.39,0L12.02,51.99c-.32.32-.5.75-.5,1.2s.18.88.5,1.19l9.34,9.34c2.79,2.79,6.48,4.38,10.43,4.49.08.01.16.02.25.02h24.11c.93,0,1.69-.76,1.69-1.69s-.76-1.69-1.69-1.69h-23.9c-.06,0-.13,0-.19,0-3.14-.02-6.09-1.29-8.31-3.51l-8.15-8.15L53.18,15.6l8.15,8.15c2.22,2.22,3.4,5.17,3.51,8.31,0,.04,0,.07,0,.11v23.28l-4.73,4.73c-.66.66-.66,1.74,0,2.39.1.1.2.17.31.24l8.35,8.36c.33.33.76.49,1.2.49s.86-.17,1.19-.49c.66-.66.66-1.73,0-2.39Z"/>
        <path class="cls-9" d="M40.46,55.85c.43,0,.87-.16,1.19-.49l13.7-13.71c.66-.66.66-1.73,0-2.39-.66-.66-1.73-.66-2.39,0l-13.71,13.7c-.66.66-.66,1.73,0,2.39.33.33.76.49,1.2.49ZM49.18,33.08c-.66-.66-1.73-.66-2.39,0l-13.71,13.71c-.66.66-.66,1.73,0,2.39.33.33.76.5,1.19.5s.87-.17,1.2-.5l13.7-13.71c.66-.66.66-1.73,0-2.39ZM37.08,17.93c.33.33.76.5,1.19.5s.86-.17,1.19-.5c.66-.66.66-1.72,0-2.38L27.32,3.4c-.66-.66-1.73-.66-2.39,0-.66.66-.66,1.73,0,2.39l12.15,12.14ZM16.74,39.97c.43,0,.86-.16,1.19-.49.66-.66.66-1.73,0-2.39l-12.15-12.14c-.66-.66-1.73-.66-2.39,0-.66.66-.66,1.73,0,2.39l12.15,12.15c.33.33.76.49,1.2.49ZM70.54,68.16l-7.44-7.44,3.99-4c.32-.32.5-.75.5-1.19v-24.12c0-.05,0-.11,0-.16-.09-3.98-1.68-7.7-4.5-10.52l-9.34-9.34c-.66-.66-1.73-.66-2.39,0L11.39,51.36c-.32.32-.5.75-.5,1.2s.18.88.5,1.19l9.34,9.34c2.79,2.79,6.48,4.38,10.43,4.49.08.01.16.02.25.02h24.11c.93,0,1.69-.76,1.69-1.69s-.76-1.69-1.69-1.69h-23.9c-.06,0-.13,0-.19,0-3.14-.02-6.09-1.29-8.31-3.51l-8.15-8.15L52.55,14.98l8.15,8.15c2.22,2.22,3.4,5.17,3.51,8.31,0,.04,0,.07,0,.11v23.28l-4.73,4.73c-.66.66-.66,1.74,0,2.39.1.1.2.17.31.24l8.35,8.36c.33.33.76.49,1.2.49s.86-.17,1.19-.49c.66-.66.66-1.73,0-2.39Z"/>
        <path class="cls-7" d="M39.83,55.23c.43,0,.87-.16,1.19-.49l13.7-13.71c.66-.66.66-1.73,0-2.39-.66-.66-1.73-.66-2.39,0l-13.71,13.7c-.66.66-.66,1.73,0,2.39.33.33.76.49,1.2.49ZM48.55,32.46c-.66-.66-1.73-.66-2.39,0l-13.71,13.71c-.66.66-.66,1.73,0,2.39.33.33.76.5,1.19.5s.87-.17,1.2-.5l13.7-13.71c.66-.66.66-1.73,0-2.39ZM36.46,17.31c.33.33.76.5,1.19.5s.86-.17,1.19-.5c.66-.66.66-1.72,0-2.38L26.7,2.78c-.66-.66-1.73-.66-2.39,0-.66.66-.66,1.73,0,2.39l12.15,12.14ZM16.12,39.34c.43,0,.86-.16,1.19-.49.66-.66.66-1.73,0-2.39l-12.15-12.14c-.66-.66-1.73-.66-2.39,0-.66.66-.66,1.73,0,2.39l12.15,12.15c.33.33.76.49,1.2.49ZM69.92,67.53l-7.44-7.44,3.99-4c.32-.32.5-.75.5-1.19v-24.12c0-.05,0-.11,0-.16-.09-3.98-1.68-7.7-4.5-10.52l-9.34-9.34c-.66-.66-1.73-.66-2.39,0L10.77,50.74c-.32.32-.5.75-.5,1.2s.18.88.5,1.19l9.34,9.34c2.79,2.79,6.48,4.38,10.43,4.49.08.01.16.02.25.02h24.11c.93,0,1.69-.76,1.69-1.69s-.76-1.69-1.69-1.69h-23.9c-.06,0-.13,0-.19,0-3.14-.02-6.09-1.29-8.31-3.51l-8.15-8.15L51.93,14.35l8.15,8.15c2.22,2.22,3.4,5.17,3.51,8.31,0,.04,0,.07,0,.11v23.28l-4.73,4.73c-.66.66-.66,1.74,0,2.39.1.1.2.17.31.24l8.35,8.36c.33.33.76.49,1.2.49s.86-.17,1.19-.49c.66-.66.66-1.73,0-2.39Z"/>
        <path class="cls-4" d="M39.21,54.6c.43,0,.87-.16,1.19-.49l13.7-13.71c.66-.66.66-1.73,0-2.39-.66-.66-1.73-.66-2.39,0l-13.71,13.7c-.66.66-.66,1.73,0,2.39.33.33.76.49,1.2.49ZM47.93,31.83c-.66-.66-1.73-.66-2.39,0l-13.71,13.71c-.66.66-.66,1.73,0,2.39.33.33.76.5,1.19.5s.87-.17,1.2-.5l13.7-13.71c.66-.66.66-1.73,0-2.39ZM35.83,16.68c.33.33.76.5,1.19.5s.86-.17,1.19-.5c.66-.66.66-1.72,0-2.38L26.07,2.15c-.66-.66-1.73-.66-2.39,0-.66.66-.66,1.73,0,2.39l12.15,12.14ZM15.49,38.72c.43,0,.86-.16,1.19-.49.66-.66.66-1.73,0-2.39l-12.15-12.14c-.66-.66-1.73-.66-2.39,0-.66.66-.66,1.73,0,2.39l12.15,12.15c.33.33.76.49,1.2.49ZM69.29,66.91l-7.44-7.44,3.99-4c.32-.32.5-.75.5-1.19v-24.12c0-.05,0-.11,0-.16-.09-3.98-1.68-7.7-4.5-10.52l-9.34-9.34c-.66-.66-1.73-.66-2.39,0L10.14,50.11c-.32.32-.5.75-.5,1.2s.18.88.5,1.19l9.34,9.34c2.79,2.79,6.48,4.38,10.43,4.49.08.01.16.02.25.02h24.11c.93,0,1.69-.76,1.69-1.69s-.76-1.69-1.69-1.69h-23.9c-.06,0-.13,0-.19,0-3.14-.02-6.09-1.29-8.31-3.51l-8.15-8.15L51.3,13.73l8.15,8.15c2.22,2.22,3.4,5.17,3.51,8.31,0,.04,0,.07,0,.11v23.28l-4.73,4.73c-.66.66-.66,1.74,0,2.39.1.1.2.17.31.24l8.35,8.36c.33.33.76.49,1.2.49s.86-.17,1.19-.49c.66-.66.66-1.73,0-2.39Z"/>
        <path class="cls-6" d="M38.58,53.98c.43,0,.87-.16,1.19-.49l13.7-13.71c.66-.66.66-1.73,0-2.39-.66-.66-1.73-.66-2.39,0l-13.71,13.7c-.66.66-.66,1.73,0,2.39.33.33.76.49,1.2.49ZM47.3,31.21c-.66-.66-1.73-.66-2.39,0l-13.71,13.71c-.66.66-.66,1.73,0,2.39.33.33.76.5,1.19.5s.87-.17,1.2-.5l13.7-13.71c.66-.66.66-1.73,0-2.39ZM35.21,16.06c.33.33.76.5,1.19.5s.86-.17,1.19-.5c.66-.66.66-1.72,0-2.38L25.45,1.53c-.66-.66-1.73-.66-2.39,0-.66.66-.66,1.73,0,2.39l12.15,12.14ZM14.87,38.09c.43,0,.86-.16,1.19-.49.66-.66.66-1.73,0-2.39L3.91,23.06c-.66-.66-1.73-.66-2.39,0-.66.66-.66,1.73,0,2.39l12.15,12.15c.33.33.76.49,1.2.49ZM68.67,66.28l-7.44-7.44,3.99-4c.32-.32.5-.75.5-1.19v-24.12c0-.05,0-.11,0-.16-.09-3.98-1.68-7.7-4.5-10.52l-9.34-9.34c-.66-.66-1.73-.66-2.39,0L9.52,49.49c-.32.32-.5.75-.5,1.2s.18.88.5,1.19l9.34,9.34c2.79,2.79,6.48,4.38,10.43,4.49.08.01.16.02.25.02h24.11c.93,0,1.69-.76,1.69-1.69s-.76-1.69-1.69-1.69h-23.9c-.06,0-.13,0-.19,0-3.14-.02-6.09-1.29-8.31-3.51l-8.15-8.15L50.68,13.1l8.15,8.15c2.22,2.22,3.4,5.17,3.51,8.31,0,.04,0,.07,0,.11v23.28l-4.73,4.73c-.66.66-.66,1.74,0,2.39.1.1.2.17.31.24l8.35,8.36c.33.33.76.49,1.2.49s.86-.17,1.19-.49c.66-.66.66-1.73,0-2.39Z"/>
        <path class="cls-5" d="M37.96,53.35c.43,0,.87-.16,1.19-.49l13.7-13.71c.66-.66.66-1.73,0-2.39-.66-.66-1.73-.66-2.39,0l-13.71,13.7c-.66.66-.66,1.73,0,2.39.33.33.76.49,1.2.49ZM46.68,30.58c-.66-.66-1.73-.66-2.39,0l-13.71,13.71c-.66.66-.66,1.73,0,2.39.33.33.76.5,1.19.5s.87-.17,1.2-.5l13.7-13.71c.66-.66.66-1.73,0-2.39ZM34.58,15.43c.33.33.76.5,1.19.5s.87-.17,1.19-.5c.66-.66.66-1.72,0-2.38L24.82.9c-.66-.66-1.73-.66-2.39,0-.66.66-.66,1.73,0,2.39l12.15,12.14ZM14.24,37.47c.43,0,.86-.16,1.19-.49.66-.66.66-1.73,0-2.39L3.29,22.44c-.66-.66-1.73-.66-2.39,0-.66.66-.66,1.73,0,2.39l12.15,12.15c.33.33.76.49,1.2.49ZM68.04,65.66l-7.44-7.44,3.99-4c.32-.32.5-.75.5-1.19v-24.12c0-.05,0-.11,0-.16-.09-3.98-1.68-7.7-4.5-10.52l-9.34-9.34c-.66-.66-1.73-.66-2.39,0L8.89,48.86c-.32.32-.5.75-.5,1.2s.18.88.5,1.19l9.34,9.34c2.79,2.79,6.48,4.38,10.43,4.49.08.01.16.02.25.02h24.11c.93,0,1.69-.76,1.69-1.69s-.76-1.69-1.69-1.69h-23.9c-.06,0-.13,0-.19,0-3.14-.04-6.09-1.29-8.31-3.51l-8.15-8.15L50.05,12.48l8.15,8.15c2.22,2.22,3.47,5.17,3.51,8.31,0,.04,0,.07,0,.11v23.28l-4.73,4.73c-.66.66-.66,1.73,0,2.39.1.1.2.17.31.24l8.35,8.36c.33.33.76.49,1.2.49s.86-.17,1.19-.49c.66-.66.66-1.73,0-2.39Z"/>
      </g>
      <path class="cls-2" d="M34.18,15.03c.33.33.76.5,1.19.5s.87-.16,1.19-.5c.66-.66.66-1.73,0-2.39L24.42.5c-.66-.66-1.73-.66-2.39,0-.66.66-.66,1.73,0,2.39l12.15,12.14ZM13.84,37.06c.43,0,.86-.16,1.19-.49.66-.66.66-1.73,0-2.39L2.88,22.03c-.66-.66-1.73-.66-2.39,0-.66.66-.66,1.73,0,2.39l12.15,12.15c.33.33.76.49,1.2.49ZM67.64,65.25l-7.44-7.44,3.99-4c.32-.32.5-.75.5-1.19v-24.12c0-.05,0-.11,0-.16-.09-3.98-1.68-7.7-4.5-10.52l-9.34-9.34c-.66-.66-1.73-.66-2.39,0L8.48,48.46c-.32.32-.5.75-.5,1.19s.18.88.5,1.19l9.34,9.34c2.79,2.79,6.48,4.38,10.43,4.49.08.01.16.02.25.02h24.11c.93,0,1.69-.76,1.69-1.69s-.76-1.69-1.69-1.69h-23.9c-.06,0-.13-.01-.19-.01-3.14-.04-6.09-1.29-8.31-3.51l-8.15-8.15L49.65,12.07l8.15,8.15c2.22,2.22,3.47,5.17,3.51,8.31,0,.04,0,.08,0,.11v23.28l-4.73,4.73c-.66.66-.66,1.73,0,2.39.1.1.2.17.31.24l8.35,8.36c.33.33.76.49,1.2.49s.86-.17,1.19-.49c.66-.66.66-1.73,0-2.39ZM46.27,30.18c-.66-.66-1.73-.66-2.39,0l-13.71,13.71c-.66.66-.66,1.73,0,2.39.33.33.76.5,1.19.5s.87-.17,1.2-.5l13.7-13.7c.66-.66.66-1.73,0-2.39ZM37.55,52.95c.43,0,.87-.16,1.19-.49l13.7-13.71c.66-.66.66-1.73,0-2.39-.66-.66-1.73-.66-2.39,0l-13.71,13.7c-.66.66-.66,1.73,0,2.39.33.33.76.49,1.2.49Z"/>
    </g>
  </g>
</svg>