<?xml version="1.0" encoding="UTF-8"?>
<svg id="Layer_2" data-name="Layer 2" xmlns="http://www.w3.org/2000/svg" xmlns:xlink="http://www.w3.org/1999/xlink" viewBox="0 0 64.96 81.34">
  <defs>
    <style>
      .cls-1 {
        opacity: .14;
      }

      .cls-2 {
        fill: url(#linear-gradient-2);
      }

      .cls-3 {
        opacity: .21;
      }

      .cls-4 {
        opacity: .42;
      }

      .cls-5 {
        opacity: .55;
      }

      .cls-6 {
        opacity: .48;
      }

      .cls-7 {
        opacity: .35;
      }

      .cls-8 {
        fill: url(#linear-gradient-3);
      }

      .cls-9 {
        opacity: .08;
      }

      .cls-10 {
        opacity: .28;
      }

      .cls-11 {
        opacity: 0;
      }

      .cls-12 {
        fill: url(#linear-gradient);
      }
    </style>
    <linearGradient id="linear-gradient" x1="21.42" y1="54.68" x2="38.46" y2="71.71" gradientUnits="userSpaceOnUse">
      <stop offset="0" stop-color="#79949c"/>
      <stop offset="1" stop-color="#b6c7c8"/>
    </linearGradient>
    <linearGradient id="linear-gradient-2" x1="9.58" y1="9.56" x2="51.28" y2="51.26" gradientUnits="userSpaceOnUse">
      <stop offset="0" stop-color="#f2a300"/>
      <stop offset="1" stop-color="#ffff36"/>
    </linearGradient>
    <linearGradient id="linear-gradient-3" x1="6.16" y1="11.3" x2="53.39" y2="58.52" gradientUnits="userSpaceOnUse">
      <stop offset="0" stop-color="#2c2e2c"/>
      <stop offset=".99" stop-color="#000"/>
    </linearGradient>
  </defs>
  <g id="Layer_1-2" data-name="Layer 1">
    <g>
      <path class="cls-12" d="M18.42,58.36l.77,5.08v5.59h5.87s1.26,5.03,4.61,5.03,5.1-5.03,5.1-5.03h5.52v-5.59l1.38-5.08h-23.26Z"/>
      <path class="cls-2" d="M12.14,51.81c1.89,1.6,3.96,3.49,5.6,5.1h24.39l.02-.07c1.49-.94,3.03-2.56,4.31-3.46,7.26-5.09,12.01-13.53,12.01-23.07,0-15.55-12.61-28.16-28.16-28.16S2.17,14.76,2.17,30.31c0,8.62,3.87,16.34,9.98,21.5Z"/>
      <g>
        <path class="cls-11" d="M37.89,59.12c.88.31,1.84-.16,2.16-1.04l6.88-19.64c.18-.52.1-1.09-.22-1.54-.32-.45-.83-.71-1.38-.71h-20.29c-.55,0-1.06.26-1.38.71-.32.45-.4,1.02-.22,1.54l6.88,19.64c.25.69.9,1.13,1.6,1.13.19,0,.38-.03.56-.09.88-.31,1.34-1.27,1.03-2.16l-6.1-17.39h15.53l-6.1,17.39c-.31.88.15,1.84,1.03,2.16ZM45.91,67.24h-21.46c-.93,0-1.69.76-1.69,1.69s.76,1.69,1.69,1.69h21.46c.93,0,1.69-.76,1.69-1.69s-.75-1.69-1.69-1.69ZM35.18,77.96c-1.24,0-2.3-.77-2.73-1.85h5.46c-.44,1.08-1.5,1.85-2.73,1.85ZM45.91,72.73h-21.46c-.93,0-1.69.76-1.69,1.69s.76,1.69,1.69,1.69h4.5c.52,2.97,3.11,5.23,6.23,5.23s5.7-2.26,6.22-5.23h4.5c.93,0,1.69-.75,1.69-1.69s-.75-1.69-1.69-1.69ZM35.18,5.41c-16.42,0-29.78,13.36-29.78,29.78,0,9.12,4.1,17.61,11.25,23.3.73.58,1.79.46,2.37-.27.58-.73.46-1.79-.27-2.37-6.34-5.04-9.97-12.57-9.97-20.66,0-14.56,11.84-26.4,26.4-26.4s26.4,11.84,26.4,26.4c0,8.05-3.61,15.56-9.9,20.6l-.08.06c-1.44,1.15-3.98,3.19-5.47,5.8h-22.88c-.93,0-1.69.75-1.69,1.69s.75,1.69,1.69,1.69h23.92c.67,0,1.28-.4,1.55-1.02,1.01-2.33,3.61-4.41,5-5.52l.08-.06c7.09-5.69,11.16-14.15,11.16-23.23,0-16.42-13.36-29.78-29.78-29.78Z"/>
        <path class="cls-9" d="M37.26,58.5c.88.31,1.84-.16,2.16-1.04l6.88-19.64c.18-.52.1-1.09-.22-1.54-.32-.45-.83-.71-1.38-.71h-20.29c-.55,0-1.06.27-1.38.71-.32.45-.4,1.02-.22,1.54l6.88,19.64c.25.69.9,1.13,1.6,1.13.19,0,.38-.03.56-.09.88-.3,1.34-1.27,1.03-2.16l-6.1-17.39h15.53l-6.1,17.39c-.31.88.15,1.85,1.03,2.16ZM45.29,66.61h-21.46c-.93,0-1.69.76-1.69,1.69s.76,1.69,1.69,1.69h21.46c.93,0,1.69-.76,1.69-1.69s-.75-1.69-1.69-1.69ZM34.56,77.33c-1.24,0-2.3-.77-2.73-1.85h5.46c-.44,1.08-1.5,1.85-2.73,1.85ZM45.29,72.11h-21.46c-.93,0-1.69.76-1.69,1.69s.76,1.69,1.69,1.69h4.5c.52,2.97,3.11,5.23,6.23,5.23s5.7-2.26,6.22-5.23h4.5c.93,0,1.69-.75,1.69-1.69s-.75-1.69-1.69-1.69ZM34.56,4.78c-16.42,0-29.78,13.36-29.78,29.78,0,9.12,4.1,17.61,11.25,23.3.73.58,1.79.46,2.37-.27.58-.73.46-1.79-.27-2.37-6.34-5.04-9.97-12.57-9.97-20.66,0-14.56,11.84-26.4,26.4-26.4s26.4,11.84,26.4,26.4c0,8.05-3.61,15.56-9.9,20.6l-.08.06c-1.44,1.15-3.98,3.19-5.47,5.8h-22.88c-.93,0-1.69.75-1.69,1.69s.75,1.69,1.69,1.69h23.92c.67,0,1.28-.4,1.55-1.02,1.01-2.33,3.61-4.41,5-5.52l.08-.06c7.09-5.69,11.16-14.15,11.16-23.23,0-16.42-13.36-29.78-29.78-29.78Z"/>
        <path class="cls-1" d="M36.64,57.87c.88.31,1.84-.16,2.16-1.04l6.88-19.64c.18-.52.1-1.09-.22-1.54-.32-.45-.83-.71-1.38-.71h-20.29c-.55,0-1.06.27-1.38.71-.32.45-.4,1.02-.22,1.54l6.88,19.64c.25.69.9,1.13,1.6,1.13.19,0,.38-.03.56-.09.88-.3,1.34-1.27,1.03-2.16l-6.1-17.39h15.53l-6.1,17.39c-.31.88.15,1.85,1.03,2.16ZM44.66,65.99h-21.46c-.93,0-1.69.76-1.69,1.69s.76,1.69,1.69,1.69h21.46c.93,0,1.69-.76,1.69-1.69s-.75-1.69-1.69-1.69ZM33.93,76.71c-1.24,0-2.3-.77-2.73-1.85h5.46c-.44,1.08-1.5,1.85-2.73,1.85ZM44.66,71.48h-21.46c-.93,0-1.69.76-1.69,1.69s.76,1.69,1.69,1.69h4.5c.52,2.97,3.11,5.23,6.23,5.23s5.7-2.26,6.22-5.23h4.5c.93,0,1.69-.75,1.69-1.69s-.75-1.69-1.69-1.69ZM33.93,4.16c-16.42,0-29.78,13.36-29.78,29.78,0,9.12,4.1,17.61,11.25,23.3.73.58,1.79.46,2.37-.27.58-.73.46-1.79-.27-2.37-6.34-5.04-9.97-12.57-9.97-20.66,0-14.56,11.84-26.4,26.4-26.4s26.4,11.84,26.4,26.4c0,8.05-3.61,15.56-9.9,20.6l-.08.06c-1.44,1.15-3.98,3.19-5.47,5.8h-22.88c-.93,0-1.69.75-1.69,1.69s.75,1.69,1.69,1.69h23.92c.67,0,1.28-.4,1.55-1.02,1.01-2.33,3.61-4.41,5-5.52l.08-.06c7.09-5.69,11.16-14.15,11.16-23.23,0-16.42-13.36-29.78-29.78-29.78Z"/>
        <path class="cls-3" d="M36.01,57.25c.88.31,1.84-.16,2.16-1.04l6.88-19.64c.18-.52.1-1.09-.22-1.54-.32-.45-.83-.71-1.38-.71h-20.29c-.55,0-1.06.27-1.38.71-.32.45-.4,1.02-.22,1.54l6.88,19.64c.25.69.9,1.13,1.6,1.13.19,0,.38-.03.56-.09.88-.3,1.34-1.27,1.03-2.16l-6.1-17.39h15.53l-6.1,17.39c-.31.88.15,1.85,1.03,2.16ZM44.04,65.36h-21.46c-.93,0-1.69.76-1.69,1.69s.76,1.69,1.69,1.69h21.46c.93,0,1.69-.76,1.69-1.69s-.75-1.69-1.69-1.69ZM33.31,76.08c-1.24,0-2.3-.77-2.73-1.85h5.46c-.44,1.08-1.5,1.85-2.73,1.85ZM44.04,70.86h-21.46c-.93,0-1.69.76-1.69,1.69s.76,1.69,1.69,1.69h4.5c.52,2.97,3.11,5.23,6.23,5.23s5.7-2.26,6.22-5.23h4.5c.93,0,1.69-.75,1.69-1.69s-.75-1.69-1.69-1.69ZM33.31,3.53C16.89,3.53,3.53,16.89,3.53,33.31c0,9.12,4.1,17.61,11.25,23.3.73.58,1.79.46,2.37-.27.58-.73.46-1.79-.27-2.37-6.34-5.04-9.97-12.57-9.97-20.66,0-14.56,11.84-26.4,26.4-26.4s26.4,11.84,26.4,26.4c0,8.05-3.61,15.56-9.9,20.6l-.08.06c-1.44,1.15-3.98,3.19-5.47,5.8h-22.88c-.93,0-1.69.75-1.69,1.69s.75,1.69,1.69,1.69h23.92c.67,0,1.28-.4,1.55-1.02,1.01-2.33,3.61-4.41,5-5.52l.08-.06c7.09-5.69,11.16-14.15,11.16-23.23,0-16.42-13.36-29.78-29.78-29.78Z"/>
        <path class="cls-10" d="M35.39,56.62c.88.31,1.84-.16,2.16-1.04l6.88-19.64c.18-.52.1-1.09-.22-1.54-.32-.45-.83-.71-1.38-.71h-20.29c-.55,0-1.06.27-1.38.71-.32.45-.4,1.02-.22,1.54l6.88,19.64c.25.69.9,1.13,1.6,1.13.19,0,.38-.03.56-.09.88-.3,1.34-1.27,1.03-2.16l-6.1-17.39h15.53l-6.1,17.39c-.31.88.15,1.85,1.03,2.16ZM43.41,64.74h-21.46c-.93,0-1.69.76-1.69,1.69s.76,1.69,1.69,1.69h21.46c.93,0,1.69-.76,1.69-1.69s-.75-1.69-1.69-1.69ZM32.68,75.46c-1.24,0-2.3-.77-2.73-1.85h5.46c-.44,1.08-1.5,1.85-2.73,1.85ZM43.41,70.23h-21.46c-.93,0-1.69.76-1.69,1.69s.76,1.69,1.69,1.69h4.5c.52,2.97,3.11,5.23,6.23,5.23s5.7-2.26,6.22-5.23h4.5c.93,0,1.69-.75,1.69-1.69s-.75-1.69-1.69-1.69ZM32.68,2.91C16.26,2.91,2.91,16.26,2.91,32.68c0,9.12,4.1,17.61,11.25,23.3.73.58,1.79.46,2.37-.27.58-.73.46-1.79-.27-2.37-6.34-5.04-9.97-12.57-9.97-20.66,0-14.56,11.84-26.4,26.4-26.4s26.4,11.84,26.4,26.4c0,8.05-3.61,15.56-9.9,20.6l-.08.06c-1.44,1.15-3.98,3.19-5.47,5.8h-22.88c-.93,0-1.69.75-1.69,1.69s.75,1.69,1.69,1.69h23.92c.67,0,1.28-.4,1.55-1.02,1.01-2.33,3.61-4.41,5-5.52l.08-.06c7.09-5.69,11.16-14.15,11.16-23.23,0-16.42-13.36-29.78-29.78-29.78Z"/>
        <path class="cls-7" d="M34.76,56c.88.31,1.84-.16,2.16-1.04l6.88-19.64c.18-.52.1-1.09-.22-1.54-.32-.45-.83-.71-1.38-.71h-20.29c-.55,0-1.06.27-1.38.71-.32.45-.4,1.02-.22,1.54l6.88,19.64c.25.69.9,1.13,1.6,1.13.19,0,.38-.03.56-.09.88-.3,1.34-1.27,1.03-2.16l-6.1-17.39h15.53l-6.1,17.39c-.31.88.15,1.85,1.03,2.16ZM42.79,64.11h-21.46c-.93,0-1.69.76-1.69,1.69s.76,1.69,1.69,1.69h21.46c.93,0,1.69-.76,1.69-1.69s-.75-1.69-1.69-1.69ZM32.06,74.83c-1.24,0-2.3-.77-2.73-1.85h5.46c-.44,1.08-1.5,1.85-2.73,1.85ZM42.79,69.61h-21.46c-.93,0-1.69.76-1.69,1.69s.76,1.69,1.69,1.69h4.5c.52,2.97,3.11,5.23,6.23,5.23s5.7-2.26,6.22-5.23h4.5c.93,0,1.69-.75,1.69-1.69s-.75-1.69-1.69-1.69ZM32.06,2.28C15.64,2.28,2.28,15.64,2.28,32.06c0,9.12,4.1,17.61,11.25,23.3.73.58,1.79.46,2.37-.27.58-.73.46-1.79-.27-2.37-6.34-5.04-9.97-12.57-9.97-20.66,0-14.56,11.84-26.4,26.4-26.4s26.4,11.84,26.4,26.4c0,8.05-3.61,15.56-9.9,20.6l-.08.06c-1.44,1.15-3.98,3.19-5.47,5.8h-22.88c-.93,0-1.69.75-1.69,1.69s.75,1.69,1.69,1.69h23.92c.67,0,1.28-.4,1.55-1.02,1.01-2.33,3.61-4.41,5-5.52l.08-.06c7.09-5.69,11.16-14.15,11.16-23.23,0-16.42-13.36-29.78-29.78-29.78Z"/>
        <path class="cls-4" d="M34.14,55.37c.88.31,1.84-.16,2.16-1.04l6.88-19.64c.18-.52.1-1.09-.22-1.54-.32-.45-.83-.71-1.38-.71h-20.29c-.55,0-1.06.27-1.38.71-.32.45-.4,1.02-.22,1.54l6.88,19.64c.25.69.9,1.13,1.6,1.13.19,0,.38-.03.56-.09.88-.3,1.34-1.27,1.03-2.16l-6.1-17.39h15.53l-6.1,17.39c-.31.88.15,1.85,1.03,2.16ZM42.16,63.49h-21.46c-.93,0-1.69.76-1.69,1.69s.76,1.69,1.69,1.69h21.46c.93,0,1.69-.76,1.69-1.69s-.75-1.69-1.69-1.69ZM31.43,74.21c-1.24,0-2.3-.77-2.73-1.85h5.46c-.44,1.08-1.5,1.85-2.73,1.85ZM42.16,68.98h-21.46c-.93,0-1.69.76-1.69,1.69s.76,1.69,1.69,1.69h4.5c.52,2.97,3.11,5.23,6.23,5.23s5.7-2.26,6.22-5.23h4.5c.93,0,1.69-.75,1.69-1.69s-.75-1.69-1.69-1.69ZM31.43,1.66C15.01,1.66,1.66,15.01,1.66,31.43c0,9.12,4.1,17.61,11.25,23.3.73.58,1.79.46,2.37-.27.58-.73.46-1.79-.27-2.37-6.34-5.04-9.97-12.57-9.97-20.66,0-14.56,11.84-26.4,26.4-26.4s26.4,11.84,26.4,26.4c0,8.05-3.61,15.56-9.9,20.6l-.08.06c-1.44,1.15-3.98,3.19-5.47,5.8h-22.88c-.93,0-1.69.75-1.69,1.69s.75,1.69,1.69,1.69h23.92c.67,0,1.28-.4,1.55-1.02,1.01-2.33,3.61-4.41,5-5.52l.08-.06c7.09-5.69,11.16-14.15,11.16-23.23C61.21,15.01,47.85,1.66,31.43,1.66Z"/>
        <path class="cls-6" d="M33.51,54.75c.88.31,1.84-.16,2.16-1.04l6.88-19.64c.18-.52.1-1.09-.22-1.54-.32-.45-.83-.71-1.38-.71h-20.29c-.55,0-1.06.27-1.38.71-.32.45-.4,1.02-.22,1.54l6.88,19.64c.25.69.9,1.13,1.6,1.13.19,0,.38-.03.56-.09.88-.3,1.34-1.27,1.03-2.16l-6.1-17.39h15.53l-6.1,17.39c-.31.88.15,1.85,1.03,2.16ZM41.54,62.86h-21.46c-.93,0-1.69.76-1.69,1.69s.76,1.69,1.69,1.69h21.46c.93,0,1.69-.76,1.69-1.69s-.75-1.69-1.69-1.69ZM30.81,73.58c-1.24,0-2.3-.77-2.73-1.85h5.46c-.44,1.08-1.5,1.85-2.73,1.85ZM41.54,68.36h-21.46c-.93,0-1.69.76-1.69,1.69s.76,1.69,1.69,1.69h4.5c.52,2.97,3.11,5.23,6.23,5.23s5.7-2.26,6.22-5.23h4.5c.93,0,1.69-.75,1.69-1.69s-.75-1.69-1.69-1.69ZM30.81,1.03C14.39,1.03,1.03,14.39,1.03,30.81c0,9.12,4.1,17.61,11.25,23.3.73.58,1.79.46,2.37-.27.58-.73.46-1.79-.27-2.37-6.34-5.04-9.97-12.57-9.97-20.66,0-14.56,11.84-26.4,26.4-26.4s26.4,11.84,26.4,26.4c0,8.05-3.61,15.56-9.9,20.6l-.08.06c-1.44,1.15-3.98,3.19-5.47,5.8h-22.88c-.93,0-1.69.75-1.69,1.69s.75,1.69,1.69,1.69h23.92c.67,0,1.28-.4,1.55-1.02,1.01-2.33,3.61-4.41,5-5.52l.08-.06c7.09-5.69,11.16-14.15,11.16-23.23C60.58,14.39,47.22,1.03,30.81,1.03Z"/>
        <path class="cls-5" d="M32.89,54.12c.88.31,1.84-.16,2.16-1.04l6.88-19.64c.18-.52.1-1.09-.22-1.54-.32-.45-.83-.71-1.38-.71h-20.29c-.55,0-1.06.26-1.38.71-.32.45-.4,1.02-.22,1.54l6.88,19.64c.25.69.9,1.13,1.6,1.13.19,0,.38-.03.56-.09.88-.31,1.34-1.27,1.03-2.16l-6.1-17.39h15.53l-6.1,17.39c-.31.88.15,1.84,1.03,2.16ZM40.91,62.24h-21.46c-.93,0-1.69.76-1.69,1.69s.76,1.69,1.69,1.69h21.46c.93,0,1.69-.76,1.69-1.69s-.75-1.69-1.69-1.69ZM30.18,72.96c-1.24,0-2.3-.77-2.73-1.85h5.46c-.44,1.08-1.5,1.85-2.73,1.85ZM40.91,67.73h-21.46c-.93,0-1.69.76-1.69,1.69s.76,1.69,1.69,1.69h4.5c.52,2.97,3.11,5.23,6.23,5.23s5.7-2.26,6.22-5.23h4.5c.93,0,1.69-.75,1.69-1.69s-.75-1.69-1.69-1.69ZM30.18.41C13.76.41.41,13.76.41,30.18c0,9.12,4.1,17.61,11.25,23.3.73.58,1.79.46,2.37-.27.58-.73.46-1.79-.27-2.37-6.34-5.04-9.97-12.57-9.97-20.66C3.79,15.63,15.63,3.79,30.18,3.79s26.4,11.84,26.4,26.4c0,8.05-3.61,15.56-9.9,20.6l-.08.06c-1.44,1.15-3.98,3.19-5.47,5.8h-22.88c-.93,0-1.69.75-1.69,1.69s.75,1.69,1.69,1.69h23.92c.67,0,1.28-.4,1.55-1.02,1.01-2.33,3.61-4.41,5-5.52l.08-.06c7.09-5.69,11.16-14.15,11.16-23.23C59.96,13.76,46.6.41,30.18.41Z"/>
      </g>
      <path class="cls-8" d="M40.5,61.83h-21.46c-.93,0-1.69.76-1.69,1.69s.76,1.69,1.69,1.69h21.46c.93,0,1.69-.76,1.69-1.69s-.75-1.69-1.69-1.69ZM40.5,67.33h-21.46c-.93,0-1.69.76-1.69,1.69s.76,1.69,1.69,1.69h4.5c.52,2.97,3.11,5.23,6.23,5.23s5.7-2.26,6.22-5.23h4.5c.93,0,1.69-.75,1.69-1.69s-.75-1.69-1.69-1.69ZM29.78,72.55c-1.24,0-2.3-.77-2.73-1.85h5.46c-.44,1.08-1.5,1.85-2.73,1.85ZM32.48,53.72c.88.31,1.84-.16,2.16-1.04l6.88-19.64c.18-.52.1-1.09-.22-1.54-.32-.45-.83-.71-1.38-.71h-20.29c-.55,0-1.06.26-1.38.71-.32.45-.4,1.02-.22,1.54l6.88,19.64c.25.69.9,1.13,1.6,1.13.19,0,.38-.03.56-.09.88-.31,1.34-1.27,1.03-2.16l-6.1-17.39h15.53l-6.1,17.39c-.31.88.15,1.84,1.03,2.16ZM29.78,0C13.36,0,0,13.36,0,29.78c0,9.12,4.1,17.61,11.25,23.3.73.58,1.79.46,2.37-.27.58-.73.46-1.79-.27-2.37-6.34-5.04-9.97-12.57-9.97-20.66C3.38,15.22,15.22,3.38,29.78,3.38s26.4,11.84,26.4,26.4c0,8.05-3.61,15.56-9.9,20.6l-.08.06c-1.44,1.15-3.98,3.19-5.47,5.8h-22.88c-.93,0-1.69.75-1.69,1.69s.75,1.69,1.69,1.69h23.92c.67,0,1.28-.4,1.55-1.02,1.01-2.33,3.61-4.41,5-5.52l.08-.06c7.09-5.69,11.16-14.15,11.16-23.23C59.55,13.36,46.19,0,29.78,0Z"/>
    </g>
  </g>
</svg>