<?xml version="1.0" encoding="UTF-8"?>
<svg id="Layer_2" data-name="Layer 2" xmlns="http://www.w3.org/2000/svg" viewBox="0 0 27.36 21.07">
  <defs>
    <style>
      .cls-1 {
        fill-rule: evenodd;
      }
    </style>
  </defs>
  <g id="_1" data-name="1">
    <path class="cls-1" d="M16.43,5.74c4.31-5.4,7.37-3.84,7.37-3.84,1.56.6,1.8,2.53,1.22,3.04-2.4,3.28-7.26,4.43-7.97,2.83.2-1.24-.62-2.03-.62-2.03h0ZM14.21,8.26c-2.44,0-2.7-1.84,0-1.84s2.44,1.84,0,1.84h0ZM11.38,7.77C8.27,9.78-.16,4.66,4.66,1.9c0,0,3.03-1.56,7.36,3.84,0,0-.84.79-.63,2.03h0ZM20.39,9.67s2.6.38,4.57-1.65C28.03,4.81,25.33.14,23.05.01c-2.19-.13-5.02,1.01-7.82,5.27h-2.03C10.43,1.02,7.58-.12,5.38.01,2.14.2.62,5.05,3.49,8.02c1.95,2.02,4.55,1.65,4.55,1.65C4.43,10.92,0,17.88,0,17.88l4.97-1.29,1.63,4.48c1.24-7.61,5.78-11.06,5.78-11.06h3.67s4.27,3.32,5.12,11.06l1.55-3.79,4.63,2.55s-2.89-7.95-6.97-10.16h0Z"/>
  </g>
</svg>