<?xml version="1.0" encoding="UTF-8"?>
<svg id="Layer_2" data-name="Layer 2" xmlns="http://www.w3.org/2000/svg" xmlns:xlink="http://www.w3.org/1999/xlink" viewBox="0 0 71.85 71.85">
  <defs>
    <style>
      .cls-1 {
        opacity: .14;
      }

      .cls-2 {
        fill: url(#linear-gradient-2);
      }

      .cls-3 {
        opacity: .21;
      }

      .cls-4 {
        opacity: .42;
      }

      .cls-5 {
        opacity: .55;
      }

      .cls-6 {
        opacity: .48;
      }

      .cls-7 {
        opacity: .35;
      }

      .cls-8 {
        opacity: .08;
      }

      .cls-9 {
        opacity: .28;
      }

      .cls-10 {
        opacity: 0;
      }

      .cls-11 {
        fill: url(#linear-gradient);
      }
    </style>
    <linearGradient id="linear-gradient" x1="6.17" y1="12.25" x2="53.9" y2="59.98" gradientUnits="userSpaceOnUse">
      <stop offset="0" stop-color="#a3b6bb"/>
      <stop offset="1" stop-color="#d2dddd"/>
    </linearGradient>
    <linearGradient id="linear-gradient-2" x1="6.78" y1="12.68" x2="53.76" y2="59.66" gradientUnits="userSpaceOnUse">
      <stop offset="0" stop-color="#2c2e2c"/>
      <stop offset=".99" stop-color="#000"/>
    </linearGradient>
  </defs>
  <g id="Layer_1-2" data-name="Layer 1">
    <g>
      <path class="cls-11" d="M65.36,33.08c0,17.55-14.23,31.78-31.78,31.78S1.8,50.64,1.8,33.08,16.03,1.3,33.58,1.3c-6.85,3.89-11.85,11.54-12.99,17.62-1.61,8.58,2.35,15.82,5.16,18.81,6.75,7.19,14.85,9.73,23.62,7.47,5.44-1.4,11.95-4.6,16-12.11Z"/>
      <g>
        <path class="cls-10" d="M38.63,71.85c-18.32,0-33.22-14.9-33.22-33.23,0-.93.76-1.69,1.69-1.69s1.69.76,1.69,1.69c0,16.46,13.39,29.85,29.84,29.85,14.56,0,26.71-10.47,29.33-24.28-4.63,5.61-11.57,8.98-19.1,8.98-13.66,0-24.77-11.11-24.77-24.77,0-2.21.29-4.4.87-6.52.56-2.05,1.39-4.03,2.45-5.88,1.49-2.56,3.43-4.84,5.7-6.71-1.88.35-3.73.88-5.51,1.6-6.2,2.47-11.46,7.01-14.81,12.8-.78,1.34-1.45,2.75-2.01,4.19-.34.87-1.31,1.31-2.18.97-.87-.34-1.3-1.31-.97-2.18.62-1.6,1.37-3.17,2.24-4.67,3.73-6.44,9.59-11.5,16.49-14.25,3.91-1.56,8.04-2.35,12.28-2.35.45,0,.9.02,1.34.03.79.03,1.46.61,1.6,1.39.14.78-.28,1.55-1.01,1.86-4.27,1.8-7.9,5-10.23,9.01-.92,1.59-1.63,3.3-2.12,5.07-.5,1.83-.75,3.73-.75,5.64,0,11.79,9.6,21.39,21.39,21.39,8.63,0,16.37-5.14,19.72-13.09.31-.73,1.08-1.15,1.86-1.01.78.14,1.35.81,1.39,1.59.02.45.03.89.03,1.34,0,18.32-14.9,33.23-33.22,33.23Z"/>
        <path class="cls-8" d="M38,71.23c-18.32,0-33.22-14.9-33.22-33.23,0-.93.76-1.69,1.69-1.69s1.69.76,1.69,1.69c0,16.46,13.39,29.85,29.84,29.85,14.56,0,26.71-10.47,29.33-24.28-4.63,5.61-11.57,8.98-19.1,8.98-13.66,0-24.77-11.11-24.77-24.77,0-2.21.29-4.4.87-6.52.56-2.05,1.39-4.03,2.45-5.88,1.49-2.56,3.43-4.84,5.7-6.71-1.88.35-3.73.88-5.51,1.6-6.2,2.47-11.46,7.01-14.81,12.8-.78,1.34-1.45,2.75-2.01,4.19-.34.87-1.31,1.31-2.18.97-.87-.34-1.3-1.31-.97-2.18.62-1.6,1.37-3.17,2.24-4.67,3.73-6.44,9.59-11.5,16.49-14.25,3.91-1.56,8.04-2.35,12.28-2.35.45,0,.9.02,1.34.03.79.03,1.46.61,1.6,1.39.14.78-.28,1.55-1.01,1.86-4.27,1.8-7.9,5-10.23,9.01-.92,1.59-1.63,3.3-2.12,5.07-.5,1.83-.75,3.73-.75,5.64,0,11.79,9.6,21.39,21.39,21.39,8.63,0,16.37-5.14,19.72-13.09.31-.73,1.08-1.15,1.86-1.01.78.14,1.36.81,1.39,1.59.02.45.03.89.03,1.34,0,18.32-14.9,33.23-33.22,33.23Z"/>
        <path class="cls-1" d="M37.38,70.6c-18.32,0-33.22-14.9-33.22-33.23,0-.93.76-1.69,1.69-1.69s1.69.76,1.69,1.69c0,16.46,13.39,29.85,29.84,29.85,14.56,0,26.71-10.47,29.33-24.28-4.63,5.61-11.57,8.98-19.1,8.98-13.66,0-24.77-11.11-24.77-24.77,0-2.21.29-4.4.87-6.52.56-2.05,1.39-4.03,2.45-5.88,1.49-2.56,3.43-4.84,5.7-6.71-1.88.35-3.73.88-5.51,1.6-6.2,2.47-11.46,7.01-14.81,12.8-.78,1.34-1.45,2.75-2.01,4.19-.34.87-1.31,1.31-2.18.97-.87-.34-1.3-1.31-.97-2.18.62-1.6,1.37-3.17,2.24-4.67,3.73-6.44,9.59-11.5,16.49-14.25,3.91-1.56,8.04-2.35,12.28-2.35.45,0,.9.02,1.34.03.79.03,1.46.61,1.6,1.39.14.78-.28,1.55-1.01,1.86-4.27,1.8-7.9,5-10.23,9.01-.92,1.59-1.63,3.3-2.12,5.07-.5,1.83-.75,3.73-.75,5.64,0,11.79,9.6,21.39,21.39,21.39,8.63,0,16.37-5.14,19.72-13.09.31-.73,1.08-1.15,1.86-1.01.78.14,1.36.81,1.39,1.59.02.45.03.89.03,1.34,0,18.32-14.9,33.23-33.22,33.23Z"/>
        <path class="cls-3" d="M36.75,69.98c-18.32,0-33.22-14.9-33.22-33.23,0-.93.76-1.69,1.69-1.69s1.69.76,1.69,1.69c0,16.46,13.39,29.85,29.84,29.85,14.56,0,26.71-10.47,29.33-24.28-4.63,5.61-11.57,8.98-19.1,8.98-13.66,0-24.77-11.11-24.77-24.77,0-2.21.29-4.4.87-6.52.56-2.05,1.39-4.03,2.45-5.88,1.49-2.56,3.43-4.84,5.7-6.71-1.88.35-3.73.88-5.51,1.6-6.2,2.47-11.46,7.01-14.81,12.8-.78,1.34-1.45,2.75-2.01,4.19-.34.87-1.31,1.31-2.18.97-.87-.34-1.3-1.31-.97-2.18.62-1.6,1.37-3.17,2.24-4.67,3.73-6.44,9.59-11.5,16.49-14.25,3.91-1.56,8.04-2.35,12.28-2.35.45,0,.9.02,1.34.03.79.03,1.46.61,1.6,1.39.14.78-.28,1.55-1.01,1.86-4.27,1.8-7.9,5-10.23,9.01-.92,1.59-1.63,3.3-2.12,5.07-.5,1.83-.75,3.73-.75,5.64,0,11.79,9.6,21.39,21.39,21.39,8.63,0,16.37-5.14,19.72-13.09.31-.73,1.08-1.15,1.86-1.01.78.14,1.36.81,1.39,1.59.02.45.03.89.03,1.34,0,18.32-14.9,33.23-33.22,33.23Z"/>
        <path class="cls-9" d="M36.13,69.35c-18.32,0-33.22-14.9-33.22-33.23,0-.93.76-1.69,1.69-1.69s1.69.76,1.69,1.69c0,16.46,13.39,29.85,29.84,29.85,14.56,0,26.71-10.47,29.33-24.28-4.63,5.61-11.57,8.98-19.1,8.98-13.66,0-24.77-11.11-24.77-24.77,0-2.21.29-4.4.87-6.52.56-2.05,1.39-4.03,2.45-5.88,1.49-2.56,3.43-4.84,5.7-6.71-1.88.35-3.73.88-5.51,1.6-6.2,2.47-11.46,7.01-14.81,12.8-.78,1.34-1.45,2.75-2.01,4.19-.34.87-1.31,1.31-2.18.97-.87-.34-1.3-1.31-.97-2.18.62-1.6,1.37-3.17,2.24-4.67,3.73-6.44,9.59-11.5,16.49-14.25,3.91-1.56,8.04-2.35,12.28-2.35.45,0,.9.02,1.34.03.79.03,1.46.61,1.6,1.39.14.78-.28,1.55-1.01,1.86-4.27,1.8-7.9,5-10.23,9.01-.92,1.59-1.63,3.3-2.12,5.07-.5,1.83-.75,3.73-.75,5.64,0,11.79,9.6,21.39,21.39,21.39,8.63,0,16.37-5.14,19.72-13.09.31-.73,1.08-1.15,1.86-1.01.78.14,1.36.81,1.39,1.59.02.45.03.89.03,1.34,0,18.32-14.9,33.23-33.22,33.23Z"/>
        <path class="cls-7" d="M35.5,68.73c-18.32,0-33.22-14.9-33.22-33.23,0-.93.76-1.69,1.69-1.69s1.69.76,1.69,1.69c0,16.46,13.39,29.85,29.84,29.85,14.56,0,26.71-10.47,29.33-24.28-4.63,5.61-11.57,8.98-19.1,8.98-13.66,0-24.77-11.11-24.77-24.77,0-2.21.29-4.4.87-6.52.56-2.05,1.39-4.03,2.45-5.88,1.49-2.56,3.43-4.84,5.7-6.71-1.88.35-3.73.88-5.51,1.6-6.2,2.47-11.46,7.01-14.81,12.8-.78,1.34-1.45,2.75-2.01,4.19-.34.87-1.31,1.31-2.18.97-.87-.34-1.3-1.31-.97-2.18.62-1.6,1.37-3.17,2.24-4.67,3.73-6.44,9.59-11.5,16.49-14.25,3.91-1.56,8.04-2.35,12.28-2.35.45,0,.9.02,1.34.03.79.03,1.46.61,1.6,1.39.14.78-.28,1.55-1.01,1.86-4.27,1.8-7.9,5-10.23,9.01-.92,1.59-1.63,3.3-2.12,5.07-.5,1.83-.75,3.73-.75,5.64,0,11.79,9.6,21.39,21.39,21.39,8.63,0,16.37-5.14,19.72-13.09.31-.73,1.08-1.15,1.86-1.01.78.14,1.36.81,1.39,1.59.02.45.03.89.03,1.34,0,18.32-14.9,33.23-33.22,33.23Z"/>
        <path class="cls-4" d="M34.88,68.1C16.56,68.1,1.66,53.2,1.66,34.88c0-.93.76-1.69,1.69-1.69s1.69.76,1.69,1.69c0,16.46,13.39,29.85,29.84,29.85,14.56,0,26.71-10.47,29.33-24.28-4.63,5.61-11.57,8.98-19.1,8.98-13.66,0-24.77-11.11-24.77-24.77,0-2.21.29-4.4.87-6.52.56-2.05,1.39-4.03,2.45-5.88,1.49-2.56,3.43-4.84,5.7-6.71-1.88.35-3.73.88-5.51,1.6-6.2,2.47-11.46,7.01-14.81,12.8-.78,1.34-1.45,2.75-2.01,4.19-.34.87-1.31,1.31-2.18.97-.87-.34-1.3-1.31-.97-2.18.62-1.6,1.37-3.17,2.24-4.67,3.73-6.44,9.59-11.5,16.49-14.25,3.91-1.56,8.04-2.35,12.28-2.35.45,0,.9.02,1.34.03.79.03,1.46.61,1.6,1.39.14.78-.28,1.55-1.01,1.86-4.27,1.8-7.9,5-10.23,9.01-.92,1.59-1.63,3.3-2.12,5.07-.5,1.83-.75,3.73-.75,5.64,0,11.79,9.6,21.39,21.39,21.39,8.63,0,16.37-5.14,19.72-13.09.31-.73,1.08-1.15,1.86-1.01.78.14,1.36.81,1.39,1.59.02.45.03.89.03,1.34,0,18.32-14.9,33.23-33.22,33.23Z"/>
        <path class="cls-6" d="M34.25,67.48C15.94,67.48,1.03,52.58,1.03,34.25c0-.93.76-1.69,1.69-1.69s1.69.76,1.69,1.69c0,16.46,13.39,29.85,29.84,29.85,14.56,0,26.71-10.47,29.33-24.28-4.63,5.61-11.57,8.98-19.1,8.98-13.66,0-24.77-11.11-24.77-24.77,0-2.21.29-4.4.87-6.52.56-2.05,1.39-4.03,2.45-5.88,1.49-2.56,3.43-4.84,5.7-6.71-1.88.35-3.73.88-5.51,1.6-6.2,2.47-11.46,7.01-14.81,12.8-.78,1.34-1.45,2.75-2.01,4.19-.34.87-1.31,1.31-2.18.97-.87-.34-1.3-1.31-.97-2.18.62-1.6,1.37-3.17,2.24-4.67,3.73-6.44,9.59-11.5,16.49-14.25,3.91-1.56,8.04-2.35,12.28-2.35.45,0,.9.02,1.34.03.79.03,1.46.61,1.6,1.39.14.78-.28,1.55-1.01,1.86-4.27,1.8-7.9,5-10.23,9.01-.92,1.59-1.63,3.3-2.12,5.07-.5,1.83-.75,3.73-.75,5.64,0,11.79,9.6,21.39,21.39,21.39,8.63,0,16.37-5.14,19.72-13.09.31-.73,1.08-1.15,1.86-1.01.78.14,1.36.81,1.39,1.59.02.45.03.89.03,1.34,0,18.32-14.9,33.23-33.22,33.23Z"/>
        <path class="cls-5" d="M33.63,66.85C15.31,66.85.41,51.95.41,33.63c0-.93.76-1.69,1.69-1.69s1.69.76,1.69,1.69c0,16.46,13.39,29.85,29.84,29.85,14.56,0,26.71-10.47,29.33-24.28-4.63,5.61-11.57,8.98-19.1,8.98-13.66,0-24.77-11.11-24.77-24.77,0-2.21.29-4.4.87-6.52.56-2.05,1.39-4.03,2.45-5.88,1.49-2.56,3.43-4.84,5.7-6.71-1.88.35-3.73.88-5.51,1.6-6.2,2.47-11.46,7.01-14.81,12.8-.78,1.34-1.45,2.75-2.01,4.19-.34.87-1.31,1.31-2.18.97-.87-.34-1.3-1.31-.97-2.18.62-1.6,1.37-3.17,2.24-4.67,3.73-6.44,9.59-11.5,16.49-14.25,3.91-1.56,8.04-2.35,12.28-2.35.45,0,.9.02,1.34.03.79.03,1.46.61,1.6,1.39.14.78-.28,1.55-1.01,1.86-4.27,1.8-7.9,5-10.23,9.01-.92,1.59-1.63,3.3-2.12,5.07-.5,1.83-.75,3.73-.75,5.64,0,11.79,9.6,21.39,21.39,21.39,8.63,0,16.37-5.14,19.72-13.09.31-.73,1.08-1.15,1.86-1.01.78.14,1.35.81,1.39,1.59.02.45.03.89.03,1.34,0,18.32-14.9,33.23-33.22,33.23Z"/>
      </g>
      <path class="cls-2" d="M33.22,66.45C14.9,66.45,0,51.54,0,33.22c0-.93.76-1.69,1.69-1.69s1.69.76,1.69,1.69c0,16.46,13.39,29.85,29.84,29.85,14.56,0,26.71-10.47,29.33-24.28-4.63,5.61-11.57,8.98-19.1,8.98-13.66,0-24.77-11.11-24.77-24.77,0-2.21.29-4.4.87-6.52.56-2.05,1.39-4.03,2.46-5.88,1.49-2.56,3.43-4.84,5.7-6.71-1.88.35-3.73.88-5.51,1.6-6.2,2.47-11.46,7.01-14.81,12.8-.78,1.34-1.45,2.75-2.01,4.19-.34.87-1.31,1.31-2.18.97-.87-.34-1.3-1.31-.97-2.18.62-1.6,1.37-3.17,2.24-4.67,3.73-6.44,9.59-11.5,16.49-14.25,3.91-1.56,8.04-2.35,12.28-2.35.45,0,.9.02,1.34.03.79.03,1.46.61,1.6,1.39.14.78-.28,1.55-1.01,1.86-4.27,1.8-7.9,5-10.23,9.01-.92,1.59-1.63,3.3-2.12,5.07-.5,1.83-.75,3.73-.75,5.64,0,11.79,9.6,21.39,21.39,21.39,8.63,0,16.37-5.14,19.72-13.09.31-.73,1.08-1.15,1.86-1.01.78.14,1.35.81,1.39,1.59.02.45.03.89.03,1.34,0,18.32-14.9,33.23-33.22,33.23Z"/>
    </g>
  </g>
</svg>