<?xml version="1.0" encoding="UTF-8"?>
<svg id="Layer_2" data-name="Layer 2" xmlns="http://www.w3.org/2000/svg" viewBox="0 0 27.35 16.88">
  <defs>
    <style>
      .cls-1 {
        fill-rule: evenodd;
      }
    </style>
  </defs>
  <g id="_1" data-name="1">
    <path class="cls-1" d="M5.24,0h8.14v.02h8.14c.3,2.88,2.39,3.68,5.83,3.88v8.75c-2.72-.97-6.1,1.92-5.83,4.23-2.93-.01-5.36-.01-8.14-.01v-.03c-2.78,0-5.6,0-8.53.02.54-2.29-2.17-4.98-4.85-4.3V3.83c3.19-.22,4.95-1.05,5.24-3.83h0ZM11.38,7.42c0-.64.31-1.24,1.02-1.24.3,0,.55.11.75.33.19.21.29.53.29.96,0,.4-.1.72-.29.93-.2.23-.45.34-.74.34s-.54-.11-.75-.34c-.19-.2-.29-.53-.29-.98h0ZM12.41,6.59c-.14,0-.26.07-.36.19-.09.12-.15.37-.15.69s.06.53.15.67c.1.12.22.18.36.18.15,0,.28-.05.37-.19.1-.12.15-.36.15-.69,0-.3-.05-.53-.15-.65-.1-.12-.22-.19-.37-.19h0ZM12.43,11.28l2.64-5.1h.48l-2.65,5.1h-.48ZM14.5,9.96c0-.34.1-.63.26-.88.18-.24.43-.36.76-.36.3,0,.55.11.76.33.19.21.29.52.29.95,0,.65-.32,1.28-1.05,1.28-.29,0-.53-.11-.73-.33-.19-.22-.29-.54-.29-.98h0ZM15.54,9.14c-.14,0-.26.06-.36.19-.11.12-.15.36-.15.7,0,.3.06.52.15.65.09.14.22.2.36.2.16,0,.28-.06.37-.2.1-.12.16-.36.16-.69s-.06-.52-.16-.65c-.09-.13-.22-.19-.37-.19h0ZM8.25,4.89h11.24v7.47h-11.24v-7.47ZM7.09,3.26v.53h-.09v.16h-.87v-.87h.08v-.17h.88v.34ZM6.48,4.12h.53v.88h-.87v-.88h.34ZM6.48,5.17h.53v.87h-.87v-.87h.34ZM6.48,6.21h.53v.87h-.87v-.87h.34ZM6.48,7.26h.53v.87h-.87v-.87h.34ZM6.48,8.29h.53v.87h-.87v-.87h.34ZM6.48,9.34h.53v.86h-.87v-.86h.34ZM6.48,10.38h.53v.87h-.87v-.87h.34ZM6.48,11.41h.53v.87h-.87v-.87h.34ZM6.48,12.47h.53v.87h-.87v-.87h.34ZM6.39,13.5l.04-.04h.62v.87h-.91v-.83h.25ZM7.23,13.99v-.53h.86v.87h-.86v-.34ZM8.26,13.99v-.53h.87v.87h-.87v-.34ZM9.3,13.99v-.53h.87v.87h-.87v-.34ZM10.35,13.99v-.53h.87v.87h-.87v-.34ZM11.39,13.99v-.53h.88v.87h-.88v-.34ZM12.44,13.99v-.53h.86v.87h-.86v-.34ZM13.48,13.99v-.53h.87v.87h-.87v-.34ZM14.51,13.99v-.53h.87v.87h-.87v-.34ZM15.57,13.99v-.53h.87v.87h-.87v-.34ZM16.6,13.99v-.53h.87v.87h-.87v-.34ZM17.65,13.99v-.53h.86v.87h-.86v-.34ZM18.69,13.99v-.53h.87v.87h-.87v-.34ZM19.73,13.99v-.53h.87v.87h-.87v-.34ZM20.78,14.08l-.04-.04v-.62h.87v.91h-.83v-.25ZM21.25,13.26h-.51v-.87h.87v.87h-.36ZM21.25,12.2h-.51v-.87h.87v.87h-.36ZM21.25,11.17h-.51v-.87h.87v.87h-.36ZM21.25,10.12h-.51v-.85h.87v.85h-.36ZM21.25,9.08h-.51v-.87h.87v.87h-.36ZM21.25,8.04h-.51v-.87h.87v.87h-.36ZM21.25,6.99h-.51v-.87h.87v.87h-.36ZM21.25,5.95h-.51v-.87h.87v.87h-.36ZM21.25,4.91h-.51v-.87h.87v.87h-.36ZM21.25,3.87h-.51v-.87h.87v.87h-.36ZM20.65,3.26v.53h-.87v-.87h.87v.34ZM19.6,3.26v.53h-.87v-.87h.87v.34ZM18.56,3.26v.53h-.87v-.87h.87v.34ZM17.52,3.26v.53h-.86v-.87h.86v.34ZM16.48,3.26v.53h-.87v-.87h.87v.34ZM15.44,3.26v.53h-.87v-.87h.87v.34ZM14.39,3.26v.53h-.87v-.87h.87v.34ZM13.35,3.26v.53h-.87v-.87h.87v.34ZM12.3,3.26v.53h-.87v-.87h.87v.34ZM11.27,3.26v.53h-.88v-.87h.88v.34ZM10.21,3.26v.53h-.85v-.87h.85v.34ZM9.18,3.26v.53h-.88v-.87h.88v.34ZM8.14,3.26v.53h-.87v-.87h.87v.34Z"/>
  </g>
</svg>