<?xml version="1.0" encoding="UTF-8"?>
<svg id="Layer_2" data-name="Layer 2" xmlns="http://www.w3.org/2000/svg" viewBox="0 0 27.36 25.41">
  <g id="_1" data-name="1">
    <path d="M5.87,0L0,17.6v7.81h27.36v-7.81L21.5,0H5.87ZM7.33,14.14h12.77v1.12H7.33v-1.12ZM7.25,8.79h12.77v1.12H7.25v-1.12ZM7.25,5.19h12.77v1.12H7.25v-1.12ZM7.25,6.99h12.77v1.12H7.25v-1.12ZM7.33,10.53h12.77v1.12H7.33v-1.12ZM7.33,12.33h12.77v1.14H7.33v-1.14ZM17.59,23.65h-7.82v-4.11h7.82v4.11ZM1.95,17.6L6.97,1.96h13.41l5.04,15.63H1.95Z"/>
  </g>
</svg>