<?xml version="1.0" encoding="UTF-8"?>
<svg id="Layer_2" data-name="Layer 2" xmlns="http://www.w3.org/2000/svg" xmlns:xlink="http://www.w3.org/1999/xlink" viewBox="0 0 70.85 67.89">
  <defs>
    <style>
      .cls-1 {
        opacity: .14;
      }

      .cls-2 {
        fill: url(#linear-gradient-2);
      }

      .cls-3 {
        opacity: .21;
      }

      .cls-4 {
        opacity: .42;
      }

      .cls-5 {
        opacity: .55;
      }

      .cls-6 {
        opacity: .48;
      }

      .cls-7 {
        opacity: .35;
      }

      .cls-8 {
        fill: url(#linear-gradient-3);
      }

      .cls-9 {
        opacity: .08;
      }

      .cls-10 {
        opacity: .28;
      }

      .cls-11 {
        opacity: 0;
      }

      .cls-12 {
        fill: url(#linear-gradient);
      }
    </style>
    <linearGradient id="linear-gradient" x1="4.62" y1="2.96" x2="61.18" y2="59.52" gradientUnits="userSpaceOnUse">
      <stop offset="0" stop-color="#6eb5fa"/>
      <stop offset="1" stop-color="#d9f0ff"/>
    </linearGradient>
    <linearGradient id="linear-gradient-2" x1="26.71" y1="55.38" x2="38.09" y2="66.76" gradientUnits="userSpaceOnUse">
      <stop offset="0" stop-color="#e3bc61"/>
      <stop offset="1" stop-color="#fff7db"/>
    </linearGradient>
    <linearGradient id="linear-gradient-3" x1="1.23" y1="-.24" x2="64.21" y2="62.73" gradientUnits="userSpaceOnUse">
      <stop offset="0" stop-color="#2c2e2c"/>
      <stop offset=".99" stop-color="#000"/>
    </linearGradient>
  </defs>
  <g id="Layer_1-2" data-name="Layer 1">
    <g>
      <path class="cls-12" d="M8.02,1.82s-.76,5.05.38,9.47c1.14,4.42,3.66,10.98,11.48,14.77,7.83,3.79,10.35,6.06,3.91,8.58-6.44,2.52-13.88,8.96-15.4,15.78-1.51,6.82-.38,9.97-.38,9.97h49.47s.25-3.91,0-7.45c-.25-3.53-4.16-13.5-10.47-15.78-6.31-2.27-15.02-4.42-4.17-9.47,10.85-5.05,13-10.48,14.13-16.41,1.14-5.93.5-9.46.5-9.46H8.02Z"/>
      <polygon class="cls-2" points="32.62 49.91 43.78 61.07 21.02 61.07 32.62 49.91"/>
      <g>
        <path class="cls-11" d="M38.13,40.32c-.96,0-1.74.78-1.74,1.75s.78,1.75,1.74,1.75,1.75-.78,1.75-1.75-.78-1.75-1.75-1.75ZM38.13,46.47c-.96,0-1.74.78-1.74,1.74s.78,1.75,1.74,1.75,1.75-.78,1.75-1.75-.78-1.74-1.75-1.74ZM7.09,8.79h54.1c0,1.43,0,5.12,0,5.26-.1,5.01-4.54,15-13.03,17.1-3.95.98-6,2.53-6.86,5.21-.11.34-.11.7,0,1.04.87,2.68,2.92,4.24,6.86,5.21,8.5,2.1,13.01,12.33,13.03,17.28,0,.93.76,1.69,1.69,1.69s1.69-.76,1.69-1.69v-.07c-.04-6.81-5.62-18.02-15.6-20.49-2.9-.72-3.84-1.61-4.25-2.45.41-.84,1.35-1.73,4.25-2.45,9.82-2.43,15.46-13.55,15.6-20.31,0-.08,0-3.87,0-5.33h4.59c.93,0,1.69-.76,1.69-1.69s-.76-1.69-1.69-1.69H7.09c-.93,0-1.69.76-1.69,1.69s.76,1.69,1.69,1.69ZM30.93,64.52l7.15-7.14,7.14,7.14h-14.29ZM69.16,64.52h-19.17s0,0,0,0l-10.72-10.72c-.32-.32-.75-.49-1.19-.49s-.88.18-1.2.49l-10.61,10.61s-.06.08-.09.12h-11.12v-4.78c.08-5.01,4.51-15.02,13.03-17.13,3.95-.97,6-2.54,6.86-5.21.11-.34.11-.7,0-1.04-.86-2.68-2.92-4.24-6.86-5.21-8.56-2.12-13.03-12.38-13.03-17.28,0-.93-.75-1.69-1.69-1.69s-1.69.76-1.69,1.69c0,6.97,5.93,18.17,15.6,20.56,2.9.72,3.84,1.61,4.26,2.45-.42.84-1.35,1.73-4.26,2.45-9.87,2.44-15.48,13.58-15.6,20.38v4.8h-4.59c-.93,0-1.69.76-1.69,1.69s.76,1.69,1.69,1.69h62.07c.93,0,1.69-.76,1.69-1.69s-.76-1.69-1.69-1.69Z"/>
        <path class="cls-9" d="M37.5,39.69c-.96,0-1.74.78-1.74,1.75s.78,1.75,1.74,1.75,1.75-.78,1.75-1.75-.78-1.75-1.75-1.75ZM37.5,45.85c-.96,0-1.74.78-1.74,1.74s.78,1.75,1.74,1.75,1.75-.78,1.75-1.75-.78-1.74-1.75-1.74ZM6.47,8.16h54.1c0,1.43,0,5.12,0,5.26-.05,5.01-4.54,15-13.03,17.1-3.95.98-6,2.53-6.86,5.21-.11.34-.11.7,0,1.04.87,2.68,2.92,4.24,6.86,5.21,8.5,2.1,13.02,12.33,13.03,17.28,0,.93.76,1.69,1.69,1.69s1.69-.76,1.69-1.69v-.07c-.04-6.81-5.62-18.02-15.6-20.49-2.9-.72-3.84-1.61-4.25-2.45.41-.84,1.35-1.73,4.25-2.45,9.82-2.43,15.46-13.55,15.6-20.31,0-.08,0-3.87,0-5.33h4.59c.93,0,1.69-.76,1.69-1.69s-.76-1.69-1.69-1.69H6.47c-.93,0-1.69.76-1.69,1.69s.76,1.69,1.69,1.69ZM30.31,63.89l7.15-7.14,7.14,7.14h-14.29ZM68.54,63.89h-19.17s0,0,0,0l-10.72-10.72c-.32-.32-.75-.49-1.19-.49s-.88.18-1.2.49l-10.61,10.61s-.06.08-.09.12h-11.12v-4.78c.08-5.01,4.51-15.02,13.03-17.13,3.95-.97,6.01-2.53,6.86-5.21.11-.34.11-.7,0-1.04-.86-2.68-2.92-4.24-6.86-5.21-8.56-2.12-13.03-12.38-13.03-17.28,0-.93-.75-1.69-1.69-1.69s-1.69.76-1.69,1.69c0,6.97,5.93,18.17,15.6,20.56,2.9.72,3.84,1.61,4.26,2.45-.42.84-1.35,1.73-4.26,2.45-9.87,2.44-15.48,13.58-15.6,20.38v4.8h-4.59c-.93,0-1.69.76-1.69,1.69s.76,1.69,1.69,1.69h62.07c.93,0,1.69-.76,1.69-1.69s-.76-1.69-1.69-1.69Z"/>
        <path class="cls-1" d="M36.88,39.07c-.96,0-1.74.78-1.74,1.75s.78,1.75,1.74,1.75,1.75-.78,1.75-1.75-.78-1.75-1.75-1.75ZM36.88,45.22c-.96,0-1.74.78-1.74,1.74s.78,1.75,1.74,1.75,1.75-.78,1.75-1.75-.78-1.74-1.75-1.74ZM5.84,7.54h54.1c0,1.43,0,5.12,0,5.26-.05,5.01-4.54,15-13.03,17.1-3.95.98-6,2.53-6.86,5.21-.11.34-.11.7,0,1.04.87,2.68,2.92,4.24,6.86,5.21,8.5,2.1,13.02,12.33,13.03,17.28,0,.93.76,1.69,1.69,1.69s1.69-.76,1.69-1.69v-.07c-.04-6.81-5.62-18.02-15.6-20.49-2.9-.72-3.84-1.61-4.25-2.45.41-.84,1.35-1.73,4.25-2.45,9.82-2.43,15.46-13.55,15.6-20.31,0-.08,0-3.87,0-5.33h4.59c.93,0,1.69-.76,1.69-1.69s-.76-1.69-1.69-1.69H5.84c-.93,0-1.69.76-1.69,1.69s.76,1.69,1.69,1.69ZM29.68,63.27l7.15-7.14,7.14,7.14h-14.29ZM67.91,63.27h-19.17s0,0,0,0l-10.72-10.72c-.32-.32-.75-.49-1.19-.49s-.88.18-1.2.49l-10.61,10.61s-.06.08-.09.12h-11.12v-4.78c.08-5.01,4.51-15.02,13.03-17.13,3.95-.97,6.01-2.53,6.86-5.21.11-.34.11-.7,0-1.04-.86-2.68-2.92-4.24-6.86-5.21-8.56-2.12-13.03-12.38-13.03-17.28,0-.93-.75-1.69-1.69-1.69s-1.69.76-1.69,1.69c0,6.97,5.93,18.17,15.6,20.56,2.9.72,3.84,1.61,4.26,2.45-.42.84-1.35,1.73-4.26,2.45-9.87,2.44-15.48,13.58-15.6,20.38v4.8h-4.59c-.93,0-1.69.76-1.69,1.69s.76,1.69,1.69,1.69h62.07c.93,0,1.69-.76,1.69-1.69s-.76-1.69-1.69-1.69Z"/>
        <path class="cls-3" d="M36.25,38.44c-.96,0-1.74.78-1.74,1.75s.78,1.75,1.74,1.75,1.75-.78,1.75-1.75-.78-1.75-1.75-1.75ZM36.25,44.6c-.96,0-1.74.78-1.74,1.74s.78,1.75,1.74,1.75,1.75-.78,1.75-1.75-.78-1.74-1.75-1.74ZM5.22,6.91h54.1c0,1.43,0,5.12,0,5.26-.05,5.01-4.54,15-13.03,17.1-3.95.98-6,2.53-6.86,5.21-.11.34-.11.7,0,1.04.87,2.68,2.92,4.24,6.86,5.21,8.5,2.1,13.02,12.33,13.03,17.28,0,.93.76,1.69,1.69,1.69s1.69-.76,1.69-1.69v-.07c-.04-6.81-5.62-18.02-15.6-20.49-2.9-.72-3.84-1.61-4.25-2.45.41-.84,1.35-1.73,4.25-2.45,9.82-2.43,15.46-13.55,15.6-20.31,0-.08,0-3.87,0-5.33h4.59c.93,0,1.69-.76,1.69-1.69s-.76-1.69-1.69-1.69H5.22c-.93,0-1.69.76-1.69,1.69s.76,1.69,1.69,1.69ZM29.06,62.64l7.15-7.14,7.14,7.14h-14.29ZM67.29,62.64h-19.17s0,0,0,0l-10.72-10.72c-.32-.32-.75-.49-1.19-.49s-.88.18-1.2.49l-10.61,10.61s-.06.08-.09.12h-11.12v-4.78c.08-5.01,4.51-15.02,13.03-17.13,3.95-.97,6.01-2.53,6.86-5.21.11-.34.11-.7,0-1.04-.86-2.68-2.92-4.24-6.86-5.21-8.56-2.12-13.03-12.38-13.03-17.28,0-.93-.75-1.69-1.69-1.69s-1.69.76-1.69,1.69c0,6.97,5.93,18.17,15.6,20.56,2.9.72,3.84,1.61,4.26,2.45-.42.84-1.35,1.73-4.26,2.45-9.87,2.44-15.48,13.58-15.6,20.38v4.8h-4.59c-.93,0-1.69.76-1.69,1.69s.76,1.69,1.69,1.69h62.07c.93,0,1.69-.76,1.69-1.69s-.76-1.69-1.69-1.69Z"/>
        <path class="cls-10" d="M35.63,37.82c-.96,0-1.74.78-1.74,1.75s.78,1.75,1.74,1.75,1.75-.78,1.75-1.75-.78-1.75-1.75-1.75ZM35.63,43.97c-.96,0-1.74.78-1.74,1.74s.78,1.75,1.74,1.75,1.75-.78,1.75-1.75-.78-1.74-1.75-1.74ZM4.59,6.29h54.1c0,1.43,0,5.12,0,5.26-.05,5.01-4.54,15-13.03,17.1-3.95.98-6,2.53-6.86,5.21-.11.34-.11.7,0,1.04.87,2.68,2.92,4.24,6.86,5.21,8.5,2.1,13.02,12.33,13.03,17.28,0,.93.76,1.69,1.69,1.69s1.69-.76,1.69-1.69v-.07c-.04-6.81-5.62-18.02-15.6-20.49-2.9-.72-3.84-1.61-4.25-2.45.41-.84,1.35-1.73,4.25-2.45,9.82-2.43,15.46-13.55,15.6-20.31,0-.08,0-3.87,0-5.33h4.59c.93,0,1.69-.76,1.69-1.69s-.76-1.69-1.69-1.69H4.59c-.93,0-1.69.76-1.69,1.69s.76,1.69,1.69,1.69ZM28.43,62.02l7.15-7.14,7.14,7.14h-14.29ZM66.66,62.02h-19.17s0,0,0,0l-10.72-10.72c-.32-.32-.75-.49-1.19-.49s-.88.18-1.2.49l-10.61,10.61s-.06.08-.09.12h-11.12v-4.78c.08-5.01,4.51-15.02,13.03-17.13,3.95-.97,6.01-2.53,6.86-5.21.11-.34.11-.7,0-1.04-.86-2.68-2.92-4.24-6.86-5.21-8.56-2.12-13.03-12.38-13.03-17.28,0-.93-.75-1.69-1.69-1.69s-1.69.76-1.69,1.69c0,6.97,5.93,18.17,15.6,20.56,2.9.72,3.84,1.61,4.26,2.45-.42.84-1.35,1.73-4.26,2.45-9.87,2.44-15.48,13.58-15.6,20.38v4.8h-4.59c-.93,0-1.69.76-1.69,1.69s.76,1.69,1.69,1.69h62.07c.93,0,1.69-.76,1.69-1.69s-.76-1.69-1.69-1.69Z"/>
        <path class="cls-7" d="M35,37.19c-.96,0-1.74.78-1.74,1.75s.78,1.75,1.74,1.75,1.75-.78,1.75-1.75-.78-1.75-1.75-1.75ZM35,43.35c-.96,0-1.74.78-1.74,1.74s.78,1.75,1.74,1.75,1.75-.78,1.75-1.75-.78-1.74-1.75-1.74ZM3.97,5.66h54.1c0,1.43,0,5.12,0,5.26-.05,5.01-4.54,15-13.03,17.1-3.95.98-6,2.53-6.86,5.21-.11.34-.11.7,0,1.04.87,2.68,2.92,4.24,6.86,5.21,8.5,2.1,13.02,12.33,13.03,17.28,0,.93.76,1.69,1.69,1.69s1.69-.76,1.69-1.69v-.07c-.04-6.81-5.62-18.02-15.6-20.49-2.9-.72-3.84-1.61-4.25-2.45.41-.84,1.35-1.73,4.25-2.45,9.82-2.43,15.46-13.55,15.6-20.31,0-.08,0-3.87,0-5.33h4.59c.93,0,1.69-.76,1.69-1.69s-.76-1.69-1.69-1.69H3.97c-.93,0-1.69.76-1.69,1.69s.76,1.69,1.69,1.69ZM27.81,61.39l7.15-7.14,7.14,7.14h-14.29ZM66.04,61.39h-19.17s0,0,0,0l-10.72-10.72c-.32-.32-.75-.49-1.19-.49s-.88.18-1.2.49l-10.61,10.61s-.06.08-.09.12h-11.12v-4.78c.08-5.01,4.51-15.02,13.03-17.13,3.95-.97,6.01-2.53,6.86-5.21.11-.34.11-.7,0-1.04-.86-2.68-2.92-4.24-6.86-5.21-8.56-2.12-13.03-12.38-13.03-17.28,0-.93-.75-1.69-1.69-1.69s-1.69.76-1.69,1.69c0,6.97,5.93,18.17,15.6,20.56,2.9.72,3.84,1.61,4.26,2.45-.42.84-1.35,1.73-4.26,2.45-9.87,2.44-15.48,13.58-15.6,20.38v4.8H3.97c-.93,0-1.69.76-1.69,1.69s.76,1.69,1.69,1.69h62.07c.93,0,1.69-.76,1.69-1.69s-.76-1.69-1.69-1.69Z"/>
        <path class="cls-4" d="M34.38,36.57c-.96,0-1.74.78-1.74,1.75s.78,1.75,1.74,1.75,1.75-.78,1.75-1.75-.78-1.75-1.75-1.75ZM34.38,42.72c-.96,0-1.74.78-1.74,1.74s.78,1.75,1.74,1.75,1.75-.78,1.75-1.75-.78-1.74-1.75-1.74ZM3.34,5.04h54.1c0,1.43,0,5.12,0,5.26-.05,5.01-4.54,15-13.03,17.1-3.95.98-6,2.53-6.86,5.21-.11.34-.11.7,0,1.04.87,2.68,2.92,4.24,6.86,5.21,8.5,2.1,13.02,12.33,13.03,17.28,0,.93.76,1.69,1.69,1.69s1.69-.76,1.69-1.69v-.07c-.04-6.81-5.62-18.02-15.6-20.49-2.9-.72-3.84-1.61-4.25-2.45.41-.84,1.35-1.73,4.25-2.45,9.82-2.43,15.46-13.55,15.6-20.31,0-.08,0-3.87,0-5.33h4.59c.93,0,1.69-.76,1.69-1.69s-.76-1.69-1.69-1.69H3.34c-.93,0-1.69.76-1.69,1.69s.76,1.69,1.69,1.69ZM27.18,60.77l7.15-7.14,7.14,7.14h-14.29ZM65.41,60.77h-19.17s0,0,0,0l-10.72-10.72c-.32-.32-.75-.49-1.19-.49s-.88.18-1.2.49l-10.61,10.61s-.06.08-.09.12h-11.12v-4.78c.08-5.01,4.51-15.02,13.03-17.13,3.95-.97,6.01-2.53,6.86-5.21.11-.34.11-.7,0-1.04-.86-2.68-2.92-4.24-6.86-5.21-8.56-2.12-13.03-12.38-13.03-17.28,0-.93-.75-1.69-1.69-1.69s-1.69.76-1.69,1.69c0,6.97,5.93,18.17,15.6,20.56,2.9.72,3.84,1.61,4.26,2.45-.42.84-1.35,1.73-4.26,2.45-9.87,2.44-15.48,13.58-15.6,20.38v4.8H3.34c-.93,0-1.69.76-1.69,1.69s.76,1.69,1.69,1.69h62.07c.93,0,1.69-.76,1.69-1.69s-.76-1.69-1.69-1.69Z"/>
        <path class="cls-6" d="M33.75,35.94c-.96,0-1.74.78-1.74,1.75s.78,1.75,1.74,1.75,1.75-.78,1.75-1.75-.78-1.75-1.75-1.75ZM33.75,42.1c-.96,0-1.74.78-1.74,1.74s.78,1.75,1.74,1.75,1.75-.78,1.75-1.75-.78-1.74-1.75-1.74ZM2.72,4.41h54.1c0,1.43,0,5.12,0,5.26-.05,5.01-4.54,15-13.03,17.1-3.95.98-6,2.53-6.86,5.21-.11.34-.11.7,0,1.04.87,2.68,2.92,4.24,6.86,5.21,8.5,2.1,13.02,12.33,13.03,17.28,0,.93.76,1.69,1.69,1.69s1.69-.76,1.69-1.69v-.07c-.04-6.81-5.62-18.02-15.6-20.49-2.9-.72-3.84-1.61-4.25-2.45.41-.84,1.35-1.73,4.25-2.45,9.82-2.43,15.46-13.55,15.6-20.31,0-.08,0-3.87,0-5.33h4.59c.93,0,1.69-.76,1.69-1.69s-.76-1.69-1.69-1.69H2.72c-.93,0-1.69.76-1.69,1.69s.76,1.69,1.69,1.69ZM26.56,60.14l7.15-7.14,7.14,7.14h-14.29ZM64.79,60.14h-19.17s0,0,0,0l-10.72-10.72c-.32-.32-.75-.49-1.19-.49s-.88.18-1.2.49l-10.61,10.61s-.06.08-.09.12h-11.12v-4.78c.08-5.01,4.51-15.02,13.03-17.13,3.95-.97,6.01-2.53,6.86-5.21.11-.34.11-.7,0-1.04-.86-2.68-2.92-4.24-6.86-5.21-8.56-2.12-13.03-12.38-13.03-17.28,0-.93-.75-1.69-1.69-1.69s-1.69.76-1.69,1.69c0,6.97,5.93,18.17,15.6,20.56,2.9.72,3.84,1.61,4.26,2.45-.42.84-1.35,1.73-4.26,2.45-9.87,2.44-15.48,13.58-15.6,20.38v4.8H2.72c-.93,0-1.69.76-1.69,1.69s.76,1.69,1.69,1.69h62.07c.93,0,1.69-.76,1.69-1.69s-.76-1.69-1.69-1.69Z"/>
        <path class="cls-5" d="M33.13,35.32c-.96,0-1.74.78-1.74,1.75s.78,1.75,1.74,1.75,1.75-.78,1.75-1.75-.78-1.75-1.75-1.75ZM33.13,41.47c-.96,0-1.74.78-1.74,1.74s.78,1.75,1.74,1.75,1.75-.78,1.75-1.75-.78-1.74-1.75-1.74ZM2.09,3.79h54.1c0,1.43,0,5.12,0,5.26-.1,5.01-4.54,15-13.03,17.1-3.95.98-6,2.53-6.86,5.21-.11.34-.11.7,0,1.04.87,2.68,2.92,4.24,6.86,5.21,8.5,2.1,13.01,12.33,13.03,17.28,0,.93.76,1.69,1.69,1.69s1.69-.76,1.69-1.69v-.07c-.04-6.81-5.62-18.02-15.6-20.49-2.9-.72-3.84-1.61-4.25-2.45.41-.84,1.35-1.73,4.25-2.45,9.82-2.43,15.46-13.55,15.6-20.31,0-.08,0-3.87,0-5.33h4.59c.93,0,1.69-.76,1.69-1.69s-.76-1.69-1.69-1.69H2.09C1.16.41.41,1.16.41,2.1s.76,1.69,1.69,1.69ZM25.93,59.52l7.15-7.14,7.14,7.14h-14.29ZM64.16,59.52h-19.17s0,0,0,0l-10.72-10.72c-.32-.32-.75-.49-1.19-.49s-.88.18-1.2.49l-10.61,10.61s-.06.08-.09.12h-11.12v-4.78c.08-5.01,4.51-15.02,13.03-17.13,3.95-.97,6-2.54,6.86-5.21.11-.34.11-.7,0-1.04-.86-2.68-2.92-4.24-6.86-5.21-8.56-2.12-13.03-12.38-13.03-17.28,0-.93-.75-1.69-1.69-1.69s-1.69.76-1.69,1.69c0,6.97,5.93,18.17,15.6,20.56,2.9.72,3.84,1.61,4.26,2.45-.42.84-1.35,1.73-4.26,2.45-9.87,2.44-15.48,13.58-15.6,20.38v4.8H2.09c-.93,0-1.69.76-1.69,1.69s.76,1.69,1.69,1.69h62.07c.93,0,1.69-.76,1.69-1.69s-.76-1.69-1.69-1.69Z"/>
      </g>
      <path class="cls-8" d="M32.72,34.91c-.96,0-1.74.78-1.74,1.75s.78,1.75,1.74,1.75,1.75-.78,1.75-1.75-.78-1.75-1.75-1.75ZM32.72,41.07c-.96,0-1.74.78-1.74,1.74s.78,1.75,1.74,1.75,1.75-.78,1.75-1.75-.78-1.74-1.75-1.74ZM1.69,3.38h54.1c0,1.43,0,5.12,0,5.26-.1,5.01-4.54,15-13.03,17.1-3.95.98-6,2.53-6.86,5.21-.11.34-.11.7,0,1.04.87,2.68,2.92,4.24,6.86,5.21,8.5,2.1,13.01,12.33,13.03,17.28,0,.93.76,1.69,1.69,1.69s1.69-.76,1.69-1.69v-.07c-.04-6.81-5.62-18.02-15.6-20.49-2.9-.72-3.84-1.61-4.25-2.45.41-.84,1.35-1.73,4.25-2.45,9.82-2.43,15.46-13.55,15.6-20.31,0-.08,0-3.87,0-5.33h4.59c.93,0,1.69-.76,1.69-1.69s-.76-1.69-1.69-1.69H1.69C.76,0,0,.76,0,1.69s.76,1.69,1.69,1.69ZM63.76,59.11h-19.17s0,0,0,0l-10.72-10.72c-.32-.32-.75-.49-1.19-.49s-.88.18-1.2.49l-10.61,10.61s-.06.08-.09.12h-11.12v-4.78c.08-5.01,4.51-15.02,13.03-17.13,3.95-.97,6-2.54,6.86-5.21.11-.34.11-.7,0-1.04-.86-2.68-2.92-4.24-6.86-5.21-8.56-2.12-13.03-12.38-13.03-17.28,0-.93-.75-1.69-1.69-1.69s-1.69.76-1.69,1.69c0,6.97,5.93,18.17,15.6,20.56,2.9.72,3.84,1.61,4.26,2.45-.42.84-1.35,1.73-4.26,2.45-9.87,2.44-15.48,13.58-15.6,20.38v4.8H1.69c-.93,0-1.69.76-1.69,1.69s.76,1.69,1.69,1.69h62.07c.93,0,1.69-.76,1.69-1.69s-.76-1.69-1.69-1.69ZM25.53,59.11l7.15-7.14,7.14,7.14h-14.29Z"/>
    </g>
  </g>
</svg>