<?xml version="1.0" encoding="UTF-8"?>
<svg id="Layer_2" data-name="Layer 2" xmlns="http://www.w3.org/2000/svg" xmlns:xlink="http://www.w3.org/1999/xlink" viewBox="0 0 67.44 81.26">
  <defs>
    <style>
      .cls-1 {
        opacity: .14;
      }

      .cls-2 {
        fill: url(#linear-gradient-2);
      }

      .cls-3 {
        opacity: .21;
      }

      .cls-4 {
        opacity: .42;
      }

      .cls-5 {
        opacity: .55;
      }

      .cls-6 {
        opacity: .48;
      }

      .cls-7 {
        opacity: .35;
      }

      .cls-8 {
        fill: url(#linear-gradient-3);
      }

      .cls-9 {
        opacity: .08;
      }

      .cls-10 {
        opacity: .28;
      }

      .cls-11 {
        opacity: 0;
      }

      .cls-12 {
        fill: url(#linear-gradient);
      }
    </style>
    <linearGradient id="linear-gradient" x1="5.6" y1="12.14" x2="56.55" y2="63.1" gradientUnits="userSpaceOnUse">
      <stop offset="0" stop-color="#eb0a00"/>
      <stop offset="1" stop-color="#ff853b"/>
    </linearGradient>
    <linearGradient id="linear-gradient-2" x1="18.27" y1="17.76" x2="43.95" y2="43.44" gradientTransform="translate(14.23 -9.63) rotate(22.75)" gradientUnits="userSpaceOnUse">
      <stop offset="0" stop-color="#c0c1c0"/>
      <stop offset=".2" stop-color="#d4d4d4"/>
      <stop offset=".49" stop-color="#ebeceb"/>
      <stop offset=".77" stop-color="#fafafa"/>
      <stop offset="1" stop-color="#fff"/>
    </linearGradient>
    <linearGradient id="linear-gradient-3" x1="5.22" y1="11.73" x2="56.81" y2="63.32" gradientUnits="userSpaceOnUse">
      <stop offset="0" stop-color="#2c2e2c"/>
      <stop offset=".99" stop-color="#000"/>
    </linearGradient>
  </defs>
  <g id="Layer_1-2" data-name="Layer 1">
    <g>
      <polygon class="cls-12" points="43.95 9.24 39.22 1.61 31.29 5.58 22.59 1.91 17.71 9.54 8.87 10.91 8.71 20.07 2 25.71 6.73 33.18 3.99 42.18 12.07 45.54 14.36 54.54 18.48 54.38 18.48 73.6 31.14 67.81 43.34 73.75 43.34 54.84 47.15 55.45 49.59 45.69 57.68 42.64 54.93 33.79 60.12 25.71 53.1 20.07 52.95 10.91 43.95 9.24"/>
      <circle class="cls-2" cx="31.05" cy="30.54" r="17.34" transform="translate(-9.39 14.38) rotate(-22.75)"/>
      <g>
        <path class="cls-11" d="M36.42,51.6c-8.53,0-15.47-6.94-15.47-15.47,0-.93-.76-1.69-1.69-1.69s-1.69.76-1.69,1.69c0,10.39,8.45,18.85,18.85,18.85s18.85-8.46,18.85-18.85-8.45-18.85-18.85-18.85c-6.58,0-12.59,3.35-16.05,8.96-.49.79-.24,1.84.55,2.33.79.49,1.83.25,2.32-.55,2.84-4.61,7.77-7.36,13.18-7.36,8.53,0,15.47,6.94,15.47,15.47s-6.94,15.47-15.47,15.47ZM66.82,30l-6.58-5.35.27-8.47c.03-.88-.62-1.63-1.5-1.73l-8.42-.95-4.36-7.27c-.45-.76-1.41-1.03-2.2-.64l-7.6,3.76-7.6-3.77c-.79-.39-1.75-.11-2.2.65l-4.36,7.27-8.43.94c-.87.1-1.53.85-1.5,1.73l.27,8.47-6.58,5.35c-.68.56-.83,1.54-.33,2.27l4.8,6.99-2.64,8.05c-.27.84.14,1.74.95,2.09l7.82,3.28,2.13,8.21c.22.85,1.06,1.39,1.93,1.24l8.35-1.47,6.23,5.75c.65.6,1.64.6,2.29,0l6.02-5.49c.69-.63.74-1.7.11-2.38-.63-.69-1.7-.74-2.39-.11l-4.87,4.45-5.7-5.27c-.39-.36-.92-.51-1.44-.42l-7.64,1.34-1.95-7.5c-.13-.51-.5-.93-.98-1.13l-7.15-3,2.42-7.37c.17-.5.08-1.05-.21-1.48l-4.39-6.39,6.02-4.89c.41-.33.64-.84.62-1.37l-.24-7.75,7.71-.87c.53-.06.99-.36,1.26-.81l3.99-6.65,6.95,3.44c.47.23,1.03.23,1.5,0l6.95-3.44,3.99,6.65c.27.45.74.75,1.26.81l7.71.87-.24,7.75c-.02.53.21,1.04.62,1.37l6.02,4.89-4.4,6.39c-.3.44-.38.98-.21,1.48l2.42,7.37-7.15,3c-.49.2-.85.62-.98,1.13l-1.95,7.52-1.91-.33c-.48-.08-.98.05-1.35.36-.38.31-.6.77-.62,1.26v17.06s-10.15-4.88-10.15-4.88c-.46-.22-1-.22-1.46,0l-10.14,4.88v-9.99c0-.94-.76-1.69-1.69-1.69s-1.69.76-1.69,1.69v12.68c0,.58.3,1.12.79,1.43.27.17.58.26.9.26.25,0,.5-.06.73-.17l11.83-5.69,11.83,5.69c.53.25,1.14.22,1.63-.09.49-.31.79-.85.79-1.43v-17.7l1.48.25c.87.15,1.7-.39,1.92-1.24l2.13-8.21,7.82-3.28c.81-.34,1.22-1.25.95-2.09l-2.64-8.06,4.81-6.98c.5-.72.36-1.71-.33-2.27Z"/>
        <path class="cls-9" d="M35.8,50.98c-8.53,0-15.47-6.94-15.47-15.47,0-.93-.76-1.69-1.69-1.69s-1.69.76-1.69,1.69c0,10.39,8.45,18.85,18.85,18.85s18.85-8.46,18.85-18.85-8.45-18.85-18.85-18.85c-6.58,0-12.59,3.35-16.05,8.96-.49.79-.24,1.84.55,2.33.79.49,1.83.25,2.32-.55,2.84-4.61,7.77-7.36,13.18-7.36,8.53,0,15.47,6.94,15.47,15.47s-6.94,15.47-15.47,15.47ZM66.19,29.38l-6.58-5.35.27-8.47c.03-.88-.62-1.63-1.5-1.73l-8.42-.95-4.36-7.27c-.45-.76-1.41-1.03-2.2-.64l-7.6,3.76-7.6-3.77c-.79-.39-1.75-.11-2.2.65l-4.36,7.27-8.43.94c-.87.1-1.53.85-1.5,1.73l.27,8.47-6.58,5.35c-.68.56-.83,1.54-.33,2.27l4.8,6.99-2.64,8.05c-.27.84.14,1.74.95,2.09l7.82,3.28,2.13,8.21c.22.85,1.06,1.39,1.93,1.24l8.35-1.47,6.23,5.75c.65.6,1.64.6,2.29,0l6.02-5.49c.69-.63.74-1.7.11-2.38-.63-.69-1.7-.74-2.39-.11l-4.87,4.45-5.7-5.27c-.39-.36-.92-.51-1.44-.42l-7.64,1.34-1.95-7.5c-.13-.51-.5-.93-.98-1.13l-7.15-3,2.42-7.37c.17-.5.08-1.05-.21-1.48l-4.39-6.39,6.02-4.89c.41-.33.64-.84.62-1.37l-.24-7.75,7.71-.87c.53-.06.99-.36,1.26-.81l3.99-6.65,6.95,3.44c.47.23,1.03.23,1.5,0l6.95-3.44,3.99,6.65c.27.45.74.75,1.26.81l7.71.87-.24,7.75c-.02.53.21,1.04.62,1.37l6.02,4.89-4.4,6.39c-.3.44-.38.98-.21,1.48l2.42,7.37-7.15,3c-.49.2-.85.62-.98,1.13l-1.95,7.52-1.91-.33c-.48-.08-.98.05-1.35.36-.38.31-.6.77-.62,1.26v17.06s-10.15-4.88-10.15-4.88c-.46-.22-1-.22-1.46,0l-10.14,4.88v-9.99c0-.94-.76-1.69-1.69-1.69s-1.69.76-1.69,1.69v12.68c0,.58.3,1.12.79,1.43.27.17.58.26.9.26.25,0,.5-.06.73-.17l11.83-5.69,11.83,5.69c.53.25,1.14.22,1.63-.09.49-.31.79-.85.79-1.43v-17.7l1.48.25c.87.15,1.7-.39,1.92-1.24l2.13-8.21,7.82-3.28c.81-.34,1.22-1.25.95-2.09l-2.64-8.06,4.81-6.98c.5-.72.36-1.71-.33-2.27Z"/>
        <path class="cls-1" d="M35.17,50.35c-8.53,0-15.47-6.94-15.47-15.47,0-.93-.76-1.69-1.69-1.69s-1.69.76-1.69,1.69c0,10.39,8.45,18.85,18.85,18.85s18.85-8.46,18.85-18.85-8.45-18.85-18.85-18.85c-6.58,0-12.59,3.35-16.05,8.96-.49.79-.24,1.84.55,2.33.79.49,1.83.25,2.32-.55,2.84-4.61,7.77-7.36,13.18-7.36,8.53,0,15.47,6.94,15.47,15.47s-6.94,15.47-15.47,15.47ZM65.57,28.75l-6.58-5.35.27-8.47c.03-.88-.62-1.63-1.5-1.73l-8.42-.95-4.36-7.27c-.45-.76-1.41-1.03-2.2-.64l-7.6,3.76-7.6-3.77c-.79-.39-1.75-.11-2.2.65l-4.36,7.27-8.43.94c-.87.1-1.53.85-1.5,1.73l.27,8.47-6.58,5.35c-.68.56-.83,1.54-.33,2.27l4.8,6.99-2.64,8.05c-.27.84.14,1.74.95,2.09l7.82,3.28,2.13,8.21c.22.85,1.06,1.39,1.93,1.24l8.35-1.47,6.23,5.75c.65.6,1.64.6,2.29,0l6.02-5.49c.69-.63.74-1.7.11-2.38-.63-.69-1.7-.74-2.39-.11l-4.87,4.45-5.7-5.27c-.39-.36-.92-.51-1.44-.42l-7.64,1.34-1.95-7.5c-.13-.51-.5-.93-.98-1.13l-7.15-3,2.42-7.37c.17-.5.08-1.05-.21-1.48l-4.39-6.39,6.02-4.89c.41-.33.64-.84.62-1.37l-.24-7.75,7.71-.87c.53-.06.99-.36,1.26-.81l3.99-6.65,6.95,3.44c.47.23,1.03.23,1.5,0l6.95-3.44,3.99,6.65c.27.45.74.75,1.26.81l7.71.87-.24,7.75c-.02.53.21,1.04.62,1.37l6.02,4.89-4.4,6.39c-.3.44-.38.98-.21,1.48l2.42,7.37-7.15,3c-.49.2-.85.62-.98,1.13l-1.95,7.52-1.91-.33c-.48-.08-.98.05-1.35.36-.38.31-.6.77-.62,1.26v17.06s-10.15-4.88-10.15-4.88c-.46-.22-1-.22-1.46,0l-10.14,4.88v-9.99c0-.94-.76-1.69-1.69-1.69s-1.69.76-1.69,1.69v12.68c0,.58.3,1.12.79,1.43.27.17.58.26.9.26.25,0,.5-.06.73-.17l11.83-5.69,11.83,5.69c.53.25,1.14.22,1.63-.09.49-.31.79-.85.79-1.43v-17.7l1.48.25c.87.15,1.7-.39,1.92-1.24l2.13-8.21,7.82-3.28c.81-.34,1.22-1.25.95-2.09l-2.64-8.06,4.81-6.98c.5-.72.36-1.71-.33-2.27Z"/>
        <path class="cls-3" d="M34.55,49.73c-8.53,0-15.47-6.94-15.47-15.47,0-.93-.76-1.69-1.69-1.69s-1.69.76-1.69,1.69c0,10.39,8.45,18.85,18.85,18.85s18.85-8.46,18.85-18.85-8.45-18.85-18.85-18.85c-6.58,0-12.59,3.35-16.05,8.96-.49.79-.24,1.84.55,2.33.79.49,1.83.25,2.32-.55,2.84-4.61,7.77-7.36,13.18-7.36,8.53,0,15.47,6.94,15.47,15.47s-6.94,15.47-15.47,15.47ZM64.94,28.13l-6.58-5.35.27-8.47c.03-.88-.62-1.63-1.5-1.73l-8.42-.95-4.36-7.27c-.45-.76-1.41-1.03-2.2-.64l-7.6,3.76-7.6-3.77c-.79-.39-1.75-.11-2.2.65l-4.36,7.27-8.43.94c-.87.1-1.53.85-1.5,1.73l.27,8.47-6.58,5.35c-.68.56-.83,1.54-.33,2.27l4.8,6.99-2.64,8.05c-.27.84.14,1.74.95,2.09l7.82,3.28,2.13,8.21c.22.85,1.06,1.39,1.93,1.24l8.35-1.47,6.23,5.75c.65.6,1.64.6,2.29,0l6.02-5.49c.69-.63.74-1.7.11-2.38-.63-.69-1.7-.74-2.39-.11l-4.87,4.45-5.7-5.27c-.39-.36-.92-.51-1.44-.42l-7.64,1.34-1.95-7.5c-.13-.51-.5-.93-.98-1.13l-7.15-3,2.42-7.37c.17-.5.08-1.05-.21-1.48l-4.39-6.39,6.02-4.89c.41-.33.64-.84.62-1.37l-.24-7.75,7.71-.87c.53-.06.99-.36,1.26-.81l3.99-6.65,6.95,3.44c.47.23,1.03.23,1.5,0l6.95-3.44,3.99,6.65c.27.45.74.75,1.26.81l7.71.87-.24,7.75c-.02.53.21,1.04.62,1.37l6.02,4.89-4.4,6.39c-.3.44-.38.98-.21,1.48l2.42,7.37-7.15,3c-.49.2-.85.62-.98,1.13l-1.95,7.52-1.91-.33c-.48-.08-.98.05-1.35.36-.38.31-.6.77-.62,1.26v17.06s-10.15-4.88-10.15-4.88c-.46-.22-1-.22-1.46,0l-10.14,4.88v-9.99c0-.94-.76-1.69-1.69-1.69s-1.69.76-1.69,1.69v12.68c0,.58.3,1.12.79,1.43.27.17.58.26.9.26.25,0,.5-.06.73-.17l11.83-5.69,11.83,5.69c.53.25,1.14.22,1.63-.09.49-.31.79-.85.79-1.43v-17.7l1.48.25c.87.15,1.7-.39,1.92-1.24l2.13-8.21,7.82-3.28c.81-.34,1.22-1.25.95-2.09l-2.64-8.06,4.81-6.98c.5-.72.36-1.71-.33-2.27Z"/>
        <path class="cls-10" d="M33.92,49.1c-8.53,0-15.47-6.94-15.47-15.47,0-.93-.76-1.69-1.69-1.69s-1.69.76-1.69,1.69c0,10.39,8.45,18.85,18.85,18.85s18.85-8.46,18.85-18.85-8.45-18.85-18.85-18.85c-6.58,0-12.59,3.35-16.05,8.96-.49.79-.24,1.84.55,2.33.79.49,1.83.25,2.32-.55,2.84-4.61,7.77-7.36,13.18-7.36,8.53,0,15.47,6.94,15.47,15.47s-6.94,15.47-15.47,15.47ZM64.32,27.5l-6.58-5.35.27-8.47c.03-.88-.62-1.63-1.5-1.73l-8.42-.95-4.36-7.27c-.45-.76-1.41-1.03-2.2-.64l-7.6,3.76-7.6-3.77c-.79-.39-1.75-.11-2.2.65l-4.36,7.27-8.43.94c-.87.1-1.53.85-1.5,1.73l.27,8.47-6.58,5.35c-.68.56-.83,1.54-.33,2.27l4.8,6.99-2.64,8.05c-.27.84.14,1.74.95,2.09l7.82,3.28,2.13,8.21c.22.85,1.06,1.39,1.93,1.24l8.35-1.47,6.23,5.75c.65.6,1.64.6,2.29,0l6.02-5.49c.69-.63.74-1.7.11-2.38-.63-.69-1.7-.74-2.39-.11l-4.87,4.45-5.7-5.27c-.39-.36-.92-.51-1.44-.42l-7.64,1.34-1.95-7.5c-.13-.51-.5-.93-.98-1.13l-7.15-3,2.42-7.37c.17-.5.08-1.05-.21-1.48l-4.39-6.39,6.02-4.89c.41-.33.64-.84.62-1.37l-.24-7.75,7.71-.87c.53-.06.99-.36,1.26-.81l3.99-6.65,6.95,3.44c.47.23,1.03.23,1.5,0l6.95-3.44,3.99,6.65c.27.45.74.75,1.26.81l7.71.87-.24,7.75c-.02.53.21,1.04.62,1.37l6.02,4.89-4.4,6.39c-.3.44-.38.98-.21,1.48l2.42,7.37-7.15,3c-.49.2-.85.62-.98,1.13l-1.95,7.52-1.91-.33c-.48-.08-.98.05-1.35.36-.38.31-.6.77-.62,1.26v17.06s-10.15-4.88-10.15-4.88c-.46-.22-1-.22-1.46,0l-10.14,4.88v-9.99c0-.94-.76-1.69-1.69-1.69s-1.69.76-1.69,1.69v12.68c0,.58.3,1.12.79,1.43.27.17.58.26.9.26.25,0,.5-.06.73-.17l11.83-5.69,11.83,5.69c.53.25,1.14.22,1.63-.09.49-.31.79-.85.79-1.43v-17.7l1.48.25c.87.15,1.7-.39,1.92-1.24l2.13-8.21,7.82-3.28c.81-.34,1.22-1.25.95-2.09l-2.64-8.06,4.81-6.98c.5-.72.36-1.71-.33-2.27Z"/>
        <path class="cls-7" d="M33.3,48.48c-8.53,0-15.47-6.94-15.47-15.47,0-.93-.76-1.69-1.69-1.69s-1.69.76-1.69,1.69c0,10.39,8.45,18.85,18.85,18.85s18.85-8.46,18.85-18.85-8.45-18.85-18.85-18.85c-6.58,0-12.59,3.35-16.05,8.96-.49.79-.24,1.84.55,2.33.79.49,1.83.25,2.32-.55,2.84-4.61,7.77-7.36,13.18-7.36,8.53,0,15.47,6.94,15.47,15.47s-6.94,15.47-15.47,15.47ZM63.69,26.88l-6.58-5.35.27-8.47c.03-.88-.62-1.63-1.5-1.73l-8.42-.95-4.36-7.27c-.45-.76-1.41-1.03-2.2-.64l-7.6,3.76-7.6-3.77c-.79-.39-1.75-.11-2.2.65l-4.36,7.27-8.43.94c-.87.1-1.53.85-1.5,1.73l.27,8.47-6.58,5.35c-.68.56-.83,1.54-.33,2.27l4.8,6.99-2.64,8.05c-.27.84.14,1.74.95,2.09l7.82,3.28,2.13,8.21c.22.85,1.06,1.39,1.93,1.24l8.35-1.47,6.23,5.75c.65.6,1.64.6,2.29,0l6.02-5.49c.69-.63.74-1.7.11-2.38-.63-.69-1.7-.74-2.39-.11l-4.87,4.45-5.7-5.27c-.39-.36-.92-.51-1.44-.42l-7.64,1.34-1.95-7.5c-.13-.51-.5-.93-.98-1.13l-7.15-3,2.42-7.37c.17-.5.08-1.05-.21-1.48l-4.39-6.39,6.02-4.89c.41-.33.64-.84.62-1.37l-.24-7.75,7.71-.87c.53-.06.99-.36,1.26-.81l3.99-6.65,6.95,3.44c.47.23,1.03.23,1.5,0l6.95-3.44,3.99,6.65c.27.45.74.75,1.26.81l7.71.87-.24,7.75c-.02.53.21,1.04.62,1.37l6.02,4.89-4.4,6.39c-.3.44-.38.98-.21,1.48l2.42,7.37-7.15,3c-.49.2-.85.62-.98,1.13l-1.95,7.52-1.91-.33c-.48-.08-.98.05-1.35.36-.38.31-.6.77-.62,1.26v17.06s-10.15-4.88-10.15-4.88c-.46-.22-1-.22-1.46,0l-10.14,4.88v-9.99c0-.94-.76-1.69-1.69-1.69s-1.69.76-1.69,1.69v12.68c0,.58.3,1.12.79,1.43.27.17.58.26.9.26.25,0,.5-.06.73-.17l11.83-5.69,11.83,5.69c.53.25,1.14.22,1.63-.09.49-.31.79-.85.79-1.43v-17.7l1.48.25c.87.15,1.7-.39,1.92-1.24l2.13-8.21,7.82-3.28c.81-.34,1.22-1.25.95-2.09l-2.64-8.06,4.81-6.98c.5-.72.36-1.71-.33-2.27Z"/>
        <path class="cls-4" d="M32.67,47.85c-8.53,0-15.47-6.94-15.47-15.47,0-.93-.76-1.69-1.69-1.69s-1.69.76-1.69,1.69c0,10.39,8.45,18.85,18.85,18.85s18.85-8.46,18.85-18.85-8.45-18.85-18.85-18.85c-6.58,0-12.59,3.35-16.05,8.96-.49.79-.24,1.84.55,2.33.79.49,1.83.25,2.32-.55,2.84-4.61,7.77-7.36,13.18-7.36,8.53,0,15.47,6.94,15.47,15.47s-6.94,15.47-15.47,15.47ZM63.07,26.25l-6.58-5.35.27-8.47c.03-.88-.62-1.63-1.5-1.73l-8.42-.95-4.36-7.27c-.45-.76-1.41-1.03-2.2-.64l-7.6,3.76-7.6-3.77c-.79-.39-1.75-.11-2.2.65l-4.36,7.27-8.43.94c-.87.1-1.53.85-1.5,1.73l.27,8.47-6.58,5.35c-.68.56-.83,1.54-.33,2.27l4.8,6.99-2.64,8.05c-.27.84.14,1.74.95,2.09l7.82,3.28,2.13,8.21c.22.85,1.06,1.39,1.93,1.24l8.35-1.47,6.23,5.75c.65.6,1.64.6,2.29,0l6.02-5.49c.69-.63.74-1.7.11-2.38-.63-.69-1.7-.74-2.39-.11l-4.87,4.45-5.7-5.27c-.39-.36-.92-.51-1.44-.42l-7.64,1.34-1.95-7.5c-.13-.51-.5-.93-.98-1.13l-7.15-3,2.42-7.37c.17-.5.08-1.05-.21-1.48l-4.39-6.39,6.02-4.89c.41-.33.64-.84.62-1.37l-.24-7.75,7.71-.87c.53-.06.99-.36,1.26-.81l3.99-6.65,6.95,3.44c.47.23,1.03.23,1.5,0l6.95-3.44,3.99,6.65c.27.45.74.75,1.26.81l7.71.87-.24,7.75c-.02.53.21,1.04.62,1.37l6.02,4.89-4.4,6.39c-.3.44-.38.98-.21,1.48l2.42,7.37-7.15,3c-.49.2-.85.62-.98,1.13l-1.95,7.52-1.91-.33c-.48-.08-.98.05-1.35.36-.38.31-.6.77-.62,1.26v17.06s-10.15-4.88-10.15-4.88c-.46-.22-1-.22-1.46,0l-10.14,4.88v-9.99c0-.94-.76-1.69-1.69-1.69s-1.69.76-1.69,1.69v12.68c0,.58.3,1.12.79,1.43.27.17.58.26.9.26.25,0,.5-.06.73-.17l11.83-5.69,11.83,5.69c.53.25,1.14.22,1.63-.09.49-.31.79-.85.79-1.43v-17.7l1.48.25c.87.15,1.7-.39,1.92-1.24l2.13-8.21,7.82-3.28c.81-.34,1.22-1.25.95-2.09l-2.64-8.06,4.81-6.98c.5-.72.36-1.71-.33-2.27Z"/>
        <path class="cls-6" d="M32.05,47.23c-8.53,0-15.47-6.94-15.47-15.47,0-.93-.76-1.69-1.69-1.69s-1.69.76-1.69,1.69c0,10.39,8.45,18.85,18.85,18.85s18.85-8.46,18.85-18.85-8.45-18.85-18.85-18.85c-6.58,0-12.59,3.35-16.05,8.96-.49.79-.24,1.84.55,2.33.79.49,1.83.25,2.32-.55,2.84-4.61,7.77-7.36,13.18-7.36,8.53,0,15.47,6.94,15.47,15.47s-6.94,15.47-15.47,15.47ZM62.44,25.63l-6.58-5.35.27-8.47c.03-.88-.62-1.63-1.5-1.73l-8.42-.95-4.36-7.27c-.45-.76-1.41-1.03-2.2-.64l-7.6,3.76-7.6-3.77c-.79-.39-1.75-.11-2.2.65l-4.36,7.27-8.43.94c-.87.1-1.53.85-1.5,1.73l.27,8.47-6.58,5.35c-.68.56-.83,1.54-.33,2.27l4.8,6.99-2.64,8.05c-.27.84.14,1.74.95,2.09l7.82,3.28,2.13,8.21c.22.85,1.06,1.39,1.93,1.24l8.35-1.47,6.23,5.75c.65.6,1.64.6,2.29,0l6.02-5.49c.69-.63.74-1.7.11-2.38-.63-.69-1.7-.74-2.39-.11l-4.87,4.45-5.7-5.27c-.39-.36-.92-.51-1.44-.42l-7.64,1.34-1.95-7.5c-.13-.51-.5-.93-.98-1.13l-7.15-3,2.42-7.37c.17-.5.08-1.05-.21-1.48l-4.39-6.39,6.02-4.89c.41-.33.64-.84.62-1.37l-.24-7.75,7.71-.87c.53-.06.99-.36,1.26-.81l3.99-6.65,6.95,3.44c.47.23,1.03.23,1.5,0l6.95-3.44,3.99,6.65c.27.45.74.75,1.26.81l7.71.87-.24,7.75c-.02.53.21,1.04.62,1.37l6.02,4.89-4.4,6.39c-.3.44-.38.98-.21,1.48l2.42,7.37-7.15,3c-.49.2-.85.62-.98,1.13l-1.95,7.52-1.91-.33c-.48-.08-.98.05-1.35.36-.38.31-.6.77-.62,1.26v17.06s-10.15-4.88-10.15-4.88c-.46-.22-1-.22-1.46,0l-10.14,4.88v-9.99c0-.94-.76-1.69-1.69-1.69s-1.69.76-1.69,1.69v12.68c0,.58.3,1.12.79,1.43.27.17.58.26.9.26.25,0,.5-.06.73-.17l11.83-5.69,11.83,5.69c.53.25,1.14.22,1.63-.09.49-.31.79-.85.79-1.43v-17.7l1.48.25c.87.15,1.7-.39,1.92-1.24l2.13-8.21,7.82-3.28c.81-.34,1.22-1.25.95-2.09l-2.64-8.06,4.81-6.98c.5-.72.36-1.71-.33-2.27Z"/>
        <path class="cls-5" d="M31.42,46.6c-8.53,0-15.47-6.94-15.47-15.47,0-.93-.76-1.69-1.69-1.69s-1.69.76-1.69,1.69c0,10.39,8.45,18.85,18.85,18.85s18.85-8.46,18.85-18.85-8.45-18.85-18.85-18.85c-6.58,0-12.59,3.35-16.05,8.96-.49.79-.24,1.84.55,2.33.79.49,1.83.25,2.32-.55,2.84-4.61,7.77-7.36,13.18-7.36,8.53,0,15.47,6.94,15.47,15.47s-6.94,15.47-15.47,15.47ZM61.82,25l-6.58-5.35.27-8.47c.03-.88-.62-1.63-1.5-1.73l-8.42-.95-4.36-7.27c-.45-.76-1.41-1.03-2.2-.64l-7.6,3.76-7.6-3.77c-.79-.39-1.75-.11-2.2.65l-4.36,7.27-8.43.94c-.87.1-1.53.85-1.5,1.73l.27,8.47-6.58,5.35c-.68.56-.83,1.54-.33,2.27l4.8,6.99-2.64,8.05c-.27.84.14,1.74.95,2.09l7.82,3.28,2.13,8.21c.22.85,1.06,1.39,1.93,1.24l8.35-1.47,6.23,5.75c.65.6,1.64.6,2.29,0l6.02-5.49c.69-.63.74-1.7.11-2.38-.63-.69-1.7-.74-2.39-.11l-4.87,4.45-5.7-5.27c-.39-.36-.92-.51-1.44-.42l-7.64,1.34-1.95-7.5c-.13-.51-.5-.93-.98-1.13l-7.15-3,2.42-7.37c.17-.5.08-1.05-.21-1.48l-4.39-6.39,6.02-4.89c.41-.33.64-.84.62-1.37l-.24-7.75,7.71-.87c.53-.06.99-.36,1.26-.81l3.99-6.65,6.95,3.44c.47.23,1.03.23,1.5,0l6.95-3.44,3.99,6.65c.27.45.74.75,1.26.81l7.71.87-.24,7.75c-.02.53.21,1.04.62,1.37l6.02,4.89-4.4,6.39c-.3.44-.38.98-.21,1.48l2.42,7.37-7.15,3c-.49.2-.85.62-.98,1.13l-1.95,7.52-1.91-.33c-.48-.08-.98.05-1.35.36-.38.31-.6.77-.62,1.26v17.06s-10.15-4.88-10.15-4.88c-.46-.22-1-.22-1.46,0l-10.14,4.88v-9.99c0-.94-.76-1.69-1.69-1.69s-1.69.76-1.69,1.69v12.68c0,.58.3,1.12.79,1.43.27.17.58.26.9.26.25,0,.5-.06.73-.17l11.83-5.69,11.83,5.69c.53.25,1.14.22,1.63-.09.49-.31.79-.85.79-1.43v-17.7l1.48.25c.87.15,1.7-.39,1.92-1.24l2.13-8.21,7.82-3.28c.81-.34,1.22-1.25.95-2.09l-2.64-8.06,4.81-6.98c.5-.72.36-1.71-.33-2.27Z"/>
      </g>
      <path class="cls-8" d="M61.41,24.6l-6.58-5.35.27-8.47c.03-.88-.62-1.63-1.5-1.73l-8.42-.95-4.36-7.27c-.45-.76-1.41-1.03-2.2-.64l-7.6,3.76L23.42.17c-.79-.39-1.75-.11-2.2.65l-4.36,7.27-8.43.94c-.87.1-1.53.85-1.5,1.73l.27,8.47L.62,24.59c-.68.56-.83,1.55-.33,2.27l4.8,6.99-2.64,8.05c-.27.84.14,1.74.95,2.09l7.82,3.28,2.13,8.2c.22.85,1.06,1.39,1.93,1.24l8.35-1.47,6.23,5.75c.65.6,1.64.6,2.29,0l6.02-5.49c.69-.63.74-1.7.11-2.38-.63-.69-1.7-.74-2.39-.11l-4.87,4.45-5.7-5.27c-.39-.36-.92-.51-1.44-.42l-7.64,1.34-1.95-7.5c-.13-.51-.5-.93-.98-1.13l-7.15-3,2.42-7.37c.16-.5.08-1.05-.21-1.48l-4.39-6.39,6.02-4.89c.41-.33.64-.84.62-1.37l-.24-7.75,7.71-.87c.53-.06.99-.36,1.26-.81l3.99-6.65,6.95,3.44c.47.23,1.03.23,1.5,0l6.95-3.44,3.99,6.65c.27.45.74.75,1.26.81l7.71.87-.24,7.75c-.02.53.21,1.04.62,1.37l6.02,4.89-4.4,6.39c-.3.44-.38.98-.21,1.48l2.42,7.37-7.15,3c-.49.21-.85.62-.98,1.13l-1.95,7.52-1.91-.33c-.48-.08-.98.05-1.35.36-.38.31-.6.77-.62,1.26v17.06s-10.15-4.88-10.15-4.88c-.46-.22-1-.22-1.46,0l-10.14,4.88v-9.99c0-.94-.76-1.69-1.69-1.69s-1.69.76-1.69,1.69v12.68c0,.58.3,1.12.79,1.43.27.17.58.26.9.26.25,0,.5-.06.73-.17l11.83-5.69,11.83,5.69c.53.25,1.14.22,1.63-.09.49-.31.79-.85.79-1.43v-17.7l1.48.25c.87.15,1.7-.39,1.92-1.24l2.13-8.2,7.82-3.28c.81-.34,1.22-1.25.95-2.09l-2.64-8.06,4.81-6.98c.5-.72.36-1.71-.33-2.27ZM31.02,46.2c-8.53,0-15.47-6.94-15.47-15.47,0-.93-.76-1.69-1.69-1.69s-1.69.76-1.69,1.69c0,10.39,8.46,18.85,18.85,18.85s18.85-8.46,18.85-18.85-8.46-18.85-18.85-18.85c-6.58,0-12.59,3.35-16.05,8.96-.49.79-.24,1.84.55,2.33.79.49,1.83.25,2.32-.55,2.84-4.61,7.77-7.36,13.18-7.36,8.53,0,15.47,6.94,15.47,15.47s-6.94,15.47-15.47,15.47Z"/>
    </g>
  </g>
</svg>