<?xml version="1.0" encoding="UTF-8"?>
<svg id="Layer_2" data-name="Layer 2" xmlns="http://www.w3.org/2000/svg" xmlns:xlink="http://www.w3.org/1999/xlink" viewBox="0 0 70.95 70.95">
  <defs>
    <style>
      .cls-1 {
        opacity: .14;
      }

      .cls-2 {
        fill: url(#linear-gradient-2);
      }

      .cls-3 {
        opacity: .21;
      }

      .cls-4 {
        opacity: .42;
      }

      .cls-5 {
        opacity: .55;
      }

      .cls-6 {
        opacity: .48;
      }

      .cls-7 {
        opacity: .35;
      }

      .cls-8 {
        opacity: .08;
      }

      .cls-9 {
        opacity: .28;
      }

      .cls-10 {
        opacity: 0;
      }

      .cls-11 {
        fill: url(#linear-gradient);
      }
    </style>
    <linearGradient id="linear-gradient" x1="8.72" y1="9.09" x2="57.15" y2="57.52" gradientUnits="userSpaceOnUse">
      <stop offset="0" stop-color="#c0c1c0"/>
      <stop offset=".2" stop-color="#d4d4d4"/>
      <stop offset=".49" stop-color="#ebeceb"/>
      <stop offset=".77" stop-color="#fafafa"/>
      <stop offset="1" stop-color="#fff"/>
    </linearGradient>
    <linearGradient id="linear-gradient-2" x1="9.6" y1="9.6" x2="55.94" y2="55.94" gradientUnits="userSpaceOnUse">
      <stop offset="0" stop-color="#2c2e2c"/>
      <stop offset=".99" stop-color="#000"/>
    </linearGradient>
  </defs>
  <g id="Layer_1-2" data-name="Layer 1">
    <g>
      <path class="cls-11" d="M63.9,33.11c0,17.21-13.95,31.16-31.16,31.16S1.58,50.32,1.58,33.11,15.53,1.94,32.74,1.94s31.16,13.95,31.16,31.16Z"/>
      <g>
        <path class="cls-10" d="M38.18,5.41c-11.66,0-22.53,6.27-28.38,16.37-1.06,1.84-1.95,3.79-2.63,5.79-.3.88.17,1.84,1.05,2.14.88.3,1.84-.17,2.14-1.05.62-1.79,1.41-3.54,2.36-5.19,5.25-9.06,15-14.68,25.46-14.68,16.21,0,29.39,13.19,29.39,29.39s-13.19,29.4-29.39,29.4c-7.5,0-14.35-2.83-19.54-7.46L56.27,22.48c.66-.66.66-1.73,0-2.39-.66-.66-1.73-.66-2.39,0L16.25,57.72c-4.64-5.2-7.46-12.04-7.46-19.54,0-.93-.76-1.69-1.69-1.69s-1.69.76-1.69,1.69c0,18.07,14.7,32.78,32.78,32.78s32.77-14.7,32.77-32.78S56.25,5.41,38.18,5.41Z"/>
        <path class="cls-8" d="M37.56,4.78c-11.66,0-22.53,6.27-28.38,16.37-1.06,1.84-1.95,3.79-2.63,5.79-.3.88.17,1.84,1.05,2.14.88.3,1.84-.17,2.14-1.05.62-1.79,1.41-3.54,2.36-5.19,5.25-9.06,15-14.68,25.46-14.68,16.21,0,29.39,13.19,29.39,29.39s-13.19,29.4-29.39,29.4c-7.5,0-14.35-2.83-19.54-7.46L55.64,21.86c.66-.66.66-1.73,0-2.39-.66-.66-1.73-.66-2.39,0L15.62,57.1c-4.64-5.2-7.46-12.04-7.46-19.54,0-.93-.76-1.69-1.69-1.69s-1.69.76-1.69,1.69c0,18.07,14.7,32.78,32.78,32.78s32.77-14.7,32.77-32.78S55.63,4.78,37.56,4.78Z"/>
        <path class="cls-1" d="M36.93,4.16c-11.66,0-22.53,6.27-28.38,16.37-1.06,1.84-1.95,3.79-2.63,5.79-.3.88.17,1.84,1.05,2.14.88.3,1.84-.17,2.14-1.05.62-1.79,1.41-3.54,2.36-5.19,5.25-9.06,15-14.68,25.46-14.68,16.21,0,29.39,13.19,29.39,29.39s-13.19,29.4-29.39,29.4c-7.5,0-14.35-2.83-19.54-7.46L55.02,21.23c.66-.66.66-1.73,0-2.39-.66-.66-1.73-.66-2.39,0L15,56.47c-4.64-5.2-7.46-12.04-7.46-19.54,0-.93-.76-1.69-1.69-1.69s-1.69.76-1.69,1.69c0,18.07,14.7,32.78,32.78,32.78s32.77-14.7,32.77-32.78S55,4.16,36.93,4.16Z"/>
        <path class="cls-3" d="M36.31,3.53c-11.66,0-22.53,6.27-28.38,16.37-1.06,1.84-1.95,3.79-2.63,5.79-.3.88.17,1.84,1.05,2.14.88.3,1.84-.17,2.14-1.05.62-1.79,1.41-3.54,2.36-5.19,5.25-9.06,15-14.68,25.46-14.68,16.21,0,29.39,13.19,29.39,29.39s-13.19,29.4-29.39,29.4c-7.5,0-14.35-2.83-19.54-7.46L54.39,20.61c.66-.66.66-1.73,0-2.39-.66-.66-1.73-.66-2.39,0L14.38,55.85c-4.64-5.2-7.46-12.04-7.46-19.54,0-.93-.76-1.69-1.69-1.69s-1.69.76-1.69,1.69c0,18.07,14.7,32.78,32.78,32.78s32.77-14.7,32.77-32.78S54.38,3.53,36.31,3.53Z"/>
        <path class="cls-9" d="M35.68,2.91c-11.66,0-22.53,6.27-28.38,16.37-1.06,1.84-1.95,3.79-2.63,5.79-.3.88.17,1.84,1.05,2.14.88.3,1.84-.17,2.14-1.05.62-1.79,1.41-3.54,2.36-5.19,5.25-9.06,15-14.68,25.46-14.68,16.21,0,29.39,13.19,29.39,29.39s-13.19,29.4-29.39,29.4c-7.5,0-14.35-2.83-19.54-7.46L53.77,19.98c.66-.66.66-1.73,0-2.39-.66-.66-1.73-.66-2.39,0L13.75,55.22c-4.64-5.2-7.46-12.04-7.46-19.54,0-.93-.76-1.69-1.69-1.69s-1.69.76-1.69,1.69c0,18.07,14.7,32.78,32.78,32.78s32.77-14.7,32.77-32.78S53.75,2.91,35.68,2.91Z"/>
        <path class="cls-7" d="M35.06,2.28c-11.66,0-22.53,6.27-28.38,16.37-1.06,1.84-1.95,3.79-2.63,5.79-.3.88.17,1.84,1.05,2.14.88.3,1.84-.17,2.14-1.05.62-1.79,1.41-3.54,2.36-5.19,5.25-9.06,15-14.68,25.46-14.68,16.21,0,29.39,13.19,29.39,29.39s-13.19,29.4-29.39,29.4c-7.5,0-14.35-2.83-19.54-7.46L53.14,19.36c.66-.66.66-1.73,0-2.39-.66-.66-1.73-.66-2.39,0L13.12,54.6c-4.64-5.2-7.46-12.04-7.46-19.54,0-.93-.76-1.69-1.69-1.69s-1.69.76-1.69,1.69c0,18.07,14.7,32.78,32.78,32.78s32.77-14.7,32.77-32.78S53.13,2.28,35.06,2.28Z"/>
        <path class="cls-4" d="M34.43,1.66C22.78,1.66,11.9,7.92,6.05,18.02c-1.06,1.84-1.95,3.79-2.63,5.79-.3.88.17,1.84,1.05,2.14.88.3,1.84-.17,2.14-1.05.62-1.79,1.41-3.54,2.36-5.19,5.25-9.06,15-14.68,25.46-14.68,16.21,0,29.39,13.19,29.39,29.39s-13.19,29.4-29.39,29.4c-7.5,0-14.35-2.83-19.54-7.46L52.52,18.73c.66-.66.66-1.73,0-2.39-.66-.66-1.73-.66-2.39,0L12.5,53.97c-4.64-5.2-7.46-12.04-7.46-19.54,0-.93-.76-1.69-1.69-1.69s-1.69.76-1.69,1.69c0,18.07,14.7,32.78,32.78,32.78s32.77-14.7,32.77-32.78S52.5,1.66,34.43,1.66Z"/>
        <path class="cls-6" d="M33.81,1.03C22.15,1.03,11.28,7.3,5.43,17.4c-1.06,1.84-1.95,3.79-2.63,5.79-.3.88.17,1.84,1.05,2.14.88.3,1.84-.17,2.14-1.05.62-1.79,1.41-3.54,2.36-5.19,5.25-9.06,15-14.68,25.46-14.68,16.21,0,29.39,13.19,29.39,29.39s-13.19,29.4-29.39,29.4c-7.5,0-14.35-2.83-19.54-7.46L51.89,18.11c.66-.66.66-1.73,0-2.39-.66-.66-1.73-.66-2.39,0L11.88,53.35c-4.64-5.2-7.46-12.04-7.46-19.54,0-.93-.76-1.69-1.69-1.69s-1.69.76-1.69,1.69c0,18.07,14.7,32.78,32.78,32.78s32.77-14.7,32.77-32.78S51.88,1.03,33.81,1.03Z"/>
        <path class="cls-5" d="M33.18.41C21.53.41,10.65,6.67,4.8,16.77c-1.06,1.84-1.95,3.79-2.63,5.79-.3.88.17,1.84,1.05,2.14.88.3,1.84-.17,2.14-1.05.62-1.79,1.41-3.54,2.36-5.19C12.97,9.41,22.73,3.78,33.18,3.78c16.21,0,29.39,13.19,29.39,29.39s-13.19,29.4-29.39,29.4c-7.5,0-14.35-2.83-19.54-7.46L51.27,17.48c.66-.66.66-1.73,0-2.39-.66-.66-1.73-.66-2.39,0L11.25,52.72c-4.64-5.2-7.46-12.04-7.46-19.54,0-.93-.76-1.69-1.69-1.69s-1.69.76-1.69,1.69c0,18.07,14.7,32.78,32.78,32.78s32.77-14.7,32.77-32.78S51.25.41,33.18.41Z"/>
      </g>
      <path class="cls-2" d="M32.78,0C21.12,0,10.25,6.27,4.4,16.37c-1.06,1.84-1.95,3.79-2.63,5.79-.3.88.17,1.84,1.05,2.14.88.3,1.84-.17,2.14-1.05.62-1.79,1.41-3.54,2.36-5.19C12.57,9,22.32,3.38,32.78,3.38c16.21,0,29.39,13.19,29.39,29.39s-13.19,29.4-29.39,29.4c-7.5,0-14.35-2.83-19.54-7.46L50.86,17.08c.66-.66.66-1.73,0-2.39-.66-.66-1.73-.66-2.39,0L10.84,52.32c-4.64-5.2-7.46-12.05-7.46-19.55,0-.93-.76-1.69-1.69-1.69s-1.69.76-1.69,1.69c0,18.07,14.7,32.78,32.78,32.78s32.77-14.7,32.77-32.78S50.85,0,32.78,0Z"/>
    </g>
  </g>
</svg>