<?xml version="1.0" encoding="UTF-8"?>
<svg id="Layer_2" data-name="Layer 2" xmlns="http://www.w3.org/2000/svg" xmlns:xlink="http://www.w3.org/1999/xlink" viewBox="0 0 62.17 69.07">
  <defs>
    <style>
      .cls-1 {
        opacity: .14;
      }

      .cls-2 {
        fill: url(#linear-gradient-2);
      }

      .cls-3 {
        opacity: .21;
      }

      .cls-4 {
        opacity: .42;
      }

      .cls-5 {
        opacity: .55;
      }

      .cls-6 {
        opacity: .48;
      }

      .cls-7 {
        opacity: .35;
      }

      .cls-8 {
        opacity: .08;
      }

      .cls-9 {
        opacity: .28;
      }

      .cls-10 {
        opacity: 0;
      }

      .cls-11 {
        fill: url(#linear-gradient);
      }
    </style>
    <linearGradient id="linear-gradient" x1=".7" y1="2.66" x2="55.06" y2="57.02" gradientUnits="userSpaceOnUse">
      <stop offset="0" stop-color="#787878"/>
      <stop offset="1" stop-color="#b4b4b4"/>
    </linearGradient>
    <linearGradient id="linear-gradient-2" x1="1.83" y1="3.52" x2="54.93" y2="56.62" gradientUnits="userSpaceOnUse">
      <stop offset="0" stop-color="#2c2e2c"/>
      <stop offset=".99" stop-color="#000"/>
    </linearGradient>
  </defs>
  <g id="Layer_1-2" data-name="Layer 1">
    <g>
      <path class="cls-11" d="M54.83,51.96c0,3.72-3.13,6.73-7,6.73H8.51c-3.87,0-7-3.01-7-6.73V8.31c0-3.72,3.13-6.73,7-6.73h39.32c3.87,0,7,3.01,7,6.73v43.65Z"/>
      <g>
        <path class="cls-10" d="M51.52,17.54c.96,0,1.74-.78,1.74-1.75s-.78-1.74-1.74-1.74-1.75.78-1.75,1.74.78,1.75,1.75,1.75ZM46.19,35.86c0,3.44-1.43,6.54-3.73,8.76l-5.75-7.92,9.27-3.01c.13.71.21,1.43.21,2.17ZM44.92,30.48l-9.26,3.01v-9.71c4.08.57,7.5,3.15,9.26,6.7ZM33.97,16.42c-.93,0-1.69.75-1.69,1.69v2.25c-5.58.61-10.28,4.16-12.51,9.07l-2.12-.69c-.89-.29-1.84.2-2.13,1.09-.29.89.2,1.84,1.08,2.13l2.11.68c-.22,1.04-.34,2.12-.34,3.22,0,4.56,1.97,8.67,5.1,11.52l-1.28,1.77c-.55.75-.38,1.81.37,2.36.3.22.65.32.99.32.52,0,1.04-.24,1.37-.7l1.28-1.76c2.29,1.32,4.93,2.08,7.76,2.08s5.48-.76,7.76-2.08l1.28,1.76c.33.45.84.7,1.37.7.35,0,.69-.11.99-.32.75-.55.92-1.61.37-2.36l-1.28-1.77c3.13-2.85,5.1-6.96,5.1-11.52,0-1.11-.12-2.18-.34-3.22l2.11-.68c.89-.29,1.37-1.24,1.09-2.13-.29-.89-1.25-1.37-2.13-1.09l-2.12.69c-2.23-4.91-6.93-8.46-12.51-9.07v-2.25c0-.94-.76-1.69-1.69-1.69ZM32.29,23.78v9.71l-9.26-3.01c1.75-3.56,5.19-6.14,9.26-6.71ZM25.49,44.62c-2.29-2.22-3.72-5.33-3.72-8.76,0-.74.08-1.46.21-2.17l9.27,3.01-5.75,7.92ZM33.97,48.07c-2.08,0-4.04-.53-5.76-1.45l5.76-7.93,5.76,7.93c-1.71.93-3.68,1.45-5.76,1.45ZM53.04,5.41H14.53c-5.03,0-9.12,4.09-9.12,9.12,0,.93.76,1.69,1.69,1.69s1.69-.75,1.69-1.69c0-3.17,2.58-5.74,5.74-5.74h38.51c3.17,0,5.75,2.57,5.75,5.74v41.89c0,3.17-2.58,5.74-5.75,5.74H14.53c-3.17,0-5.74-2.58-5.74-5.74,0-.93-.76-1.69-1.69-1.69s-1.69.76-1.69,1.69c0,5.03,4.09,9.12,9.12,9.12h1.25v1.83c0,.93.76,1.69,1.69,1.69s1.69-.76,1.69-1.69v-1.83h29.25v1.83c0,.93.76,1.69,1.69,1.69s1.69-.76,1.69-1.69v-1.83h1.25c5.03,0,9.12-4.09,9.12-9.12V14.53c0-5.03-4.09-9.12-9.12-9.12ZM7.1,30.41c.93,0,1.69-.76,1.69-1.69v-6.31c0-.93-.76-1.69-1.69-1.69s-1.69.76-1.69,1.69v6.31c0,.93.76,1.69,1.69,1.69ZM7.1,50.23c.93,0,1.69-.76,1.69-1.69v-6.31c0-.93-.76-1.69-1.69-1.69s-1.69.76-1.69,1.69v6.31c0,.93.76,1.69,1.69,1.69Z"/>
        <path class="cls-8" d="M50.9,16.91c.96,0,1.74-.78,1.74-1.75s-.78-1.74-1.74-1.74-1.75.78-1.75,1.74.78,1.75,1.75,1.75ZM45.56,35.23c0,3.44-1.43,6.54-3.73,8.76l-5.75-7.92,9.27-3.01c.13.71.21,1.43.21,2.17ZM44.3,29.85l-9.26,3.01v-9.71c4.08.57,7.5,3.15,9.26,6.7ZM33.35,15.79c-.93,0-1.69.75-1.69,1.69v2.25c-5.58.61-10.28,4.16-12.51,9.07l-2.12-.69c-.89-.29-1.84.2-2.13,1.09-.29.89.2,1.84,1.08,2.13l2.11.68c-.22,1.04-.34,2.12-.34,3.22,0,4.56,1.97,8.67,5.1,11.52l-1.28,1.77c-.55.75-.39,1.81.37,2.36.3.22.65.32.99.32.52,0,1.04-.24,1.37-.7l1.28-1.76c2.29,1.32,4.93,2.08,7.76,2.08s5.48-.76,7.76-2.08l1.28,1.76c.33.45.84.7,1.37.7.35,0,.69-.1.99-.32.75-.55.92-1.61.37-2.36l-1.28-1.77c3.13-2.85,5.1-6.96,5.1-11.52,0-1.11-.12-2.18-.34-3.22l2.11-.68c.89-.29,1.37-1.25,1.09-2.13-.29-.89-1.25-1.37-2.13-1.09l-2.12.69c-2.23-4.91-6.93-8.46-12.51-9.07v-2.25c0-.94-.76-1.69-1.69-1.69ZM31.66,23.15v9.71l-9.26-3.01c1.75-3.56,5.19-6.14,9.26-6.71ZM24.86,43.99c-2.29-2.22-3.72-5.33-3.72-8.76,0-.74.08-1.46.21-2.17l9.27,3.01-5.75,7.92ZM33.35,47.45c-2.08,0-4.04-.53-5.76-1.45l5.76-7.93,5.76,7.93c-1.71.93-3.68,1.45-5.76,1.45ZM52.42,4.78H13.91c-5.03,0-9.12,4.09-9.12,9.12,0,.93.76,1.69,1.69,1.69s1.69-.75,1.69-1.69c0-3.17,2.58-5.74,5.74-5.74h38.51c3.17,0,5.75,2.57,5.75,5.74v41.89c0,3.17-2.58,5.74-5.75,5.74H13.91c-3.17,0-5.74-2.58-5.74-5.74,0-.93-.76-1.69-1.69-1.69s-1.69.76-1.69,1.69c0,5.03,4.09,9.12,9.12,9.12h1.25v1.83c0,.93.76,1.69,1.69,1.69s1.69-.76,1.69-1.69v-1.83h29.25v1.83c0,.93.76,1.69,1.69,1.69s1.69-.76,1.69-1.69v-1.83h1.25c5.03,0,9.12-4.09,9.12-9.12V13.9c0-5.03-4.09-9.12-9.12-9.12ZM6.47,29.78c.93,0,1.69-.76,1.69-1.69v-6.31c0-.93-.76-1.69-1.69-1.69s-1.69.76-1.69,1.69v6.31c0,.93.76,1.69,1.69,1.69ZM6.47,49.6c.93,0,1.69-.76,1.69-1.69v-6.31c0-.93-.76-1.69-1.69-1.69s-1.69.76-1.69,1.69v6.31c0,.93.76,1.69,1.69,1.69Z"/>
        <path class="cls-1" d="M50.27,16.29c.96,0,1.74-.78,1.74-1.75s-.78-1.74-1.74-1.74-1.75.78-1.75,1.74.78,1.75,1.75,1.75ZM44.94,34.61c0,3.44-1.43,6.54-3.73,8.76l-5.75-7.92,9.27-3.01c.13.71.21,1.43.21,2.17ZM43.67,29.23l-9.26,3.01v-9.71c4.08.57,7.5,3.15,9.26,6.7ZM32.72,15.17c-.93,0-1.69.75-1.69,1.69v2.25c-5.58.61-10.28,4.16-12.51,9.07l-2.12-.69c-.89-.29-1.84.2-2.13,1.09-.29.89.2,1.84,1.08,2.13l2.11.68c-.22,1.04-.34,2.12-.34,3.22,0,4.56,1.97,8.67,5.1,11.52l-1.28,1.77c-.55.75-.39,1.81.37,2.36.3.22.65.32.99.32.52,0,1.04-.24,1.37-.7l1.28-1.76c2.29,1.32,4.93,2.08,7.76,2.08s5.48-.76,7.76-2.08l1.28,1.76c.33.45.84.7,1.37.7.35,0,.69-.1.99-.32.75-.55.92-1.61.37-2.36l-1.28-1.77c3.13-2.85,5.1-6.96,5.1-11.52,0-1.11-.12-2.18-.34-3.22l2.11-.68c.89-.29,1.37-1.25,1.09-2.13-.29-.89-1.25-1.37-2.13-1.09l-2.12.69c-2.23-4.91-6.93-8.46-12.51-9.07v-2.25c0-.94-.76-1.69-1.69-1.69ZM31.04,22.53v9.71l-9.26-3.01c1.75-3.56,5.19-6.14,9.26-6.71ZM24.24,43.37c-2.29-2.22-3.72-5.33-3.72-8.76,0-.74.08-1.46.21-2.17l9.27,3.01-5.75,7.92ZM32.72,46.82c-2.08,0-4.04-.53-5.76-1.45l5.76-7.93,5.76,7.93c-1.71.93-3.68,1.45-5.76,1.45ZM51.79,4.16H13.28c-5.03,0-9.12,4.09-9.12,9.12,0,.93.76,1.69,1.69,1.69s1.69-.75,1.69-1.69c0-3.17,2.58-5.74,5.74-5.74h38.51c3.17,0,5.75,2.57,5.75,5.74v41.89c0,3.17-2.58,5.74-5.75,5.74H13.28c-3.17,0-5.74-2.58-5.74-5.74,0-.93-.76-1.69-1.69-1.69s-1.69.76-1.69,1.69c0,5.03,4.09,9.12,9.12,9.12h1.25v1.83c0,.93.76,1.69,1.69,1.69s1.69-.76,1.69-1.69v-1.83h29.25v1.83c0,.93.76,1.69,1.69,1.69s1.69-.76,1.69-1.69v-1.83h1.25c5.03,0,9.12-4.09,9.12-9.12V13.28c0-5.03-4.09-9.12-9.12-9.12ZM5.85,29.16c.93,0,1.69-.76,1.69-1.69v-6.31c0-.93-.76-1.69-1.69-1.69s-1.69.76-1.69,1.69v6.31c0,.93.76,1.69,1.69,1.69ZM5.85,48.98c.93,0,1.69-.76,1.69-1.69v-6.31c0-.93-.76-1.69-1.69-1.69s-1.69.76-1.69,1.69v6.31c0,.93.76,1.69,1.69,1.69Z"/>
        <path class="cls-3" d="M49.65,15.66c.96,0,1.74-.78,1.74-1.75s-.78-1.74-1.74-1.74-1.75.78-1.75,1.74.78,1.75,1.75,1.75ZM44.31,33.98c0,3.44-1.43,6.54-3.73,8.76l-5.75-7.92,9.27-3.01c.13.71.21,1.43.21,2.17ZM43.05,28.6l-9.26,3.01v-9.71c4.08.57,7.5,3.15,9.26,6.7ZM32.1,14.54c-.93,0-1.69.75-1.69,1.69v2.25c-5.58.61-10.28,4.16-12.51,9.07l-2.12-.69c-.89-.29-1.84.2-2.13,1.09-.29.89.2,1.84,1.08,2.13l2.11.68c-.22,1.04-.34,2.12-.34,3.22,0,4.56,1.97,8.67,5.1,11.52l-1.28,1.77c-.55.75-.39,1.81.37,2.36.3.22.65.32.99.32.52,0,1.04-.24,1.37-.7l1.28-1.76c2.29,1.32,4.93,2.08,7.76,2.08s5.48-.76,7.76-2.08l1.28,1.76c.33.45.84.7,1.37.7.35,0,.69-.1.99-.32.75-.55.92-1.61.37-2.36l-1.28-1.77c3.13-2.85,5.1-6.96,5.1-11.52,0-1.11-.12-2.18-.34-3.22l2.11-.68c.89-.29,1.37-1.25,1.09-2.13-.29-.89-1.25-1.37-2.13-1.09l-2.12.69c-2.23-4.91-6.93-8.46-12.51-9.07v-2.25c0-.94-.76-1.69-1.69-1.69ZM30.41,21.9v9.71l-9.26-3.01c1.75-3.56,5.19-6.14,9.26-6.71ZM23.61,42.74c-2.29-2.22-3.72-5.33-3.72-8.76,0-.74.08-1.46.21-2.17l9.27,3.01-5.75,7.92ZM32.1,46.2c-2.08,0-4.04-.53-5.76-1.45l5.76-7.93,5.76,7.93c-1.71.93-3.68,1.45-5.76,1.45ZM51.17,3.53H12.66C7.63,3.53,3.53,7.62,3.53,12.65c0,.93.76,1.69,1.69,1.69s1.69-.75,1.69-1.69c0-3.17,2.58-5.74,5.74-5.74h38.51c3.17,0,5.75,2.57,5.75,5.74v41.89c0,3.17-2.58,5.74-5.75,5.74H12.66c-3.17,0-5.74-2.58-5.74-5.74,0-.93-.76-1.69-1.69-1.69s-1.69.76-1.69,1.69c0,5.03,4.09,9.12,9.12,9.12h1.25v1.83c0,.93.76,1.69,1.69,1.69s1.69-.76,1.69-1.69v-1.83h29.25v1.83c0,.93.76,1.69,1.69,1.69s1.69-.76,1.69-1.69v-1.83h1.25c5.03,0,9.12-4.09,9.12-9.12V12.65c0-5.03-4.09-9.12-9.12-9.12ZM5.22,28.53c.93,0,1.69-.76,1.69-1.69v-6.31c0-.93-.76-1.69-1.69-1.69s-1.69.76-1.69,1.69v6.31c0,.93.76,1.69,1.69,1.69ZM5.22,48.35c.93,0,1.69-.76,1.69-1.69v-6.31c0-.93-.76-1.69-1.69-1.69s-1.69.76-1.69,1.69v6.31c0,.93.76,1.69,1.69,1.69Z"/>
        <path class="cls-9" d="M49.02,15.04c.96,0,1.74-.78,1.74-1.75s-.78-1.74-1.74-1.74-1.75.78-1.75,1.74.78,1.75,1.75,1.75ZM43.69,33.36c0,3.44-1.43,6.54-3.73,8.76l-5.75-7.92,9.27-3.01c.13.71.21,1.43.21,2.17ZM42.42,27.98l-9.26,3.01v-9.71c4.08.57,7.5,3.15,9.26,6.7ZM31.47,13.92c-.93,0-1.69.75-1.69,1.69v2.25c-5.58.61-10.28,4.16-12.51,9.07l-2.12-.69c-.89-.29-1.84.2-2.13,1.09-.29.89.2,1.84,1.08,2.13l2.11.68c-.22,1.04-.34,2.12-.34,3.22,0,4.56,1.97,8.67,5.1,11.52l-1.28,1.77c-.55.75-.39,1.81.37,2.36.3.22.65.32.99.32.52,0,1.04-.24,1.37-.7l1.28-1.76c2.29,1.32,4.93,2.08,7.76,2.08s5.48-.76,7.76-2.08l1.28,1.76c.33.45.84.7,1.37.7.35,0,.69-.1.99-.32.75-.55.92-1.61.37-2.36l-1.28-1.77c3.13-2.85,5.1-6.96,5.1-11.52,0-1.11-.12-2.18-.34-3.22l2.11-.68c.89-.29,1.37-1.25,1.09-2.13-.29-.89-1.25-1.37-2.13-1.09l-2.12.69c-2.23-4.91-6.93-8.46-12.51-9.07v-2.25c0-.94-.76-1.69-1.69-1.69ZM29.79,21.28v9.71l-9.26-3.01c1.75-3.56,5.19-6.14,9.26-6.71ZM22.99,42.12c-2.29-2.22-3.72-5.33-3.72-8.76,0-.74.08-1.46.21-2.17l9.27,3.01-5.75,7.92ZM31.47,45.57c-2.08,0-4.04-.53-5.76-1.45l5.76-7.93,5.76,7.93c-1.71.93-3.68,1.45-5.76,1.45ZM50.54,2.91H12.03C7,2.91,2.91,7,2.91,12.03c0,.93.76,1.69,1.69,1.69s1.69-.75,1.69-1.69c0-3.17,2.58-5.74,5.74-5.74h38.51c3.17,0,5.75,2.57,5.75,5.74v41.89c0,3.17-2.58,5.74-5.75,5.74H12.03c-3.17,0-5.74-2.58-5.74-5.74,0-.93-.76-1.69-1.69-1.69s-1.69.76-1.69,1.69c0,5.03,4.09,9.12,9.12,9.12h1.25v1.83c0,.93.76,1.69,1.69,1.69s1.69-.76,1.69-1.69v-1.83h29.25v1.83c0,.93.76,1.69,1.69,1.69s1.69-.76,1.69-1.69v-1.83h1.25c5.03,0,9.12-4.09,9.12-9.12V12.03c0-5.03-4.09-9.12-9.12-9.12ZM4.6,27.91c.93,0,1.69-.76,1.69-1.69v-6.31c0-.93-.76-1.69-1.69-1.69s-1.69.76-1.69,1.69v6.31c0,.93.76,1.69,1.69,1.69ZM4.6,47.73c.93,0,1.69-.76,1.69-1.69v-6.31c0-.93-.76-1.69-1.69-1.69s-1.69.76-1.69,1.69v6.31c0,.93.76,1.69,1.69,1.69Z"/>
        <path class="cls-7" d="M48.4,14.41c.96,0,1.74-.78,1.74-1.75s-.78-1.74-1.74-1.74-1.75.78-1.75,1.74.78,1.75,1.75,1.75ZM43.06,32.73c0,3.44-1.43,6.54-3.73,8.76l-5.75-7.92,9.27-3.01c.13.71.21,1.43.21,2.17ZM41.8,27.35l-9.26,3.01v-9.71c4.08.57,7.5,3.15,9.26,6.7ZM30.85,13.29c-.93,0-1.69.75-1.69,1.69v2.25c-5.58.61-10.28,4.16-12.51,9.07l-2.12-.69c-.89-.29-1.84.2-2.13,1.09-.29.89.2,1.84,1.08,2.13l2.11.68c-.22,1.04-.34,2.12-.34,3.22,0,4.56,1.97,8.67,5.1,11.52l-1.28,1.77c-.55.75-.39,1.81.37,2.36.3.22.65.32.99.32.52,0,1.04-.24,1.37-.7l1.28-1.76c2.29,1.32,4.93,2.08,7.76,2.08s5.48-.76,7.76-2.08l1.28,1.76c.33.45.84.7,1.37.7.35,0,.69-.1.99-.32.75-.55.92-1.61.37-2.36l-1.28-1.77c3.13-2.85,5.1-6.96,5.1-11.52,0-1.11-.12-2.18-.34-3.22l2.11-.68c.89-.29,1.37-1.25,1.09-2.13-.29-.89-1.25-1.37-2.13-1.09l-2.12.69c-2.23-4.91-6.93-8.46-12.51-9.07v-2.25c0-.94-.76-1.69-1.69-1.69ZM29.16,20.65v9.71l-9.26-3.01c1.75-3.56,5.19-6.14,9.26-6.71ZM22.36,41.49c-2.29-2.22-3.72-5.33-3.72-8.76,0-.74.08-1.46.21-2.17l9.27,3.01-5.75,7.92ZM30.85,44.95c-2.08,0-4.04-.53-5.76-1.45l5.76-7.93,5.76,7.93c-1.71.93-3.68,1.45-5.76,1.45ZM49.92,2.28H11.41C6.38,2.28,2.28,6.37,2.28,11.4c0,.93.76,1.69,1.69,1.69s1.69-.75,1.69-1.69c0-3.17,2.58-5.74,5.74-5.74h38.51c3.17,0,5.75,2.57,5.75,5.74v41.89c0,3.17-2.58,5.74-5.75,5.74H11.41c-3.17,0-5.74-2.58-5.74-5.74,0-.93-.76-1.69-1.69-1.69s-1.69.76-1.69,1.69c0,5.03,4.09,9.12,9.12,9.12h1.25v1.83c0,.93.76,1.69,1.69,1.69s1.69-.76,1.69-1.69v-1.83h29.25v1.83c0,.93.76,1.69,1.69,1.69s1.69-.76,1.69-1.69v-1.83h1.25c5.03,0,9.12-4.09,9.12-9.12V11.4c0-5.03-4.09-9.12-9.12-9.12ZM3.97,27.28c.93,0,1.69-.76,1.69-1.69v-6.31c0-.93-.76-1.69-1.69-1.69s-1.69.76-1.69,1.69v6.31c0,.93.76,1.69,1.69,1.69ZM3.97,47.1c.93,0,1.69-.76,1.69-1.69v-6.31c0-.93-.76-1.69-1.69-1.69s-1.69.76-1.69,1.69v6.31c0,.93.76,1.69,1.69,1.69Z"/>
        <path class="cls-4" d="M47.77,13.79c.96,0,1.74-.78,1.74-1.75s-.78-1.74-1.74-1.74-1.75.78-1.75,1.74.78,1.75,1.75,1.75ZM42.44,32.11c0,3.44-1.43,6.54-3.73,8.76l-5.75-7.92,9.27-3.01c.13.71.21,1.43.21,2.17ZM41.17,26.73l-9.26,3.01v-9.71c4.08.57,7.5,3.15,9.26,6.7ZM30.22,12.67c-.93,0-1.69.75-1.69,1.69v2.25c-5.58.61-10.28,4.16-12.51,9.07l-2.12-.69c-.89-.29-1.84.2-2.13,1.09-.29.89.2,1.84,1.08,2.13l2.11.68c-.22,1.04-.34,2.12-.34,3.22,0,4.56,1.97,8.67,5.1,11.52l-1.28,1.77c-.55.75-.39,1.81.37,2.36.3.22.65.32.99.32.52,0,1.04-.24,1.37-.7l1.28-1.76c2.29,1.32,4.93,2.08,7.76,2.08s5.48-.76,7.76-2.08l1.28,1.76c.33.45.84.7,1.37.7.35,0,.69-.1.99-.32.75-.55.92-1.61.37-2.36l-1.28-1.77c3.13-2.85,5.1-6.96,5.1-11.52,0-1.11-.12-2.18-.34-3.22l2.11-.68c.89-.29,1.37-1.25,1.09-2.13-.29-.89-1.25-1.37-2.13-1.09l-2.12.69c-2.23-4.91-6.93-8.46-12.51-9.07v-2.25c0-.94-.76-1.69-1.69-1.69ZM28.54,20.03v9.71l-9.26-3.01c1.75-3.56,5.19-6.14,9.26-6.71ZM21.74,40.87c-2.29-2.22-3.72-5.33-3.72-8.76,0-.74.08-1.46.21-2.17l9.27,3.01-5.75,7.92ZM30.22,44.32c-2.08,0-4.04-.53-5.76-1.45l5.76-7.93,5.76,7.93c-1.71.93-3.68,1.45-5.76,1.45ZM49.29,1.66H10.78C5.75,1.66,1.66,5.75,1.66,10.78c0,.93.76,1.69,1.69,1.69s1.69-.75,1.69-1.69c0-3.17,2.58-5.74,5.74-5.74h38.51c3.17,0,5.75,2.57,5.75,5.74v41.89c0,3.17-2.58,5.74-5.75,5.74H10.78c-3.17,0-5.74-2.58-5.74-5.74,0-.93-.76-1.69-1.69-1.69s-1.69.76-1.69,1.69c0,5.03,4.09,9.12,9.12,9.12h1.25v1.83c0,.93.76,1.69,1.69,1.69s1.69-.76,1.69-1.69v-1.83h29.25v1.83c0,.93.76,1.69,1.69,1.69s1.69-.76,1.69-1.69v-1.83h1.25c5.03,0,9.12-4.09,9.12-9.12V10.78c0-5.03-4.09-9.12-9.12-9.12ZM3.35,26.66c.93,0,1.69-.76,1.69-1.69v-6.31c0-.93-.76-1.69-1.69-1.69s-1.69.76-1.69,1.69v6.31c0,.93.76,1.69,1.69,1.69ZM3.35,46.48c.93,0,1.69-.76,1.69-1.69v-6.31c0-.93-.76-1.69-1.69-1.69s-1.69.76-1.69,1.69v6.31c0,.93.76,1.69,1.69,1.69Z"/>
        <path class="cls-6" d="M47.15,13.16c.96,0,1.74-.78,1.74-1.75s-.78-1.74-1.74-1.74-1.75.78-1.75,1.74.78,1.75,1.75,1.75ZM41.81,31.48c0,3.44-1.43,6.54-3.73,8.76l-5.75-7.92,9.27-3.01c.13.71.21,1.43.21,2.17ZM40.55,26.1l-9.26,3.01v-9.71c4.08.57,7.5,3.15,9.26,6.7ZM29.6,12.04c-.93,0-1.69.75-1.69,1.69v2.25c-5.58.61-10.28,4.16-12.51,9.07l-2.12-.69c-.89-.29-1.84.2-2.13,1.09-.29.89.2,1.84,1.08,2.13l2.11.68c-.22,1.04-.34,2.12-.34,3.22,0,4.56,1.97,8.67,5.1,11.52l-1.28,1.77c-.55.75-.39,1.81.37,2.36.3.22.65.32.99.32.52,0,1.04-.24,1.37-.7l1.28-1.76c2.29,1.32,4.93,2.08,7.76,2.08s5.48-.76,7.76-2.08l1.28,1.76c.33.45.84.7,1.37.7.35,0,.69-.1.99-.32.75-.55.92-1.61.37-2.36l-1.28-1.77c3.13-2.85,5.1-6.96,5.1-11.52,0-1.11-.12-2.18-.34-3.22l2.11-.68c.89-.29,1.37-1.25,1.09-2.13-.29-.89-1.25-1.37-2.13-1.09l-2.12.69c-2.23-4.91-6.93-8.46-12.51-9.07v-2.25c0-.94-.76-1.69-1.69-1.69ZM27.91,19.4v9.71l-9.26-3.01c1.75-3.56,5.19-6.14,9.26-6.71ZM21.11,40.24c-2.29-2.22-3.72-5.33-3.72-8.76,0-.74.08-1.46.21-2.17l9.27,3.01-5.75,7.92ZM29.6,43.7c-2.08,0-4.04-.53-5.76-1.45l5.76-7.93,5.76,7.93c-1.71.93-3.68,1.45-5.76,1.45ZM48.67,1.03H10.16C5.13,1.03,1.03,5.12,1.03,10.15c0,.93.76,1.69,1.69,1.69s1.69-.75,1.69-1.69c0-3.17,2.58-5.74,5.74-5.74h38.51c3.17,0,5.75,2.57,5.75,5.74v41.89c0,3.17-2.58,5.74-5.75,5.74H10.16c-3.17,0-5.74-2.58-5.74-5.74,0-.93-.76-1.69-1.69-1.69s-1.69.76-1.69,1.69c0,5.03,4.09,9.12,9.12,9.12h1.25v1.83c0,.93.76,1.69,1.69,1.69s1.69-.76,1.69-1.69v-1.83h29.25v1.83c0,.93.76,1.69,1.69,1.69s1.69-.76,1.69-1.69v-1.83h1.25c5.03,0,9.12-4.09,9.12-9.12V10.15c0-5.03-4.09-9.12-9.12-9.12ZM2.72,26.03c.93,0,1.69-.76,1.69-1.69v-6.31c0-.93-.76-1.69-1.69-1.69s-1.69.76-1.69,1.69v6.31c0,.93.76,1.69,1.69,1.69ZM2.72,45.85c.93,0,1.69-.76,1.69-1.69v-6.31c0-.93-.76-1.69-1.69-1.69s-1.69.76-1.69,1.69v6.31c0,.93.76,1.69,1.69,1.69Z"/>
        <path class="cls-5" d="M46.52,12.54c.96,0,1.74-.78,1.74-1.75s-.78-1.74-1.74-1.74-1.75.78-1.75,1.74.78,1.75,1.75,1.75ZM41.19,30.86c0,3.44-1.43,6.54-3.73,8.76l-5.75-7.92,9.27-3.01c.13.71.21,1.43.21,2.17ZM39.92,25.48l-9.26,3.01v-9.71c4.08.57,7.5,3.15,9.26,6.7ZM28.97,11.42c-.93,0-1.69.75-1.69,1.69v2.25c-5.58.61-10.28,4.16-12.51,9.07l-2.12-.69c-.89-.29-1.84.2-2.13,1.09-.29.89.2,1.84,1.08,2.13l2.11.68c-.22,1.04-.34,2.12-.34,3.22,0,4.56,1.97,8.67,5.1,11.52l-1.28,1.77c-.55.75-.38,1.81.37,2.36.3.22.65.32.99.32.52,0,1.04-.24,1.37-.7l1.28-1.76c2.29,1.32,4.93,2.08,7.76,2.08s5.48-.76,7.76-2.08l1.28,1.76c.33.45.84.7,1.37.7.35,0,.69-.11.99-.32.75-.55.92-1.61.37-2.36l-1.28-1.77c3.13-2.85,5.1-6.96,5.1-11.52,0-1.11-.12-2.18-.34-3.22l2.11-.68c.89-.29,1.37-1.24,1.09-2.13-.29-.89-1.25-1.37-2.13-1.09l-2.12.69c-2.23-4.91-6.93-8.46-12.51-9.07v-2.25c0-.94-.76-1.69-1.69-1.69ZM27.29,18.78v9.71l-9.26-3.01c1.75-3.56,5.19-6.14,9.26-6.71ZM20.49,39.62c-2.29-2.22-3.72-5.33-3.72-8.76,0-.74.08-1.46.21-2.17l9.27,3.01-5.75,7.92ZM28.97,43.07c-2.08,0-4.04-.53-5.76-1.45l5.76-7.93,5.76,7.93c-1.71.93-3.68,1.45-5.76,1.45ZM48.04.41H9.53C4.5.41.41,4.5.41,9.53c0,.93.76,1.69,1.69,1.69s1.69-.75,1.69-1.69c0-3.17,2.58-5.74,5.74-5.74h38.51c3.17,0,5.75,2.57,5.75,5.74v41.89c0,3.17-2.58,5.74-5.75,5.74H9.53c-3.17,0-5.74-2.58-5.74-5.74,0-.93-.76-1.69-1.69-1.69s-1.69.76-1.69,1.69c0,5.03,4.09,9.12,9.12,9.12h1.25v1.83c0,.93.76,1.69,1.69,1.69s1.69-.76,1.69-1.69v-1.83h29.25v1.83c0,.93.76,1.69,1.69,1.69s1.69-.76,1.69-1.69v-1.83h1.25c5.03,0,9.12-4.09,9.12-9.12V9.53c0-5.03-4.09-9.12-9.12-9.12ZM2.1,25.41c.93,0,1.69-.76,1.69-1.69v-6.31c0-.93-.76-1.69-1.69-1.69s-1.69.76-1.69,1.69v6.31c0,.93.76,1.69,1.69,1.69ZM2.1,45.23c.93,0,1.69-.76,1.69-1.69v-6.31c0-.93-.76-1.69-1.69-1.69s-1.69.76-1.69,1.69v6.31c0,.93.76,1.69,1.69,1.69Z"/>
      </g>
      <path class="cls-2" d="M46.12,12.13c.96,0,1.74-.78,1.74-1.75s-.78-1.74-1.74-1.74-1.75.78-1.75,1.74.78,1.75,1.75,1.75ZM28.57,11.01c-.93,0-1.69.75-1.69,1.69v2.25c-5.58.61-10.28,4.16-12.51,9.07l-2.12-.69c-.89-.29-1.84.2-2.13,1.09-.29.89.2,1.84,1.08,2.13l2.11.68c-.22,1.04-.34,2.12-.34,3.22,0,4.56,1.97,8.67,5.1,11.52l-1.28,1.77c-.55.75-.38,1.81.37,2.36.3.22.65.32.99.32.52,0,1.04-.24,1.37-.7l1.28-1.76c2.29,1.32,4.93,2.08,7.76,2.08s5.48-.76,7.76-2.08l1.28,1.76c.33.45.84.7,1.37.7.35,0,.69-.11.99-.32.75-.55.92-1.61.37-2.36l-1.28-1.77c3.13-2.85,5.1-6.96,5.1-11.52,0-1.11-.12-2.18-.34-3.22l2.11-.68c.89-.29,1.37-1.24,1.09-2.13-.29-.89-1.25-1.37-2.13-1.09l-2.12.69c-2.23-4.91-6.93-8.46-12.51-9.07v-2.25c0-.94-.76-1.69-1.69-1.69ZM26.88,18.37v9.71l-9.26-3c1.75-3.56,5.19-6.14,9.26-6.71ZM20.08,39.21c-2.29-2.22-3.72-5.33-3.72-8.76,0-.74.08-1.46.21-2.17l9.27,3.01-5.75,7.92ZM28.57,42.66c-2.08,0-4.04-.53-5.76-1.45l5.76-7.93,5.76,7.93c-1.71.93-3.68,1.45-5.76,1.45ZM40.78,30.45c0,3.44-1.43,6.54-3.73,8.76l-5.75-7.92,9.27-3.01c.13.71.21,1.43.21,2.17ZM39.52,25.07l-9.26,3.01v-9.71c4.08.57,7.5,3.15,9.26,6.7ZM1.69,44.82c.93,0,1.69-.76,1.69-1.69v-6.31c0-.93-.76-1.69-1.69-1.69s-1.69.76-1.69,1.69v6.31c0,.93.76,1.69,1.69,1.69ZM1.69,25c.93,0,1.69-.76,1.69-1.69v-6.31c0-.93-.76-1.69-1.69-1.69s-1.69.76-1.69,1.69v6.31c0,.93.76,1.69,1.69,1.69ZM47.64,0H9.12C4.09,0,0,4.09,0,9.12c0,.93.76,1.69,1.69,1.69s1.69-.75,1.69-1.69c0-3.17,2.58-5.74,5.74-5.74h38.51c3.17,0,5.75,2.57,5.75,5.74v41.89c0,3.17-2.58,5.74-5.75,5.74H9.12c-3.17,0-5.74-2.58-5.74-5.74,0-.93-.76-1.69-1.69-1.69s-1.69.76-1.69,1.69c0,5.03,4.09,9.12,9.12,9.12h1.25v1.83c0,.93.76,1.69,1.69,1.69s1.69-.76,1.69-1.69v-1.83h29.25v1.83c0,.93.76,1.69,1.69,1.69s1.69-.76,1.69-1.69v-1.83h1.25c5.03,0,9.12-4.09,9.12-9.12V9.12c0-5.03-4.09-9.12-9.12-9.12Z"/>
    </g>
  </g>
</svg>