<?xml version="1.0" encoding="UTF-8"?>
<svg id="Layer_2" data-name="Layer 2" xmlns="http://www.w3.org/2000/svg" xmlns:xlink="http://www.w3.org/1999/xlink" viewBox="0 0 68.87 58.55">
  <defs>
    <style>
      .cls-1 {
        opacity: .14;
      }

      .cls-2 {
        fill: url(#linear-gradient-2);
      }

      .cls-3 {
        opacity: .21;
      }

      .cls-4 {
        opacity: .42;
      }

      .cls-5 {
        opacity: .55;
      }

      .cls-6 {
        opacity: .48;
      }

      .cls-7 {
        opacity: .35;
      }

      .cls-8 {
        opacity: .08;
      }

      .cls-9 {
        opacity: .28;
      }

      .cls-10 {
        opacity: 0;
      }

      .cls-11 {
        fill: url(#linear-gradient);
      }
    </style>
    <linearGradient id="linear-gradient" x1="4.69" y1="-.84" x2="58.61" y2="53.08" gradientUnits="userSpaceOnUse">
      <stop offset="0" stop-color="#0594d6"/>
      <stop offset="1" stop-color="#7af5ff"/>
    </linearGradient>
    <linearGradient id="linear-gradient-2" x1="5.25" y1=".09" x2="58.27" y2="53.11" gradientUnits="userSpaceOnUse">
      <stop offset="0" stop-color="#2c2e2c"/>
      <stop offset=".99" stop-color="#000"/>
    </linearGradient>
  </defs>
  <g id="Layer_1-2" data-name="Layer 1">
    <g>
      <rect class="cls-11" x="1.74" y="1.68" width="60.4" height="49.45" rx="7.1" ry="7.1"/>
      <g>
        <path class="cls-10" d="M33.99,29.59c-.66-.66-1.73-.66-2.39,0l-15.96,15.96c-.66.66-.66,1.73,0,2.39.33.33.76.5,1.2.5s.86-.17,1.19-.5l14.77-14.77,5.82,5.82c.63.63,1.75.63,2.39,0l13.46-13.46v4.28c0,.93.76,1.69,1.69,1.69s1.69-.76,1.69-1.69v-8.45c0-.93-.76-1.69-1.69-1.69h-8.45c-.93,0-1.69.76-1.69,1.69s.76,1.69,1.69,1.69h4.45l-12.35,12.35-5.82-5.82ZM59.75,5.35H14.47c-5.03,0-9.12,4.09-9.12,9.12,0,.93.75,1.69,1.69,1.69s1.69-.76,1.69-1.69c0-3.17,2.58-5.75,5.74-5.75h45.28c3.17,0,5.75,2.58,5.75,5.75v34.96c0,3.17-2.58,5.74-5.75,5.74H14.47c-3.17,0-5.74-2.58-5.74-5.74v-23.34c0-.94-.76-1.69-1.69-1.69s-1.69.76-1.69,1.69v23.34c0,5.03,4.09,9.12,9.12,9.12h45.28c5.03,0,9.12-4.09,9.12-9.12V14.47c0-5.03-4.09-9.12-9.12-9.12Z"/>
        <path class="cls-8" d="M33.37,28.96c-.66-.66-1.73-.66-2.39,0l-15.96,15.96c-.66.66-.66,1.73,0,2.39.33.33.76.5,1.2.5s.86-.17,1.19-.5l14.77-14.77,5.82,5.82c.63.63,1.75.63,2.39,0l13.46-13.46v4.28c0,.93.76,1.69,1.69,1.69s1.69-.76,1.69-1.69v-8.45c0-.93-.76-1.69-1.69-1.69h-8.45c-.93,0-1.69.76-1.69,1.69s.76,1.69,1.69,1.69h4.45l-12.35,12.35-5.82-5.82ZM59.12,4.72H13.84c-5.03,0-9.12,4.09-9.12,9.12,0,.93.75,1.69,1.69,1.69s1.69-.76,1.69-1.69c0-3.17,2.58-5.75,5.74-5.75h45.28c3.17,0,5.75,2.58,5.75,5.75v34.96c0,3.17-2.58,5.74-5.75,5.74H13.84c-3.17,0-5.74-2.58-5.74-5.74v-23.34c0-.94-.76-1.69-1.69-1.69s-1.69.76-1.69,1.69v23.34c0,5.03,4.09,9.12,9.12,9.12h45.28c5.03,0,9.12-4.09,9.12-9.12V13.85c0-5.03-4.09-9.12-9.12-9.12Z"/>
        <path class="cls-1" d="M32.74,28.34c-.66-.66-1.73-.66-2.39,0l-15.96,15.96c-.66.66-.66,1.73,0,2.39.33.33.76.5,1.2.5s.86-.17,1.19-.5l14.77-14.77,5.82,5.82c.63.63,1.75.63,2.39,0l13.46-13.46v4.28c0,.93.76,1.69,1.69,1.69s1.69-.76,1.69-1.69v-8.45c0-.93-.76-1.69-1.69-1.69h-8.45c-.93,0-1.69.76-1.69,1.69s.76,1.69,1.69,1.69h4.45l-12.35,12.35-5.82-5.82ZM58.5,4.1H13.22c-5.03,0-9.12,4.09-9.12,9.12,0,.93.75,1.69,1.69,1.69s1.69-.76,1.69-1.69c0-3.17,2.58-5.75,5.74-5.75h45.28c3.17,0,5.75,2.58,5.75,5.75v34.96c0,3.17-2.58,5.74-5.75,5.74H13.22c-3.17,0-5.74-2.58-5.74-5.74v-23.34c0-.94-.76-1.69-1.69-1.69s-1.69.76-1.69,1.69v23.34c0,5.03,4.09,9.12,9.12,9.12h45.28c5.03,0,9.12-4.09,9.12-9.12V13.22c0-5.03-4.09-9.12-9.12-9.12Z"/>
        <path class="cls-3" d="M32.12,27.71c-.66-.66-1.73-.66-2.39,0l-15.96,15.96c-.66.66-.66,1.73,0,2.39.33.33.76.5,1.2.5s.86-.17,1.19-.5l14.77-14.77,5.82,5.82c.63.63,1.75.63,2.39,0l13.46-13.46v4.28c0,.93.76,1.69,1.69,1.69s1.69-.76,1.69-1.69v-8.45c0-.93-.76-1.69-1.69-1.69h-8.45c-.93,0-1.69.76-1.69,1.69s.76,1.69,1.69,1.69h4.45l-12.35,12.35-5.82-5.82ZM57.87,3.47H12.59C7.56,3.47,3.47,7.56,3.47,12.6c0,.93.75,1.69,1.69,1.69s1.69-.76,1.69-1.69c0-3.17,2.58-5.75,5.74-5.75h45.28c3.17,0,5.75,2.58,5.75,5.75v34.96c0,3.17-2.58,5.74-5.75,5.74H12.59c-3.17,0-5.74-2.58-5.74-5.74v-23.34c0-.94-.76-1.69-1.69-1.69s-1.69.76-1.69,1.69v23.34c0,5.03,4.09,9.12,9.12,9.12h45.28c5.03,0,9.12-4.09,9.12-9.12V12.6c0-5.03-4.09-9.12-9.12-9.12Z"/>
        <path class="cls-9" d="M31.49,27.09c-.66-.66-1.73-.66-2.39,0l-15.96,15.96c-.66.66-.66,1.73,0,2.39.33.33.76.5,1.2.5s.86-.17,1.19-.5l14.77-14.77,5.82,5.82c.63.63,1.75.63,2.39,0l13.46-13.46v4.28c0,.93.76,1.69,1.69,1.69s1.69-.76,1.69-1.69v-8.45c0-.93-.76-1.69-1.69-1.69h-8.45c-.93,0-1.69.76-1.69,1.69s.76,1.69,1.69,1.69h4.45l-12.35,12.35-5.82-5.82ZM57.25,2.85H11.97C6.94,2.85,2.85,6.94,2.85,11.97c0,.93.75,1.69,1.69,1.69s1.69-.76,1.69-1.69c0-3.17,2.58-5.75,5.74-5.75h45.28c3.17,0,5.75,2.58,5.75,5.75v34.96c0,3.17-2.58,5.74-5.75,5.74H11.97c-3.17,0-5.74-2.58-5.74-5.74v-23.34c0-.94-.76-1.69-1.69-1.69s-1.69.76-1.69,1.69v23.34c0,5.03,4.09,9.12,9.12,9.12h45.28c5.03,0,9.12-4.09,9.12-9.12V11.97c0-5.03-4.09-9.12-9.12-9.12Z"/>
        <path class="cls-7" d="M30.87,26.46c-.66-.66-1.73-.66-2.39,0l-15.96,15.96c-.66.66-.66,1.73,0,2.39.33.33.76.5,1.2.5s.86-.17,1.19-.5l14.77-14.77,5.82,5.82c.63.63,1.75.63,2.39,0l13.46-13.46v4.28c0,.93.76,1.69,1.69,1.69s1.69-.76,1.69-1.69v-8.45c0-.93-.76-1.69-1.69-1.69h-8.45c-.93,0-1.69.76-1.69,1.69s.76,1.69,1.69,1.69h4.45l-12.35,12.35-5.82-5.82ZM56.62,2.22H11.34C6.31,2.22,2.22,6.31,2.22,11.35c0,.93.75,1.69,1.69,1.69s1.69-.76,1.69-1.69c0-3.17,2.58-5.75,5.74-5.75h45.28c3.17,0,5.75,2.58,5.75,5.75v34.96c0,3.17-2.58,5.74-5.75,5.74H11.34c-3.17,0-5.74-2.58-5.74-5.74v-23.34c0-.94-.76-1.69-1.69-1.69s-1.69.76-1.69,1.69v23.34c0,5.03,4.09,9.12,9.12,9.12h45.28c5.03,0,9.12-4.09,9.12-9.12V11.35c0-5.03-4.09-9.12-9.12-9.12Z"/>
        <path class="cls-4" d="M30.24,25.84c-.66-.66-1.73-.66-2.39,0l-15.96,15.96c-.66.66-.66,1.73,0,2.39.33.33.76.5,1.2.5s.86-.17,1.19-.5l14.77-14.77,5.82,5.82c.63.63,1.75.63,2.39,0l13.46-13.46v4.28c0,.93.76,1.69,1.69,1.69s1.69-.76,1.69-1.69v-8.45c0-.93-.76-1.69-1.69-1.69h-8.45c-.93,0-1.69.76-1.69,1.69s.76,1.69,1.69,1.69h4.45l-12.35,12.35-5.82-5.82ZM56,1.6H10.72C5.69,1.6,1.6,5.69,1.6,10.72c0,.93.75,1.69,1.69,1.69s1.69-.76,1.69-1.69c0-3.17,2.58-5.75,5.74-5.75h45.28c3.17,0,5.75,2.58,5.75,5.75v34.96c0,3.17-2.58,5.74-5.75,5.74H10.72c-3.17,0-5.74-2.58-5.74-5.74v-23.34c0-.94-.76-1.69-1.69-1.69s-1.69.76-1.69,1.69v23.34c0,5.03,4.09,9.12,9.12,9.12h45.28c5.03,0,9.12-4.09,9.12-9.12V10.72c0-5.03-4.09-9.12-9.12-9.12Z"/>
        <path class="cls-6" d="M29.62,25.21c-.66-.66-1.73-.66-2.39,0l-15.96,15.96c-.66.66-.66,1.73,0,2.39.33.33.76.5,1.2.5s.86-.17,1.19-.5l14.77-14.77,5.82,5.82c.63.63,1.75.63,2.39,0l13.46-13.46v4.28c0,.93.76,1.69,1.69,1.69s1.69-.76,1.69-1.69v-8.45c0-.93-.76-1.69-1.69-1.69h-8.45c-.93,0-1.69.76-1.69,1.69s.76,1.69,1.69,1.69h4.45l-12.35,12.35-5.82-5.82ZM55.37.97H10.09C5.06.97.97,5.06.97,10.1c0,.93.75,1.69,1.69,1.69s1.69-.76,1.69-1.69c0-3.17,2.58-5.75,5.74-5.75h45.28c3.17,0,5.75,2.58,5.75,5.75v34.96c0,3.17-2.58,5.74-5.75,5.74H10.09c-3.17,0-5.74-2.58-5.74-5.74v-23.34c0-.94-.76-1.69-1.69-1.69s-1.69.76-1.69,1.69v23.34c0,5.03,4.09,9.12,9.12,9.12h45.28c5.03,0,9.12-4.09,9.12-9.12V10.1c0-5.03-4.09-9.12-9.12-9.12Z"/>
        <path class="cls-5" d="M28.99,24.59c-.66-.66-1.73-.66-2.39,0l-15.96,15.96c-.66.66-.66,1.73,0,2.39.33.33.76.5,1.2.5s.86-.17,1.19-.5l14.77-14.77,5.82,5.82c.63.63,1.75.63,2.39,0l13.46-13.46v4.28c0,.93.76,1.69,1.69,1.69s1.69-.76,1.69-1.69v-8.45c0-.93-.76-1.69-1.69-1.69h-8.45c-.93,0-1.69.76-1.69,1.69s.76,1.69,1.69,1.69h4.45l-12.35,12.35-5.82-5.82ZM54.75.35H9.47C4.44.35.35,4.44.35,9.47c0,.93.75,1.69,1.69,1.69s1.69-.76,1.69-1.69c0-3.17,2.58-5.75,5.74-5.75h45.28c3.17,0,5.75,2.58,5.75,5.75v34.96c0,3.17-2.58,5.74-5.75,5.74H9.47c-3.17,0-5.74-2.58-5.74-5.74v-23.34c0-.94-.76-1.69-1.69-1.69s-1.69.76-1.69,1.69v23.34c0,5.03,4.09,9.12,9.12,9.12h45.28c5.03,0,9.12-4.09,9.12-9.12V9.47c0-5.03-4.09-9.12-9.12-9.12Z"/>
      </g>
      <path class="cls-2" d="M54.4,0H9.12C4.09,0,0,4.09,0,9.12c0,.93.75,1.69,1.69,1.69s1.69-.76,1.69-1.69c0-3.17,2.58-5.75,5.74-5.75h45.28c3.17,0,5.75,2.58,5.75,5.75v34.96c0,3.17-2.58,5.74-5.75,5.74H9.12c-3.17,0-5.74-2.58-5.74-5.74v-23.34c0-.94-.76-1.69-1.69-1.69s-1.69.76-1.69,1.69v23.34c0,5.03,4.09,9.12,9.12,9.12h45.28c5.03,0,9.12-4.09,9.12-9.12V9.12c0-5.03-4.09-9.12-9.12-9.12ZM28.64,24.24c-.66-.66-1.73-.66-2.39,0l-15.96,15.96c-.66.66-.66,1.73,0,2.39.33.33.76.5,1.2.5s.86-.17,1.19-.5l14.77-14.77,5.82,5.82c.63.63,1.75.63,2.39,0l13.46-13.46v4.28c0,.93.76,1.69,1.69,1.69s1.69-.76,1.69-1.69v-8.45c0-.93-.76-1.69-1.69-1.69h-8.45c-.93,0-1.69.76-1.69,1.69s.76,1.69,1.69,1.69h4.45l-12.35,12.35-5.82-5.82Z"/>
    </g>
  </g>
</svg>