<?xml version="1.0" encoding="UTF-8"?>
<svg id="Layer_2" data-name="Layer 2" xmlns="http://www.w3.org/2000/svg" xmlns:xlink="http://www.w3.org/1999/xlink" viewBox="0 0 70.98 75.1">
  <defs>
    <style>
      .cls-1 {
        opacity: .14;
      }

      .cls-2 {
        fill: url(#linear-gradient-2);
      }

      .cls-3 {
        opacity: .21;
      }

      .cls-4 {
        opacity: .42;
      }

      .cls-5 {
        opacity: .55;
      }

      .cls-6 {
        opacity: .48;
      }

      .cls-7 {
        opacity: .35;
      }

      .cls-8 {
        fill: url(#linear-gradient-3);
      }

      .cls-9 {
        opacity: .08;
      }

      .cls-10 {
        opacity: .28;
      }

      .cls-11 {
        opacity: 0;
      }

      .cls-12 {
        fill: url(#linear-gradient);
      }
    </style>
    <linearGradient id="linear-gradient" x1="13.01" y1="15.62" x2="62.32" y2="64.93" gradientUnits="userSpaceOnUse">
      <stop offset="0" stop-color="#d79d81"/>
      <stop offset="1" stop-color="#f8d6b3"/>
    </linearGradient>
    <linearGradient id="linear-gradient-2" x1="-5.99" y1="31.34" x2="23.03" y2="60.36" gradientUnits="userSpaceOnUse">
      <stop offset="0" stop-color="#0594d6"/>
      <stop offset="1" stop-color="#7af5ff"/>
    </linearGradient>
    <linearGradient id="linear-gradient-3" x1="8.84" y1="19.89" x2="57.84" y2="68.9" gradientUnits="userSpaceOnUse">
      <stop offset="0" stop-color="#2c2e2c"/>
      <stop offset=".99" stop-color="#000"/>
    </linearGradient>
  </defs>
  <g id="Layer_1-2" data-name="Layer 1">
    <g>
      <path class="cls-12" d="M17.2,28.81s4.25-1.38,9.01-10.14c4.75-8.76,8.51-15.89,11.14-16.52,2.63-.62,7.76-.25,7.13,6.13-.63,6.38-2.38,14.89-2.38,14.89h15.14c3,0,6.63,2,6.13,9.76s-3,27.78-3.88,30.53-3.75,4.63-10.26,4.63h-17.27c-2.63,0-8.63-1.88-14.39-5.51,0-13.28-.38-33.79-.38-33.79Z"/>
      <path class="cls-2" d="M9.44,26.82c-4.45,0-7.85.97-7.85,5.11v29.71c0,2.55,1.27,5.58,8.2,5.58s7.65-3.5,7.65-6.21v-29.55c0-2.07-1.27-4.64-8-4.64Z"/>
      <g>
        <path class="cls-11" d="M16.77,42.07c0-.96-.78-1.74-1.74-1.74s-1.75.78-1.75,1.74.78,1.75,1.75,1.75,1.74-.78,1.74-1.75ZM69.11,29.62c-1.45-1.59-3.64-2.37-6.71-2.37h-13.34c.48-2.74,1.37-7.95,2.12-13.51.28-2.09.41-4.72-1.11-6.46-1.46-1.68-3.85-1.87-5.51-1.87-3.83,0-5.25,2.5-8.1,7.48-.57,1.01-1.23,2.15-1.99,3.44l-.51.87c-2.97,5.02-4.76,8.06-7.2,11.88-1.15,1.81-2.33,2.95-3.68,3.55-1.21-1.45-3.01-2.38-5.03-2.38h-6.09c-3.63,0-6.58,2.99-6.58,6.67,0,.94.76,1.69,1.69,1.69s1.69-.76,1.69-1.69c0-1.81,1.44-3.29,3.2-3.29h6.09c1.76,0,3.2,1.48,3.2,3.29v30.62c0,1.81-1.44,3.29-3.2,3.29h-6.09c-1.77,0-3.2-1.48-3.2-3.29v-20.42c0-.93-.76-1.69-1.69-1.69s-1.69.76-1.69,1.69v20.42c0,3.68,2.95,6.67,6.58,6.67h6.09c3.63,0,6.58-2.99,6.58-6.67v-30.62c0-.42-.04-.83-.12-1.23,1.95-.89,3.58-2.43,5.1-4.8,2.46-3.88,4.27-6.92,7.25-11.98l.51-.87c.77-1.3,1.43-2.46,2.02-3.49,2.84-4.98,3.42-5.78,5.16-5.78,1.55,0,2.55.24,2.96.71.47.54.58,1.82.31,3.79-1.09,8-2.45,15.27-2.46,15.35-.09.49.04,1,.36,1.39.32.38.8.61,1.3.61h15.36c2.06,0,3.44.41,4.21,1.26.83.92,1.14,2.59.91,4.96-.36,3.77-2.06,20.01-3.37,29.22-.74,5.19-2.82,5.65-8.6,5.65h-16.73c-3.01,0-4.94-.35-6.66-1.21-.84-.42-1.85-.08-2.27.76-.42.84-.08,1.85.76,2.27,2.76,1.38,5.68,1.57,8.17,1.57h16.73c5.02,0,10.72,0,11.94-8.56,1.32-9.27,3.02-25.58,3.39-29.37.33-3.41-.25-5.88-1.77-7.56Z"/>
        <path class="cls-9" d="M16.15,41.44c0-.96-.78-1.74-1.74-1.74s-1.75.78-1.75,1.74.78,1.75,1.75,1.75,1.74-.78,1.74-1.75ZM68.49,28.99c-1.45-1.59-3.64-2.37-6.71-2.37h-13.34c.48-2.74,1.37-7.95,2.12-13.51.28-2.09.41-4.72-1.11-6.46-1.46-1.68-3.85-1.87-5.51-1.87-3.83,0-5.25,2.5-8.1,7.48-.57,1.01-1.23,2.15-1.99,3.44l-.51.87c-2.97,5.02-4.76,8.06-7.2,11.88-1.15,1.81-2.33,2.95-3.68,3.55-1.21-1.45-3.01-2.38-5.03-2.38h-6.09c-3.63,0-6.58,2.99-6.58,6.67,0,.94.76,1.69,1.69,1.69s1.69-.76,1.69-1.69c0-1.81,1.44-3.29,3.2-3.29h6.09c1.76,0,3.2,1.48,3.2,3.29v30.62c0,1.81-1.44,3.29-3.2,3.29h-6.09c-1.77,0-3.2-1.48-3.2-3.29v-20.42c0-.93-.76-1.69-1.69-1.69s-1.69.76-1.69,1.69v20.42c0,3.68,2.95,6.67,6.58,6.67h6.09c3.63,0,6.58-2.99,6.58-6.67v-30.62c0-.42-.04-.83-.12-1.23,1.95-.89,3.58-2.43,5.1-4.8,2.46-3.88,4.27-6.92,7.25-11.98l.51-.87c.77-1.3,1.43-2.46,2.02-3.49,2.84-4.98,3.42-5.78,5.16-5.78,1.55,0,2.55.24,2.96.71.47.54.58,1.82.31,3.79-1.09,8-2.45,15.27-2.46,15.35-.09.49.04,1,.36,1.39.32.38.8.61,1.3.61h15.36c2.06,0,3.44.41,4.21,1.26.83.92,1.14,2.59.91,4.96-.36,3.77-2.06,20.01-3.37,29.22-.74,5.19-2.82,5.65-8.6,5.65h-16.73c-3.01,0-4.94-.35-6.66-1.21-.84-.42-1.85-.08-2.27.76-.42.84-.08,1.85.76,2.27,2.76,1.38,5.68,1.57,8.17,1.57h16.73c5.02,0,10.72,0,11.94-8.56,1.32-9.27,3.02-25.58,3.39-29.37.33-3.41-.25-5.88-1.77-7.56Z"/>
        <path class="cls-1" d="M15.52,40.82c0-.96-.78-1.74-1.74-1.74s-1.75.78-1.75,1.74.78,1.75,1.75,1.75,1.74-.78,1.74-1.75ZM67.86,28.37c-1.45-1.59-3.64-2.37-6.71-2.37h-13.34c.48-2.74,1.37-7.95,2.12-13.51.28-2.09.41-4.72-1.11-6.46-1.46-1.68-3.85-1.87-5.51-1.87-3.83,0-5.25,2.5-8.1,7.48-.57,1.01-1.23,2.15-1.99,3.44l-.51.87c-2.97,5.02-4.76,8.06-7.2,11.88-1.15,1.81-2.33,2.95-3.68,3.55-1.21-1.45-3.01-2.38-5.03-2.38h-6.09c-3.63,0-6.58,2.99-6.58,6.67,0,.94.76,1.69,1.69,1.69s1.69-.76,1.69-1.69c0-1.81,1.44-3.29,3.2-3.29h6.09c1.76,0,3.2,1.48,3.2,3.29v30.62c0,1.81-1.44,3.29-3.2,3.29h-6.09c-1.77,0-3.2-1.48-3.2-3.29v-20.42c0-.93-.76-1.69-1.69-1.69s-1.69.76-1.69,1.69v20.42c0,3.68,2.95,6.67,6.58,6.67h6.09c3.63,0,6.58-2.99,6.58-6.67v-30.62c0-.42-.04-.83-.12-1.23,1.95-.89,3.58-2.43,5.1-4.8,2.46-3.88,4.27-6.92,7.25-11.98l.51-.87c.77-1.3,1.43-2.46,2.02-3.49,2.84-4.98,3.42-5.78,5.16-5.78,1.55,0,2.55.24,2.96.71.47.54.58,1.82.31,3.79-1.09,8-2.45,15.27-2.46,15.35-.09.49.04,1,.36,1.39.32.38.8.61,1.3.61h15.36c2.06,0,3.44.41,4.21,1.26.83.92,1.14,2.59.91,4.96-.36,3.77-2.06,20.01-3.37,29.22-.74,5.19-2.82,5.65-8.6,5.65h-16.73c-3.01,0-4.94-.35-6.66-1.21-.84-.42-1.85-.08-2.27.76-.42.84-.08,1.85.76,2.27,2.76,1.38,5.68,1.57,8.17,1.57h16.73c5.02,0,10.72,0,11.94-8.56,1.32-9.27,3.02-25.58,3.39-29.37.33-3.41-.25-5.88-1.77-7.56Z"/>
        <path class="cls-3" d="M14.9,40.19c0-.96-.78-1.74-1.74-1.74s-1.75.78-1.75,1.74.78,1.75,1.75,1.75,1.74-.78,1.74-1.75ZM67.24,27.74c-1.45-1.59-3.64-2.37-6.71-2.37h-13.34c.48-2.74,1.37-7.95,2.12-13.51.28-2.09.41-4.72-1.11-6.46-1.46-1.68-3.85-1.87-5.51-1.87-3.83,0-5.25,2.5-8.1,7.48-.57,1.01-1.23,2.15-1.99,3.44l-.51.87c-2.97,5.02-4.76,8.06-7.2,11.88-1.15,1.81-2.33,2.95-3.68,3.55-1.21-1.45-3.01-2.38-5.03-2.38h-6.09c-3.63,0-6.58,2.99-6.58,6.67,0,.94.76,1.69,1.69,1.69s1.69-.76,1.69-1.69c0-1.81,1.44-3.29,3.2-3.29h6.09c1.76,0,3.2,1.48,3.2,3.29v30.62c0,1.81-1.44,3.29-3.2,3.29h-6.09c-1.77,0-3.2-1.48-3.2-3.29v-20.42c0-.93-.76-1.69-1.69-1.69s-1.69.76-1.69,1.69v20.42c0,3.68,2.95,6.67,6.58,6.67h6.09c3.63,0,6.58-2.99,6.58-6.67v-30.62c0-.42-.04-.83-.12-1.23,1.95-.89,3.58-2.43,5.1-4.8,2.46-3.88,4.27-6.92,7.25-11.98l.51-.87c.77-1.3,1.43-2.46,2.02-3.49,2.84-4.98,3.42-5.78,5.16-5.78,1.55,0,2.55.24,2.96.71.47.54.58,1.82.31,3.79-1.09,8-2.45,15.27-2.46,15.35-.09.49.04,1,.36,1.39.32.38.8.61,1.3.61h15.36c2.06,0,3.44.41,4.21,1.26.83.92,1.14,2.59.91,4.96-.36,3.77-2.06,20.01-3.37,29.22-.74,5.19-2.82,5.65-8.6,5.65h-16.73c-3.01,0-4.94-.35-6.66-1.21-.84-.42-1.85-.08-2.27.76-.42.84-.08,1.85.76,2.27,2.76,1.38,5.68,1.57,8.17,1.57h16.73c5.02,0,10.72,0,11.94-8.56,1.32-9.27,3.02-25.58,3.39-29.37.33-3.41-.25-5.88-1.77-7.56Z"/>
        <path class="cls-10" d="M14.27,39.57c0-.96-.78-1.74-1.74-1.74s-1.75.78-1.75,1.74.78,1.75,1.75,1.75,1.74-.78,1.74-1.75ZM66.61,27.12c-1.45-1.59-3.64-2.37-6.71-2.37h-13.34c.48-2.74,1.37-7.95,2.12-13.51.28-2.09.41-4.72-1.11-6.46-1.46-1.68-3.85-1.87-5.51-1.87-3.83,0-5.25,2.5-8.1,7.48-.57,1.01-1.23,2.15-1.99,3.44l-.51.87c-2.97,5.02-4.76,8.06-7.2,11.88-1.15,1.81-2.33,2.95-3.68,3.55-1.21-1.45-3.01-2.38-5.03-2.38h-6.09c-3.63,0-6.58,2.99-6.58,6.67,0,.94.76,1.69,1.69,1.69s1.69-.76,1.69-1.69c0-1.81,1.44-3.29,3.2-3.29h6.09c1.76,0,3.2,1.48,3.2,3.29v30.62c0,1.81-1.44,3.29-3.2,3.29h-6.09c-1.77,0-3.2-1.48-3.2-3.29v-20.42c0-.93-.76-1.69-1.69-1.69s-1.69.76-1.69,1.69v20.42c0,3.68,2.95,6.67,6.58,6.67h6.09c3.63,0,6.58-2.99,6.58-6.67v-30.62c0-.42-.04-.83-.12-1.23,1.95-.89,3.58-2.43,5.1-4.8,2.46-3.88,4.27-6.92,7.25-11.98l.51-.87c.77-1.3,1.43-2.46,2.02-3.49,2.84-4.98,3.42-5.78,5.16-5.78,1.55,0,2.55.24,2.96.71.47.54.58,1.82.31,3.79-1.09,8-2.45,15.27-2.46,15.35-.09.49.04,1,.36,1.39.32.38.8.61,1.3.61h15.36c2.06,0,3.44.41,4.21,1.26.83.92,1.14,2.59.91,4.96-.36,3.77-2.06,20.01-3.37,29.22-.74,5.19-2.82,5.65-8.6,5.65h-16.73c-3.01,0-4.94-.35-6.66-1.21-.84-.42-1.85-.08-2.27.76-.42.84-.08,1.85.76,2.27,2.76,1.38,5.68,1.57,8.17,1.57h16.73c5.02,0,10.72,0,11.94-8.56,1.32-9.27,3.02-25.58,3.39-29.37.33-3.41-.25-5.88-1.77-7.56Z"/>
        <path class="cls-7" d="M13.65,38.94c0-.96-.78-1.74-1.74-1.74s-1.75.78-1.75,1.74.78,1.75,1.75,1.75,1.74-.78,1.74-1.75ZM65.99,26.49c-1.45-1.59-3.64-2.37-6.71-2.37h-13.34c.48-2.74,1.37-7.95,2.12-13.51.28-2.09.41-4.72-1.11-6.46-1.46-1.68-3.85-1.87-5.51-1.87-3.83,0-5.25,2.5-8.1,7.48-.57,1.01-1.23,2.15-1.99,3.44l-.51.87c-2.97,5.02-4.76,8.06-7.2,11.88-1.15,1.81-2.33,2.95-3.68,3.55-1.21-1.45-3.01-2.38-5.03-2.38h-6.09c-3.63,0-6.58,2.99-6.58,6.67,0,.94.76,1.69,1.69,1.69s1.69-.76,1.69-1.69c0-1.81,1.44-3.29,3.2-3.29h6.09c1.76,0,3.2,1.48,3.2,3.29v30.62c0,1.81-1.44,3.29-3.2,3.29h-6.09c-1.77,0-3.2-1.48-3.2-3.29v-20.42c0-.93-.76-1.69-1.69-1.69s-1.69.76-1.69,1.69v20.42c0,3.68,2.95,6.67,6.58,6.67h6.09c3.63,0,6.58-2.99,6.58-6.67v-30.62c0-.42-.04-.83-.12-1.23,1.95-.89,3.58-2.43,5.1-4.8,2.46-3.88,4.27-6.92,7.25-11.98l.51-.87c.77-1.3,1.43-2.46,2.02-3.49,2.84-4.98,3.42-5.78,5.16-5.78,1.55,0,2.55.24,2.96.71.47.54.58,1.82.31,3.79-1.09,8-2.45,15.27-2.46,15.35-.09.49.04,1,.36,1.39.32.38.8.61,1.3.61h15.36c2.06,0,3.44.41,4.21,1.26.83.92,1.14,2.59.91,4.96-.36,3.77-2.06,20.01-3.37,29.22-.74,5.19-2.82,5.65-8.6,5.65h-16.73c-3.01,0-4.94-.35-6.66-1.21-.84-.42-1.85-.08-2.27.76-.42.84-.08,1.85.76,2.27,2.76,1.38,5.68,1.57,8.17,1.57h16.73c5.02,0,10.72,0,11.94-8.56,1.32-9.27,3.02-25.58,3.39-29.37.33-3.41-.25-5.88-1.77-7.56Z"/>
        <path class="cls-4" d="M13.02,38.32c0-.96-.78-1.74-1.74-1.74s-1.75.78-1.75,1.74.78,1.75,1.75,1.75,1.74-.78,1.74-1.75ZM65.36,25.87c-1.45-1.59-3.64-2.37-6.71-2.37h-13.34c.48-2.74,1.37-7.95,2.12-13.51.28-2.09.41-4.72-1.11-6.46-1.46-1.68-3.85-1.87-5.51-1.87-3.83,0-5.25,2.5-8.1,7.48-.57,1.01-1.23,2.15-1.99,3.44l-.51.87c-2.97,5.02-4.76,8.06-7.2,11.88-1.15,1.81-2.33,2.95-3.68,3.55-1.21-1.45-3.01-2.38-5.03-2.38h-6.09c-3.63,0-6.58,2.99-6.58,6.67,0,.94.76,1.69,1.69,1.69s1.69-.76,1.69-1.69c0-1.81,1.44-3.29,3.2-3.29h6.09c1.76,0,3.2,1.48,3.2,3.29v30.62c0,1.81-1.44,3.29-3.2,3.29h-6.09c-1.77,0-3.2-1.48-3.2-3.29v-20.42c0-.93-.76-1.69-1.69-1.69s-1.69.76-1.69,1.69v20.42c0,3.68,2.95,6.67,6.58,6.67h6.09c3.63,0,6.58-2.99,6.58-6.67v-30.62c0-.42-.04-.83-.12-1.23,1.95-.89,3.58-2.43,5.1-4.8,2.46-3.88,4.27-6.92,7.25-11.98l.51-.87c.77-1.3,1.43-2.46,2.02-3.49,2.84-4.98,3.42-5.78,5.16-5.78,1.55,0,2.55.24,2.96.71.47.54.58,1.82.31,3.79-1.09,8-2.45,15.27-2.46,15.35-.09.49.04,1,.36,1.39.32.38.8.61,1.3.61h15.36c2.06,0,3.44.41,4.21,1.26.83.92,1.14,2.59.91,4.96-.36,3.77-2.06,20.01-3.37,29.22-.74,5.19-2.82,5.65-8.6,5.65h-16.73c-3.01,0-4.94-.35-6.66-1.21-.84-.42-1.85-.08-2.27.76-.42.84-.08,1.85.76,2.27,2.76,1.38,5.68,1.57,8.17,1.57h16.73c5.02,0,10.72,0,11.94-8.56,1.32-9.27,3.02-25.58,3.39-29.37.33-3.41-.25-5.88-1.77-7.56Z"/>
        <path class="cls-6" d="M12.4,37.69c0-.96-.78-1.74-1.74-1.74s-1.75.78-1.75,1.74.78,1.75,1.75,1.75,1.74-.78,1.74-1.75ZM64.74,25.24c-1.45-1.59-3.64-2.37-6.71-2.37h-13.34c.48-2.74,1.37-7.95,2.12-13.51.28-2.09.41-4.72-1.11-6.46-1.46-1.68-3.85-1.87-5.51-1.87-3.83,0-5.25,2.5-8.1,7.48-.57,1.01-1.23,2.15-1.99,3.44l-.51.87c-2.97,5.02-4.76,8.06-7.2,11.88-1.15,1.81-2.33,2.95-3.68,3.55-1.21-1.45-3.01-2.38-5.03-2.38h-6.09c-3.63,0-6.58,2.99-6.58,6.67,0,.94.76,1.69,1.69,1.69s1.69-.76,1.69-1.69c0-1.81,1.44-3.29,3.2-3.29h6.09c1.76,0,3.2,1.48,3.2,3.29v30.62c0,1.81-1.44,3.29-3.2,3.29h-6.09c-1.77,0-3.2-1.48-3.2-3.29v-20.42c0-.93-.76-1.69-1.69-1.69s-1.69.76-1.69,1.69v20.42c0,3.68,2.95,6.67,6.58,6.67h6.09c3.63,0,6.58-2.99,6.58-6.67v-30.62c0-.42-.04-.83-.12-1.23,1.95-.89,3.58-2.43,5.1-4.8,2.46-3.88,4.27-6.92,7.25-11.98l.51-.87c.77-1.3,1.43-2.46,2.02-3.49,2.84-4.98,3.42-5.78,5.16-5.78,1.55,0,2.55.24,2.96.71.47.54.58,1.82.31,3.79-1.09,8-2.45,15.27-2.46,15.35-.09.49.04,1,.36,1.39.32.38.8.61,1.3.61h15.36c2.06,0,3.44.41,4.21,1.26.83.92,1.14,2.59.91,4.96-.36,3.77-2.06,20.01-3.37,29.22-.74,5.19-2.82,5.65-8.6,5.65h-16.73c-3.01,0-4.94-.35-6.66-1.21-.84-.42-1.85-.08-2.27.76-.42.84-.08,1.85.76,2.27,2.76,1.38,5.68,1.57,8.17,1.57h16.73c5.02,0,10.72,0,11.94-8.56,1.32-9.27,3.02-25.58,3.39-29.37.33-3.41-.25-5.88-1.77-7.56Z"/>
        <path class="cls-5" d="M11.77,37.07c0-.96-.78-1.74-1.74-1.74s-1.75.78-1.75,1.74.78,1.75,1.75,1.75,1.74-.78,1.74-1.75ZM64.11,24.62c-1.45-1.59-3.64-2.37-6.71-2.37h-13.34c.48-2.74,1.37-7.95,2.12-13.51.28-2.09.41-4.72-1.11-6.46-1.46-1.68-3.85-1.87-5.51-1.87-3.83,0-5.25,2.5-8.1,7.48-.57,1.01-1.23,2.15-1.99,3.44l-.51.87c-2.97,5.02-4.76,8.06-7.2,11.88-1.15,1.81-2.33,2.95-3.68,3.55-1.21-1.45-3.01-2.38-5.03-2.38h-6.09c-3.63,0-6.58,2.99-6.58,6.67,0,.94.76,1.69,1.69,1.69s1.69-.76,1.69-1.69c0-1.81,1.44-3.29,3.2-3.29h6.09c1.76,0,3.2,1.48,3.2,3.29v30.62c0,1.81-1.44,3.29-3.2,3.29h-6.09c-1.77,0-3.2-1.48-3.2-3.29v-20.42c0-.93-.76-1.69-1.69-1.69s-1.69.76-1.69,1.69v20.42c0,3.68,2.95,6.67,6.58,6.67h6.09c3.63,0,6.58-2.99,6.58-6.67v-30.62c0-.42-.04-.83-.12-1.23,1.95-.89,3.58-2.43,5.1-4.8,2.46-3.88,4.27-6.92,7.25-11.98l.51-.87c.77-1.3,1.43-2.46,2.02-3.49,2.84-4.98,3.42-5.78,5.16-5.78,1.55,0,2.55.24,2.96.71.47.54.58,1.82.31,3.79-1.09,8-2.45,15.27-2.46,15.35-.09.49.04,1,.36,1.39.32.38.8.61,1.3.61h15.36c2.06,0,3.44.41,4.21,1.26.83.92,1.14,2.59.91,4.96-.36,3.77-2.06,20.01-3.37,29.22-.74,5.19-2.82,5.65-8.6,5.65h-16.73c-3.01,0-4.94-.35-6.66-1.21-.84-.42-1.85-.08-2.27.76-.42.84-.08,1.85.76,2.27,2.76,1.38,5.68,1.57,8.17,1.57h16.73c5.02,0,10.72,0,11.94-8.56,1.32-9.27,3.02-25.58,3.39-29.37.33-3.41-.25-5.88-1.77-7.56Z"/>
      </g>
      <path class="cls-8" d="M11.37,36.66c0-.96-.78-1.74-1.74-1.74s-1.75.78-1.75,1.74.78,1.75,1.75,1.75,1.74-.78,1.74-1.75ZM63.71,24.21c-1.45-1.59-3.64-2.37-6.71-2.37h-13.34c.48-2.74,1.37-7.95,2.12-13.51.28-2.09.41-4.72-1.11-6.46-1.46-1.68-3.85-1.87-5.51-1.87-3.83,0-5.25,2.5-8.1,7.48-.57,1.01-1.23,2.15-1.99,3.44l-.51.87c-2.97,5.02-4.76,8.06-7.2,11.88-1.15,1.81-2.33,2.95-3.68,3.55-1.21-1.45-3.01-2.38-5.03-2.38h-6.09c-3.63,0-6.58,2.99-6.58,6.67,0,.94.76,1.69,1.69,1.69s1.69-.76,1.69-1.69c0-1.81,1.44-3.29,3.2-3.29h6.09c1.76,0,3.2,1.48,3.2,3.29v30.62c0,1.81-1.44,3.29-3.2,3.29h-6.09c-1.77,0-3.2-1.48-3.2-3.29v-20.42c0-.93-.76-1.69-1.69-1.69s-1.69.76-1.69,1.69v20.42c0,3.68,2.95,6.67,6.58,6.67h6.09c3.63,0,6.58-2.99,6.58-6.67v-30.62c0-.42-.04-.83-.12-1.23,1.95-.89,3.58-2.43,5.1-4.8,2.46-3.88,4.27-6.92,7.25-11.98l.51-.87c.77-1.3,1.43-2.46,2.02-3.49,2.84-4.98,3.42-5.78,5.16-5.78,1.55,0,2.55.24,2.96.71.47.54.58,1.82.31,3.79-1.09,8-2.45,15.27-2.46,15.35-.09.49.04,1,.36,1.39.32.38.8.61,1.3.61h15.36c2.06,0,3.44.41,4.21,1.26.83.92,1.14,2.59.91,4.96-.36,3.77-2.06,20.01-3.37,29.22-.74,5.19-2.82,5.65-8.6,5.65h-16.73c-3.01,0-4.94-.35-6.66-1.21-.84-.42-1.85-.08-2.27.76-.42.84-.08,1.85.76,2.27,2.76,1.38,5.68,1.57,8.17,1.57h16.73c5.02,0,10.72,0,11.94-8.56,1.32-9.27,3.02-25.58,3.39-29.37.33-3.41-.25-5.88-1.77-7.56Z"/>
    </g>
  </g>
</svg>