<?xml version="1.0" encoding="UTF-8"?>
<svg id="Layer_2" data-name="Layer 2" xmlns="http://www.w3.org/2000/svg" viewBox="0 0 16.14 27.35">
  <defs>
    <style>
      .cls-1 {
        fill-rule: evenodd;
      }
    </style>
  </defs>
  <g id="_1" data-name="1">
    <path class="cls-1" d="M5.71,9.83c1.09,1.64,2.64,5.52,2.64,6.19v9.74c0,.87-.72,1.59-1.61,1.59H1.61c-.89,0-1.61-.72-1.61-1.59v-9.74c0-.68,1.54-4.56,2.62-6.19V1.57c-.3-.03-.54-.29-.54-.6v-.36c0-.34.27-.61.61-.61h2.96c.34,0,.61.27.61.61v.36c0,.31-.24.57-.56.6v8.26ZM14.47,9.2c.7,1.05,1.67,3.51,1.67,3.95v6.18c0,.56-.45,1.01-1.01,1.01h-3.26c-.56,0-1.02-.45-1.02-1.01v-6.18c0-.43.98-2.89,1.67-3.95V3.96c-.19-.01-.34-.17-.34-.38v-.23c0-.21.16-.38.38-.38h1.88c.22,0,.39.17.39.38v.23c0,.19-.16.37-.35.38v5.24ZM12.98,13.19h1.01c.94,0,1.72.76,1.72,1.71v1c0,.94-.78,1.72-1.72,1.72h-1.01c-.94,0-1.72-.77-1.72-1.72v-1c0-.94.78-1.71,1.72-1.71h0ZM3.37,16.1h1.6c1.49,0,2.7,1.21,2.7,2.7v1.55c0,1.49-1.21,2.7-2.7,2.7h-1.6c-1.49,0-2.7-1.22-2.7-2.7v-1.55c0-1.49,1.22-2.7,2.7-2.7h0Z"/>
  </g>
</svg>