<?xml version="1.0" encoding="UTF-8"?>
<svg id="Layer_2" data-name="Layer 2" xmlns="http://www.w3.org/2000/svg" viewBox="0 0 18.29 27.35">
  <defs>
    <style>
      .cls-1 {
        fill-rule: evenodd;
      }
    </style>
  </defs>
  <g id="_1" data-name="1">
    <path class="cls-1" d="M13.96,6.37c-.28-.3-2.15-13.19-9.12-1.43-7.62,10.99,2.31-.5,2.84-.98.53-.48-.87,2.33-.87,2.33-.09.14,3.82,2.06,7.14.08h0ZM12.32,10.03c.22,0,.41.09.55.23h0c.15.14.23.34.23.54,0,.22-.08.41-.23.55h0c-.13.14-.33.23-.55.23-.21,0-.4-.09-.54-.23-.14-.13-.23-.33-.23-.55,0-.2.09-.4.23-.54h0c.14-.14.34-.23.54-.23h0ZM12.52,10.61c-.04-.06-.12-.09-.21-.09-.08,0-.14.03-.19.09h0c-.06.04-.09.11-.09.19,0,.09.03.16.09.21.05.06.11.09.19.09.08,0,.16-.03.21-.09h0c.05-.05.08-.12.08-.21,0-.07-.02-.14-.08-.19h0ZM9.11,10.03c.2,0,.41.09.54.23h.02c.13.14.21.34.21.54,0,.22-.08.41-.23.55h.02c-.15.14-.34.23-.55.23s-.41-.09-.55-.23c-.15-.13-.23-.33-.23-.55,0-.2.08-.4.23-.54h0c.15-.14.33-.23.55-.23h0ZM9.31,10.61c-.06-.06-.13-.09-.2-.09-.09,0-.14.03-.2.09h0s-.09.11-.09.19c0,.09.04.16.09.21.06.06.12.09.2.09.07,0,.14-.03.2-.09h0s.07-.12.07-.21c0-.07-.03-.14-.07-.19h0ZM4.74,11.59c-1.32,1.5-1.87,2.85-1.45,5.23.35,1.98,1.53,3.38,2.79,4.32,2.31,1.71,7.13,8.9,6.74,5.15-.97-1.71,3.54-6.83,5.01-9.81,1.1-2.25.11-4.64-1.48-5.37.58-1.8-.15-3.02-1.48-3.75-.09-.22-.31-.41-.53-.32-2.6.97-5.18.92-7.75,0-.28-.12-.56.25-.56.55h0c0,.07.02.13.03.17-1.44.87-2.16,2.18-1.31,3.82h0ZM1,10.02c-.55,0-1,.45-1,1s.45,1,1,1,1-.45,1-1-.44-1-1-1h0ZM8.75,13.2h3.97c0,.22,0-.2,0,0-1.42,1.71-2.74,1.53-3.97,0,0-.2,0,.22,0,0h0ZM7.36,9.93c2.25-.75,4.48-.75,6.64,0,.43.84.86,1.67,1.27,2.51-3.09-.83-6.15-.69-9.2,0,.43-.84.86-1.67,1.29-2.51h0Z"/>
  </g>
</svg>