<?xml version="1.0" encoding="UTF-8"?>
<svg id="Layer_2" data-name="Layer 2" xmlns="http://www.w3.org/2000/svg" xmlns:xlink="http://www.w3.org/1999/xlink" viewBox="0 0 70.95 70.95">
  <defs>
    <style>
      .cls-1 {
        opacity: .14;
      }

      .cls-2 {
        opacity: .21;
      }

      .cls-3 {
        opacity: .42;
      }

      .cls-4 {
        opacity: .55;
      }

      .cls-5 {
        opacity: .48;
      }

      .cls-6 {
        opacity: .35;
      }

      .cls-7 {
        opacity: .08;
      }

      .cls-8 {
        opacity: .28;
      }

      .cls-9 {
        opacity: 0;
      }

      .cls-10 {
        fill: url(#linear-gradient);
      }
    </style>
    <linearGradient id="linear-gradient" x1="1.91" y1="1.91" x2="55.94" y2="55.94" gradientUnits="userSpaceOnUse">
      <stop offset="0" stop-color="#2c2e2c"/>
      <stop offset=".99" stop-color="#000"/>
    </linearGradient>
  </defs>
  <g id="Layer_1-2" data-name="Layer 1">
    <g>
      <g>
        <path class="cls-9" d="M38.18,5.41c-10.59,0-20.52,5.19-26.64,13.71V7.18c0-.93-.76-1.69-1.69-1.69s-1.69.76-1.69,1.69v15.98c0,.93.76,1.69,1.69,1.69h15.98c.94,0,1.69-.75,1.69-1.69s-.75-1.69-1.69-1.69h-11.82c5.46-7.87,14.51-12.68,24.17-12.68,16.21,0,29.39,13.18,29.39,29.39s-13.19,29.4-29.39,29.4-29.4-13.18-29.4-29.4c0-.93-.76-1.69-1.69-1.69s-1.69.76-1.69,1.69c0,18.07,14.7,32.78,32.77,32.78s32.77-14.7,32.77-32.78S56.25,5.41,38.18,5.41Z"/>
        <path class="cls-7" d="M37.56,4.78c-10.59,0-20.52,5.19-26.64,13.71V6.55c0-.93-.76-1.69-1.69-1.69s-1.69.76-1.69,1.69v15.98c0,.93.76,1.69,1.69,1.69h15.98c.94,0,1.69-.75,1.69-1.69s-.75-1.69-1.69-1.69h-11.82c5.46-7.87,14.51-12.68,24.17-12.68,16.21,0,29.39,13.18,29.39,29.39s-13.19,29.4-29.39,29.4-29.4-13.18-29.4-29.4c0-.93-.76-1.69-1.69-1.69s-1.69.76-1.69,1.69c0,18.07,14.7,32.78,32.77,32.78s32.77-14.7,32.77-32.78S55.63,4.78,37.56,4.78Z"/>
        <path class="cls-1" d="M36.93,4.16c-10.59,0-20.52,5.19-26.64,13.71V5.93c0-.93-.76-1.69-1.69-1.69s-1.69.76-1.69,1.69v15.98c0,.93.76,1.69,1.69,1.69h15.98c.94,0,1.69-.75,1.69-1.69s-.75-1.69-1.69-1.69h-11.82c5.46-7.87,14.51-12.68,24.17-12.68,16.21,0,29.39,13.18,29.39,29.39s-13.19,29.4-29.39,29.4S7.53,53.14,7.53,36.93c0-.93-.76-1.69-1.69-1.69s-1.69.76-1.69,1.69c0,18.07,14.7,32.78,32.77,32.78s32.77-14.7,32.77-32.78S55,4.16,36.93,4.16Z"/>
        <path class="cls-2" d="M36.31,3.53c-10.59,0-20.52,5.19-26.64,13.71V5.3c0-.93-.76-1.69-1.69-1.69s-1.69.76-1.69,1.69v15.98c0,.93.76,1.69,1.69,1.69h15.98c.94,0,1.69-.75,1.69-1.69s-.75-1.69-1.69-1.69h-11.82c5.46-7.87,14.51-12.68,24.17-12.68,16.21,0,29.39,13.18,29.39,29.39s-13.19,29.4-29.39,29.4S6.91,52.51,6.91,36.3c0-.93-.76-1.69-1.69-1.69s-1.69.76-1.69,1.69c0,18.07,14.7,32.78,32.77,32.78s32.77-14.7,32.77-32.78S54.38,3.53,36.31,3.53Z"/>
        <path class="cls-8" d="M35.68,2.91c-10.59,0-20.52,5.19-26.64,13.71V4.68c0-.93-.76-1.69-1.69-1.69s-1.69.76-1.69,1.69v15.98c0,.93.76,1.69,1.69,1.69h15.98c.94,0,1.69-.75,1.69-1.69s-.75-1.69-1.69-1.69h-11.82c5.46-7.87,14.51-12.68,24.17-12.68,16.21,0,29.39,13.18,29.39,29.39s-13.19,29.4-29.39,29.4S6.28,51.89,6.28,35.68c0-.93-.76-1.69-1.69-1.69s-1.69.76-1.69,1.69c0,18.07,14.7,32.78,32.77,32.78s32.77-14.7,32.77-32.78S53.75,2.91,35.68,2.91Z"/>
        <path class="cls-6" d="M35.06,2.28c-10.59,0-20.52,5.19-26.64,13.71V4.05c0-.93-.76-1.69-1.69-1.69s-1.69.76-1.69,1.69v15.98c0,.93.76,1.69,1.69,1.69h15.98c.94,0,1.69-.75,1.69-1.69s-.75-1.69-1.69-1.69h-11.82c5.46-7.87,14.51-12.68,24.17-12.68,16.21,0,29.39,13.18,29.39,29.39s-13.19,29.4-29.39,29.4S5.66,51.26,5.66,35.05c0-.93-.76-1.69-1.69-1.69s-1.69.76-1.69,1.69c0,18.07,14.7,32.78,32.77,32.78s32.77-14.7,32.77-32.78S53.13,2.28,35.06,2.28Z"/>
        <path class="cls-3" d="M34.43,1.66C23.84,1.66,13.91,6.85,7.79,15.37V3.43c0-.93-.76-1.69-1.69-1.69s-1.69.76-1.69,1.69v15.98c0,.93.76,1.69,1.69,1.69h15.98c.94,0,1.69-.75,1.69-1.69s-.75-1.69-1.69-1.69h-11.82c5.46-7.87,14.51-12.68,24.17-12.68,16.21,0,29.39,13.18,29.39,29.39s-13.19,29.4-29.39,29.4S5.03,50.64,5.03,34.43c0-.93-.76-1.69-1.69-1.69s-1.69.76-1.69,1.69c0,18.07,14.7,32.78,32.77,32.78s32.77-14.7,32.77-32.78S52.5,1.66,34.43,1.66Z"/>
        <path class="cls-5" d="M33.81,1.03C23.22,1.03,13.28,6.22,7.17,14.74V2.8c0-.93-.76-1.69-1.69-1.69s-1.69.76-1.69,1.69v15.98c0,.93.76,1.69,1.69,1.69h15.98c.94,0,1.69-.75,1.69-1.69s-.75-1.69-1.69-1.69h-11.82c5.46-7.87,14.51-12.68,24.17-12.68,16.21,0,29.39,13.18,29.39,29.39s-13.19,29.4-29.39,29.4S4.41,50.01,4.41,33.8c0-.93-.76-1.69-1.69-1.69s-1.69.76-1.69,1.69c0,18.07,14.7,32.78,32.77,32.78s32.77-14.7,32.77-32.78S51.88,1.03,33.81,1.03Z"/>
        <path class="cls-4" d="M33.18.41C22.59.41,12.66,5.6,6.54,14.12V2.18c0-.93-.76-1.69-1.69-1.69s-1.69.76-1.69,1.69v15.98c0,.93.76,1.69,1.69,1.69h15.98c.94,0,1.69-.75,1.69-1.69s-.75-1.69-1.69-1.69h-11.82c5.46-7.87,14.51-12.68,24.17-12.68,16.21,0,29.39,13.18,29.39,29.39s-13.19,29.4-29.39,29.4S3.78,49.39,3.78,33.18c0-.93-.76-1.69-1.69-1.69s-1.69.76-1.69,1.69c0,18.07,14.7,32.78,32.77,32.78s32.77-14.7,32.77-32.78S51.25.41,33.18.41Z"/>
      </g>
      <path class="cls-10" d="M32.77,0C22.18,0,12.25,5.19,6.14,13.71V1.77c0-.93-.76-1.69-1.69-1.69s-1.69.76-1.69,1.69v15.98c0,.93.76,1.69,1.69,1.69h15.98c.94,0,1.69-.75,1.69-1.69s-.75-1.69-1.69-1.69h-11.82c5.46-7.87,14.51-12.68,24.17-12.68,16.21,0,29.39,13.18,29.39,29.39s-13.19,29.4-29.39,29.4S3.38,48.98,3.38,32.77c0-.93-.76-1.69-1.69-1.69s-1.69.76-1.69,1.69c0,18.07,14.7,32.78,32.77,32.78s32.77-14.7,32.77-32.78S50.84,0,32.77,0Z"/>
    </g>
  </g>
</svg>