<?xml version="1.0" encoding="UTF-8"?>
<svg id="Layer_2" data-name="Layer 2" xmlns="http://www.w3.org/2000/svg" viewBox="0 0 19.2 27.35">
  <defs>
    <style>
      .cls-1 {
        fill-rule: evenodd;
      }
    </style>
  </defs>
  <g id="_1" data-name="1">
    <path class="cls-1" d="M14.43,0H1.09C.47,0,0,.47,0,1.09v25.14c0,.6.47,1.12,1.09,1.12h13.34c.6,0,1.08-.52,1.08-1.12v-7.03h-1.26v3.79H1.26V4.33h12.97v3.82h1.26V1.09c0-.62-.47-1.09-1.08-1.09h0ZM18.2,8.67H4.18c-.56,0-1,.44-1,1v8.02c0,.55.45.99,1,.99h14.02c.56,0,1-.45,1-.99v-8.02c0-.56-.45-1-1-1h0ZM6.69,10.67h.49c.37,0,.67.2.85.5h-1.34v-.5ZM5.17,11.66c0-.54.46-.99,1-.99h.02v3h-.02c-.54,0-1-.45-1-1.01v-1.01ZM7.18,16.69h-2.01v-1h2.01v1ZM7.18,13.68h-.49v-1.01h1.5c0,.56-.45,1.01-1.01,1.01h0ZM8.18,12.17h-1.5v-.51h1.5v.51ZM10.52,16.69h-2.01v-1h2.01v1ZM13.86,16.69h-2.01v-1h2.01v1ZM17.21,16.69h-2.01v-1h2.01v1ZM15.7,13.68c-.39,0-.73-.14-1-.39-.27.25-.62.39-1,.39-.83,0-1.51-.68-1.51-1.51s.67-1.5,1.51-1.5c.39,0,.73.14,1,.39.27-.24.62-.39,1-.39.83,0,1.51.67,1.51,1.5s-.67,1.51-1.51,1.51h0ZM5.41,2.29h0s.13.04.13.13-.08.13-.13.13c-.08,0-.13-.04-.13-.13s.04-.13.13-.13h0ZM4.47,2.12h0c.13,0,.26.13.26.3,0,.13-.13.26-.26.26-.17,0-.3-.13-.3-.26,0-.17.13-.3.3-.3h0ZM3.24,1.99h0c.23,0,.4.18.4.39,0,.17-.17.35-.4.35-.21,0-.34-.17-.34-.35,0-.21.13-.39.34-.39h0ZM1.95,1.95h0c.21,0,.39.17.39.43,0,.22-.17.39-.39.39-.26,0-.43-.17-.43-.39,0-.25.17-.43.43-.43h0ZM7.75,23.38h0c.9,0,1.65.73,1.65,1.64s-.75,1.65-1.65,1.65-1.65-.73-1.65-1.65.75-1.64,1.65-1.64h0ZM6.29,2.29h2.77c.13,0,.21.08.21.17,0,.13-.09.21-.21.21h-2.77c-.14,0-.23-.09-.23-.21,0-.09.09-.17.23-.17h0Z"/>
  </g>
</svg>