<?xml version="1.0" encoding="UTF-8"?>
<svg id="Layer_2" data-name="Layer 2" xmlns="http://www.w3.org/2000/svg" viewBox="0 0 10.01 27.36">
  <defs>
    <style>
      .cls-1 {
        fill-rule: evenodd;
      }
    </style>
  </defs>
  <g id="_1" data-name="1">
    <path class="cls-1" d="M.05,13.75h4.18v-2.84c-2.71-1.99-2.77-3.37-1.96-4.58.35-.53.87-1,1.41-1.49,1.28-1.18,2.63-2.4,1.13-4.42l.45-.41c3.1,2.53,4.13,4.73,3.86,6.62-.24,1.72-1.54,3.16-3.31,4.36v2.76h4.21v.06s-.88,13.5-.88,13.5v.06H1.25v-.05S0,13.8,0,13.8v-.06s.04,0,.04,0ZM5.06,10.74c1.84-1.17,3.22-2.55,3.45-4.2.21-1.44-.47-3.1-2.46-5.03.4,1.62-.79,2.71-1.95,3.77-.51.46-1,.91-1.32,1.38-.66.99-.5,2.18,2.28,4.08h0Z"/>
  </g>
</svg>