<?xml version="1.0" encoding="UTF-8"?>
<svg id="Layer_2" data-name="Layer 2" xmlns="http://www.w3.org/2000/svg" xmlns:xlink="http://www.w3.org/1999/xlink" viewBox="0 0 70.95 70.95">
  <defs>
    <style>
      .cls-1 {
        opacity: .14;
      }

      .cls-2 {
        fill: url(#linear-gradient-2);
      }

      .cls-3 {
        opacity: .21;
      }

      .cls-4 {
        opacity: .42;
      }

      .cls-5 {
        opacity: .55;
      }

      .cls-6 {
        opacity: .48;
      }

      .cls-7 {
        opacity: .35;
      }

      .cls-8 {
        opacity: .08;
      }

      .cls-9 {
        opacity: .28;
      }

      .cls-10 {
        opacity: 0;
      }

      .cls-11 {
        fill: url(#linear-gradient);
      }
    </style>
    <linearGradient id="linear-gradient" x1="8.97" y1="8.95" x2="57.4" y2="57.38" gradientUnits="userSpaceOnUse">
      <stop offset="0" stop-color="#8684c9"/>
      <stop offset="1" stop-color="#bfd4ff"/>
    </linearGradient>
    <linearGradient id="linear-gradient-2" x1="9.6" y1="9.61" x2="55.94" y2="55.94" gradientUnits="userSpaceOnUse">
      <stop offset="0" stop-color="#2c2e2c"/>
      <stop offset=".99" stop-color="#000"/>
    </linearGradient>
  </defs>
  <g id="Layer_1-2" data-name="Layer 1">
    <g>
      <path class="cls-11" d="M64.15,32.96c0,17.21-13.95,31.16-31.16,31.16S1.82,50.17,1.82,32.96,15.77,1.8,32.98,1.8s31.16,13.95,31.16,31.16Z"/>
      <g>
        <path class="cls-10" d="M36.77,54.81c-.96,0-1.74.78-1.74,1.75s.78,1.75,1.74,1.75,1.75-.78,1.75-1.75-.78-1.75-1.75-1.75ZM42.88,44.19c.54-.29,1.04-.56,1.46-.83,4.28-2.81,6.54-6.47,6.54-10.59,0-7.05-5.49-12.17-13.04-12.17-5.84,0-10.95,3.74-12.7,9.31-.28.89.22,1.84,1.11,2.12.89.28,1.84-.21,2.12-1.1,1.31-4.15,5.11-6.95,9.47-6.95,5.78,0,9.66,3.54,9.66,8.79,0,3.69-2.73,6.26-5.01,7.76-.29.19-.73.42-1.19.67-2.27,1.21-6.07,3.25-6.2,7.38,0,.04,0,.68,0,1.01v.19h0c.03,1.1.88,1.7,1.69,1.7.07,0,1.62-.02,1.69-1.76h0v-1.04c.06-2.01,2.04-3.23,4.42-4.5ZM38.18,5.41c-11.65,0-22.53,6.27-28.38,16.37-1.06,1.84-1.95,3.79-2.64,5.79-.3.88.17,1.84,1.05,2.14.88.3,1.84-.17,2.15-1.05.62-1.79,1.41-3.54,2.36-5.18,5.25-9.06,15-14.68,25.45-14.68,16.21,0,29.39,13.19,29.39,29.39s-13.19,29.4-29.39,29.4-29.39-13.19-29.39-29.4c0-.93-.76-1.69-1.69-1.69s-1.69.76-1.69,1.69c0,18.07,14.7,32.78,32.77,32.78s32.77-14.7,32.77-32.78S56.25,5.41,38.18,5.41Z"/>
        <path class="cls-8" d="M36.15,54.19c-.96,0-1.74.78-1.74,1.75s.78,1.75,1.74,1.75,1.75-.78,1.75-1.75-.78-1.75-1.75-1.75ZM42.26,43.56c.54-.29,1.04-.56,1.46-.83,4.28-2.81,6.54-6.47,6.54-10.59,0-7.05-5.49-12.17-13.04-12.17-5.84,0-10.95,3.74-12.7,9.31-.28.89.22,1.84,1.11,2.12.89.28,1.84-.21,2.12-1.1,1.31-4.15,5.11-6.95,9.47-6.95,5.78,0,9.66,3.54,9.66,8.79,0,3.69-2.72,6.27-5.01,7.76-.29.19-.73.42-1.19.67-2.27,1.21-6.03,3.25-6.2,7.38,0,.04,0,.68,0,1.01v.19h0c.03,1.1.88,1.7,1.69,1.7.07,0,1.62-.02,1.69-1.76h0v-.12c0-.3,0-.87,0-.92.03-2.01,2.04-3.23,4.42-4.5ZM37.55,4.78c-11.65,0-22.53,6.27-28.38,16.37-1.06,1.84-1.95,3.79-2.64,5.79-.3.88.17,1.84,1.05,2.14.88.3,1.84-.17,2.15-1.05.62-1.79,1.41-3.54,2.36-5.18,5.25-9.06,15-14.68,25.45-14.68,16.21,0,29.39,13.19,29.39,29.39s-13.19,29.4-29.39,29.4-29.39-13.19-29.39-29.4c0-.93-.76-1.69-1.69-1.69s-1.69.76-1.69,1.69c0,18.07,14.7,32.78,32.77,32.78s32.77-14.7,32.77-32.78S55.62,4.78,37.55,4.78Z"/>
        <path class="cls-1" d="M35.52,53.56c-.96,0-1.74.78-1.74,1.75s.78,1.75,1.74,1.75,1.75-.78,1.75-1.75-.78-1.75-1.75-1.75ZM41.63,42.94c.54-.29,1.04-.56,1.46-.83,4.28-2.81,6.54-6.47,6.54-10.59,0-7.05-5.49-12.17-13.04-12.17-5.84,0-10.95,3.74-12.7,9.31-.28.89.22,1.84,1.11,2.12.89.28,1.84-.21,2.12-1.1,1.31-4.15,5.11-6.95,9.47-6.95,5.78,0,9.66,3.54,9.66,8.79,0,3.69-2.72,6.27-5.01,7.76-.29.19-.73.42-1.19.67-2.27,1.21-6.03,3.25-6.2,7.38,0,.04,0,.68,0,1.01v.19h0c.03,1.1.88,1.7,1.69,1.7.07,0,1.62-.02,1.69-1.76h0v-.12c0-.3,0-.87,0-.92.03-2.01,2.04-3.23,4.42-4.5ZM36.93,4.16c-11.65,0-22.53,6.27-28.38,16.37-1.06,1.84-1.95,3.79-2.64,5.79-.3.88.17,1.84,1.05,2.14.88.3,1.84-.17,2.15-1.05.62-1.79,1.41-3.54,2.36-5.18,5.25-9.06,15-14.68,25.45-14.68,16.21,0,29.39,13.19,29.39,29.39s-13.19,29.4-29.39,29.4S7.54,53.14,7.54,36.93c0-.93-.76-1.69-1.69-1.69s-1.69.76-1.69,1.69c0,18.07,14.7,32.78,32.77,32.78s32.77-14.7,32.77-32.78S55,4.16,36.93,4.16Z"/>
        <path class="cls-3" d="M34.9,52.94c-.96,0-1.74.78-1.74,1.75s.78,1.75,1.74,1.75,1.75-.78,1.75-1.75-.78-1.75-1.75-1.75ZM41.01,42.31c.54-.29,1.04-.56,1.46-.83,4.28-2.81,6.54-6.47,6.54-10.59,0-7.05-5.49-12.17-13.04-12.17-5.84,0-10.95,3.74-12.7,9.31-.28.89.22,1.84,1.11,2.12.89.28,1.84-.21,2.12-1.1,1.31-4.15,5.11-6.95,9.47-6.95,5.78,0,9.66,3.54,9.66,8.79,0,3.69-2.72,6.27-5.01,7.76-.29.19-.73.42-1.19.67-2.27,1.21-6.03,3.25-6.2,7.38,0,.04,0,.68,0,1.01v.19h0c.03,1.1.88,1.7,1.69,1.7.07,0,1.62-.02,1.69-1.76h0v-.12c0-.3,0-.87,0-.92.03-2.01,2.04-3.23,4.42-4.5ZM36.3,3.53c-11.65,0-22.53,6.27-28.38,16.37-1.06,1.84-1.95,3.79-2.64,5.79-.3.88.17,1.84,1.05,2.14.88.3,1.84-.17,2.15-1.05.62-1.79,1.41-3.54,2.36-5.18,5.25-9.06,15-14.68,25.45-14.68,16.21,0,29.39,13.19,29.39,29.39s-13.19,29.4-29.39,29.4S6.91,52.52,6.91,36.3c0-.93-.76-1.69-1.69-1.69s-1.69.76-1.69,1.69c0,18.07,14.7,32.78,32.77,32.78s32.77-14.7,32.77-32.78S54.37,3.53,36.3,3.53Z"/>
        <path class="cls-9" d="M34.27,52.31c-.96,0-1.74.78-1.74,1.75s.78,1.75,1.74,1.75,1.75-.78,1.75-1.75-.78-1.75-1.75-1.75ZM40.38,41.69c.54-.29,1.04-.56,1.46-.83,4.28-2.81,6.54-6.47,6.54-10.59,0-7.05-5.49-12.17-13.04-12.17-5.84,0-10.95,3.74-12.7,9.31-.28.89.22,1.84,1.11,2.12.89.28,1.84-.21,2.12-1.1,1.31-4.15,5.11-6.95,9.47-6.95,5.78,0,9.66,3.54,9.66,8.79,0,3.69-2.72,6.27-5.01,7.76-.29.19-.73.42-1.19.67-2.27,1.21-6.03,3.25-6.2,7.38,0,.04,0,.68,0,1.01v.19h0c.03,1.1.88,1.7,1.69,1.7.07,0,1.62-.02,1.69-1.76h0v-.12c0-.3,0-.87,0-.92.03-2.01,2.04-3.23,4.42-4.5ZM35.68,2.91c-11.65,0-22.53,6.27-28.38,16.37-1.06,1.84-1.95,3.79-2.64,5.79-.3.88.17,1.84,1.05,2.14.88.3,1.84-.17,2.15-1.05.62-1.79,1.41-3.54,2.36-5.18,5.25-9.06,15-14.68,25.45-14.68,16.21,0,29.39,13.19,29.39,29.39s-13.19,29.4-29.39,29.4S6.29,51.89,6.29,35.68c0-.93-.76-1.69-1.69-1.69s-1.69.76-1.69,1.69c0,18.07,14.7,32.78,32.77,32.78s32.77-14.7,32.77-32.78S53.75,2.91,35.68,2.91Z"/>
        <path class="cls-7" d="M33.65,51.69c-.96,0-1.74.78-1.74,1.75s.78,1.75,1.74,1.75,1.75-.78,1.75-1.75-.78-1.75-1.75-1.75ZM39.76,41.06c.54-.29,1.04-.56,1.46-.83,4.28-2.81,6.54-6.47,6.54-10.59,0-7.05-5.49-12.17-13.04-12.17-5.84,0-10.95,3.74-12.7,9.31-.28.89.22,1.84,1.11,2.12.89.28,1.84-.21,2.12-1.1,1.31-4.15,5.11-6.95,9.47-6.95,5.78,0,9.66,3.54,9.66,8.79,0,3.69-2.72,6.27-5.01,7.76-.29.19-.73.42-1.19.67-2.27,1.21-6.03,3.25-6.2,7.38,0,.04,0,.68,0,1.01v.19h0c.03,1.1.88,1.7,1.69,1.7.07,0,1.62-.02,1.69-1.76h0v-.12c0-.3,0-.87,0-.92.03-2.01,2.04-3.23,4.42-4.5ZM35.05,2.28c-11.65,0-22.53,6.27-28.38,16.37-1.06,1.84-1.95,3.79-2.64,5.79-.3.88.17,1.84,1.05,2.14.88.3,1.84-.17,2.15-1.05.62-1.79,1.41-3.54,2.36-5.18,5.25-9.06,15-14.68,25.45-14.68,16.21,0,29.39,13.19,29.39,29.39s-13.19,29.4-29.39,29.4S5.66,51.27,5.66,35.05c0-.93-.76-1.69-1.69-1.69s-1.69.76-1.69,1.69c0,18.07,14.7,32.78,32.77,32.78s32.77-14.7,32.77-32.78S53.12,2.28,35.05,2.28Z"/>
        <path class="cls-4" d="M33.02,51.06c-.96,0-1.74.78-1.74,1.75s.78,1.75,1.74,1.75,1.75-.78,1.75-1.75-.78-1.75-1.75-1.75ZM39.13,40.44c.54-.29,1.04-.56,1.46-.83,4.28-2.81,6.54-6.47,6.54-10.59,0-7.05-5.49-12.17-13.04-12.17-5.84,0-10.95,3.74-12.7,9.31-.28.89.22,1.84,1.11,2.12.89.28,1.84-.21,2.12-1.1,1.31-4.15,5.11-6.95,9.47-6.95,5.78,0,9.66,3.54,9.66,8.79,0,3.69-2.72,6.27-5.01,7.76-.29.19-.73.42-1.19.67-2.27,1.21-6.03,3.25-6.2,7.38,0,.04,0,.68,0,1.01v.19h0c.03,1.1.88,1.7,1.69,1.7.07,0,1.62-.02,1.69-1.76h0v-.12c0-.3,0-.87,0-.92.03-2.01,2.04-3.23,4.42-4.5ZM34.43,1.66C22.78,1.66,11.9,7.93,6.05,18.02c-1.06,1.84-1.95,3.79-2.64,5.79-.3.88.17,1.84,1.05,2.14.88.3,1.84-.17,2.15-1.05.62-1.79,1.41-3.54,2.36-5.18,5.25-9.06,15-14.68,25.45-14.68,16.21,0,29.39,13.19,29.39,29.39s-13.19,29.4-29.39,29.4S5.04,50.64,5.04,34.43c0-.93-.76-1.69-1.69-1.69s-1.69.76-1.69,1.69c0,18.07,14.7,32.78,32.77,32.78s32.77-14.7,32.77-32.78S52.5,1.66,34.43,1.66Z"/>
        <path class="cls-6" d="M32.4,50.44c-.96,0-1.74.78-1.74,1.75s.78,1.75,1.74,1.75,1.75-.78,1.75-1.75-.78-1.75-1.75-1.75ZM38.51,39.81c.54-.29,1.04-.56,1.46-.83,4.28-2.81,6.54-6.47,6.54-10.59,0-7.05-5.49-12.17-13.04-12.17-5.84,0-10.95,3.74-12.7,9.31-.28.89.22,1.84,1.11,2.12.89.28,1.84-.21,2.12-1.1,1.31-4.15,5.11-6.95,9.47-6.95,5.78,0,9.66,3.54,9.66,8.79,0,3.69-2.72,6.27-5.01,7.76-.29.19-.73.42-1.19.67-2.27,1.21-6.03,3.25-6.2,7.38,0,.04,0,.68,0,1.01v.19h0c.03,1.1.88,1.7,1.69,1.7.07,0,1.62-.02,1.69-1.76h0v-.12c0-.3,0-.87,0-.92.03-2.01,2.04-3.23,4.42-4.5ZM33.8,1.03C22.15,1.03,11.28,7.3,5.43,17.4c-1.06,1.84-1.95,3.79-2.64,5.79-.3.88.17,1.84,1.05,2.14.88.3,1.84-.17,2.15-1.05.62-1.79,1.41-3.54,2.36-5.18,5.25-9.06,15-14.68,25.45-14.68,16.21,0,29.39,13.19,29.39,29.39s-13.19,29.4-29.39,29.4S4.41,50.02,4.41,33.8c0-.93-.76-1.69-1.69-1.69s-1.69.76-1.69,1.69c0,18.07,14.7,32.78,32.77,32.78s32.77-14.7,32.77-32.78S51.87,1.03,33.8,1.03Z"/>
        <path class="cls-5" d="M31.77,49.81c-.96,0-1.74.78-1.74,1.75s.78,1.75,1.74,1.75,1.75-.78,1.75-1.75-.78-1.75-1.75-1.75ZM37.88,39.19c.54-.29,1.04-.56,1.46-.83,4.28-2.81,6.54-6.47,6.54-10.59,0-7.05-5.49-12.17-13.04-12.17-5.84,0-10.95,3.74-12.7,9.31-.28.89.22,1.84,1.11,2.12.89.28,1.84-.21,2.12-1.1,1.31-4.15,5.11-6.95,9.47-6.95,5.78,0,9.66,3.54,9.66,8.79,0,3.69-2.73,6.26-5.01,7.76-.29.19-.73.42-1.19.67-2.27,1.21-6.07,3.25-6.2,7.38,0,.04,0,.68,0,1.01v.19h0c.03,1.1.88,1.7,1.69,1.7.07,0,1.62-.02,1.69-1.76h0v-1.04c.06-2.01,2.04-3.23,4.42-4.5ZM33.18.41C21.53.41,10.65,6.68,4.8,16.77c-1.06,1.84-1.95,3.79-2.64,5.79-.3.88.17,1.84,1.05,2.14.88.3,1.84-.17,2.15-1.05.62-1.79,1.41-3.54,2.36-5.18C12.97,9.41,22.73,3.79,33.18,3.79c16.21,0,29.39,13.19,29.39,29.39s-13.19,29.4-29.39,29.4S3.79,49.39,3.79,33.18c0-.93-.76-1.69-1.69-1.69s-1.69.76-1.69,1.69c0,18.07,14.7,32.78,32.77,32.78s32.77-14.7,32.77-32.78S51.25.41,33.18.41Z"/>
      </g>
      <path class="cls-2" d="M31.37,49.4c-.96,0-1.74.78-1.74,1.75s.78,1.75,1.74,1.75,1.75-.78,1.75-1.75-.78-1.75-1.75-1.75ZM32.77,0C21.12,0,10.25,6.27,4.4,16.37c-1.06,1.84-1.95,3.79-2.64,5.79-.3.88.17,1.84,1.05,2.14.88.3,1.84-.17,2.15-1.05.62-1.79,1.41-3.54,2.36-5.18C12.57,9.01,22.32,3.38,32.77,3.38c16.21,0,29.39,13.19,29.39,29.39s-13.19,29.4-29.39,29.4S3.38,48.98,3.38,32.77c0-.93-.76-1.69-1.69-1.69s-1.69.76-1.69,1.69c0,18.07,14.7,32.78,32.77,32.78s32.77-14.7,32.77-32.78S50.84,0,32.77,0ZM37.48,38.78c.54-.29,1.04-.56,1.46-.83,4.28-2.81,6.54-6.47,6.54-10.59,0-7.05-5.49-12.17-13.04-12.17-5.84,0-10.95,3.74-12.7,9.31-.28.89.22,1.84,1.11,2.12.89.28,1.84-.21,2.12-1.1,1.31-4.15,5.11-6.95,9.47-6.95,5.78,0,9.66,3.54,9.66,8.79,0,3.69-2.73,6.26-5.01,7.76-.29.19-.73.42-1.19.67-2.27,1.21-6.07,3.25-6.2,7.38,0,.04,0,.68,0,1.01v.19h0c.03,1.1.88,1.7,1.69,1.7.07,0,1.62-.02,1.69-1.76h0v-1.04c.06-2.01,2.04-3.23,4.42-4.5Z"/>
    </g>
  </g>
</svg>