<?xml version="1.0" encoding="UTF-8"?>
<svg id="Layer_2" data-name="Layer 2" xmlns="http://www.w3.org/2000/svg" viewBox="0 0 20.52 27.36">
  <defs>
    <style>
      .cls-1 {
        fill-rule: evenodd;
      }
    </style>
  </defs>
  <g id="_1" data-name="1">
    <path class="cls-1" d="M17.09,9.41c0-5.19-3.07-9.41-6.84-9.41S3.41,4.22,3.41,9.41H0v17.95h20.52V9.41h-3.42ZM4.27,12.83c-.48,0-.86-.39-.86-.86s.38-.85.86-.85.85.39.85.85-.38.86-.85.86h0ZM10.25,1.71c2.83,0,5.13,3.45,5.13,7.7H5.12c0-4.24,2.3-7.7,5.13-7.7h0ZM16.24,12.83c-.47,0-.86-.39-.86-.86s.39-.85.86-.85.85.39.85.85-.38.86-.85.86h0Z"/>
  </g>
</svg>