<?xml version="1.0" encoding="UTF-8"?>
<svg id="Layer_2" data-name="Layer 2" xmlns="http://www.w3.org/2000/svg" xmlns:xlink="http://www.w3.org/1999/xlink" viewBox="0 0 74.33 64.76">
  <defs>
    <style>
      .cls-1 {
        opacity: .14;
      }

      .cls-2 {
        fill: url(#linear-gradient-2);
      }

      .cls-3 {
        opacity: .21;
      }

      .cls-4 {
        opacity: .42;
      }

      .cls-5 {
        opacity: .55;
      }

      .cls-6 {
        fill: url(#linear-gradient-4);
      }

      .cls-7 {
        opacity: .48;
      }

      .cls-8 {
        opacity: .35;
      }

      .cls-9 {
        fill: url(#linear-gradient-3);
      }

      .cls-10 {
        opacity: .08;
      }

      .cls-11 {
        opacity: .28;
      }

      .cls-12 {
        opacity: 0;
      }

      .cls-13 {
        fill: url(#linear-gradient);
      }
    </style>
    <linearGradient id="linear-gradient" x1="3.28" y1="37.09" x2="22.33" y2="56.14" gradientUnits="userSpaceOnUse">
      <stop offset="0" stop-color="#4ba129"/>
      <stop offset="1" stop-color="#c7ff3c"/>
    </linearGradient>
    <linearGradient id="linear-gradient-2" x1="20.56" y1="24.87" x2="48.06" y2="52.37" gradientUnits="userSpaceOnUse">
      <stop offset="0" stop-color="#f2a300"/>
      <stop offset="1" stop-color="#ffff36"/>
    </linearGradient>
    <linearGradient id="linear-gradient-3" x1="37.4" y1="11.62" x2="73.66" y2="47.87" gradientUnits="userSpaceOnUse">
      <stop offset="0" stop-color="#eb0a00"/>
      <stop offset="1" stop-color="#ff853b"/>
    </linearGradient>
    <linearGradient id="linear-gradient-4" x1="21.1" y1="19.47" x2="64.46" y2="62.83" gradientUnits="userSpaceOnUse">
      <stop offset="0" stop-color="#2c2e2c"/>
      <stop offset=".99" stop-color="#000"/>
    </linearGradient>
  </defs>
  <g id="Layer_1-2" data-name="Layer 1">
    <g>
      <rect class="cls-13" x="5.89" y="35.8" width="14.03" height="21.84"/>
      <rect class="cls-2" x="27.45" y="19.89" width="14.03" height="37.75"/>
      <rect class="cls-9" x="49" y="2.53" width="13.45" height="54.82"/>
      <g>
        <path class="cls-12" d="M72.64,61.38h-2.48V10.73c0-2.94-2.39-5.33-5.33-5.33h-7.02c-2.94,0-5.33,2.39-5.33,5.33v44.96c0,.93.76,1.69,1.69,1.69s1.69-.76,1.69-1.69V10.73c0-1.08.87-1.95,1.95-1.95h7.02c1.08,0,1.95.87,1.95,1.95v50.65h-18.07V27.75c0-2.94-2.39-5.33-5.33-5.33h-7.02c-2.94,0-5.33,2.39-5.33,5.33v27.95c0,.93.76,1.69,1.69,1.69s1.69-.76,1.69-1.69v-27.95c0-1.08.88-1.95,1.95-1.95h7.02c1.08,0,1.95.87,1.95,1.95v33.63h-18.08v-17.37c0-2.94-2.39-5.33-5.33-5.33h-7.02c-2.94,0-5.33,2.39-5.33,5.33v11.68c0,.93.76,1.69,1.69,1.69s1.69-.76,1.69-1.69v-11.68c0-1.07.87-1.95,1.95-1.95h7.02c1.07,0,1.95.88,1.95,1.95v17.37H7.09c-.93,0-1.69.76-1.69,1.69s.75,1.69,1.69,1.69h65.55c.93,0,1.69-.76,1.69-1.69s-.76-1.69-1.69-1.69Z"/>
        <path class="cls-10" d="M72.02,60.76h-2.48V10.11c0-2.94-2.39-5.33-5.33-5.33h-7.02c-2.94,0-5.33,2.39-5.33,5.33v44.96c0,.93.76,1.69,1.69,1.69s1.69-.76,1.69-1.69V10.11c0-1.08.87-1.95,1.95-1.95h7.02c1.08,0,1.95.87,1.95,1.95v50.65h-18.07V27.13c0-2.94-2.39-5.33-5.33-5.33h-7.02c-2.94,0-5.33,2.39-5.33,5.33v27.95c0,.93.76,1.69,1.69,1.69s1.69-.76,1.69-1.69v-27.95c0-1.08.88-1.95,1.95-1.95h7.02c1.08,0,1.95.87,1.95,1.95v33.63h-18.08v-17.37c0-2.94-2.39-5.33-5.33-5.33h-7.02c-2.94,0-5.33,2.39-5.33,5.33v11.68c0,.93.76,1.69,1.69,1.69s1.69-.76,1.69-1.69v-11.68c0-1.07.87-1.95,1.95-1.95h7.02c1.07,0,1.95.88,1.95,1.95v17.37H6.47c-.93,0-1.69.76-1.69,1.69s.75,1.69,1.69,1.69h65.55c.93,0,1.69-.76,1.69-1.69s-.76-1.69-1.69-1.69Z"/>
        <path class="cls-1" d="M71.39,60.13h-2.48V9.48c0-2.94-2.39-5.33-5.33-5.33h-7.02c-2.94,0-5.33,2.39-5.33,5.33v44.96c0,.93.76,1.69,1.69,1.69s1.69-.76,1.69-1.69V9.48c0-1.08.87-1.95,1.95-1.95h7.02c1.08,0,1.95.87,1.95,1.95v50.65h-18.07V26.5c0-2.94-2.39-5.33-5.33-5.33h-7.02c-2.94,0-5.33,2.39-5.33,5.33v27.95c0,.93.76,1.69,1.69,1.69s1.69-.76,1.69-1.69v-27.95c0-1.08.88-1.95,1.95-1.95h7.02c1.08,0,1.95.87,1.95,1.95v33.63h-18.08v-17.37c0-2.94-2.39-5.33-5.33-5.33h-7.02c-2.94,0-5.33,2.39-5.33,5.33v11.68c0,.93.76,1.69,1.69,1.69s1.69-.76,1.69-1.69v-11.68c0-1.07.87-1.95,1.95-1.95h7.02c1.07,0,1.95.88,1.95,1.95v17.37H5.84c-.93,0-1.69.76-1.69,1.69s.75,1.69,1.69,1.69h65.55c.93,0,1.69-.76,1.69-1.69s-.76-1.69-1.69-1.69Z"/>
        <path class="cls-3" d="M70.77,59.51h-2.48V8.86c0-2.94-2.39-5.33-5.33-5.33h-7.02c-2.94,0-5.33,2.39-5.33,5.33v44.96c0,.93.76,1.69,1.69,1.69s1.69-.76,1.69-1.69V8.86c0-1.08.87-1.95,1.95-1.95h7.02c1.08,0,1.95.87,1.95,1.95v50.65h-18.07V25.88c0-2.94-2.39-5.33-5.33-5.33h-7.02c-2.94,0-5.33,2.39-5.33,5.33v27.95c0,.93.76,1.69,1.69,1.69s1.69-.76,1.69-1.69v-27.95c0-1.08.88-1.95,1.95-1.95h7.02c1.08,0,1.95.87,1.95,1.95v33.63h-18.08v-17.37c0-2.94-2.39-5.33-5.33-5.33h-7.02c-2.94,0-5.33,2.39-5.33,5.33v11.68c0,.93.76,1.69,1.69,1.69s1.69-.76,1.69-1.69v-11.68c0-1.07.87-1.95,1.95-1.95h7.02c1.07,0,1.95.88,1.95,1.95v17.37H5.22c-.93,0-1.69.76-1.69,1.69s.75,1.69,1.69,1.69h65.55c.93,0,1.69-.76,1.69-1.69s-.76-1.69-1.69-1.69Z"/>
        <path class="cls-11" d="M70.14,58.88h-2.48V8.23c0-2.94-2.39-5.33-5.33-5.33h-7.02c-2.94,0-5.33,2.39-5.33,5.33v44.96c0,.93.76,1.69,1.69,1.69s1.69-.76,1.69-1.69V8.23c0-1.08.87-1.95,1.95-1.95h7.02c1.08,0,1.95.87,1.95,1.95v50.65h-18.07V25.25c0-2.94-2.39-5.33-5.33-5.33h-7.02c-2.94,0-5.33,2.39-5.33,5.33v27.95c0,.93.76,1.69,1.69,1.69s1.69-.76,1.69-1.69v-27.95c0-1.08.88-1.95,1.95-1.95h7.02c1.08,0,1.95.87,1.95,1.95v33.63h-18.08v-17.37c0-2.94-2.39-5.33-5.33-5.33h-7.02c-2.94,0-5.33,2.39-5.33,5.33v11.68c0,.93.76,1.69,1.69,1.69s1.69-.76,1.69-1.69v-11.68c0-1.07.87-1.95,1.95-1.95h7.02c1.07,0,1.95.88,1.95,1.95v17.37H4.59c-.93,0-1.69.76-1.69,1.69s.75,1.69,1.69,1.69h65.55c.93,0,1.69-.76,1.69-1.69s-.76-1.69-1.69-1.69Z"/>
        <path class="cls-8" d="M69.52,58.26h-2.48V7.61c0-2.94-2.39-5.33-5.33-5.33h-7.02c-2.94,0-5.33,2.39-5.33,5.33v44.96c0,.93.76,1.69,1.69,1.69s1.69-.76,1.69-1.69V7.61c0-1.08.87-1.95,1.95-1.95h7.02c1.08,0,1.95.87,1.95,1.95v50.65h-18.07V24.63c0-2.94-2.39-5.33-5.33-5.33h-7.02c-2.94,0-5.33,2.39-5.33,5.33v27.95c0,.93.76,1.69,1.69,1.69s1.69-.76,1.69-1.69v-27.95c0-1.08.88-1.95,1.95-1.95h7.02c1.08,0,1.95.87,1.95,1.95v33.63h-18.08v-17.37c0-2.94-2.39-5.33-5.33-5.33h-7.02c-2.94,0-5.33,2.39-5.33,5.33v11.68c0,.93.76,1.69,1.69,1.69s1.69-.76,1.69-1.69v-11.68c0-1.07.87-1.95,1.95-1.95h7.02c1.07,0,1.95.88,1.95,1.95v17.37H3.97c-.93,0-1.69.76-1.69,1.69s.75,1.69,1.69,1.69h65.55c.93,0,1.69-.76,1.69-1.69s-.76-1.69-1.69-1.69Z"/>
        <path class="cls-4" d="M68.89,57.63h-2.48V6.98c0-2.94-2.39-5.33-5.33-5.33h-7.02c-2.94,0-5.33,2.39-5.33,5.33v44.96c0,.93.76,1.69,1.69,1.69s1.69-.76,1.69-1.69V6.98c0-1.08.87-1.95,1.95-1.95h7.02c1.08,0,1.95.87,1.95,1.95v50.65h-18.07V24c0-2.94-2.39-5.33-5.33-5.33h-7.02c-2.94,0-5.33,2.39-5.33,5.33v27.95c0,.93.76,1.69,1.69,1.69s1.69-.76,1.69-1.69v-27.95c0-1.08.88-1.95,1.95-1.95h7.02c1.08,0,1.95.87,1.95,1.95v33.63h-18.08v-17.37c0-2.94-2.39-5.33-5.33-5.33h-7.02c-2.94,0-5.33,2.39-5.33,5.33v11.68c0,.93.76,1.69,1.69,1.69s1.69-.76,1.69-1.69v-11.68c0-1.07.87-1.95,1.95-1.95h7.02c1.07,0,1.95.88,1.95,1.95v17.37H3.34c-.93,0-1.69.76-1.69,1.69s.75,1.69,1.69,1.69h65.55c.93,0,1.69-.76,1.69-1.69s-.76-1.69-1.69-1.69Z"/>
        <path class="cls-7" d="M68.27,57.01h-2.48V6.36c0-2.94-2.39-5.33-5.33-5.33h-7.02c-2.94,0-5.33,2.39-5.33,5.33v44.96c0,.93.76,1.69,1.69,1.69s1.69-.76,1.69-1.69V6.36c0-1.08.87-1.95,1.95-1.95h7.02c1.08,0,1.95.87,1.95,1.95v50.65h-18.07V23.38c0-2.94-2.39-5.33-5.33-5.33h-7.02c-2.94,0-5.33,2.39-5.33,5.33v27.95c0,.93.76,1.69,1.69,1.69s1.69-.76,1.69-1.69v-27.95c0-1.08.88-1.95,1.95-1.95h7.02c1.08,0,1.95.87,1.95,1.95v33.63h-18.08v-17.37c0-2.94-2.39-5.33-5.33-5.33h-7.02c-2.94,0-5.33,2.39-5.33,5.33v11.68c0,.93.76,1.69,1.69,1.69s1.69-.76,1.69-1.69v-11.68c0-1.07.87-1.95,1.95-1.95h7.02c1.07,0,1.95.88,1.95,1.95v17.37H2.72c-.93,0-1.69.76-1.69,1.69s.75,1.69,1.69,1.69h65.55c.93,0,1.69-.76,1.69-1.69s-.76-1.69-1.69-1.69Z"/>
        <path class="cls-5" d="M67.64,56.38h-2.48V5.73c0-2.94-2.39-5.33-5.33-5.33h-7.02c-2.94,0-5.33,2.39-5.33,5.33v44.96c0,.93.76,1.69,1.69,1.69s1.69-.76,1.69-1.69V5.73c0-1.08.87-1.95,1.95-1.95h7.02c1.08,0,1.95.87,1.95,1.95v50.65h-18.07V22.75c0-2.94-2.39-5.33-5.33-5.33h-7.02c-2.94,0-5.33,2.39-5.33,5.33v27.95c0,.93.76,1.69,1.69,1.69s1.69-.76,1.69-1.69v-27.95c0-1.08.88-1.95,1.95-1.95h7.02c1.08,0,1.95.87,1.95,1.95v33.63h-18.08v-17.37c0-2.94-2.39-5.33-5.33-5.33h-7.02c-2.94,0-5.33,2.39-5.33,5.33v11.68c0,.93.76,1.69,1.69,1.69s1.69-.76,1.69-1.69v-11.68c0-1.07.87-1.95,1.95-1.95h7.02c1.07,0,1.95.88,1.95,1.95v17.37H2.09c-.93,0-1.69.76-1.69,1.69s.75,1.69,1.69,1.69h65.55c.93,0,1.69-.76,1.69-1.69s-.76-1.69-1.69-1.69Z"/>
      </g>
      <path class="cls-6" d="M67.24,55.98h-2.48V5.33c0-2.94-2.39-5.33-5.33-5.33h-7.02c-2.94,0-5.33,2.39-5.33,5.33v44.96c0,.93.76,1.69,1.69,1.69s1.69-.76,1.69-1.69V5.33c0-1.08.87-1.95,1.95-1.95h7.02c1.08,0,1.95.87,1.95,1.95v50.65h-18.07V22.35c0-2.94-2.39-5.33-5.33-5.33h-7.02c-2.94,0-5.33,2.39-5.33,5.33v27.95c0,.93.76,1.69,1.69,1.69s1.69-.76,1.69-1.69v-27.95c0-1.08.88-1.95,1.95-1.95h7.02c1.08,0,1.95.87,1.95,1.95v33.63h-18.08v-17.37c0-2.94-2.39-5.33-5.33-5.33h-7.02c-2.94,0-5.33,2.39-5.33,5.33v11.68c0,.93.76,1.69,1.69,1.69s1.69-.76,1.69-1.69v-11.68c0-1.07.87-1.95,1.95-1.95h7.02c1.07,0,1.95.88,1.95,1.95v17.37H1.69c-.93,0-1.69.76-1.69,1.69s.75,1.69,1.69,1.69h65.55c.93,0,1.69-.76,1.69-1.69s-.76-1.69-1.69-1.69Z"/>
    </g>
  </g>
</svg>