<?xml version="1.0" encoding="UTF-8"?>
<svg id="Layer_2" data-name="Layer 2" xmlns="http://www.w3.org/2000/svg" xmlns:xlink="http://www.w3.org/1999/xlink" viewBox="0 0 66.33 83.23">
  <defs>
    <style>
      .cls-1 {
        opacity: .14;
      }

      .cls-2 {
        fill: url(#linear-gradient-2);
      }

      .cls-3 {
        opacity: .21;
      }

      .cls-4 {
        opacity: .42;
      }

      .cls-5 {
        opacity: .55;
      }

      .cls-6 {
        fill: url(#linear-gradient-4);
      }

      .cls-7 {
        opacity: .48;
      }

      .cls-8 {
        opacity: .35;
      }

      .cls-9 {
        fill: url(#linear-gradient-3);
      }

      .cls-10 {
        opacity: .08;
      }

      .cls-11 {
        opacity: .28;
      }

      .cls-12 {
        opacity: 0;
      }

      .cls-13 {
        fill: url(#linear-gradient);
      }
    </style>
    <linearGradient id="linear-gradient" x1="7.46" y1="9.39" x2="52.81" y2="54.74" gradientUnits="userSpaceOnUse">
      <stop offset="0" stop-color="#eb0a00"/>
      <stop offset="1" stop-color="#ff853b"/>
    </linearGradient>
    <linearGradient id="linear-gradient-2" x1="19.24" y1="18.92" x2="41.59" y2="41.26" gradientUnits="userSpaceOnUse">
      <stop offset="0" stop-color="#c0c1c0"/>
      <stop offset=".2" stop-color="#d4d4d4"/>
      <stop offset=".49" stop-color="#ebeceb"/>
      <stop offset=".77" stop-color="#fafafa"/>
      <stop offset="1" stop-color="#fff"/>
    </linearGradient>
    <linearGradient id="linear-gradient-3" x1="7.68" y1="10.18" x2="53.24" y2="55.74" gradientUnits="userSpaceOnUse">
      <stop offset="0" stop-color="#2c2e2c"/>
      <stop offset=".99" stop-color="#000"/>
    </linearGradient>
    <linearGradient id="linear-gradient-4" x1="18.77" y1="18.77" x2="42.15" y2="42.15" xlink:href="#linear-gradient-3"/>
  </defs>
  <g id="Layer_1-2" data-name="Layer 1">
    <g>
      <path class="cls-13" d="M58.84,30.14c0,5.92-1.8,11.42-4.88,15.98-5.14,7.6-23.45,28.77-23.45,28.77,0,0-16.36-19.87-21.6-25.74-4.5-5.05-7.24-11.71-7.24-19.01C1.67,14.36,14.47,1.56,30.25,1.56s28.58,12.8,28.58,28.58Z"/>
      <path class="cls-2" d="M45.41,30.21c0,8.22-6.66,14.88-14.88,14.88s-14.88-6.66-14.88-14.88,6.66-14.88,14.88-14.88,14.88,6.66,14.88,14.88Z"/>
      <g>
        <g class="cls-12">
          <path d="M35.87,83.23h0c-.51,0-.99-.23-1.31-.62l-22.39-27.59s-.06-.08-.08-.11c-4.31-5.38-6.68-12.13-6.68-19.02,0-.93.76-1.69,1.69-1.69s1.69.76,1.69,1.69c0,6.26,2.08,12.14,6.01,17,.03.03.05.07.08.1l21,25.88,21.01-25.89s.04-.06.07-.09c3.93-4.87,6.01-10.75,6.01-17.01,0-14.94-12.15-27.09-27.09-27.09-8.49,0-16.37,3.93-21.62,10.78-2.44,3.17-3.54,5.61-4.03,7.09-.29.88-1.25,1.36-2.14,1.07-.88-.29-1.36-1.25-1.07-2.14.83-2.48,2.4-5.27,4.56-8.08,5.89-7.69,14.75-12.1,24.31-12.1,16.8,0,30.46,13.67,30.46,30.46,0,6.9-2.37,13.66-6.68,19.04-.03.03-.05.07-.07.1l-22.39,27.59c-.32.4-.8.62-1.31.62Z"/>
          <path d="M35.87,52.41c-9.12,0-16.54-7.42-16.54-16.54,0-.93.76-1.69,1.69-1.69s1.69.76,1.69,1.69c0,7.25,5.9,13.16,13.16,13.16s13.16-5.9,13.16-13.16-5.9-13.16-13.16-13.16c-4.48,0-8.62,2.25-11.05,6.02-.51.78-1.56,1.01-2.34.5-.78-.51-1.01-1.56-.5-2.34,3.06-4.73,8.26-7.56,13.89-7.56,9.12,0,16.54,7.42,16.54,16.54s-7.42,16.54-16.54,16.54Z"/>
        </g>
        <g class="cls-10">
          <path d="M35.25,82.6h0c-.51,0-.99-.23-1.31-.62l-22.39-27.59s-.06-.08-.08-.11c-4.31-5.38-6.68-12.13-6.68-19.02,0-.93.76-1.69,1.69-1.69s1.69.76,1.69,1.69c0,6.26,2.05,12.16,6.01,17,.03.03.05.07.08.1l21,25.88,21.01-25.89s.04-.06.07-.09c4.02-4.8,6.01-10.75,6.01-17.01,0-14.94-12.15-27.09-27.09-27.09-8.49,0-16.37,3.93-21.62,10.78-2.44,3.17-3.54,5.61-4.03,7.09-.29.88-1.25,1.36-2.14,1.07-.88-.29-1.37-1.25-1.07-2.14.83-2.48,2.4-5.27,4.56-8.08,5.89-7.69,14.75-12.1,24.31-12.1,16.8,0,30.46,13.67,30.46,30.46,0,6.9-2.37,13.66-6.68,19.04-.03.03-.05.07-.07.1l-22.39,27.59c-.32.4-.8.62-1.31.62Z"/>
          <path d="M35.25,51.78c-9.12,0-16.54-7.42-16.54-16.54,0-.93.76-1.69,1.69-1.69s1.69.76,1.69,1.69c0,7.25,5.9,13.16,13.16,13.16s13.16-5.9,13.16-13.16-5.9-13.16-13.16-13.16c-4.48,0-8.61,2.25-11.05,6.02-.51.78-1.56,1.01-2.34.5-.78-.51-1.01-1.56-.5-2.34,3.06-4.73,8.26-7.56,13.89-7.56,9.12,0,16.54,7.42,16.54,16.54s-7.42,16.54-16.54,16.54Z"/>
        </g>
        <g class="cls-1">
          <path d="M34.62,81.98h0c-.51,0-.99-.23-1.31-.62l-22.39-27.59s-.06-.08-.08-.11c-4.31-5.38-6.68-12.13-6.68-19.02,0-.93.76-1.69,1.69-1.69s1.69.76,1.69,1.69c0,6.26,2.05,12.16,6.01,17,.03.03.05.07.08.1l21,25.88,21.01-25.89s.04-.06.07-.09c4.02-4.8,6.01-10.75,6.01-17.01,0-14.94-12.15-27.09-27.09-27.09-8.49,0-16.37,3.93-21.62,10.78-2.44,3.17-3.54,5.61-4.03,7.09-.29.88-1.25,1.36-2.14,1.07-.88-.29-1.37-1.25-1.07-2.14.83-2.48,2.4-5.27,4.56-8.08,5.89-7.69,14.75-12.1,24.31-12.1,16.8,0,30.46,13.67,30.46,30.46,0,6.9-2.37,13.66-6.68,19.04-.03.03-.05.07-.07.1l-22.39,27.59c-.32.4-.8.62-1.31.62Z"/>
          <path d="M34.62,51.16c-9.12,0-16.54-7.42-16.54-16.54,0-.93.76-1.69,1.69-1.69s1.69.76,1.69,1.69c0,7.25,5.9,13.16,13.16,13.16s13.16-5.9,13.16-13.16-5.9-13.16-13.16-13.16c-4.48,0-8.61,2.25-11.05,6.02-.51.78-1.56,1.01-2.34.5-.78-.51-1.01-1.56-.5-2.34,3.06-4.73,8.26-7.56,13.89-7.56,9.12,0,16.54,7.42,16.54,16.54s-7.42,16.54-16.54,16.54Z"/>
        </g>
        <g class="cls-3">
          <path d="M34,81.35h0c-.51,0-.99-.23-1.31-.62l-22.39-27.59s-.06-.08-.08-.11c-4.31-5.38-6.68-12.13-6.68-19.02,0-.93.76-1.69,1.69-1.69s1.69.76,1.69,1.69c0,6.26,2.05,12.16,6.01,17,.03.03.05.07.08.1l21,25.88,21.01-25.89s.04-.06.07-.09c4.02-4.8,6.01-10.75,6.01-17.01,0-14.94-12.15-27.09-27.09-27.09-8.49,0-16.37,3.93-21.62,10.78-2.44,3.17-3.54,5.61-4.03,7.09-.29.88-1.25,1.36-2.14,1.07-.88-.29-1.37-1.25-1.07-2.14.83-2.48,2.4-5.27,4.56-8.08C15.58,7.94,24.44,3.53,34,3.53c16.8,0,30.46,13.67,30.46,30.46,0,6.9-2.37,13.66-6.68,19.04-.03.03-.05.07-.07.1l-22.39,27.59c-.32.4-.8.62-1.31.62Z"/>
          <path d="M34,50.53c-9.12,0-16.54-7.42-16.54-16.54,0-.93.76-1.69,1.69-1.69s1.69.76,1.69,1.69c0,7.25,5.9,13.16,13.16,13.16s13.16-5.9,13.16-13.16-5.9-13.16-13.16-13.16c-4.48,0-8.61,2.25-11.05,6.02-.51.78-1.56,1.01-2.34.5-.78-.51-1.01-1.56-.5-2.34,3.06-4.73,8.26-7.56,13.89-7.56,9.12,0,16.54,7.42,16.54,16.54s-7.42,16.54-16.54,16.54Z"/>
        </g>
        <g class="cls-11">
          <path d="M33.37,80.73h0c-.51,0-.99-.23-1.31-.62l-22.39-27.59s-.06-.08-.08-.11c-4.31-5.38-6.68-12.13-6.68-19.02,0-.93.76-1.69,1.69-1.69s1.69.76,1.69,1.69c0,6.26,2.05,12.16,6.01,17,.03.03.05.07.08.1l21,25.88,21.01-25.89s.04-.06.07-.09c4.02-4.8,6.01-10.75,6.01-17.01,0-14.94-12.15-27.09-27.09-27.09-8.49,0-16.37,3.93-21.62,10.78-2.44,3.17-3.54,5.61-4.03,7.09-.29.88-1.25,1.36-2.14,1.07-.88-.29-1.37-1.25-1.07-2.14.83-2.48,2.4-5.27,4.56-8.08C14.96,7.32,23.82,2.91,33.37,2.91c16.8,0,30.46,13.67,30.46,30.46,0,6.9-2.37,13.66-6.68,19.04-.03.03-.05.07-.07.1l-22.39,27.59c-.32.4-.8.62-1.31.62Z"/>
          <path d="M33.37,49.91c-9.12,0-16.54-7.42-16.54-16.54,0-.93.76-1.69,1.69-1.69s1.69.76,1.69,1.69c0,7.25,5.9,13.16,13.16,13.16s13.16-5.9,13.16-13.16-5.9-13.16-13.16-13.16c-4.48,0-8.61,2.25-11.05,6.02-.51.78-1.56,1.01-2.34.5-.78-.51-1.01-1.56-.5-2.34,3.06-4.73,8.26-7.56,13.89-7.56,9.12,0,16.54,7.42,16.54,16.54s-7.42,16.54-16.54,16.54Z"/>
        </g>
        <g class="cls-8">
          <path d="M32.75,80.1h0c-.51,0-.99-.23-1.31-.62l-22.39-27.59s-.06-.08-.08-.11c-4.31-5.38-6.68-12.13-6.68-19.02,0-.93.76-1.69,1.69-1.69s1.69.76,1.69,1.69c0,6.26,2.05,12.16,6.01,17,.03.03.05.07.08.1l21,25.88,21.01-25.89s.04-.06.07-.09c4.02-4.8,6.01-10.75,6.01-17.01,0-14.94-12.15-27.09-27.09-27.09-8.49,0-16.37,3.93-21.62,10.78-2.44,3.17-3.54,5.61-4.03,7.09-.29.88-1.25,1.36-2.14,1.07-.88-.29-1.37-1.25-1.07-2.14.83-2.48,2.4-5.27,4.56-8.08C14.33,6.69,23.19,2.28,32.75,2.28c16.8,0,30.46,13.67,30.46,30.46,0,6.9-2.37,13.66-6.68,19.04-.03.03-.05.07-.07.1l-22.39,27.59c-.32.4-.8.62-1.31.62Z"/>
          <path d="M32.75,49.28c-9.12,0-16.54-7.42-16.54-16.54,0-.93.76-1.69,1.69-1.69s1.69.76,1.69,1.69c0,7.25,5.9,13.16,13.16,13.16s13.16-5.9,13.16-13.16-5.9-13.16-13.16-13.16c-4.48,0-8.61,2.25-11.05,6.02-.51.78-1.56,1.01-2.34.5-.78-.51-1.01-1.56-.5-2.34,3.06-4.73,8.26-7.56,13.89-7.56,9.12,0,16.54,7.42,16.54,16.54s-7.42,16.54-16.54,16.54Z"/>
        </g>
        <g class="cls-4">
          <path d="M32.12,79.48h0c-.51,0-.99-.23-1.31-.62l-22.39-27.59s-.06-.08-.08-.11c-4.31-5.38-6.68-12.13-6.68-19.02,0-.93.76-1.69,1.69-1.69s1.69.76,1.69,1.69c0,6.26,2.05,12.16,6.01,17,.03.03.05.07.08.1l21,25.88,21.01-25.89s.04-.06.07-.09c4.02-4.8,6.01-10.75,6.01-17.01,0-14.94-12.15-27.09-27.09-27.09-8.49,0-16.37,3.93-21.62,10.78-2.44,3.17-3.54,5.61-4.03,7.09-.29.88-1.25,1.36-2.14,1.07-.88-.29-1.37-1.25-1.07-2.14.83-2.48,2.4-5.27,4.56-8.08C13.71,6.07,22.57,1.66,32.12,1.66c16.8,0,30.46,13.67,30.46,30.46,0,6.9-2.37,13.66-6.68,19.04-.03.03-.05.07-.07.1l-22.39,27.59c-.32.4-.8.62-1.31.62Z"/>
          <path d="M32.12,48.66c-9.12,0-16.54-7.42-16.54-16.54,0-.93.76-1.69,1.69-1.69s1.69.76,1.69,1.69c0,7.25,5.9,13.16,13.16,13.16s13.16-5.9,13.16-13.16-5.9-13.16-13.16-13.16c-4.48,0-8.61,2.25-11.05,6.02-.51.78-1.56,1.01-2.34.5-.78-.51-1.01-1.56-.5-2.34,3.06-4.73,8.26-7.56,13.89-7.56,9.12,0,16.54,7.42,16.54,16.54s-7.42,16.54-16.54,16.54Z"/>
        </g>
        <g class="cls-7">
          <path d="M31.5,78.85h0c-.51,0-.99-.23-1.31-.62L7.79,50.63s-.06-.08-.08-.11c-4.31-5.38-6.68-12.13-6.68-19.02,0-.93.76-1.69,1.69-1.69s1.69.76,1.69,1.69c0,6.26,2.05,12.16,6.01,17,.03.03.05.07.08.1l21,25.88,21.01-25.89s.04-.06.07-.09c4.02-4.8,6.01-10.75,6.01-17.01,0-14.94-12.15-27.09-27.09-27.09-8.49,0-16.37,3.93-21.62,10.78-2.44,3.17-3.54,5.61-4.03,7.09-.29.88-1.25,1.36-2.14,1.07-.88-.29-1.37-1.25-1.07-2.14.83-2.48,2.4-5.27,4.56-8.08C13.08,5.44,21.94,1.03,31.5,1.03c16.8,0,30.46,13.67,30.46,30.46,0,6.9-2.37,13.66-6.68,19.04-.03.03-.05.07-.07.1l-22.39,27.59c-.32.4-.8.62-1.31.62Z"/>
          <path d="M31.5,48.03c-9.12,0-16.54-7.42-16.54-16.54,0-.93.76-1.69,1.69-1.69s1.69.76,1.69,1.69c0,7.25,5.9,13.16,13.16,13.16s13.16-5.9,13.16-13.16-5.9-13.16-13.16-13.16c-4.48,0-8.61,2.25-11.05,6.02-.51.78-1.56,1.01-2.34.5-.78-.51-1.01-1.56-.5-2.34,3.06-4.73,8.26-7.56,13.89-7.56,9.12,0,16.54,7.42,16.54,16.54s-7.42,16.54-16.54,16.54Z"/>
        </g>
        <g class="cls-5">
          <path d="M30.87,78.23h0c-.51,0-.99-.23-1.31-.62L7.17,50.01s-.06-.08-.08-.11C2.78,44.52.41,37.77.41,30.87c0-.93.76-1.69,1.69-1.69s1.69.76,1.69,1.69c0,6.26,2.08,12.14,6.01,17,.03.03.05.07.08.1l21,25.88,21.01-25.89s.04-.06.07-.09c3.93-4.87,6.01-10.75,6.01-17.01,0-14.94-12.15-27.09-27.09-27.09-8.49,0-16.37,3.93-21.62,10.78-2.44,3.17-3.54,5.61-4.03,7.09-.29.88-1.25,1.36-2.14,1.07-.88-.29-1.36-1.25-1.07-2.14.83-2.48,2.4-5.27,4.56-8.08C12.46,4.82,21.32.41,30.87.41c16.8,0,30.46,13.67,30.46,30.46,0,6.9-2.37,13.66-6.68,19.04-.03.03-.05.07-.07.1l-22.39,27.59c-.32.4-.8.62-1.31.62Z"/>
          <path d="M30.87,47.41c-9.12,0-16.54-7.42-16.54-16.54,0-.93.76-1.69,1.69-1.69s1.69.76,1.69,1.69c0,7.25,5.9,13.16,13.16,13.16s13.16-5.9,13.16-13.16-5.9-13.16-13.16-13.16c-4.48,0-8.62,2.25-11.05,6.02-.51.78-1.56,1.01-2.34.5-.78-.51-1.01-1.56-.5-2.34,3.06-4.73,8.26-7.56,13.89-7.56,9.12,0,16.54,7.42,16.54,16.54s-7.42,16.54-16.54,16.54Z"/>
        </g>
      </g>
      <g>
        <path class="cls-9" d="M30.46,77.82h0c-.51,0-.99-.23-1.31-.62L6.76,49.6s-.06-.08-.08-.11C2.37,44.11,0,37.36,0,30.46c0-.93.76-1.69,1.69-1.69s1.69.76,1.69,1.69c0,6.26,2.08,12.14,6.01,17,.03.03.05.07.08.1l21,25.88,21.01-25.89s.04-.06.07-.09c3.93-4.87,6.01-10.75,6.01-17.01,0-14.94-12.15-27.09-27.09-27.09-8.49,0-16.37,3.93-21.62,10.78-2.44,3.17-3.54,5.61-4.03,7.09-.29.88-1.25,1.36-2.14,1.07-.88-.29-1.36-1.25-1.07-2.14.83-2.48,2.4-5.27,4.56-8.08C12.05,4.41,20.91,0,30.46,0c16.8,0,30.46,13.67,30.46,30.46,0,6.9-2.37,13.66-6.68,19.04-.03.03-.05.07-.07.1l-22.39,27.59c-.32.4-.8.62-1.31.62Z"/>
        <path class="cls-6" d="M30.46,47c-9.12,0-16.54-7.42-16.54-16.54,0-.93.76-1.69,1.69-1.69s1.69.76,1.69,1.69c0,7.25,5.9,13.16,13.16,13.16s13.16-5.9,13.16-13.16-5.9-13.16-13.16-13.16c-4.48,0-8.62,2.25-11.05,6.02-.51.78-1.56,1.01-2.34.5-.78-.51-1.01-1.56-.5-2.34,3.06-4.73,8.26-7.56,13.89-7.56,9.12,0,16.54,7.42,16.54,16.54s-7.42,16.54-16.54,16.54Z"/>
      </g>
    </g>
  </g>
</svg>