<?xml version="1.0" encoding="UTF-8"?>
<svg id="Layer_2" data-name="Layer 2" xmlns="http://www.w3.org/2000/svg" viewBox="0 0 21.4 27.36">
  <defs>
    <style>
      .cls-1 {
        fill-rule: evenodd;
      }
    </style>
  </defs>
  <g id="_1" data-name="1">
    <path class="cls-1" d="M10.71,0l.7,2.01-1.78,1.03L10.69.03l.02-.03ZM.84,25.36h1.64l14.23-8.22.7,1.99-10.78,6.23h2.97l8.31-4.79.7,1.99-4.84,2.8h2.97l2.37-1.38.47,1.38h.97c.47,0,.85.38.85.85v.29c0,.47-.38.85-.85.85H.84c-.46,0-.84-.39-.84-.85v-.29c0-.47.38-.85.84-.85h0ZM11.91,3.43l.7,2.01-4.79,2.75,1.04-3.01,3.05-1.75ZM13.11,6.86l.7,1.99-7.8,4.51.11-.33.94-2.68,6.04-3.5ZM14.32,10.28l.7,2-10.81,6.25,1.05-3.01,9.06-5.24ZM15.51,13.72l.7,2-13.82,7.97,1.06-3.01,12.06-6.96Z"/>
  </g>
</svg>