<?xml version="1.0" encoding="UTF-8"?>
<svg id="Layer_2" data-name="Layer 2" xmlns="http://www.w3.org/2000/svg" viewBox="0 0 27.36 25.61">
  <defs>
    <style>
      .cls-1 {
        fill-rule: evenodd;
      }
    </style>
  </defs>
  <g id="_1" data-name="1">
    <path class="cls-1" d="M1.74,22.79v-.63h.78c.21,0,.4-.09.52-.21h0c.15-.14.23-.34.23-.54h0c0-.21-.09-.4-.23-.52h0v-.02c-.13-.13-.32-.21-.52-.21h-.78v-.61h.78c.21,0,.4-.1.52-.23h0c.15-.14.23-.33.23-.54h0c0-.21-.09-.4-.23-.53h0c-.13-.14-.32-.23-.52-.23h-.78v-.6h.78c.21,0,.4-.09.52-.23h0c.15-.13.23-.32.23-.53h0c0-.22-.09-.4-.23-.55h0c-.13-.12-.32-.21-.52-.21h-.78v-.63h.78c.21,0,.4-.08.52-.2h0c.15-.15.23-.33.23-.55,0-.2-.09-.4-.23-.54h0c-.13-.12-.32-.21-.52-.21h-.78v-.61h.78c.21,0,.4-.11.52-.23h0c.15-.15.23-.34.23-.55s-.09-.4-.23-.52h0c-.13-.15-.32-.23-.52-.23h-.78v-.61h.78c.21,0,.4-.08.52-.23h0c.15-.13.23-.32.23-.52h0c0-.21-.09-.4-.23-.55h0c-.13-.12-.32-.23-.52-.23h-.78v-.61h.78c.21,0,.4-.08.52-.2v-.02h0c.15-.12.23-.32.23-.52h0c0-.21-.09-.4-.23-.55h0c-.13-.13-.32-.21-.52-.21h-.78v-.62h.78c.21,0,.4-.09.52-.22h0c.15-.15.23-.33.23-.55h0c0-.2-.09-.4-.23-.52h0c-.13-.14-.32-.23-.52-.23h-.78v-.61h.78c.21,0,.4-.08.52-.23h0c.15-.12.23-.34.23-.52h0c0-.22-.09-.4-.23-.55h0c-.13-.15-.32-.23-.52-.23h-.78v-.61h.78c.21,0,.4-.08.52-.23h0c.15-.12.23-.31.23-.52h0c0-.2-.09-.4-.23-.55h0c-.13-.12-.32-.2-.52-.2h-.78c.02-.82.67-1.47,1.47-1.47h22.66c.82,0,1.49.67,1.49,1.48v22.66c0,.79-.67,1.47-1.49,1.47H3.21c-.75,0-1.38-.59-1.47-1.32h.78c.21,0,.4-.09.52-.23h0c.15-.13.23-.31.23-.53h0c0-.21-.09-.4-.23-.55h0c-.13-.12-.32-.2-.52-.2h-.78ZM7.4,16.33l2.41-.29c.08.63.29,1.09.63,1.43.33.31.73.48,1.22.48s.94-.19,1.3-.59c.33-.38.5-.92.5-1.57s-.15-1.13-.48-1.49c-.34-.38-.75-.56-1.24-.56-.31,0-.69.06-1.13.19l.27-2.01c.67.02,1.17-.12,1.53-.44.36-.32.53-.73.53-1.24,0-.44-.13-.79-.38-1.05-.27-.27-.61-.4-1.05-.4s-.77.15-1.09.44c-.29.3-.48.74-.54,1.3l-2.29-.4c.17-.78.4-1.43.71-1.89.34-.48.78-.84,1.36-1.11.57-.27,1.22-.42,1.93-.42,1.21,0,2.2.4,2.93,1.17.61.65.92,1.36.92,2.18,0,1.15-.63,2.05-1.87,2.75.73.14,1.32.5,1.78,1.07.44.57.67,1.24.67,2.01,0,1.14-.42,2.12-1.26,2.91-.84.82-1.86,1.22-3.1,1.22-1.17,0-2.16-.34-2.93-1.02-.75-.67-1.21-1.56-1.34-2.67h0ZM23.94,19.79h-2.48v-9.41c-.92.86-1.99,1.49-3.23,1.89v-2.26c.65-.21,1.36-.61,2.11-1.22.78-.58,1.28-1.28,1.58-2.07h2.01v13.08ZM0,23.54h0c0-.32.23-.57.54-.57h1.97c.29,0,.54.25.54.57h0c0,.29-.25.55-.54.55H.54c-.31,0-.54-.25-.54-.55h0ZM0,2.22h0c0-.31.23-.56.54-.56h1.97c.29,0,.54.25.54.56h0c0,.3-.25.55-.54.55H.54c-.31,0-.54-.25-.54-.55h0ZM0,4.36h0c0-.32.23-.57.54-.57h1.97c.29,0,.54.25.54.57h0c0,.29-.25.54-.54.54H.54c-.31,0-.54-.25-.54-.54h0ZM0,6.47h0c0-.29.23-.55.54-.55h1.97c.29,0,.54.26.54.55h0c0,.32-.25.57-.54.57H.54c-.31,0-.54-.25-.54-.57h0ZM0,8.62h0c0-.32.23-.55.54-.55h1.97c.29,0,.54.23.54.55h0c0,.29-.25.55-.54.55H.54c-.31,0-.54-.26-.54-.55h0ZM0,10.75h0c0-.31.23-.57.54-.57h1.97c.29,0,.54.25.54.57h0c0,.3-.25.54-.54.54H.54c-.31,0-.54-.25-.54-.54h0ZM0,12.87h0c0-.3.23-.55.54-.55h1.97c.29,0,.54.25.54.55h0c0,.31-.25.56-.54.56H.54c-.31,0-.54-.25-.54-.56h0ZM0,15h0c0-.31.23-.54.54-.54h1.97c.29,0,.54.23.54.54h0c0,.32-.25.55-.54.55H.54c-.31,0-.54-.23-.54-.55h0ZM0,17.15h0c0-.32.23-.57.54-.57h1.97c.29,0,.54.25.54.57h0c0,.29-.25.54-.54.54H.54c-.31,0-.54-.25-.54-.54h0ZM0,19.26h0c0-.29.23-.54.54-.54h1.97c.29,0,.54.25.54.54h0c0,.31-.25.56-.54.56H.54c-.31,0-.54-.25-.54-.56h0ZM0,21.4h0c0-.29.23-.55.54-.55h1.97c.29,0,.54.25.54.55h0c0,.31-.25.54-.54.54H.54c-.31,0-.54-.23-.54-.54h0ZM4.42,23.86V1.76c0-.71.59-1.3,1.3-1.3h19.87c.71,0,1.3.59,1.3,1.3v22.1c0,.71-.59,1.3-1.3,1.3H5.72c-.71,0-1.3-.59-1.3-1.3h0Z"/>
  </g>
</svg>