<?xml version="1.0" encoding="UTF-8"?>
<svg id="Layer_2" data-name="Layer 2" xmlns="http://www.w3.org/2000/svg" xmlns:xlink="http://www.w3.org/1999/xlink" viewBox="0 0 68.93 75.07">
  <defs>
    <style>
      .cls-1 {
        opacity: .14;
      }

      .cls-2 {
        fill: url(#linear-gradient-2);
      }

      .cls-3 {
        opacity: .21;
      }

      .cls-4 {
        opacity: .42;
      }

      .cls-5 {
        opacity: .55;
      }

      .cls-6 {
        opacity: .48;
      }

      .cls-7 {
        opacity: .35;
      }

      .cls-8 {
        opacity: .08;
      }

      .cls-9 {
        opacity: .28;
      }

      .cls-10 {
        opacity: 0;
      }

      .cls-11 {
        fill: url(#linear-gradient);
      }
    </style>
    <linearGradient id="linear-gradient" x1="6.1" y1="19.07" x2="57.29" y2="70.25" gradientUnits="userSpaceOnUse">
      <stop offset="0" stop-color="#0594d6"/>
      <stop offset="1" stop-color="#7af5ff"/>
    </linearGradient>
    <linearGradient id="linear-gradient-2" x1="6.16" y1="19.09" x2="57.45" y2="70.39" gradientUnits="userSpaceOnUse">
      <stop offset="0" stop-color="#2c2e2c"/>
      <stop offset=".99" stop-color="#000"/>
    </linearGradient>
  </defs>
  <g id="Layer_1-2" data-name="Layer 1">
    <g>
      <path class="cls-11" d="M31.58,1.93L3.1,24.12s-1.89,2.83-1.89,10.86v24.08c0,2.83,1.26,8.81,8.03,8.81h44.22c2.99,0,8.5-1.89,8.5-8.81v-29.58c0-2.52-.79-5.51-4.88-8.03C52.98,18.92,31.58,1.93,31.58,1.93Z"/>
      <g>
        <path class="cls-10" d="M59.81,75.07H14.53c-5.03,0-9.12-4.09-9.12-9.12v-31.58c0-2.4.96-4.75,2.56-6.28.61-.58,1.55-.63,2.21-.11l26.99,21.16,21.08-16.54c.74-.58,1.8-.45,2.37.29.57.73.45,1.8-.29,2.37l-22.12,17.35c-.61.48-1.48.48-2.08,0L9.44,31.7c-.42.79-.66,1.73-.66,2.68v31.58c0,3.17,2.58,5.74,5.75,5.74h45.28c3.17,0,5.74-2.58,5.74-5.74v-31.58c0-1.74-.69-3.36-1.85-4.32l-26.54-20.81-21.05,16.51c-.74.58-1.8.45-2.37-.29-.58-.73-.45-1.79.29-2.37L36.13,5.77c.61-.48,1.47-.48,2.08,0l27.62,21.66c1.98,1.65,3.1,4.17,3.1,6.95v31.58c0,5.03-4.09,9.12-9.12,9.12Z"/>
        <path class="cls-8" d="M59.18,74.45H13.91c-5.03,0-9.12-4.09-9.12-9.12v-31.58c0-2.4.96-4.75,2.56-6.28.61-.58,1.55-.63,2.21-.11l26.99,21.16,21.08-16.54c.74-.58,1.8-.45,2.37.29.57.73.45,1.8-.29,2.37l-22.12,17.35c-.61.48-1.48.48-2.08,0L8.82,31.07c-.42.79-.66,1.73-.66,2.68v31.58c0,3.17,2.58,5.74,5.75,5.74h45.28c3.17,0,5.74-2.58,5.74-5.74v-31.58c0-1.74-.69-3.36-1.85-4.32l-26.54-20.81L15.49,25.13c-.74.58-1.8.45-2.37-.29-.58-.73-.45-1.79.29-2.37L35.5,5.14c.61-.48,1.47-.48,2.08,0l27.62,21.66c1.98,1.65,3.1,4.17,3.1,6.95v31.58c0,5.03-4.09,9.12-9.12,9.12Z"/>
        <path class="cls-1" d="M58.56,73.82H13.28c-5.03,0-9.12-4.09-9.12-9.12v-31.58c0-2.4.96-4.75,2.56-6.28.61-.58,1.55-.63,2.21-.11l26.99,21.16,21.08-16.54c.74-.58,1.8-.45,2.37.29.57.73.45,1.8-.29,2.37l-22.12,17.35c-.61.48-1.48.48-2.08,0L8.19,30.45c-.42.79-.66,1.73-.66,2.68v31.58c0,3.17,2.58,5.74,5.75,5.74h45.28c3.17,0,5.74-2.58,5.74-5.74v-31.58c0-1.74-.69-3.36-1.85-4.32L35.92,7.99,14.87,24.5c-.74.58-1.8.45-2.37-.29-.58-.73-.45-1.79.29-2.37L34.88,4.52c.61-.48,1.47-.48,2.08,0l27.62,21.66c1.98,1.65,3.1,4.17,3.1,6.95v31.58c0,5.03-4.09,9.12-9.12,9.12Z"/>
        <path class="cls-3" d="M57.93,73.2H12.66c-5.03,0-9.12-4.09-9.12-9.12v-31.58c0-2.4.96-4.75,2.56-6.28.61-.58,1.55-.63,2.21-.11l26.99,21.16,21.08-16.54c.74-.58,1.8-.45,2.37.29.57.73.45,1.8-.29,2.37l-22.12,17.35c-.61.48-1.48.48-2.08,0L7.57,29.82c-.42.79-.66,1.73-.66,2.68v31.58c0,3.17,2.58,5.74,5.75,5.74h45.28c3.17,0,5.74-2.58,5.74-5.74v-31.58c0-1.74-.69-3.36-1.85-4.32L35.29,7.37,14.24,23.88c-.74.58-1.8.45-2.37-.29-.58-.73-.45-1.79.29-2.37L34.25,3.89c.61-.48,1.47-.48,2.08,0l27.62,21.66c1.98,1.65,3.1,4.17,3.1,6.95v31.58c0,5.03-4.09,9.12-9.12,9.12Z"/>
        <path class="cls-9" d="M57.31,72.57H12.03c-5.03,0-9.12-4.09-9.12-9.12v-31.58c0-2.4.96-4.75,2.56-6.28.61-.58,1.55-.63,2.21-.11l26.99,21.16,21.08-16.54c.74-.58,1.8-.45,2.37.29.57.73.45,1.8-.29,2.37l-22.12,17.35c-.61.48-1.48.48-2.08,0L6.94,29.2c-.42.79-.66,1.73-.66,2.68v31.58c0,3.17,2.58,5.74,5.75,5.74h45.28c3.17,0,5.74-2.58,5.74-5.74v-31.58c0-1.74-.69-3.36-1.85-4.32L34.67,6.74,13.62,23.25c-.74.58-1.8.45-2.37-.29-.58-.73-.45-1.79.29-2.37L33.63,3.27c.61-.48,1.47-.48,2.08,0l27.62,21.66c1.98,1.65,3.1,4.17,3.1,6.95v31.58c0,5.03-4.09,9.12-9.12,9.12Z"/>
        <path class="cls-7" d="M56.68,71.95H11.41c-5.03,0-9.12-4.09-9.12-9.12v-31.58c0-2.4.96-4.75,2.56-6.28.61-.58,1.55-.63,2.21-.11l26.99,21.16,21.08-16.54c.74-.58,1.8-.45,2.37.29.57.73.45,1.8-.29,2.37l-22.12,17.35c-.61.48-1.48.48-2.08,0L6.32,28.57c-.42.79-.66,1.73-.66,2.68v31.58c0,3.17,2.58,5.74,5.75,5.74h45.28c3.17,0,5.74-2.58,5.74-5.74v-31.58c0-1.74-.69-3.36-1.85-4.32L34.04,6.12,12.99,22.63c-.74.58-1.8.45-2.37-.29-.58-.73-.45-1.79.29-2.37L33,2.64c.61-.48,1.47-.48,2.08,0l27.62,21.66c1.98,1.65,3.1,4.17,3.1,6.95v31.58c0,5.03-4.09,9.12-9.12,9.12Z"/>
        <path class="cls-4" d="M56.06,71.32H10.78c-5.03,0-9.12-4.09-9.12-9.12v-31.58c0-2.4.96-4.75,2.56-6.28.61-.58,1.55-.63,2.21-.11l26.99,21.16,21.08-16.54c.74-.58,1.8-.45,2.37.29.57.73.45,1.8-.29,2.37l-22.12,17.35c-.61.48-1.48.48-2.08,0L5.69,27.95c-.42.79-.66,1.73-.66,2.68v31.58c0,3.17,2.58,5.74,5.75,5.74h45.28c3.17,0,5.74-2.58,5.74-5.74v-31.58c0-1.74-.69-3.36-1.85-4.32L33.42,5.49,12.37,22c-.74.58-1.8.45-2.37-.29-.58-.73-.45-1.79.29-2.37L32.38,2.02c.61-.48,1.47-.48,2.08,0l27.62,21.66c1.98,1.65,3.1,4.17,3.1,6.95v31.58c0,5.03-4.09,9.12-9.12,9.12Z"/>
        <path class="cls-6" d="M55.43,70.7H10.16c-5.03,0-9.12-4.09-9.12-9.12v-31.58c0-2.4.96-4.75,2.56-6.28.61-.58,1.55-.63,2.21-.11l26.99,21.16,21.08-16.54c.74-.58,1.8-.45,2.37.29.57.73.45,1.8-.29,2.37l-22.12,17.35c-.61.48-1.48.48-2.08,0L5.07,27.32c-.42.79-.66,1.73-.66,2.68v31.58c0,3.17,2.58,5.74,5.75,5.74h45.28c3.17,0,5.74-2.58,5.74-5.74v-31.58c0-1.74-.69-3.36-1.85-4.32L32.79,4.87,11.74,21.38c-.74.58-1.8.45-2.37-.29-.58-.73-.45-1.79.29-2.37L31.75,1.39c.61-.48,1.47-.48,2.08,0l27.62,21.66c1.98,1.65,3.1,4.17,3.1,6.95v31.58c0,5.03-4.09,9.12-9.12,9.12Z"/>
        <path class="cls-5" d="M54.81,70.07H9.53c-5.03,0-9.12-4.09-9.12-9.12v-31.58c0-2.4.96-4.75,2.56-6.28.61-.58,1.55-.63,2.21-.11l26.99,21.16,21.08-16.54c.74-.58,1.8-.45,2.37.29.57.73.45,1.8-.29,2.37l-22.12,17.35c-.61.48-1.48.48-2.08,0L4.44,26.7c-.42.79-.66,1.73-.66,2.68v31.58c0,3.17,2.58,5.74,5.75,5.74h45.28c3.17,0,5.74-2.58,5.74-5.74v-31.58c0-1.74-.69-3.36-1.85-4.32L32.17,4.24,11.12,20.75c-.74.58-1.8.45-2.37-.29-.58-.73-.45-1.79.29-2.37L31.13.77c.61-.48,1.47-.48,2.08,0l27.62,21.66c1.98,1.65,3.1,4.17,3.1,6.95v31.58c0,5.03-4.09,9.12-9.12,9.12Z"/>
      </g>
      <path class="cls-2" d="M54.4,69.67H9.12c-5.03,0-9.12-4.09-9.12-9.12v-31.58c0-2.4.96-4.75,2.56-6.28.61-.58,1.55-.63,2.21-.11l26.99,21.16,21.08-16.54c.74-.58,1.8-.45,2.37.29.57.73.45,1.8-.29,2.37l-22.12,17.35c-.61.48-1.48.48-2.08,0L4.04,26.29c-.42.79-.66,1.73-.66,2.68v31.58c0,3.17,2.58,5.74,5.75,5.74h45.28c3.17,0,5.74-2.58,5.74-5.74v-31.58c0-1.74-.69-3.36-1.85-4.32L31.76,3.84,10.71,20.35c-.74.58-1.8.45-2.37-.29-.58-.73-.45-1.8.29-2.37L30.72.36c.61-.48,1.47-.48,2.08,0l27.62,21.66c1.98,1.65,3.1,4.17,3.1,6.95v31.58c0,5.03-4.09,9.12-9.12,9.12Z"/>
    </g>
  </g>
</svg>