<?xml version="1.0" encoding="UTF-8"?>
<svg id="Layer_2" data-name="Layer 2" xmlns="http://www.w3.org/2000/svg" viewBox="0 0 27.36 20.41">
  <defs>
    <style>
      .cls-1 {
        fill-rule: evenodd;
      }
    </style>
  </defs>
  <g id="_1" data-name="1">
    <path class="cls-1" d="M6.94,14.18v5.21c0,.55.46,1.01,1.02,1.01h8.43V7.15h-4.16l-5.3,7.04ZM13.41,2.05c.24.18.54.7.36.94l-4.14,5.5-3.67-2.78L10.08.22c.18-.25.51-.29.74-.11l2.59,1.94ZM5.45,4.83l.12-4.56c-.29,0-.58.02-.87.08l.5,4.46c-.07,0-.16.02-.23.04l-1.41-3.49c-.33.14-.65.32-.96.53l2.12,3.07c-.08.04-.15.11-.22.18L1.41,2.44c-.1.11-.18.21-.26.33-.1.12-.18.25-.26.37l3.46,2.21c-.04.08-.08.17-.11.26l-3.52-1.16c-.12.34-.2.69-.25,1.05l3.73.37c0,.08,0,.15.03.23l-4.22.51c.02.29.09.58.17.86l4.11-1.13c.04.1.1.18.17.26L.25,9.21c.18.32.39.62.62.89l4.23-3.76h0l.34-.32.22-.43h0l.18-.36.1-.19h0L8.09.47c-.33-.15-.68-.28-1.02-.36l-1.33,4.8c-.09-.04-.19-.07-.29-.08h0ZM9.02,9.31l-4.19,5.56c-.18.24-.77.09-1.01-.08l-2.57-1.95c-.25-.18-.29-.5-.11-.75l4.19-5.57,3.69,2.78ZM17.91,20.41h8.42c.57,0,1.02-.46,1.02-1.01V7.15h-9.44v13.26Z"/>
  </g>
</svg>