<?xml version="1.0" encoding="UTF-8"?>
<svg id="Layer_2" data-name="Layer 2" xmlns="http://www.w3.org/2000/svg" viewBox="0 0 21.93 27.35">
  <defs>
    <style>
      .cls-1 {
        fill-rule: evenodd;
      }
    </style>
  </defs>
  <g id="_1" data-name="1">
    <path class="cls-1" d="M5,0h2.06c.31,0,.55.25.55.56v1.44l-3.17-.05V.56c0-.31.25-.56.55-.56h0ZM.65,2.35l14.78.23h.86s-16.13.01-16.13.01c.03-.03.06-.05.09-.08.11-.1.24-.17.4-.17h0ZM16.3,2.59l1.45.02c.08,0,3.85,3.96,4.18,4.78.2.49-4.15,4.75-4.18,4.75l-17.09-.09c-.37,0-.65-.35-.65-.77V3.11c0-.2.07-.38.17-.52h16.13ZM4.49,8.52c0-.21-.05-.38-.16-.5-.1-.12-.29-.23-.57-.36-.55-.19-.98-.41-1.25-.65-.28-.25-.41-.6-.41-1.04s.15-.78.47-1.07c.33-.28.74-.41,1.24-.41s.92.15,1.24.45c.32.31.48.7.46,1.16v.03h-1.02c0-.24-.07-.44-.19-.6-.12-.15-.29-.22-.52-.22-.2,0-.36.07-.49.19-.11.12-.17.27-.17.46,0,.18.07.32.19.43.14.11.35.25.68.38.51.18.89.39,1.15.65.26.27.38.62.38,1.06,0,.46-.16.83-.46,1.09-.3.27-.72.4-1.23.4s-.94-.15-1.32-.45c-.38-.29-.56-.72-.54-1.27v-.03h1.02c0,.33.08.57.21.71.14.15.35.22.63.22.22,0,.39-.07.5-.17.1-.13.15-.28.15-.48h0ZM8.59,8.78h-1.41l-.29,1.14h-1.05l1.51-5.35h1.09l1.5,5.35h-1.05l-.29-1.14ZM7.39,7.94h.99l-.48-1.89h-.04l-.47,1.89ZM11.39,9.09h1.95v.83h-2.99v-5.35h1.04v4.52ZM16.72,7.57h-1.79v1.52h2.1v.83h-3.16v-5.35h3.16v.84h-2.1v1.33h1.79v.83ZM7.62,12.54v14.27c0,.3-.24.55-.55.55h-2.06c-.3,0-.55-.26-.55-.55v-14.28h3.17Z"/>
  </g>
</svg>