<?xml version="1.0" encoding="UTF-8"?>
<svg id="Layer_2" data-name="Layer 2" xmlns="http://www.w3.org/2000/svg" viewBox="0 0 26.5 27.36">
  <defs>
    <style>
      .cls-1 {
        fill-rule: evenodd;
      }
    </style>
  </defs>
  <g id="_1" data-name="1">
    <path class="cls-1" d="M11.06,16.26c-.04-.95-.34-2.26-.84-2.87.01-.04.02-.08.02-.12.11-.96.43-1.73.98-2.28.56-.54,1.36-.87,2.42-.98.19-.03.32-.19.31-.37-.02-.19-.19-.32-.37-.3-1.22.12-2.16.52-2.83,1.18-.59.58-.96,1.35-1.12,2.3-.52-.37-1.15-.6-1.85-.6-.57,0-1.1.18-1.55.49-.18-.9-.54-1.63-1.1-2.2-.67-.66-1.61-1.06-2.84-1.18-.18-.02-.35.11-.36.3-.02.18.12.34.3.37,1.06.11,1.87.44,2.41.98.54.53.87,1.3.98,2.25-.67.7-1.11,2.16-1.16,3.02h6.6ZM17.43,0c1.66-.07,3.31.79,4.15,2.36,1,1.81.62,3.98-.77,5.36l5.6,8.39c.55,1.78-1.41,3.11-2.76,1.61l-4.73-8.87c-2.01.6-4.23-.26-5.28-2.18-.91-1.66-.66-3.66.49-5.04l1.85,3.42,3.24-1.76L17.43,0ZM11.93,16.46H3.66c-.04.42-.06.89-.08,1.38l-1.88-.49-1.04-3.38c-.05-.17-.25-.27-.43-.21-.17.05-.27.24-.21.41l1.09,3.55c.04.12.15.21.26.23l2.19.57c.02.98.13,2.01.39,2.95l-1.76.79s-.04.03-.06.04l-.18.3-.64,4.28h0c-.01.11.02.23.08.31.06.08.16.15.28.16.11.03.23-.01.31-.08.08-.05.15-.16.16-.27h0l.6-4.06,1.49-.67c.59,1.38,1.66,2.38,3.54,2.38,1.74,0,2.89-1.04,3.58-2.46l1.6.74.61,4.06h0c.02.11.08.22.17.27.08.07.19.11.31.08.1-.01.21-.08.28-.16.05-.08.09-.2.07-.31h0l-.63-4.28-.18-.3s-.04-.02-.06-.04l-1.84-.83c.31-.92.45-1.95.47-2.91l2.2-.57c.12-.01.23-.11.25-.23l1.11-3.55c.05-.17-.04-.36-.23-.41-.17-.05-.36.04-.41.21l-1.04,3.38-1.89.49c-.02-.49-.09-.96-.2-1.38h0Z"/>
  </g>
</svg>