<?xml version="1.0" encoding="UTF-8"?>
<svg id="Layer_2" data-name="Layer 2" xmlns="http://www.w3.org/2000/svg" viewBox="0 0 23.06 27.36">
  <defs>
    <style>
      .cls-1 {
        fill-rule: evenodd;
      }
    </style>
  </defs>
  <g id="_1" data-name="1">
    <path class="cls-1" d="M1.51,14.05h13.84c1.31-4.48,2.62-8.95,3.93-13.42,2.07-.87,3.07-1.16,3.77,1.29-1.86,5.4-3.05,11.16-4.91,16.58h-1.01s3.04,7.28,3.04,7.28c.25.58-.03,1.25-.61,1.49h0c-.58.24-1.25-.03-1.48-.61l-3.22-7.73c-.06-.14-.09-.31-.09-.46l-9.29-.06c.02.18-.01.35-.08.52l-3.22,7.73c-.23.58-.91.85-1.48.61h0c-.58-.24-.85-.91-.62-1.49l3.08-7.39h-.62c-2.09-1.06-1.47-2.73-1.04-4.35h0Z"/>
  </g>
</svg>