<?xml version="1.0" encoding="UTF-8"?>
<svg id="Layer_2" data-name="Layer 2" xmlns="http://www.w3.org/2000/svg" viewBox="0 0 27.36 23.92">
  <defs>
    <style>
      .cls-1 {
        fill-rule: evenodd;
      }
    </style>
  </defs>
  <g id="_1" data-name="1">
    <path class="cls-1" d="M13.96,2.71l1.55,4.48,1.11-1.92-.82-1.41h0c-.11-.19-.14-.41-.08-.61.05-.21.18-.38.37-.5h0c.21-.11.42-.12.62-.08.19.05.37.18.48.38l.36.59.26-.43-.83-1.42h0c-.1-.19-.13-.41-.08-.61h0c.05-.21.18-.39.38-.49h0c.19-.11.41-.14.61-.08.2.05.38.18.5.38h0l.34.6.67-1.17h0c.11-.19.29-.32.5-.38.2-.05.42-.03.61.09h0c.19.11.33.29.38.49.05.2.03.42-.09.62l-.67,1.17h.7c.22,0,.43.09.57.24.15.15.24.35.24.58,0,.21-.09.42-.24.57-.14.14-.35.23-.57.23h-1.63l-.26.45h.7c.21,0,.42.09.57.22.14.16.23.36.23.58s-.09.43-.23.57c-.15.16-.36.24-.57.24h-1.64l-.99,1.73,4.55-.72.27.49-3.1,3.58h2.21l.81-1.41h.01c.1-.19.28-.33.48-.38.2-.05.42-.02.61.09h0c.21.1.33.28.38.48.05.2.02.42-.08.61l-.35.61h.51l.82-1.41h0c.11-.19.29-.33.49-.38.2-.05.42-.02.61.09h0c.19.1.33.29.38.48h0c.05.2.03.42-.09.61h0l-.34.61h1.36c.21,0,.42.09.57.24.14.14.23.34.23.57,0,.21-.09.41-.23.57-.15.14-.36.23-.57.23h-1.36l.34.61h0c.12.19.14.41.09.61h0c-.05.2-.19.38-.38.5h0c-.19.1-.41.12-.61.07-.2-.05-.38-.18-.49-.38h0l-.82-1.41h-.51l.35.61c.1.19.13.41.08.61-.05.2-.18.38-.38.5h0c-.19.1-.4.12-.61.07-.2-.05-.38-.18-.48-.38h0l-.83-1.41h-1.98l2.89,3.59-.29.48-4.65-.9,1.13,1.95h1.63c.23,0,.43.09.57.23.15.15.24.35.24.57,0,.23-.09.44-.24.57-.14.15-.34.24-.57.24h-.7l.26.43h1.64c.22,0,.42.1.56.24h.01c.14.16.23.35.23.58h0c0,.23-.09.43-.23.57h-.01c-.14.14-.34.24-.56.24h-.7l.65,1.14h0c.11.18.14.4.08.6-.05.2-.18.38-.37.5h-.01c-.19.1-.41.12-.6.07-.21-.06-.38-.19-.5-.38l-.66-1.13-.34.61h0c-.12.19-.29.32-.5.37-.19.07-.42.04-.61-.08h0c-.19-.11-.32-.29-.38-.49-.05-.19-.03-.42.09-.61l.82-1.41-.26-.45-.34.61h0c-.11.19-.29.32-.5.38-.2.05-.42.03-.61-.09h-.01c-.19-.12-.32-.29-.37-.49h0c-.05-.2-.03-.42.07-.62h0l.83-1.42-1.01-1.75-1.67,4.3h-.55s-1.57-4.49-1.57-4.49l-1.13,1.96.83,1.41h0c.1.19.13.42.08.61h0c-.05.21-.18.38-.38.5h0c-.19.11-.41.14-.61.07-.21-.04-.39-.18-.5-.36h0l-.34-.61-.25.44.81,1.42h0c.11.19.14.42.09.61-.06.21-.19.38-.38.5-.19.11-.42.13-.61.07-.2-.05-.38-.17-.49-.36l-.34-.61-.66,1.13h0c-.11.2-.29.34-.48.38-.21.05-.43.03-.62-.08h0c-.19-.1-.31-.3-.37-.49-.06-.2-.04-.42.08-.61h0s.65-1.15.65-1.15h-.69c-.23,0-.43-.08-.58-.23-.14-.15-.23-.35-.23-.57v-.29h.05c.04-.11.1-.2.19-.28h0c.14-.16.34-.24.56-.24h1.64l.26-.44h-.7c-.23,0-.43-.09-.57-.24-.15-.14-.24-.34-.24-.57h0c0-.23.09-.42.24-.58.14-.14.35-.24.57-.24h1.63l1.02-1.75-4.55.7-.25-.49,3.09-3.58h-2.26l-.81,1.41h0c-.1.2-.29.33-.48.38-.21.05-.42.03-.61-.07h0c-.19-.12-.32-.3-.37-.5-.05-.2-.04-.42.08-.61l.36-.61h-.51l-.82,1.41h0c-.1.2-.29.33-.48.38-.2.05-.42.03-.61-.07h0c-.2-.12-.33-.3-.38-.5-.05-.2-.02-.42.08-.61l.35-.61H.81c-.23,0-.43-.09-.57-.23-.16-.16-.24-.36-.24-.57,0-.23.09-.43.24-.57.14-.15.34-.24.57-.24h1.31l-.35-.61c-.1-.18-.13-.41-.08-.61.05-.2.18-.38.38-.48h0c.19-.12.41-.14.61-.09.2.05.38.19.48.38h0l.82,1.41h.51l-.36-.61c-.11-.18-.13-.41-.08-.61.05-.2.18-.38.37-.48h0c.2-.12.42-.14.62-.09.19.05.37.19.48.38v.02s.81,1.4.81,1.4h2.05l-2.88-3.6.28-.45,4.65.89-1.11-1.93h-1.64c-.21,0-.42-.09-.57-.23h0c-.14-.15-.23-.35-.23-.57,0-.23.09-.44.23-.58h0c.15-.14.36-.24.57-.24h.7l-.25-.45h-1.63c-.23,0-.43-.08-.57-.22-.15-.15-.24-.36-.24-.58s.09-.43.24-.57c.14-.16.34-.24.57-.24h.7l-.67-1.17c-.12-.19-.14-.42-.09-.61.05-.21.19-.39.38-.5h0c.19-.11.41-.14.61-.07.2.05.38.17.5.37h0l.67,1.19.35-.61h.01c.1-.19.28-.32.48-.38.2-.05.42-.03.61.09h.03s.13.07.13.07v.03c.12.11.19.24.23.38.05.2.03.42-.08.62h0l-.83,1.41.26.44.36-.6h0c.11-.19.29-.33.48-.38.18-.04.37-.04.55.04h.05l.06.06c.16.12.28.3.33.47.06.2.04.42-.08.61h0l-.81,1.42,1.01,1.73,1.66-4.3h.55ZM14.56,15.1l-.88-1.51-.8,1.39.81,2.33.87-2.21ZM12.28,11.16l-.8-1.38-2.43-.46,1.48,1.84h1.76ZM12.8,8.84l.88,1.5.8-1.37-.81-2.35-.87,2.21ZM15.08,12.77l.8,1.38,2.44.47-1.49-1.85h-1.75ZM11.4,14.28l.88-1.51h-1.6l-1.61,1.88,2.34-.37ZM15.95,9.64l-.88,1.52h1.6l1.61-1.87-2.34.35Z"/>
  </g>
</svg>