<?xml version="1.0" encoding="UTF-8"?>
<svg id="Layer_2" data-name="Layer 2" xmlns="http://www.w3.org/2000/svg" xmlns:xlink="http://www.w3.org/1999/xlink" viewBox="0 0 82.97 74.06">
  <defs>
    <style>
      .cls-1 {
        opacity: .14;
      }

      .cls-2 {
        fill: url(#linear-gradient-2);
      }

      .cls-3 {
        opacity: .21;
      }

      .cls-4 {
        opacity: .42;
      }

      .cls-5 {
        opacity: .55;
      }

      .cls-6 {
        fill: url(#linear-gradient-4);
      }

      .cls-7 {
        opacity: .48;
      }

      .cls-8 {
        opacity: .35;
      }

      .cls-9 {
        fill: url(#linear-gradient-3);
      }

      .cls-10 {
        opacity: .08;
      }

      .cls-11 {
        opacity: .28;
      }

      .cls-12 {
        opacity: 0;
      }

      .cls-13 {
        fill: url(#linear-gradient);
      }
    </style>
    <linearGradient id="linear-gradient" x1="24.38" y1="5.58" x2="67.86" y2="49.07" gradientUnits="userSpaceOnUse">
      <stop offset="0" stop-color="#79949c"/>
      <stop offset="1" stop-color="#b6c7c8"/>
    </linearGradient>
    <linearGradient id="linear-gradient-2" x1="25.6" y1="59.32" x2="32.22" y2="65.94" gradientUnits="userSpaceOnUse">
      <stop offset="0" stop-color="#eb0a00"/>
      <stop offset="1" stop-color="#ff853b"/>
    </linearGradient>
    <linearGradient id="linear-gradient-3" x1="53.1" y1="59.32" x2="59.72" y2="65.94" xlink:href="#linear-gradient-2"/>
    <linearGradient id="linear-gradient-4" x1="5.58" y1="-4.59" x2="68.89" y2="58.73" gradientUnits="userSpaceOnUse">
      <stop offset="0" stop-color="#2c2e2c"/>
      <stop offset=".99" stop-color="#000"/>
    </linearGradient>
  </defs>
  <g id="Layer_1-2" data-name="Layer 1">
    <g>
      <path class="cls-13" d="M16.04,15.66s3.16,18.56,4.95,25.3c1.79,6.74,5.09,7.01,8.25,7.01h33.13c5.77,0,7.97-3.16,8.66-5.64s4.81-26.67,4.81-26.67H16.04Z"/>
      <path class="cls-2" d="M28.89,58.14c-2.47,0-4.47,2-4.47,4.47s2,4.47,4.47,4.47,4.47-2,4.47-4.47-2-4.47-4.47-4.47Z"/>
      <path class="cls-9" d="M56.39,58.14c-2.47,0-4.47,2-4.47,4.47s2,4.47,4.47,4.47,4.47-2,4.47-4.47-2-4.47-4.47-4.47Z"/>
      <g>
        <path class="cls-12" d="M61.83,70.69c-1.52,0-2.75-1.23-2.75-2.76,0-.25.03-.49.1-.72.06-.23.15-.45.27-.65.49-.85,1.41-1.38,2.38-1.38,1.52,0,2.76,1.23,2.76,2.75s-1.23,2.76-2.76,2.76ZM34.36,70.69c-1.52,0-2.75-1.23-2.75-2.76,0-.25.03-.49.09-.72.06-.23.15-.45.27-.65.49-.85,1.41-1.38,2.39-1.38,1.52,0,2.75,1.23,2.75,2.75s-1.24,2.76-2.75,2.76ZM70.41,59.08H27.8c-.93,0-1.69.75-1.69,1.69s.76,1.69,1.69,1.69h3.81c-1.05.53-1.96,1.35-2.57,2.4-.27.46-.47.95-.61,1.46-.14.52-.22,1.07-.22,1.61,0,3.38,2.75,6.14,6.13,6.14s6.13-2.75,6.13-6.14c0-2.39-1.37-4.45-3.37-5.46h21.98c-1.05.53-1.96,1.35-2.57,2.4-.27.46-.47.95-.61,1.46-.14.52-.21,1.07-.21,1.61,0,3.38,2.75,6.14,6.13,6.14s6.14-2.75,6.14-6.14c0-2.39-1.38-4.45-3.38-5.46h5.82c.94,0,1.69-.76,1.69-1.69s-.76-1.69-1.69-1.69ZM82.58,20.01c-.32-.38-.8-.61-1.29-.61H29.63c-.93,0-1.69.76-1.69,1.69s.75,1.69,1.69,1.69h49.63l-4.53,25.1c-.42,2.11-3.3,3.9-6.3,3.9h-33.89c-3,0-5.89-1.79-6.3-3.87L20.86,6.79c-.14-.8-.85-1.39-1.66-1.39H7.1c-.93,0-1.69.76-1.69,1.69s.76,1.69,1.69,1.69h10.69l7.15,39.75c.73,3.72,4.95,6.63,9.61,6.63h33.89c4.66,0,8.88-2.91,9.62-6.66l4.89-27.11c.09-.49-.04-1-.37-1.38Z"/>
        <path class="cls-10" d="M61.21,70.06c-1.52,0-2.75-1.23-2.75-2.76,0-.25.03-.49.1-.72.06-.23.15-.45.27-.65.49-.85,1.41-1.38,2.38-1.38,1.52,0,2.76,1.23,2.76,2.75s-1.23,2.76-2.76,2.76ZM33.73,70.06c-1.52,0-2.75-1.23-2.75-2.76,0-.25.03-.49.09-.72.06-.23.15-.45.27-.65.49-.85,1.41-1.38,2.39-1.38,1.52,0,2.75,1.23,2.75,2.75s-1.24,2.76-2.75,2.76ZM69.79,58.46H27.18c-.93,0-1.69.75-1.69,1.69s.76,1.69,1.69,1.69h3.81c-1.05.53-1.96,1.35-2.57,2.4-.27.46-.47.95-.61,1.46-.14.52-.22,1.07-.22,1.61,0,3.38,2.75,6.14,6.13,6.14s6.13-2.75,6.13-6.14c0-2.39-1.37-4.45-3.37-5.46h21.98c-1.05.53-1.96,1.35-2.57,2.4-.27.46-.47.95-.61,1.46-.14.52-.21,1.07-.21,1.61,0,3.38,2.75,6.14,6.13,6.14s6.14-2.75,6.14-6.14c0-2.39-1.38-4.45-3.38-5.46h5.82c.94,0,1.69-.76,1.69-1.69s-.76-1.69-1.69-1.69ZM81.95,19.39c-.32-.38-.8-.61-1.29-.61H29c-.93,0-1.69.76-1.69,1.69s.75,1.69,1.69,1.69h49.63l-4.53,25.1c-.42,2.11-3.3,3.9-6.3,3.9h-33.89c-3,0-5.89-1.79-6.3-3.87L20.24,6.17c-.14-.8-.85-1.39-1.66-1.39H6.47c-.93,0-1.69.76-1.69,1.69s.76,1.69,1.69,1.69h10.69l7.15,39.75c.73,3.72,4.95,6.63,9.61,6.63h33.89c4.66,0,8.88-2.91,9.62-6.66l4.89-27.11c.09-.49-.04-1-.37-1.38Z"/>
        <path class="cls-1" d="M60.58,69.44c-1.52,0-2.75-1.23-2.75-2.76,0-.25.03-.49.1-.72.06-.23.15-.45.27-.65.49-.85,1.41-1.38,2.38-1.38,1.52,0,2.76,1.23,2.76,2.75s-1.23,2.76-2.76,2.76ZM33.11,69.44c-1.52,0-2.75-1.23-2.75-2.76,0-.25.03-.49.09-.72.06-.23.15-.45.27-.65.49-.85,1.41-1.38,2.39-1.38,1.52,0,2.75,1.23,2.75,2.75s-1.24,2.76-2.75,2.76ZM69.16,57.83H26.55c-.93,0-1.69.75-1.69,1.69s.76,1.69,1.69,1.69h3.81c-1.05.53-1.96,1.35-2.57,2.4-.27.46-.47.95-.61,1.46-.14.52-.22,1.07-.22,1.61,0,3.38,2.75,6.14,6.13,6.14s6.13-2.75,6.13-6.14c0-2.39-1.37-4.45-3.37-5.46h21.98c-1.05.53-1.96,1.35-2.57,2.4-.27.46-.47.95-.61,1.46-.14.52-.21,1.07-.21,1.61,0,3.38,2.75,6.14,6.13,6.14s6.14-2.75,6.14-6.14c0-2.39-1.38-4.45-3.38-5.46h5.82c.94,0,1.69-.76,1.69-1.69s-.76-1.69-1.69-1.69ZM81.33,18.76c-.32-.38-.8-.61-1.29-.61H28.38c-.93,0-1.69.76-1.69,1.69s.75,1.69,1.69,1.69h49.63l-4.53,25.1c-.42,2.11-3.3,3.9-6.3,3.9h-33.89c-3,0-5.89-1.79-6.3-3.87L19.61,5.54c-.14-.8-.85-1.39-1.66-1.39H5.85c-.93,0-1.69.76-1.69,1.69s.76,1.69,1.69,1.69h10.69l7.15,39.75c.73,3.72,4.95,6.63,9.61,6.63h33.89c4.66,0,8.88-2.91,9.62-6.66l4.89-27.11c.09-.49-.04-1-.37-1.38Z"/>
        <path class="cls-3" d="M59.96,68.81c-1.52,0-2.75-1.23-2.75-2.76,0-.25.03-.49.1-.72.06-.23.15-.45.27-.65.49-.85,1.41-1.38,2.38-1.38,1.52,0,2.76,1.23,2.76,2.75s-1.23,2.76-2.76,2.76ZM32.48,68.81c-1.52,0-2.75-1.23-2.75-2.76,0-.25.03-.49.09-.72.06-.23.15-.45.27-.65.49-.85,1.41-1.38,2.39-1.38,1.52,0,2.75,1.23,2.75,2.75s-1.24,2.76-2.75,2.76ZM68.54,57.21H25.93c-.93,0-1.69.75-1.69,1.69s.76,1.69,1.69,1.69h3.81c-1.05.53-1.96,1.35-2.57,2.4-.27.46-.47.95-.61,1.46-.14.52-.22,1.07-.22,1.61,0,3.38,2.75,6.14,6.13,6.14s6.13-2.75,6.13-6.14c0-2.39-1.37-4.45-3.37-5.46h21.98c-1.05.53-1.96,1.35-2.57,2.4-.27.46-.47.95-.61,1.46-.14.52-.21,1.07-.21,1.61,0,3.38,2.75,6.14,6.13,6.14s6.14-2.75,6.14-6.14c0-2.39-1.38-4.45-3.38-5.46h5.82c.94,0,1.69-.76,1.69-1.69s-.76-1.69-1.69-1.69ZM80.7,18.14c-.32-.38-.8-.61-1.29-.61H27.75c-.93,0-1.69.76-1.69,1.69s.75,1.69,1.69,1.69h49.63l-4.53,25.1c-.42,2.11-3.3,3.9-6.3,3.9h-33.89c-3,0-5.89-1.79-6.3-3.87L18.99,4.92c-.14-.8-.85-1.39-1.66-1.39H5.22c-.93,0-1.69.76-1.69,1.69s.76,1.69,1.69,1.69h10.69l7.15,39.75c.73,3.72,4.95,6.63,9.61,6.63h33.89c4.66,0,8.88-2.91,9.62-6.66l4.89-27.11c.09-.49-.04-1-.37-1.38Z"/>
        <path class="cls-11" d="M59.33,68.19c-1.52,0-2.75-1.23-2.75-2.76,0-.25.03-.49.1-.72.06-.23.15-.45.27-.65.49-.85,1.41-1.38,2.38-1.38,1.52,0,2.76,1.23,2.76,2.75s-1.23,2.76-2.76,2.76ZM31.86,68.19c-1.52,0-2.75-1.23-2.75-2.76,0-.25.03-.49.09-.72.06-.23.15-.45.27-.65.49-.85,1.41-1.38,2.39-1.38,1.52,0,2.75,1.23,2.75,2.75s-1.24,2.76-2.75,2.76ZM67.91,56.58H25.3c-.93,0-1.69.75-1.69,1.69s.76,1.69,1.69,1.69h3.81c-1.05.53-1.96,1.35-2.57,2.4-.27.46-.47.95-.61,1.46-.14.52-.22,1.07-.22,1.61,0,3.38,2.75,6.14,6.13,6.14s6.13-2.75,6.13-6.14c0-2.39-1.37-4.45-3.37-5.46h21.98c-1.05.53-1.96,1.35-2.57,2.4-.27.46-.47.95-.61,1.46-.14.52-.21,1.07-.21,1.61,0,3.38,2.75,6.14,6.13,6.14s6.14-2.75,6.14-6.14c0-2.39-1.38-4.45-3.38-5.46h5.82c.94,0,1.69-.76,1.69-1.69s-.76-1.69-1.69-1.69ZM80.08,17.51c-.32-.38-.8-.61-1.29-.61H27.13c-.93,0-1.69.76-1.69,1.69s.75,1.69,1.69,1.69h49.63l-4.53,25.1c-.42,2.11-3.3,3.9-6.3,3.9h-33.89c-3,0-5.89-1.79-6.3-3.87L18.36,4.29c-.14-.8-.85-1.39-1.66-1.39H4.6c-.93,0-1.69.76-1.69,1.69s.76,1.69,1.69,1.69h10.69l7.15,39.75c.73,3.72,4.95,6.63,9.61,6.63h33.89c4.66,0,8.88-2.91,9.62-6.66l4.89-27.11c.09-.49-.04-1-.37-1.38Z"/>
        <path class="cls-8" d="M58.71,67.56c-1.52,0-2.75-1.23-2.75-2.76,0-.25.03-.49.1-.72.06-.23.15-.45.27-.65.49-.85,1.41-1.38,2.38-1.38,1.52,0,2.76,1.23,2.76,2.75s-1.23,2.76-2.76,2.76ZM31.23,67.56c-1.52,0-2.75-1.23-2.75-2.76,0-.25.03-.49.09-.72.06-.23.15-.45.27-.65.49-.85,1.41-1.38,2.39-1.38,1.52,0,2.75,1.23,2.75,2.75s-1.24,2.76-2.75,2.76ZM67.29,55.96H24.68c-.93,0-1.69.75-1.69,1.69s.76,1.69,1.69,1.69h3.81c-1.05.53-1.96,1.35-2.57,2.4-.27.46-.47.95-.61,1.46-.14.52-.22,1.07-.22,1.61,0,3.38,2.75,6.14,6.13,6.14s6.13-2.75,6.13-6.14c0-2.39-1.37-4.45-3.37-5.46h21.98c-1.05.53-1.96,1.35-2.57,2.4-.27.46-.47.95-.61,1.46-.14.52-.21,1.07-.21,1.61,0,3.38,2.75,6.14,6.13,6.14s6.14-2.75,6.14-6.14c0-2.39-1.38-4.45-3.38-5.46h5.82c.94,0,1.69-.76,1.69-1.69s-.76-1.69-1.69-1.69ZM79.45,16.89c-.32-.38-.8-.61-1.29-.61H26.5c-.93,0-1.69.76-1.69,1.69s.75,1.69,1.69,1.69h49.63l-4.53,25.1c-.42,2.11-3.3,3.9-6.3,3.9H31.43c-3,0-5.89-1.79-6.3-3.87L17.74,3.67c-.14-.8-.85-1.39-1.66-1.39H3.97c-.93,0-1.69.76-1.69,1.69s.76,1.69,1.69,1.69h10.69l7.15,39.75c.73,3.72,4.95,6.63,9.61,6.63h33.89c4.66,0,8.88-2.91,9.62-6.66l4.89-27.11c.09-.49-.04-1-.37-1.38Z"/>
        <path class="cls-4" d="M58.08,66.94c-1.52,0-2.75-1.23-2.75-2.76,0-.25.03-.49.1-.72.06-.23.15-.45.27-.65.49-.85,1.41-1.38,2.38-1.38,1.52,0,2.76,1.23,2.76,2.75s-1.23,2.76-2.76,2.76ZM30.61,66.94c-1.52,0-2.75-1.23-2.75-2.76,0-.25.03-.49.09-.72.06-.23.15-.45.27-.65.49-.85,1.41-1.38,2.39-1.38,1.52,0,2.75,1.23,2.75,2.75s-1.24,2.76-2.75,2.76ZM66.66,55.33H24.05c-.93,0-1.69.75-1.69,1.69s.76,1.69,1.69,1.69h3.81c-1.05.53-1.96,1.35-2.57,2.4-.27.46-.47.95-.61,1.46-.14.52-.22,1.07-.22,1.61,0,3.38,2.75,6.14,6.13,6.14s6.13-2.75,6.13-6.14c0-2.39-1.37-4.45-3.37-5.46h21.98c-1.05.53-1.96,1.35-2.57,2.4-.27.46-.47.95-.61,1.46-.14.52-.21,1.07-.21,1.61,0,3.38,2.75,6.14,6.13,6.14s6.14-2.75,6.14-6.14c0-2.39-1.38-4.45-3.38-5.46h5.82c.94,0,1.69-.76,1.69-1.69s-.76-1.69-1.69-1.69ZM78.83,16.26c-.32-.38-.8-.61-1.29-.61H25.88c-.93,0-1.69.76-1.69,1.69s.75,1.69,1.69,1.69h49.63l-4.53,25.1c-.42,2.11-3.3,3.9-6.3,3.9H30.8c-3,0-5.89-1.79-6.3-3.87L17.11,3.04c-.14-.8-.85-1.39-1.66-1.39H3.35c-.93,0-1.69.76-1.69,1.69s.76,1.69,1.69,1.69h10.69l7.15,39.75c.73,3.72,4.95,6.63,9.61,6.63h33.89c4.66,0,8.88-2.91,9.62-6.66l4.89-27.11c.09-.49-.04-1-.37-1.38Z"/>
        <path class="cls-7" d="M57.46,66.31c-1.52,0-2.75-1.23-2.75-2.76,0-.25.03-.49.1-.72.06-.23.15-.45.27-.65.49-.85,1.41-1.38,2.38-1.38,1.52,0,2.76,1.23,2.76,2.75s-1.23,2.76-2.76,2.76ZM29.98,66.31c-1.52,0-2.75-1.23-2.75-2.76,0-.25.03-.49.09-.72.06-.23.15-.45.27-.65.49-.85,1.41-1.38,2.39-1.38,1.52,0,2.75,1.23,2.75,2.75s-1.24,2.76-2.75,2.76ZM66.04,54.71H23.43c-.93,0-1.69.75-1.69,1.69s.76,1.69,1.69,1.69h3.81c-1.05.53-1.96,1.35-2.57,2.4-.27.46-.47.95-.61,1.46-.14.52-.22,1.07-.22,1.61,0,3.38,2.75,6.14,6.13,6.14s6.13-2.75,6.13-6.14c0-2.39-1.37-4.45-3.37-5.46h21.98c-1.05.53-1.96,1.35-2.57,2.4-.27.46-.47.95-.61,1.46-.14.52-.21,1.07-.21,1.61,0,3.38,2.75,6.14,6.13,6.14s6.14-2.75,6.14-6.14c0-2.39-1.38-4.45-3.38-5.46h5.82c.94,0,1.69-.76,1.69-1.69s-.76-1.69-1.69-1.69ZM78.2,15.64c-.32-.38-.8-.61-1.29-.61H25.25c-.93,0-1.69.76-1.69,1.69s.75,1.69,1.69,1.69h49.63l-4.53,25.1c-.42,2.11-3.3,3.9-6.3,3.9H30.18c-3,0-5.89-1.79-6.3-3.87L16.49,2.42c-.14-.8-.85-1.39-1.66-1.39H2.72c-.93,0-1.69.76-1.69,1.69s.76,1.69,1.69,1.69h10.69l7.15,39.75c.73,3.72,4.95,6.63,9.61,6.63h33.89c4.66,0,8.88-2.91,9.62-6.66l4.89-27.11c.09-.49-.04-1-.37-1.38Z"/>
        <path class="cls-5" d="M56.83,65.69c-1.52,0-2.75-1.23-2.75-2.76,0-.25.03-.49.1-.72.06-.23.15-.45.27-.65.49-.85,1.41-1.38,2.38-1.38,1.52,0,2.76,1.23,2.76,2.75s-1.23,2.76-2.76,2.76ZM29.36,65.69c-1.52,0-2.75-1.23-2.75-2.76,0-.25.03-.49.09-.72.06-.23.15-.45.27-.65.49-.85,1.41-1.38,2.39-1.38,1.52,0,2.75,1.23,2.75,2.75s-1.24,2.76-2.75,2.76ZM65.41,54.08H22.8c-.93,0-1.69.75-1.69,1.69s.76,1.69,1.69,1.69h3.81c-1.05.53-1.96,1.35-2.57,2.4-.27.46-.47.95-.61,1.46-.14.52-.22,1.07-.22,1.61,0,3.38,2.75,6.14,6.13,6.14s6.13-2.75,6.13-6.14c0-2.39-1.37-4.45-3.37-5.46h21.98c-1.05.53-1.96,1.35-2.57,2.4-.27.46-.47.95-.61,1.46-.14.52-.21,1.07-.21,1.61,0,3.38,2.75,6.14,6.13,6.14s6.14-2.75,6.14-6.14c0-2.39-1.38-4.45-3.38-5.46h5.82c.94,0,1.69-.76,1.69-1.69s-.76-1.69-1.69-1.69ZM77.58,15.01c-.32-.38-.8-.61-1.29-.61H24.63c-.93,0-1.69.76-1.69,1.69s.75,1.69,1.69,1.69h49.63l-4.53,25.1c-.42,2.11-3.3,3.9-6.3,3.9H29.55c-3,0-5.89-1.79-6.3-3.87L15.86,1.79c-.14-.8-.85-1.39-1.66-1.39H2.1C1.16.41.41,1.16.41,2.1s.76,1.69,1.69,1.69h10.69l7.15,39.75c.73,3.72,4.95,6.63,9.61,6.63h33.89c4.66,0,8.88-2.91,9.62-6.66l4.89-27.11c.09-.49-.04-1-.37-1.38Z"/>
      </g>
      <path class="cls-6" d="M65.01,53.68H22.4c-.93,0-1.69.75-1.69,1.69s.76,1.69,1.69,1.69h3.81c-1.05.53-1.96,1.35-2.57,2.4-.27.46-.47.95-.61,1.46-.14.52-.22,1.07-.22,1.61,0,3.38,2.75,6.14,6.13,6.14s6.13-2.75,6.13-6.14c0-2.39-1.37-4.45-3.37-5.46h21.98c-1.05.53-1.96,1.35-2.57,2.4-.27.46-.47.95-.61,1.46-.14.52-.21,1.07-.21,1.61,0,3.38,2.75,6.14,6.13,6.14s6.14-2.75,6.14-6.14c0-2.39-1.38-4.45-3.38-5.46h5.82c.94,0,1.69-.76,1.69-1.69s-.76-1.69-1.69-1.69ZM28.95,65.28c-1.52,0-2.75-1.23-2.75-2.76,0-.25.03-.49.09-.72.06-.23.15-.45.27-.65.49-.85,1.41-1.38,2.39-1.38,1.52,0,2.75,1.23,2.75,2.75s-1.24,2.76-2.75,2.76ZM56.43,65.28c-1.52,0-2.75-1.23-2.75-2.76,0-.25.03-.49.1-.72.06-.23.15-.45.27-.65.49-.85,1.41-1.38,2.38-1.38,1.52,0,2.76,1.23,2.76,2.75s-1.23,2.76-2.76,2.76ZM77.17,14.61c-.32-.38-.8-.61-1.29-.61H24.22c-.93,0-1.69.76-1.69,1.69s.75,1.69,1.69,1.69h49.63l-4.53,25.1c-.42,2.11-3.3,3.9-6.3,3.9H29.15c-3,0-5.89-1.79-6.29-3.87L15.46,1.39c-.14-.8-.85-1.39-1.66-1.39H1.69C.76,0,0,.76,0,1.69s.76,1.69,1.69,1.69h10.69l7.15,39.75c.73,3.72,4.95,6.63,9.61,6.63h33.89c4.66,0,8.88-2.91,9.62-6.66l4.89-27.11c.09-.49-.04-1-.37-1.38Z"/>
    </g>
  </g>
</svg>