<?xml version="1.0" encoding="UTF-8"?>
<svg id="Layer_2" data-name="Layer 2" xmlns="http://www.w3.org/2000/svg" viewBox="0 0 23.23 27.36">
  <defs>
    <style>
      .cls-1 {
        fill-rule: evenodd;
      }
    </style>
  </defs>
  <g id="_1" data-name="1">
    <path class="cls-1" d="M13.38,4.47c3.37-4.2,5.74-2.99,5.74-2.99,1.21.47,1.41,1.97.95,2.37-1.85,2.56-5.65,3.44-6.21,2.2.16-.95-.48-1.57-.48-1.57h0ZM.04,7.17h4.9C1.38,5.15,1.08.22,4.77,0c1.72-.1,3.93.78,6.1,4.1h1.58C14.62.79,16.84-.09,18.55,0c1.78.1,3.88,3.74,1.48,6.23-.37.38-.75.68-1.14.94h4.34v6.78h-1.96s0,13.38,0,13.38v.03h-2.04v-13.42h-1.31s0,13.39,0,13.39v.03h-2.08v-13.43h-1.31s0,13.4,0,13.4v.03h-2.07v-.03c0-6.51,0-12.99-.08-19.5-.25-.02-.49-.04-.7-.04h-.58c.06,6.53.04,13,.04,19.54v.03h-2.07v-13.46h-1.32v13.46h-2.07v-13.44h-1.32v13.44h-2.04v-13.42H.04s-.04,0-.04,0v-6.78h.04ZM11.67,6.43c-1.9,0-2.11-1.43,0-1.43s1.89,1.43,0,1.43h0ZM9.46,6.05C7.03,7.62.45,3.62,4.21,1.48c0,0,2.37-1.21,5.75,2.99,0,0-.66.62-.49,1.57h0Z"/>
  </g>
</svg>