<?xml version="1.0" encoding="UTF-8"?>
<svg id="Layer_2" data-name="Layer 2" xmlns="http://www.w3.org/2000/svg" viewBox="0 0 25.13 27.36">
  <defs>
    <style>
      .cls-1 {
        fill-rule: evenodd;
      }
    </style>
  </defs>
  <g id="_1" data-name="1">
    <path class="cls-1" d="M22.74,13.89v11.74c0,.94-.77,1.73-1.73,1.73h-7.97v-13.47h9.69ZM12.77,5.37l.73-2.7.72-2.67,1.96,1.96,1.97,1.97-2.69.72-2.69.71ZM12.36,5.37l-.72-2.7-.72-2.67-1.98,1.96-1.96,1.97,2.68.72,2.69.71ZM1.73,6.05h10.37v6.88H1.73c-.96,0-1.73-.78-1.73-1.73v-3.43c0-.95.77-1.73,1.73-1.73h0ZM13.05,6.05h10.36c.95,0,1.73.78,1.73,1.73v3.43c0,.95-.77,1.73-1.73,1.73h-10.36v-6.88ZM12.1,27.36h-7.98c-.94,0-1.71-.79-1.71-1.73v-11.74h9.69v13.47Z"/>
  </g>
</svg>