<?xml version="1.0" encoding="UTF-8"?>
<svg id="Layer_2" data-name="Layer 2" xmlns="http://www.w3.org/2000/svg" viewBox="0 0 27.36 21.7">
  <g id="_1" data-name="1">
    <path d="M26.15,0H1.19C.59,0,0,.5,0,1.1v15.73c0,.61.59.8,1.19.8h24.97c.61,0,1.2-.19,1.2-.8V1.1c0-.61-.59-1.1-1.2-1.1h0ZM25.56,14.76H1.8V1.79h23.76v12.97ZM17.18,21.01c-.47-.36-.53-1.02-.53-1.02l-.22-2.38h-5.61l-.14,2.38s-.04.59-.51.94c-.47.34-.84.67-.47.73.35.04,3.72.02,3.97.01.25.01,3.62.06,3.98.01.37-.05,0-.33-.47-.67h0ZM13.67,15.09c.58,0,1.05.47,1.05,1.05,0,1.37-2.1,1.37-2.1,0,0-.58.47-1.05,1.05-1.05h0Z"/>
  </g>
</svg>