<?xml version="1.0" encoding="UTF-8"?>
<svg id="Layer_2" data-name="Layer 2" xmlns="http://www.w3.org/2000/svg" viewBox="0 0 20.39 27.36">
  <defs>
    <style>
      .cls-1 {
        fill-rule: evenodd;
      }
    </style>
  </defs>
  <g id="_1" data-name="1">
    <path class="cls-1" d="M4.93,12.23c.94,1.42,2.25,4.75,2.25,5.35v8.4c0,.75-.61,1.38-1.38,1.38H1.38c-.76,0-1.38-.63-1.38-1.38v-8.4c0-.6,1.33-3.93,2.27-5.35V1.35c-.27-.02,0-.26,0-.52v-.31c0-.28-.24-.52.05-.52h2.57c.29,0,.05.23.05.52v.31c0,.26.27.5,0,.52v10.87ZM14.75,20.22l-2.51-2.29-2.72-2.46h10.87l-2.72,2.46-2.51,2.29v5.39l.73.6.93.78h-3.74l.94-.78.73-.6v-5.39ZM1.28,20.35h4.64c.34,0,.62.29.62.63v4.39c0,.34-.28.62-.62.62H1.28c-.34,0-.61-.27-.61-.62v-4.39c0-.34.28-.63.61-.63h0Z"/>
  </g>
</svg>