<?xml version="1.0" encoding="UTF-8"?>
<svg id="Layer_2" data-name="Layer 2" xmlns="http://www.w3.org/2000/svg" viewBox="0 0 27.35 26.85">
  <defs>
    <style>
      .cls-1 {
        fill-rule: evenodd;
      }
    </style>
  </defs>
  <g id="_1" data-name="1">
    <path class="cls-1" d="M7.75,26.85h16.77c.56,0,1.01-.44,1.01-1.01v-5.19H1.88v5.19c0,.57.44,1.01,1.01,1.01h4.86ZM22.61,4.11c0-2.26-.92-4.11-2.98-4.11-1.92,0-3.44,1.6-4.46,3.44-.46-.48-.97-.79-1.54-.79s-1.04.28-1.48.74c-1.02-1.82-2.53-3.39-4.44-3.39-2.05,0-2.97,1.84-2.97,4.11,0,1.1.22,2.12.68,2.85H.99c-.55,0-.99.45-.99,1.01v3.51c0,.55.44,1.01.99,1.01h.88v4.46h23.66v-4.46h.81c.55,0,1.01-.46,1.01-1.01v-3.51c0-.56-.45-1.01-1.01-1.01h-4.41c.45-.73.67-1.75.67-2.85h0ZM11.02,5.49h-3.31c-.68,0-1.48-.25-1.48-1.39s.8-1.37,1.48-1.37c1.48,0,2.61,1.24,3.36,2.53l-.05.23ZM16.21,5.36c.76-1.35,1.91-2.63,3.41-2.63.68,0,1.49.25,1.49,1.37s-.82,1.39-1.49,1.39h-3.37l-.04-.13Z"/>
  </g>
</svg>