<?xml version="1.0" encoding="UTF-8"?>
<svg id="Layer_2" data-name="Layer 2" xmlns="http://www.w3.org/2000/svg" viewBox="0 0 22.14 27.36">
  <defs>
    <style>
      .cls-1 {
        fill-rule: evenodd;
      }
    </style>
  </defs>
  <g id="_1" data-name="1">
    <path class="cls-1" d="M12.68,8.19h0c-.86-.24-1.75-.4-2.65-.48,0,.02-.03.04-.03.07-.07,0-.13-.01-.2-.01C4.38,7.77,0,12.15,0,17.56s4.38,9.8,9.79,9.8,9.79-4.39,9.79-9.8c0-4.41-2.91-8.12-6.9-9.36h0ZM12.19,3.2c.03-.11.1-.2.18-.26.09-.06.2-.07.3-.04l2.17.51c.11.02.2.09.24.18.05.09.08.19.05.3-.02.11-.09.19-.18.24-.09.06-.2.08-.3.06l-2.17-.51c-.11-.02-.19-.09-.25-.18-.05-.09-.08-.2-.05-.3h0ZM17.21.05c.11.05.19.14.23.25.03.11.03.23-.02.34l-1.14,2.29c-.06.1-.16.18-.26.21-.1.03-.22.03-.33-.02-.11-.06-.19-.14-.23-.26-.03-.1-.02-.22.02-.34l1.16-2.28c.04-.1.14-.18.25-.21.11-.04.23-.03.33.02h0ZM16.24,6.29c.03-.11.1-.21.19-.27h0c.1-.06.21-.08.33-.06l2.41.57c.11.04.2.1.27.19.05.1.08.21.04.32-.02.12-.09.21-.19.27-.09.06-.21.08-.33.06l-2.4-.57h0c-.12-.02-.21-.1-.27-.19-.06-.1-.08-.21-.06-.33h0ZM21.29,2.13c-1.58.62-3.15,1.26-4.71,1.95-.83.37-.11,1.58.72,1.22,1.45-.64,2.91-1.22,4.38-1.81.83-.33.47-1.7-.38-1.35h0ZM13.53,7.48c.45-.33.94-.6,1.49-.84.58-.25.71-1.1.41-1.6-.35-.6-1.02-.68-1.6-.43-1.21.51-2.27,1.26-3.12,2.22.95.12,1.89.34,2.82.65h0ZM7.46,10.87c1.3,0,2.36,1.05,2.36,2.35s-1.06,2.36-2.36,2.36-2.35-1.05-2.35-2.36,1.05-2.35,2.35-2.35h0Z"/>
  </g>
</svg>