<?xml version="1.0" encoding="UTF-8"?>
<svg xmlns="http://www.w3.org/2000/svg" xmlns:xlink="http://www.w3.org/1999/xlink" viewBox="0 0 55.53 70">
  <defs>
    <style>
      .cls-1 {
        fill: url(#linear-gradient-5);
      }

      .cls-1, .cls-2, .cls-3, .cls-4, .cls-5, .cls-6 {
        stroke-miterlimit: 10;
      }

      .cls-1, .cls-3, .cls-4, .cls-5, .cls-6 {
        stroke: #999;
      }

      .cls-2 {
        fill: #fff;
        mix-blend-mode: soft-light;
        opacity: .8;
        stroke: #fff;
      }

      .cls-3 {
        fill: url(#linear-gradient);
      }

      .cls-4 {
        fill: url(#linear-gradient-3);
      }

      .cls-7 {
        isolation: isolate;
      }

      .cls-5 {
        fill: url(#linear-gradient-2);
      }

      .cls-6 {
        fill: url(#linear-gradient-4);
      }
    </style>
    <linearGradient id="linear-gradient" x1="2.56" y1="41.5" x2="52.97" y2="41.5" gradientUnits="userSpaceOnUse">
      <stop offset="0" stop-color="#e5e2df"/>
      <stop offset="0" stop-color="#f1efed"/>
      <stop offset="0" stop-color="#fff"/>
      <stop offset=".13" stop-color="#f0f0f0"/>
      <stop offset=".37" stop-color="#c9cacb"/>
      <stop offset=".52" stop-color="#adaeb0"/>
      <stop offset=".67" stop-color="#a3a4a6"/>
      <stop offset=".91" stop-color="#8b8b8c"/>
      <stop offset="1" stop-color="gray"/>
    </linearGradient>
    <linearGradient id="linear-gradient-2" x1=".5" y1="9" x2="55.03" y2="9" xlink:href="#linear-gradient"/>
    <linearGradient id="linear-gradient-3" x1="-29.09" y1="125.48" x2="-51.74" y2="156.45" gradientTransform="translate(39.42 -102.17) rotate(-6.17)" xlink:href="#linear-gradient"/>
    <linearGradient id="linear-gradient-4" x1="37.72" y1="23.85" x2="17.34" y2="59.15" xlink:href="#linear-gradient"/>
    <linearGradient id="linear-gradient-5" x1="-1838.99" y1="-72.15" x2="-1821.7" y2="-33.01" gradientTransform="translate(-1784.35 -102.17) rotate(-173.83) scale(1 -1)" xlink:href="#linear-gradient"/>
  </defs>
  <g class="cls-7">
    <g id="Layer_2" data-name="Layer 2">
      <g id="Objects">
        <g>
          <g>
            <path class="cls-3" d="M45.66,66.04c0,1.7-1.38,3.46-3.09,3.46H11.82c-1.71,0-3.09-1.75-3.09-3.46L2.56,16.62c0-1.7,1.38-3.12,3.09-3.12h44.24c1.7,0,3.09,1.42,3.09,3.12l-7.31,49.42Z"/>
            <path class="cls-5" d="M50.91,8.5h-17.55c.04-1-2.6-7-5.88-7h-.47c-3.28,0-5.91,6-5.88,7H4.61c-2.27,0-4.11,1.73-4.11,4s1.84,4,4.11,4h46.3c2.27,0,4.12-1.73,4.12-4s-1.84-4-4.12-4Z"/>
            <path class="cls-4" d="M19.16,62.5c.15,1.41-.87,2.68-2.28,2.83h0c-1.41.15-2.68-.87-2.83-2.28l-4.42-40.92c-.15-1.41.87-2.68,2.28-2.83h0c1.41-.15,2.68.87,2.83,2.28l4.42,40.92Z"/>
            <path class="cls-6" d="M27.37,18.5h.32c1.57,0,2.84,1.27,2.84,2.84v40.32c0,1.57-1.27,2.84-2.84,2.84h-.32c-1.57,0-2.84-1.27-2.84-2.84V21.34c0-1.57,1.27-2.84,2.84-2.84Z"/>
            <path class="cls-1" d="M36.26,62.5c-.15,1.41.87,2.68,2.28,2.83h0c1.41.15,2.68-.87,2.83-2.28l4.42-40.92c.15-1.41-.87-2.68-2.28-2.83h0c-1.41-.15-2.68.87-2.83,2.28l-4.42,40.92Z"/>
          </g>
          <path class="cls-2" d="M50.85,8.5h-17.46c.04-2-2.58-8-5.85-8h-.47c-3.26,0-5.88,6-5.85,8H4.8c-2.26,0-4.09,1.41-4.09,3.67,0,1.52.84,2.63,2.07,3.29,0,.08-.03.09-.03.18l6.14,49.14c0,1.7,1.37,3.34,3.07,3.34,0,0,41.15-59.62,38.89-59.62Z"/>
        </g>
      </g>
    </g>
  </g>
</svg>