<?xml version="1.0" encoding="UTF-8"?>
<svg id="Layer_2" data-name="Layer 2" xmlns="http://www.w3.org/2000/svg" viewBox="0 0 27.36 23.86">
  <g id="_1" data-name="1">
    <path d="M11.84,2.35h10.37c.23,0,.45.05.66.15.21.1.4.23.55.4v.02c.16.16.28.36.36.58.07.2.12.44.12.66v.73h1.27c1.2,0,2.18.98,2.18,2.17v14.61c0,1.2-.98,2.18-2.18,2.18H2.17c-1.2,0-2.17-.98-2.17-2.18V7.06c0-1.11.84-2.04,1.91-2.16v-.74c0-.22.04-.46.12-.66.08-.23.21-.42.36-.58v-.02c.15-.17.35-.3.55-.4.02-.02.04-.02.06-.03V.51c0-.15.06-.26.15-.36h0c.08-.08.21-.15.34-.15h7.84c.14,0,.26.07.35.15h0c.09.1.14.21.14.36v1.84ZM17.59,18.2c-.62.61-1.38,1.06-2.24,1.3.43-.61.78-1.3,1.04-2.05h1.81c-.18.27-.39.51-.61.75h0ZM12.97,19.62h0c-.48-.62-.88-1.36-1.17-2.16h1.96v2.24c-.26-.01-.52-.04-.79-.08h0ZM8.82,14.76h2.11c.01.8.14,1.59.34,2.3h-1.81c-.38-.69-.62-1.46-.65-2.3h0ZM14.14,11.68h0v-2.24c.23,0,.43.03.64.06.49.62.91,1.36,1.2,2.18h-1.84ZM16.11,12.05h0c.21.73.33,1.51.36,2.32h-2.33v-2.32h1.97ZM13.76,11.68h-1.96c.29-.8.69-1.53,1.17-2.16.27-.04.53-.07.79-.08v2.24ZM13.76,12.05h0v2.32h-2.44c.02-.82.15-1.59.36-2.32h2.09ZM10.94,14.38h-2.11c.03-.85.26-1.63.65-2.32h1.81c-.2.73-.33,1.51-.34,2.32h0ZM11.31,14.76h2.44v2.3h-2.09c-.21-.72-.33-1.49-.36-2.3h0ZM14.14,17.46h1.84c-.29.81-.71,1.55-1.2,2.19-.21.02-.41.04-.64.05v-2.24ZM14.14,17.07h0v-2.3h2.33c-.03.82-.15,1.59-.36,2.3h-1.97ZM16.84,14.76h2.24c-.03.84-.26,1.65-.66,2.34v-.03h-1.92c.21-.72.33-1.5.35-2.3h0ZM16.84,14.38h0c-.01-.82-.14-1.59-.35-2.32h1.93c.39.69.62,1.48.65,2.32h-2.24ZM18.2,11.68h-1.83c-.25-.75-.59-1.44-1.02-2.06.86.25,1.62.7,2.24,1.31.22.23.43.48.61.75h0ZM10.31,10.94h0c.58-.57,1.28-1.01,2.09-1.26-.41.59-.76,1.27-1.01,2h-1.69c.18-.27.39-.51.61-.75h0ZM9.69,17.46h1.7c.25.74.59,1.41,1.01,2.01-.8-.25-1.5-.69-2.09-1.26-.22-.23-.42-.48-.62-.75h0ZM3.35,4.89h19.11v-.73c0-.06-.01-.11-.02-.15-.01-.04-.04-.08-.07-.12-.03-.03-.06-.06-.08-.07-.03,0-.05-.01-.08-.01H3.61s-.05.01-.08.01c-.03,0-.06.04-.08.07-.03.04-.06.08-.07.12-.03.04-.03.09-.03.15v.73ZM13.95,8.9c-3.14,0-5.68,2.53-5.68,5.67s2.54,5.67,5.68,5.67,5.67-2.53,5.67-5.67-2.53-5.67-5.67-5.67h0Z"/>
  </g>
</svg>