<?xml version="1.0" encoding="UTF-8"?>
<svg id="Layer_2" data-name="Layer 2" xmlns="http://www.w3.org/2000/svg" xmlns:xlink="http://www.w3.org/1999/xlink" viewBox="0 0 78.47 70.65">
  <defs>
    <style>
      .cls-1 {
        opacity: .14;
      }

      .cls-2 {
        fill: url(#linear-gradient-2);
      }

      .cls-3 {
        opacity: .21;
      }

      .cls-4 {
        opacity: .42;
      }

      .cls-5 {
        opacity: .55;
      }

      .cls-6 {
        opacity: .48;
      }

      .cls-7 {
        opacity: .35;
      }

      .cls-8 {
        fill: url(#linear-gradient-3);
      }

      .cls-9 {
        opacity: .08;
      }

      .cls-10 {
        opacity: .28;
      }

      .cls-11 {
        opacity: 0;
      }

      .cls-12 {
        fill: url(#linear-gradient);
      }
    </style>
    <linearGradient id="linear-gradient" x1="17.93" y1="3.52" x2="55.01" y2="40.6" gradientUnits="userSpaceOnUse">
      <stop offset="0" stop-color="#0594d6"/>
      <stop offset="1" stop-color="#7af5ff"/>
    </linearGradient>
    <linearGradient id="linear-gradient-2" x1="14.09" y1="16.43" x2="60.46" y2="62.79" gradientUnits="userSpaceOnUse">
      <stop offset="0" stop-color="#c0c1c0"/>
      <stop offset=".2" stop-color="#d4d4d4"/>
      <stop offset=".49" stop-color="#ebeceb"/>
      <stop offset=".77" stop-color="#fafafa"/>
      <stop offset="1" stop-color="#fff"/>
    </linearGradient>
    <linearGradient id="linear-gradient-3" x1="7.69" y1="14.25" x2="65.38" y2="71.94" gradientUnits="userSpaceOnUse">
      <stop offset="0" stop-color="#2c2e2c"/>
      <stop offset=".99" stop-color="#000"/>
    </linearGradient>
  </defs>
  <g id="Layer_1-2" data-name="Layer 1">
    <g>
      <polygon class="cls-12" points="36.28 1.87 3.11 21.37 68.44 21.37 36.28 1.87"/>
      <polygon class="cls-2" points="12.61 55.85 60.28 55.72 60.28 21.7 12.61 21.7 12.61 55.85"/>
      <g>
        <path class="cls-11" d="M18.14,32.15c-.93,0-1.69.76-1.69,1.69v25.76h-3.6c-.93,0-1.69.76-1.69,1.69s.76,1.69,1.69,1.69h58.19c.93,0,1.69-.76,1.69-1.69s-.75-1.69-1.69-1.69h-3.61v-25.76c0-.94-.76-1.69-1.69-1.69s-1.69.76-1.69,1.69v25.76h-12.49v-25.76c0-.94-.76-1.69-1.69-1.69s-1.69.76-1.69,1.69v25.76h-12.49v-25.76c0-.94-.75-1.69-1.69-1.69s-1.69.76-1.69,1.69v25.76h-12.49v-25.76c0-.94-.76-1.69-1.69-1.69ZM41.94,9.05l27.47,16.14H14.47l27.47-16.14ZM8.26,28.57h67.37c.93,0,1.69-.76,1.69-1.69,0-.68-.4-1.26-.97-1.53L42.79,5.64c-.53-.31-1.18-.31-1.71,0L7.4,25.42c-.66.39-.97,1.17-.77,1.9.2.74.87,1.25,1.63,1.25ZM76.78,67.27H7.1c-.93,0-1.69.76-1.69,1.69s.76,1.69,1.69,1.69h69.68c.93,0,1.69-.76,1.69-1.69s-.75-1.69-1.69-1.69Z"/>
        <path class="cls-9" d="M17.51,31.53c-.93,0-1.69.76-1.69,1.69v25.76h-3.6c-.93,0-1.69.76-1.69,1.69s.76,1.69,1.69,1.69h58.19c.93,0,1.69-.76,1.69-1.69s-.75-1.69-1.69-1.69h-3.61v-25.76c0-.94-.76-1.69-1.69-1.69s-1.69.76-1.69,1.69v25.76h-12.49v-25.76c0-.94-.76-1.69-1.69-1.69s-1.69.76-1.69,1.69v25.76h-12.49v-25.76c0-.94-.75-1.69-1.69-1.69s-1.69.76-1.69,1.69v25.76h-12.49v-25.76c0-.94-.76-1.69-1.69-1.69ZM41.31,8.43l27.47,16.14H13.85l27.47-16.14ZM7.63,27.95h67.37c.93,0,1.69-.76,1.69-1.69,0-.68-.4-1.26-.97-1.53L42.17,5.01c-.53-.31-1.18-.31-1.71,0L6.78,24.8c-.66.39-.97,1.17-.77,1.9.2.74.87,1.25,1.63,1.25ZM76.16,66.65H6.47c-.93,0-1.69.76-1.69,1.69s.76,1.69,1.69,1.69h69.68c.93,0,1.69-.76,1.69-1.69s-.75-1.69-1.69-1.69Z"/>
        <path class="cls-1" d="M16.89,30.9c-.93,0-1.69.76-1.69,1.69v25.76h-3.6c-.93,0-1.69.76-1.69,1.69s.76,1.69,1.69,1.69h58.19c.93,0,1.69-.76,1.69-1.69s-.75-1.69-1.69-1.69h-3.61v-25.76c0-.94-.76-1.69-1.69-1.69s-1.69.76-1.69,1.69v25.76h-12.49v-25.76c0-.94-.76-1.69-1.69-1.69s-1.69.76-1.69,1.69v25.76h-12.49v-25.76c0-.94-.75-1.69-1.69-1.69s-1.69.76-1.69,1.69v25.76h-12.49v-25.76c0-.94-.76-1.69-1.69-1.69ZM40.69,7.8l27.47,16.14H13.22L40.69,7.8ZM7.01,27.32h67.37c.93,0,1.69-.76,1.69-1.69,0-.68-.4-1.26-.97-1.53L41.54,4.39c-.53-.31-1.18-.31-1.71,0L6.15,24.17c-.66.39-.97,1.17-.77,1.9.2.74.87,1.25,1.63,1.25ZM75.53,66.02H5.85c-.93,0-1.69.76-1.69,1.69s.76,1.69,1.69,1.69h69.68c.93,0,1.69-.76,1.69-1.69s-.75-1.69-1.69-1.69Z"/>
        <path class="cls-3" d="M16.26,30.28c-.93,0-1.69.76-1.69,1.69v25.76h-3.6c-.93,0-1.69.76-1.69,1.69s.76,1.69,1.69,1.69h58.19c.93,0,1.69-.76,1.69-1.69s-.75-1.69-1.69-1.69h-3.61v-25.76c0-.94-.76-1.69-1.69-1.69s-1.69.76-1.69,1.69v25.76h-12.49v-25.76c0-.94-.76-1.69-1.69-1.69s-1.69.76-1.69,1.69v25.76h-12.49v-25.76c0-.94-.75-1.69-1.69-1.69s-1.69.76-1.69,1.69v25.76h-12.49v-25.76c0-.94-.76-1.69-1.69-1.69ZM40.06,7.18l27.47,16.14H12.6L40.06,7.18ZM6.38,26.7h67.37c.93,0,1.69-.76,1.69-1.69,0-.68-.4-1.26-.97-1.53L40.92,3.76c-.53-.31-1.18-.31-1.71,0L5.53,23.55c-.66.39-.97,1.17-.77,1.9.2.74.87,1.25,1.63,1.25ZM74.91,65.4H5.22c-.93,0-1.69.76-1.69,1.69s.76,1.69,1.69,1.69h69.68c.93,0,1.69-.76,1.69-1.69s-.75-1.69-1.69-1.69Z"/>
        <path class="cls-10" d="M15.64,29.65c-.93,0-1.69.76-1.69,1.69v25.76h-3.6c-.93,0-1.69.76-1.69,1.69s.76,1.69,1.69,1.69h58.19c.93,0,1.69-.76,1.69-1.69s-.75-1.69-1.69-1.69h-3.61v-25.76c0-.94-.76-1.69-1.69-1.69s-1.69.76-1.69,1.69v25.76h-12.49v-25.76c0-.94-.76-1.69-1.69-1.69s-1.69.76-1.69,1.69v25.76h-12.49v-25.76c0-.94-.75-1.69-1.69-1.69s-1.69.76-1.69,1.69v25.76h-12.49v-25.76c0-.94-.76-1.69-1.69-1.69ZM39.44,6.55l27.47,16.14H11.97L39.44,6.55ZM5.76,26.07h67.37c.93,0,1.69-.76,1.69-1.69,0-.68-.4-1.26-.97-1.53L40.29,3.14c-.53-.31-1.18-.31-1.71,0L4.9,22.92c-.66.39-.97,1.17-.77,1.9.2.74.87,1.25,1.63,1.25ZM74.28,64.77H4.6c-.93,0-1.69.76-1.69,1.69s.76,1.69,1.69,1.69h69.68c.93,0,1.69-.76,1.69-1.69s-.75-1.69-1.69-1.69Z"/>
        <path class="cls-7" d="M15.01,29.03c-.93,0-1.69.76-1.69,1.69v25.76h-3.6c-.93,0-1.69.76-1.69,1.69s.76,1.69,1.69,1.69h58.19c.93,0,1.69-.76,1.69-1.69s-.75-1.69-1.69-1.69h-3.61v-25.76c0-.94-.76-1.69-1.69-1.69s-1.69.76-1.69,1.69v25.76h-12.49v-25.76c0-.94-.76-1.69-1.69-1.69s-1.69.76-1.69,1.69v25.76h-12.49v-25.76c0-.94-.75-1.69-1.69-1.69s-1.69.76-1.69,1.69v25.76h-12.49v-25.76c0-.94-.76-1.69-1.69-1.69ZM38.81,5.93l27.47,16.14H11.35L38.81,5.93ZM5.13,25.45h67.37c.93,0,1.69-.76,1.69-1.69,0-.68-.4-1.26-.97-1.53L39.67,2.51c-.53-.31-1.18-.31-1.71,0L4.28,22.3c-.66.39-.97,1.17-.77,1.9.2.74.87,1.25,1.63,1.25ZM73.66,64.15H3.97c-.93,0-1.69.76-1.69,1.69s.76,1.69,1.69,1.69h69.68c.93,0,1.69-.76,1.69-1.69s-.75-1.69-1.69-1.69Z"/>
        <path class="cls-4" d="M14.39,28.4c-.93,0-1.69.76-1.69,1.69v25.76h-3.6c-.93,0-1.69.76-1.69,1.69s.76,1.69,1.69,1.69h58.19c.93,0,1.69-.76,1.69-1.69s-.75-1.69-1.69-1.69h-3.61v-25.76c0-.94-.76-1.69-1.69-1.69s-1.69.76-1.69,1.69v25.76h-12.49v-25.76c0-.94-.76-1.69-1.69-1.69s-1.69.76-1.69,1.69v25.76h-12.49v-25.76c0-.94-.75-1.69-1.69-1.69s-1.69.76-1.69,1.69v25.76h-12.49v-25.76c0-.94-.76-1.69-1.69-1.69ZM38.19,5.3l27.47,16.14H10.72L38.19,5.3ZM4.51,24.82h67.37c.93,0,1.69-.76,1.69-1.69,0-.68-.4-1.26-.97-1.53L39.04,1.89c-.53-.31-1.18-.31-1.71,0L3.65,21.67c-.66.39-.97,1.17-.77,1.9.2.74.87,1.25,1.63,1.25ZM73.03,63.52H3.35c-.93,0-1.69.76-1.69,1.69s.76,1.69,1.69,1.69h69.68c.93,0,1.69-.76,1.69-1.69s-.75-1.69-1.69-1.69Z"/>
        <path class="cls-6" d="M13.76,27.78c-.93,0-1.69.76-1.69,1.69v25.76h-3.6c-.93,0-1.69.76-1.69,1.69s.76,1.69,1.69,1.69h58.19c.93,0,1.69-.76,1.69-1.69s-.75-1.69-1.69-1.69h-3.61v-25.76c0-.94-.76-1.69-1.69-1.69s-1.69.76-1.69,1.69v25.76h-12.49v-25.76c0-.94-.76-1.69-1.69-1.69s-1.69.76-1.69,1.69v25.76h-12.49v-25.76c0-.94-.75-1.69-1.69-1.69s-1.69.76-1.69,1.69v25.76h-12.49v-25.76c0-.94-.76-1.69-1.69-1.69ZM37.56,4.68l27.47,16.14H10.1L37.56,4.68ZM3.88,24.2h67.37c.93,0,1.69-.76,1.69-1.69,0-.68-.4-1.26-.97-1.53L38.42,1.26c-.53-.31-1.18-.31-1.71,0L3.03,21.05c-.66.39-.97,1.17-.77,1.9.2.74.87,1.25,1.63,1.25ZM72.41,62.9H2.72c-.93,0-1.69.76-1.69,1.69s.76,1.69,1.69,1.69h69.68c.93,0,1.69-.76,1.69-1.69s-.75-1.69-1.69-1.69Z"/>
        <path class="cls-5" d="M13.14,27.15c-.93,0-1.69.76-1.69,1.69v25.76h-3.6c-.93,0-1.69.76-1.69,1.69s.76,1.69,1.69,1.69h58.19c.93,0,1.69-.76,1.69-1.69s-.75-1.69-1.69-1.69h-3.61v-25.76c0-.94-.76-1.69-1.69-1.69s-1.69.76-1.69,1.69v25.76h-12.49v-25.76c0-.94-.76-1.69-1.69-1.69s-1.69.76-1.69,1.69v25.76h-12.49v-25.76c0-.94-.75-1.69-1.69-1.69s-1.69.76-1.69,1.69v25.76h-12.49v-25.76c0-.94-.76-1.69-1.69-1.69ZM36.94,4.05l27.47,16.14H9.47L36.94,4.05ZM3.26,23.57h67.37c.93,0,1.69-.76,1.69-1.69,0-.68-.4-1.26-.97-1.53L37.79.64c-.53-.31-1.18-.31-1.71,0L2.4,20.42c-.66.39-.97,1.17-.77,1.9.2.74.87,1.25,1.63,1.25ZM71.78,62.27H2.1c-.93,0-1.69.76-1.69,1.69s.76,1.69,1.69,1.69h69.68c.93,0,1.69-.76,1.69-1.69s-.75-1.69-1.69-1.69Z"/>
      </g>
      <path class="cls-8" d="M2.85,23.17h67.37c.93,0,1.69-.76,1.69-1.69,0-.68-.4-1.26-.97-1.53L37.39.23c-.53-.31-1.18-.31-1.71,0L2,20.02c-.66.39-.97,1.17-.77,1.9.2.74.87,1.25,1.63,1.25ZM36.53,3.65l27.47,16.14H9.06L36.53,3.65ZM71.37,61.87H1.69c-.93,0-1.69.76-1.69,1.69s.76,1.69,1.69,1.69h69.68c.93,0,1.69-.76,1.69-1.69s-.75-1.69-1.69-1.69ZM12.73,26.74c-.93,0-1.69.76-1.69,1.69v25.76h-3.6c-.93,0-1.69.76-1.69,1.69s.76,1.69,1.69,1.69h58.19c.93,0,1.69-.76,1.69-1.69s-.75-1.69-1.69-1.69h-3.61v-25.76c0-.93-.76-1.69-1.69-1.69s-1.69.76-1.69,1.69v25.76h-12.49v-25.76c0-.93-.76-1.69-1.69-1.69s-1.69.76-1.69,1.69v25.76h-12.49v-25.76c0-.93-.75-1.69-1.69-1.69s-1.69.76-1.69,1.69v25.76h-12.49v-25.76c0-.93-.76-1.69-1.69-1.69Z"/>
    </g>
  </g>
</svg>