<?xml version="1.0" encoding="UTF-8"?>
<svg id="Layer_2" data-name="Layer 2" xmlns="http://www.w3.org/2000/svg" viewBox="0 0 22.11 27.35">
  <defs>
    <style>
      .cls-1 {
        fill-rule: evenodd;
      }
    </style>
  </defs>
  <g id="_1" data-name="1">
    <path class="cls-1" d="M1.16,6.32h19.78c.64,0,1.16.52,1.16,1.16v6.15c0,.64-.52,1.16-1.16,1.16h-4.61c0-1.16-.04-2.33-.04-3.44H5.72v3.44H1.16c-.65,0-1.16-.52-1.16-1.16v-6.15c0-.63.52-1.16,1.16-1.16h0ZM12.12.34v1.89h1.54l-2.62,3.54-2.61-3.54h1.54V.34c0-.19.16-.34.34-.34h1.47c.19,0,.34.14.34.34h0ZM16.09,27.35v-15.8H5.93v15.8h10.16ZM9.32,26.23c0-1.25-1.02-2.26-2.26-2.26v-9.02c1.24,0,2.26-1.02,2.26-2.26h3.39c0,1.24,1,2.26,2.26,2.26v9.02c-1.25,0-2.26,1.01-2.26,2.26h-3.39ZM11,22.27c-1.55,0-2.81-1.26-2.81-2.82s1.26-2.83,2.81-2.83,2.83,1.26,2.83,2.83-1.27,2.82-2.83,2.82h0ZM4.44,9.77h13.23v1.58H4.44v-1.58Z"/>
  </g>
</svg>