<?xml version="1.0" encoding="UTF-8"?>
<svg id="Layer_2" data-name="Layer 2" xmlns="http://www.w3.org/2000/svg" xmlns:xlink="http://www.w3.org/1999/xlink" viewBox="0 0 69.91 60.58">
  <defs>
    <style>
      .cls-1 {
        opacity: .14;
      }

      .cls-2 {
        fill: url(#linear-gradient-2);
      }

      .cls-3 {
        opacity: .21;
      }

      .cls-4 {
        opacity: .42;
      }

      .cls-5 {
        opacity: .55;
      }

      .cls-6 {
        opacity: .48;
      }

      .cls-7 {
        opacity: .35;
      }

      .cls-8 {
        opacity: .08;
      }

      .cls-9 {
        opacity: .28;
      }

      .cls-10 {
        opacity: 0;
      }

      .cls-11 {
        fill: url(#linear-gradient);
      }
    </style>
    <linearGradient id="linear-gradient" x1="3.84" y1=".1" x2="57.75" y2="54.01" gradientUnits="userSpaceOnUse">
      <stop offset="0" stop-color="#96490a"/>
      <stop offset="1" stop-color="#c78240"/>
    </linearGradient>
    <linearGradient id="linear-gradient-2" x1="4.41" y1=".94" x2="57.76" y2="54.29" gradientUnits="userSpaceOnUse">
      <stop offset="0" stop-color="#2c2e2c"/>
      <stop offset=".99" stop-color="#000"/>
    </linearGradient>
  </defs>
  <g id="Layer_1-2" data-name="Layer 1">
    <g>
      <path class="cls-11" d="M60.39,45.86c0,3.92-3.18,7.1-7.1,7.1H8.87c-3.92,0-7.1-3.18-7.1-7.1V8.83c0-3.92,3.18-7.1,7.1-7.1h44.42c3.92,0,7.1,3.18,7.1,7.1v13.63l2.58.41-.27,17.14-2.31.27v5.58Z"/>
      <g>
        <path class="cls-10" d="M44.52,36.65c0,.96.78,1.74,1.75,1.74s1.75-.78,1.75-1.74-.78-1.75-1.75-1.75-1.75.78-1.75,1.75ZM66.53,43.66h-20.28c-2.19,0-7.01-3.39-7.01-7.01s4.82-7.01,7.01-7.01h20.28v14.02ZM68.22,26.26h-.7v-11.79c0-5.03-4.09-9.12-9.12-9.12H14.47c-5.03,0-9.12,4.09-9.12,9.12,0,.93.76,1.69,1.69,1.69s1.69-.75,1.69-1.69c0-3.17,2.58-5.74,5.75-5.74h43.93c3.16,0,5.74,2.58,5.74,5.74v.28c-1.57-1.28-3.57-2.04-5.74-2.04H15.82c-.93,0-1.69.76-1.69,1.69s.76,1.69,1.69,1.69h42.58c3.16,0,5.74,2.58,5.74,5.74v4.44h-17.9c-4.01,0-10.39,4.75-10.39,10.39s6.38,10.39,10.39,10.39h17.9v4.41c0,3.17-2.58,5.74-5.74,5.74H14.47c-3.17,0-5.75-2.58-5.75-5.74v-26.04c0-.94-.75-1.69-1.69-1.69s-1.69.75-1.69,1.69v26.04c0,5.03,4.1,9.12,9.12,9.12h43.93c5.03,0,9.12-4.09,9.12-9.12v-4.41h.7c.93,0,1.69-.75,1.69-1.69v-17.4c0-.93-.76-1.69-1.69-1.69Z"/>
        <path class="cls-8" d="M43.9,36.03c0,.96.78,1.74,1.75,1.74s1.75-.78,1.75-1.74-.78-1.75-1.75-1.75-1.75.78-1.75,1.75ZM65.9,43.04h-20.28c-2.19,0-7.01-3.39-7.01-7.01s4.82-7.01,7.01-7.01h20.28v14.02ZM67.59,25.64h-.7v-11.79c0-5.03-4.09-9.12-9.12-9.12H13.85c-5.03,0-9.12,4.09-9.12,9.12,0,.93.76,1.69,1.69,1.69s1.69-.75,1.69-1.69c0-3.17,2.58-5.74,5.75-5.74h43.93c3.16,0,5.74,2.58,5.74,5.74v.28c-1.57-1.28-3.57-2.04-5.74-2.04H15.2c-.93,0-1.69.76-1.69,1.69s.76,1.69,1.69,1.69h42.58c3.16,0,5.74,2.58,5.74,5.74v4.44h-17.9c-4.01,0-10.39,4.75-10.39,10.39s6.38,10.39,10.39,10.39h17.9v4.41c0,3.17-2.58,5.74-5.74,5.74H13.85c-3.17,0-5.75-2.58-5.75-5.74v-26.04c0-.94-.75-1.69-1.69-1.69s-1.69.75-1.69,1.69v26.04c0,5.03,4.1,9.12,9.12,9.12h43.93c5.03,0,9.12-4.09,9.12-9.12v-4.41h.7c.93,0,1.69-.75,1.69-1.69v-17.4c0-.93-.76-1.69-1.69-1.69Z"/>
        <path class="cls-1" d="M43.27,35.4c0,.96.78,1.74,1.75,1.74s1.75-.78,1.75-1.74-.78-1.75-1.75-1.75-1.75.78-1.75,1.75ZM65.28,42.41h-20.28c-2.19,0-7.01-3.39-7.01-7.01s4.82-7.01,7.01-7.01h20.28v14.02ZM66.97,25.01h-.7v-11.79c0-5.03-4.09-9.12-9.12-9.12H13.22c-5.03,0-9.12,4.09-9.12,9.12,0,.93.76,1.69,1.69,1.69s1.69-.75,1.69-1.69c0-3.17,2.58-5.74,5.75-5.74h43.93c3.16,0,5.74,2.58,5.74,5.74v.28c-1.57-1.28-3.57-2.04-5.74-2.04H14.57c-.93,0-1.69.76-1.69,1.69s.76,1.69,1.69,1.69h42.58c3.16,0,5.74,2.58,5.74,5.74v4.44h-17.9c-4.01,0-10.39,4.75-10.39,10.39s6.38,10.39,10.39,10.39h17.9v4.41c0,3.17-2.58,5.74-5.74,5.74H13.22c-3.17,0-5.75-2.58-5.75-5.74v-26.04c0-.94-.75-1.69-1.69-1.69s-1.69.75-1.69,1.69v26.04c0,5.03,4.1,9.12,9.12,9.12h43.93c5.03,0,9.12-4.09,9.12-9.12v-4.41h.7c.93,0,1.69-.75,1.69-1.69v-17.4c0-.93-.76-1.69-1.69-1.69Z"/>
        <path class="cls-3" d="M42.65,34.78c0,.96.78,1.74,1.75,1.74s1.75-.78,1.75-1.74-.78-1.75-1.75-1.75-1.75.78-1.75,1.75ZM64.65,41.79h-20.28c-2.19,0-7.01-3.39-7.01-7.01s4.82-7.01,7.01-7.01h20.28v14.02ZM66.34,24.39h-.7v-11.79c0-5.03-4.09-9.12-9.12-9.12H12.6C7.57,3.47,3.47,7.57,3.47,12.6c0,.93.76,1.69,1.69,1.69s1.69-.75,1.69-1.69c0-3.17,2.58-5.74,5.75-5.74h43.93c3.16,0,5.74,2.58,5.74,5.74v.28c-1.57-1.28-3.57-2.04-5.74-2.04H13.95c-.93,0-1.69.76-1.69,1.69s.76,1.69,1.69,1.69h42.58c3.16,0,5.74,2.58,5.74,5.74v4.44h-17.9c-4.01,0-10.39,4.75-10.39,10.39s6.38,10.39,10.39,10.39h17.9v4.41c0,3.17-2.58,5.74-5.74,5.74H12.6c-3.17,0-5.75-2.58-5.75-5.74v-26.04c0-.94-.75-1.69-1.69-1.69s-1.69.75-1.69,1.69v26.04c0,5.03,4.1,9.12,9.12,9.12h43.93c5.03,0,9.12-4.09,9.12-9.12v-4.41h.7c.93,0,1.69-.75,1.69-1.69v-17.4c0-.93-.76-1.69-1.69-1.69Z"/>
        <path class="cls-9" d="M42.02,34.15c0,.96.78,1.74,1.75,1.74s1.75-.78,1.75-1.74-.78-1.75-1.75-1.75-1.75.78-1.75,1.75ZM64.03,41.16h-20.28c-2.19,0-7.01-3.39-7.01-7.01s4.82-7.01,7.01-7.01h20.28v14.02ZM65.72,23.76h-.7v-11.79c0-5.03-4.09-9.12-9.12-9.12H11.97C6.94,2.85,2.85,6.94,2.85,11.97c0,.93.76,1.69,1.69,1.69s1.69-.75,1.69-1.69c0-3.17,2.58-5.74,5.75-5.74h43.93c3.16,0,5.74,2.58,5.74,5.74v.28c-1.57-1.28-3.57-2.04-5.74-2.04H13.32c-.93,0-1.69.76-1.69,1.69s.76,1.69,1.69,1.69h42.58c3.16,0,5.74,2.58,5.74,5.74v4.44h-17.9c-4.01,0-10.39,4.75-10.39,10.39s6.38,10.39,10.39,10.39h17.9v4.41c0,3.17-2.58,5.74-5.74,5.74H11.97c-3.17,0-5.75-2.58-5.75-5.74v-26.04c0-.94-.75-1.69-1.69-1.69s-1.69.75-1.69,1.69v26.04c0,5.03,4.1,9.12,9.12,9.12h43.93c5.03,0,9.12-4.09,9.12-9.12v-4.41h.7c.93,0,1.69-.75,1.69-1.69v-17.4c0-.93-.76-1.69-1.69-1.69Z"/>
        <path class="cls-7" d="M41.4,33.53c0,.96.78,1.74,1.75,1.74s1.75-.78,1.75-1.74-.78-1.75-1.75-1.75-1.75.78-1.75,1.75ZM63.4,40.54h-20.28c-2.19,0-7.01-3.39-7.01-7.01s4.82-7.01,7.01-7.01h20.28v14.02ZM65.09,23.14h-.7v-11.79c0-5.03-4.09-9.12-9.12-9.12H11.35C6.32,2.22,2.22,6.32,2.22,11.35c0,.93.76,1.69,1.69,1.69s1.69-.75,1.69-1.69c0-3.17,2.58-5.74,5.75-5.74h43.93c3.16,0,5.74,2.58,5.74,5.74v.28c-1.57-1.28-3.57-2.04-5.74-2.04H12.7c-.93,0-1.69.76-1.69,1.69s.76,1.69,1.69,1.69h42.58c3.16,0,5.74,2.58,5.74,5.74v4.44h-17.9c-4.01,0-10.39,4.75-10.39,10.39s6.38,10.39,10.39,10.39h17.9v4.41c0,3.17-2.58,5.74-5.74,5.74H11.35c-3.17,0-5.75-2.58-5.75-5.74v-26.04c0-.94-.75-1.69-1.69-1.69s-1.69.75-1.69,1.69v26.04c0,5.03,4.1,9.12,9.12,9.12h43.93c5.03,0,9.12-4.09,9.12-9.12v-4.41h.7c.93,0,1.69-.75,1.69-1.69v-17.4c0-.93-.76-1.69-1.69-1.69Z"/>
        <path class="cls-4" d="M40.77,32.9c0,.96.78,1.74,1.75,1.74s1.75-.78,1.75-1.74-.78-1.75-1.75-1.75-1.75.78-1.75,1.75ZM62.78,39.91h-20.28c-2.19,0-7.01-3.39-7.01-7.01s4.82-7.01,7.01-7.01h20.28v14.02ZM64.47,22.51h-.7v-11.79c0-5.03-4.09-9.12-9.12-9.12H10.72C5.69,1.6,1.6,5.69,1.6,10.72c0,.93.76,1.69,1.69,1.69s1.69-.75,1.69-1.69c0-3.17,2.58-5.74,5.75-5.74h43.93c3.16,0,5.74,2.58,5.74,5.74v.28c-1.57-1.28-3.57-2.04-5.74-2.04H12.07c-.93,0-1.69.76-1.69,1.69s.76,1.69,1.69,1.69h42.58c3.16,0,5.74,2.58,5.74,5.74v4.44h-17.9c-4.01,0-10.39,4.75-10.39,10.39s6.38,10.39,10.39,10.39h17.9v4.41c0,3.17-2.58,5.74-5.74,5.74H10.72c-3.17,0-5.75-2.58-5.75-5.74v-26.04c0-.94-.75-1.69-1.69-1.69s-1.69.75-1.69,1.69v26.04c0,5.03,4.1,9.12,9.12,9.12h43.93c5.03,0,9.12-4.09,9.12-9.12v-4.41h.7c.93,0,1.69-.75,1.69-1.69v-17.4c0-.93-.76-1.69-1.69-1.69Z"/>
        <path class="cls-6" d="M40.15,32.28c0,.96.78,1.74,1.75,1.74s1.75-.78,1.75-1.74-.78-1.75-1.75-1.75-1.75.78-1.75,1.75ZM62.15,39.29h-20.28c-2.19,0-7.01-3.39-7.01-7.01s4.82-7.01,7.01-7.01h20.28v14.02ZM63.84,21.89h-.7v-11.79c0-5.03-4.09-9.12-9.12-9.12H10.1C5.07.97.97,5.07.97,10.1c0,.93.76,1.69,1.69,1.69s1.69-.75,1.69-1.69c0-3.17,2.58-5.74,5.75-5.74h43.93c3.16,0,5.74,2.58,5.74,5.74v.28c-1.57-1.28-3.57-2.04-5.74-2.04H11.45c-.93,0-1.69.76-1.69,1.69s.76,1.69,1.69,1.69h42.58c3.16,0,5.74,2.58,5.74,5.74v4.44h-17.9c-4.01,0-10.39,4.75-10.39,10.39s6.38,10.39,10.39,10.39h17.9v4.41c0,3.17-2.58,5.74-5.74,5.74H10.1c-3.17,0-5.75-2.58-5.75-5.74v-26.04c0-.94-.75-1.69-1.69-1.69s-1.69.75-1.69,1.69v26.04c0,5.03,4.1,9.12,9.12,9.12h43.93c5.03,0,9.12-4.09,9.12-9.12v-4.41h.7c.93,0,1.69-.75,1.69-1.69v-17.4c0-.93-.76-1.69-1.69-1.69Z"/>
        <path class="cls-5" d="M39.52,31.65c0,.96.78,1.74,1.75,1.74s1.75-.78,1.75-1.74-.78-1.75-1.75-1.75-1.75.78-1.75,1.75ZM61.53,38.66h-20.28c-2.19,0-7.01-3.39-7.01-7.01s4.82-7.01,7.01-7.01h20.28v14.02ZM63.22,21.26h-.7v-11.79c0-5.03-4.09-9.12-9.12-9.12H9.47C4.44.35.35,4.44.35,9.47c0,.93.76,1.69,1.69,1.69s1.69-.75,1.69-1.69c0-3.17,2.58-5.74,5.75-5.74h43.93c3.16,0,5.74,2.58,5.74,5.74v.28c-1.57-1.28-3.57-2.04-5.74-2.04H10.82c-.93,0-1.69.76-1.69,1.69s.76,1.69,1.69,1.69h42.58c3.16,0,5.74,2.58,5.74,5.74v4.44h-17.9c-4.01,0-10.39,4.75-10.39,10.39s6.38,10.39,10.39,10.39h17.9v4.41c0,3.17-2.58,5.74-5.74,5.74H9.47c-3.17,0-5.75-2.58-5.75-5.74v-26.04c0-.94-.75-1.69-1.69-1.69s-1.69.75-1.69,1.69v26.04c0,5.03,4.1,9.12,9.12,9.12h43.93c5.03,0,9.12-4.09,9.12-9.12v-4.41h.7c.93,0,1.69-.75,1.69-1.69v-17.4c0-.93-.76-1.69-1.69-1.69Z"/>
      </g>
      <path class="cls-2" d="M39.17,31.31c0,.96.78,1.74,1.75,1.74s1.75-.78,1.75-1.74-.78-1.75-1.75-1.75-1.75.78-1.75,1.75ZM62.87,20.91h-.7v-11.79c0-5.03-4.09-9.12-9.12-9.12H9.12C4.1,0,0,4.09,0,9.12c0,.93.76,1.69,1.69,1.69s1.69-.75,1.69-1.69c0-3.17,2.58-5.74,5.75-5.74h43.93c3.16,0,5.74,2.58,5.74,5.74v.28c-1.57-1.28-3.57-2.05-5.74-2.05H10.47c-.93,0-1.69.76-1.69,1.69s.76,1.69,1.69,1.69h42.58c3.16,0,5.74,2.58,5.74,5.74v4.44h-17.9c-4.01,0-10.39,4.75-10.39,10.39s6.38,10.39,10.39,10.39h17.9v4.41c0,3.17-2.58,5.74-5.74,5.74H9.12c-3.17,0-5.75-2.58-5.75-5.74v-26.04c0-.94-.75-1.69-1.69-1.69s-1.69.75-1.69,1.69v26.04c0,5.03,4.1,9.12,9.12,9.12h43.93c5.03,0,9.12-4.09,9.12-9.12v-4.41h.7c.93,0,1.69-.75,1.69-1.69v-17.4c0-.93-.76-1.69-1.69-1.69ZM61.18,38.31h-20.28c-2.19,0-7.01-3.39-7.01-7.01s4.82-7.01,7.01-7.01h20.28v14.02Z"/>
    </g>
  </g>
</svg>