<?xml version="1.0" encoding="UTF-8"?>
<svg id="Layer_2" data-name="Layer 2" xmlns="http://www.w3.org/2000/svg" viewBox="0 0 27.35 21.08">
  <defs>
    <style>
      .cls-1 {
        fill-rule: evenodd;
      }
    </style>
  </defs>
  <g id="_1" data-name="1">
    <path class="cls-1" d="M.33,0h27.03v21.08H0V0h.33ZM10.41,6.43h6.65v5.17h-6.78v-5.17h.14ZM2.78,6.78v.26h-.14v.04h-.28v-.3h.41ZM2.42,13.04v-.14h.4v.28h-.12v.02h-.28v-.16ZM2.42,13.48h.28v.28h-.28v-.28ZM2.42,14.02h.28v.28h-.28v-.28ZM2.42,14.56h.28v.28h-.28v-.28ZM2.42,15.11h.28v.26h-.28v-.26ZM2.42,15.65h.28v.27h-.28v-.27ZM2.42,16.19h.28v.28h-.28v-.28ZM2.42,16.74h.28v.26h-.28v-.26ZM2.42,17.28h.28v.26h-.28v-.26ZM2.75,17.75v-.26h.28v.26h-.28ZM3.3,17.75v-.26h.26v.26h-.26ZM3.84,17.75v-.26h.27v.26h-.27ZM4.38,17.75v-.26h.28v.26h-.28ZM4.92,17.75v-.26h.27v.26h-.27ZM5.47,17.75v-.26h.26v.26h-.26ZM6.01,17.75v-.26h.28v.26h-.28ZM6.55,17.75v-.26h.28v.26h-.28ZM7.1,17.75v-.26h.26v.26h-.26ZM7.64,17.75v-.26h.26v.26h-.26ZM8.24,17.53h-.28v-.26h.28v.26ZM8.24,16.99h-.28v-.28h.28v.28ZM8.24,16.45h-.28v-.28h.28v.28ZM8.24,15.9h-.28v-.26h.28v.26ZM8.24,15.36h-.28v-.27h.28v.27ZM8.24,14.82h-.28v-.28h.28v.28ZM8.24,14.28h-.28v-.27h.28v.27ZM8.24,13.73h-.28v-.27h.28v.27ZM8.24,13.19h-.28v-.15h.01v-.14h.27v.29ZM7.71,12.9v.28h-.28v-.28h.28ZM7.17,12.9v.28h-.28v-.28h.28ZM6.62,12.9v.28h-.26v-.28h.26ZM6.08,12.9v.28h-.28v-.28h.28ZM5.54,12.9v.28h-.28v-.28h.28ZM4.99,12.9v.28h-.27v-.28h.27ZM4.45,12.9v.28h-.26v-.28h.26ZM3.91,12.9v.28h-.28v-.28h.28ZM3.37,12.9v.28h-.27v-.28h.27ZM10.8,13.04v-.14h.4v.28h-.14v.02h-.26v-.16ZM10.8,13.48h.26v.28h-.26v-.28ZM10.8,14.02h.26v.28h-.26v-.28ZM10.8,14.56h.26v.28h-.26v-.28ZM10.8,15.11h.26v.26h-.26v-.26ZM10.8,15.65h.26v.27h-.26v-.27ZM10.8,16.19h.26v.28h-.26v-.28ZM10.8,16.74h.26v.26h-.26v-.26ZM10.8,17.28h.26v.26h-.26v-.26ZM11.13,17.75v-.26h.28v.26h-.28ZM11.66,17.75v-.26h.28v.26h-.28ZM12.22,17.75v-.26h.27v.26h-.27ZM12.76,17.75v-.26h.28v.26h-.28ZM13.3,17.75v-.26h.28v.26h-.28ZM13.83,17.75v-.26h.28v.26h-.28ZM14.39,17.75v-.26h.26v.26h-.26ZM14.93,17.75v-.26h.28v.26h-.28ZM15.46,17.75v-.26h.28v.26h-.28ZM16.02,17.75v-.26h.26v.26h-.26ZM16.61,17.53h-.28v-.26h.28v.26ZM16.61,16.99h-.28v-.28h.28v.28ZM16.61,16.45h-.28v-.28h.28v.28ZM16.61,15.9h-.28v-.26h.28v.26ZM16.61,15.36h-.28v-.27h.28v.27ZM16.61,14.82h-.28v-.28h.28v.28ZM16.61,14.28h-.28v-.27h.28v.27ZM16.61,13.73h-.28v-.27h.28v.27ZM16.61,13.19h-.28v-.15h.01v-.14h.26v.29ZM16.07,12.9v.28h-.26v-.28h.26ZM15.53,12.9v.28h-.26v-.28h.26ZM15,12.9v.28h-.28v-.28h.28ZM14.46,12.9v.28h-.27v-.28h.27ZM13.9,12.9v.28h-.26v-.28h.26ZM13.37,12.9v.28h-.28v-.28h.28ZM12.83,12.9v.28h-.28v-.28h.28ZM12.29,12.9v.28h-.28v-.28h.28ZM11.73,12.9v.28h-.26v-.28h.26ZM19.12,6.91v-.13h.4v.26h-.13v.04h-.27v-.18ZM19.12,7.35h.27v.27h-.27v-.27ZM19.12,7.9h.27v.26h-.27v-.26ZM19.12,8.43h.27v.26h-.27v-.26ZM19.12,8.98h.27v.28h-.27v-.28ZM19.12,9.51h.27v.28h-.27v-.28ZM19.12,10.06h.27v.26h-.27v-.26ZM19.12,10.61h.27v.28h-.27v-.28ZM19.12,11.14h.27v.28h-.27v-.28ZM19.45,11.63v-.28h.28v.28h-.28ZM19.99,11.63v-.28h.28v.28h-.28ZM20.54,11.63v-.28h.26v.28h-.26ZM21.08,11.63v-.28h.28v.28h-.28ZM21.62,11.63v-.28h.28v.28h-.28ZM22.16,11.63v-.28h.28v.28h-.28ZM22.71,11.63v-.28h.26v.28h-.26ZM23.25,11.63v-.28h.28v.28h-.28ZM23.79,11.63v-.28h.28v.28h-.28ZM24.34,11.63v-.28h.26v.28h-.26ZM24.93,11.41h-.27v-.28h.27v.28ZM24.93,10.85h-.27v-.27h.27v.27ZM24.93,10.32h-.27v-.28h.27v.28ZM24.93,9.78h-.27v-.28h.27v.28ZM24.93,9.24h-.27v-.28h.27v.28ZM24.93,8.68h-.27v-.26h.27v.26ZM24.93,8.15h-.27v-.28h.27v.28ZM24.93,7.61h-.27v-.28h.27v.28ZM24.93,7.05h-.27v-.14h.01v-.13h.26v.27ZM24.4,6.78v.26h-.27v-.26h.27ZM23.86,6.78v.26h-.26v-.26h.26ZM23.32,6.78v.26h-.28v-.26h.28ZM22.78,6.78v.26h-.28v-.26h.28ZM22.22,6.78v.26h-.26v-.26h.26ZM21.69,6.78v.26h-.28v-.26h.28ZM21.15,6.78v.26h-.27v-.26h.27ZM20.61,6.78v.26h-.28v-.26h.28ZM20.06,6.78v.26h-.26v-.26h.26ZM19.16,13.04v-.14h.41v.28h-.14v.02h-.28v-.16ZM19.16,13.48h.28v.28h-.28v-.28ZM19.16,14.02h.28v.28h-.28v-.28ZM19.16,14.56h.28v.28h-.28v-.28ZM19.16,15.11h.28v.26h-.28v-.26ZM19.16,15.65h.28v.27h-.28v-.27ZM19.16,16.19h.28v.28h-.28v-.28ZM19.16,16.74h.28v.26h-.28v-.26ZM19.16,17.28h.28v.26h-.28v-.26ZM19.5,17.75v-.26h.26v.26h-.26ZM20.04,17.75v-.26h.28v.26h-.28ZM20.58,17.75v-.26h.27v.26h-.27ZM21.13,17.75v-.26h.27v.26h-.27ZM21.67,17.75v-.26h.27v.26h-.27ZM22.21,17.75v-.26h.27v.26h-.27ZM22.75,17.75v-.26h.28v.26h-.28ZM23.3,17.75v-.26h.26v.26h-.26ZM23.85,17.75v-.26h.27v.26h-.27ZM24.38,17.75v-.26h.28v.26h-.28ZM24.98,17.53h-.26v-.26h.26v.26ZM24.98,16.99h-.26v-.28h.26v.28ZM24.98,16.45h-.26v-.28h.26v.28ZM24.98,15.9h-.26v-.26h.26v.26ZM24.98,15.36h-.26v-.27h.26v.27ZM24.98,14.82h-.26v-.28h.26v.28ZM24.98,14.28h-.26v-.27h.26v.27ZM24.98,13.73h-.26v-.27h.26v.27ZM24.98,13.19h-.26v-.15h.01v-.14h.25v.29ZM24.45,12.9v.28h-.26v-.28h.26ZM23.91,12.9v.28h-.28v-.28h.28ZM23.37,12.9v.28h-.28v-.28h.28ZM22.82,12.9v.28h-.27v-.28h.27ZM22.28,12.9v.28h-.27v-.28h.27ZM21.74,12.9v.28h-.27v-.28h.27ZM21.19,12.9v.28h-.26v-.28h.26ZM20.65,12.9v.28h-.26v-.28h.26ZM20.11,12.9v.28h-.27v-.28h.27ZM2.36,7.35h.28v.27h-.28v-.27ZM2.36,7.9h.28v.26h-.28v-.26ZM2.36,8.43h.28v.26h-.28v-.26ZM2.36,8.98h.28v.28h-.28v-.28ZM2.36,9.51h.28v.28h-.28v-.28ZM2.36,10.06h.28v.26h-.28v-.26ZM2.36,10.61h.28v.28h-.28v-.28ZM2.36,11.14h.28v.28h-.28v-.28ZM2.71,11.63v-.28h.26v.28h-.26ZM3.25,11.63v-.28h.28v.28h-.28ZM3.79,11.63v-.28h.27v.28h-.27ZM4.34,11.63v-.28h.26v.28h-.26ZM4.88,11.63v-.28h.26v.28h-.26ZM5.42,11.63v-.28h.28v.28h-.28ZM5.96,11.63v-.28h.28v.28h-.28ZM6.51,11.63v-.28h.26v.28h-.26ZM7.05,11.63v-.28h.27v.28h-.27ZM7.59,11.63v-.28h.28v.28h-.28ZM8.18,11.41h-.26v-.28h.26v.28ZM8.18,10.85h-.26v-.27h.26v.27ZM8.18,10.32h-.26v-.28h.26v.28ZM8.18,9.78h-.26v-.28h.26v.28ZM8.18,9.24h-.26v-.28h.26v.28ZM8.18,8.68h-.26v-.26h.26v.26ZM8.18,8.15h-.26v-.28h.26v.28ZM8.18,7.61h-.26v-.28h.26v.28ZM8.18,7.05h-.26v-.14h.01v-.13h.25v.27ZM7.66,6.78v.26h-.28v-.26h.28ZM7.12,6.78v.26h-.28v-.26h.28ZM6.58,6.78v.26h-.28v-.26h.28ZM6.03,6.78v.26h-.26v-.26h.26ZM5.49,6.78v.26h-.28v-.26h.28ZM4.95,6.78v.26h-.27v-.26h.27ZM4.39,6.78v.26h-.26v-.26h.26ZM3.86,6.78v.26h-.26v-.26h.26ZM3.32,6.78v.26h-.28v-.26h.28ZM7.41,1.45h-2.43v2.12h2.43V1.45ZM4.12,1.45H1.68v2.12h2.43V1.45ZM11.79,3.69h13.66V1.19h-13.66v2.51ZM26.66,4.59H.68v15.8h25.99V4.59Z"/>
  </g>
</svg>