<?xml version="1.0" encoding="UTF-8"?>
<svg id="Layer_2" data-name="Layer 2" xmlns="http://www.w3.org/2000/svg" xmlns:xlink="http://www.w3.org/1999/xlink" viewBox="0 0 83.73 83.73">
  <defs>
    <style>
      .cls-1 {
        opacity: .14;
      }

      .cls-2 {
        fill: url(#linear-gradient-2);
      }

      .cls-3 {
        opacity: .21;
      }

      .cls-4 {
        opacity: .42;
      }

      .cls-5 {
        opacity: .55;
      }

      .cls-6 {
        opacity: .48;
      }

      .cls-7 {
        opacity: .35;
      }

      .cls-8 {
        opacity: .08;
      }

      .cls-9 {
        opacity: .28;
      }

      .cls-10 {
        opacity: 0;
      }

      .cls-11 {
        fill: url(#linear-gradient);
      }
    </style>
    <linearGradient id="linear-gradient" x1="13" y1="13.1" x2="65.09" y2="65.19" gradientUnits="userSpaceOnUse">
      <stop offset="0" stop-color="#96490a"/>
      <stop offset="1" stop-color="#c78240"/>
    </linearGradient>
    <linearGradient id="linear-gradient-2" x1="13.14" y1="13.14" x2="65.19" y2="65.18" gradientUnits="userSpaceOnUse">
      <stop offset="0" stop-color="#2c2e2c"/>
      <stop offset=".99" stop-color="#000"/>
    </linearGradient>
  </defs>
  <g id="Layer_1-2" data-name="Layer 1">
    <g>
      <polygon class="cls-11" points="8.92 34.31 50.78 76.16 76.4 51.21 27.42 2.23 1.99 27.12 8.92 34.31"/>
      <g>
        <path class="cls-10" d="M64.32,62.57c0-.96-.78-1.74-1.74-1.74s-1.75.78-1.75,1.74.78,1.74,1.75,1.74,1.74-.78,1.74-1.74ZM83.23,55.56L33.58,5.9c-.66-.66-1.73-.66-2.39,0L5.9,31.18c-.66.66-.66,1.73,0,2.39.66.66,1.73.66,2.39,0l24.09-24.09,6.02,6.02-4.48,4.48c-.66.66-.66,1.73,0,2.39.33.33.76.49,1.19.49s.87-.16,1.19-.49l4.49-4.48,5.82,5.82-4.49,4.49c-.66.66-.66,1.73,0,2.39.33.33.76.49,1.19.49s.86-.16,1.19-.49l4.49-4.49,5.82,5.82-8.29,8.29c-.66.66-.66,1.73,0,2.39.33.33.76.5,1.2.5s.87-.17,1.2-.5l8.29-8.29,5.82,5.82-4.49,4.49c-.66.66-.66,1.73,0,2.39.33.33.76.5,1.2.5s.86-.17,1.19-.5l4.49-4.48,5.82,5.82-4.48,4.49c-.66.66-.66,1.73,0,2.39.33.33.76.5,1.2.5s.86-.16,1.19-.5l4.48-4.48,6.03,6.03-22.9,22.9L15.65,38.54c-.66-.66-1.73-.66-2.39,0-.66.66-.66,1.73,0,2.39l42.3,42.3c.32.32.75.49,1.19.49s.88-.18,1.2-.49l25.28-25.29c.66-.66.66-1.73,0-2.39Z"/>
        <path class="cls-8" d="M63.7,61.95c0-.96-.78-1.74-1.74-1.74s-1.75.78-1.75,1.74.78,1.74,1.75,1.74,1.74-.78,1.74-1.74ZM82.61,54.94L32.95,5.27c-.66-.66-1.73-.66-2.39,0L5.28,30.56c-.66.66-.66,1.73,0,2.39.66.66,1.73.66,2.39,0L31.76,8.86l6.02,6.02-4.48,4.48c-.66.66-.66,1.73,0,2.39.33.33.76.49,1.19.49s.87-.16,1.19-.49l4.49-4.48,5.82,5.82-4.49,4.49c-.66.66-.66,1.73,0,2.39.33.33.76.49,1.19.49s.86-.16,1.19-.49l4.49-4.49,5.82,5.82-8.29,8.29c-.66.66-.66,1.73,0,2.39.33.33.76.5,1.2.5s.87-.17,1.2-.5l8.29-8.29,5.82,5.82-4.49,4.49c-.66.66-.66,1.73,0,2.39.33.33.76.5,1.2.5s.86-.17,1.19-.5l4.49-4.48,5.82,5.82-4.48,4.49c-.66.66-.66,1.73,0,2.39.33.33.76.5,1.2.5s.86-.16,1.19-.5l4.48-4.48,6.03,6.03-22.9,22.9L15.03,37.92c-.66-.66-1.73-.66-2.39,0-.66.66-.66,1.73,0,2.39l42.3,42.3c.32.32.75.49,1.19.49s.88-.18,1.2-.49l25.28-25.29c.66-.66.66-1.73,0-2.39Z"/>
        <path class="cls-1" d="M63.07,61.32c0-.96-.78-1.74-1.74-1.74s-1.75.78-1.75,1.74.78,1.74,1.75,1.74,1.74-.78,1.74-1.74ZM81.98,54.31L32.33,4.65c-.66-.66-1.73-.66-2.39,0L4.65,29.93c-.66.66-.66,1.73,0,2.39.66.66,1.73.66,2.39,0L31.13,8.23l6.02,6.02-4.48,4.48c-.66.66-.66,1.73,0,2.39.33.33.76.49,1.19.49s.87-.16,1.19-.49l4.49-4.48,5.82,5.82-4.49,4.49c-.66.66-.66,1.73,0,2.39.33.33.76.49,1.19.49s.86-.16,1.19-.49l4.49-4.49,5.82,5.82-8.29,8.29c-.66.66-.66,1.73,0,2.39.33.33.76.5,1.2.5s.87-.17,1.2-.5l8.29-8.29,5.82,5.82-4.49,4.49c-.66.66-.66,1.73,0,2.39.33.33.76.5,1.2.5s.86-.17,1.19-.5l4.49-4.48,5.82,5.82-4.48,4.49c-.66.66-.66,1.73,0,2.39.33.33.76.5,1.2.5s.86-.16,1.19-.5l4.48-4.48,6.03,6.03-22.9,22.9L14.4,37.29c-.66-.66-1.73-.66-2.39,0-.66.66-.66,1.73,0,2.39l42.3,42.3c.32.32.75.49,1.19.49s.88-.18,1.2-.49l25.28-25.29c.66-.66.66-1.73,0-2.39Z"/>
        <path class="cls-3" d="M62.45,60.7c0-.96-.78-1.74-1.74-1.74s-1.75.78-1.75,1.74.78,1.74,1.75,1.74,1.74-.78,1.74-1.74ZM81.36,53.69L31.7,4.02c-.66-.66-1.73-.66-2.39,0L4.03,29.31c-.66.66-.66,1.73,0,2.39.66.66,1.73.66,2.39,0L30.51,7.61l6.02,6.02-4.48,4.48c-.66.66-.66,1.73,0,2.39.33.33.76.49,1.19.49s.87-.16,1.19-.49l4.49-4.48,5.82,5.82-4.49,4.49c-.66.66-.66,1.73,0,2.39.33.33.76.49,1.19.49s.86-.16,1.19-.49l4.49-4.49,5.82,5.82-8.29,8.29c-.66.66-.66,1.73,0,2.39.33.33.76.5,1.2.5s.87-.17,1.2-.5l8.29-8.29,5.82,5.82-4.49,4.49c-.66.66-.66,1.73,0,2.39.33.33.76.5,1.2.5s.86-.17,1.19-.5l4.49-4.48,5.82,5.82-4.48,4.49c-.66.66-.66,1.73,0,2.39.33.33.76.5,1.2.5s.86-.16,1.19-.5l4.48-4.48,6.03,6.03-22.9,22.9L13.78,36.67c-.66-.66-1.73-.66-2.39,0-.66.66-.66,1.73,0,2.39l42.3,42.3c.32.32.75.49,1.19.49s.88-.18,1.2-.49l25.28-25.29c.66-.66.66-1.73,0-2.39Z"/>
        <path class="cls-9" d="M61.82,60.07c0-.96-.78-1.74-1.74-1.74s-1.75.78-1.75,1.74.78,1.74,1.75,1.74,1.74-.78,1.74-1.74ZM80.73,53.06L31.08,3.4c-.66-.66-1.73-.66-2.39,0L3.4,28.68c-.66.66-.66,1.73,0,2.39.66.66,1.73.66,2.39,0L29.88,6.98l6.02,6.02-4.48,4.48c-.66.66-.66,1.73,0,2.39.33.33.76.49,1.19.49s.87-.16,1.19-.49l4.49-4.48,5.82,5.82-4.49,4.49c-.66.66-.66,1.73,0,2.39.33.33.76.49,1.19.49s.86-.16,1.19-.49l4.49-4.49,5.82,5.82-8.29,8.29c-.66.66-.66,1.73,0,2.39.33.33.76.5,1.2.5s.87-.17,1.2-.5l8.29-8.29,5.82,5.82-4.49,4.49c-.66.66-.66,1.73,0,2.39.33.33.76.5,1.2.5s.86-.17,1.19-.5l4.49-4.48,5.82,5.82-4.48,4.49c-.66.66-.66,1.73,0,2.39.33.33.76.5,1.2.5s.86-.16,1.19-.5l4.48-4.48,6.03,6.03-22.9,22.9L13.15,36.04c-.66-.66-1.73-.66-2.39,0-.66.66-.66,1.73,0,2.39l42.3,42.3c.32.32.75.49,1.19.49s.88-.18,1.2-.49l25.28-25.29c.66-.66.66-1.73,0-2.39Z"/>
        <path class="cls-7" d="M61.2,59.45c0-.96-.78-1.74-1.74-1.74s-1.75.78-1.75,1.74.78,1.74,1.75,1.74,1.74-.78,1.74-1.74ZM80.11,52.44L30.45,2.77c-.66-.66-1.73-.66-2.39,0L2.78,28.06c-.66.66-.66,1.73,0,2.39.66.66,1.73.66,2.39,0L29.26,6.36l6.02,6.02-4.48,4.48c-.66.66-.66,1.73,0,2.39.33.33.76.49,1.19.49s.87-.16,1.19-.49l4.49-4.48,5.82,5.82-4.49,4.49c-.66.66-.66,1.73,0,2.39.33.33.76.49,1.19.49s.86-.16,1.19-.49l4.49-4.49,5.82,5.82-8.29,8.29c-.66.66-.66,1.73,0,2.39.33.33.76.5,1.2.5s.87-.17,1.2-.5l8.29-8.29,5.82,5.82-4.49,4.49c-.66.66-.66,1.73,0,2.39.33.33.76.5,1.2.5s.86-.17,1.19-.5l4.49-4.48,5.82,5.82-4.48,4.49c-.66.66-.66,1.73,0,2.39.33.33.76.5,1.2.5s.86-.16,1.19-.5l4.48-4.48,6.03,6.03-22.9,22.9L12.53,35.42c-.66-.66-1.73-.66-2.39,0-.66.66-.66,1.73,0,2.39l42.3,42.3c.32.32.75.49,1.19.49s.88-.18,1.2-.49l25.28-25.29c.66-.66.66-1.73,0-2.39Z"/>
        <path class="cls-4" d="M60.57,58.82c0-.96-.78-1.74-1.74-1.74s-1.75.78-1.75,1.74.78,1.74,1.75,1.74,1.74-.78,1.74-1.74ZM79.48,51.81L29.83,2.15c-.66-.66-1.73-.66-2.39,0L2.15,27.43c-.66.66-.66,1.73,0,2.39.66.66,1.73.66,2.39,0L28.63,5.73l6.02,6.02-4.48,4.48c-.66.66-.66,1.73,0,2.39.33.33.76.49,1.19.49s.87-.16,1.19-.49l4.49-4.48,5.82,5.82-4.49,4.49c-.66.66-.66,1.73,0,2.39.33.33.76.49,1.19.49s.86-.16,1.19-.49l4.49-4.49,5.82,5.82-8.29,8.29c-.66.66-.66,1.73,0,2.39.33.33.76.5,1.2.5s.87-.17,1.2-.5l8.29-8.29,5.82,5.82-4.49,4.49c-.66.66-.66,1.73,0,2.39.33.33.76.5,1.2.5s.86-.17,1.19-.5l4.49-4.48,5.82,5.82-4.48,4.49c-.66.66-.66,1.73,0,2.39.33.33.76.5,1.2.5s.86-.16,1.19-.5l4.48-4.48,6.03,6.03-22.9,22.9L11.9,34.79c-.66-.66-1.73-.66-2.39,0-.66.66-.66,1.73,0,2.39l42.3,42.3c.32.32.75.49,1.19.49s.88-.18,1.2-.49l25.28-25.29c.66-.66.66-1.73,0-2.39Z"/>
        <path class="cls-6" d="M59.95,58.2c0-.96-.78-1.74-1.74-1.74s-1.75.78-1.75,1.74.78,1.74,1.75,1.74,1.74-.78,1.74-1.74ZM78.86,51.19L29.2,1.52c-.66-.66-1.73-.66-2.39,0L1.53,26.81c-.66.66-.66,1.73,0,2.39.66.66,1.73.66,2.39,0L28.01,5.11l6.02,6.02-4.48,4.48c-.66.66-.66,1.73,0,2.39.33.33.76.49,1.19.49s.87-.16,1.19-.49l4.49-4.48,5.82,5.82-4.49,4.49c-.66.66-.66,1.73,0,2.39.33.33.76.49,1.19.49s.86-.16,1.19-.49l4.49-4.49,5.82,5.82-8.29,8.29c-.66.66-.66,1.73,0,2.39.33.33.76.5,1.2.5s.87-.17,1.2-.5l8.29-8.29,5.82,5.82-4.49,4.49c-.66.66-.66,1.73,0,2.39.33.33.76.5,1.2.5s.86-.17,1.19-.5l4.49-4.48,5.82,5.82-4.48,4.49c-.66.66-.66,1.73,0,2.39.33.33.76.5,1.2.5s.86-.16,1.19-.5l4.48-4.48,6.03,6.03-22.9,22.9L11.28,34.17c-.66-.66-1.73-.66-2.39,0-.66.66-.66,1.73,0,2.39l42.3,42.3c.32.32.75.49,1.19.49s.88-.18,1.2-.49l25.28-25.29c.66-.66.66-1.73,0-2.39Z"/>
        <path class="cls-5" d="M59.32,57.57c0-.96-.78-1.74-1.74-1.74s-1.75.78-1.75,1.74.78,1.74,1.75,1.74,1.74-.78,1.74-1.74ZM78.23,50.56L28.58.9c-.66-.66-1.73-.66-2.39,0L.9,26.18c-.66.66-.66,1.73,0,2.39.66.66,1.73.66,2.39,0L27.38,4.48l6.02,6.02-4.48,4.48c-.66.66-.66,1.73,0,2.39.33.33.76.49,1.19.49s.87-.16,1.19-.49l4.49-4.48,5.82,5.82-4.49,4.49c-.66.66-.66,1.73,0,2.39.33.33.76.49,1.19.49s.86-.16,1.19-.49l4.49-4.49,5.82,5.82-8.29,8.29c-.66.66-.66,1.73,0,2.39.33.33.76.5,1.2.5s.87-.17,1.2-.5l8.29-8.29,5.82,5.82-4.49,4.49c-.66.66-.66,1.73,0,2.39.33.33.76.5,1.2.5s.86-.17,1.19-.5l4.49-4.48,5.82,5.82-4.48,4.49c-.66.66-.66,1.73,0,2.39.33.33.76.5,1.2.5s.86-.16,1.19-.5l4.48-4.48,6.03,6.03-22.9,22.9L10.65,33.54c-.66-.66-1.73-.66-2.39,0-.66.66-.66,1.73,0,2.39l42.3,42.3c.32.32.75.49,1.19.49s.88-.18,1.2-.49l25.28-25.29c.66-.66.66-1.73,0-2.39Z"/>
      </g>
      <path class="cls-2" d="M58.92,57.17c0-.96-.78-1.74-1.74-1.74s-1.75.78-1.75,1.74.78,1.74,1.75,1.74,1.74-.78,1.74-1.74ZM77.83,50.15L28.17.49c-.66-.66-1.73-.66-2.39,0L.5,25.78c-.66.66-.66,1.73,0,2.39.66.66,1.73.66,2.39,0L26.98,4.08l6.02,6.02-4.48,4.48c-.66.66-.66,1.73,0,2.39.33.33.76.49,1.19.49s.87-.16,1.19-.49l4.49-4.48,5.82,5.82-4.49,4.49c-.66.66-.66,1.73,0,2.39.33.33.76.49,1.19.49s.86-.16,1.19-.49l4.49-4.49,5.82,5.82-8.29,8.29c-.66.66-.66,1.73,0,2.39.33.33.76.5,1.2.5s.87-.17,1.2-.5l8.29-8.29,5.82,5.82-4.49,4.49c-.66.66-.66,1.73,0,2.39.33.33.76.5,1.2.5s.86-.17,1.19-.5l4.49-4.48,5.82,5.82-4.48,4.49c-.66.66-.66,1.73,0,2.39.33.33.76.5,1.2.5s.86-.16,1.19-.5l4.48-4.48,6.03,6.03-22.9,22.9L10.25,33.13c-.66-.66-1.73-.66-2.39,0-.66.66-.66,1.73,0,2.39l42.3,42.3c.32.32.75.49,1.19.49s.88-.18,1.2-.49l25.28-25.29c.66-.66.66-1.73,0-2.39Z"/>
    </g>
  </g>
</svg>