<?xml version="1.0" encoding="UTF-8"?>
<svg id="Layer_2" data-name="Layer 2" xmlns="http://www.w3.org/2000/svg" viewBox="0 0 17.94 27.03">
  <defs>
    <style>
      .cls-1 {
        fill-rule: evenodd;
      }
    </style>
  </defs>
  <g id="_1" data-name="1">
    <path class="cls-1" d="M1.15,17.79h6.76v9.24H2.77c-.89,0-1.61-.72-1.61-1.61v-7.63ZM4.63,2.3c.14.16.69.32,1.31.45.23.05.46.09.69.12h-2.77c-.39,0-.71.32-.71.71v1.65c0,.4.32.71.71.71h4.42v-2.91c.12.05.33.07.67.09.15,0,.28,0,.39,0h.16c.06,0,.12-.01.16-.02v2.83h4.41c.4,0,.71-.32.71-.71v-1.65c0-.39-.32-.71-.71-.71h-2.32c.11-.02.22-.03.33-.04.6-.1,1.13-.24,1.25-.38h0s.02-.07.02-.14c0-.28-.17-.73-.39-1.16-.22-.44-.48-.83-.69-.99-.05-.04-.09-.06-.11-.06-.2,0-.72.36-1.22.79-.5.4-.95.88-1.04,1.13-.01.04-.03.08-.04.12v.02c.08.11.13.25.18.43h0c.04.1.05.2.05.28.03,0,.05.02.07.03h-.19c.01-.07-.02-.16-.05-.26-.06-.19-.1-.33-.2-.43-.14-.14-.38-.21-.9-.18-.34.02-.57,0-.69.11-.08.06-.11.18-.09.37.02.18.02.3.05.4h-.21,0s.05-.03.07-.04c0-.06-.02-.12-.02-.19,0-.05,0-.1-.02-.16-.01-.21,0-.34.06-.42v-.02c-.13-.26-.64-.76-1.19-1.2C6.26.4,5.69.02,5.48,0c-.03,0-.06.02-.11.05-.16.15-.35.48-.51.84-.15.37-.27.77-.29,1.08,0,.16,0,.28.06.33h0ZM3.9,6.2h4.38v5.99h-3.34c-.57,0-1.05-.46-1.05-1.05v-4.94ZM9.66,6.2h4.38v5.04c0,.53-.43.95-.95.95h-3.43v-5.99ZM1.1,12.64h6.81v4.75H1.1c-.6,0-1.1-.5-1.1-1.1v-2.55c0-.61.5-1.1,1.1-1.1h0ZM10.04,12.64h6.8c.6,0,1.1.49,1.1,1.1v2.55c0,.61-.5,1.1-1.1,1.1h-6.8v-4.75ZM10.04,17.79h6.76v7.78c0,.81-.67,1.46-1.47,1.46h-5.28v-9.24Z"/>
  </g>
</svg>