<?xml version="1.0" encoding="UTF-8"?>
<svg id="Layer_2" data-name="Layer 2" xmlns="http://www.w3.org/2000/svg" viewBox="0 0 25.74 27.36">
  <defs>
    <style>
      .cls-1 {
        fill-rule: evenodd;
      }
    </style>
  </defs>
  <g id="_1" data-name="1">
    <path class="cls-1" d="M25.7.65c-.03-.35-.36-.65-.71-.65H.75C.39,0,.07.29.03.65c-.24,2.76.83,5.55,2.76,7.53.48.49,1.03.92,1.61,1.29.6.39,1.31.68,1.68,1.33.27.46.04.99-.46,1.14-.06.01-.11.03-.17.03-.4,0-.73-.42-.73-.79s-.3-.57-.6-.57c-.28,0-.58.19-.58.57,0,.82.52,1.55,1.28,1.85.2.08.4.11.62.11.55,0,1.1-.26,1.46-.71.37-.43.49-.95.43-1.46,1.1.82,2.38,1.39,3.77,1.65-.22,1.68-.83,4.49-2.61,5.42v.96h-.99v1.13h-1.47v7.23h13.65v-7.22h-1.45v-1.14h-1v-.96c-1.77-.93-2.39-3.74-2.6-5.42,1.38-.26,2.67-.84,3.76-1.65-.07.51.06,1.03.43,1.46.36.44.91.71,1.47.71.2,0,.41-.04.63-.11.75-.3,1.27-1.02,1.27-1.85,0-.38-.3-.57-.58-.57s-.59.19-.59.57-.34.79-.73.79c-.06,0-.12-.01-.17-.03-.49-.15-.74-.69-.46-1.14.36-.65,1.08-.94,1.67-1.33.59-.36,1.14-.79,1.61-1.29,1.92-1.98,3-4.77,2.76-7.53h0ZM1.18,1.35v-.17h2.72c-.2.74-.3,1.54-.3,2.33,0,1.83.53,3.54,1.44,4.98C2.64,7,1.17,4.17,1.18,1.35h0ZM20.7,8.49c.91-1.44,1.44-3.15,1.44-4.98,0-.79-.1-1.59-.3-2.33h2.72c0,.05.01.12.01.17,0,2.82-1.46,5.64-3.87,7.14h0ZM13.82,8.9h-1.22v-4.6c-.44.42-.96.73-1.58.92v-1.1c.33-.1.67-.3,1.04-.59.38-.3.62-.63.77-1.01h.99v6.39Z"/>
  </g>
</svg>