<?xml version="1.0" encoding="UTF-8"?>
<svg id="Layer_2" data-name="Layer 2" xmlns="http://www.w3.org/2000/svg" xmlns:xlink="http://www.w3.org/1999/xlink" viewBox="0 0 77.67 67.21">
  <defs>
    <style>
      .cls-1 {
        opacity: .14;
      }

      .cls-2 {
        fill: url(#linear-gradient-2);
      }

      .cls-3 {
        opacity: .21;
      }

      .cls-4 {
        opacity: .42;
      }

      .cls-5 {
        opacity: .55;
      }

      .cls-6 {
        opacity: .48;
      }

      .cls-7 {
        opacity: .35;
      }

      .cls-8 {
        opacity: .08;
      }

      .cls-9 {
        opacity: .28;
      }

      .cls-10 {
        opacity: 0;
      }

      .cls-11 {
        fill: url(#linear-gradient);
      }
    </style>
    <linearGradient id="linear-gradient" x1="13.09" y1="14.36" x2="58.62" y2="59.89" gradientUnits="userSpaceOnUse">
      <stop offset="0" stop-color="#4ba129"/>
      <stop offset="1" stop-color="#c7ff3c"/>
    </linearGradient>
    <linearGradient id="linear-gradient-2" x1="13.15" y1="8.42" x2="61.85" y2="57.12" gradientUnits="userSpaceOnUse">
      <stop offset="0" stop-color="#2c2e2c"/>
      <stop offset=".99" stop-color="#000"/>
    </linearGradient>
  </defs>
  <g id="Layer_1-2" data-name="Layer 1">
    <g>
      <path class="cls-11" d="M7.81,22.28h56.65s-3.38,28.55-3.83,30.9c-.44,2.35-1.91,6.77-8.39,6.77H19.29c-3.53,0-7.5-1.03-8.68-7.5-1.18-6.47-2.8-30.17-2.8-30.17Z"/>
      <g>
        <path class="cls-10" d="M57.54,52.95v-12.49c0-.93-.76-1.69-1.69-1.69s-1.69.76-1.69,1.69v12.49c0,.93.76,1.69,1.69,1.69s1.69-.75,1.69-1.69ZM44.62,40.46v12.49c0,.93.76,1.69,1.69,1.69s1.69-.75,1.69-1.69v-12.49c0-.93-.75-1.69-1.69-1.69s-1.69.76-1.69,1.69ZM75.98,25.99h-23.88c-.93,0-1.69.76-1.69,1.69s.76,1.69,1.69,1.69h15.41l-3.23,29.6c-.3,2.68-2.53,4.87-4.98,4.87H22.98c-2.45,0-4.69-2.18-4.98-4.86l-3.17-29.61h18.33c.93,0,1.69-.76,1.69-1.69s-.76-1.69-1.69-1.69H7.1c-.93,0-1.69.76-1.69,1.69s.76,1.69,1.69,1.69h4.33l3.21,29.97c.48,4.42,4.15,7.88,8.34,7.88h36.31c4.19,0,7.86-3.46,8.34-7.88l3.27-29.97h5.08c.93,0,1.69-.76,1.69-1.69s-.76-1.69-1.69-1.69ZM40.62,29.85c.43,0,.86-.17,1.19-.5l21.07-21.06c.66-.66.66-1.73,0-2.39-.66-.66-1.73-.66-2.39,0l-21.07,21.06c-.66.66-.66,1.73,0,2.39.33.33.76.5,1.2.5ZM36.77,54.64c.93,0,1.69-.75,1.69-1.69v-12.49c0-.93-.76-1.69-1.69-1.69s-1.69.76-1.69,1.69v12.49c0,.93.76,1.69,1.69,1.69ZM25.54,40.46v12.49c0,.93.75,1.69,1.69,1.69s1.69-.75,1.69-1.69v-12.49c0-.93-.75-1.69-1.69-1.69s-1.69.76-1.69,1.69Z"/>
        <path class="cls-8" d="M56.92,52.32v-12.49c0-.93-.76-1.69-1.69-1.69s-1.69.76-1.69,1.69v12.49c0,.93.76,1.69,1.69,1.69s1.69-.75,1.69-1.69ZM44,39.83v12.49c0,.93.76,1.69,1.69,1.69s1.69-.75,1.69-1.69v-12.49c0-.93-.75-1.69-1.69-1.69s-1.69.76-1.69,1.69ZM75.36,25.36h-23.88c-.93,0-1.69.76-1.69,1.69s.76,1.69,1.69,1.69h15.41l-3.23,29.6c-.3,2.68-2.53,4.87-4.98,4.87H22.35c-2.45,0-4.69-2.18-4.98-4.86l-3.17-29.61h18.33c.93,0,1.69-.76,1.69-1.69s-.76-1.69-1.69-1.69H6.47c-.93,0-1.69.76-1.69,1.69s.76,1.69,1.69,1.69h4.33l3.21,29.97c.48,4.42,4.15,7.88,8.34,7.88h36.31c4.19,0,7.86-3.46,8.34-7.88l3.27-29.97h5.08c.93,0,1.69-.76,1.69-1.69s-.76-1.69-1.69-1.69ZM40,29.22c.43,0,.86-.17,1.19-.5L62.26,7.67c.66-.66.66-1.73,0-2.39-.66-.66-1.73-.66-2.39,0l-21.07,21.06c-.66.66-.66,1.73,0,2.39.33.33.76.5,1.2.5ZM36.14,54.01c.93,0,1.69-.75,1.69-1.69v-12.49c0-.93-.76-1.69-1.69-1.69s-1.69.76-1.69,1.69v12.49c0,.93.76,1.69,1.69,1.69ZM24.91,39.83v12.49c0,.93.75,1.69,1.69,1.69s1.69-.75,1.69-1.69v-12.49c0-.93-.75-1.69-1.69-1.69s-1.69.76-1.69,1.69Z"/>
        <path class="cls-1" d="M56.29,51.7v-12.49c0-.93-.76-1.69-1.69-1.69s-1.69.76-1.69,1.69v12.49c0,.93.76,1.69,1.69,1.69s1.69-.75,1.69-1.69ZM43.37,39.21v12.49c0,.93.76,1.69,1.69,1.69s1.69-.75,1.69-1.69v-12.49c0-.93-.75-1.69-1.69-1.69s-1.69.76-1.69,1.69ZM74.73,24.74h-23.88c-.93,0-1.69.76-1.69,1.69s.76,1.69,1.69,1.69h15.41l-3.23,29.6c-.3,2.68-2.53,4.87-4.98,4.87H21.73c-2.45,0-4.69-2.18-4.98-4.86l-3.17-29.61h18.33c.93,0,1.69-.76,1.69-1.69s-.76-1.69-1.69-1.69H5.85c-.93,0-1.69.76-1.69,1.69s.76,1.69,1.69,1.69h4.33l3.21,29.97c.48,4.42,4.15,7.88,8.34,7.88h36.31c4.19,0,7.86-3.46,8.34-7.88l3.27-29.97h5.08c.93,0,1.69-.76,1.69-1.69s-.76-1.69-1.69-1.69ZM39.37,28.6c.43,0,.86-.17,1.19-.5L61.64,7.04c.66-.66.66-1.73,0-2.39-.66-.66-1.73-.66-2.39,0l-21.07,21.06c-.66.66-.66,1.73,0,2.39.33.33.76.5,1.2.5ZM35.52,53.39c.93,0,1.69-.75,1.69-1.69v-12.49c0-.93-.76-1.69-1.69-1.69s-1.69.76-1.69,1.69v12.49c0,.93.76,1.69,1.69,1.69ZM24.29,39.21v12.49c0,.93.75,1.69,1.69,1.69s1.69-.75,1.69-1.69v-12.49c0-.93-.75-1.69-1.69-1.69s-1.69.76-1.69,1.69Z"/>
        <path class="cls-3" d="M55.67,51.07v-12.49c0-.93-.76-1.69-1.69-1.69s-1.69.76-1.69,1.69v12.49c0,.93.76,1.69,1.69,1.69s1.69-.75,1.69-1.69ZM42.75,38.58v12.49c0,.93.76,1.69,1.69,1.69s1.69-.75,1.69-1.69v-12.49c0-.93-.75-1.69-1.69-1.69s-1.69.76-1.69,1.69ZM74.11,24.11h-23.88c-.93,0-1.69.76-1.69,1.69s.76,1.69,1.69,1.69h15.41l-3.23,29.6c-.3,2.68-2.53,4.87-4.98,4.87H21.1c-2.45,0-4.69-2.18-4.98-4.86l-3.17-29.61h18.33c.93,0,1.69-.76,1.69-1.69s-.76-1.69-1.69-1.69H5.22c-.93,0-1.69.76-1.69,1.69s.76,1.69,1.69,1.69h4.33l3.21,29.97c.48,4.42,4.15,7.88,8.34,7.88h36.31c4.19,0,7.86-3.46,8.34-7.88l3.27-29.97h5.08c.93,0,1.69-.76,1.69-1.69s-.76-1.69-1.69-1.69ZM38.75,27.97c.43,0,.86-.17,1.19-.5L61.01,6.42c.66-.66.66-1.73,0-2.39-.66-.66-1.73-.66-2.39,0l-21.07,21.06c-.66.66-.66,1.73,0,2.39.33.33.76.5,1.2.5ZM34.89,52.76c.93,0,1.69-.75,1.69-1.69v-12.49c0-.93-.76-1.69-1.69-1.69s-1.69.76-1.69,1.69v12.49c0,.93.76,1.69,1.69,1.69ZM23.66,38.58v12.49c0,.93.75,1.69,1.69,1.69s1.69-.75,1.69-1.69v-12.49c0-.93-.75-1.69-1.69-1.69s-1.69.76-1.69,1.69Z"/>
        <path class="cls-9" d="M55.04,50.45v-12.49c0-.93-.76-1.69-1.69-1.69s-1.69.76-1.69,1.69v12.49c0,.93.76,1.69,1.69,1.69s1.69-.75,1.69-1.69ZM42.12,37.96v12.49c0,.93.76,1.69,1.69,1.69s1.69-.75,1.69-1.69v-12.49c0-.93-.75-1.69-1.69-1.69s-1.69.76-1.69,1.69ZM73.48,23.49h-23.88c-.93,0-1.69.76-1.69,1.69s.76,1.69,1.69,1.69h15.41l-3.23,29.6c-.3,2.68-2.53,4.87-4.98,4.87H20.48c-2.45,0-4.69-2.18-4.98-4.86l-3.17-29.61h18.33c.93,0,1.69-.76,1.69-1.69s-.76-1.69-1.69-1.69H4.6c-.93,0-1.69.76-1.69,1.69s.76,1.69,1.69,1.69h4.33l3.21,29.97c.48,4.42,4.15,7.88,8.34,7.88h36.31c4.19,0,7.86-3.46,8.34-7.88l3.27-29.97h5.08c.93,0,1.69-.76,1.69-1.69s-.76-1.69-1.69-1.69ZM38.12,27.35c.43,0,.86-.17,1.19-.5L60.39,5.79c.66-.66.66-1.73,0-2.39-.66-.66-1.73-.66-2.39,0l-21.07,21.06c-.66.66-.66,1.73,0,2.39.33.33.76.5,1.2.5ZM34.27,52.14c.93,0,1.69-.75,1.69-1.69v-12.49c0-.93-.76-1.69-1.69-1.69s-1.69.76-1.69,1.69v12.49c0,.93.76,1.69,1.69,1.69ZM23.04,37.96v12.49c0,.93.75,1.69,1.69,1.69s1.69-.75,1.69-1.69v-12.49c0-.93-.75-1.69-1.69-1.69s-1.69.76-1.69,1.69Z"/>
        <path class="cls-7" d="M54.42,49.82v-12.49c0-.93-.76-1.69-1.69-1.69s-1.69.76-1.69,1.69v12.49c0,.93.76,1.69,1.69,1.69s1.69-.75,1.69-1.69ZM41.5,37.33v12.49c0,.93.76,1.69,1.69,1.69s1.69-.75,1.69-1.69v-12.49c0-.93-.75-1.69-1.69-1.69s-1.69.76-1.69,1.69ZM72.86,22.86h-23.88c-.93,0-1.69.76-1.69,1.69s.76,1.69,1.69,1.69h15.41l-3.23,29.6c-.3,2.68-2.53,4.87-4.98,4.87H19.85c-2.45,0-4.69-2.18-4.98-4.86l-3.17-29.61h18.33c.93,0,1.69-.76,1.69-1.69s-.76-1.69-1.69-1.69H3.97c-.93,0-1.69.76-1.69,1.69s.76,1.69,1.69,1.69h4.33l3.21,29.97c.48,4.42,4.15,7.88,8.34,7.88h36.31c4.19,0,7.86-3.46,8.34-7.88l3.27-29.97h5.08c.93,0,1.69-.76,1.69-1.69s-.76-1.69-1.69-1.69ZM37.5,26.72c.43,0,.86-.17,1.19-.5L59.76,5.17c.66-.66.66-1.73,0-2.39-.66-.66-1.73-.66-2.39,0l-21.07,21.06c-.66.66-.66,1.73,0,2.39.33.33.76.5,1.2.5ZM33.64,51.51c.93,0,1.69-.75,1.69-1.69v-12.49c0-.93-.76-1.69-1.69-1.69s-1.69.76-1.69,1.69v12.49c0,.93.76,1.69,1.69,1.69ZM22.41,37.33v12.49c0,.93.75,1.69,1.69,1.69s1.69-.75,1.69-1.69v-12.49c0-.93-.75-1.69-1.69-1.69s-1.69.76-1.69,1.69Z"/>
        <path class="cls-4" d="M53.79,49.2v-12.49c0-.93-.76-1.69-1.69-1.69s-1.69.76-1.69,1.69v12.49c0,.93.76,1.69,1.69,1.69s1.69-.75,1.69-1.69ZM40.87,36.71v12.49c0,.93.76,1.69,1.69,1.69s1.69-.75,1.69-1.69v-12.49c0-.93-.75-1.69-1.69-1.69s-1.69.76-1.69,1.69ZM72.23,22.24h-23.88c-.93,0-1.69.76-1.69,1.69s.76,1.69,1.69,1.69h15.41l-3.23,29.6c-.3,2.68-2.53,4.87-4.98,4.87H19.23c-2.45,0-4.69-2.18-4.98-4.86l-3.17-29.61h18.33c.93,0,1.69-.76,1.69-1.69s-.76-1.69-1.69-1.69H3.35c-.93,0-1.69.76-1.69,1.69s.76,1.69,1.69,1.69h4.33l3.21,29.97c.48,4.42,4.15,7.88,8.34,7.88h36.31c4.19,0,7.86-3.46,8.34-7.88l3.27-29.97h5.08c.93,0,1.69-.76,1.69-1.69s-.76-1.69-1.69-1.69ZM36.87,26.1c.43,0,.86-.17,1.19-.5L59.14,4.54c.66-.66.66-1.73,0-2.39-.66-.66-1.73-.66-2.39,0l-21.07,21.06c-.66.66-.66,1.73,0,2.39.33.33.76.5,1.2.5ZM33.02,50.89c.93,0,1.69-.75,1.69-1.69v-12.49c0-.93-.76-1.69-1.69-1.69s-1.69.76-1.69,1.69v12.49c0,.93.76,1.69,1.69,1.69ZM21.79,36.71v12.49c0,.93.75,1.69,1.69,1.69s1.69-.75,1.69-1.69v-12.49c0-.93-.75-1.69-1.69-1.69s-1.69.76-1.69,1.69Z"/>
        <path class="cls-6" d="M53.17,48.57v-12.49c0-.93-.76-1.69-1.69-1.69s-1.69.76-1.69,1.69v12.49c0,.93.76,1.69,1.69,1.69s1.69-.75,1.69-1.69ZM40.25,36.08v12.49c0,.93.76,1.69,1.69,1.69s1.69-.75,1.69-1.69v-12.49c0-.93-.75-1.69-1.69-1.69s-1.69.76-1.69,1.69ZM71.61,21.61h-23.88c-.93,0-1.69.76-1.69,1.69s.76,1.69,1.69,1.69h15.41l-3.23,29.6c-.3,2.68-2.53,4.87-4.98,4.87H18.6c-2.45,0-4.69-2.18-4.98-4.86l-3.17-29.61h18.33c.93,0,1.69-.76,1.69-1.69s-.76-1.69-1.69-1.69H2.72c-.93,0-1.69.76-1.69,1.69s.76,1.69,1.69,1.69h4.33l3.21,29.97c.48,4.42,4.15,7.88,8.34,7.88h36.31c4.19,0,7.86-3.46,8.34-7.88l3.27-29.97h5.08c.93,0,1.69-.76,1.69-1.69s-.76-1.69-1.69-1.69ZM36.25,25.47c.43,0,.86-.17,1.19-.5L58.51,3.91c.66-.66.66-1.73,0-2.39-.66-.66-1.73-.66-2.39,0l-21.07,21.06c-.66.66-.66,1.73,0,2.39.33.33.76.5,1.2.5ZM32.39,50.26c.93,0,1.69-.75,1.69-1.69v-12.49c0-.93-.76-1.69-1.69-1.69s-1.69.76-1.69,1.69v12.49c0,.93.76,1.69,1.69,1.69ZM21.16,36.08v12.49c0,.93.75,1.69,1.69,1.69s1.69-.75,1.69-1.69v-12.49c0-.93-.75-1.69-1.69-1.69s-1.69.76-1.69,1.69Z"/>
        <path class="cls-5" d="M52.54,47.95v-12.49c0-.93-.76-1.69-1.69-1.69s-1.69.76-1.69,1.69v12.49c0,.93.76,1.69,1.69,1.69s1.69-.75,1.69-1.69ZM39.62,35.46v12.49c0,.93.76,1.69,1.69,1.69s1.69-.75,1.69-1.69v-12.49c0-.93-.75-1.69-1.69-1.69s-1.69.76-1.69,1.69ZM70.98,20.99h-23.88c-.93,0-1.69.76-1.69,1.69s.76,1.69,1.69,1.69h15.41l-3.23,29.6c-.3,2.68-2.53,4.87-4.98,4.87H17.98c-2.45,0-4.69-2.18-4.98-4.86l-3.17-29.61h18.33c.93,0,1.69-.76,1.69-1.69s-.76-1.69-1.69-1.69H2.1c-.93,0-1.69.76-1.69,1.69s.76,1.69,1.69,1.69h4.33l3.21,29.97c.48,4.42,4.15,7.88,8.34,7.88h36.31c4.19,0,7.86-3.46,8.34-7.88l3.27-29.97h5.08c.93,0,1.69-.76,1.69-1.69s-.76-1.69-1.69-1.69ZM35.62,24.85c.43,0,.86-.17,1.19-.5L57.89,3.29c.66-.66.66-1.73,0-2.39-.66-.66-1.73-.66-2.39,0l-21.07,21.06c-.66.66-.66,1.73,0,2.39.33.33.76.5,1.2.5ZM31.77,49.64c.93,0,1.69-.75,1.69-1.69v-12.49c0-.93-.76-1.69-1.69-1.69s-1.69.76-1.69,1.69v12.49c0,.93.76,1.69,1.69,1.69ZM20.54,35.46v12.49c0,.93.75,1.69,1.69,1.69s1.69-.75,1.69-1.69v-12.49c0-.93-.75-1.69-1.69-1.69s-1.69.76-1.69,1.69Z"/>
      </g>
      <path class="cls-2" d="M70.58,20.58h-23.88c-.93,0-1.69.76-1.69,1.69s.76,1.69,1.69,1.69h15.41l-3.23,29.6c-.3,2.68-2.53,4.87-4.98,4.87H17.57c-2.45,0-4.69-2.18-4.98-4.86l-3.17-29.61h18.33c.93,0,1.69-.76,1.69-1.69s-.76-1.69-1.69-1.69H1.69c-.93,0-1.69.76-1.69,1.69s.76,1.69,1.69,1.69h4.33l3.21,29.97c.48,4.42,4.15,7.88,8.34,7.88h36.31c4.19,0,7.86-3.46,8.34-7.88l3.27-29.97h5.08c.93,0,1.69-.76,1.69-1.69s-.76-1.69-1.69-1.69ZM35.21,24.44c.43,0,.86-.17,1.19-.5L57.48,2.88c.66-.66.66-1.73,0-2.39-.66-.66-1.73-.66-2.39,0l-21.07,21.06c-.66.66-.66,1.73,0,2.39.33.33.76.5,1.2.5ZM31.36,49.23c.93,0,1.69-.75,1.69-1.69v-12.49c0-.93-.76-1.69-1.69-1.69s-1.69.76-1.69,1.69v12.49c0,.93.76,1.69,1.69,1.69ZM39.21,35.05v12.49c0,.93.76,1.69,1.69,1.69s1.69-.75,1.69-1.69v-12.49c0-.93-.75-1.69-1.69-1.69s-1.69.76-1.69,1.69ZM20.13,35.05v12.49c0,.93.75,1.69,1.69,1.69s1.69-.75,1.69-1.69v-12.49c0-.93-.75-1.69-1.69-1.69s-1.69.76-1.69,1.69ZM52.14,47.54v-12.49c0-.93-.76-1.69-1.69-1.69s-1.69.76-1.69,1.69v12.49c0,.93.76,1.69,1.69,1.69s1.69-.75,1.69-1.69Z"/>
    </g>
  </g>
</svg>