<?xml version="1.0" encoding="UTF-8"?>
<svg id="Layer_2" data-name="Layer 2" xmlns="http://www.w3.org/2000/svg" viewBox="0 0 27.36 18.69">
  <defs>
    <style>
      .cls-1 {
        fill-rule: evenodd;
      }
    </style>
  </defs>
  <g id="_1" data-name="1">
    <path class="cls-1" d="M24.11,5.69h-.63c-.58,0-1.17.07-1.73.28-.58-1.45-1.95-2.3-3.32-2.81-.22-.07-.51-.14-.72-.21-.51-1.73-1.95-2.95-3.68-2.95-.79,0-1.5.22-2.09.71-1.08.72-1.73,2.02-1.73,3.46-.65-.43-1.37-.72-2.16-.72-1.52,0-2.87,1.07-3.45,2.52h-.72c-2.17,0-3.88,1.37-3.88,3.03,0,1.08.72,2.01,1.8,2.59.57.28,1.29.5,2.09.5.21,0,.5-.08.72-.08.43.86,1.08,1.59,1.8,1.96.17.08.33.16.5.22.06-.68.46-1.3,1.11-1.61-.88-.45-1.27-1.53-.87-2.46l.21-.48c.41-.93,1.48-1.37,2.42-1.03-.32-.95.18-1.99,1.12-2.36l.49-.19c.94-.36,2.01.08,2.41.99.46-.9,1.55-1.28,2.48-.88l.49.22c.92.4,1.37,1.46,1.02,2.41.94-.3,1.99.18,2.35,1.12l.19.5c.38.94-.06,2-.98,2.43.34.17.58.41.76.7.88-.37,1.63-1.08,2.07-1.96.21.07.5.14.8.14.14,0,.36.07.51.07,1.64,0,3.08-.85,3.59-2.01.22-.36.29-.72.29-1.08,0-1.5-1.37-2.73-3.25-3.01h0ZM18.91,13.54l-.84-.37c0-.24,0-.47,0-.7l.86-.34c.57-.22.86-.86.63-1.42l-.19-.48c-.23-.57-.86-.86-1.43-.64l-.87.35c-.14-.18-.3-.35-.47-.49l.37-.86c.24-.55-.02-1.21-.56-1.45l-.49-.21c-.55-.25-1.2,0-1.45.57l-.37.84c-.22-.03-.46-.03-.69-.02l-.33-.87c-.22-.57-.86-.84-1.43-.62l-.49.19c-.57.22-.85.86-.62,1.43l.33.87c-.17.13-.35.29-.5.47l-.84-.38c-.55-.24-1.2,0-1.45.56l-.21.5c-.25.55,0,1.2.55,1.43l.86.39c-.03.22-.03.46-.01.68l-.87.34c-.57.22-.84.86-.62,1.42l.19.49c.21.57.84.85,1.41.63l.87-.34c.15.18.31.34.48.5l-.37.86c-.25.55,0,1.2.55,1.45l.49.21c.56.24,1.2,0,1.44-.57l.38-.84c.23.02.47.02.69,0l.33.87c.22.55.86.85,1.43.62l.49-.2c.57-.22.84-.85.62-1.42l-.33-.87c.18-.14.34-.29.5-.47l.86.37c.55.25,1.2,0,1.44-.57l.22-.48c.25-.56-.01-1.2-.57-1.44h0ZM14.13,11.69c-.57-.25-1.23,0-1.48.58-.25.56.02,1.23.57,1.47.57.25,1.23-.01,1.48-.57.25-.57,0-1.24-.57-1.48h0ZM16.29,13.88h0c-.64,1.43-2.32,2.09-3.76,1.45-1.44-.64-2.09-2.31-1.46-3.75.62-1.45,2.31-2.1,3.75-1.46,1.44.63,2.1,2.31,1.47,3.76h0Z"/>
  </g>
</svg>