<?xml version="1.0" encoding="UTF-8"?>
<svg id="Layer_2" data-name="Layer 2" xmlns="http://www.w3.org/2000/svg" xmlns:xlink="http://www.w3.org/1999/xlink" viewBox="0 0 83.13 83.13">
  <defs>
    <style>
      .cls-1 {
        opacity: .14;
      }

      .cls-2 {
        fill: url(#linear-gradient-2);
      }

      .cls-3 {
        opacity: .21;
      }

      .cls-4 {
        opacity: .42;
      }

      .cls-5 {
        opacity: .55;
      }

      .cls-6 {
        opacity: .48;
      }

      .cls-7 {
        opacity: .35;
      }

      .cls-8 {
        opacity: .08;
      }

      .cls-9 {
        opacity: .28;
      }

      .cls-10 {
        opacity: 0;
      }

      .cls-11 {
        fill: url(#linear-gradient);
      }
    </style>
    <linearGradient id="linear-gradient" x1="20.87" y1="20.51" x2="56.87" y2="56.51" gradientUnits="userSpaceOnUse">
      <stop offset="0" stop-color="#f2a300"/>
      <stop offset="1" stop-color="#ffff36"/>
    </linearGradient>
    <linearGradient id="linear-gradient-2" x1="11.38" y1="11.38" x2="66.34" y2="66.34" gradientUnits="userSpaceOnUse">
      <stop offset="0" stop-color="#2c2e2c"/>
      <stop offset=".99" stop-color="#000"/>
    </linearGradient>
  </defs>
  <g id="Layer_1-2" data-name="Layer 1">
    <g>
      <circle class="cls-11" cx="38.93" cy="38.57" r="24.07"/>
      <g>
        <path class="cls-10" d="M81.44,42.58h-7.17c-.93,0-1.69.76-1.69,1.69s.76,1.69,1.69,1.69h7.17c.93,0,1.69-.76,1.69-1.69s-.76-1.69-1.69-1.69ZM69.36,16.79l-5.07,5.07c-.66.66-.66,1.73,0,2.39.33.33.76.49,1.19.49s.87-.16,1.19-.49l5.07-5.07c.66-.66.66-1.73,0-2.39-.66-.66-1.73-.66-2.39,0ZM66.68,64.29c-.66-.66-1.73-.66-2.39,0-.66.66-.66,1.73,0,2.39l5.07,5.07c.33.33.76.49,1.19.49s.87-.17,1.2-.49c.66-.66.66-1.73,0-2.39l-5.07-5.07ZM44.1,18.6c-9.08,0-17.55,4.88-22.11,12.75-.83,1.42-1.52,2.94-2.05,4.51-.3.88.17,1.84,1.05,2.14.89.3,1.84-.17,2.15-1.05.47-1.36,1.07-2.68,1.78-3.91,3.96-6.83,11.31-11.07,19.19-11.07,12.22,0,22.16,9.94,22.16,22.16s-9.94,22.16-22.16,22.16-22.16-9.94-22.16-22.16c0-.93-.76-1.69-1.69-1.69s-1.69.76-1.69,1.69c0,14.08,11.46,25.54,25.53,25.54s25.54-11.46,25.54-25.54-11.45-25.54-25.54-25.54ZM14.27,42.58h-7.17c-.93,0-1.69.76-1.69,1.69s.76,1.69,1.69,1.69h7.17c.93,0,1.69-.76,1.69-1.69s-.76-1.69-1.69-1.69ZM44.27,72.59c-.93,0-1.69.76-1.69,1.69v7.17c0,.93.76,1.69,1.69,1.69s1.69-.76,1.69-1.69v-7.17c0-.93-.76-1.69-1.69-1.69ZM44.27,15.95c.93,0,1.69-.76,1.69-1.69v-7.17c0-.93-.76-1.69-1.69-1.69s-1.69.76-1.69,1.69v7.17c0,.93.76,1.69,1.69,1.69ZM21.86,24.25c.33.33.76.49,1.2.49s.86-.16,1.19-.49c.66-.66.66-1.73,0-2.39l-5.07-5.07c-.66-.66-1.73-.66-2.39,0-.66.66-.66,1.73,0,2.39l5.07,5.07ZM21.86,64.29l-5.07,5.07c-.66.66-.66,1.73,0,2.39.33.33.76.49,1.2.49s.86-.17,1.19-.49l5.07-5.07c.66-.66.66-1.73,0-2.39-.66-.66-1.73-.66-2.39,0Z"/>
        <path class="cls-8" d="M80.81,41.95h-7.17c-.93,0-1.69.76-1.69,1.69s.76,1.69,1.69,1.69h7.17c.93,0,1.69-.76,1.69-1.69s-.76-1.69-1.69-1.69ZM68.73,16.16l-5.07,5.07c-.66.66-.66,1.73,0,2.39.33.33.76.49,1.19.49s.87-.16,1.19-.49l5.07-5.07c.66-.66.66-1.73,0-2.39-.66-.66-1.73-.66-2.39,0ZM66.05,63.66c-.66-.66-1.73-.66-2.39,0-.66.66-.66,1.73,0,2.39l5.07,5.07c.33.33.76.49,1.19.49s.87-.17,1.2-.49c.66-.66.66-1.73,0-2.39l-5.07-5.07ZM43.48,17.98c-9.08,0-17.55,4.88-22.11,12.75-.83,1.42-1.52,2.94-2.05,4.51-.3.88.17,1.84,1.05,2.14.89.3,1.84-.17,2.15-1.05.47-1.36,1.07-2.68,1.78-3.91,3.96-6.83,11.31-11.07,19.19-11.07,12.22,0,22.16,9.94,22.16,22.16s-9.94,22.16-22.16,22.16-22.16-9.94-22.16-22.16c0-.93-.76-1.69-1.69-1.69s-1.69.76-1.69,1.69c0,14.08,11.46,25.54,25.53,25.54s25.54-11.46,25.54-25.54-11.45-25.54-25.54-25.54ZM13.64,41.95h-7.17c-.93,0-1.69.76-1.69,1.69s.76,1.69,1.69,1.69h7.17c.93,0,1.69-.76,1.69-1.69s-.76-1.69-1.69-1.69ZM43.64,71.96c-.93,0-1.69.76-1.69,1.69v7.17c0,.93.76,1.69,1.69,1.69s1.69-.76,1.69-1.69v-7.17c0-.93-.76-1.69-1.69-1.69ZM43.64,15.33c.93,0,1.69-.76,1.69-1.69v-7.17c0-.93-.76-1.69-1.69-1.69s-1.69.76-1.69,1.69v7.17c0,.93.76,1.69,1.69,1.69ZM21.23,23.62c.33.33.76.49,1.2.49s.86-.16,1.19-.49c.66-.66.66-1.73,0-2.39l-5.07-5.07c-.66-.66-1.73-.66-2.39,0-.66.66-.66,1.73,0,2.39l5.07,5.07ZM21.23,63.66l-5.07,5.07c-.66.66-.66,1.73,0,2.39.33.33.76.49,1.2.49s.86-.17,1.19-.49l5.07-5.07c.66-.66.66-1.73,0-2.39-.66-.66-1.73-.66-2.39,0Z"/>
        <path class="cls-1" d="M80.19,41.33h-7.17c-.93,0-1.69.76-1.69,1.69s.76,1.69,1.69,1.69h7.17c.93,0,1.69-.76,1.69-1.69s-.76-1.69-1.69-1.69ZM68.11,15.54l-5.07,5.07c-.66.66-.66,1.73,0,2.39.33.33.76.49,1.19.49s.87-.16,1.19-.49l5.07-5.07c.66-.66.66-1.73,0-2.39-.66-.66-1.73-.66-2.39,0ZM65.43,63.04c-.66-.66-1.73-.66-2.39,0-.66.66-.66,1.73,0,2.39l5.07,5.07c.33.33.76.49,1.19.49s.87-.17,1.2-.49c.66-.66.66-1.73,0-2.39l-5.07-5.07ZM42.85,17.35c-9.08,0-17.55,4.88-22.11,12.75-.83,1.42-1.52,2.94-2.05,4.51-.3.88.17,1.84,1.05,2.14.89.3,1.84-.17,2.15-1.05.47-1.36,1.07-2.68,1.78-3.91,3.96-6.83,11.31-11.07,19.19-11.07,12.22,0,22.16,9.94,22.16,22.16s-9.94,22.16-22.16,22.16-22.16-9.94-22.16-22.16c0-.93-.76-1.69-1.69-1.69s-1.69.76-1.69,1.69c0,14.08,11.46,25.54,25.53,25.54s25.54-11.46,25.54-25.54-11.45-25.54-25.54-25.54ZM13.02,41.33h-7.17c-.93,0-1.69.76-1.69,1.69s.76,1.69,1.69,1.69h7.17c.93,0,1.69-.76,1.69-1.69s-.76-1.69-1.69-1.69ZM43.02,71.34c-.93,0-1.69.76-1.69,1.69v7.17c0,.93.76,1.69,1.69,1.69s1.69-.76,1.69-1.69v-7.17c0-.93-.76-1.69-1.69-1.69ZM43.02,14.7c.93,0,1.69-.76,1.69-1.69v-7.17c0-.93-.76-1.69-1.69-1.69s-1.69.76-1.69,1.69v7.17c0,.93.76,1.69,1.69,1.69ZM20.61,23c.33.33.76.49,1.2.49s.86-.16,1.19-.49c.66-.66.66-1.73,0-2.39l-5.07-5.07c-.66-.66-1.73-.66-2.39,0-.66.66-.66,1.73,0,2.39l5.07,5.07ZM20.61,63.04l-5.07,5.07c-.66.66-.66,1.73,0,2.39.33.33.76.49,1.2.49s.86-.17,1.19-.49l5.07-5.07c.66-.66.66-1.73,0-2.39-.66-.66-1.73-.66-2.39,0Z"/>
        <path class="cls-3" d="M79.56,40.7h-7.17c-.93,0-1.69.76-1.69,1.69s.76,1.69,1.69,1.69h7.17c.93,0,1.69-.76,1.69-1.69s-.76-1.69-1.69-1.69ZM67.48,14.91l-5.07,5.07c-.66.66-.66,1.73,0,2.39.33.33.76.49,1.19.49s.87-.16,1.19-.49l5.07-5.07c.66-.66.66-1.73,0-2.39-.66-.66-1.73-.66-2.39,0ZM64.8,62.41c-.66-.66-1.73-.66-2.39,0-.66.66-.66,1.73,0,2.39l5.07,5.07c.33.33.76.49,1.19.49s.87-.17,1.2-.49c.66-.66.66-1.73,0-2.39l-5.07-5.07ZM42.23,16.73c-9.08,0-17.55,4.88-22.11,12.75-.83,1.42-1.52,2.94-2.05,4.51-.3.88.17,1.84,1.05,2.14.89.3,1.84-.17,2.15-1.05.47-1.36,1.07-2.68,1.78-3.91,3.96-6.83,11.31-11.07,19.19-11.07,12.22,0,22.16,9.94,22.16,22.16s-9.94,22.16-22.16,22.16-22.16-9.94-22.16-22.16c0-.93-.76-1.69-1.69-1.69s-1.69.76-1.69,1.69c0,14.08,11.46,25.54,25.53,25.54s25.54-11.46,25.54-25.54-11.45-25.54-25.54-25.54ZM12.39,40.7h-7.17c-.93,0-1.69.76-1.69,1.69s.76,1.69,1.69,1.69h7.17c.93,0,1.69-.76,1.69-1.69s-.76-1.69-1.69-1.69ZM42.39,70.71c-.93,0-1.69.76-1.69,1.69v7.17c0,.93.76,1.69,1.69,1.69s1.69-.76,1.69-1.69v-7.17c0-.93-.76-1.69-1.69-1.69ZM42.39,14.08c.93,0,1.69-.76,1.69-1.69v-7.17c0-.93-.76-1.69-1.69-1.69s-1.69.76-1.69,1.69v7.17c0,.93.76,1.69,1.69,1.69ZM19.98,22.37c.33.33.76.49,1.2.49s.86-.16,1.19-.49c.66-.66.66-1.73,0-2.39l-5.07-5.07c-.66-.66-1.73-.66-2.39,0-.66.66-.66,1.73,0,2.39l5.07,5.07ZM19.98,62.41l-5.07,5.07c-.66.66-.66,1.73,0,2.39.33.33.76.49,1.2.49s.86-.17,1.19-.49l5.07-5.07c.66-.66.66-1.73,0-2.39-.66-.66-1.73-.66-2.39,0Z"/>
        <path class="cls-9" d="M78.94,40.08h-7.17c-.93,0-1.69.76-1.69,1.69s.76,1.69,1.69,1.69h7.17c.93,0,1.69-.76,1.69-1.69s-.76-1.69-1.69-1.69ZM66.86,14.29l-5.07,5.07c-.66.66-.66,1.73,0,2.39.33.33.76.49,1.19.49s.87-.16,1.19-.49l5.07-5.07c.66-.66.66-1.73,0-2.39-.66-.66-1.73-.66-2.39,0ZM64.18,61.79c-.66-.66-1.73-.66-2.39,0-.66.66-.66,1.73,0,2.39l5.07,5.07c.33.33.76.49,1.19.49s.87-.17,1.2-.49c.66-.66.66-1.73,0-2.39l-5.07-5.07ZM41.6,16.1c-9.08,0-17.55,4.88-22.11,12.75-.83,1.42-1.52,2.94-2.05,4.51-.3.88.17,1.84,1.05,2.14.89.3,1.84-.17,2.15-1.05.47-1.36,1.07-2.68,1.78-3.91,3.96-6.83,11.31-11.07,19.19-11.07,12.22,0,22.16,9.94,22.16,22.16s-9.94,22.16-22.16,22.16-22.16-9.94-22.16-22.16c0-.93-.76-1.69-1.69-1.69s-1.69.76-1.69,1.69c0,14.08,11.46,25.54,25.53,25.54s25.54-11.46,25.54-25.54-11.45-25.54-25.54-25.54ZM11.77,40.08h-7.17c-.93,0-1.69.76-1.69,1.69s.76,1.69,1.69,1.69h7.17c.93,0,1.69-.76,1.69-1.69s-.76-1.69-1.69-1.69ZM41.77,70.09c-.93,0-1.69.76-1.69,1.69v7.17c0,.93.76,1.69,1.69,1.69s1.69-.76,1.69-1.69v-7.17c0-.93-.76-1.69-1.69-1.69ZM41.77,13.45c.93,0,1.69-.76,1.69-1.69v-7.17c0-.93-.76-1.69-1.69-1.69s-1.69.76-1.69,1.69v7.17c0,.93.76,1.69,1.69,1.69ZM19.36,21.75c.33.33.76.49,1.2.49s.86-.16,1.19-.49c.66-.66.66-1.73,0-2.39l-5.07-5.07c-.66-.66-1.73-.66-2.39,0-.66.66-.66,1.73,0,2.39l5.07,5.07ZM19.36,61.79l-5.07,5.07c-.66.66-.66,1.73,0,2.39.33.33.76.49,1.2.49s.86-.17,1.19-.49l5.07-5.07c.66-.66.66-1.73,0-2.39-.66-.66-1.73-.66-2.39,0Z"/>
        <path class="cls-7" d="M78.31,39.45h-7.17c-.93,0-1.69.76-1.69,1.69s.76,1.69,1.69,1.69h7.17c.93,0,1.69-.76,1.69-1.69s-.76-1.69-1.69-1.69ZM66.23,13.66l-5.07,5.07c-.66.66-.66,1.73,0,2.39.33.33.76.49,1.19.49s.87-.16,1.19-.49l5.07-5.07c.66-.66.66-1.73,0-2.39-.66-.66-1.73-.66-2.39,0ZM63.55,61.16c-.66-.66-1.73-.66-2.39,0-.66.66-.66,1.73,0,2.39l5.07,5.07c.33.33.76.49,1.19.49s.87-.17,1.2-.49c.66-.66.66-1.73,0-2.39l-5.07-5.07ZM40.98,15.48c-9.08,0-17.55,4.88-22.11,12.75-.83,1.42-1.52,2.94-2.05,4.51-.3.88.17,1.84,1.05,2.14.89.3,1.84-.17,2.15-1.05.47-1.36,1.07-2.68,1.78-3.91,3.96-6.83,11.31-11.07,19.19-11.07,12.22,0,22.16,9.94,22.16,22.16s-9.94,22.16-22.16,22.16-22.16-9.94-22.16-22.16c0-.93-.76-1.69-1.69-1.69s-1.69.76-1.69,1.69c0,14.08,11.46,25.54,25.53,25.54s25.54-11.46,25.54-25.54-11.45-25.54-25.54-25.54ZM11.14,39.45H3.97c-.93,0-1.69.76-1.69,1.69s.76,1.69,1.69,1.69h7.17c.93,0,1.69-.76,1.69-1.69s-.76-1.69-1.69-1.69ZM41.14,69.46c-.93,0-1.69.76-1.69,1.69v7.17c0,.93.76,1.69,1.69,1.69s1.69-.76,1.69-1.69v-7.17c0-.93-.76-1.69-1.69-1.69ZM41.14,12.83c.93,0,1.69-.76,1.69-1.69V3.97c0-.93-.76-1.69-1.69-1.69s-1.69.76-1.69,1.69v7.17c0,.93.76,1.69,1.69,1.69ZM18.73,21.12c.33.33.76.49,1.2.49s.86-.16,1.19-.49c.66-.66.66-1.73,0-2.39l-5.07-5.07c-.66-.66-1.73-.66-2.39,0-.66.66-.66,1.73,0,2.39l5.07,5.07ZM18.73,61.16l-5.07,5.07c-.66.66-.66,1.73,0,2.39.33.33.76.49,1.2.49s.86-.17,1.19-.49l5.07-5.07c.66-.66.66-1.73,0-2.39-.66-.66-1.73-.66-2.39,0Z"/>
        <path class="cls-4" d="M77.69,38.83h-7.17c-.93,0-1.69.76-1.69,1.69s.76,1.69,1.69,1.69h7.17c.93,0,1.69-.76,1.69-1.69s-.76-1.69-1.69-1.69ZM65.61,13.04l-5.07,5.07c-.66.66-.66,1.73,0,2.39.33.33.76.49,1.19.49s.87-.16,1.19-.49l5.07-5.07c.66-.66.66-1.73,0-2.39-.66-.66-1.73-.66-2.39,0ZM62.93,60.54c-.66-.66-1.73-.66-2.39,0-.66.66-.66,1.73,0,2.39l5.07,5.07c.33.33.76.49,1.19.49s.87-.17,1.2-.49c.66-.66.66-1.73,0-2.39l-5.07-5.07ZM40.35,14.85c-9.08,0-17.55,4.88-22.11,12.75-.83,1.42-1.52,2.94-2.05,4.51-.3.88.17,1.84,1.05,2.14.89.3,1.84-.17,2.15-1.05.47-1.36,1.07-2.68,1.78-3.91,3.96-6.83,11.31-11.07,19.19-11.07,12.22,0,22.16,9.94,22.16,22.16s-9.94,22.16-22.16,22.16-22.16-9.94-22.16-22.16c0-.93-.76-1.69-1.69-1.69s-1.69.76-1.69,1.69c0,14.08,11.46,25.54,25.53,25.54s25.54-11.46,25.54-25.54-11.45-25.54-25.54-25.54ZM10.52,38.83H3.34c-.93,0-1.69.76-1.69,1.69s.76,1.69,1.69,1.69h7.17c.93,0,1.69-.76,1.69-1.69s-.76-1.69-1.69-1.69ZM40.52,68.84c-.93,0-1.69.76-1.69,1.69v7.17c0,.93.76,1.69,1.69,1.69s1.69-.76,1.69-1.69v-7.17c0-.93-.76-1.69-1.69-1.69ZM40.52,12.2c.93,0,1.69-.76,1.69-1.69V3.34c0-.93-.76-1.69-1.69-1.69s-1.69.76-1.69,1.69v7.17c0,.93.76,1.69,1.69,1.69ZM18.11,20.5c.33.33.76.49,1.2.49s.86-.16,1.19-.49c.66-.66.66-1.73,0-2.39l-5.07-5.07c-.66-.66-1.73-.66-2.39,0-.66.66-.66,1.73,0,2.39l5.07,5.07ZM18.11,60.54l-5.07,5.07c-.66.66-.66,1.73,0,2.39.33.33.76.49,1.2.49s.86-.17,1.19-.49l5.07-5.07c.66-.66.66-1.73,0-2.39-.66-.66-1.73-.66-2.39,0Z"/>
        <path class="cls-6" d="M77.06,38.2h-7.17c-.93,0-1.69.76-1.69,1.69s.76,1.69,1.69,1.69h7.17c.93,0,1.69-.76,1.69-1.69s-.76-1.69-1.69-1.69ZM64.98,12.41l-5.07,5.07c-.66.66-.66,1.73,0,2.39.33.33.76.49,1.19.49s.87-.16,1.19-.49l5.07-5.07c.66-.66.66-1.73,0-2.39-.66-.66-1.73-.66-2.39,0ZM62.3,59.91c-.66-.66-1.73-.66-2.39,0-.66.66-.66,1.73,0,2.39l5.07,5.07c.33.33.76.49,1.19.49s.87-.17,1.2-.49c.66-.66.66-1.73,0-2.39l-5.07-5.07ZM39.73,14.23c-9.08,0-17.55,4.88-22.11,12.75-.83,1.42-1.52,2.94-2.05,4.51-.3.88.17,1.84,1.05,2.14.89.3,1.84-.17,2.15-1.05.47-1.36,1.07-2.68,1.78-3.91,3.96-6.83,11.31-11.07,19.19-11.07,12.22,0,22.16,9.94,22.16,22.16s-9.94,22.16-22.16,22.16-22.16-9.94-22.16-22.16c0-.93-.76-1.69-1.69-1.69s-1.69.76-1.69,1.69c0,14.08,11.46,25.54,25.53,25.54s25.54-11.46,25.54-25.54-11.45-25.54-25.54-25.54ZM9.89,38.2H2.72c-.93,0-1.69.76-1.69,1.69s.76,1.69,1.69,1.69h7.17c.93,0,1.69-.76,1.69-1.69s-.76-1.69-1.69-1.69ZM39.89,68.21c-.93,0-1.69.76-1.69,1.69v7.17c0,.93.76,1.69,1.69,1.69s1.69-.76,1.69-1.69v-7.17c0-.93-.76-1.69-1.69-1.69ZM39.89,11.58c.93,0,1.69-.76,1.69-1.69V2.72c0-.93-.76-1.69-1.69-1.69s-1.69.76-1.69,1.69v7.17c0,.93.76,1.69,1.69,1.69ZM17.48,19.87c.33.33.76.49,1.2.49s.86-.16,1.19-.49c.66-.66.66-1.73,0-2.39l-5.07-5.07c-.66-.66-1.73-.66-2.39,0-.66.66-.66,1.73,0,2.39l5.07,5.07ZM17.48,59.91l-5.07,5.07c-.66.66-.66,1.73,0,2.39.33.33.76.49,1.2.49s.86-.17,1.19-.49l5.07-5.07c.66-.66.66-1.73,0-2.39-.66-.66-1.73-.66-2.39,0Z"/>
        <path class="cls-5" d="M76.44,37.58h-7.17c-.93,0-1.69.76-1.69,1.69s.76,1.69,1.69,1.69h7.17c.93,0,1.69-.76,1.69-1.69s-.76-1.69-1.69-1.69ZM64.36,11.79l-5.07,5.07c-.66.66-.66,1.73,0,2.39.33.33.76.49,1.19.49s.87-.16,1.19-.49l5.07-5.07c.66-.66.66-1.73,0-2.39-.66-.66-1.73-.66-2.39,0ZM61.68,59.29c-.66-.66-1.73-.66-2.39,0-.66.66-.66,1.73,0,2.39l5.07,5.07c.33.33.76.49,1.19.49s.87-.17,1.2-.49c.66-.66.66-1.73,0-2.39l-5.07-5.07ZM39.1,13.6c-9.08,0-17.55,4.88-22.11,12.75-.83,1.42-1.52,2.94-2.05,4.51-.3.88.17,1.84,1.05,2.14.89.3,1.84-.17,2.15-1.05.47-1.36,1.07-2.68,1.78-3.91,3.96-6.83,11.31-11.07,19.19-11.07,12.22,0,22.16,9.94,22.16,22.16s-9.94,22.16-22.16,22.16-22.16-9.94-22.16-22.16c0-.93-.76-1.69-1.69-1.69s-1.69.76-1.69,1.69c0,14.08,11.46,25.54,25.53,25.54s25.54-11.46,25.54-25.54-11.45-25.54-25.54-25.54ZM9.27,37.58H2.09c-.93,0-1.69.76-1.69,1.69s.76,1.69,1.69,1.69h7.17c.93,0,1.69-.76,1.69-1.69s-.76-1.69-1.69-1.69ZM39.27,67.59c-.93,0-1.69.76-1.69,1.69v7.17c0,.93.76,1.69,1.69,1.69s1.69-.76,1.69-1.69v-7.17c0-.93-.76-1.69-1.69-1.69ZM39.27,10.95c.93,0,1.69-.76,1.69-1.69V2.09c0-.93-.76-1.69-1.69-1.69s-1.69.76-1.69,1.69v7.17c0,.93.76,1.69,1.69,1.69ZM16.86,19.25c.33.33.76.49,1.2.49s.86-.16,1.19-.49c.66-.66.66-1.73,0-2.39l-5.07-5.07c-.66-.66-1.73-.66-2.39,0-.66.66-.66,1.73,0,2.39l5.07,5.07ZM16.86,59.29l-5.07,5.07c-.66.66-.66,1.73,0,2.39.33.33.76.49,1.2.49s.86-.17,1.19-.49l5.07-5.07c.66-.66.66-1.73,0-2.39-.66-.66-1.73-.66-2.39,0Z"/>
      </g>
      <path class="cls-2" d="M38.69,13.2c-9.08,0-17.55,4.88-22.11,12.75-.83,1.42-1.52,2.94-2.05,4.51-.3.88.17,1.84,1.05,2.14.89.3,1.84-.17,2.15-1.05.47-1.36,1.07-2.68,1.78-3.91,3.96-6.83,11.31-11.07,19.19-11.07,12.22,0,22.16,9.94,22.16,22.16s-9.94,22.16-22.16,22.16-22.16-9.94-22.16-22.16c0-.93-.76-1.69-1.69-1.69s-1.69.76-1.69,1.69c0,14.08,11.46,25.54,25.53,25.54s25.54-11.46,25.54-25.54-11.46-25.54-25.54-25.54ZM8.86,37.17H1.69c-.93,0-1.69.76-1.69,1.69s.76,1.69,1.69,1.69h7.17c.93,0,1.69-.76,1.69-1.69s-.76-1.69-1.69-1.69ZM76.03,37.17h-7.17c-.93,0-1.69.76-1.69,1.69s.76,1.69,1.69,1.69h7.17c.93,0,1.69-.76,1.69-1.69s-.76-1.69-1.69-1.69ZM38.86,67.18c-.93,0-1.69.76-1.69,1.69v7.17c0,.93.76,1.69,1.69,1.69s1.69-.76,1.69-1.69v-7.17c0-.93-.76-1.69-1.69-1.69ZM38.86,10.55c.93,0,1.69-.76,1.69-1.69V1.69c0-.93-.76-1.69-1.69-1.69s-1.69.76-1.69,1.69v7.17c0,.93.76,1.69,1.69,1.69ZM16.45,18.84c.33.33.76.49,1.2.49s.86-.16,1.19-.49c.66-.66.66-1.73,0-2.39l-5.07-5.07c-.66-.66-1.73-.66-2.39,0-.66.66-.66,1.73,0,2.39l5.07,5.07ZM61.27,58.88c-.66-.66-1.73-.66-2.39,0-.66.66-.66,1.73,0,2.39l5.07,5.07c.33.33.76.49,1.19.49s.87-.17,1.2-.49c.66-.66.66-1.73,0-2.39l-5.07-5.07ZM16.45,58.88l-5.07,5.07c-.66.66-.66,1.73,0,2.39.33.33.76.49,1.2.49s.86-.17,1.19-.49l5.07-5.07c.66-.66.66-1.73,0-2.39-.66-.66-1.73-.66-2.39,0ZM63.95,11.38l-5.07,5.07c-.66.66-.66,1.73,0,2.39.33.33.76.49,1.19.49s.87-.16,1.19-.49l5.07-5.07c.66-.66.66-1.73,0-2.39-.66-.66-1.73-.66-2.39,0Z"/>
    </g>
  </g>
</svg>