<?xml version="1.0" encoding="UTF-8"?>
<svg xmlns="http://www.w3.org/2000/svg" xmlns:xlink="http://www.w3.org/1999/xlink" viewBox="0 0 83.97 66.98">
  <defs>
    <style>
      .cls-1 {
        fill: #fff;
        mix-blend-mode: soft-light;
        opacity: .8;
        stroke: #fff;
      }

      .cls-1, .cls-2, .cls-3 {
        stroke-miterlimit: 10;
      }

      .cls-2 {
        fill: url(#linear-gradient);
      }

      .cls-2, .cls-3 {
        stroke: #999;
      }

      .cls-4 {
        isolation: isolate;
      }

      .cls-3 {
        fill: url(#linear-gradient-2);
      }
    </style>
    <linearGradient id="linear-gradient" x1="25.5" y1="60.3" x2="49.73" y2="25.47" gradientUnits="userSpaceOnUse">
      <stop offset="0" stop-color="#e5e2df"/>
      <stop offset="0" stop-color="#f1efed"/>
      <stop offset="0" stop-color="#fff"/>
      <stop offset=".13" stop-color="#f0f0f0"/>
      <stop offset=".37" stop-color="#c9cacb"/>
      <stop offset=".52" stop-color="#adaeb0"/>
      <stop offset=".67" stop-color="#a3a4a6"/>
      <stop offset=".91" stop-color="#8b8b8c"/>
      <stop offset="1" stop-color="gray"/>
    </linearGradient>
    <linearGradient id="linear-gradient-2" x1=".5" y1="36.37" x2="83.11" y2="36.37" xlink:href="#linear-gradient"/>
  </defs>
  <g class="cls-4">
    <g id="Layer_2" data-name="Layer 2">
      <g id="Objects">
        <g>
          <path class="cls-2" d="M20.21.52c-3.81-.03-7.37-.02-10.51-.02-1.04,0-2.28,1.11-2.28,2.47,0,14.29-3.03,54.19-3.03,55.83,0,4.77,3.63,7.68,8.72,7.68,5.75,0,55.69-.21,62.67-.21,4.88,0,7.69-3.71,7.69-8.42,0-6.83-.06-37.42-.06-41.41s-2.44-6.64-6.89-6.64-49.42.02-49.42.02c0,0-.68-2.85-1.16-5.01-.67-2.98-2.99-4.27-5.73-4.29Z"/>
          <path class="cls-3" d="M11.31,6.26c-3.78,0-5.76.08-8.87.1-1.03,0-2.11,1.03-1.91,2.27,2.08,13.01,3.34,49.36,3.58,50.85.7,4.35,4.75,6.99,9.84,6.99,5.75,0,55.66-.19,62.64-.19,4.88,0,7.12-3.41,6.39-7.74-1.05-6.28-5.83-34.41-6.44-38.07-.61-3.66-3.45-6.09-7.87-6.07-4.42.03-49.13.31-49.13.31,0,0-1.1-2.6-1.9-4.57-1.1-2.72-3.6-3.88-6.32-3.88Z"/>
          <path class="cls-1" d="M11.31,6.26c-3.78,0-5.76.08-8.87.1-1.03,0-2.11,1.03-1.91,2.27,2.08,13.01,3.34,49.36,3.58,50.85.7,4.35,73.04-35.35,72.43-39.01-.61-3.66-3.45-6.09-7.87-6.07-4.42.03-49.13.31-49.13.31,0,0-1.1-2.6-1.9-4.57-1.1-2.72-3.6-3.88-6.32-3.88Z"/>
        </g>
      </g>
    </g>
  </g>
</svg>