<?xml version="1.0" encoding="UTF-8"?>
<svg id="Layer_2" data-name="Layer 2" xmlns="http://www.w3.org/2000/svg" xmlns:xlink="http://www.w3.org/1999/xlink" viewBox="0 0 68.93 58.61">
  <defs>
    <style>
      .cls-1 {
        opacity: .14;
      }

      .cls-2 {
        fill: url(#linear-gradient-2);
      }

      .cls-3 {
        opacity: .21;
      }

      .cls-4 {
        opacity: .42;
      }

      .cls-5 {
        opacity: .55;
      }

      .cls-6 {
        opacity: .48;
      }

      .cls-7 {
        opacity: .35;
      }

      .cls-8 {
        fill: url(#linear-gradient-3);
      }

      .cls-9 {
        opacity: .08;
      }

      .cls-10 {
        opacity: .28;
      }

      .cls-11 {
        opacity: 0;
      }

      .cls-12 {
        fill: url(#linear-gradient);
      }
    </style>
    <linearGradient id="linear-gradient" x1="4.28" y1="-.57" x2="58.13" y2="53.29" gradientUnits="userSpaceOnUse">
      <stop offset="0" stop-color="#c0c1c0"/>
      <stop offset=".2" stop-color="#d4d4d4"/>
      <stop offset=".49" stop-color="#ebeceb"/>
      <stop offset=".77" stop-color="#fafafa"/>
      <stop offset="1" stop-color="#fff"/>
    </linearGradient>
    <linearGradient id="linear-gradient-2" x1="12.13" y1="10.73" x2="27.36" y2="25.95" gradientUnits="userSpaceOnUse">
      <stop offset="0" stop-color="#0594d6"/>
      <stop offset="1" stop-color="#7af5ff"/>
    </linearGradient>
    <linearGradient id="linear-gradient-3" x1="5.26" y1=".09" x2="58.27" y2="53.11" gradientUnits="userSpaceOnUse">
      <stop offset="0" stop-color="#2c2e2c"/>
      <stop offset=".99" stop-color="#000"/>
    </linearGradient>
  </defs>
  <g id="Layer_1-2" data-name="Layer 1">
    <g>
      <rect class="cls-12" x="1.53" y="1.74" width="59.93" height="49.81" rx="7.1" ry="7.1"/>
      <rect class="cls-2" x="12.49" y="11.42" width="14.67" height="14"/>
      <g>
        <path class="cls-11" d="M56.61,33.3c.93,0,1.69-.76,1.69-1.69s-.76-1.69-1.69-1.69h-13.89c-.93,0-1.69.75-1.69,1.69s.76,1.69,1.69,1.69h13.89ZM16.95,39.1c0,.93.75,1.69,1.69,1.69h37.97c.93,0,1.69-.76,1.69-1.69s-.76-1.69-1.69-1.69H18.64c-.93,0-1.69.76-1.69,1.69ZM56.61,44.6H18.64c-.93,0-1.69.76-1.69,1.69s.75,1.69,1.69,1.69h37.97c.93,0,1.69-.75,1.69-1.69s-.76-1.69-1.69-1.69ZM30.97,29.62h-11.56v-11.56h11.56v11.56ZM32.66,14.68h-14.94c-.93,0-1.69.76-1.69,1.69v14.94c0,.93.76,1.69,1.69,1.69h14.94c.93,0,1.69-.76,1.69-1.69v-14.94c0-.93-.76-1.69-1.69-1.69ZM59.81,5.41H14.53c-5.03,0-9.12,4.09-9.12,9.12,0,.93.76,1.69,1.69,1.69s1.69-.76,1.69-1.69c0-3.17,2.58-5.74,5.74-5.74h45.28c3.17,0,5.75,2.58,5.75,5.74v34.96c0,3.17-2.58,5.74-5.75,5.74H14.53c-3.17,0-5.74-2.58-5.74-5.74v-23.34c0-.93-.76-1.69-1.69-1.69s-1.69.76-1.69,1.69v23.34c0,5.03,4.09,9.12,9.12,9.12h45.28c5.03,0,9.12-4.09,9.12-9.12V14.53c0-5.03-4.09-9.12-9.12-9.12Z"/>
        <path class="cls-9" d="M55.99,32.68c.93,0,1.69-.76,1.69-1.69s-.76-1.69-1.69-1.69h-13.89c-.93,0-1.69.75-1.69,1.69s.76,1.69,1.69,1.69h13.89ZM16.33,38.48c0,.93.75,1.69,1.69,1.69h37.97c.93,0,1.69-.76,1.69-1.69s-.76-1.69-1.69-1.69H18.01c-.93,0-1.69.76-1.69,1.69ZM55.99,43.97H18.01c-.93,0-1.69.76-1.69,1.69s.75,1.69,1.69,1.69h37.97c.93,0,1.69-.75,1.69-1.69s-.76-1.69-1.69-1.69ZM30.35,28.99h-11.56v-11.56h11.56v11.56ZM32.04,14.06h-14.94c-.93,0-1.69.76-1.69,1.69v14.94c0,.93.76,1.69,1.69,1.69h14.94c.93,0,1.69-.76,1.69-1.69v-14.94c0-.93-.76-1.69-1.69-1.69ZM59.18,4.78H13.9c-5.03,0-9.12,4.09-9.12,9.12,0,.93.76,1.69,1.69,1.69s1.69-.76,1.69-1.69c0-3.17,2.58-5.74,5.74-5.74h45.28c3.17,0,5.75,2.58,5.75,5.74v34.96c0,3.17-2.58,5.74-5.75,5.74H13.9c-3.17,0-5.74-2.58-5.74-5.74v-23.34c0-.93-.76-1.69-1.69-1.69s-1.69.76-1.69,1.69v23.34c0,5.03,4.09,9.12,9.12,9.12h45.28c5.03,0,9.12-4.09,9.12-9.12V13.9c0-5.03-4.09-9.12-9.12-9.12Z"/>
        <path class="cls-1" d="M55.36,32.05c.93,0,1.69-.76,1.69-1.69s-.76-1.69-1.69-1.69h-13.89c-.93,0-1.69.75-1.69,1.69s.76,1.69,1.69,1.69h13.89ZM15.7,37.85c0,.93.75,1.69,1.69,1.69h37.97c.93,0,1.69-.76,1.69-1.69s-.76-1.69-1.69-1.69H17.39c-.93,0-1.69.76-1.69,1.69ZM55.36,43.35H17.39c-.93,0-1.69.76-1.69,1.69s.75,1.69,1.69,1.69h37.97c.93,0,1.69-.75,1.69-1.69s-.76-1.69-1.69-1.69ZM29.72,28.37h-11.56v-11.56h11.56v11.56ZM31.41,13.43h-14.94c-.93,0-1.69.76-1.69,1.69v14.94c0,.93.76,1.69,1.69,1.69h14.94c.93,0,1.69-.76,1.69-1.69v-14.94c0-.93-.76-1.69-1.69-1.69ZM58.56,4.16H13.28c-5.03,0-9.12,4.09-9.12,9.12,0,.93.76,1.69,1.69,1.69s1.69-.76,1.69-1.69c0-3.17,2.58-5.74,5.74-5.74h45.28c3.17,0,5.75,2.58,5.75,5.74v34.96c0,3.17-2.58,5.74-5.75,5.74H13.28c-3.17,0-5.74-2.58-5.74-5.74v-23.34c0-.93-.76-1.69-1.69-1.69s-1.69.76-1.69,1.69v23.34c0,5.03,4.09,9.12,9.12,9.12h45.28c5.03,0,9.12-4.09,9.12-9.12V13.28c0-5.03-4.09-9.12-9.12-9.12Z"/>
        <path class="cls-3" d="M54.74,31.43c.93,0,1.69-.76,1.69-1.69s-.76-1.69-1.69-1.69h-13.89c-.93,0-1.69.75-1.69,1.69s.76,1.69,1.69,1.69h13.89ZM15.08,37.23c0,.93.75,1.69,1.69,1.69h37.97c.93,0,1.69-.76,1.69-1.69s-.76-1.69-1.69-1.69H16.76c-.93,0-1.69.76-1.69,1.69ZM54.74,42.72H16.76c-.93,0-1.69.76-1.69,1.69s.75,1.69,1.69,1.69h37.97c.93,0,1.69-.75,1.69-1.69s-.76-1.69-1.69-1.69ZM29.1,27.74h-11.56v-11.56h11.56v11.56ZM30.79,12.81h-14.94c-.93,0-1.69.76-1.69,1.69v14.94c0,.93.76,1.69,1.69,1.69h14.94c.93,0,1.69-.76,1.69-1.69v-14.94c0-.93-.76-1.69-1.69-1.69ZM57.93,3.53H12.65C7.62,3.53,3.53,7.62,3.53,12.65c0,.93.76,1.69,1.69,1.69s1.69-.76,1.69-1.69c0-3.17,2.58-5.74,5.74-5.74h45.28c3.17,0,5.75,2.58,5.75,5.74v34.96c0,3.17-2.58,5.74-5.75,5.74H12.65c-3.17,0-5.74-2.58-5.74-5.74v-23.34c0-.93-.76-1.69-1.69-1.69s-1.69.76-1.69,1.69v23.34c0,5.03,4.09,9.12,9.12,9.12h45.28c5.03,0,9.12-4.09,9.12-9.12V12.65c0-5.03-4.09-9.12-9.12-9.12Z"/>
        <path class="cls-10" d="M54.11,30.8c.93,0,1.69-.76,1.69-1.69s-.76-1.69-1.69-1.69h-13.89c-.93,0-1.69.75-1.69,1.69s.76,1.69,1.69,1.69h13.89ZM14.45,36.6c0,.93.75,1.69,1.69,1.69h37.97c.93,0,1.69-.76,1.69-1.69s-.76-1.69-1.69-1.69H16.14c-.93,0-1.69.76-1.69,1.69ZM54.11,42.1H16.14c-.93,0-1.69.76-1.69,1.69s.75,1.69,1.69,1.69h37.97c.93,0,1.69-.75,1.69-1.69s-.76-1.69-1.69-1.69ZM28.47,27.12h-11.56v-11.56h11.56v11.56ZM30.16,12.18h-14.94c-.93,0-1.69.76-1.69,1.69v14.94c0,.93.76,1.69,1.69,1.69h14.94c.93,0,1.69-.76,1.69-1.69v-14.94c0-.93-.76-1.69-1.69-1.69ZM57.31,2.91H12.03C7,2.91,2.91,7,2.91,12.03c0,.93.76,1.69,1.69,1.69s1.69-.76,1.69-1.69c0-3.17,2.58-5.74,5.74-5.74h45.28c3.17,0,5.75,2.58,5.75,5.74v34.96c0,3.17-2.58,5.74-5.75,5.74H12.03c-3.17,0-5.74-2.58-5.74-5.74v-23.34c0-.93-.76-1.69-1.69-1.69s-1.69.76-1.69,1.69v23.34c0,5.03,4.09,9.12,9.12,9.12h45.28c5.03,0,9.12-4.09,9.12-9.12V12.03c0-5.03-4.09-9.12-9.12-9.12Z"/>
        <path class="cls-7" d="M53.49,30.18c.93,0,1.69-.76,1.69-1.69s-.76-1.69-1.69-1.69h-13.89c-.93,0-1.69.75-1.69,1.69s.76,1.69,1.69,1.69h13.89ZM13.83,35.98c0,.93.75,1.69,1.69,1.69h37.97c.93,0,1.69-.76,1.69-1.69s-.76-1.69-1.69-1.69H15.51c-.93,0-1.69.76-1.69,1.69ZM53.49,41.47H15.51c-.93,0-1.69.76-1.69,1.69s.75,1.69,1.69,1.69h37.97c.93,0,1.69-.75,1.69-1.69s-.76-1.69-1.69-1.69ZM27.85,26.49h-11.56v-11.56h11.56v11.56ZM29.54,11.56h-14.94c-.93,0-1.69.76-1.69,1.69v14.94c0,.93.76,1.69,1.69,1.69h14.94c.93,0,1.69-.76,1.69-1.69v-14.94c0-.93-.76-1.69-1.69-1.69ZM56.68,2.28H11.4C6.37,2.28,2.28,6.37,2.28,11.4c0,.93.76,1.69,1.69,1.69s1.69-.76,1.69-1.69c0-3.17,2.58-5.74,5.74-5.74h45.28c3.17,0,5.75,2.58,5.75,5.74v34.96c0,3.17-2.58,5.74-5.75,5.74H11.4c-3.17,0-5.74-2.58-5.74-5.74v-23.34c0-.93-.76-1.69-1.69-1.69s-1.69.76-1.69,1.69v23.34c0,5.03,4.09,9.12,9.12,9.12h45.28c5.03,0,9.12-4.09,9.12-9.12V11.4c0-5.03-4.09-9.12-9.12-9.12Z"/>
        <path class="cls-4" d="M52.86,29.55c.93,0,1.69-.76,1.69-1.69s-.76-1.69-1.69-1.69h-13.89c-.93,0-1.69.75-1.69,1.69s.76,1.69,1.69,1.69h13.89ZM13.2,35.35c0,.93.75,1.69,1.69,1.69h37.97c.93,0,1.69-.76,1.69-1.69s-.76-1.69-1.69-1.69H14.89c-.93,0-1.69.76-1.69,1.69ZM52.86,40.85H14.89c-.93,0-1.69.76-1.69,1.69s.75,1.69,1.69,1.69h37.97c.93,0,1.69-.75,1.69-1.69s-.76-1.69-1.69-1.69ZM27.22,25.87h-11.56v-11.56h11.56v11.56ZM28.91,10.93h-14.94c-.93,0-1.69.76-1.69,1.69v14.94c0,.93.76,1.69,1.69,1.69h14.94c.93,0,1.69-.76,1.69-1.69v-14.94c0-.93-.76-1.69-1.69-1.69ZM56.06,1.66H10.78C5.75,1.66,1.66,5.75,1.66,10.78c0,.93.76,1.69,1.69,1.69s1.69-.76,1.69-1.69c0-3.17,2.58-5.74,5.74-5.74h45.28c3.17,0,5.75,2.58,5.75,5.74v34.96c0,3.17-2.58,5.74-5.75,5.74H10.78c-3.17,0-5.74-2.58-5.74-5.74v-23.34c0-.93-.76-1.69-1.69-1.69s-1.69.76-1.69,1.69v23.34c0,5.03,4.09,9.12,9.12,9.12h45.28c5.03,0,9.12-4.09,9.12-9.12V10.78c0-5.03-4.09-9.12-9.12-9.12Z"/>
        <path class="cls-6" d="M52.24,28.93c.93,0,1.69-.76,1.69-1.69s-.76-1.69-1.69-1.69h-13.89c-.93,0-1.69.75-1.69,1.69s.76,1.69,1.69,1.69h13.89ZM12.58,34.73c0,.93.75,1.69,1.69,1.69h37.97c.93,0,1.69-.76,1.69-1.69s-.76-1.69-1.69-1.69H14.26c-.93,0-1.69.76-1.69,1.69ZM52.24,40.22H14.26c-.93,0-1.69.76-1.69,1.69s.75,1.69,1.69,1.69h37.97c.93,0,1.69-.75,1.69-1.69s-.76-1.69-1.69-1.69ZM26.6,25.24h-11.56v-11.56h11.56v11.56ZM28.29,10.31h-14.94c-.93,0-1.69.76-1.69,1.69v14.94c0,.93.76,1.69,1.69,1.69h14.94c.93,0,1.69-.76,1.69-1.69v-14.94c0-.93-.76-1.69-1.69-1.69ZM55.43,1.03H10.15C5.12,1.03,1.03,5.12,1.03,10.15c0,.93.76,1.69,1.69,1.69s1.69-.76,1.69-1.69c0-3.17,2.58-5.74,5.74-5.74h45.28c3.17,0,5.75,2.58,5.75,5.74v34.96c0,3.17-2.58,5.74-5.75,5.74H10.15c-3.17,0-5.74-2.58-5.74-5.74v-23.34c0-.93-.76-1.69-1.69-1.69s-1.69.76-1.69,1.69v23.34c0,5.03,4.09,9.12,9.12,9.12h45.28c5.03,0,9.12-4.09,9.12-9.12V10.15c0-5.03-4.09-9.12-9.12-9.12Z"/>
        <path class="cls-5" d="M51.61,28.3c.93,0,1.69-.76,1.69-1.69s-.76-1.69-1.69-1.69h-13.89c-.93,0-1.69.75-1.69,1.69s.76,1.69,1.69,1.69h13.89ZM11.95,34.1c0,.93.75,1.69,1.69,1.69h37.97c.93,0,1.69-.76,1.69-1.69s-.76-1.69-1.69-1.69H13.64c-.93,0-1.69.76-1.69,1.69ZM51.61,39.6H13.64c-.93,0-1.69.76-1.69,1.69s.75,1.69,1.69,1.69h37.97c.93,0,1.69-.75,1.69-1.69s-.76-1.69-1.69-1.69ZM25.97,24.62h-11.56v-11.56h11.56v11.56ZM27.66,9.68h-14.94c-.93,0-1.69.76-1.69,1.69v14.94c0,.93.76,1.69,1.69,1.69h14.94c.93,0,1.69-.76,1.69-1.69v-14.94c0-.93-.76-1.69-1.69-1.69ZM54.81.41H9.53C4.5.41.41,4.5.41,9.53c0,.93.76,1.69,1.69,1.69s1.69-.76,1.69-1.69c0-3.17,2.58-5.74,5.74-5.74h45.28c3.17,0,5.75,2.58,5.75,5.74v34.96c0,3.17-2.58,5.74-5.75,5.74H9.53c-3.17,0-5.74-2.58-5.74-5.74v-23.34c0-.93-.76-1.69-1.69-1.69s-1.69.76-1.69,1.69v23.34c0,5.03,4.09,9.12,9.12,9.12h45.28c5.03,0,9.12-4.09,9.12-9.12V9.53c0-5.03-4.09-9.12-9.12-9.12Z"/>
      </g>
      <path class="cls-8" d="M54.4,0H9.12C4.09,0,0,4.09,0,9.12c0,.93.76,1.69,1.69,1.69s1.69-.76,1.69-1.69c0-3.17,2.58-5.74,5.74-5.74h45.28c3.17,0,5.75,2.58,5.75,5.74v34.96c0,3.17-2.58,5.74-5.75,5.74H9.12c-3.17,0-5.74-2.58-5.74-5.74v-23.34c0-.93-.76-1.69-1.69-1.69s-1.69.76-1.69,1.69v23.34c0,5.03,4.09,9.12,9.12,9.12h45.28c5.03,0,9.12-4.09,9.12-9.12V9.12c0-5.03-4.09-9.12-9.12-9.12ZM11.54,33.7c0,.93.75,1.69,1.69,1.69h37.97c.93,0,1.69-.76,1.69-1.69s-.76-1.69-1.69-1.69H13.23c-.93,0-1.69.76-1.69,1.69ZM51.21,27.9c.93,0,1.69-.76,1.69-1.69s-.76-1.69-1.69-1.69h-13.89c-.93,0-1.69.75-1.69,1.69s.76,1.69,1.69,1.69h13.89ZM27.25,9.28h-14.94c-.93,0-1.69.76-1.69,1.69v14.94c0,.93.76,1.69,1.69,1.69h14.94c.93,0,1.69-.76,1.69-1.69v-14.94c0-.93-.76-1.69-1.69-1.69ZM25.57,24.21h-11.56v-11.56h11.56v11.56ZM51.21,39.19H13.23c-.93,0-1.69.76-1.69,1.69s.75,1.69,1.69,1.69h37.97c.93,0,1.69-.75,1.69-1.69s-.76-1.69-1.69-1.69Z"/>
    </g>
  </g>
</svg>