<?xml version="1.0" encoding="UTF-8"?>
<svg xmlns="http://www.w3.org/2000/svg" xmlns:xlink="http://www.w3.org/1999/xlink" viewBox="0 0 36.1 68.24">
  <defs>
    <style>
      .cls-1 {
        fill: #fff;
        mix-blend-mode: soft-light;
        opacity: .8;
        stroke: #fff;
      }

      .cls-1, .cls-2 {
        stroke-miterlimit: 10;
      }

      .cls-3 {
        isolation: isolate;
      }

      .cls-2 {
        fill: url(#linear-gradient);
        stroke: #ce0543;
      }
    </style>
    <linearGradient id="linear-gradient" x1=".5" y1="34.12" x2="35.6" y2="34.12" gradientUnits="userSpaceOnUse">
      <stop offset="0" stop-color="#f2b3c3"/>
      <stop offset=".51" stop-color="#e84f7b"/>
      <stop offset=".69" stop-color="#d13769"/>
      <stop offset=".86" stop-color="#c1275d"/>
      <stop offset="1" stop-color="#bc2259"/>
    </linearGradient>
  </defs>
  <g class="cls-3">
    <g id="Layer_2" data-name="Layer 2">
      <g id="Objects">
        <g>
          <path class="cls-2" d="M34.61,38.93c-.66-1.51-1.54-2.83-2.62-3.95-1.08-1.12-2.31-2.08-3.7-2.88-1.38-.8-2.8-1.52-4.24-2.15-1.44-.64-2.85-1.23-4.24-1.8-1.39-.57-2.62-1.17-3.72-1.82-.09-.05-.15-.11-.24-.17-.97-.61-1.78-1.28-2.38-2.05-.65-.83-.98-1.81-.98-2.94,0-.76.15-1.49.44-2.18.29-.68.73-1.27,1.33-1.76.45-.37,1.01-.66,1.64-.91.2-.08.37-.17.59-.24.67-.21,1.45-.31,2.28-.36.28-.02.54-.05.84-.05,1.52,0,2.92.18,4.19.53.34.09.63.2.95.29.88.28,1.7.57,2.42.89.97.43,1.79.83,2.45,1.2.67.37,1.15.55,1.46.55s.55-.08.73-.24c.18-.15.32-.4.42-.75.09-.34.17-.78.21-1.3.04-.53.06-1.17.06-1.94,0-.69-.01-1.26-.04-1.72-.03-.46-.07-.85-.15-1.15-.07-.3-.15-.55-.25-.73-.1-.19-.28-.41-.56-.68-.28-.26-.85-.59-1.7-.99-.86-.4-1.84-.75-2.95-1.07-.66-.18-1.36-.34-2.08-.48V2.98c0-1.37-1.17-2.48-2.61-2.48h-.76c-1.44,0-2.61,1.11-2.61,2.48v4.61c-.97.02-1.93.08-2.87.2V2.98c0-1.37-1.17-2.48-2.61-2.48h-.76c-1.44,0-2.61,1.11-2.61,2.48v6.4c-1.17.51-2.25,1.11-3.22,1.85-1.62,1.22-2.91,2.76-3.86,4.62-.96,1.86-1.43,4.01-1.43,6.46,0,2.13.33,3.96,1,5.49.67,1.53,1.53,2.85,2.6,3.97,1.07,1.12,2.28,2.08,3.64,2.88,1.36.8,2.75,1.52,4.2,2.15,1.44.63,2.84,1.23,4.2,1.8,1.33.56,2.52,1.15,3.57,1.78.02.02.04.02.06.04,1.07.65,1.93,1.39,2.6,2.21.66.83,1,1.83,1,2.99,0,1-.2,1.91-.58,2.73-.39.82-.95,1.5-1.68,2.05-.72.55-1.61.97-2.64,1.27-.02,0-.03,0-.04.02-.84.24-1.81.36-2.83.41-.25,0-.48.05-.75.05-1.98,0-3.72-.21-5.23-.63-.03,0-.07-.01-.1-.03-1.54-.44-2.86-.92-3.97-1.44-1.11-.53-2.01-1.01-2.72-1.44-.71-.44-1.25-.65-1.64-.65-.28,0-.52.07-.73.22-.21.14-.38.38-.5.73-.12.34-.22.79-.27,1.34-.06.55-.08,1.24-.08,2.06,0,1.21.08,2.14.23,2.78.15.65.41,1.14.77,1.48.36.35.95.74,1.77,1.19.82.45,1.84.87,3.05,1.28,1.22.41,2.61.75,4.2,1.04v5.17c0,1.37,1.17,2.48,2.61,2.48h.76c1.45,0,2.61-1.11,2.61-2.48v-4.75c.98-.02,1.94-.08,2.87-.2v4.95c0,1.37,1.17,2.48,2.61,2.48h.76c1.44,0,2.61-1.11,2.61-2.48v-6.4c1.63-.63,3.1-1.43,4.41-2.42,1.8-1.36,3.23-3.05,4.28-5.08,1.05-2.03,1.58-4.38,1.58-7.08,0-2.05-.33-3.84-1-5.35Z"/>
          <path class="cls-1" d="M24.06,29.95c-1.44-.64-2.85-1.23-4.24-1.8-1.39-.57-2.62-1.17-3.72-1.82-.09-.05-.15-.11-.24-.17-.97-.61-1.78-1.28-2.38-2.05-.65-.83-.98-1.81-.98-2.94,0-.76.15-1.49.44-2.18.29-.68.73-1.27,1.33-1.76.45-.37,1.01-.66,1.64-.91.2-.08.37-.17.59-.24.67-.21,1.45-.31,2.28-.36.28-.02.54-.05.84-.05,1.52,0,2.92.18,4.19.53.34.09.63.2.95.29.88.28,4.2,1.72,4.87,2.1.67.37,1.15.55,1.46.55s.55-.08.73-.24c.18-.15.32-.4.42-.75.09-.34.17-.78.21-1.3.04-.53.06-1.17.06-1.94,0-.69-.01-1.26-.04-1.72-.03-.46-.07-.85-.15-1.15-.07-.3-.15-.55-.25-.73-.1-.19-.28-.41-.56-.68-.28-.26-.85-.59-1.7-.99-.86-.4-1.84-.75-2.95-1.07-.66-.18-1.36-.34-2.08-.48V2.98c0-1.37-1.17-2.48-2.61-2.48h-.76c-1.44,0-2.61,1.11-2.61,2.48v4.61c-.97.02-1.93.08-2.87.2V2.98c0-1.37-1.17-2.48-2.61-2.48h-.76c-1.44,0-2.61,1.11-2.61,2.48v6.4c-1.17.51-2.25,1.11-3.22,1.85-1.62,1.22-2.91,2.76-3.86,4.62-.96,1.86-1.43,4.01-1.43,6.46,0,2.13.33,3.96,1,5.49.67,1.53,1.53,2.85,2.6,3.97,1.07,1.12,2.28,2.08,3.64,2.88,1.36.8,2.75,1.52,4.2,2.15,1.44.63,2.84,1.23,4.2,1.8,1.33.56,2.52,1.15,3.57,1.78.02.02.04.02.06.04,1.07.65,1.93,1.39,2.6,2.21.66.83,1,1.83,1,2.99,0,1-.2,1.91-.58,2.73-.39.82-.95,1.5-1.68,2.05-.72.55-1.61.97-2.64,1.27-.02,0-.03,0-.04.02-.84.24-1.81.36-2.83.41-.25,0-.48.05-.75.05-1.98,0-3.72-.21-5.23-.63-.03,0-.07-.01-.1-.03-1.54-.44-2.86-.92-3.97-1.44-1.11-.53-2.01-1.01-2.72-1.44-.71-.44-1.25-.65-1.64-.65-.28,0-.52.07-.73.22-.21.14-.38.38-.5.73-.12.34-.22.79-.27,1.34-.06.55-.08,1.24-.08,2.06,0,1.21.08,2.14.23,2.78.15.65.41,1.14.77,1.48.36.35.95.74,1.77,1.19.82.45,1.84.87,3.05,1.28,1.22.41,2.61.75,4.2,1.04,0,0,14.98-29.51,13.54-30.14Z"/>
        </g>
      </g>
    </g>
  </g>
</svg>