<?xml version="1.0" encoding="UTF-8"?>
<svg id="Layer_2" data-name="Layer 2" xmlns="http://www.w3.org/2000/svg" xmlns:xlink="http://www.w3.org/1999/xlink" viewBox="0 0 58.93 79.04">
  <defs>
    <style>
      .cls-1 {
        opacity: .14;
      }

      .cls-2 {
        fill: url(#linear-gradient-2);
      }

      .cls-3 {
        opacity: .21;
      }

      .cls-4 {
        opacity: .42;
      }

      .cls-5 {
        opacity: .55;
      }

      .cls-6 {
        opacity: .48;
      }

      .cls-7 {
        opacity: .35;
      }

      .cls-8 {
        opacity: .08;
      }

      .cls-9 {
        opacity: .28;
      }

      .cls-10 {
        opacity: 0;
      }

      .cls-11 {
        fill: url(#linear-gradient);
      }
    </style>
    <linearGradient id="linear-gradient" x1="-2.95" y1="6.27" x2="39.96" y2="49.19" gradientUnits="userSpaceOnUse">
      <stop offset="0" stop-color="#f2a300"/>
      <stop offset="1" stop-color="#ffff36"/>
    </linearGradient>
    <linearGradient id="linear-gradient-2" x1="-2.9" y1="6.36" x2="40.16" y2="49.43" gradientUnits="userSpaceOnUse">
      <stop offset="0" stop-color="#2c2e2c"/>
      <stop offset=".99" stop-color="#000"/>
    </linearGradient>
  </defs>
  <g id="Layer_1-2" data-name="Layer 1">
    <g>
      <polygon class="cls-11" points="3.18 12.82 1.74 42.42 18.75 42.42 15.35 71.6 51.54 27.88 33.29 27.88 39.79 2 4.01 1.79 3.18 12.82"/>
      <g>
        <path class="cls-10" d="M20.66,79.04c-.23,0-.46-.04-.68-.14-.69-.3-1.1-1.03-1-1.77l3.67-27.4H7.09c-.47,0-.92-.2-1.24-.54-.32-.34-.48-.81-.45-1.28l1.66-29.93c.07-.93.88-1.62,1.81-1.56.93.07,1.63.88,1.56,1.81l-1.53,28.12h15.67c.49,0,.95.21,1.27.57.32.37.47.86.4,1.34l-3.14,23.49,30.52-36.79h-14.97c-.53,0-1.02-.24-1.34-.66-.32-.42-.43-.96-.3-1.46l6.03-24.05H9.56c-.93,0-1.69-.76-1.69-1.69s.76-1.69,1.69-1.69h35.69c.52,0,1.02.24,1.34.66.32.41.43.95.3,1.46l-6.03,24.05h16.38c.66,0,1.25.38,1.53.97.28.59.19,1.29-.23,1.79l-36.57,44.08c-.33.39-.81.61-1.3.61Z"/>
        <path class="cls-8" d="M20.04,78.41c-.23,0-.46-.04-.68-.14-.69-.3-1.1-1.03-1-1.77l3.67-27.4H6.47c-.47,0-.92-.2-1.24-.54-.32-.34-.48-.81-.45-1.28l1.66-29.93c.07-.93.88-1.62,1.81-1.56.93.06,1.63.88,1.56,1.81l-1.53,28.12h15.67c.49,0,.95.21,1.27.57.32.37.47.86.4,1.34l-3.14,23.49,30.52-36.79h-14.97c-.53,0-1.02-.24-1.34-.66-.32-.42-.43-.96-.3-1.46l6.03-24.05H8.94c-.93,0-1.69-.76-1.69-1.69s.76-1.69,1.69-1.69h35.69c.52,0,1.02.24,1.34.66.32.42.43.95.3,1.46l-6.03,24.05h16.38c.66,0,1.25.38,1.53.97.28.59.19,1.29-.23,1.79l-36.57,44.08c-.33.39-.81.61-1.3.61Z"/>
        <path class="cls-1" d="M19.41,77.79c-.23,0-.46-.04-.68-.14-.69-.3-1.1-1.03-1-1.77l3.67-27.4H5.84c-.47,0-.92-.2-1.24-.54-.32-.34-.48-.81-.45-1.28l1.66-29.93c.07-.93.88-1.62,1.81-1.56.93.06,1.63.88,1.56,1.81l-1.53,28.12h15.67c.49,0,.95.21,1.27.57.32.37.47.86.4,1.34l-3.14,23.49,30.52-36.79h-14.97c-.53,0-1.02-.24-1.34-.66-.32-.42-.43-.96-.3-1.46l6.03-24.05H8.31c-.93,0-1.69-.76-1.69-1.69s.76-1.69,1.69-1.69h35.69c.52,0,1.02.24,1.34.66.32.42.43.95.3,1.46l-6.03,24.05h16.38c.66,0,1.25.38,1.53.97.28.59.19,1.29-.23,1.79l-36.57,44.08c-.33.39-.81.61-1.3.61Z"/>
        <path class="cls-3" d="M18.79,77.16c-.23,0-.46-.04-.68-.14-.69-.3-1.1-1.03-1-1.77l3.67-27.4H5.22c-.47,0-.92-.2-1.24-.54-.32-.34-.48-.81-.45-1.28l1.66-29.93c.07-.93.88-1.62,1.81-1.56.93.06,1.63.88,1.56,1.81l-1.53,28.12h15.67c.49,0,.95.21,1.27.57.32.37.47.86.4,1.34l-3.14,23.49,30.52-36.79h-14.97c-.53,0-1.02-.24-1.34-.66-.32-.42-.43-.96-.3-1.46l6.03-24.05H7.69c-.93,0-1.69-.76-1.69-1.69s.76-1.69,1.69-1.69h35.69c.52,0,1.02.24,1.34.66.32.42.43.95.3,1.46l-6.03,24.05h16.38c.66,0,1.25.38,1.53.97.28.59.19,1.29-.23,1.79l-36.57,44.08c-.33.39-.81.61-1.3.61Z"/>
        <path class="cls-9" d="M18.16,76.54c-.23,0-.46-.04-.68-.14-.69-.3-1.1-1.03-1-1.77l3.67-27.4H4.59c-.47,0-.92-.2-1.24-.54-.32-.34-.48-.81-.45-1.28l1.66-29.93c.07-.93.88-1.62,1.81-1.56.93.06,1.63.88,1.56,1.81l-1.53,28.12h15.67c.49,0,.95.21,1.27.57.32.37.47.86.4,1.34l-3.14,23.49,30.52-36.79h-14.97c-.53,0-1.02-.24-1.34-.66-.32-.42-.43-.96-.3-1.46l6.03-24.05H7.06c-.93,0-1.69-.76-1.69-1.69s.76-1.69,1.69-1.69h35.69c.52,0,1.02.24,1.34.66.32.42.43.95.3,1.46l-6.03,24.05h16.38c.66,0,1.25.38,1.53.97.28.59.19,1.29-.23,1.79l-36.57,44.08c-.33.39-.81.61-1.3.61Z"/>
        <path class="cls-7" d="M17.54,75.91c-.23,0-.46-.04-.68-.14-.69-.3-1.1-1.03-1-1.77l3.67-27.4H3.97c-.47,0-.92-.2-1.24-.54-.32-.34-.48-.81-.45-1.28l1.66-29.93c.07-.93.88-1.62,1.81-1.56.93.06,1.63.88,1.56,1.81l-1.53,28.12h15.67c.49,0,.95.21,1.27.57.32.37.47.86.4,1.34l-3.14,23.49,30.52-36.79h-14.97c-.53,0-1.02-.24-1.34-.66-.32-.42-.43-.96-.3-1.46l6.03-24.05H6.44c-.93,0-1.69-.76-1.69-1.69s.76-1.69,1.69-1.69h35.69c.52,0,1.02.24,1.34.66.32.42.43.95.3,1.46l-6.03,24.05h16.38c.66,0,1.25.38,1.53.97.28.59.19,1.29-.23,1.79l-36.57,44.08c-.33.39-.81.61-1.3.61Z"/>
        <path class="cls-4" d="M16.91,75.29c-.23,0-.46-.04-.68-.14-.69-.3-1.1-1.03-1-1.77l3.67-27.4H3.34c-.47,0-.92-.2-1.24-.54-.32-.34-.48-.81-.45-1.28l1.66-29.93c.07-.93.88-1.62,1.81-1.56.93.06,1.63.88,1.56,1.81l-1.53,28.12h15.67c.49,0,.95.21,1.27.57.32.37.47.86.4,1.34l-3.14,23.49,30.52-36.79h-14.97c-.53,0-1.02-.24-1.34-.66-.32-.42-.43-.96-.3-1.46l6.03-24.05H5.81c-.93,0-1.69-.76-1.69-1.69s.76-1.69,1.69-1.69h35.69c.52,0,1.02.24,1.34.66.32.42.43.95.3,1.46l-6.03,24.05h16.38c.66,0,1.25.38,1.53.97.28.59.19,1.29-.23,1.79l-36.57,44.08c-.33.39-.81.61-1.3.61Z"/>
        <path class="cls-6" d="M16.29,74.66c-.23,0-.46-.04-.68-.14-.69-.3-1.1-1.03-1-1.77l3.67-27.4H2.72c-.47,0-.92-.2-1.24-.54-.32-.34-.48-.81-.45-1.28l1.66-29.93c.07-.93.88-1.62,1.81-1.56.93.06,1.63.88,1.56,1.81l-1.53,28.12h15.67c.49,0,.95.21,1.27.57.32.37.47.86.4,1.34l-3.14,23.49,30.52-36.79h-14.97c-.53,0-1.02-.24-1.34-.66-.32-.42-.43-.96-.3-1.46l6.03-24.05H5.19c-.93,0-1.69-.76-1.69-1.69s.76-1.69,1.69-1.69h35.69c.52,0,1.02.24,1.34.66.32.42.43.95.3,1.46l-6.03,24.05h16.38c.66,0,1.25.38,1.53.97.28.59.19,1.29-.23,1.79l-36.57,44.08c-.33.39-.81.61-1.3.61Z"/>
        <path class="cls-5" d="M15.66,74.04c-.23,0-.46-.04-.68-.14-.69-.3-1.1-1.03-1-1.77l3.67-27.4H2.09c-.47,0-.92-.2-1.24-.54-.32-.34-.48-.81-.45-1.28l1.66-29.93c.07-.93.88-1.62,1.81-1.56.93.07,1.63.88,1.56,1.81l-1.53,28.12h15.67c.49,0,.95.21,1.27.57.32.37.47.86.4,1.34l-3.14,23.49,30.52-36.79h-14.97c-.53,0-1.02-.24-1.34-.66-.32-.42-.43-.96-.3-1.46l6.03-24.05H4.56c-.93,0-1.69-.76-1.69-1.69s.76-1.69,1.69-1.69h35.69c.52,0,1.02.24,1.34.66.32.41.43.95.3,1.46l-6.03,24.05h16.38c.66,0,1.25.38,1.53.97.28.59.19,1.29-.23,1.79l-36.57,44.08c-.33.39-.81.61-1.3.61Z"/>
      </g>
      <path class="cls-2" d="M15.25,73.63c-.23,0-.46-.04-.68-.14-.69-.3-1.1-1.02-1-1.77l3.67-27.4H1.69c-.47,0-.92-.2-1.24-.54-.32-.34-.48-.81-.45-1.28L1.67,12.57c.07-.93.88-1.62,1.81-1.56.93.07,1.63.88,1.56,1.81l-1.53,28.12h15.67c.49,0,.95.21,1.27.58.32.37.47.85.4,1.34l-3.14,23.49,30.52-36.79h-14.97c-.53,0-1.02-.24-1.34-.66-.32-.42-.43-.96-.3-1.46l6.03-24.05H4.16c-.93,0-1.69-.75-1.69-1.69s.76-1.69,1.69-1.69h35.69c.52,0,1.02.24,1.34.66.32.41.43.95.3,1.46l-6.03,24.05h16.38c.66,0,1.25.38,1.53.97.28.59.19,1.29-.23,1.79l-36.57,44.08c-.33.4-.81.61-1.3.61Z"/>
    </g>
  </g>
</svg>