<?xml version="1.0" encoding="UTF-8"?>
<svg id="Layer_2" data-name="Layer 2" xmlns="http://www.w3.org/2000/svg" xmlns:xlink="http://www.w3.org/1999/xlink" viewBox="0 0 65.54 65.54">
  <defs>
    <style>
      .cls-1 {
        opacity: .14;
      }

      .cls-2 {
        fill: url(#linear-gradient-2);
      }

      .cls-3 {
        opacity: .21;
      }

      .cls-4 {
        opacity: .42;
      }

      .cls-5 {
        opacity: .55;
      }

      .cls-6 {
        fill: url(#linear-gradient-4);
      }

      .cls-7 {
        opacity: .48;
      }

      .cls-8 {
        opacity: .35;
      }

      .cls-9 {
        fill: url(#linear-gradient-3);
      }

      .cls-10 {
        fill: url(#linear-gradient-5);
      }

      .cls-11 {
        opacity: .08;
      }

      .cls-12 {
        opacity: .28;
      }

      .cls-13 {
        opacity: 0;
      }

      .cls-14 {
        fill: url(#linear-gradient);
      }
    </style>
    <linearGradient id="linear-gradient" x1="35.01" y1="2.73" x2="56.91" y2="24.63" gradientUnits="userSpaceOnUse">
      <stop offset="0" stop-color="#4ba129"/>
      <stop offset="1" stop-color="#c7ff3c"/>
    </linearGradient>
    <linearGradient id="linear-gradient-2" x1="3.05" y1="2.73" x2="24.95" y2="24.63" gradientUnits="userSpaceOnUse">
      <stop offset="0" stop-color="#f2a300"/>
      <stop offset="1" stop-color="#ffff36"/>
    </linearGradient>
    <linearGradient id="linear-gradient-3" x1="35.01" y1="35.45" x2="56.91" y2="57.36" gradientUnits="userSpaceOnUse">
      <stop offset="0" stop-color="#0594d6"/>
      <stop offset="1" stop-color="#7af5ff"/>
    </linearGradient>
    <linearGradient id="linear-gradient-4" x1="3.05" y1="35.45" x2="24.95" y2="57.36" gradientUnits="userSpaceOnUse">
      <stop offset="0" stop-color="#ed5d2b"/>
      <stop offset="1" stop-color="#ffb466"/>
    </linearGradient>
    <linearGradient id="linear-gradient-5" x1="2.67" y1="2.67" x2="57.46" y2="57.46" gradientUnits="userSpaceOnUse">
      <stop offset="0" stop-color="#2c2e2c"/>
      <stop offset=".99" stop-color="#000"/>
    </linearGradient>
  </defs>
  <g id="Layer_1-2" data-name="Layer 1">
    <g>
      <path class="cls-14" d="M50.38.94h-8.69c-6.08,0-8.18,4.92-8.18,11v4.33c0,6.08,3.25,11,9.33,11h6.77c6.08,0,8.82-4.92,8.82-11v-4.33c0-6.08-1.98-11-8.05-11Z"/>
      <path class="cls-2" d="M18.43.94h-8.69C3.66.94,1.56,5.87,1.56,11.94v4.33c0,6.08,3.25,11,9.33,11h6.77c6.08,0,8.82-4.92,8.82-11v-4.33c0-6.08-1.98-11-8.05-11Z"/>
      <path class="cls-9" d="M50.38,33.66h-8.69c-6.08,0-8.18,4.92-8.18,11v4.33c0,6.08,3.25,11,9.33,11h6.77c6.08,0,8.82-4.92,8.82-11v-4.33c0-6.08-1.98-11-8.05-11Z"/>
      <path class="cls-6" d="M18.43,33.66h-8.69c-6.08,0-8.18,4.92-8.18,11v4.33c0,6.08,3.25,11,9.33,11h6.77c6.08,0,8.82-4.92,8.82-11v-4.33c0-6.08-1.98-11-8.05-11Z"/>
      <g>
        <path class="cls-13" d="M56.42,5.41h-10.01c-5.03,0-9.12,4.09-9.12,9.12,0,.93.76,1.69,1.69,1.69s1.69-.75,1.69-1.69c0-3.17,2.58-5.74,5.74-5.74h10.01c3.17,0,5.75,2.58,5.75,5.74v10.01c0,3.17-2.58,5.74-5.75,5.74h-10.01c-3.17,0-5.74-2.58-5.74-5.74v-2.91c0-.93-.76-1.69-1.69-1.69s-1.69.75-1.69,1.69v2.91c0,5.03,4.09,9.12,9.12,9.12h10.01c5.03,0,9.12-4.09,9.12-9.12v-10.01c0-5.03-4.09-9.12-9.12-9.12ZM56.42,37.29h-10.01c-5.03,0-9.12,4.09-9.12,9.12,0,.93.76,1.69,1.69,1.69s1.69-.76,1.69-1.69c0-3.17,2.58-5.74,5.74-5.74h10.01c3.17,0,5.75,2.58,5.75,5.74v10.01c0,3.17-2.58,5.74-5.75,5.74h-10.01c-3.17,0-5.74-2.58-5.74-5.74v-2.91c0-.93-.76-1.69-1.69-1.69s-1.69.76-1.69,1.69v2.91c0,5.03,4.09,9.12,9.12,9.12h10.01c5.03,0,9.12-4.09,9.12-9.12v-10.01c0-5.03-4.09-9.12-9.12-9.12ZM24.54,5.41h-10.01c-5.03,0-9.12,4.09-9.12,9.12,0,.93.76,1.69,1.69,1.69s1.69-.75,1.69-1.69c0-3.17,2.58-5.74,5.74-5.74h10.01c3.17,0,5.74,2.58,5.74,5.74v10.01c0,3.17-2.57,5.74-5.74,5.74h-10.01c-3.16,0-5.74-2.58-5.74-5.74v-2.91c0-.93-.76-1.69-1.69-1.69s-1.69.75-1.69,1.69v2.91c0,5.03,4.09,9.12,9.12,9.12h10.01c5.03,0,9.12-4.09,9.12-9.12v-10.01c0-5.03-4.09-9.12-9.12-9.12ZM24.54,37.29h-10.01c-5.03,0-9.12,4.09-9.12,9.12,0,.93.76,1.69,1.69,1.69s1.69-.76,1.69-1.69c0-3.17,2.58-5.74,5.74-5.74h10.01c3.17,0,5.74,2.58,5.74,5.74v10.01c0,3.17-2.57,5.74-5.74,5.74h-10.01c-3.16,0-5.74-2.58-5.74-5.74v-2.91c0-.93-.76-1.69-1.69-1.69s-1.69.76-1.69,1.69v2.91c0,5.03,4.09,9.12,9.12,9.12h10.01c5.03,0,9.12-4.09,9.12-9.12v-10.01c0-5.03-4.09-9.12-9.12-9.12Z"/>
        <path class="cls-11" d="M55.79,4.78h-10.01c-5.03,0-9.12,4.09-9.12,9.12,0,.93.76,1.69,1.69,1.69s1.69-.75,1.69-1.69c0-3.17,2.58-5.74,5.74-5.74h10.01c3.17,0,5.75,2.58,5.75,5.74v10.01c0,3.17-2.58,5.74-5.75,5.74h-10.01c-3.17,0-5.74-2.58-5.74-5.74v-2.91c0-.93-.76-1.69-1.69-1.69s-1.69.75-1.69,1.69v2.91c0,5.03,4.09,9.12,9.12,9.12h10.01c5.03,0,9.12-4.09,9.12-9.12v-10.01c0-5.03-4.09-9.12-9.12-9.12ZM55.79,36.67h-10.01c-5.03,0-9.12,4.09-9.12,9.12,0,.93.76,1.69,1.69,1.69s1.69-.76,1.69-1.69c0-3.17,2.58-5.74,5.74-5.74h10.01c3.17,0,5.75,2.58,5.75,5.74v10.01c0,3.17-2.58,5.74-5.75,5.74h-10.01c-3.17,0-5.74-2.58-5.74-5.74v-2.91c0-.93-.76-1.69-1.69-1.69s-1.69.76-1.69,1.69v2.91c0,5.03,4.09,9.12,9.12,9.12h10.01c5.03,0,9.12-4.09,9.12-9.12v-10.01c0-5.03-4.09-9.12-9.12-9.12ZM23.91,4.78h-10.01c-5.03,0-9.12,4.09-9.12,9.12,0,.93.76,1.69,1.69,1.69s1.69-.75,1.69-1.69c0-3.17,2.58-5.74,5.74-5.74h10.01c3.17,0,5.74,2.58,5.74,5.74v10.01c0,3.17-2.57,5.74-5.74,5.74h-10.01c-3.16,0-5.74-2.58-5.74-5.74v-2.91c0-.93-.76-1.69-1.69-1.69s-1.69.75-1.69,1.69v2.91c0,5.03,4.09,9.12,9.12,9.12h10.01c5.03,0,9.12-4.09,9.12-9.12v-10.01c0-5.03-4.09-9.12-9.12-9.12ZM23.91,36.67h-10.01c-5.03,0-9.12,4.09-9.12,9.12,0,.93.76,1.69,1.69,1.69s1.69-.76,1.69-1.69c0-3.17,2.58-5.74,5.74-5.74h10.01c3.17,0,5.74,2.58,5.74,5.74v10.01c0,3.17-2.57,5.74-5.74,5.74h-10.01c-3.16,0-5.74-2.58-5.74-5.74v-2.91c0-.93-.76-1.69-1.69-1.69s-1.69.76-1.69,1.69v2.91c0,5.03,4.09,9.12,9.12,9.12h10.01c5.03,0,9.12-4.09,9.12-9.12v-10.01c0-5.03-4.09-9.12-9.12-9.12Z"/>
        <path class="cls-1" d="M55.17,4.16h-10.01c-5.03,0-9.12,4.09-9.12,9.12,0,.93.76,1.69,1.69,1.69s1.69-.75,1.69-1.69c0-3.17,2.58-5.74,5.74-5.74h10.01c3.17,0,5.75,2.58,5.75,5.74v10.01c0,3.17-2.58,5.74-5.75,5.74h-10.01c-3.17,0-5.74-2.58-5.74-5.74v-2.91c0-.93-.76-1.69-1.69-1.69s-1.69.75-1.69,1.69v2.91c0,5.03,4.09,9.12,9.12,9.12h10.01c5.03,0,9.12-4.09,9.12-9.12v-10.01c0-5.03-4.09-9.12-9.12-9.12ZM55.17,36.04h-10.01c-5.03,0-9.12,4.09-9.12,9.12,0,.93.76,1.69,1.69,1.69s1.69-.76,1.69-1.69c0-3.17,2.58-5.74,5.74-5.74h10.01c3.17,0,5.75,2.58,5.75,5.74v10.01c0,3.17-2.58,5.74-5.75,5.74h-10.01c-3.17,0-5.74-2.58-5.74-5.74v-2.91c0-.93-.76-1.69-1.69-1.69s-1.69.76-1.69,1.69v2.91c0,5.03,4.09,9.12,9.12,9.12h10.01c5.03,0,9.12-4.09,9.12-9.12v-10.01c0-5.03-4.09-9.12-9.12-9.12ZM23.29,4.16h-10.01c-5.03,0-9.12,4.09-9.12,9.12,0,.93.76,1.69,1.69,1.69s1.69-.75,1.69-1.69c0-3.17,2.58-5.74,5.74-5.74h10.01c3.17,0,5.74,2.58,5.74,5.74v10.01c0,3.17-2.57,5.74-5.74,5.74h-10.01c-3.16,0-5.74-2.58-5.74-5.74v-2.91c0-.93-.76-1.69-1.69-1.69s-1.69.75-1.69,1.69v2.91c0,5.03,4.09,9.12,9.12,9.12h10.01c5.03,0,9.12-4.09,9.12-9.12v-10.01c0-5.03-4.09-9.12-9.12-9.12ZM23.29,36.04h-10.01c-5.03,0-9.12,4.09-9.12,9.12,0,.93.76,1.69,1.69,1.69s1.69-.76,1.69-1.69c0-3.17,2.58-5.74,5.74-5.74h10.01c3.17,0,5.74,2.58,5.74,5.74v10.01c0,3.17-2.57,5.74-5.74,5.74h-10.01c-3.16,0-5.74-2.58-5.74-5.74v-2.91c0-.93-.76-1.69-1.69-1.69s-1.69.76-1.69,1.69v2.91c0,5.03,4.09,9.12,9.12,9.12h10.01c5.03,0,9.12-4.09,9.12-9.12v-10.01c0-5.03-4.09-9.12-9.12-9.12Z"/>
        <path class="cls-3" d="M54.54,3.53h-10.01c-5.03,0-9.12,4.09-9.12,9.12,0,.93.76,1.69,1.69,1.69s1.69-.75,1.69-1.69c0-3.17,2.58-5.74,5.74-5.74h10.01c3.17,0,5.75,2.58,5.75,5.74v10.01c0,3.17-2.58,5.74-5.75,5.74h-10.01c-3.17,0-5.74-2.58-5.74-5.74v-2.91c0-.93-.76-1.69-1.69-1.69s-1.69.75-1.69,1.69v2.91c0,5.03,4.09,9.12,9.12,9.12h10.01c5.03,0,9.12-4.09,9.12-9.12v-10.01c0-5.03-4.09-9.12-9.12-9.12ZM54.54,35.42h-10.01c-5.03,0-9.12,4.09-9.12,9.12,0,.93.76,1.69,1.69,1.69s1.69-.76,1.69-1.69c0-3.17,2.58-5.74,5.74-5.74h10.01c3.17,0,5.75,2.58,5.75,5.74v10.01c0,3.17-2.58,5.74-5.75,5.74h-10.01c-3.17,0-5.74-2.58-5.74-5.74v-2.91c0-.93-.76-1.69-1.69-1.69s-1.69.76-1.69,1.69v2.91c0,5.03,4.09,9.12,9.12,9.12h10.01c5.03,0,9.12-4.09,9.12-9.12v-10.01c0-5.03-4.09-9.12-9.12-9.12ZM22.66,3.53h-10.01C7.62,3.53,3.53,7.62,3.53,12.65c0,.93.76,1.69,1.69,1.69s1.69-.75,1.69-1.69c0-3.17,2.58-5.74,5.74-5.74h10.01c3.17,0,5.74,2.58,5.74,5.74v10.01c0,3.17-2.57,5.74-5.74,5.74h-10.01c-3.16,0-5.74-2.58-5.74-5.74v-2.91c0-.93-.76-1.69-1.69-1.69s-1.69.75-1.69,1.69v2.91c0,5.03,4.09,9.12,9.12,9.12h10.01c5.03,0,9.12-4.09,9.12-9.12v-10.01c0-5.03-4.09-9.12-9.12-9.12ZM22.66,35.42h-10.01c-5.03,0-9.12,4.09-9.12,9.12,0,.93.76,1.69,1.69,1.69s1.69-.76,1.69-1.69c0-3.17,2.58-5.74,5.74-5.74h10.01c3.17,0,5.74,2.58,5.74,5.74v10.01c0,3.17-2.57,5.74-5.74,5.74h-10.01c-3.16,0-5.74-2.58-5.74-5.74v-2.91c0-.93-.76-1.69-1.69-1.69s-1.69.76-1.69,1.69v2.91c0,5.03,4.09,9.12,9.12,9.12h10.01c5.03,0,9.12-4.09,9.12-9.12v-10.01c0-5.03-4.09-9.12-9.12-9.12Z"/>
        <path class="cls-12" d="M53.92,2.91h-10.01c-5.03,0-9.12,4.09-9.12,9.12,0,.93.76,1.69,1.69,1.69s1.69-.75,1.69-1.69c0-3.17,2.58-5.74,5.74-5.74h10.01c3.17,0,5.75,2.58,5.75,5.74v10.01c0,3.17-2.58,5.74-5.75,5.74h-10.01c-3.17,0-5.74-2.58-5.74-5.74v-2.91c0-.93-.76-1.69-1.69-1.69s-1.69.75-1.69,1.69v2.91c0,5.03,4.09,9.12,9.12,9.12h10.01c5.03,0,9.12-4.09,9.12-9.12v-10.01c0-5.03-4.09-9.12-9.12-9.12ZM53.92,34.79h-10.01c-5.03,0-9.12,4.09-9.12,9.12,0,.93.76,1.69,1.69,1.69s1.69-.76,1.69-1.69c0-3.17,2.58-5.74,5.74-5.74h10.01c3.17,0,5.75,2.58,5.75,5.74v10.01c0,3.17-2.58,5.74-5.75,5.74h-10.01c-3.17,0-5.74-2.58-5.74-5.74v-2.91c0-.93-.76-1.69-1.69-1.69s-1.69.76-1.69,1.69v2.91c0,5.03,4.09,9.12,9.12,9.12h10.01c5.03,0,9.12-4.09,9.12-9.12v-10.01c0-5.03-4.09-9.12-9.12-9.12ZM22.04,2.91h-10.01C7,2.91,2.91,7,2.91,12.03c0,.93.76,1.69,1.69,1.69s1.69-.75,1.69-1.69c0-3.17,2.58-5.74,5.74-5.74h10.01c3.17,0,5.74,2.58,5.74,5.74v10.01c0,3.17-2.57,5.74-5.74,5.74h-10.01c-3.16,0-5.74-2.58-5.74-5.74v-2.91c0-.93-.76-1.69-1.69-1.69s-1.69.75-1.69,1.69v2.91c0,5.03,4.09,9.12,9.12,9.12h10.01c5.03,0,9.12-4.09,9.12-9.12v-10.01c0-5.03-4.09-9.12-9.12-9.12ZM22.04,34.79h-10.01c-5.03,0-9.12,4.09-9.12,9.12,0,.93.76,1.69,1.69,1.69s1.69-.76,1.69-1.69c0-3.17,2.58-5.74,5.74-5.74h10.01c3.17,0,5.74,2.58,5.74,5.74v10.01c0,3.17-2.57,5.74-5.74,5.74h-10.01c-3.16,0-5.74-2.58-5.74-5.74v-2.91c0-.93-.76-1.69-1.69-1.69s-1.69.76-1.69,1.69v2.91c0,5.03,4.09,9.12,9.12,9.12h10.01c5.03,0,9.12-4.09,9.12-9.12v-10.01c0-5.03-4.09-9.12-9.12-9.12Z"/>
        <path class="cls-8" d="M53.29,2.28h-10.01c-5.03,0-9.12,4.09-9.12,9.12,0,.93.76,1.69,1.69,1.69s1.69-.75,1.69-1.69c0-3.17,2.58-5.74,5.74-5.74h10.01c3.17,0,5.75,2.58,5.75,5.74v10.01c0,3.17-2.58,5.74-5.75,5.74h-10.01c-3.17,0-5.74-2.58-5.74-5.74v-2.91c0-.93-.76-1.69-1.69-1.69s-1.69.75-1.69,1.69v2.91c0,5.03,4.09,9.12,9.12,9.12h10.01c5.03,0,9.12-4.09,9.12-9.12v-10.01c0-5.03-4.09-9.12-9.12-9.12ZM53.29,34.17h-10.01c-5.03,0-9.12,4.09-9.12,9.12,0,.93.76,1.69,1.69,1.69s1.69-.76,1.69-1.69c0-3.17,2.58-5.74,5.74-5.74h10.01c3.17,0,5.75,2.58,5.75,5.74v10.01c0,3.17-2.58,5.74-5.75,5.74h-10.01c-3.17,0-5.74-2.58-5.74-5.74v-2.91c0-.93-.76-1.69-1.69-1.69s-1.69.76-1.69,1.69v2.91c0,5.03,4.09,9.12,9.12,9.12h10.01c5.03,0,9.12-4.09,9.12-9.12v-10.01c0-5.03-4.09-9.12-9.12-9.12ZM21.41,2.28h-10.01C6.37,2.28,2.28,6.37,2.28,11.4c0,.93.76,1.69,1.69,1.69s1.69-.75,1.69-1.69c0-3.17,2.58-5.74,5.74-5.74h10.01c3.17,0,5.74,2.58,5.74,5.74v10.01c0,3.17-2.57,5.74-5.74,5.74h-10.01c-3.16,0-5.74-2.58-5.74-5.74v-2.91c0-.93-.76-1.69-1.69-1.69s-1.69.75-1.69,1.69v2.91c0,5.03,4.09,9.12,9.12,9.12h10.01c5.03,0,9.12-4.09,9.12-9.12v-10.01c0-5.03-4.09-9.12-9.12-9.12ZM21.41,34.17h-10.01c-5.03,0-9.12,4.09-9.12,9.12,0,.93.76,1.69,1.69,1.69s1.69-.76,1.69-1.69c0-3.17,2.58-5.74,5.74-5.74h10.01c3.17,0,5.74,2.58,5.74,5.74v10.01c0,3.17-2.57,5.74-5.74,5.74h-10.01c-3.16,0-5.74-2.58-5.74-5.74v-2.91c0-.93-.76-1.69-1.69-1.69s-1.69.76-1.69,1.69v2.91c0,5.03,4.09,9.12,9.12,9.12h10.01c5.03,0,9.12-4.09,9.12-9.12v-10.01c0-5.03-4.09-9.12-9.12-9.12Z"/>
        <path class="cls-4" d="M52.67,1.66h-10.01c-5.03,0-9.12,4.09-9.12,9.12,0,.93.76,1.69,1.69,1.69s1.69-.75,1.69-1.69c0-3.17,2.58-5.74,5.74-5.74h10.01c3.17,0,5.75,2.58,5.75,5.74v10.01c0,3.17-2.58,5.74-5.75,5.74h-10.01c-3.17,0-5.74-2.58-5.74-5.74v-2.91c0-.93-.76-1.69-1.69-1.69s-1.69.75-1.69,1.69v2.91c0,5.03,4.09,9.12,9.12,9.12h10.01c5.03,0,9.12-4.09,9.12-9.12v-10.01c0-5.03-4.09-9.12-9.12-9.12ZM52.67,33.54h-10.01c-5.03,0-9.12,4.09-9.12,9.12,0,.93.76,1.69,1.69,1.69s1.69-.76,1.69-1.69c0-3.17,2.58-5.74,5.74-5.74h10.01c3.17,0,5.75,2.58,5.75,5.74v10.01c0,3.17-2.58,5.74-5.75,5.74h-10.01c-3.17,0-5.74-2.58-5.74-5.74v-2.91c0-.93-.76-1.69-1.69-1.69s-1.69.76-1.69,1.69v2.91c0,5.03,4.09,9.12,9.12,9.12h10.01c5.03,0,9.12-4.09,9.12-9.12v-10.01c0-5.03-4.09-9.12-9.12-9.12ZM20.79,1.66h-10.01C5.75,1.66,1.66,5.75,1.66,10.78c0,.93.76,1.69,1.69,1.69s1.69-.75,1.69-1.69c0-3.17,2.58-5.74,5.74-5.74h10.01c3.17,0,5.74,2.58,5.74,5.74v10.01c0,3.17-2.57,5.74-5.74,5.74h-10.01c-3.16,0-5.74-2.58-5.74-5.74v-2.91c0-.93-.76-1.69-1.69-1.69s-1.69.75-1.69,1.69v2.91c0,5.03,4.09,9.12,9.12,9.12h10.01c5.03,0,9.12-4.09,9.12-9.12v-10.01c0-5.03-4.09-9.12-9.12-9.12ZM20.79,33.54h-10.01c-5.03,0-9.12,4.09-9.12,9.12,0,.93.76,1.69,1.69,1.69s1.69-.76,1.69-1.69c0-3.17,2.58-5.74,5.74-5.74h10.01c3.17,0,5.74,2.58,5.74,5.74v10.01c0,3.17-2.57,5.74-5.74,5.74h-10.01c-3.16,0-5.74-2.58-5.74-5.74v-2.91c0-.93-.76-1.69-1.69-1.69s-1.69.76-1.69,1.69v2.91c0,5.03,4.09,9.12,9.12,9.12h10.01c5.03,0,9.12-4.09,9.12-9.12v-10.01c0-5.03-4.09-9.12-9.12-9.12Z"/>
        <path class="cls-7" d="M52.04,1.03h-10.01c-5.03,0-9.12,4.09-9.12,9.12,0,.93.76,1.69,1.69,1.69s1.69-.75,1.69-1.69c0-3.17,2.58-5.74,5.74-5.74h10.01c3.17,0,5.75,2.58,5.75,5.74v10.01c0,3.17-2.58,5.74-5.75,5.74h-10.01c-3.17,0-5.74-2.58-5.74-5.74v-2.91c0-.93-.76-1.69-1.69-1.69s-1.69.75-1.69,1.69v2.91c0,5.03,4.09,9.12,9.12,9.12h10.01c5.03,0,9.12-4.09,9.12-9.12v-10.01c0-5.03-4.09-9.12-9.12-9.12ZM52.04,32.92h-10.01c-5.03,0-9.12,4.09-9.12,9.12,0,.93.76,1.69,1.69,1.69s1.69-.76,1.69-1.69c0-3.17,2.58-5.74,5.74-5.74h10.01c3.17,0,5.75,2.58,5.75,5.74v10.01c0,3.17-2.58,5.74-5.75,5.74h-10.01c-3.17,0-5.74-2.58-5.74-5.74v-2.91c0-.93-.76-1.69-1.69-1.69s-1.69.76-1.69,1.69v2.91c0,5.03,4.09,9.12,9.12,9.12h10.01c5.03,0,9.12-4.09,9.12-9.12v-10.01c0-5.03-4.09-9.12-9.12-9.12ZM20.16,1.03h-10.01C5.12,1.03,1.03,5.12,1.03,10.15c0,.93.76,1.69,1.69,1.69s1.69-.75,1.69-1.69c0-3.17,2.58-5.74,5.74-5.74h10.01c3.17,0,5.74,2.58,5.74,5.74v10.01c0,3.17-2.57,5.74-5.74,5.74h-10.01c-3.16,0-5.74-2.58-5.74-5.74v-2.91c0-.93-.76-1.69-1.69-1.69s-1.69.75-1.69,1.69v2.91c0,5.03,4.09,9.12,9.12,9.12h10.01c5.03,0,9.12-4.09,9.12-9.12v-10.01c0-5.03-4.09-9.12-9.12-9.12ZM20.16,32.92h-10.01c-5.03,0-9.12,4.09-9.12,9.12,0,.93.76,1.69,1.69,1.69s1.69-.76,1.69-1.69c0-3.17,2.58-5.74,5.74-5.74h10.01c3.17,0,5.74,2.58,5.74,5.74v10.01c0,3.17-2.57,5.74-5.74,5.74h-10.01c-3.16,0-5.74-2.58-5.74-5.74v-2.91c0-.93-.76-1.69-1.69-1.69s-1.69.76-1.69,1.69v2.91c0,5.03,4.09,9.12,9.12,9.12h10.01c5.03,0,9.12-4.09,9.12-9.12v-10.01c0-5.03-4.09-9.12-9.12-9.12Z"/>
        <path class="cls-5" d="M51.42.41h-10.01c-5.03,0-9.12,4.09-9.12,9.12,0,.93.76,1.69,1.69,1.69s1.69-.75,1.69-1.69c0-3.17,2.58-5.74,5.74-5.74h10.01c3.17,0,5.75,2.58,5.75,5.74v10.01c0,3.17-2.58,5.74-5.75,5.74h-10.01c-3.17,0-5.74-2.58-5.74-5.74v-2.91c0-.93-.76-1.69-1.69-1.69s-1.69.75-1.69,1.69v2.91c0,5.03,4.09,9.12,9.12,9.12h10.01c5.03,0,9.12-4.09,9.12-9.12v-10.01c0-5.03-4.09-9.12-9.12-9.12ZM51.42,32.29h-10.01c-5.03,0-9.12,4.09-9.12,9.12,0,.93.76,1.69,1.69,1.69s1.69-.76,1.69-1.69c0-3.17,2.58-5.74,5.74-5.74h10.01c3.17,0,5.75,2.58,5.75,5.74v10.01c0,3.17-2.58,5.74-5.75,5.74h-10.01c-3.17,0-5.74-2.58-5.74-5.74v-2.91c0-.93-.76-1.69-1.69-1.69s-1.69.76-1.69,1.69v2.91c0,5.03,4.09,9.12,9.12,9.12h10.01c5.03,0,9.12-4.09,9.12-9.12v-10.01c0-5.03-4.09-9.12-9.12-9.12ZM19.54.41h-10.01C4.5.41.41,4.5.41,9.53c0,.93.76,1.69,1.69,1.69s1.69-.75,1.69-1.69c0-3.17,2.58-5.74,5.74-5.74h10.01c3.17,0,5.74,2.58,5.74,5.74v10.01c0,3.17-2.57,5.74-5.74,5.74h-10.01c-3.16,0-5.74-2.58-5.74-5.74v-2.91c0-.93-.76-1.69-1.69-1.69s-1.69.75-1.69,1.69v2.91c0,5.03,4.09,9.12,9.12,9.12h10.01c5.03,0,9.12-4.09,9.12-9.12v-10.01C28.66,4.5,24.57.41,19.54.41ZM19.54,32.29h-10.01c-5.03,0-9.12,4.09-9.12,9.12,0,.93.76,1.69,1.69,1.69s1.69-.76,1.69-1.69c0-3.17,2.58-5.74,5.74-5.74h10.01c3.17,0,5.74,2.58,5.74,5.74v10.01c0,3.17-2.57,5.74-5.74,5.74h-10.01c-3.16,0-5.74-2.58-5.74-5.74v-2.91c0-.93-.76-1.69-1.69-1.69s-1.69.76-1.69,1.69v2.91c0,5.03,4.09,9.12,9.12,9.12h10.01c5.03,0,9.12-4.09,9.12-9.12v-10.01c0-5.03-4.09-9.12-9.12-9.12Z"/>
      </g>
      <path class="cls-10" d="M19.13,0h-10.01C4.09,0,0,4.09,0,9.12c0,.93.76,1.69,1.69,1.69s1.69-.75,1.69-1.69c0-3.17,2.58-5.74,5.74-5.74h10.01c3.17,0,5.74,2.58,5.74,5.74v10.01c0,3.17-2.57,5.74-5.74,5.74h-10.01c-3.16,0-5.74-2.58-5.74-5.74v-2.91c0-.93-.76-1.69-1.69-1.69s-1.69.75-1.69,1.69v2.91c0,5.03,4.09,9.12,9.12,9.12h10.01c5.03,0,9.12-4.09,9.12-9.12v-10.01c0-5.03-4.09-9.12-9.12-9.12ZM51.01,0h-10.01c-5.03,0-9.12,4.09-9.12,9.12,0,.93.76,1.69,1.69,1.69s1.69-.75,1.69-1.69c0-3.17,2.58-5.74,5.74-5.74h10.01c3.17,0,5.75,2.58,5.75,5.74v10.01c0,3.17-2.58,5.74-5.75,5.74h-10.01c-3.17,0-5.74-2.58-5.74-5.74v-2.91c0-.93-.76-1.69-1.69-1.69s-1.69.75-1.69,1.69v2.91c0,5.03,4.09,9.12,9.12,9.12h10.01c5.03,0,9.12-4.09,9.12-9.12v-10.01c0-5.03-4.09-9.12-9.12-9.12ZM19.13,31.89h-10.01c-5.03,0-9.12,4.09-9.12,9.12,0,.93.76,1.69,1.69,1.69s1.69-.76,1.69-1.69c0-3.17,2.58-5.74,5.74-5.74h10.01c3.17,0,5.74,2.58,5.74,5.74v10.01c0,3.17-2.57,5.74-5.74,5.74h-10.01c-3.16,0-5.74-2.58-5.74-5.74v-2.91c0-.93-.76-1.69-1.69-1.69s-1.69.76-1.69,1.69v2.91c0,5.03,4.09,9.12,9.12,9.12h10.01c5.03,0,9.12-4.09,9.12-9.12v-10.01c0-5.03-4.09-9.12-9.12-9.12ZM51.01,31.89h-10.01c-5.03,0-9.12,4.09-9.12,9.12,0,.93.76,1.69,1.69,1.69s1.69-.76,1.69-1.69c0-3.17,2.58-5.74,5.74-5.74h10.01c3.17,0,5.75,2.58,5.75,5.74v10.01c0,3.17-2.58,5.74-5.75,5.74h-10.01c-3.17,0-5.74-2.58-5.74-5.74v-2.91c0-.93-.76-1.69-1.69-1.69s-1.69.76-1.69,1.69v2.91c0,5.03,4.09,9.12,9.12,9.12h10.01c5.03,0,9.12-4.09,9.12-9.12v-10.01c0-5.03-4.09-9.12-9.12-9.12Z"/>
    </g>
  </g>
</svg>