<?xml version="1.0" encoding="UTF-8"?>
<svg id="Layer_2" data-name="Layer 2" xmlns="http://www.w3.org/2000/svg" viewBox="0 0 20.95 27.36">
  <defs>
    <style>
      .cls-1 {
        fill-rule: evenodd;
      }
    </style>
  </defs>
  <g id="_1" data-name="1">
    <path class="cls-1" d="M11.16,5.07c.07-.29.35-.47.64-.4.12.03.21.09.28.17,1.99,2.36,3.61,4.77,4.8,7.23,1.21,2.47,1.99,5,2.36,7.57.04.28-.14.54-.41.59-2.71.64-5.47.97-8.26.97-2.8,0-5.61-.31-8.46-.97-.29-.07-.47-.36-.4-.64,1.62-5.19,10.37-8.94,9.45-14.53h0ZM20.95,24.07c0-.52-.2-.99-.55-1.33-.34-.33-.81-.55-1.33-.55H1.88c-.51,0-.99.21-1.32.55-.35.34-.55.81-.55,1.33v1.41c0,.52.21.99.55,1.32.34.35.81.55,1.32.55h17.2c.51,0,.99-.21,1.33-.55.34-.33.55-.81.55-1.32v-1.41ZM8.41,0c.88,0,1.68.36,2.27.94.58.58.94,1.38.94,2.27s-.37,1.7-.94,2.27h0c-.59.58-1.39.95-2.27.95s-1.69-.36-2.28-.94c-.59-.59-.94-1.39-.94-2.28s.36-1.69.94-2.27h0c.58-.58,1.38-.94,2.28-.94h0Z"/>
  </g>
</svg>