<?xml version="1.0" encoding="UTF-8"?>
<svg id="Layer_2" data-name="Layer 2" xmlns="http://www.w3.org/2000/svg" xmlns:xlink="http://www.w3.org/1999/xlink" viewBox="0 0 70.95 70.95">
  <defs>
    <style>
      .cls-1 {
        opacity: .14;
      }

      .cls-2 {
        fill: url(#linear-gradient-2);
      }

      .cls-3 {
        opacity: .21;
      }

      .cls-4 {
        opacity: .42;
      }

      .cls-5 {
        opacity: .55;
      }

      .cls-6 {
        opacity: .48;
      }

      .cls-7 {
        opacity: .35;
      }

      .cls-8 {
        opacity: .08;
      }

      .cls-9 {
        opacity: .28;
      }

      .cls-10 {
        opacity: 0;
      }

      .cls-11 {
        fill: url(#linear-gradient);
      }
    </style>
    <linearGradient id="linear-gradient" x1="8.97" y1="8.9" x2="57.4" y2="57.33" gradientUnits="userSpaceOnUse">
      <stop offset="0" stop-color="#0594d6"/>
      <stop offset="1" stop-color="#7af5ff"/>
    </linearGradient>
    <linearGradient id="linear-gradient-2" x1="9.6" y1="9.6" x2="55.94" y2="55.93" gradientUnits="userSpaceOnUse">
      <stop offset="0" stop-color="#2c2e2c"/>
      <stop offset=".99" stop-color="#000"/>
    </linearGradient>
  </defs>
  <g id="Layer_1-2" data-name="Layer 1">
    <g>
      <path class="cls-11" d="M64.15,32.92c0,17.21-13.95,31.16-31.16,31.16S1.82,50.13,1.82,32.92,15.77,1.75,32.98,1.75s31.16,13.95,31.16,31.16Z"/>
      <g>
        <path class="cls-10" d="M17.98,38.18c0,.93.76,1.69,1.69,1.69h29.88l-9.62,9.62c-.66.66-.66,1.73,0,2.39.33.33.76.5,1.19.5s.86-.17,1.2-.5l12.51-12.51c.66-.66.66-1.73,0-2.39l-12.51-12.51c-.66-.66-1.73-.66-2.39,0-.66.66-.66,1.73,0,2.39l9.62,9.62h-29.88c-.93,0-1.69.76-1.69,1.69ZM38.18,5.41c-11.65,0-22.53,6.27-28.37,16.37-1.06,1.83-1.95,3.78-2.64,5.78-.3.88.17,1.84,1.05,2.14.88.3,1.84-.17,2.15-1.05.62-1.8,1.41-3.54,2.36-5.19,5.25-9.06,15-14.68,25.45-14.68,16.21,0,29.39,13.19,29.39,29.39s-13.19,29.39-29.39,29.39-29.39-13.19-29.39-29.39c0-.93-.76-1.69-1.69-1.69s-1.69.76-1.69,1.69c0,18.07,14.7,32.77,32.77,32.77s32.78-14.7,32.78-32.77S56.25,5.41,38.18,5.41Z"/>
        <path class="cls-8" d="M17.35,37.55c0,.93.76,1.69,1.69,1.69h29.88l-9.62,9.62c-.66.66-.66,1.73,0,2.39.33.33.76.5,1.19.5s.86-.17,1.2-.5l12.51-12.51c.66-.66.66-1.73,0-2.39l-12.51-12.51c-.66-.66-1.73-.66-2.39,0-.66.66-.66,1.73,0,2.39l9.62,9.62h-29.88c-.93,0-1.69.76-1.69,1.69ZM37.55,4.78c-11.65,0-22.53,6.27-28.37,16.37-1.06,1.83-1.95,3.78-2.64,5.78-.3.88.17,1.84,1.05,2.14.88.3,1.84-.17,2.15-1.05.62-1.8,1.41-3.54,2.36-5.19,5.25-9.06,15-14.68,25.45-14.68,16.21,0,29.39,13.19,29.39,29.39s-13.19,29.39-29.39,29.39-29.39-13.19-29.39-29.39c0-.93-.76-1.69-1.69-1.69s-1.69.76-1.69,1.69c0,18.07,14.7,32.77,32.77,32.77s32.78-14.7,32.78-32.77S55.62,4.78,37.55,4.78Z"/>
        <path class="cls-1" d="M16.73,36.93c0,.93.76,1.69,1.69,1.69h29.88l-9.62,9.62c-.66.66-.66,1.73,0,2.39.33.33.76.5,1.19.5s.86-.17,1.2-.5l12.51-12.51c.66-.66.66-1.73,0-2.39l-12.51-12.51c-.66-.66-1.73-.66-2.39,0-.66.66-.66,1.73,0,2.39l9.62,9.62h-29.88c-.93,0-1.69.76-1.69,1.69ZM36.93,4.16c-11.65,0-22.53,6.27-28.37,16.37-1.06,1.83-1.95,3.78-2.64,5.78-.3.88.17,1.84,1.05,2.14.88.3,1.84-.17,2.15-1.05.62-1.8,1.41-3.54,2.36-5.19,5.25-9.06,15-14.68,25.45-14.68,16.21,0,29.39,13.19,29.39,29.39s-13.19,29.39-29.39,29.39S7.53,53.14,7.53,36.93c0-.93-.76-1.69-1.69-1.69s-1.69.76-1.69,1.69c0,18.07,14.7,32.77,32.77,32.77s32.78-14.7,32.78-32.77S55,4.16,36.93,4.16Z"/>
        <path class="cls-3" d="M16.1,36.3c0,.93.76,1.69,1.69,1.69h29.88l-9.62,9.62c-.66.66-.66,1.73,0,2.39.33.33.76.5,1.19.5s.86-.17,1.2-.5l12.51-12.51c.66-.66.66-1.73,0-2.39l-12.51-12.51c-.66-.66-1.73-.66-2.39,0-.66.66-.66,1.73,0,2.39l9.62,9.62h-29.88c-.93,0-1.69.76-1.69,1.69ZM36.3,3.53c-11.65,0-22.53,6.27-28.37,16.37-1.06,1.83-1.95,3.78-2.64,5.78-.3.88.17,1.84,1.05,2.14.88.3,1.84-.17,2.15-1.05.62-1.8,1.41-3.54,2.36-5.19,5.25-9.06,15-14.68,25.45-14.68,16.21,0,29.39,13.19,29.39,29.39s-13.19,29.39-29.39,29.39S6.91,52.51,6.91,36.3c0-.93-.76-1.69-1.69-1.69s-1.69.76-1.69,1.69c0,18.07,14.7,32.77,32.77,32.77s32.78-14.7,32.78-32.77S54.37,3.53,36.3,3.53Z"/>
        <path class="cls-9" d="M15.48,35.68c0,.93.76,1.69,1.69,1.69h29.88l-9.62,9.62c-.66.66-.66,1.73,0,2.39.33.33.76.5,1.19.5s.86-.17,1.2-.5l12.51-12.51c.66-.66.66-1.73,0-2.39l-12.51-12.51c-.66-.66-1.73-.66-2.39,0-.66.66-.66,1.73,0,2.39l9.62,9.62h-29.88c-.93,0-1.69.76-1.69,1.69ZM35.68,2.91c-11.65,0-22.53,6.27-28.37,16.37-1.06,1.83-1.95,3.78-2.64,5.78-.3.88.17,1.84,1.05,2.14.88.3,1.84-.17,2.15-1.05.62-1.8,1.41-3.54,2.36-5.19,5.25-9.06,15-14.68,25.45-14.68,16.21,0,29.39,13.19,29.39,29.39s-13.19,29.39-29.39,29.39S6.28,51.89,6.28,35.68c0-.93-.76-1.69-1.69-1.69s-1.69.76-1.69,1.69c0,18.07,14.7,32.77,32.77,32.77s32.78-14.7,32.78-32.77S53.75,2.91,35.68,2.91Z"/>
        <path class="cls-7" d="M14.85,35.05c0,.93.76,1.69,1.69,1.69h29.88l-9.62,9.62c-.66.66-.66,1.73,0,2.39.33.33.76.5,1.19.5s.86-.17,1.2-.5l12.51-12.51c.66-.66.66-1.73,0-2.39l-12.51-12.51c-.66-.66-1.73-.66-2.39,0-.66.66-.66,1.73,0,2.39l9.62,9.62h-29.88c-.93,0-1.69.76-1.69,1.69ZM35.05,2.28c-11.65,0-22.53,6.27-28.37,16.37-1.06,1.83-1.95,3.78-2.64,5.78-.3.88.17,1.84,1.05,2.14.88.3,1.84-.17,2.15-1.05.62-1.8,1.41-3.54,2.36-5.19,5.25-9.06,15-14.68,25.45-14.68,16.21,0,29.39,13.19,29.39,29.39s-13.19,29.39-29.39,29.39S5.66,51.26,5.66,35.05c0-.93-.76-1.69-1.69-1.69s-1.69.76-1.69,1.69c0,18.07,14.7,32.77,32.77,32.77s32.78-14.7,32.78-32.77S53.12,2.28,35.05,2.28Z"/>
        <path class="cls-4" d="M14.23,34.43c0,.93.76,1.69,1.69,1.69h29.88l-9.62,9.62c-.66.66-.66,1.73,0,2.39.33.33.76.5,1.19.5s.86-.17,1.2-.5l12.51-12.51c.66-.66.66-1.73,0-2.39l-12.51-12.51c-.66-.66-1.73-.66-2.39,0-.66.66-.66,1.73,0,2.39l9.62,9.62H15.92c-.93,0-1.69.76-1.69,1.69ZM34.43,1.66C22.77,1.66,11.9,7.93,6.05,18.02c-1.06,1.83-1.95,3.78-2.64,5.78-.3.88.17,1.84,1.05,2.14.88.3,1.84-.17,2.15-1.05.62-1.8,1.41-3.54,2.36-5.19,5.25-9.06,15-14.68,25.45-14.68,16.21,0,29.39,13.19,29.39,29.39s-13.19,29.39-29.39,29.39S5.03,50.64,5.03,34.43c0-.93-.76-1.69-1.69-1.69s-1.69.76-1.69,1.69c0,18.07,14.7,32.77,32.77,32.77s32.78-14.7,32.78-32.77S52.5,1.66,34.43,1.66Z"/>
        <path class="cls-6" d="M13.6,33.8c0,.93.76,1.69,1.69,1.69h29.88l-9.62,9.62c-.66.66-.66,1.73,0,2.39.33.33.76.5,1.19.5s.86-.17,1.2-.5l12.51-12.51c.66-.66.66-1.73,0-2.39l-12.51-12.51c-.66-.66-1.73-.66-2.39,0-.66.66-.66,1.73,0,2.39l9.62,9.62H15.29c-.93,0-1.69.76-1.69,1.69ZM33.8,1.03C22.15,1.03,11.28,7.3,5.43,17.4c-1.06,1.83-1.95,3.78-2.64,5.78-.3.88.17,1.84,1.05,2.14.88.3,1.84-.17,2.15-1.05.62-1.8,1.41-3.54,2.36-5.19,5.25-9.06,15-14.68,25.45-14.68,16.21,0,29.39,13.19,29.39,29.39s-13.19,29.39-29.39,29.39S4.41,50.01,4.41,33.8c0-.93-.76-1.69-1.69-1.69s-1.69.76-1.69,1.69c0,18.07,14.7,32.77,32.77,32.77s32.78-14.7,32.78-32.77S51.87,1.03,33.8,1.03Z"/>
        <path class="cls-5" d="M12.98,33.18c0,.93.76,1.69,1.69,1.69h29.88l-9.62,9.62c-.66.66-.66,1.73,0,2.39.33.33.76.5,1.19.5s.86-.17,1.2-.5l12.51-12.51c.66-.66.66-1.73,0-2.39l-12.51-12.51c-.66-.66-1.73-.66-2.39,0-.66.66-.66,1.73,0,2.39l9.62,9.62H14.67c-.93,0-1.69.76-1.69,1.69ZM33.18.41C21.52.41,10.65,6.68,4.8,16.77c-1.06,1.83-1.95,3.78-2.64,5.78-.3.88.17,1.84,1.05,2.14.88.3,1.84-.17,2.15-1.05.62-1.8,1.41-3.54,2.36-5.19C12.97,9.41,22.72,3.78,33.18,3.78c16.21,0,29.39,13.19,29.39,29.39s-13.19,29.39-29.39,29.39S3.78,49.39,3.78,33.18c0-.93-.76-1.69-1.69-1.69s-1.69.76-1.69,1.69c0,18.07,14.7,32.77,32.77,32.77s32.78-14.7,32.78-32.77S51.25.41,33.18.41Z"/>
      </g>
      <path class="cls-2" d="M32.77,0C21.12,0,10.24,6.27,4.4,16.37c-1.06,1.83-1.95,3.78-2.64,5.78-.3.88.17,1.84,1.05,2.14.88.3,1.84-.17,2.15-1.05.62-1.8,1.41-3.54,2.36-5.19C12.56,9,22.32,3.38,32.77,3.38c16.21,0,29.39,13.19,29.39,29.39s-13.19,29.39-29.39,29.39S3.38,48.98,3.38,32.77c0-.93-.76-1.69-1.69-1.69s-1.69.76-1.69,1.69c0,18.07,14.7,32.77,32.77,32.77s32.78-14.7,32.78-32.77S50.84,0,32.77,0ZM12.57,32.77c0,.93.76,1.69,1.69,1.69h29.88l-9.62,9.62c-.66.66-.66,1.73,0,2.39.33.33.76.5,1.19.5s.86-.17,1.2-.5l12.51-12.51c.66-.66.66-1.73,0-2.39l-12.51-12.51c-.66-.66-1.73-.66-2.39,0-.66.66-.66,1.73,0,2.39l9.62,9.62H14.26c-.93,0-1.69.76-1.69,1.69Z"/>
    </g>
  </g>
</svg>