<?xml version="1.0" encoding="UTF-8"?>
<svg id="Layer_2" data-name="Layer 2" xmlns="http://www.w3.org/2000/svg" viewBox="0 0 13.57 27.35">
  <defs>
    <style>
      .cls-1 {
        fill-rule: evenodd;
      }
    </style>
  </defs>
  <g id="_1" data-name="1">
    <path class="cls-1" d="M13.57,3.2v17.26c0,.59-.32,1.12-.81,1.41h0l-6.3,3.64c-.77.43-1.76.18-2.2-.6l-1.43-2.49c-.45-.77-.17-1.75.58-2.2l4.07-2.34V3.2h6.1ZM8.48,0h4.07c.55,0,1.01.46,1.01,1.01v1.8h-6.1v-1.8c0-.55.46-1.01,1.01-1.01h0ZM5.35,26.04c-.13.23-.32.42-.57.57l-.92.53c-.77.45-1.77.17-2.22-.59l-1.43-2.47c-.43-.78-.17-1.76.6-2.2l.92-.54c.16-.08.34-.15.5-.18-.28.49-.33,1.11-.01,1.64l1.43,2.48c.35.61,1.04.91,1.7.77h0Z"/>
  </g>
</svg>