<?xml version="1.0" encoding="UTF-8"?>
<svg id="Layer_2" data-name="Layer 2" xmlns="http://www.w3.org/2000/svg" viewBox="0 0 27.36 20.41">
  <g id="_1" data-name="1">
    <path d="M9.04,5.28h4v.23h1.67v-.23h3.99v.3c0,.16-.14.3-.29.3h-9.08c-.15,0-.29-.14-.29-.3v-.3ZM16.89,19.79h3.98v.23h1.69v-.23h3.98v.3c0,.16-.13.31-.28.31h-9.08c-.17,0-.29-.15-.29-.31v-.3ZM18.01,14.52h7.22c.15,0,.32.14.32.3v4.38c0,.16-.16.22-.32.22h-7.22c-.15,0-.32-.06-.32-.22v-4.38c0-.17.17-.3.32-.3h0ZM1.59,19.79h3.98v.23h1.69v-.23h4v.3c0,.16-.14.31-.29.31H1.88c-.17,0-.29-.15-.29-.31v-.3ZM2.73,14.52h7.2c.15,0,.32.14.32.3v4.38c0,.16-.16.22-.32.22H2.73c-.17,0-.32-.06-.32-.22v-4.38c0-.17.15-.3.32-.3h0ZM13.35,6.51h.66c.1,0,.17.08.17.19v1.95h4.11v-.65c0-.16.12-.29.28-.29h5.33c.15,0,.27.12.27.29v.65h3.09c.06,0,.1.05.1.11v.68c0,.05-.04.09-.1.09h-3.09v.54c0,.17-.12.3-.27.3h-2.01v3c0,.1-.09.18-.18.18h-.6c-.1,0-.2-.08-.2-.18v-3h-2.34c-.15,0-.28-.13-.28-.3v-.54h-9.22v.61c0,.15-.12.28-.29.28h-2.34v3.08c0,.1-.08.18-.2.18h-.59c-.11,0-.19-.09-.19-.18v-3.08h-1.99c-.17,0-.29-.12-.29-.28v-.61H.1c-.06,0-.1-.04-.1-.09v-.68c0-.06.04-.11.1-.11h3.08v-.59c0-.15.12-.28.29-.28h5.31c.16,0,.29.12.29.28v.59h4.11s-.01-.03-.01-.04v-1.91c0-.11.08-.19.19-.19h0ZM10.17,0h7.2c.16,0,.32.14.32.31v4.38c0,.16-.15.22-.32.22h-7.2c-.17,0-.32-.06-.32-.22V.31c0-.17.15-.31.32-.31h0Z"/>
  </g>
</svg>