<?xml version="1.0" encoding="UTF-8"?>
<svg id="Layer_2" data-name="Layer 2" xmlns="http://www.w3.org/2000/svg" viewBox="0 0 27.36 19.27">
  <defs>
    <style>
      .cls-1 {
        fill-rule: evenodd;
      }
    </style>
  </defs>
  <g id="_1" data-name="1">
    <path class="cls-1" d="M15.52,13.27c.14.23.21.52.21.84,0,.48-.14.9-.45,1.23-.29.33-.7.53-1.25.58v.85h-.72v-.85c-.91-.09-1.49-.63-1.71-1.6l1.1-.29c.11.62.44.93,1.01.93.26,0,.45-.07.58-.19.13-.14.2-.29.2-.48s-.07-.33-.2-.45c-.13-.09-.4-.22-.83-.37-.39-.14-.69-.26-.91-.4-.23-.13-.39-.32-.53-.55-.14-.23-.21-.51-.21-.83,0-.42.12-.77.36-1.1.25-.33.63-.53,1.14-.61v-.65h.72v.65c.79.09,1.3.54,1.52,1.34l-.97.4c-.19-.55-.48-.83-.88-.83-.19,0-.36.07-.47.18-.12.12-.18.28-.18.45,0,.17.05.31.16.4.13.1.38.22.75.36.42.15.75.29,1,.42.24.14.43.33.57.57h0ZM26.74,9.34h-7.33c-.22-.34-.47-.66-.75-.95v-.44c0-.26.28-.47.62-.47h7.46c.35,0,.62.21.62.47v.92c0,.26-.27.46-.62.46h0ZM26.74,16.79h-7.33c.37-.57.66-1.2.86-1.87h6.47c.35,0,.62.21.62.47v.93c0,.26-.27.47-.62.47h0ZM19.28,17.41h7.46c.35,0,.62.21.62.46v.94c0,.25-.27.46-.62.46h-7.46c-.34,0-.62-.21-.62-.46v-.94c0-.24.28-.46.62-.46h0ZM26.74,14.31h-6.33c.08-.4.12-.81.12-1.24,0-.21-.01-.41-.04-.62h6.25c.35,0,.62.21.62.47v.92c0,.26-.27.47-.62.47h0ZM26.74,6.86h-7.46c-.34,0-.62-.21-.62-.47v-.93c0-.26.28-.47.62-.47h7.46c.35,0,.62.2.62.47v.93c0,.26-.27.47-.62.47h0ZM26.74,11.82h-6.33c-.12-.65-.33-1.29-.63-1.85h6.97c.35,0,.62.21.62.45v.94c0,.25-.27.46-.62.46h0ZM19.87,13.03c0,3.43-2.78,6.22-6.21,6.22s-6.21-2.79-6.21-6.22,2.78-6.21,6.21-6.21,6.21,2.78,6.21,6.21h0ZM18.62,13.03c0-2.74-2.23-4.96-4.96-4.96s-4.98,2.22-4.98,4.96,2.24,4.97,4.98,4.97,4.96-2.22,4.96-4.97h0ZM9.93,1.86h7.45c.35,0,.62-.21.62-.47V.46c0-.26-.28-.46-.62-.46h-7.45c-.35,0-.62.21-.62.46v.93c0,.26.27.47.62.47h0ZM9.93,4.34h7.45c.35,0,.62-.21.62-.46v-.94c0-.25-.28-.45-.62-.45h-7.45c-.35,0-.62.21-.62.45v.94c0,.25.27.46.62.46h0ZM.61,16.77h7.33c-.37-.57-.65-1.2-.84-1.87H.61c-.33,0-.61.21-.61.47v.93c0,.26.28.47.61.47h0ZM8.08,17.39H.61c-.33,0-.61.21-.61.46v.94c0,.25.28.47.61.47h7.47c.33,0,.6-.22.6-.47v-.94c0-.25-.28-.46-.6-.46h0ZM.61,14.28h6.33c-.07-.4-.11-.82-.11-1.24,0-.2.01-.42.03-.62H.61c-.33,0-.61.21-.61.47v.93c0,.26.28.47.61.47h0ZM9.93,6.83h.9c.87-.39,1.82-.62,2.83-.62s1.96.24,2.82.62h.9c.35,0,.62-.21.62-.47v-.92c0-.27-.28-.47-.62-.47h-7.45c-.35,0-.62.21-.62.47v.92c0,.26.27.47.62.47h0ZM.61,6.83h7.47c.33,0,.6-.21.6-.47v-.92c0-.27-.28-.47-.6-.47H.61c-.33,0-.61.21-.61.47v.92c0,.26.28.47.61.47h0ZM.61,11.79h6.33c.12-.65.35-1.27.64-1.85H.61c-.33,0-.61.2-.61.46v.94c0,.25.28.45.61.45h0ZM.61,9.32h7.33c.23-.35.47-.66.75-.96v-.44c0-.26-.28-.47-.6-.47H.61c-.33,0-.61.2-.61.47v.92c0,.26.28.47.61.47h0Z"/>
  </g>
</svg>