<?xml version="1.0" encoding="UTF-8"?>
<svg id="Layer_2" data-name="Layer 2" xmlns="http://www.w3.org/2000/svg" xmlns:xlink="http://www.w3.org/1999/xlink" viewBox="0 0 64.26 71">
  <defs>
    <style>
      .cls-1 {
        opacity: .14;
      }

      .cls-2 {
        fill: url(#linear-gradient-2);
      }

      .cls-3 {
        opacity: .21;
      }

      .cls-4 {
        opacity: .42;
      }

      .cls-5 {
        opacity: .55;
      }

      .cls-6 {
        opacity: .48;
      }

      .cls-7 {
        opacity: .35;
      }

      .cls-8 {
        opacity: .08;
      }

      .cls-9 {
        opacity: .28;
      }

      .cls-10 {
        opacity: 0;
      }

      .cls-11 {
        fill: url(#linear-gradient);
      }
    </style>
    <linearGradient id="linear-gradient" x1="5.27" y1="8.74" x2="56.3" y2="59.78" gradientUnits="userSpaceOnUse">
      <stop offset="0" stop-color="#c0c1c0"/>
      <stop offset=".2" stop-color="#d4d4d4"/>
      <stop offset=".49" stop-color="#ebeceb"/>
      <stop offset=".77" stop-color="#fafafa"/>
      <stop offset="1" stop-color="#fff"/>
    </linearGradient>
    <linearGradient id="linear-gradient-2" x1="5.86" y1="9.72" x2="56.29" y2="60.14" gradientUnits="userSpaceOnUse">
      <stop offset="0" stop-color="#2c2e2c"/>
      <stop offset=".99" stop-color="#000"/>
    </linearGradient>
  </defs>
  <g id="Layer_1-2" data-name="Layer 1">
    <g>
      <path class="cls-11" d="M49.96,13.69v-4.16c0-4.21-1.79-8.16-9.44-8.16h-24.36L1.75,16.42v32.02c0,4.43.77,8.36,10.77,8.41v6.87h31.03c4.91,0,14.09-4.12,14.09-11.24V13.69h-7.68Z"/>
      <g>
        <path class="cls-10" d="M62.58,17.33c-.93,0-1.69.76-1.69,1.69v38.13c0,5.88-4.6,10.47-10.47,10.47H17.58c-.93,0-1.69.76-1.69,1.69s.76,1.69,1.69,1.69h32.84c7.77,0,13.85-6.08,13.85-13.85V19.02c0-.93-.76-1.69-1.69-1.69ZM20.88,19.92h-9.62l9.62-9.63v9.63ZM57.17,54.87V14.53c0-5.03-4.09-9.12-9.12-9.12h-26.36c-.45,0-.88.18-1.2.5l-14.5,14.51c-.48.48-.63,1.21-.37,1.84.26.63.88,1.04,1.56,1.04h15.38c.93,0,1.69-.75,1.69-1.69v-12.82h23.78c3.17,0,5.75,2.57,5.75,5.74v40.34c0,3.17-2.58,5.74-5.75,5.74H14.53c-3.17,0-5.74-2.57-5.74-5.74v-25.14c0-.94-.76-1.69-1.69-1.69s-1.69.76-1.69,1.69v25.14c0,5.03,4.09,9.12,9.12,9.12h33.52c5.03,0,9.12-4.09,9.12-9.12Z"/>
        <path class="cls-8" d="M61.95,16.7c-.93,0-1.69.76-1.69,1.69v38.13c0,5.88-4.6,10.47-10.47,10.47H16.95c-.93,0-1.69.76-1.69,1.69s.76,1.69,1.69,1.69h32.84c7.77,0,13.85-6.08,13.85-13.85V18.39c0-.93-.76-1.69-1.69-1.69ZM20.26,19.29h-9.62l9.62-9.63v9.63ZM56.55,54.25V13.9c0-5.03-4.09-9.12-9.12-9.12h-26.36c-.45,0-.88.18-1.2.5l-14.5,14.51c-.48.48-.63,1.21-.37,1.84.26.63.88,1.04,1.56,1.04h15.38c.93,0,1.69-.75,1.69-1.69v-12.82h23.78c3.17,0,5.75,2.57,5.75,5.74v40.34c0,3.17-2.58,5.74-5.75,5.74H13.9c-3.17,0-5.74-2.57-5.74-5.74v-25.14c0-.94-.76-1.69-1.69-1.69s-1.69.76-1.69,1.69v25.14c0,5.03,4.09,9.12,9.12,9.12h33.52c5.03,0,9.12-4.09,9.12-9.12Z"/>
        <path class="cls-1" d="M61.33,16.08c-.93,0-1.69.76-1.69,1.69v38.13c0,5.88-4.6,10.47-10.47,10.47H16.33c-.93,0-1.69.76-1.69,1.69s.76,1.69,1.69,1.69h32.84c7.77,0,13.85-6.08,13.85-13.85V17.77c0-.93-.76-1.69-1.69-1.69ZM19.63,18.67h-9.62l9.62-9.63v9.63ZM55.92,53.62V13.28c0-5.03-4.09-9.12-9.12-9.12h-26.36c-.45,0-.88.18-1.2.5l-14.5,14.51c-.48.48-.63,1.21-.37,1.84.26.63.88,1.04,1.56,1.04h15.38c.93,0,1.69-.75,1.69-1.69V7.53h23.78c3.17,0,5.75,2.57,5.75,5.74v40.34c0,3.17-2.58,5.74-5.75,5.74H13.28c-3.17,0-5.74-2.57-5.74-5.74v-25.14c0-.94-.76-1.69-1.69-1.69s-1.69.76-1.69,1.69v25.14c0,5.03,4.09,9.12,9.12,9.12h33.52c5.03,0,9.12-4.09,9.12-9.12Z"/>
        <path class="cls-3" d="M60.7,15.45c-.93,0-1.69.76-1.69,1.69v38.13c0,5.88-4.6,10.47-10.47,10.47H15.7c-.93,0-1.69.76-1.69,1.69s.76,1.69,1.69,1.69h32.84c7.77,0,13.85-6.08,13.85-13.85V17.14c0-.93-.76-1.69-1.69-1.69ZM19.01,18.04h-9.62l9.62-9.63v9.63ZM55.3,53V12.65c0-5.03-4.09-9.12-9.12-9.12h-26.36c-.45,0-.88.18-1.2.5l-14.5,14.51c-.48.48-.63,1.21-.37,1.84.26.63.88,1.04,1.56,1.04h15.38c.93,0,1.69-.75,1.69-1.69V6.91h23.78c3.17,0,5.75,2.57,5.75,5.74v40.34c0,3.17-2.58,5.74-5.75,5.74H12.65c-3.17,0-5.74-2.57-5.74-5.74v-25.14c0-.94-.76-1.69-1.69-1.69s-1.69.76-1.69,1.69v25.14c0,5.03,4.09,9.12,9.12,9.12h33.52c5.03,0,9.12-4.09,9.12-9.12Z"/>
        <path class="cls-9" d="M60.08,14.83c-.93,0-1.69.76-1.69,1.69v38.13c0,5.88-4.6,10.47-10.47,10.47H15.08c-.93,0-1.69.76-1.69,1.69s.76,1.69,1.69,1.69h32.84c7.77,0,13.85-6.08,13.85-13.85V16.52c0-.93-.76-1.69-1.69-1.69ZM18.38,17.42h-9.62l9.62-9.63v9.63ZM54.67,52.37V12.03c0-5.03-4.09-9.12-9.12-9.12h-26.36c-.45,0-.88.18-1.2.5L3.5,17.91c-.48.48-.63,1.21-.37,1.84.26.63.88,1.04,1.56,1.04h15.38c.93,0,1.69-.75,1.69-1.69V6.28h23.78c3.17,0,5.75,2.57,5.75,5.74v40.34c0,3.17-2.58,5.74-5.75,5.74H12.03c-3.17,0-5.74-2.57-5.74-5.74v-25.14c0-.94-.76-1.69-1.69-1.69s-1.69.76-1.69,1.69v25.14c0,5.03,4.09,9.12,9.12,9.12h33.52c5.03,0,9.12-4.09,9.12-9.12Z"/>
        <path class="cls-7" d="M59.45,14.2c-.93,0-1.69.76-1.69,1.69v38.13c0,5.88-4.6,10.47-10.47,10.47H14.45c-.93,0-1.69.76-1.69,1.69s.76,1.69,1.69,1.69h32.84c7.77,0,13.85-6.08,13.85-13.85V15.89c0-.93-.76-1.69-1.69-1.69ZM17.76,16.79h-9.62l9.62-9.63v9.63ZM54.05,51.75V11.4c0-5.03-4.09-9.12-9.12-9.12h-26.36c-.45,0-.88.18-1.2.5L2.87,17.29c-.48.48-.63,1.21-.37,1.84.26.63.88,1.04,1.56,1.04h15.38c.93,0,1.69-.75,1.69-1.69V5.66h23.78c3.17,0,5.75,2.57,5.75,5.74v40.34c0,3.17-2.58,5.74-5.75,5.74H11.4c-3.17,0-5.74-2.57-5.74-5.74v-25.14c0-.94-.76-1.69-1.69-1.69s-1.69.76-1.69,1.69v25.14c0,5.03,4.09,9.12,9.12,9.12h33.52c5.03,0,9.12-4.09,9.12-9.12Z"/>
        <path class="cls-4" d="M58.83,13.58c-.93,0-1.69.76-1.69,1.69v38.13c0,5.88-4.6,10.47-10.47,10.47H13.83c-.93,0-1.69.76-1.69,1.69s.76,1.69,1.69,1.69h32.84c7.77,0,13.85-6.08,13.85-13.85V15.27c0-.93-.76-1.69-1.69-1.69ZM17.13,16.17H7.52l9.62-9.63v9.63ZM53.42,51.12V10.78c0-5.03-4.09-9.12-9.12-9.12h-26.36c-.45,0-.88.18-1.2.5L2.25,16.66c-.48.48-.63,1.21-.37,1.84.26.63.88,1.04,1.56,1.04h15.38c.93,0,1.69-.75,1.69-1.69V5.03h23.78c3.17,0,5.75,2.57,5.75,5.74v40.34c0,3.17-2.58,5.74-5.75,5.74H10.78c-3.17,0-5.74-2.57-5.74-5.74v-25.14c0-.94-.76-1.69-1.69-1.69s-1.69.76-1.69,1.69v25.14c0,5.03,4.09,9.12,9.12,9.12h33.52c5.03,0,9.12-4.09,9.12-9.12Z"/>
        <path class="cls-6" d="M58.2,12.95c-.93,0-1.69.76-1.69,1.69v38.13c0,5.88-4.6,10.47-10.47,10.47H13.2c-.93,0-1.69.76-1.69,1.69s.76,1.69,1.69,1.69h32.84c7.77,0,13.85-6.08,13.85-13.85V14.64c0-.93-.76-1.69-1.69-1.69ZM16.51,15.54H6.89l9.62-9.63v9.63ZM52.8,50.5V10.15c0-5.03-4.09-9.12-9.12-9.12h-26.36c-.45,0-.88.18-1.2.5L1.62,16.04c-.48.48-.63,1.21-.37,1.84.26.63.88,1.04,1.56,1.04h15.38c.93,0,1.69-.75,1.69-1.69V4.41h23.78c3.17,0,5.75,2.57,5.75,5.74v40.34c0,3.17-2.58,5.74-5.75,5.74H10.15c-3.17,0-5.74-2.57-5.74-5.74v-25.14c0-.94-.76-1.69-1.69-1.69s-1.69.76-1.69,1.69v25.14c0,5.03,4.09,9.12,9.12,9.12h33.52c5.03,0,9.12-4.09,9.12-9.12Z"/>
        <path class="cls-5" d="M57.58,12.33c-.93,0-1.69.76-1.69,1.69v38.13c0,5.88-4.6,10.47-10.47,10.47H12.58c-.93,0-1.69.76-1.69,1.69s.76,1.69,1.69,1.69h32.84c7.77,0,13.85-6.08,13.85-13.85V14.02c0-.93-.76-1.69-1.69-1.69ZM15.88,14.92H6.27L15.88,5.29v9.63ZM52.17,49.87V9.53c0-5.03-4.09-9.12-9.12-9.12h-26.36c-.45,0-.88.18-1.2.5L1,15.41c-.48.48-.63,1.21-.37,1.84.26.63.88,1.04,1.56,1.04h15.38c.93,0,1.69-.75,1.69-1.69V3.78h23.78c3.17,0,5.75,2.57,5.75,5.74v40.34c0,3.17-2.58,5.74-5.75,5.74H9.53c-3.17,0-5.74-2.57-5.74-5.74v-25.14c0-.94-.76-1.69-1.69-1.69s-1.69.76-1.69,1.69v25.14c0,5.03,4.09,9.12,9.12,9.12h33.52c5.03,0,9.12-4.09,9.12-9.12Z"/>
      </g>
      <path class="cls-2" d="M51.77,49.46V9.12c0-5.03-4.09-9.12-9.12-9.12h-26.36c-.45,0-.88.18-1.2.5L.59,15.01c-.48.48-.63,1.21-.37,1.84.26.63.88,1.04,1.56,1.04h15.38c.93,0,1.69-.75,1.69-1.69V3.38h23.78c3.17,0,5.75,2.57,5.75,5.74v40.34c0,3.17-2.58,5.74-5.75,5.74H9.12c-3.17,0-5.74-2.57-5.74-5.74v-25.14c0-.94-.76-1.69-1.69-1.69s-1.69.76-1.69,1.69v25.14c0,5.03,4.09,9.12,9.12,9.12h33.52c5.03,0,9.12-4.09,9.12-9.12ZM15.48,14.51H5.86L15.48,4.88v9.63ZM57.17,11.92c-.93,0-1.69.76-1.69,1.69v38.13c0,5.88-4.6,10.47-10.47,10.47H12.17c-.93,0-1.69.76-1.69,1.69s.76,1.69,1.69,1.69h32.84c7.77,0,13.85-6.08,13.85-13.85V13.61c0-.93-.76-1.69-1.69-1.69Z"/>
    </g>
  </g>
</svg>