<?xml version="1.0" encoding="UTF-8"?>
<svg id="Layer_2" data-name="Layer 2" xmlns="http://www.w3.org/2000/svg" viewBox="0 0 27.36 27.36">
  <defs>
    <style>
      .cls-1 {
        fill-rule: evenodd;
      }
    </style>
  </defs>
  <g id="_1" data-name="1">
    <path class="cls-1" d="M10.79,21.36l-.16-9.35,6.11,4.57-5.94,4.78ZM25.65,0H1.71C.76,0,0,.76,0,1.7v23.95c0,.95.76,1.71,1.71,1.71h23.94c.95,0,1.71-.76,1.71-1.71V1.7c0-.94-.76-1.7-1.71-1.7h0ZM17.11,1.7l1.7,3.43h-3.42l-1.72-3.43h3.43ZM10.26,1.7l1.7,3.43h-3.42l-1.71-3.43h3.43ZM1.71,1.7h1.71l1.72,3.43H1.71V1.7ZM25.65,25.65H1.71V6.83h23.94v18.81ZM25.65,5.13h-3.42l-1.71-3.43h3.42l1.71,1.72v1.71Z"/>
  </g>
</svg>