<?xml version="1.0" encoding="UTF-8"?>
<svg id="Layer_2" data-name="Layer 2" xmlns="http://www.w3.org/2000/svg" xmlns:xlink="http://www.w3.org/1999/xlink" viewBox="0 0 71.58 71.5">
  <defs>
    <style>
      .cls-1 {
        opacity: .14;
      }

      .cls-2 {
        fill: url(#linear-gradient-2);
      }

      .cls-3 {
        opacity: .21;
      }

      .cls-4 {
        opacity: .42;
      }

      .cls-5 {
        opacity: .55;
      }

      .cls-6 {
        opacity: .48;
      }

      .cls-7 {
        opacity: .35;
      }

      .cls-8 {
        opacity: .08;
      }

      .cls-9 {
        opacity: .28;
      }

      .cls-10 {
        opacity: 0;
      }

      .cls-11 {
        fill: url(#linear-gradient);
      }
    </style>
    <linearGradient id="linear-gradient" x1="1.82" y1="1.7" x2="54.41" y2="54.29" gradientUnits="userSpaceOnUse">
      <stop offset="0" stop-color="#79949c"/>
      <stop offset="1" stop-color="#b6c7c8"/>
    </linearGradient>
    <linearGradient id="linear-gradient-2" x1="1.5" y1="1.41" x2="54.51" y2="54.43" gradientUnits="userSpaceOnUse">
      <stop offset="0" stop-color="#2c2e2c"/>
      <stop offset=".99" stop-color="#000"/>
    </linearGradient>
  </defs>
  <g id="Layer_1-2" data-name="Layer 1">
    <g>
      <path class="cls-11" d="M25.35,14.15S17.96,5.02,14.34,3.92C10.72,2.82,5.68.77,3.16,2.5c-2.52,1.73-1.26,10.54,2.52,14.95,3.78,4.41,8.34,7.55,8.34,7.55l-8.34,29.27,6.61,7.55s16.84-22.03,16.37-22.19c-.47-.16,9.13,7.87,9.13,7.87l-.79,10.86,5.19,5.51,7.24-14.32,14.48-7.55-5.35-5.19-11.17.16-7.55-8.18,22.03-16.68-7.08-6.61-29.43,8.66Z"/>
      <g>
        <path class="cls-10" d="M15.84,13.23l-2.53,2.52c-.66.66-.66,1.73,0,2.39.33.33.76.5,1.2.5s.86-.17,1.19-.5l2.53-2.53c.66-.66.66-1.73,0-2.39-.66-.66-1.73-.66-2.39,0ZM71.08,46.29l-2.85-2.85c-1.58-1.58-3.21-3.21-6.05-2.86-.36.04-1.19.09-2.15.15-1.76.1-4.09.23-6.49.49l-6.39-6.85,21.73-15.6c.4-.29.66-.74.7-1.24.04-.49-.14-.98-.49-1.33l-3.39-3.39c-2.25-2.25-4.62-4.17-8.84-2.98-2.9.82-18.12,5.45-25.54,7.7l-6.02-6.02c-3.44-3.44-14.45-8.63-18.44-4.65-2.28,2.28-1.49,6.47-.43,9.58,1.19,3.48,3.18,6.95,5.08,8.85l6.04,6.05c-1.99,6.54-6.84,22.48-7.68,25.45-1.19,4.21.74,6.59,2.99,8.84l3.39,3.39c.35.35.83.53,1.33.49.49-.04.94-.29,1.23-.7l15.56-21.67,7.51,7c.68.64,1.75.6,2.39-.08.64-.68.6-1.75-.08-2.39l-8.92-8.31c-.36-.33-.83-.49-1.32-.44-.48.05-.92.3-1.21.69l-15.52,21.62-1.98-1.99c-1.95-1.95-2.8-3.13-2.12-5.53.87-3.11,6.2-20.61,7.95-26.36.18-.6.02-1.25-.42-1.69l-6.76-6.76c-1.51-1.51-3.27-4.62-4.27-7.56-1.14-3.34-1.01-5.47-.38-6.1,1.68-1.68,10.24,1.23,13.66,4.65l6.74,6.73c.44.44,1.09.6,1.69.42,6.95-2.12,23.43-7.13,26.44-7.98,2.39-.67,3.57.17,5.53,2.12l1.98,1.98-21.68,15.56c-.39.28-.65.72-.7,1.21-.05.48.11.96.45,1.32l8.28,8.88c.37.4.9.59,1.43.53,2.59-.31,5.22-.46,7.14-.57,1.11-.06,1.91-.11,2.38-.17,1.05-.13,1.61.26,3.24,1.9l1.19,1.18-11.64,5.8c-.16.08-.31.19-.44.32l-1.73,1.73c-.13.13-.24.28-.32.44l-5.8,11.65-1.19-1.19c-1.63-1.63-2.03-2.19-1.9-3.25.12-.92-.54-1.77-1.47-1.88-.93-.11-1.77.54-1.88,1.47-.35,2.84,1.28,4.47,2.86,6.05l2.85,2.85c.32.32.75.49,1.2.49.09,0,.18,0,.27-.02.54-.09,1-.43,1.24-.91l6.73-13.5,1.34-1.34,13.5-6.73c.49-.24.83-.7.91-1.24.09-.54-.09-1.08-.47-1.47Z"/>
        <path class="cls-8" d="M15.21,12.61l-2.53,2.52c-.66.66-.66,1.73,0,2.39.33.33.76.5,1.2.5s.86-.17,1.19-.5l2.53-2.53c.66-.66.66-1.73,0-2.39-.66-.66-1.73-.66-2.39,0ZM70.46,45.66l-2.85-2.85c-1.58-1.58-3.21-3.21-6.05-2.86-.36.04-1.19.09-2.15.15-1.76.1-4.09.23-6.49.49l-6.39-6.85,21.73-15.6c.4-.29.66-.74.7-1.24.04-.49-.14-.98-.49-1.33l-3.39-3.39c-2.25-2.25-4.62-4.17-8.84-2.98-2.9.82-18.12,5.45-25.54,7.7l-6.02-6.02c-3.44-3.44-14.45-8.63-18.44-4.65-2.28,2.28-1.49,6.47-.43,9.58,1.19,3.48,3.18,6.95,5.08,8.85l6.04,6.05c-1.99,6.54-6.84,22.48-7.68,25.45-1.19,4.21.74,6.59,2.99,8.84l3.39,3.39c.35.35.83.53,1.33.49.49-.04.94-.29,1.23-.7l15.56-21.67,7.51,7c.68.64,1.75.6,2.39-.08.64-.68.6-1.75-.08-2.39l-8.92-8.31c-.36-.33-.83-.49-1.32-.44-.48.05-.92.3-1.21.69l-15.52,21.62-1.98-1.99c-1.95-1.95-2.8-3.13-2.12-5.53.87-3.11,6.2-20.61,7.95-26.36.18-.6.02-1.25-.42-1.69l-6.76-6.76c-1.51-1.51-3.27-4.62-4.27-7.56-1.14-3.34-1.01-5.47-.38-6.1,1.68-1.68,10.24,1.23,13.66,4.65l6.74,6.73c.44.44,1.09.6,1.69.42,6.95-2.12,23.43-7.13,26.44-7.98,2.39-.67,3.57.17,5.53,2.12l1.98,1.98-21.68,15.56c-.39.28-.65.72-.7,1.21-.05.48.11.96.45,1.32l8.28,8.88c.37.4.9.59,1.43.53,2.59-.3,5.22-.46,7.14-.57,1.11-.06,1.91-.11,2.38-.17,1.05-.13,1.61.26,3.24,1.9l1.19,1.18-11.64,5.8c-.16.08-.31.19-.44.32l-1.73,1.73c-.13.13-.24.28-.32.44l-5.8,11.65-1.19-1.19c-1.63-1.63-2.03-2.19-1.9-3.25.12-.92-.54-1.77-1.47-1.88-.93-.11-1.77.54-1.88,1.47-.35,2.84,1.28,4.47,2.86,6.05l2.85,2.85c.32.32.75.49,1.2.49.09,0,.18,0,.27-.02.53-.09,1-.43,1.24-.91l6.73-13.5,1.34-1.34,13.5-6.73c.49-.24.83-.7.91-1.24.09-.54-.09-1.08-.47-1.47Z"/>
        <path class="cls-1" d="M14.59,11.98l-2.53,2.52c-.66.66-.66,1.73,0,2.39.33.33.76.5,1.2.5s.86-.17,1.19-.5l2.53-2.53c.66-.66.66-1.73,0-2.39-.66-.66-1.73-.66-2.39,0ZM69.83,45.04l-2.85-2.85c-1.58-1.58-3.21-3.21-6.05-2.86-.36.04-1.19.09-2.15.15-1.76.1-4.09.23-6.49.49l-6.39-6.85,21.73-15.6c.4-.29.66-.74.7-1.24.04-.49-.14-.98-.49-1.33l-3.39-3.39c-2.25-2.25-4.62-4.17-8.84-2.98-2.9.82-18.12,5.45-25.54,7.7l-6.02-6.02C20.62,6.8,9.61,1.61,5.63,5.59c-2.28,2.28-1.49,6.47-.43,9.58,1.19,3.48,3.18,6.95,5.08,8.85l6.04,6.05c-1.99,6.54-6.84,22.48-7.68,25.45-1.19,4.21.74,6.59,2.99,8.84l3.39,3.39c.35.35.83.53,1.33.49.49-.04.94-.29,1.23-.7l15.56-21.67,7.51,7c.68.64,1.75.6,2.39-.08.64-.68.6-1.75-.08-2.39l-8.92-8.31c-.36-.33-.83-.49-1.32-.44-.48.05-.92.3-1.21.69l-15.52,21.62-1.98-1.99c-1.95-1.95-2.8-3.13-2.12-5.53.87-3.11,6.2-20.61,7.95-26.36.18-.6.02-1.25-.42-1.69l-6.76-6.76c-1.51-1.51-3.27-4.62-4.27-7.56-1.14-3.34-1.01-5.47-.38-6.1,1.68-1.68,10.24,1.23,13.66,4.65l6.74,6.73c.44.44,1.09.6,1.69.42,6.95-2.12,23.43-7.13,26.44-7.98,2.39-.67,3.57.17,5.53,2.12l1.98,1.98-21.68,15.56c-.39.28-.65.72-.7,1.21-.05.48.11.96.45,1.32l8.28,8.88c.37.4.9.59,1.43.53,2.59-.3,5.22-.46,7.14-.57,1.11-.06,1.91-.11,2.38-.17,1.05-.13,1.61.26,3.24,1.9l1.19,1.18-11.64,5.8c-.16.08-.31.19-.44.32l-1.73,1.73c-.13.13-.24.28-.32.44l-5.8,11.65-1.19-1.19c-1.63-1.63-2.03-2.19-1.9-3.25.12-.92-.54-1.77-1.47-1.88-.93-.11-1.77.54-1.88,1.47-.35,2.84,1.28,4.47,2.86,6.05l2.85,2.85c.32.32.75.49,1.2.49.09,0,.18,0,.27-.02.53-.09,1-.43,1.24-.91l6.73-13.5,1.34-1.34,13.5-6.73c.49-.24.83-.7.91-1.24.09-.54-.09-1.08-.47-1.47Z"/>
        <path class="cls-3" d="M13.96,11.36l-2.53,2.52c-.66.66-.66,1.73,0,2.39.33.33.76.5,1.2.5s.86-.17,1.19-.5l2.53-2.53c.66-.66.66-1.73,0-2.39-.66-.66-1.73-.66-2.39,0ZM69.21,44.41l-2.85-2.85c-1.58-1.58-3.21-3.21-6.05-2.86-.36.04-1.19.09-2.15.15-1.76.1-4.09.23-6.49.49l-6.39-6.85,21.73-15.6c.4-.29.66-.74.7-1.24.04-.49-.14-.98-.49-1.33l-3.39-3.39c-2.25-2.25-4.62-4.17-8.84-2.98-2.9.82-18.12,5.45-25.54,7.7l-6.02-6.02C20,6.18,8.98.99,5,4.97c-2.28,2.28-1.49,6.47-.43,9.58,1.19,3.48,3.18,6.95,5.08,8.85l6.04,6.05c-1.99,6.54-6.84,22.48-7.68,25.45-1.19,4.21.74,6.59,2.99,8.84l3.39,3.39c.35.35.83.53,1.33.49.49-.04.94-.29,1.23-.7l15.56-21.67,7.51,7c.68.64,1.75.6,2.39-.08.64-.68.6-1.75-.08-2.39l-8.92-8.31c-.36-.33-.83-.49-1.32-.44-.48.05-.92.3-1.21.69l-15.52,21.62-1.98-1.99c-1.95-1.95-2.8-3.13-2.12-5.53.87-3.11,6.2-20.61,7.95-26.36.18-.6.02-1.25-.42-1.69l-6.76-6.76c-1.51-1.51-3.27-4.62-4.27-7.56-1.14-3.34-1.01-5.47-.38-6.1,1.68-1.68,10.24,1.23,13.66,4.65l6.74,6.73c.44.44,1.09.6,1.69.42,6.95-2.12,23.43-7.13,26.44-7.98,2.39-.67,3.57.17,5.53,2.12l1.98,1.98-21.68,15.56c-.39.28-.65.72-.7,1.21-.05.48.11.96.45,1.32l8.28,8.88c.37.4.9.59,1.43.53,2.59-.3,5.22-.46,7.14-.57,1.11-.06,1.91-.11,2.38-.17,1.05-.13,1.61.26,3.24,1.9l1.19,1.18-11.64,5.8c-.16.08-.31.19-.44.32l-1.73,1.73c-.13.13-.24.28-.32.44l-5.8,11.65-1.19-1.19c-1.63-1.63-2.03-2.19-1.9-3.25.12-.92-.54-1.77-1.47-1.88-.93-.11-1.77.54-1.88,1.47-.35,2.84,1.28,4.47,2.86,6.05l2.85,2.85c.32.32.75.49,1.2.49.09,0,.18,0,.27-.02.53-.09,1-.43,1.24-.91l6.73-13.5,1.34-1.34,13.5-6.73c.49-.24.83-.7.91-1.24.09-.54-.09-1.08-.47-1.47Z"/>
        <path class="cls-9" d="M13.34,10.73l-2.53,2.52c-.66.66-.66,1.73,0,2.39.33.33.76.5,1.2.5s.86-.17,1.19-.5l2.53-2.53c.66-.66.66-1.73,0-2.39-.66-.66-1.73-.66-2.39,0ZM68.58,43.79l-2.85-2.85c-1.58-1.58-3.21-3.21-6.05-2.86-.36.04-1.19.09-2.15.15-1.76.1-4.09.23-6.49.49l-6.39-6.85,21.73-15.6c.4-.29.66-.74.7-1.24.04-.49-.14-.98-.49-1.33l-3.39-3.39c-2.25-2.25-4.62-4.17-8.84-2.98-2.9.82-18.12,5.45-25.54,7.7l-6.02-6.02C19.37,5.55,8.36.36,4.38,4.34c-2.28,2.28-1.49,6.47-.43,9.58,1.19,3.48,3.18,6.95,5.08,8.85l6.04,6.05c-1.99,6.54-6.84,22.48-7.68,25.45-1.19,4.21.74,6.59,2.99,8.84l3.39,3.39c.35.35.83.53,1.33.49.49-.04.94-.29,1.23-.7l15.56-21.67,7.51,7c.68.64,1.75.6,2.39-.08.64-.68.6-1.75-.08-2.39l-8.92-8.31c-.36-.33-.83-.49-1.32-.44-.48.05-.92.3-1.21.69l-15.52,21.62-1.98-1.99c-1.95-1.95-2.8-3.13-2.12-5.53.87-3.11,6.2-20.61,7.95-26.36.18-.6.02-1.25-.42-1.69l-6.76-6.76c-1.51-1.51-3.27-4.62-4.27-7.56-1.14-3.34-1.01-5.47-.38-6.1,1.68-1.68,10.24,1.23,13.66,4.65l6.74,6.73c.44.44,1.09.6,1.69.42,6.95-2.12,23.43-7.13,26.44-7.98,2.39-.67,3.57.17,5.53,2.12l1.98,1.98-21.68,15.56c-.39.28-.65.72-.7,1.21-.05.48.11.96.45,1.32l8.28,8.88c.37.4.9.59,1.43.53,2.59-.3,5.22-.46,7.14-.57,1.11-.06,1.91-.11,2.38-.17,1.05-.13,1.61.26,3.24,1.9l1.19,1.18-11.64,5.8c-.16.08-.31.19-.44.32l-1.73,1.73c-.13.13-.24.28-.32.44l-5.8,11.65-1.19-1.19c-1.63-1.63-2.03-2.19-1.9-3.25.12-.92-.54-1.77-1.47-1.88-.93-.11-1.77.54-1.88,1.47-.35,2.84,1.28,4.47,2.86,6.05l2.85,2.85c.32.32.75.49,1.2.49.09,0,.18,0,.27-.02.53-.09,1-.43,1.24-.91l6.73-13.5,1.34-1.34,13.5-6.73c.49-.24.83-.7.91-1.24.09-.54-.09-1.08-.47-1.47Z"/>
        <path class="cls-7" d="M12.71,10.11l-2.53,2.52c-.66.66-.66,1.73,0,2.39.33.33.76.5,1.2.5s.86-.17,1.19-.5l2.53-2.53c.66-.66.66-1.73,0-2.39-.66-.66-1.73-.66-2.39,0ZM67.96,43.16l-2.85-2.85c-1.58-1.58-3.21-3.21-6.05-2.86-.36.04-1.19.09-2.15.15-1.76.1-4.09.23-6.49.49l-6.39-6.85,21.73-15.6c.4-.29.66-.74.7-1.24.04-.49-.14-.98-.49-1.33l-3.39-3.39c-2.25-2.25-4.62-4.17-8.84-2.98-2.9.82-18.12,5.45-25.54,7.7l-6.02-6.02C18.75,4.93,7.73-.26,3.75,3.72c-2.28,2.28-1.49,6.47-.43,9.58,1.19,3.48,3.18,6.95,5.08,8.85l6.04,6.05c-1.99,6.54-6.84,22.48-7.68,25.45-1.19,4.21.74,6.59,2.99,8.84l3.39,3.39c.35.35.83.53,1.33.49.49-.04.94-.29,1.23-.7l15.56-21.67,7.51,7c.68.64,1.75.6,2.39-.08.64-.68.6-1.75-.08-2.39l-8.92-8.31c-.36-.33-.83-.49-1.32-.44-.48.05-.92.3-1.21.69l-15.52,21.62-1.98-1.99c-1.95-1.95-2.8-3.13-2.12-5.53.87-3.11,6.2-20.61,7.95-26.36.18-.6.02-1.25-.42-1.69l-6.76-6.76c-1.51-1.51-3.27-4.62-4.27-7.56-1.14-3.34-1.01-5.47-.38-6.1,1.68-1.68,10.24,1.23,13.66,4.65l6.74,6.73c.44.44,1.09.6,1.69.42,6.95-2.12,23.43-7.13,26.44-7.98,2.39-.67,3.57.17,5.53,2.12l1.98,1.98-21.68,15.56c-.39.28-.65.72-.7,1.21-.05.48.11.96.45,1.32l8.28,8.88c.37.4.9.59,1.43.53,2.59-.3,5.22-.46,7.14-.57,1.11-.06,1.91-.11,2.38-.17,1.05-.13,1.61.26,3.24,1.9l1.19,1.18-11.64,5.8c-.16.08-.31.19-.44.32l-1.73,1.73c-.13.13-.24.28-.32.44l-5.8,11.65-1.19-1.19c-1.63-1.63-2.03-2.19-1.9-3.25.12-.92-.54-1.77-1.47-1.88-.93-.11-1.77.54-1.88,1.47-.35,2.84,1.28,4.47,2.86,6.05l2.85,2.85c.32.32.75.49,1.2.49.09,0,.18,0,.27-.02.53-.09,1-.43,1.24-.91l6.73-13.5,1.34-1.34,13.5-6.73c.49-.24.83-.7.91-1.24.09-.54-.09-1.08-.47-1.47Z"/>
        <path class="cls-4" d="M12.09,9.48l-2.53,2.52c-.66.66-.66,1.73,0,2.39.33.33.76.5,1.2.5s.86-.17,1.19-.5l2.53-2.53c.66-.66.66-1.73,0-2.39-.66-.66-1.73-.66-2.39,0ZM67.33,42.54l-2.85-2.85c-1.58-1.58-3.21-3.21-6.05-2.86-.36.04-1.19.09-2.15.15-1.76.1-4.09.23-6.49.49l-6.39-6.85,21.73-15.6c.4-.29.66-.74.7-1.24.04-.49-.14-.98-.49-1.33l-3.39-3.39c-2.25-2.25-4.62-4.17-8.84-2.98-2.9.82-18.12,5.45-25.54,7.7l-6.02-6.02C18.12,4.3,7.11-.89,3.13,3.09c-2.28,2.28-1.49,6.47-.43,9.58,1.19,3.48,3.18,6.95,5.08,8.85l6.04,6.05c-1.99,6.54-6.84,22.48-7.68,25.45-1.19,4.21.74,6.59,2.99,8.84l3.39,3.39c.35.35.83.53,1.33.49.49-.04.94-.29,1.23-.7l15.56-21.67,7.51,7c.68.64,1.75.6,2.39-.08.64-.68.6-1.75-.08-2.39l-8.92-8.31c-.36-.33-.83-.49-1.32-.44-.48.05-.92.3-1.21.69l-15.52,21.62-1.98-1.99c-1.95-1.95-2.8-3.13-2.12-5.53.87-3.11,6.2-20.61,7.95-26.36.18-.6.02-1.25-.42-1.69l-6.76-6.76c-1.51-1.51-3.27-4.62-4.27-7.56-1.14-3.34-1.01-5.47-.38-6.1,1.68-1.68,10.24,1.23,13.66,4.65l6.74,6.73c.44.44,1.09.6,1.69.42,6.95-2.12,23.43-7.13,26.44-7.98,2.39-.67,3.57.17,5.53,2.12l1.98,1.98-21.68,15.56c-.39.28-.65.72-.7,1.21-.05.48.11.96.45,1.32l8.28,8.88c.37.4.9.59,1.43.53,2.59-.3,5.22-.46,7.14-.57,1.11-.06,1.91-.11,2.38-.17,1.05-.13,1.61.26,3.24,1.9l1.19,1.18-11.64,5.8c-.16.08-.31.19-.44.32l-1.73,1.73c-.13.13-.24.28-.32.44l-5.8,11.65-1.19-1.19c-1.63-1.63-2.03-2.19-1.9-3.25.12-.92-.54-1.77-1.47-1.88-.93-.11-1.77.54-1.88,1.47-.35,2.84,1.28,4.47,2.86,6.05l2.85,2.85c.32.32.75.49,1.2.49.09,0,.18,0,.27-.02.53-.09,1-.43,1.24-.91l6.73-13.5,1.34-1.34,13.5-6.73c.49-.24.83-.7.91-1.24.09-.54-.09-1.08-.47-1.47Z"/>
        <path class="cls-6" d="M11.46,8.86l-2.53,2.52c-.66.66-.66,1.73,0,2.39.33.33.76.5,1.2.5s.86-.17,1.19-.5l2.53-2.53c.66-.66.66-1.73,0-2.39-.66-.66-1.73-.66-2.39,0ZM66.71,41.91l-2.85-2.85c-1.58-1.58-3.21-3.21-6.05-2.86-.36.04-1.19.09-2.15.15-1.76.1-4.09.23-6.49.49l-6.39-6.85,21.73-15.6c.4-.29.66-.74.7-1.24.04-.49-.14-.98-.49-1.33l-3.39-3.39c-2.25-2.25-4.62-4.17-8.84-2.98-2.9.82-18.12,5.45-25.54,7.7l-6.02-6.02C17.5,3.68,6.48-1.51,2.5,2.47c-2.28,2.28-1.49,6.47-.43,9.58,1.19,3.48,3.18,6.95,5.08,8.85l6.04,6.05c-1.99,6.54-6.84,22.48-7.68,25.45-1.19,4.21.74,6.59,2.99,8.84l3.39,3.39c.35.35.83.53,1.33.49.49-.04.94-.29,1.23-.7l15.56-21.67,7.51,7c.68.64,1.75.6,2.39-.08.64-.68.6-1.75-.08-2.39l-8.92-8.31c-.36-.33-.83-.49-1.32-.44-.48.05-.92.3-1.21.69l-15.52,21.62-1.98-1.99c-1.95-1.95-2.8-3.13-2.12-5.53.87-3.11,6.2-20.61,7.95-26.36.18-.6.02-1.25-.42-1.69l-6.76-6.76c-1.51-1.51-3.27-4.62-4.27-7.56-1.14-3.34-1.01-5.47-.38-6.1,1.68-1.68,10.24,1.23,13.66,4.65l6.74,6.73c.44.44,1.09.6,1.69.42,6.95-2.12,23.43-7.13,26.44-7.98,2.39-.67,3.57.17,5.53,2.12l1.98,1.98-21.68,15.56c-.39.28-.65.72-.7,1.21-.05.48.11.96.45,1.32l8.28,8.88c.37.4.9.59,1.43.53,2.59-.3,5.22-.46,7.14-.57,1.11-.06,1.91-.11,2.38-.17,1.05-.13,1.61.26,3.24,1.9l1.19,1.18-11.64,5.8c-.16.08-.31.19-.44.32l-1.73,1.73c-.13.13-.24.28-.32.44l-5.8,11.65-1.19-1.19c-1.63-1.63-2.03-2.19-1.9-3.25.12-.92-.54-1.77-1.47-1.88-.93-.11-1.77.54-1.88,1.47-.35,2.84,1.28,4.47,2.86,6.05l2.85,2.85c.32.32.75.49,1.2.49.09,0,.18,0,.27-.02.53-.09,1-.43,1.24-.91l6.73-13.5,1.34-1.34,13.5-6.73c.49-.24.83-.7.91-1.24.09-.54-.09-1.08-.47-1.47Z"/>
        <path class="cls-5" d="M10.84,8.23l-2.53,2.52c-.66.66-.66,1.73,0,2.39.33.33.76.5,1.2.5s.86-.17,1.19-.5l2.53-2.53c.66-.66.66-1.73,0-2.39-.66-.66-1.73-.66-2.39,0ZM66.08,41.29l-2.85-2.85c-1.58-1.58-3.21-3.21-6.05-2.86-.36.04-1.19.09-2.15.15-1.76.1-4.09.23-6.49.49l-6.39-6.85,21.73-15.6c.4-.29.66-.74.7-1.24.04-.49-.14-.98-.49-1.33l-3.39-3.39c-2.25-2.25-4.62-4.17-8.84-2.98-2.9.82-18.12,5.45-25.54,7.7l-6.02-6.02C16.87,3.05,5.86-2.14,1.88,1.84-.4,4.12.39,8.31,1.45,11.43c1.19,3.48,3.18,6.95,5.08,8.85l6.04,6.05c-1.99,6.54-6.84,22.48-7.68,25.45-1.19,4.21.74,6.59,2.99,8.84l3.39,3.39c.35.35.83.53,1.33.49.49-.04.94-.29,1.23-.7l15.56-21.67,7.51,7c.68.64,1.75.6,2.39-.08.64-.68.6-1.75-.08-2.39l-8.92-8.31c-.36-.33-.83-.49-1.32-.44-.48.05-.92.3-1.21.69l-15.52,21.62-1.98-1.99c-1.95-1.95-2.8-3.13-2.12-5.53.87-3.11,6.2-20.61,7.95-26.36.18-.6.02-1.25-.42-1.69l-6.76-6.76c-1.51-1.51-3.27-4.62-4.27-7.56-1.14-3.34-1.01-5.47-.38-6.1,1.68-1.68,10.24,1.23,13.66,4.65l6.74,6.73c.44.44,1.09.6,1.69.42,6.95-2.12,23.43-7.13,26.44-7.98,2.39-.67,3.57.17,5.53,2.12l1.98,1.98-21.68,15.56c-.39.28-.65.72-.7,1.21-.05.48.11.96.45,1.32l8.28,8.88c.37.4.9.59,1.43.53,2.59-.31,5.22-.46,7.14-.57,1.11-.06,1.91-.11,2.38-.17,1.05-.13,1.61.26,3.24,1.9l1.19,1.18-11.64,5.8c-.16.08-.31.19-.44.32l-1.73,1.73c-.13.13-.24.28-.32.44l-5.8,11.65-1.19-1.19c-1.63-1.63-2.03-2.19-1.9-3.25.12-.92-.54-1.77-1.47-1.88-.93-.11-1.77.54-1.88,1.47-.35,2.84,1.28,4.47,2.86,6.05l2.85,2.85c.32.32.75.49,1.2.49.09,0,.18,0,.27-.02.54-.09,1-.43,1.24-.91l6.73-13.5,1.34-1.34,13.5-6.73c.49-.24.83-.7.91-1.24.09-.54-.09-1.08-.47-1.47Z"/>
      </g>
      <path class="cls-2" d="M65.68,40.88l-2.85-2.85c-1.58-1.58-3.21-3.21-6.05-2.86-.36.04-1.19.09-2.15.15-1.76.1-4.09.23-6.49.49l-6.39-6.85,21.73-15.6c.4-.29.66-.74.7-1.24.04-.49-.14-.98-.49-1.33l-3.39-3.39c-2.25-2.25-4.62-4.17-8.84-2.98-2.9.82-18.12,5.45-25.54,7.7l-6.02-6.02C16.46,2.65,5.45-2.54,1.47,1.44-.81,3.72-.02,7.91,1.04,11.02c1.19,3.48,3.18,6.95,5.08,8.85l6.04,6.05c-1.99,6.54-6.84,22.48-7.68,25.45-1.19,4.21.74,6.58,2.99,8.84l3.39,3.39c.35.35.83.53,1.33.49.49-.04.94-.29,1.23-.7l15.56-21.67,7.51,7c.68.64,1.75.6,2.39-.08.64-.68.6-1.75-.08-2.39l-8.92-8.31c-.36-.33-.83-.49-1.32-.44-.48.05-.92.3-1.21.69l-15.52,21.62-1.98-1.99c-1.95-1.95-2.8-3.13-2.12-5.53.88-3.11,6.2-20.61,7.95-26.36.18-.6.02-1.25-.42-1.69l-6.76-6.76c-1.51-1.51-3.27-4.62-4.27-7.56-1.14-3.34-1.01-5.47-.38-6.1,1.68-1.68,10.24,1.23,13.66,4.65l6.74,6.73c.44.44,1.09.6,1.69.42,6.95-2.12,23.43-7.13,26.44-7.98,2.39-.67,3.57.17,5.53,2.12l1.98,1.98-21.68,15.56c-.39.28-.65.72-.7,1.2-.05.48.11.96.45,1.32l8.28,8.88c.37.4.9.59,1.43.53,2.59-.31,5.22-.46,7.14-.57,1.11-.06,1.91-.11,2.38-.17,1.05-.13,1.61.26,3.24,1.9l1.19,1.18-11.64,5.8c-.16.08-.31.19-.44.32l-1.73,1.73c-.13.13-.24.28-.32.44l-5.8,11.65-1.19-1.19c-1.63-1.63-2.03-2.19-1.9-3.25.12-.92-.54-1.77-1.47-1.88-.93-.11-1.77.54-1.88,1.47-.35,2.84,1.28,4.47,2.86,6.05l2.85,2.85c.32.32.75.49,1.2.49.09,0,.18,0,.27-.02.54-.08,1-.43,1.24-.91l6.73-13.5,1.34-1.34,13.5-6.73c.49-.24.83-.7.91-1.24.09-.54-.09-1.08-.47-1.47ZM10.43,7.83l-2.53,2.52c-.66.66-.66,1.73,0,2.39.33.33.76.5,1.2.5s.86-.17,1.19-.5l2.53-2.53c.66-.66.66-1.73,0-2.39-.66-.66-1.73-.66-2.39,0Z"/>
    </g>
  </g>
</svg>