<?xml version="1.0" encoding="UTF-8"?>
<svg id="Layer_2" data-name="Layer 2" xmlns="http://www.w3.org/2000/svg" viewBox="0 0 27.35 26.35">
  <defs>
    <style>
      .cls-1 {
        fill-rule: evenodd;
      }
    </style>
  </defs>
  <g id="_1" data-name="1">
    <path class="cls-1" d="M.33,0h27.03v21.08h-12v-.69h11.31V4.6H.68v15.79h10.91v.69H0V0h.33ZM13.12,13.17c.05-.11.16-.18.29-.18s.24.07.29.18l1.23,2.48-3,.02,1.19-2.5ZM11.94,16.08h2.99s.06,7.05.06,7.05l-2.99.03-.06-7.08ZM12,24.29h3s-.01-.84-.01-.84l-2.99.03v.82ZM14.36,26.33h0l-1.7.02c-.36,0-.65-.28-.65-.64v-1.12s2.98-.03,2.98-.03v1.12c0,.16-.05.33-.18.45-.13.13-.29.19-.46.19h0ZM18,13.48h7.44v1.79h-7.57v-1.79h.14ZM1.68,13.48h7.44v1.79H1.55v-1.79h.14ZM18,5.41h7.4v6.16h-7.53v-6.16h.14ZM10.27,5.49v.26h-.12v.25h-.28v-.28h.14v-.23h.26ZM9.87,6.26h.28v.28h-.28v-.28ZM9.87,6.81h.28v.27h-.28v-.27ZM9.87,7.36h.28v.28h-.28v-.28ZM9.87,7.89h.28v.28h-.28v-.28ZM9.87,8.45h.28v.26h-.28v-.26ZM9.87,8.99h.28v.26h-.28v-.26ZM9.87,9.52h.28v.28h-.28v-.28ZM9.87,10.07h.28v.28h-.28v-.28ZM9.87,10.62h.28v.26h-.28v-.26ZM9.87,11.16h.28v.21h-.08v.14h-.19v-.35ZM10.34,11.5v-.26h.26v.26h-.26ZM10.88,11.5v-.26h.28v.26h-.28ZM11.42,11.5v-.26h.28v.26h-.28ZM11.97,11.5v-.26h.26v.26h-.26ZM12.51,11.5v-.26h.26v.26h-.26ZM13.05,11.5v-.26h.28v.26h-.28ZM13.59,11.5v-.26h.27v.26h-.27ZM14.14,11.5v-.26h.26v.26h-.26ZM14.68,11.5v-.26h.28v.26h-.28ZM15.22,11.5v-.26h.28v.26h-.28ZM15.76,11.5v-.26h.27v.26h-.27ZM16.31,11.5v-.26h.26v.26h-.26ZM16.85,11.5v-.08l-.06-.05v-.18h.28v.32h-.22ZM17.07,10.91h-.28v-.27h.28v.27ZM17.07,10.37h-.28v-.28h.28v.28ZM17.07,9.82h-.28v-.26h.28v.26ZM17.07,9.28h-.28v-.28h.28v.28ZM17.07,8.73h-.28v-.27h.28v.27ZM17.07,8.2h-.28v-.27h.28v.27ZM17.07,7.65h-.28v-.26h.28v.26ZM17.07,7.1h-.28v-.27h.28v.27ZM17.07,6.57h-.28v-.28h.28v.28ZM17.07,6.02h-.28v-.26h.28v.26ZM16.79,5.49v.26h-.27v-.26h.27ZM16.24,5.49v.26h-.26v-.26h.26ZM15.7,5.49v.26h-.26v-.26h.26ZM15.16,5.49v.26h-.28v-.26h.28ZM14.62,5.49v.26h-.28v-.26h.28ZM14.07,5.49v.26h-.26v-.26h.26ZM13.53,5.49v.26h-.27v-.26h.27ZM12.99,5.49v.26h-.28v-.26h.28ZM12.45,5.49v.26h-.28v-.26h.28ZM11.9,5.49v.26h-.26v-.26h.26ZM11.36,5.49v.26h-.28v-.26h.28ZM10.82,5.49v.26h-.28v-.26h.28ZM1.68,5.41h7.4v6.16H1.55v-6.16h.14ZM7.41,1.45h-2.43v2.12h2.43V1.45ZM4.12,1.45H1.68v2.12h2.43V1.45ZM11.79,3.7h13.66V1.19h-13.66v2.51Z"/>
  </g>
</svg>