<?xml version="1.0" encoding="UTF-8"?>
<svg id="Layer_2" data-name="Layer 2" xmlns="http://www.w3.org/2000/svg" xmlns:xlink="http://www.w3.org/1999/xlink" viewBox="0 0 70.96 70.95">
  <defs>
    <style>
      .cls-1 {
        opacity: .14;
      }

      .cls-2 {
        fill: url(#linear-gradient-2);
      }

      .cls-3 {
        opacity: .21;
      }

      .cls-4 {
        opacity: .42;
      }

      .cls-5 {
        opacity: .55;
      }

      .cls-6 {
        opacity: .48;
      }

      .cls-7 {
        opacity: .35;
      }

      .cls-8 {
        fill: url(#linear-gradient-3);
      }

      .cls-9 {
        opacity: .08;
      }

      .cls-10 {
        opacity: .28;
      }

      .cls-11 {
        opacity: 0;
      }

      .cls-12 {
        fill: url(#linear-gradient);
      }
    </style>
    <linearGradient id="linear-gradient" x1="8.88" y1="8.95" x2="57.31" y2="57.38" gradientUnits="userSpaceOnUse">
      <stop offset="0" stop-color="#7973ff"/>
      <stop offset="1" stop-color="#bcbdff"/>
    </linearGradient>
    <linearGradient id="linear-gradient-2" x1="13.08" y1="7.2" x2="36.25" y2="30.37" gradientUnits="userSpaceOnUse">
      <stop offset=".01" stop-color="#ff870a"/>
      <stop offset="1" stop-color="#ffdb4a"/>
    </linearGradient>
    <linearGradient id="linear-gradient-3" x1="9.6" y1="9.61" x2="55.94" y2="55.94" gradientUnits="userSpaceOnUse">
      <stop offset="0" stop-color="#2c2e2c"/>
      <stop offset=".99" stop-color="#000"/>
    </linearGradient>
  </defs>
  <g id="Layer_1-2" data-name="Layer 1">
    <g>
      <path class="cls-12" d="M64.06,32.96c0,17.21-13.95,31.16-31.16,31.16S1.74,50.17,1.74,32.96,15.69,1.8,32.9,1.8s31.16,13.95,31.16,31.16Z"/>
      <path class="cls-2" d="M3.29,22.62l29.17,9.26.44-30.09s-20.69-.11-29.61,20.82Z"/>
      <g>
        <path class="cls-11" d="M38.18,70.95c-18.07,0-32.77-14.7-32.77-32.77,0-.93.76-1.69,1.69-1.69s1.69.75,1.69,1.69c0,16.21,13.19,29.4,29.4,29.4s29.39-13.19,29.39-29.4-13.18-29.39-29.39-29.39c-10.46,0-20.21,5.62-25.45,14.68-.67,1.16-1.26,2.37-1.77,3.61l25.53,8.74V13.59c0-.94.76-1.69,1.69-1.69s1.69.75,1.69,1.69v24.59c0,.54-.26,1.06-.71,1.37-.44.32-1.01.4-1.53.23l-29.42-10.07c-.42-.14-.77-.45-.97-.86-.2-.4-.23-.87-.08-1.29.69-2,1.57-3.95,2.64-5.79C15.65,11.68,26.52,5.41,38.18,5.41c18.07,0,32.77,14.71,32.77,32.78s-14.7,32.77-32.77,32.77Z"/>
        <path class="cls-9" d="M37.56,70.33c-18.07,0-32.77-14.7-32.77-32.77,0-.93.76-1.69,1.69-1.69s1.69.75,1.69,1.69c0,16.21,13.19,29.4,29.4,29.4s29.39-13.19,29.39-29.4-13.18-29.39-29.39-29.39c-10.46,0-20.21,5.62-25.45,14.68-.67,1.16-1.26,2.37-1.77,3.61l25.53,8.74V12.96c0-.94.76-1.69,1.69-1.69s1.69.75,1.69,1.69v24.59c0,.54-.26,1.06-.71,1.37-.44.32-1.01.4-1.53.23L7.59,29.08c-.42-.14-.77-.45-.97-.86-.2-.4-.23-.87-.08-1.29.69-2,1.57-3.95,2.64-5.79C15.03,11.05,25.9,4.78,37.56,4.78c18.07,0,32.77,14.71,32.77,32.78s-14.7,32.77-32.77,32.77Z"/>
        <path class="cls-1" d="M36.93,69.7c-18.07,0-32.77-14.7-32.77-32.77,0-.93.76-1.69,1.69-1.69s1.69.75,1.69,1.69c0,16.21,13.19,29.4,29.4,29.4s29.39-13.19,29.39-29.4S53.14,7.54,36.93,7.54c-10.46,0-20.21,5.62-25.45,14.68-.67,1.16-1.26,2.37-1.77,3.61l25.53,8.74V12.34c0-.94.76-1.69,1.69-1.69s1.69.75,1.69,1.69v24.59c0,.54-.26,1.06-.71,1.37-.44.32-1.01.4-1.53.23L6.97,28.46c-.42-.14-.77-.45-.97-.86-.2-.4-.23-.87-.08-1.29.69-2,1.57-3.95,2.64-5.79C14.4,10.43,25.27,4.16,36.93,4.16c18.07,0,32.77,14.71,32.77,32.78s-14.7,32.77-32.77,32.77Z"/>
        <path class="cls-3" d="M36.31,69.08c-18.07,0-32.77-14.7-32.77-32.77,0-.93.76-1.69,1.69-1.69s1.69.75,1.69,1.69c0,16.21,13.19,29.4,29.4,29.4s29.39-13.19,29.39-29.4S52.51,6.91,36.31,6.91c-10.46,0-20.21,5.62-25.45,14.68-.67,1.16-1.26,2.37-1.77,3.61l25.53,8.74V11.71c0-.94.76-1.69,1.69-1.69s1.69.75,1.69,1.69v24.59c0,.54-.26,1.06-.71,1.37-.44.32-1.01.4-1.53.23L6.34,27.83c-.42-.14-.77-.45-.97-.86-.2-.4-.23-.87-.08-1.29.69-2,1.57-3.95,2.64-5.79C13.78,9.8,24.65,3.53,36.31,3.53c18.07,0,32.77,14.71,32.77,32.78s-14.7,32.77-32.77,32.77Z"/>
        <path class="cls-10" d="M35.68,68.45c-18.07,0-32.77-14.7-32.77-32.77,0-.93.76-1.69,1.69-1.69s1.69.75,1.69,1.69c0,16.21,13.19,29.4,29.4,29.4s29.39-13.19,29.39-29.4S51.89,6.29,35.68,6.29c-10.46,0-20.21,5.62-25.45,14.68-.67,1.16-1.26,2.37-1.77,3.61l25.53,8.74V11.09c0-.94.76-1.69,1.69-1.69s1.69.75,1.69,1.69v24.59c0,.54-.26,1.06-.71,1.37-.44.32-1.01.4-1.53.23L5.72,27.21c-.42-.14-.77-.45-.97-.86-.2-.4-.23-.87-.08-1.29.69-2,1.57-3.95,2.64-5.79C13.15,9.18,24.02,2.91,35.68,2.91c18.07,0,32.77,14.71,32.77,32.78s-14.7,32.77-32.77,32.77Z"/>
        <path class="cls-7" d="M35.06,67.83c-18.07,0-32.77-14.7-32.77-32.77,0-.93.76-1.69,1.69-1.69s1.69.75,1.69,1.69c0,16.21,13.19,29.4,29.4,29.4s29.39-13.19,29.39-29.4S51.26,5.66,35.06,5.66c-10.46,0-20.21,5.62-25.45,14.68-.67,1.16-1.26,2.37-1.77,3.61l25.53,8.74V10.46c0-.94.76-1.69,1.69-1.69s1.69.75,1.69,1.69v24.59c0,.54-.26,1.06-.71,1.37-.44.32-1.01.4-1.53.23L5.09,26.58c-.42-.14-.77-.45-.97-.86-.2-.4-.23-.87-.08-1.29.69-2,1.57-3.95,2.64-5.79C12.53,8.55,23.4,2.28,35.06,2.28c18.07,0,32.77,14.71,32.77,32.78s-14.7,32.77-32.77,32.77Z"/>
        <path class="cls-4" d="M34.43,67.2C16.36,67.2,1.66,52.5,1.66,34.43c0-.93.76-1.69,1.69-1.69s1.69.75,1.69,1.69c0,16.21,13.19,29.4,29.4,29.4s29.39-13.19,29.39-29.4S50.64,5.04,34.43,5.04c-10.46,0-20.21,5.62-25.45,14.68-.67,1.16-1.26,2.37-1.77,3.61l25.53,8.74V9.84c0-.94.76-1.69,1.69-1.69s1.69.75,1.69,1.69v24.59c0,.54-.26,1.06-.71,1.37-.44.32-1.01.4-1.53.23L4.47,25.96c-.42-.14-.77-.45-.97-.86-.2-.4-.23-.87-.08-1.29.69-2,1.57-3.95,2.64-5.79C11.9,7.93,22.77,1.66,34.43,1.66c18.07,0,32.77,14.71,32.77,32.78s-14.7,32.77-32.77,32.77Z"/>
        <path class="cls-6" d="M33.81,66.58C15.73,66.58,1.03,51.88,1.03,33.81c0-.93.76-1.69,1.69-1.69s1.69.75,1.69,1.69c0,16.21,13.19,29.4,29.4,29.4s29.39-13.19,29.39-29.4S50.01,4.41,33.81,4.41c-10.46,0-20.21,5.62-25.45,14.68-.67,1.16-1.26,2.37-1.77,3.61l25.53,8.74V9.21c0-.94.76-1.69,1.69-1.69s1.69.75,1.69,1.69v24.59c0,.54-.26,1.06-.71,1.37-.44.32-1.01.4-1.53.23L3.84,25.33c-.42-.14-.77-.45-.97-.86-.2-.4-.23-.87-.08-1.29.69-2,1.57-3.95,2.64-5.79C11.28,7.3,22.15,1.03,33.81,1.03c18.07,0,32.77,14.71,32.77,32.78s-14.7,32.77-32.77,32.77Z"/>
        <path class="cls-5" d="M33.18,65.95C15.11,65.95.41,51.25.41,33.18c0-.93.76-1.69,1.69-1.69s1.69.75,1.69,1.69c0,16.21,13.19,29.4,29.4,29.4s29.39-13.19,29.39-29.4S49.39,3.79,33.18,3.79c-10.46,0-20.21,5.62-25.45,14.68-.67,1.16-1.26,2.37-1.77,3.61l25.53,8.74V8.59c0-.94.76-1.69,1.69-1.69s1.69.75,1.69,1.69v24.59c0,.54-.26,1.06-.71,1.37-.44.32-1.01.4-1.53.23L3.22,24.71c-.42-.14-.77-.45-.97-.86-.2-.4-.23-.87-.08-1.29.69-2,1.57-3.95,2.64-5.79C10.65,6.68,21.52.41,33.18.41c18.07,0,32.77,14.71,32.77,32.78s-14.7,32.77-32.77,32.77Z"/>
      </g>
      <path class="cls-8" d="M32.77,65.55C14.7,65.55,0,50.85,0,32.78c0-.93.76-1.69,1.69-1.69s1.69.75,1.69,1.69c0,16.21,13.19,29.4,29.4,29.4s29.39-13.19,29.39-29.4S48.98,3.38,32.77,3.38c-10.46,0-20.21,5.62-25.45,14.68-.67,1.16-1.26,2.37-1.77,3.61l25.53,8.74V8.18c0-.94.76-1.69,1.69-1.69s1.69.75,1.69,1.69v24.59c0,.54-.26,1.06-.71,1.37-.44.32-1.01.4-1.53.23L2.81,24.3c-.42-.14-.77-.45-.97-.86-.2-.4-.23-.87-.08-1.29.69-2,1.57-3.95,2.64-5.79C10.25,6.27,21.12,0,32.77,0c18.07,0,32.77,14.71,32.77,32.78s-14.7,32.77-32.77,32.77Z"/>
    </g>
  </g>
</svg>