<?xml version="1.0" encoding="UTF-8"?>
<svg id="Layer_2" data-name="Layer 2" xmlns="http://www.w3.org/2000/svg" xmlns:xlink="http://www.w3.org/1999/xlink" viewBox="0 0 67.91 80.83">
  <defs>
    <style>
      .cls-1 {
        opacity: .14;
      }

      .cls-2 {
        fill: url(#linear-gradient-2);
      }

      .cls-3 {
        opacity: .21;
      }

      .cls-4 {
        opacity: .42;
      }

      .cls-5 {
        opacity: .55;
      }

      .cls-6 {
        opacity: .48;
      }

      .cls-7 {
        opacity: .35;
      }

      .cls-8 {
        opacity: .08;
      }

      .cls-9 {
        opacity: .28;
      }

      .cls-10 {
        opacity: 0;
      }

      .cls-11 {
        fill: url(#linear-gradient);
      }
    </style>
    <linearGradient id="linear-gradient" x1="8.39" y1="18.9" x2="59.25" y2="69.75" gradientUnits="userSpaceOnUse">
      <stop offset="0" stop-color="#d79d81"/>
      <stop offset="1" stop-color="#f8d6b3"/>
    </linearGradient>
    <linearGradient id="linear-gradient-2" x1="8.03" y1="18.38" x2="59.45" y2="69.81" gradientUnits="userSpaceOnUse">
      <stop offset="0" stop-color="#2c2e2c"/>
      <stop offset=".99" stop-color="#000"/>
    </linearGradient>
  </defs>
  <g id="Layer_1-2" data-name="Layer 1">
    <g>
      <path class="cls-11" d="M42.96,73.92h-18.72c-3.69,0-16.87-1.97-17.61-11.08-.74-9.11-.62-13.92-3.33-19.83-2.71-5.91.12-8.74,4.31-8.5,4.19.25,7.27,2.83,7.27,2.83v-19.95c0-4.06,3.45-8.13,11.33-8.13,0-3.94,2.09-7.64,6.77-7.64s6.28,4.31,6.16,7.76c2.71,0,11.45-1.48,11.45,8.87,4.06,0,10.1-.25,10.1,8.99v33.5c0,3.45-1.85,13.18-17.74,13.18Z"/>
      <g>
        <path class="cls-10" d="M57.59,21.8c-.62-7.18-5.38-8.75-9.41-8.75h-2.12v-.16c0-3.72-2.42-7.47-7.83-7.47-6.23,0-7.89,4.7-7.89,7.47v.16h-1.53c-5.98,0-10.16,3.96-10.16,9.64v17.19c-1.83-1.08-4.36-2.09-7.03-1.67-2.82.43-4.72,1.58-5.63,3.41-1.02,2.04-.69,4.66.98,7.79,1.17,2.2,3.14,6.6,3.14,11.44v6.16c0,8.02,8.22,13.83,19.53,13.83.93,0,1.69-.76,1.69-1.69s-.76-1.69-1.69-1.69c-8.03,0-16.15-3.59-16.15-10.46v-6.16c0-5.57-2.21-10.55-3.53-13.03-1.09-2.05-1.43-3.71-.94-4.69.49-.98,1.97-1.4,3.13-1.58,3.44-.53,6.99,2.87,7.02,2.89.48.48,1.21.61,1.84.35.62-.26,1.03-.88,1.03-1.56v-20.54c0-3.8,2.66-6.26,6.78-6.26h1.46v23.82c0,.93.76,1.69,1.69,1.69s1.69-.76,1.69-1.69V15.66c0-.12-.01-.24-.04-.35.07-.18.11-.37.11-.57v-1.86c0-.96.33-4.09,4.51-4.09s4.46,2.86,4.46,4.09v1.86c0,.15.03.3.06.44-.04.15-.08.31-.08.48v24.59c0,.93.75,1.69,1.69,1.69s1.69-.76,1.69-1.69v-23.82h2.13c3.17,0,6.1.85,6.1,7.03,0,.07.01.14.02.21v16.58c0,.93.76,1.69,1.69,1.69s1.69-.76,1.69-1.69v-15.06c5.17.23,6.85,1.75,6.85,8.14v33.33c0,9.75-11.18,10.8-15.98,10.8-.93,0-1.69.76-1.69,1.69s.76,1.69,1.69,1.69c12.12,0,19.37-5.3,19.37-14.18v-33.33c0-8.96-3.75-11.24-10.32-11.53Z"/>
        <path class="cls-8" d="M56.97,21.17c-.62-7.18-5.38-8.75-9.41-8.75h-2.12v-.16c0-3.72-2.42-7.47-7.83-7.47-6.23,0-7.89,4.7-7.89,7.47v.16h-1.53c-5.98,0-10.16,3.96-10.16,9.64v17.19c-1.83-1.08-4.36-2.09-7.03-1.67-2.82.43-4.72,1.58-5.63,3.41-1.02,2.04-.69,4.66.98,7.79,1.17,2.2,3.14,6.6,3.14,11.44v6.16c0,8.02,8.22,13.83,19.53,13.83.93,0,1.69-.76,1.69-1.69s-.76-1.69-1.69-1.69c-8.03,0-16.15-3.59-16.15-10.46v-6.16c0-5.57-2.21-10.55-3.53-13.03-1.09-2.05-1.43-3.71-.94-4.69.49-.98,1.97-1.4,3.13-1.58,3.44-.53,6.99,2.86,7.02,2.89.5.46,1.21.61,1.84.35.63-.26,1.03-.88,1.03-1.56v-20.54c0-3.8,2.66-6.26,6.78-6.26h1.46v23.82c0,.93.76,1.69,1.69,1.69s1.69-.76,1.69-1.69V15.03c0-.12-.01-.24-.04-.35.07-.18.11-.37.11-.57v-1.86c0-.96.33-4.09,4.51-4.09s4.46,2.86,4.46,4.09v1.86c0,.15.03.3.06.44-.04.15-.08.31-.08.48v24.59c0,.93.75,1.69,1.69,1.69s1.69-.76,1.69-1.69V15.8h2.13c3.17,0,6.1.85,6.1,7.03,0,.07.01.14.02.21v16.58c0,.93.76,1.69,1.69,1.69s1.69-.76,1.69-1.69v-15.06c5.17.23,6.85,1.75,6.85,8.14v33.33c0,9.75-11.18,10.8-15.98,10.8-.93,0-1.69.76-1.69,1.69s.76,1.69,1.69,1.69c12.12,0,19.37-5.3,19.37-14.18v-33.33c0-8.96-3.75-11.24-10.32-11.53Z"/>
        <path class="cls-1" d="M56.34,20.55c-.62-7.18-5.38-8.75-9.41-8.75h-2.12v-.16c0-3.72-2.42-7.47-7.83-7.47-6.23,0-7.89,4.7-7.89,7.47v.16h-1.53c-5.98,0-10.16,3.96-10.16,9.64v17.19c-1.83-1.08-4.36-2.09-7.03-1.67-2.82.43-4.72,1.58-5.63,3.41-1.02,2.04-.69,4.66.98,7.79,1.17,2.2,3.14,6.6,3.14,11.44v6.16c0,8.02,8.22,13.83,19.53,13.83.93,0,1.69-.76,1.69-1.69s-.76-1.69-1.69-1.69c-8.03,0-16.15-3.59-16.15-10.46v-6.16c0-5.57-2.21-10.55-3.53-13.03-1.09-2.05-1.43-3.71-.94-4.69.49-.98,1.97-1.4,3.13-1.58,3.44-.53,6.99,2.86,7.02,2.89.5.46,1.21.61,1.84.35.63-.26,1.03-.88,1.03-1.56v-20.54c0-3.8,2.66-6.26,6.78-6.26h1.46v23.82c0,.93.76,1.69,1.69,1.69s1.69-.76,1.69-1.69V14.41c0-.12-.01-.24-.04-.35.07-.18.11-.37.11-.57v-1.86c0-.96.33-4.09,4.51-4.09s4.46,2.86,4.46,4.09v1.86c0,.15.03.3.06.44-.04.15-.08.31-.08.48v24.59c0,.93.75,1.69,1.69,1.69s1.69-.76,1.69-1.69V15.18h2.13c3.17,0,6.1.85,6.1,7.03,0,.07.01.14.02.21v16.58c0,.93.76,1.69,1.69,1.69s1.69-.76,1.69-1.69v-15.06c5.17.23,6.85,1.75,6.85,8.14v33.33c0,9.75-11.18,10.8-15.98,10.8-.93,0-1.69.76-1.69,1.69s.76,1.69,1.69,1.69c12.12,0,19.37-5.3,19.37-14.18v-33.33c0-8.96-3.75-11.24-10.32-11.53Z"/>
        <path class="cls-3" d="M55.72,19.92c-.62-7.18-5.38-8.75-9.41-8.75h-2.12v-.16c0-3.72-2.42-7.47-7.83-7.47-6.23,0-7.89,4.7-7.89,7.47v.16h-1.53c-5.98,0-10.16,3.96-10.16,9.64v17.19c-1.83-1.08-4.36-2.09-7.03-1.67-2.82.43-4.72,1.58-5.63,3.41-1.02,2.04-.69,4.66.98,7.79,1.17,2.2,3.14,6.6,3.14,11.44v6.16c0,8.02,8.22,13.83,19.53,13.83.93,0,1.69-.76,1.69-1.69s-.76-1.69-1.69-1.69c-8.03,0-16.15-3.59-16.15-10.46v-6.16c0-5.57-2.21-10.55-3.53-13.03-1.09-2.05-1.43-3.71-.94-4.69.49-.98,1.97-1.4,3.13-1.58,3.44-.53,6.99,2.86,7.02,2.89.5.46,1.21.61,1.84.35.63-.26,1.03-.88,1.03-1.56v-20.54c0-3.8,2.66-6.26,6.78-6.26h1.46v23.82c0,.93.76,1.69,1.69,1.69s1.69-.76,1.69-1.69V13.78c0-.12-.01-.24-.04-.35.07-.18.11-.37.11-.57v-1.86c0-.96.33-4.09,4.51-4.09s4.46,2.86,4.46,4.09v1.86c0,.15.03.3.06.44-.04.15-.08.31-.08.48v24.59c0,.93.75,1.69,1.69,1.69s1.69-.76,1.69-1.69V14.55h2.13c3.17,0,6.1.85,6.1,7.03,0,.07.01.14.02.21v16.58c0,.93.76,1.69,1.69,1.69s1.69-.76,1.69-1.69v-15.06c5.17.23,6.85,1.75,6.85,8.14v33.33c0,9.75-11.18,10.8-15.98,10.8-.93,0-1.69.76-1.69,1.69s.76,1.69,1.69,1.69c12.12,0,19.37-5.3,19.37-14.18V31.45c0-8.96-3.75-11.24-10.32-11.53Z"/>
        <path class="cls-9" d="M55.09,19.3c-.62-7.18-5.38-8.75-9.41-8.75h-2.12v-.16c0-3.72-2.42-7.47-7.83-7.47-6.23,0-7.89,4.7-7.89,7.47v.16h-1.53c-5.98,0-10.16,3.96-10.16,9.64v17.19c-1.83-1.08-4.36-2.09-7.03-1.67-2.82.43-4.72,1.58-5.63,3.41-1.02,2.04-.69,4.66.98,7.79,1.17,2.2,3.14,6.6,3.14,11.44v6.16c0,8.02,8.22,13.83,19.53,13.83.93,0,1.69-.76,1.69-1.69s-.76-1.69-1.69-1.69c-8.03,0-16.15-3.59-16.15-10.46v-6.16c0-5.57-2.21-10.55-3.53-13.03-1.09-2.05-1.43-3.71-.94-4.69.49-.98,1.97-1.4,3.13-1.58,3.44-.53,6.99,2.86,7.02,2.89.5.46,1.21.61,1.84.35.63-.26,1.03-.88,1.03-1.56v-20.54c0-3.8,2.66-6.26,6.78-6.26h1.46v23.82c0,.93.76,1.69,1.69,1.69s1.69-.76,1.69-1.69V13.16c0-.12-.01-.24-.04-.35.07-.18.11-.37.11-.57v-1.86c0-.96.33-4.09,4.51-4.09s4.46,2.86,4.46,4.09v1.86c0,.15.03.3.06.44-.04.15-.08.31-.08.48v24.59c0,.93.75,1.69,1.69,1.69s1.69-.76,1.69-1.69V13.93h2.13c3.17,0,6.1.85,6.1,7.03,0,.07.01.14.02.21v16.58c0,.93.76,1.69,1.69,1.69s1.69-.76,1.69-1.69v-15.06c5.17.23,6.85,1.75,6.85,8.14v33.33c0,9.75-11.18,10.8-15.98,10.8-.93,0-1.69.76-1.69,1.69s.76,1.69,1.69,1.69c12.12,0,19.37-5.3,19.37-14.18V30.82c0-8.96-3.75-11.24-10.32-11.53Z"/>
        <path class="cls-7" d="M54.47,18.67c-.62-7.18-5.38-8.75-9.41-8.75h-2.12v-.16c0-3.72-2.42-7.47-7.83-7.47-6.23,0-7.89,4.7-7.89,7.47v.16h-1.53c-5.98,0-10.16,3.96-10.16,9.64v17.19c-1.83-1.08-4.36-2.09-7.03-1.67-2.82.43-4.72,1.58-5.63,3.41-1.02,2.04-.69,4.66.98,7.79,1.17,2.2,3.14,6.6,3.14,11.44v6.16c0,8.02,8.22,13.83,19.53,13.83.93,0,1.69-.76,1.69-1.69s-.76-1.69-1.69-1.69c-8.03,0-16.15-3.59-16.15-10.46v-6.16c0-5.57-2.21-10.55-3.53-13.03-1.09-2.05-1.43-3.71-.94-4.69.49-.98,1.97-1.4,3.13-1.58,3.44-.53,6.99,2.86,7.02,2.89.5.46,1.21.61,1.84.35.63-.26,1.03-.88,1.03-1.56v-20.54c0-3.8,2.66-6.26,6.78-6.26h1.46v23.82c0,.93.76,1.69,1.69,1.69s1.69-.76,1.69-1.69V12.53c0-.12-.01-.24-.04-.35.07-.18.11-.37.11-.57v-1.86c0-.96.33-4.09,4.51-4.09s4.46,2.86,4.46,4.09v1.86c0,.15.03.3.06.44-.04.15-.08.31-.08.48v24.59c0,.93.75,1.69,1.69,1.69s1.69-.76,1.69-1.69V13.3h2.13c3.17,0,6.1.85,6.1,7.03,0,.07.01.14.02.21v16.58c0,.93.76,1.69,1.69,1.69s1.69-.76,1.69-1.69v-15.06c5.17.23,6.85,1.75,6.85,8.14v33.33c0,9.75-11.18,10.8-15.98,10.8-.93,0-1.69.76-1.69,1.69s.76,1.69,1.69,1.69c12.12,0,19.37-5.3,19.37-14.18V30.2c0-8.96-3.75-11.24-10.32-11.53Z"/>
        <path class="cls-4" d="M53.84,18.05c-.62-7.18-5.38-8.75-9.41-8.75h-2.12v-.16c0-3.72-2.42-7.47-7.83-7.47-6.23,0-7.89,4.7-7.89,7.47v.16h-1.53c-5.98,0-10.16,3.96-10.16,9.64v17.19c-1.83-1.08-4.36-2.09-7.03-1.67-2.82.43-4.72,1.58-5.63,3.41-1.02,2.04-.69,4.66.98,7.79,1.17,2.2,3.14,6.6,3.14,11.44v6.16c0,8.02,8.22,13.83,19.53,13.83.93,0,1.69-.76,1.69-1.69s-.76-1.69-1.69-1.69c-8.03,0-16.15-3.59-16.15-10.46v-6.16c0-5.57-2.21-10.55-3.53-13.03-1.09-2.05-1.43-3.71-.94-4.69.49-.98,1.97-1.4,3.13-1.58,3.44-.53,6.99,2.86,7.02,2.89.5.46,1.21.61,1.84.35.63-.26,1.03-.88,1.03-1.56v-20.54c0-3.8,2.66-6.26,6.78-6.26h1.46v23.82c0,.93.76,1.69,1.69,1.69s1.69-.76,1.69-1.69V11.91c0-.12-.01-.24-.04-.35.07-.18.11-.37.11-.57v-1.86c0-.96.33-4.09,4.51-4.09s4.46,2.86,4.46,4.09v1.86c0,.15.03.3.06.44-.04.15-.08.31-.08.48v24.59c0,.93.75,1.69,1.69,1.69s1.69-.76,1.69-1.69V12.68h2.13c3.17,0,6.1.85,6.1,7.03,0,.07.01.14.02.21v16.58c0,.93.76,1.69,1.69,1.69s1.69-.76,1.69-1.69v-15.06c5.17.23,6.85,1.75,6.85,8.14v33.33c0,9.75-11.18,10.8-15.98,10.8-.93,0-1.69.76-1.69,1.69s.76,1.69,1.69,1.69c12.12,0,19.37-5.3,19.37-14.18V29.57c0-8.96-3.75-11.24-10.32-11.53Z"/>
        <path class="cls-6" d="M53.22,17.42c-.62-7.18-5.38-8.75-9.41-8.75h-2.12v-.16c0-3.72-2.42-7.47-7.83-7.47-6.23,0-7.89,4.7-7.89,7.47v.16h-1.53c-5.98,0-10.16,3.96-10.16,9.64v17.19c-1.83-1.08-4.36-2.09-7.03-1.67-2.82.43-4.72,1.58-5.63,3.41-1.02,2.04-.69,4.66.98,7.79,1.17,2.2,3.14,6.6,3.14,11.44v6.16c0,8.02,8.22,13.83,19.53,13.83.93,0,1.69-.76,1.69-1.69s-.76-1.69-1.69-1.69c-8.03,0-16.15-3.59-16.15-10.46v-6.16c0-5.57-2.21-10.55-3.53-13.03-1.09-2.05-1.43-3.71-.94-4.69.49-.98,1.97-1.4,3.13-1.58,3.44-.53,6.99,2.86,7.02,2.89.5.46,1.21.61,1.84.35.63-.26,1.03-.88,1.03-1.56v-20.54c0-3.8,2.66-6.26,6.78-6.26h1.46v23.82c0,.93.76,1.69,1.69,1.69s1.69-.76,1.69-1.69V11.28c0-.12-.01-.24-.04-.35.07-.18.11-.37.11-.57v-1.86c0-.96.33-4.09,4.51-4.09s4.46,2.86,4.46,4.09v1.86c0,.15.03.3.06.44-.04.15-.08.31-.08.48v24.59c0,.93.75,1.69,1.69,1.69s1.69-.76,1.69-1.69V12.05h2.13c3.17,0,6.1.85,6.1,7.03,0,.07.01.14.02.21v16.58c0,.93.76,1.69,1.69,1.69s1.69-.76,1.69-1.69v-15.06c5.17.23,6.85,1.75,6.85,8.14v33.33c0,9.75-11.18,10.8-15.98,10.8-.93,0-1.69.76-1.69,1.69s.76,1.69,1.69,1.69c12.12,0,19.37-5.3,19.37-14.18V28.95c0-8.96-3.75-11.24-10.32-11.53Z"/>
        <path class="cls-5" d="M52.59,16.8c-.62-7.18-5.38-8.75-9.41-8.75h-2.12v-.16c0-3.72-2.42-7.47-7.83-7.47-6.23,0-7.89,4.7-7.89,7.47v.16h-1.53c-5.98,0-10.16,3.96-10.16,9.64v17.19c-1.83-1.08-4.36-2.09-7.03-1.67-2.82.43-4.72,1.58-5.63,3.41-1.02,2.04-.69,4.66.98,7.79,1.17,2.2,3.14,6.6,3.14,11.44v6.16c0,8.02,8.22,13.83,19.53,13.83.93,0,1.69-.76,1.69-1.69s-.76-1.69-1.69-1.69c-8.03,0-16.15-3.59-16.15-10.46v-6.16c0-5.57-2.21-10.55-3.53-13.03-1.09-2.05-1.43-3.71-.94-4.69.49-.98,1.97-1.4,3.13-1.58,3.44-.53,6.99,2.87,7.02,2.89.48.48,1.21.61,1.84.35.62-.26,1.03-.88,1.03-1.56v-20.54c0-3.8,2.66-6.26,6.78-6.26h1.46v23.82c0,.93.76,1.69,1.69,1.69s1.69-.76,1.69-1.69V10.66c0-.12-.01-.24-.04-.35.07-.18.11-.37.11-.57v-1.86c0-.96.33-4.09,4.51-4.09s4.46,2.86,4.46,4.09v1.86c0,.15.03.3.06.44-.04.15-.08.31-.08.48v24.59c0,.93.75,1.69,1.69,1.69s1.69-.76,1.69-1.69V11.43h2.13c3.17,0,6.1.85,6.1,7.03,0,.07.01.14.02.21v16.58c0,.93.76,1.69,1.69,1.69s1.69-.76,1.69-1.69v-15.06c5.17.23,6.85,1.75,6.85,8.14v33.33c0,9.75-11.18,10.8-15.98,10.8-.93,0-1.69.76-1.69,1.69s.76,1.69,1.69,1.69c12.12,0,19.37-5.3,19.37-14.18V28.32c0-8.96-3.75-11.24-10.32-11.53Z"/>
      </g>
      <path class="cls-2" d="M52.18,16.39c-.62-7.18-5.38-8.75-9.41-8.75h-2.12v-.16c0-3.72-2.42-7.47-7.83-7.47-6.23,0-7.89,4.7-7.89,7.47v.16h-1.53c-5.98,0-10.16,3.96-10.16,9.64v17.19c-1.83-1.08-4.36-2.09-7.03-1.67-2.82.43-4.72,1.58-5.63,3.41-1.02,2.04-.69,4.66.98,7.79,1.17,2.2,3.14,6.6,3.14,11.44v6.16c0,8.02,8.22,13.83,19.53,13.83.93,0,1.69-.76,1.69-1.69s-.76-1.69-1.69-1.69c-8.03,0-16.15-3.59-16.15-10.46v-6.16c0-5.57-2.21-10.55-3.53-13.03-1.09-2.05-1.43-3.71-.94-4.69.49-.98,1.97-1.4,3.13-1.58,3.44-.53,6.99,2.87,7.02,2.89.48.48,1.21.61,1.84.35.62-.26,1.03-.88,1.03-1.56v-20.54c0-3.8,2.66-6.26,6.78-6.26h1.45v23.82c0,.93.76,1.69,1.69,1.69s1.69-.76,1.69-1.69V10.25c0-.12-.01-.24-.04-.35.07-.18.11-.37.11-.57v-1.86c0-.96.33-4.09,4.51-4.09s4.46,2.86,4.46,4.09v1.86c0,.15.03.3.06.44-.04.15-.08.31-.08.48v24.59c0,.93.75,1.69,1.69,1.69s1.69-.76,1.69-1.69V11.02h2.13c3.17,0,6.1.85,6.1,7.03,0,.07.01.14.02.21v16.58c0,.93.76,1.69,1.69,1.69s1.69-.76,1.69-1.69v-15.06c5.17.23,6.85,1.75,6.85,8.14v33.33c0,9.75-11.18,10.8-15.98,10.8-.93,0-1.69.76-1.69,1.69s.76,1.69,1.69,1.69c12.12,0,19.37-5.3,19.37-14.18V27.92c0-8.96-3.75-11.24-10.32-11.53Z"/>
    </g>
  </g>
</svg>