<?xml version="1.0" encoding="UTF-8"?>
<svg id="Layer_2" data-name="Layer 2" xmlns="http://www.w3.org/2000/svg" xmlns:xlink="http://www.w3.org/1999/xlink" viewBox="0 0 69.13 69.05">
  <defs>
    <style>
      .cls-1 {
        fill: url(#linear-gradient-12);
      }

      .cls-1, .cls-2, .cls-3, .cls-4, .cls-5, .cls-6, .cls-7, .cls-8 {
        stroke-miterlimit: 10;
      }

      .cls-1, .cls-2, .cls-3, .cls-4, .cls-6, .cls-8 {
        stroke: #999;
      }

      .cls-9 {
        fill: url(#linear-gradient-10);
      }

      .cls-2 {
        fill: url(#linear-gradient-5);
      }

      .cls-10 {
        fill: url(#linear-gradient-4);
      }

      .cls-11 {
        fill: #f6921e;
      }

      .cls-12 {
        fill: url(#linear-gradient-3);
      }

      .cls-13 {
        fill: url(#linear-gradient-8);
      }

      .cls-3 {
        fill: url(#linear-gradient-7);
      }

      .cls-4 {
        fill: url(#linear-gradient-9);
      }

      .cls-5 {
        fill: url(#linear-gradient-6);
      }

      .cls-5, .cls-7 {
        stroke: #ce0543;
      }

      .cls-6 {
        fill: url(#linear-gradient-2);
      }

      .cls-7 {
        fill: url(#linear-gradient);
      }

      .cls-8 {
        fill: url(#linear-gradient-11);
      }
    </style>
    <linearGradient id="linear-gradient" x1="-1004.47" y1="51.88" x2="-1004.47" y2="72.46" gradientTransform="translate(699.61 -717.91) rotate(-45)" gradientUnits="userSpaceOnUse">
      <stop offset="0" stop-color="#dd3665"/>
      <stop offset=".29" stop-color="#d8275e"/>
      <stop offset=".31" stop-color="#9e2047"/>
      <stop offset=".66" stop-color="#bf2b55"/>
      <stop offset=".69" stop-color="#9e2047"/>
      <stop offset=".82" stop-color="#9e2047"/>
      <stop offset="1" stop-color="#930f2f"/>
    </linearGradient>
    <linearGradient id="linear-gradient-2" x1="-969.69" y1="61.86" x2="-969.69" y2="53.96" gradientTransform="translate(699.61 -717.91) rotate(-45)" gradientUnits="userSpaceOnUse">
      <stop offset="0" stop-color="#e5e2df"/>
      <stop offset="0" stop-color="#f1efed"/>
      <stop offset="0" stop-color="#fff"/>
      <stop offset=".13" stop-color="#f0f0f0"/>
      <stop offset=".37" stop-color="#c9cacb"/>
      <stop offset=".52" stop-color="#adaeb0"/>
      <stop offset=".67" stop-color="#a3a4a6"/>
      <stop offset=".91" stop-color="#8b8b8c"/>
      <stop offset="1" stop-color="gray"/>
    </linearGradient>
    <linearGradient id="linear-gradient-3" x1="-1035.54" y1="54.45" x2="-1033.75" y2="62.21" gradientTransform="translate(699.61 -717.91) rotate(-45)" gradientUnits="userSpaceOnUse">
      <stop offset="0" stop-color="#faedb0"/>
      <stop offset="1" stop-color="#ffc76e"/>
    </linearGradient>
    <linearGradient id="linear-gradient-4" x1="-1030.69" y1="53.89" x2="-1028.94" y2="61.46" xlink:href="#linear-gradient-3"/>
    <linearGradient id="linear-gradient-5" x1="-1037.26" y1="55.62" x2="-1036.33" y2="62.13" xlink:href="#linear-gradient-2"/>
    <linearGradient id="linear-gradient-6" x1="-1045.92" y1="61.16" x2="-1047.08" y2="57.25" xlink:href="#linear-gradient"/>
    <linearGradient id="linear-gradient-7" x1="55.29" y1="18.58" x2="46.16" y2="10.76" gradientUnits="userSpaceOnUse">
      <stop offset="0" stop-color="gray"/>
      <stop offset="1" stop-color="#f2f2f2"/>
    </linearGradient>
    <linearGradient id="linear-gradient-8" x1="54.83" y1="19.59" x2="49.13" y2="14.76" xlink:href="#linear-gradient-7"/>
    <linearGradient id="linear-gradient-9" x1="53.9" y1="20.21" x2="44.77" y2="12.38" xlink:href="#linear-gradient-7"/>
    <linearGradient id="linear-gradient-10" x1="53.45" y1="21.22" x2="47.75" y2="16.39" xlink:href="#linear-gradient-7"/>
    <linearGradient id="linear-gradient-11" x1="52.57" y1="21.76" x2="43.44" y2="13.93" xlink:href="#linear-gradient-7"/>
    <linearGradient id="linear-gradient-12" x1="52" y1="22.67" x2="46.3" y2="17.84" xlink:href="#linear-gradient-7"/>
  </defs>
  <g id="Objects">
    <g>
      <path class="cls-7" d="M43.09,10.74L6.49,47.35c.33.34,1.34,1.49,1.6,3.11,1.75-.1,3.68.54,4.14.99,1.64,1.64,1.05,4.34,1.05,4.34,0,0,3.09-.29,4.55,1.33.39.43.92,1.95,1.13,3.58,1.27,0,2.52,1.56,2.79,1.92L58.36,26.01c.64-.64.64-1.68,0-2.32,0,0-1.4-3.24-5.91-7.75-4.51-4.51-7.04-5.19-7.04-5.19-.64-.64-1.68-.64-2.32,0Z"/>
      <path class="cls-6" d="M52.7,1.08l-7.92,7.92c.17.17,4.76,3.11,8.51,6.86,3.72,3.72,6.6,8.25,6.74,8.42l7.93-7.93c2.05-2.05-.99-5.98-5.5-10.49-4.51-4.51-8.13-6.42-9.77-4.78Z"/>
      <path class="cls-12" d="M21.8,62.71s-.02-.03-.06-.08l-.13.13.19-.05Z"/>
      <path class="cls-10" d="M6.38,47.24l-.08.29.18-.18c-.06-.07-.11-.11-.11-.11Z"/>
      <path class="cls-11" d="M18.95,60.71c-.2-1.64-.74-3.16-1.13-3.58-1.46-1.62-4.55-1.33-4.55-1.33,0,0,.59-2.7-1.05-4.34-.46-.45-2.39-1.09-4.14-.99-.26-1.62-1.27-2.77-1.6-3.11l-.18.18-.8,2.99s.04.05.06.08l12.94,12.94s.03.02.04.03l3.07-.82.13-.13c-.27-.36-1.52-1.92-2.79-1.92Z"/>
      <path class="cls-2" d="M13.27,55.8s.59-2.7-1.05-4.34c-.46-.45-2.39-1.09-4.14-.99-.26-1.62-1.27-2.77-1.6-3.11l-.18.18-.8,2.99-1.96,7.27-.57,2.1,3.09,3.1,3.09,3.09,2.1-.56,7.3-1.95,3.07-.82.13-.13c-.27-.36-1.52-1.92-2.79-1.92-.2-1.64-.74-3.16-1.13-3.58-1.46-1.62-4.55-1.33-4.55-1.33Z"/>
      <polygon class="cls-5" points="2.97 59.9 .71 68.34 9.15 66.08 9.15 66.08 6.06 62.98 2.97 59.9"/>
      <path class="cls-3" d="M45.14,8.7l-.63.63c.17.17,4.28,2.77,8.03,6.52,3.72,3.72,7.08,8.59,7.22,8.76l.64-.64c.29-.29-2.52-4.45-7.03-8.95-4.51-4.51-7.94-6.61-8.23-6.31Z"/>
      <path class="cls-13" d="M44.38,9.45l-.63.63c.17.17,4.28,2.77,8.03,6.52,3.72,3.72,7.07,8.59,7.23,8.76l.64-.63c.29-.29-2.53-4.44-7.03-8.95-4.51-4.51-7.94-6.61-8.24-6.31Z"/>
      <path class="cls-4" d="M43.62,10.21l-.63.63c.16.17,4.29,2.77,8.03,6.52,3.72,3.72,7.08,8.59,7.23,8.76l.63-.63c.29-.3-2.52-4.45-7.03-8.95-4.51-4.51-7.94-6.61-8.23-6.31Z"/>
      <path class="cls-9" d="M42.87,10.97l-.63.63c.16.17,4.28,2.77,8.04,6.51,3.72,3.72,7.08,8.59,7.23,8.76l.64-.63c.29-.3-2.52-4.45-7.03-8.95-4.51-4.51-7.94-6.61-8.24-6.31Z"/>
      <path class="cls-8" d="M42.18,11.66l-.63.63c.16.17,4.28,2.76,8.03,6.52,3.72,3.72,7.08,8.59,7.23,8.76l.63-.63c.3-.29-2.52-4.45-7.03-8.95-4.51-4.51-7.94-6.61-8.24-6.32Z"/>
      <path class="cls-1" d="M41.42,12.42l-.63.63c.17.17,4.29,2.77,8.04,6.52,3.72,3.72,7.07,8.59,7.22,8.76l.64-.64c.3-.29-2.52-4.44-7.03-8.95-4.5-4.51-7.94-6.61-8.24-6.31Z"/>
    </g>
  </g>
</svg>