<?xml version="1.0" encoding="UTF-8"?>
<svg id="Layer_2" data-name="Layer 2" xmlns="http://www.w3.org/2000/svg" viewBox="0 0 27.36 22.14">
  <defs>
    <style>
      .cls-1 {
        fill-rule: evenodd;
      }
    </style>
  </defs>
  <g id="_1" data-name="1">
    <path class="cls-1" d="M26.5,0H9.41c-.47,0-.86.38-.86.86v2.57h-4.28c-.46,0-1.03.35-1.24.76L.37,9.49c-.2.43-.37,1.15-.37,1.62v5.13c0,.48.26,1.14.6,1.46l.51.5c.21.22.58.41.94.53,0-.01,0-.01.02-.03,0-2.25,1.83-4.06,4.08-4.06s3.93,1.68,4.08,3.79c2.47-.02,5.18,0,7.7.03.15-2.13,1.92-3.82,4.08-3.82s4.02,1.76,4.09,3.96c.55.01.88.02.88.05.22-.16.37-.4.37-.69V.86c0-.47-.39-.86-.86-.86h0ZM6.15,15.3c-1.88,0-3.41,1.54-3.41,3.43s1.53,3.41,3.41,3.41,3.43-1.53,3.43-3.41-1.54-3.43-3.43-3.43h0ZM22.01,15.3c-1.88,0-3.41,1.54-3.41,3.43s1.53,3.41,3.41,3.41,3.43-1.53,3.43-3.41-1.54-3.43-3.43-3.43h0ZM8.55,10.25H3.42l1.72-5.13h3.41v5.13ZM10.79,6.08c0-.27.23-.51.53-.51h10.17v-1.45c0-.45.55-.69.89-.36l3.51,3.51c.21.21.21.53,0,.74l-3.51,3.51c-.34.33-.89.1-.89-.36v-1.45h-10.17c-.29,0-.53-.24-.53-.53v-3.1h0Z"/>
  </g>
</svg>