<?xml version="1.0" encoding="UTF-8"?>
<svg id="Layer_2" data-name="Layer 2" xmlns="http://www.w3.org/2000/svg" xmlns:xlink="http://www.w3.org/1999/xlink" viewBox="0 0 67.58 59.96">
  <defs>
    <style>
      .cls-1 {
        opacity: .14;
      }

      .cls-2 {
        fill: url(#linear-gradient-2);
      }

      .cls-3 {
        opacity: .21;
      }

      .cls-4 {
        opacity: .42;
      }

      .cls-5 {
        opacity: .55;
      }

      .cls-6 {
        fill: url(#linear-gradient-4);
      }

      .cls-7 {
        opacity: .48;
      }

      .cls-8 {
        opacity: .35;
      }

      .cls-9 {
        fill: url(#linear-gradient-3);
      }

      .cls-10 {
        opacity: .08;
      }

      .cls-11 {
        opacity: .28;
      }

      .cls-12 {
        opacity: 0;
      }

      .cls-13 {
        fill: url(#linear-gradient);
      }
    </style>
    <linearGradient id="linear-gradient" x1="8.89" y1="14.03" x2="53.05" y2="58.2" gradientUnits="userSpaceOnUse">
      <stop offset="0" stop-color="#c0c1c0"/>
      <stop offset=".2" stop-color="#d4d4d4"/>
      <stop offset=".49" stop-color="#ebeceb"/>
      <stop offset=".77" stop-color="#fafafa"/>
      <stop offset="1" stop-color="#fff"/>
    </linearGradient>
    <linearGradient id="linear-gradient-2" x1="7.89" y1="-8.27" x2="56.05" y2="39.9" gradientUnits="userSpaceOnUse">
      <stop offset="0" stop-color="#3a3a3a"/>
      <stop offset="1" stop-color="#818181"/>
    </linearGradient>
    <linearGradient id="linear-gradient-3" x1="11.22" y1="9.69" x2="17.56" y2="16.04" gradientUnits="userSpaceOnUse">
      <stop offset="0" stop-color="#3d704a"/>
      <stop offset="1" stop-color="#6bb387"/>
    </linearGradient>
    <linearGradient id="linear-gradient-4" x1="4.58" y1=".77" x2="57.59" y2="53.79" gradientUnits="userSpaceOnUse">
      <stop offset="0" stop-color="#2c2e2c"/>
      <stop offset=".99" stop-color="#000"/>
    </linearGradient>
  </defs>
  <g id="Layer_1-2" data-name="Layer 1">
    <g>
      <path class="cls-13" d="M1.88,24.09v21.59c0,3.92,3.18,7.1,7.1,7.1h44.45c3.92,0,7.1-3.18,7.1-7.1v-21.59H1.88Z"/>
      <path class="cls-2" d="M1.88,24.09v-15.13c0-3.92,3.18-7.1,7.1-7.1h44.45c3.92,0,7.1,3.18,7.1,7.1v15.13H1.88Z"/>
      <path class="cls-9" d="M18.88,12.86c0,2.48-2.01,4.49-4.49,4.49s-4.49-2.01-4.49-4.49,2.01-4.49,4.49-4.49,4.49,2.01,4.49,4.49Z"/>
      <g>
        <path class="cls-12" d="M49.93,18.28c0,.97.78,1.75,1.74,1.75s1.75-.78,1.75-1.75-.78-1.75-1.75-1.75-1.74.78-1.74,1.75ZM41.64,18.28c0,.97.78,1.75,1.75,1.75s1.74-.78,1.74-1.75-.78-1.75-1.74-1.75-1.75.78-1.75,1.75ZM33.34,18.28c0,.97.78,1.75,1.74,1.75s1.75-.78,1.75-1.75-.78-1.75-1.75-1.75-1.74.78-1.74,1.75ZM22.39,18.44c0,1.52-1.24,2.76-2.75,2.76s-2.75-1.24-2.75-2.76c0-.25.03-.49.1-.73.06-.23.15-.45.27-.65.49-.85,1.41-1.38,2.39-1.38,1.52,0,2.75,1.23,2.75,2.75ZM14.32,15.37c-.26.45-.47.95-.6,1.45-.14.52-.22,1.07-.22,1.61,0,3.38,2.75,6.13,6.13,6.13s6.13-2.75,6.13-6.13-2.75-6.13-6.13-6.13c-2.18,0-4.21,1.17-5.31,3.06ZM58.46,5.41H14.53c-5.03,0-9.12,4.09-9.12,9.12v14.93c0,.93.75,1.69,1.69,1.69h11.76v11.28c0,.93.75,1.69,1.69,1.69s1.69-.75,1.69-1.69v-11.28h12.57v11.28c0,.93.76,1.69,1.69,1.69s1.69-.75,1.69-1.69v-11.28h12.57v11.28c0,.93.76,1.69,1.69,1.69s1.69-.75,1.69-1.69v-11.28h6.16c.93,0,1.69-.76,1.69-1.69s-.76-1.69-1.69-1.69H8.79v-13.24c0-3.17,2.58-5.74,5.75-5.74h43.93c3.17,0,5.74,2.58,5.74,5.74v36.31c0,3.17-2.58,5.74-5.74,5.74H14.53c-3.17,0-5.75-2.58-5.75-5.74v-13.39c0-.94-.75-1.69-1.69-1.69s-1.69.76-1.69,1.69v13.39c0,5.03,4.09,9.12,9.12,9.12h43.93c5.03,0,9.12-4.09,9.12-9.12V14.53c0-5.03-4.09-9.12-9.12-9.12Z"/>
        <path class="cls-10" d="M49.3,17.65c0,.97.78,1.75,1.74,1.75s1.75-.78,1.75-1.75-.78-1.75-1.75-1.75-1.74.78-1.74,1.75ZM41.01,17.65c0,.97.78,1.75,1.75,1.75s1.74-.78,1.74-1.75-.78-1.75-1.74-1.75-1.75.78-1.75,1.75ZM32.72,17.65c0,.97.78,1.75,1.74,1.75s1.75-.78,1.75-1.75-.78-1.75-1.75-1.75-1.74.78-1.74,1.75ZM21.76,17.82c0,1.52-1.24,2.76-2.75,2.76s-2.75-1.24-2.75-2.76c0-.25.03-.49.1-.73.06-.23.15-.45.27-.65.49-.85,1.41-1.38,2.39-1.38,1.52,0,2.75,1.23,2.75,2.75ZM13.7,14.75c-.26.45-.47.95-.6,1.45-.14.52-.22,1.07-.22,1.61,0,3.38,2.75,6.13,6.13,6.13s6.13-2.75,6.13-6.13-2.75-6.13-6.13-6.13c-2.18,0-4.21,1.17-5.31,3.06ZM57.83,4.78H13.91c-5.03,0-9.12,4.09-9.12,9.12v14.93c0,.93.75,1.69,1.69,1.69h11.76v11.28c0,.93.75,1.69,1.69,1.69s1.69-.75,1.69-1.69v-11.28h12.57v11.28c0,.93.76,1.69,1.69,1.69s1.69-.75,1.69-1.69v-11.28h12.57v11.28c0,.93.76,1.69,1.69,1.69s1.69-.75,1.69-1.69v-11.28h6.16c.93,0,1.69-.76,1.69-1.69s-.76-1.69-1.69-1.69H8.16v-13.24c0-3.17,2.58-5.74,5.75-5.74h43.93c3.17,0,5.74,2.58,5.74,5.74v36.31c0,3.17-2.58,5.74-5.74,5.74H13.91c-3.17,0-5.75-2.58-5.75-5.74v-13.39c0-.94-.75-1.69-1.69-1.69s-1.69.76-1.69,1.69v13.39c0,5.03,4.09,9.12,9.12,9.12h43.93c5.03,0,9.12-4.09,9.12-9.12V13.9c0-5.03-4.09-9.12-9.12-9.12Z"/>
        <path class="cls-1" d="M48.68,17.03c0,.97.78,1.75,1.74,1.75s1.75-.78,1.75-1.75-.78-1.75-1.75-1.75-1.74.78-1.74,1.75ZM40.39,17.03c0,.97.78,1.75,1.75,1.75s1.74-.78,1.74-1.75-.78-1.75-1.74-1.75-1.75.78-1.75,1.75ZM32.09,17.03c0,.97.78,1.75,1.74,1.75s1.75-.78,1.75-1.75-.78-1.75-1.75-1.75-1.74.78-1.74,1.75ZM21.14,17.19c0,1.52-1.24,2.76-2.75,2.76s-2.75-1.24-2.75-2.76c0-.25.03-.49.1-.73.06-.23.15-.45.27-.65.49-.85,1.41-1.38,2.39-1.38,1.52,0,2.75,1.23,2.75,2.75ZM13.07,14.12c-.26.45-.47.95-.6,1.45-.14.52-.22,1.07-.22,1.61,0,3.38,2.75,6.13,6.13,6.13s6.13-2.75,6.13-6.13-2.75-6.13-6.13-6.13c-2.18,0-4.21,1.17-5.31,3.06ZM57.21,4.16H13.28c-5.03,0-9.12,4.09-9.12,9.12v14.93c0,.93.75,1.69,1.69,1.69h11.76v11.28c0,.93.75,1.69,1.69,1.69s1.69-.75,1.69-1.69v-11.28h12.57v11.28c0,.93.76,1.69,1.69,1.69s1.69-.75,1.69-1.69v-11.28h12.57v11.28c0,.93.76,1.69,1.69,1.69s1.69-.75,1.69-1.69v-11.28h6.16c.93,0,1.69-.76,1.69-1.69s-.76-1.69-1.69-1.69H7.54v-13.24c0-3.17,2.58-5.74,5.75-5.74h43.93c3.17,0,5.74,2.58,5.74,5.74v36.31c0,3.17-2.58,5.74-5.74,5.74H13.28c-3.17,0-5.75-2.58-5.75-5.74v-13.39c0-.94-.75-1.69-1.69-1.69s-1.69.76-1.69,1.69v13.39c0,5.03,4.09,9.12,9.12,9.12h43.93c5.03,0,9.12-4.09,9.12-9.12V13.28c0-5.03-4.09-9.12-9.12-9.12Z"/>
        <path class="cls-3" d="M48.05,16.4c0,.97.78,1.75,1.74,1.75s1.75-.78,1.75-1.75-.78-1.75-1.75-1.75-1.74.78-1.74,1.75ZM39.76,16.4c0,.97.78,1.75,1.75,1.75s1.74-.78,1.74-1.75-.78-1.75-1.74-1.75-1.75.78-1.75,1.75ZM31.47,16.4c0,.97.78,1.75,1.74,1.75s1.75-.78,1.75-1.75-.78-1.75-1.75-1.75-1.74.78-1.74,1.75ZM20.51,16.57c0,1.52-1.24,2.76-2.75,2.76s-2.75-1.24-2.75-2.76c0-.25.03-.49.1-.73.06-.23.15-.45.27-.65.49-.85,1.41-1.38,2.39-1.38,1.52,0,2.75,1.23,2.75,2.75ZM12.45,13.5c-.26.45-.47.95-.6,1.45-.14.52-.22,1.07-.22,1.61,0,3.38,2.75,6.13,6.13,6.13s6.13-2.75,6.13-6.13-2.75-6.13-6.13-6.13c-2.18,0-4.21,1.17-5.31,3.06ZM56.58,3.53H12.66C7.62,3.53,3.53,7.62,3.53,12.65v14.93c0,.93.75,1.69,1.69,1.69h11.76v11.28c0,.93.75,1.69,1.69,1.69s1.69-.75,1.69-1.69v-11.28h12.57v11.28c0,.93.76,1.69,1.69,1.69s1.69-.75,1.69-1.69v-11.28h12.57v11.28c0,.93.76,1.69,1.69,1.69s1.69-.75,1.69-1.69v-11.28h6.16c.93,0,1.69-.76,1.69-1.69s-.76-1.69-1.69-1.69H6.91v-13.24c0-3.17,2.58-5.74,5.75-5.74h43.93c3.17,0,5.74,2.58,5.74,5.74v36.31c0,3.17-2.58,5.74-5.74,5.74H12.66c-3.17,0-5.75-2.58-5.75-5.74v-13.39c0-.94-.75-1.69-1.69-1.69s-1.69.76-1.69,1.69v13.39c0,5.03,4.09,9.12,9.12,9.12h43.93c5.03,0,9.12-4.09,9.12-9.12V12.65c0-5.03-4.09-9.12-9.12-9.12Z"/>
        <path class="cls-11" d="M47.43,15.78c0,.97.78,1.75,1.74,1.75s1.75-.78,1.75-1.75-.78-1.75-1.75-1.75-1.74.78-1.74,1.75ZM39.14,15.78c0,.97.78,1.75,1.75,1.75s1.74-.78,1.74-1.75-.78-1.75-1.74-1.75-1.75.78-1.75,1.75ZM30.84,15.78c0,.97.78,1.75,1.74,1.75s1.75-.78,1.75-1.75-.78-1.75-1.75-1.75-1.74.78-1.74,1.75ZM19.89,15.94c0,1.52-1.24,2.76-2.75,2.76s-2.75-1.24-2.75-2.76c0-.25.03-.49.1-.73.06-.23.15-.45.27-.65.49-.85,1.41-1.38,2.39-1.38,1.52,0,2.75,1.23,2.75,2.75ZM11.82,12.87c-.26.45-.47.95-.6,1.45-.14.52-.22,1.07-.22,1.61,0,3.38,2.75,6.13,6.13,6.13s6.13-2.75,6.13-6.13-2.75-6.13-6.13-6.13c-2.18,0-4.21,1.17-5.31,3.06ZM55.96,2.91H12.03C7,2.91,2.91,7,2.91,12.03v14.93c0,.93.75,1.69,1.69,1.69h11.76v11.28c0,.93.75,1.69,1.69,1.69s1.69-.75,1.69-1.69v-11.28h12.57v11.28c0,.93.76,1.69,1.69,1.69s1.69-.75,1.69-1.69v-11.28h12.57v11.28c0,.93.76,1.69,1.69,1.69s1.69-.75,1.69-1.69v-11.28h6.16c.93,0,1.69-.76,1.69-1.69s-.76-1.69-1.69-1.69H6.29v-13.24c0-3.17,2.58-5.74,5.75-5.74h43.93c3.17,0,5.74,2.58,5.74,5.74v36.31c0,3.17-2.58,5.74-5.74,5.74H12.03c-3.17,0-5.75-2.58-5.75-5.74v-13.39c0-.94-.75-1.69-1.69-1.69s-1.69.76-1.69,1.69v13.39c0,5.03,4.09,9.12,9.12,9.12h43.93c5.03,0,9.12-4.09,9.12-9.12V12.03c0-5.03-4.09-9.12-9.12-9.12Z"/>
        <path class="cls-8" d="M46.8,15.15c0,.97.78,1.75,1.74,1.75s1.75-.78,1.75-1.75-.78-1.75-1.75-1.75-1.74.78-1.74,1.75ZM38.51,15.15c0,.97.78,1.75,1.75,1.75s1.74-.78,1.74-1.75-.78-1.75-1.74-1.75-1.75.78-1.75,1.75ZM30.22,15.15c0,.97.78,1.75,1.74,1.75s1.75-.78,1.75-1.75-.78-1.75-1.75-1.75-1.74.78-1.74,1.75ZM19.26,15.32c0,1.52-1.24,2.76-2.75,2.76s-2.75-1.24-2.75-2.76c0-.25.03-.49.1-.73.06-.23.15-.45.27-.65.49-.85,1.41-1.38,2.39-1.38,1.52,0,2.75,1.23,2.75,2.75ZM11.2,12.25c-.26.45-.47.95-.6,1.45-.14.52-.22,1.07-.22,1.61,0,3.38,2.75,6.13,6.13,6.13s6.13-2.75,6.13-6.13-2.75-6.13-6.13-6.13c-2.18,0-4.21,1.17-5.31,3.06ZM55.33,2.28H11.41C6.37,2.28,2.28,6.37,2.28,11.4v14.93c0,.93.75,1.69,1.69,1.69h11.76v11.28c0,.93.75,1.69,1.69,1.69s1.69-.75,1.69-1.69v-11.28h12.57v11.28c0,.93.76,1.69,1.69,1.69s1.69-.75,1.69-1.69v-11.28h12.57v11.28c0,.93.76,1.69,1.69,1.69s1.69-.75,1.69-1.69v-11.28h6.16c.93,0,1.69-.76,1.69-1.69s-.76-1.69-1.69-1.69H5.66v-13.24c0-3.17,2.58-5.74,5.75-5.74h43.93c3.17,0,5.74,2.58,5.74,5.74v36.31c0,3.17-2.58,5.74-5.74,5.74H11.41c-3.17,0-5.75-2.58-5.75-5.74v-13.39c0-.94-.75-1.69-1.69-1.69s-1.69.76-1.69,1.69v13.39c0,5.03,4.09,9.12,9.12,9.12h43.93c5.03,0,9.12-4.09,9.12-9.12V11.4c0-5.03-4.09-9.12-9.12-9.12Z"/>
        <path class="cls-4" d="M46.18,14.53c0,.97.78,1.75,1.74,1.75s1.75-.78,1.75-1.75-.78-1.75-1.75-1.75-1.74.78-1.74,1.75ZM37.89,14.53c0,.97.78,1.75,1.75,1.75s1.74-.78,1.74-1.75-.78-1.75-1.74-1.75-1.75.78-1.75,1.75ZM29.59,14.53c0,.97.78,1.75,1.74,1.75s1.75-.78,1.75-1.75-.78-1.75-1.75-1.75-1.74.78-1.74,1.75ZM18.64,14.69c0,1.52-1.24,2.76-2.75,2.76s-2.75-1.24-2.75-2.76c0-.25.03-.49.1-.73.06-.23.15-.45.27-.65.49-.85,1.41-1.38,2.39-1.38,1.52,0,2.75,1.23,2.75,2.75ZM10.57,11.62c-.26.45-.47.95-.6,1.45-.14.52-.22,1.07-.22,1.61,0,3.38,2.75,6.13,6.13,6.13s6.13-2.75,6.13-6.13-2.75-6.13-6.13-6.13c-2.18,0-4.21,1.17-5.31,3.06ZM54.71,1.66H10.78C5.75,1.66,1.66,5.75,1.66,10.78v14.93c0,.93.75,1.69,1.69,1.69h11.76v11.28c0,.93.75,1.69,1.69,1.69s1.69-.75,1.69-1.69v-11.28h12.57v11.28c0,.93.76,1.69,1.69,1.69s1.69-.75,1.69-1.69v-11.28h12.57v11.28c0,.93.76,1.69,1.69,1.69s1.69-.75,1.69-1.69v-11.28h6.16c.93,0,1.69-.76,1.69-1.69s-.76-1.69-1.69-1.69H5.04v-13.24c0-3.17,2.58-5.74,5.75-5.74h43.93c3.17,0,5.74,2.58,5.74,5.74v36.31c0,3.17-2.58,5.74-5.74,5.74H10.78c-3.17,0-5.75-2.58-5.75-5.74v-13.39c0-.94-.75-1.69-1.69-1.69s-1.69.76-1.69,1.69v13.39c0,5.03,4.09,9.12,9.12,9.12h43.93c5.03,0,9.12-4.09,9.12-9.12V10.78c0-5.03-4.09-9.12-9.12-9.12Z"/>
        <path class="cls-7" d="M45.55,13.9c0,.97.78,1.75,1.74,1.75s1.75-.78,1.75-1.75-.78-1.75-1.75-1.75-1.74.78-1.74,1.75ZM37.26,13.9c0,.97.78,1.75,1.75,1.75s1.74-.78,1.74-1.75-.78-1.75-1.74-1.75-1.75.78-1.75,1.75ZM28.97,13.9c0,.97.78,1.75,1.74,1.75s1.75-.78,1.75-1.75-.78-1.75-1.75-1.75-1.74.78-1.74,1.75ZM18.01,14.07c0,1.52-1.24,2.76-2.75,2.76s-2.75-1.24-2.75-2.76c0-.25.03-.49.1-.73.06-.23.15-.45.27-.65.49-.85,1.41-1.38,2.39-1.38,1.52,0,2.75,1.23,2.75,2.75ZM9.95,11c-.26.45-.47.95-.6,1.45-.14.52-.22,1.07-.22,1.61,0,3.38,2.75,6.13,6.13,6.13s6.13-2.75,6.13-6.13-2.75-6.13-6.13-6.13c-2.18,0-4.21,1.17-5.31,3.06ZM54.08,1.03H10.16C5.12,1.03,1.03,5.12,1.03,10.15v14.93c0,.93.75,1.69,1.69,1.69h11.76v11.28c0,.93.75,1.69,1.69,1.69s1.69-.75,1.69-1.69v-11.28h12.57v11.28c0,.93.76,1.69,1.69,1.69s1.69-.75,1.69-1.69v-11.28h12.57v11.28c0,.93.76,1.69,1.69,1.69s1.69-.75,1.69-1.69v-11.28h6.16c.93,0,1.69-.76,1.69-1.69s-.76-1.69-1.69-1.69H4.41v-13.24c0-3.17,2.58-5.74,5.75-5.74h43.93c3.17,0,5.74,2.58,5.74,5.74v36.31c0,3.17-2.58,5.74-5.74,5.74H10.16c-3.17,0-5.75-2.58-5.75-5.74v-13.39c0-.94-.75-1.69-1.69-1.69s-1.69.76-1.69,1.69v13.39c0,5.03,4.09,9.12,9.12,9.12h43.93c5.03,0,9.12-4.09,9.12-9.12V10.15c0-5.03-4.09-9.12-9.12-9.12Z"/>
        <path class="cls-5" d="M44.93,13.28c0,.97.78,1.75,1.74,1.75s1.75-.78,1.75-1.75-.78-1.75-1.75-1.75-1.74.78-1.74,1.75ZM36.64,13.28c0,.97.78,1.75,1.75,1.75s1.74-.78,1.74-1.75-.78-1.75-1.74-1.75-1.75.78-1.75,1.75ZM28.34,13.28c0,.97.78,1.75,1.74,1.75s1.75-.78,1.75-1.75-.78-1.75-1.75-1.75-1.74.78-1.74,1.75ZM17.39,13.44c0,1.52-1.24,2.76-2.75,2.76s-2.75-1.24-2.75-2.76c0-.25.03-.49.1-.73.06-.23.15-.45.27-.65.49-.85,1.41-1.38,2.39-1.38,1.52,0,2.75,1.23,2.75,2.75ZM9.32,10.37c-.26.45-.47.95-.6,1.45-.14.52-.22,1.07-.22,1.61,0,3.38,2.75,6.13,6.13,6.13s6.13-2.75,6.13-6.13-2.75-6.13-6.13-6.13c-2.18,0-4.21,1.17-5.31,3.06ZM53.46.41H9.53C4.5.41.41,4.5.41,9.53v14.93c0,.93.75,1.69,1.69,1.69h11.76v11.28c0,.93.75,1.69,1.69,1.69s1.69-.75,1.69-1.69v-11.28h12.57v11.28c0,.93.76,1.69,1.69,1.69s1.69-.75,1.69-1.69v-11.28h12.57v11.28c0,.93.76,1.69,1.69,1.69s1.69-.75,1.69-1.69v-11.28h6.16c.93,0,1.69-.76,1.69-1.69s-.76-1.69-1.69-1.69H3.79v-13.24c0-3.17,2.58-5.74,5.75-5.74h43.93c3.17,0,5.74,2.58,5.74,5.74v36.31c0,3.17-2.58,5.74-5.74,5.74H9.53c-3.17,0-5.75-2.58-5.75-5.74v-13.39c0-.94-.75-1.69-1.69-1.69s-1.69.76-1.69,1.69v13.39c0,5.03,4.09,9.12,9.12,9.12h43.93c5.03,0,9.12-4.09,9.12-9.12V9.53c0-5.03-4.09-9.12-9.12-9.12Z"/>
      </g>
      <path class="cls-6" d="M27.94,12.87c0,.97.78,1.75,1.74,1.75s1.75-.78,1.75-1.75-.78-1.75-1.75-1.75-1.74.78-1.74,1.75ZM36.23,12.87c0,.97.78,1.75,1.75,1.75s1.74-.78,1.74-1.75-.78-1.75-1.74-1.75-1.75.78-1.75,1.75ZM44.52,12.87c0,.97.78,1.75,1.74,1.75s1.75-.78,1.75-1.75-.78-1.75-1.75-1.75-1.74.78-1.74,1.75ZM53.05,0H9.12C4.09,0,0,4.09,0,9.12v14.93c0,.93.75,1.69,1.69,1.69h11.76v11.28c0,.93.75,1.69,1.69,1.69s1.69-.75,1.69-1.69v-11.28h12.57v11.28c0,.93.76,1.69,1.69,1.69s1.69-.75,1.69-1.69v-11.28h12.57v11.28c0,.93.76,1.69,1.69,1.69s1.69-.75,1.69-1.69v-11.28h6.16c.93,0,1.69-.76,1.69-1.69s-.76-1.69-1.69-1.69H3.38v-13.24c0-3.17,2.58-5.74,5.75-5.74h43.93c3.17,0,5.74,2.58,5.74,5.74v36.31c0,3.17-2.58,5.74-5.74,5.74H9.12c-3.17,0-5.75-2.58-5.75-5.74v-13.39c0-.94-.75-1.69-1.69-1.69s-1.69.76-1.69,1.69v13.39c0,5.03,4.09,9.12,9.12,9.12h43.93c5.03,0,9.12-4.09,9.12-9.12V9.12c0-5.03-4.09-9.12-9.12-9.12ZM8.92,9.97c-.26.46-.47.95-.6,1.45-.14.52-.22,1.07-.22,1.61,0,3.38,2.75,6.13,6.13,6.13s6.13-2.75,6.13-6.13-2.75-6.13-6.13-6.13c-2.18,0-4.21,1.17-5.31,3.06ZM16.98,13.03c0,1.52-1.24,2.76-2.75,2.76s-2.75-1.24-2.75-2.76c0-.25.03-.49.1-.73.06-.23.15-.45.27-.65.49-.85,1.41-1.38,2.39-1.38,1.52,0,2.75,1.23,2.75,2.75Z"/>
    </g>
  </g>
</svg>