<?xml version="1.0" encoding="UTF-8"?>
<svg id="Layer_2" data-name="Layer 2" xmlns="http://www.w3.org/2000/svg" viewBox="0 0 27.36 26.32">
  <defs>
    <style>
      .cls-1 {
        fill-rule: evenodd;
      }
    </style>
  </defs>
  <g id="_1" data-name="1">
    <path class="cls-1" d="M0,0h27.36v26.32H0V0ZM3.77,3.01h5.79c.1,0,.19.03.28.05.08.04.15.1.22.16.07.07.11.14.15.23.04.09.06.18.06.26v5.14c0,.1-.02.18-.06.27-.04.1-.08.16-.15.23-.07.07-.14.11-.22.15-.1.04-.18.06-.28.06H3.77c-.09,0-.18-.02-.27-.06-.08-.04-.15-.08-.22-.15-.07-.07-.12-.13-.15-.23-.04-.09-.06-.17-.06-.27V3.72c0-.08.02-.18.06-.26.03-.09.08-.17.15-.23.07-.06.14-.12.22-.16.09-.03.18-.05.27-.05h0ZM23.7,3.35h-1.6c-.06,0-.11.05-.11.11v1.49h-2.21c-.07,0-.12.06-.12.11v2.34s.06.11.12.11h2.32c.07,0,.13-.06.13-.11v-2.23h1.48c.07,0,.11-.04.11-.12v-1.6c0-.05-.04-.11-.11-.11h0ZM15.49,9.09h2.71v2.63h-2.71v-2.63ZM23.9,10.19h-2.09v2.02h2.09v-2.02ZM21.79,12.23h-2.09v2.02h2.09v-2.02ZM23.93,14.28h-2.12v2.07h2.15v-2.07h-.03ZM11.39,20.34h2.72v2.63h-2.72v-2.63ZM12.21,17.16h1.91v1.84h-1.91v-1.84ZM15.5,17.94h1.09v1.06h-1.09v-1.06ZM14.11,19h1.38v1.34h-1.38v-1.34ZM9.35,12.26h2.71v2.65h-2.71v-2.65ZM3.56,10.19h2.09v2.02h-2.09v-2.02ZM5.67,12.23h2.09v2.02h-2.09v-2.02ZM3.53,14.28h2.12v2.07h-2.14v-2.07h.03ZM11.26,8.22h1.89v1.84h-1.89v-1.84ZM16.07,6.29h1.24v1.22h-1.24v-1.22ZM13.02,3.35h3v2.9h-3v-2.9ZM19.19,18.55h3.02v2.96h-3.05v-2.96h.03ZM17.78,16.76h5.8c.08,0,.18.02.27.04.08.04.17.1.23.15.06.07.11.15.15.24.03.08.06.18.06.27v5.12c0,.1-.03.18-.06.28-.04.09-.1.15-.15.22-.06.07-.15.12-.23.15-.09.04-.18.05-.27.05h-5.8c-.08,0-.18-.01-.27-.05-.08-.03-.16-.08-.23-.15-.06-.07-.11-.14-.15-.22-.03-.1-.06-.18-.06-.28v-5.12c0-.1.03-.19.06-.27.04-.08.1-.17.15-.24.07-.06.15-.11.23-.15.09-.03.18-.04.27-.04h0ZM23.58,17.47h-5.78v5.12h5.78v-5.12ZM5.17,18.58h3v2.9h-3v-2.9ZM3.77,16.76h5.79c.1,0,.19.02.28.04.08.04.15.1.22.15.07.07.11.15.15.24.04.08.06.18.06.27v5.12c0,.1-.02.18-.06.28-.04.09-.08.15-.15.22-.07.07-.14.12-.22.15-.1.04-.18.05-.28.05H3.77c-.09,0-.18-.01-.27-.05-.08-.03-.15-.08-.22-.15-.07-.07-.12-.14-.15-.22-.04-.1-.06-.18-.06-.28v-5.12c0-.1.02-.19.06-.27.03-.08.08-.17.15-.24.07-.06.14-.11.22-.15.09-.03.18-.04.27-.04h0ZM9.57,17.47H3.77v5.12h5.79v-5.12ZM5.17,4.84h3v2.9h-3v-2.9ZM9.57,3.73H3.77v5.11h5.79V3.73Z"/>
  </g>
</svg>