<?xml version="1.0" encoding="UTF-8"?>
<svg id="Layer_2" data-name="Layer 2" xmlns="http://www.w3.org/2000/svg" viewBox="0 0 27.36 26.05">
  <defs>
    <style>
      .cls-1 {
        fill-rule: evenodd;
      }
    </style>
  </defs>
  <g id="_1" data-name="1">
    <path class="cls-1" d="M13.67,0l2.6,3.79,4.24-2.05.26,4.52,4.74.25-2.14,4.03,3.98,2.47-3.98,2.47,2.14,4.04-4.74.25-.26,4.52-4.24-2.05-2.6,3.79-2.6-3.79-4.24,2.05-.25-4.52-4.75-.25,2.15-4.04-3.98-2.47,3.98-2.47L1.83,6.52l4.74-.25.26-4.52,4.24,2.05,2.6-3.79ZM13.67,3.64l1.88,2.74,3.05-1.48.2,3.25,3.42.19-1.55,2.9,2.87,1.78-2.87,1.79,1.55,2.91-3.42.18-.2,3.27-3.05-1.49-1.88,2.73-1.87-2.73-3.07,1.49-.18-3.27-3.43-.18,1.55-2.91-2.87-1.79,2.87-1.78-1.55-2.9,3.43-.18.18-3.26,3.07,1.48,1.87-2.74ZM15.72,5.72l3.34-1.61.21,3.56,3.77.2-1.7,3.19,3.15,1.96-3.15,1.97,1.7,3.2-3.77.2-.21,3.55-3.34-1.61-2.05,2.98-2.04-2.98-3.34,1.61-.21-3.55-3.75-.2,1.69-3.2-3.16-1.97,3.16-1.96-1.69-3.19,3.75-.2.21-3.56,3.34,1.61,2.04-2.98,2.05,2.98ZM11,15.11h-.97l-1.52-2.65h-.03v2.65h-.97v-4.16h.97l1.53,2.66h.01v-2.66h.97v4.16ZM14.26,13.33h-1.63v1.04h1.92v.75h-2.89v-4.16h2.9v.73h-1.93v.9h1.63v.75ZM18.33,13.67h.01l.55-2.72h.93l-.96,4.16h-.91l-.69-2.57h-.03l-.7,2.57h-.91l-.96-4.16h.94l.55,2.72h.01l.74-2.72h.68l.73,2.72Z"/>
  </g>
</svg>