<?xml version="1.0" encoding="UTF-8"?>
<svg id="Layer_2" data-name="Layer 2" xmlns="http://www.w3.org/2000/svg" viewBox="0 0 27.35 25.49">
  <defs>
    <style>
      .cls-1 {
        fill-rule: evenodd;
      }
    </style>
  </defs>
  <g id="_1" data-name="1">
    <path class="cls-1" d="M.44,6.21h1.8v7.46H.44c-.25,0-.44-.21-.44-.45v-6.55c0-.25.19-.46.44-.46H.44ZM3.72,4.19h5.98c.65,0,1.19.54,1.19,1.2v9.09c0,.66-.54,1.19-1.19,1.19H3.72c-.65,0-1.19-.53-1.19-1.19V5.39c0-.66.54-1.2,1.19-1.2h0ZM8.87,15.99v2.3h-1.67c-.11,0-.21.09-.21.2v.79c0,.11.1.21.21.21h1.67v1.05h-1.67c-.11,0-.21.08-.21.2v.79c0,.11.1.21.21.21h1.67v1.05h-1.67c-.11,0-.21.08-.21.21v.77c0,.11.1.21.21.21h1.67v.44c0,.59-.5,1.08-1.09,1.08h-2.16c-.59,0-1.08-.48-1.08-1.08v-8.42h4.33ZM25.49,8.12c1.03,0,1.86,1.09,1.86,2.46s-.83,2.46-1.86,2.46h-.05v7.92c0,.25-.19.45-.44.45h-1.27c-.23,0-.44-.2-.44-.45V.44c0-.23.21-.44.44-.44h1.27c.25,0,.44.21.44.44v7.67h.05ZM22.6.43l-.09,20.55-11.91-5.34c.35-.28.57-.69.57-1.16V5.39c0-.39-.15-.75-.4-1.01L22.6.43Z"/>
  </g>
</svg>