<?xml version="1.0" encoding="UTF-8"?>
<svg id="Layer_2" data-name="Layer 2" xmlns="http://www.w3.org/2000/svg" viewBox="0 0 27.36 26.07">
  <defs>
    <style>
      .cls-1 {
        fill-rule: evenodd;
      }
    </style>
  </defs>
  <g id="_1" data-name="1">
    <path class="cls-1" d="M23.68,7.99c-.11-.55-.39-1.1-.83-1.53L17.27.87c-.45-.46-1.04-.75-1.61-.83h-.03s-.04-.04-.04-.04H7.17c-1.68,0-3.01,1.35-3.01,3v12.36l1.72-.6v.18h.26V3c0-.55.46-1.01,1.03-1.01h7.32v4.16c0,1.67,1.34,3.03,3.01,3.03h4.21v5.67h1.81s0,0,0,0h.18v-6.79l-.02-.07ZM27.33,16.17h0l.03,2.41c0,.51-.58.93-1.31.93h-2.28s-.06-4.23-.06-4.23l2.29-.02c.36,0,.69.1.95.26.24.18.39.41.39.65h0ZM.38,17.94C.15,17.87,0,17.7,0,17.53c0-.16.15-.33.36-.41l5.09-1.74.05,4.26-5.13-1.69ZM6.32,19.61h0l-.06-4.24,14.49-.08.06,4.25-14.49.08ZM23.15,19.52h0l-.05-4.24h-1.67s.06,4.26.06,4.26l1.67-.02ZM7.55,8.02c-.33,0-.61-.27-.61-.61,0-.35.28-.63.61-.63h6.06c.33,0,.61.28.61.63s-.28.61-.61.61h-6.06ZM7.61,6.01c-.34,0-.61-.28-.61-.61s.28-.62.61-.62h6.05c.35,0,.63.28.63.62s-.28.61-.63.61h-6.05ZM7.61,4.17c-.34,0-.61-.28-.61-.61,0-.35.28-.61.61-.61h6.05c.35,0,.63.26.63.61,0,.33-.28.61-.63.61h-6.05ZM7.48,23.84c-.33,0-.61-.26-.61-.61s.28-.61.61-.61h12.11c.33,0,.61.28.61.61s-.28.61-.61.61H7.48ZM7.37,21.54c-.35,0-.61-.28-.61-.61s.26-.62.61-.62h12.1c.34,0,.62.28.62.62s-.28.61-.62.61H7.37ZM7.59,14.58c-.33,0-.61-.28-.61-.61s.28-.62.61-.62h12.11c.33,0,.61.28.61.62s-.28.61-.61.61H7.59ZM7.66,12.26c-.35,0-.62-.28-.62-.61s.27-.61.62-.61h12.09c.35,0,.61.28.61.61s-.26.61-.61.61H7.66ZM4.16,19.64v3.58c.1,1.56,1.4,2.84,3.01,2.84h13.54c1.66,0,2.99-1.34,2.99-2.99v-3.12h-1.99v3.12h0c0,.55-.45,1.01-1,1.01H7.17c-.57,0-1.03-.46-1.03-1.01v-3.03h-.19v.18l-1.79-.59ZM16.47,2.87h0l4.33,4.33h-3.29c-.57,0-1.04-.47-1.04-1.05v-3.28Z"/>
  </g>
</svg>